<svg id="Calque_1" data-name="Calque 1" xmlns="http://www.w3.org/2000/svg" width="360" height="360" viewBox="0 0 360 360">
  <title>Sans titre - 1</title>
  <rect width="360" height="360" fill="#0054c9"/>
  <path d="M164.65,153.31c7.72,0,14.4,2.18,14.4,11.14,0,4.54-2.11,7.47-6.14,9.4,5.54,1.57,8.22,5.75,8.22,11.39,0,9.14-7.68,13.07-15.86,13.07H143.43v-45h21.22Zm-1.29,18.18c3.54,0,6-1.54,6-5.36,0-4.14-3.21-5.14-6.79-5.14h-9.29v10.5h10Zm0.54,19.18c4,0,7.32-1.43,7.32-6s-2.75-6.43-7.11-6.43H153.32v12.4H163.9Zm44.19-2.46H216c-2.43,7.47-7.47,11-15.25,11-10.29,0-16.68-7-16.68-17.11,0-9.79,6.75-17.25,16.68-17.25,10.22,0,15.86,8,15.86,17.68,0,0.57,0,1.14-.07,1.68H193c0,5.21,2.75,8.29,8,8.29C203.73,192.46,207.23,191,208.08,188.2Zm-16.9-31.86v4.43h18.25v-4.43H191.19ZM193,178.52h14.57c-0.39-4.32-2.64-7-7.14-7A7,7,0,0,0,193,178.52Z" fill="#fff"/>
</svg>
