<svg id="Calque_1" data-name="Calque 1" xmlns="http://www.w3.org/2000/svg" width="360" height="360" viewBox="0 0 360 360">
  <title>Sans titre - 1</title>
  <rect width="360" height="360" fill="#152945"/>
  <path d="M207.44,176.24a27.48,27.48,0,0,1-18.75,26,1.39,1.39,0,0,1-1.89-1.32c0-.89,0-3.86,0-7.54,0-2.57-.86-4.21-1.86-5.07,6.11-.68,12.54-3,12.54-13.54a10.63,10.63,0,0,0-2.82-7.36,9.92,9.92,0,0,0-.29-7.29c-2.29-.71-7.54,2.82-7.54,2.82a25.79,25.79,0,0,0-13.72,0s-5.25-3.54-7.54-2.82a9.92,9.92,0,0,0-.29,7.29,10.63,10.63,0,0,0-2.82,7.36c0,10.5,6.39,12.86,12.5,13.54a6,6,0,0,0-1.75,3.68c-1.57.71-5.57,1.93-8-2.29a5.76,5.76,0,0,0-4.22-2.82c-2.68,0-.18,1.68-0.18,1.68,1.79,0.82,3,4,3,4,1.61,4.89,9.25,3.25,9.25,3.25,0,2.29,0,4.43,0,5.11a1.39,1.39,0,0,1-1.89,1.32A27.44,27.44,0,1,1,207.44,176.24Zm-44.72,11.54a0.4,0.4,0,0,0-.46.07,0.35,0.35,0,0,0,.25.43,0.33,0.33,0,0,0,.46-0.07A0.35,0.35,0,0,0,162.72,187.78Zm1.29,1.07a0.42,0.42,0,0,0-.57-0.11,0.41,0.41,0,0,0,.07.57,0.42,0.42,0,0,0,.57.11A0.41,0.41,0,0,0,164,188.85Zm1.14,1.5a0.43,0.43,0,0,0-.61-0.21,0.45,0.45,0,0,0,0,.64,0.5,0.5,0,0,0,.61.25A0.49,0.49,0,0,0,165.15,190.35Zm1.36,1.5a0.49,0.49,0,0,0-.71-0.11,0.46,0.46,0,0,0,.14.68,0.49,0.49,0,0,0,.71.11A0.53,0.53,0,0,0,166.5,191.85Zm1.71,1a0.57,0.57,0,0,0-.68.25,0.5,0.5,0,0,0,.46.54,0.52,0.52,0,0,0,.68-0.21A0.54,0.54,0,0,0,168.22,192.85Zm2.11,0.36a0.51,0.51,0,0,0-.57.39,0.48,0.48,0,0,0,.61.39,0.51,0.51,0,0,0,.57-0.39A0.49,0.49,0,0,0,170.33,193.21Zm2-.29a0.54,0.54,0,0,0-.5.54,0.5,0.5,0,0,0,.64.29,0.53,0.53,0,0,0,.5-0.5A0.55,0.55,0,0,0,172.36,192.92Z" fill="#fff"/>
</svg>
