<svg id="Calque_1" data-name="Calque 1" xmlns="http://www.w3.org/2000/svg" width="360" height="360" viewBox="0 0 360 360">
  <title>Sans titre - 1</title>
  <rect width="360" height="360" fill="#dbbe00"/>
  <path d="M207.44,193.38a10.29,10.29,0,0,1-10.29,10.29H162.86a10.29,10.29,0,0,1-10.29-10.29V159.09a10.29,10.29,0,0,1,10.29-10.29h34.29a10.29,10.29,0,0,1,10.29,10.29v34.29ZM193,159.09q-8.25-.27-11.14,9.32a7.43,7.43,0,0,1,2.93-.68c2,0,2.89,1.14,2.64,3.43-0.11,1.36-1,3.36-2.64,6s-2.93,3.93-3.75,3.93c-1.07,0-2-2-2.93-6-0.29-1.21-.82-4.22-1.61-9.11-0.71-4.5-2.61-6.61-5.71-6.32-1.29.14-3.29,1.29-5.86,3.57-1.93,1.68-3.82,3.43-5.79,5.14L161,170.7a13.58,13.58,0,0,1,3.11-1.86c1.36,0,2.64,2.14,3.82,6.39,1.07,3.93,2.14,7.82,3.21,11.75,1.61,4.25,3.54,6.39,5.86,6.39q5.57,0,13.68-10.5c5.21-6.72,7.93-12,8.07-15.86C199,161.84,197,159.23,193,159.09Z" fill="#fff"/>
</svg>
