<?xml version="1.0" standalone="no"?>
<!DOCTYPE svg PUBLIC "-//W3C//DTD SVG 1.1//EN" "http://www.w3.org/Graphics/SVG/1.1/DTD/svg11.dtd" >
<svg xmlns="http://www.w3.org/2000/svg" xmlns:xlink="http://www.w3.org/1999/xlink" version="1.1">
<metadata>
Created by FontForge 20170924 at Thu May 11 23:16:18 2017
 By patjennings,,,
LL Circular Air font files are proprietary and protected by copyright of LINETO GMBH. They are for exclusive use by licensed users and appointed third parties only, to carry out work for and on behalf of AirBnB under the limited license expiring on 15 June 2018.

Use by unauthorised or unlicensed users and third parties is prohibited and constitutes a criminal offence. It is strictly prohibited to modify, adapt or translate the encoding, reproduce, decompile, disassemble, change, modify or otherwise attempt to reveal the source code of the font software.
</metadata>
<defs>
<font id="CircularAirPro-Book" horiz-adv-x="606" >
  <font-face 
    font-family="CircularAirPro Book"
    font-weight="400"
    font-stretch="normal"
    units-per-em="1000"
    panose-1="2 0 5 3 0 0 0 2 0 3"
    ascent="809"
    descent="-191"
    x-height="481"
    cap-height="709"
    bbox="-159 -257 1519 1021"
    underline-thickness="80"
    underline-position="-195"
    unicode-range="U+000D-F9001"
  />
<missing-glyph horiz-adv-x="562" 
d="M482 709v-709h-402v709h402zM403 630h-244v-551h244v551z" />
    <glyph glyph-name="f_f" unicode="ff" horiz-adv-x="659" 
d="M544.5 620.5q-22.5 -18.5 -22.5 -63.5v-76h116v-85h-116v-396h-97v396h-219v-396h-97v396h-89v85h89v81q0 78 45 121.5t113 43.5q21 0 36.5 -3.5t19.5 -6.5v-84q-10 6 -41 6t-53.5 -18.5t-22.5 -63.5v-76h219v81q0 78 45 121.5t113 43.5q21 0 36.5 -3.5t19.5 -6.5v-84
q-10 6 -41 6t-53.5 -18.5z" />
    <glyph glyph-name="f_f_i" unicode="ffi" horiz-adv-x="920" 
d="M745.5 713.5q19.5 19.5 47.5 19.5q29 0 48.5 -19.5t19.5 -48.5q0 -28 -19.5 -47.5t-48.5 -19.5q-28 0 -47.5 19.5t-19.5 47.5q0 29 19.5 48.5zM154 683.5q45 43.5 113 43.5q21 0 36.5 -3.5t19.5 -6.5v-84q-10 6 -41 6t-53.5 -18.5t-22.5 -63.5v-76h219v81q0 78 45 121.5
t113 43.5q21 0 36.5 -3.5t19.5 -6.5v-84q-10 6 -41 6t-53.5 -18.5t-22.5 -63.5v-76h318v-481h-93v396h-225v-396h-97v396h-219v-396h-97v396h-89v85h89v81q0 78 45 121.5z" />
    <glyph glyph-name="f_f_l" unicode="ffl" horiz-adv-x="920" 
d="M154 683.5q45 43.5 113 43.5q21 0 36.5 -3.5t19.5 -6.5v-84q-10 6 -41 6t-53.5 -18.5t-22.5 -63.5v-76h219v81q0 78 45 121.5t113 43.5q21 0 36.5 -3.5t19.5 -6.5v-84q-10 6 -41 6t-53.5 -18.5t-22.5 -63.5v-76h225v243h93v-724h-93v396h-225v-396h-97v396h-219v-396h-97
v396h-89v85h89v81q0 78 45 121.5z" />
    <glyph glyph-name="f_i" unicode="fi" horiz-adv-x="604" 
d="M429.5 713.5q19.5 19.5 47.5 19.5q29 0 48.5 -19.5t19.5 -48.5q0 -28 -19.5 -47.5t-48.5 -19.5q-28 0 -47.5 19.5t-19.5 47.5q0 29 19.5 48.5zM303.5 723.5q15.5 -3.5 19.5 -6.5v-84q-10 6 -41 6t-53.5 -18t-22.5 -63v-77h318v-481h-93v396h-225v-396h-97v396h-89v85h89
v81q0 78 45 121.5t113 43.5q21 0 36.5 -3.5z" />
    <glyph glyph-name="f_l" unicode="fl" horiz-adv-x="602" 
d="M228.5 620.5q-22.5 -18.5 -22.5 -63.5v-76h222v243h94v-724h-94v396h-222v-396h-97v396h-89v85h89v81q0 78 45 121.5t113 43.5q21 0 36.5 -3.5t19.5 -6.5v-84q-10 6 -41 6t-53.5 -18.5z" />
    <glyph glyph-name=".notdef" horiz-adv-x="562" 
d="M482 709v-709h-402v709h402zM403 630h-244v-551h244v551z" />
    <glyph glyph-name=".null" horiz-adv-x="0" 
 />
    <glyph glyph-name="nonmarkingreturn" unicode="&#xd;" horiz-adv-x="250" 
 />
    <glyph glyph-name="space" unicode=" " horiz-adv-x="250" 
 />
    <glyph glyph-name="exclam" unicode="!" horiz-adv-x="311" 
d="M122 203l-26 506h118l-25 -506h-67zM109 106.5q19 19.5 46 19.5t46.5 -19.5t19.5 -46.5t-19.5 -46t-46.5 -19t-46 19t-19 46t19 46.5z" />
    <glyph glyph-name="quotedbl" unicode="&#x22;" horiz-adv-x="374" 
d="M57 704q17 17 44 17q26 0 43 -17t17 -44q0 -4 -2 -18l-42 -188h-34l-41 187q-2 14 -2 19q0 27 17 44zM230 704q17 17 44 17q26 0 43 -17t17 -44q0 -4 -2 -18l-42 -188h-34l-41 187q-2 14 -2 19q0 27 17 44z" />
    <glyph glyph-name="numbersign" unicode="#" horiz-adv-x="803" 
d="M267 525l39 184h88l-41 -184h158l39 184h88l-40 -184h149v-79h-166l-38 -182h151v-78h-168l-39 -186h-88l40 186h-158l-39 -186h-87l40 186h-138v78h155l38 182h-140v79h157zM457 264l38 182h-158l-37 -182h157z" />
    <glyph glyph-name="dollar" unicode="$" horiz-adv-x="649" 
d="M292 -14q-70 6 -121.5 38t-80 79t-34.5 97l97 32q7 -58 41 -102.5t98 -55.5v240l-27 5q-85 18 -132 68t-47 129q0 50 26.5 94.5t73.5 74t106 35.5v89h87v-90q90 -11 136.5 -60t64.5 -115l-91 -35q-7 37 -35 72.5t-75 50.5v-237l14 -3q87 -18 140 -73t53 -128
q0 -50 -24 -94.5t-71 -74.5t-112 -36v-90h-87v90zM210.5 455q24.5 -26 80.5 -40h1v220q-49 -9 -77.5 -40.5t-28.5 -74.5q0 -39 24.5 -65zM460.5 254q-27.5 31 -81.5 42v-222q57 11 83 40.5t26 70.5q0 38 -27.5 69z" />
    <glyph glyph-name="percent" unicode="%" horiz-adv-x="895" 
d="M86 633q24 39 63.5 61.5t85.5 22.5t86 -22.5t64.5 -61.5t24.5 -85q0 -47 -24.5 -86t-64.5 -62t-86 -23t-85.5 22.5t-63.5 62t-24 86.5q0 46 24 85zM655 709h92l-507 -709h-95zM174 485q25 -25 61 -25q37 0 62 25t25 63t-25 62.5t-62 24.5q-36 0 -61 -24.5t-25 -62.5
t25 -63zM509 248q24 39 63.5 61.5t85.5 22.5t86 -22.5t64.5 -61.5t24.5 -86t-24.5 -86t-64.5 -61.5t-86 -22.5t-85.5 22.5t-63.5 61.5t-24 86t24 86zM597 99.5q25 -24.5 61 -24.5q37 0 62 24.5t25 62.5t-25 63t-62 25q-36 0 -61 -25t-25 -63t25 -62.5z" />
    <glyph glyph-name="ampersand" unicode="&#x26;" horiz-adv-x="697" 
d="M379 15q-47 -27 -104 -27q-64 0 -110.5 25.5t-70.5 67t-24 88.5q0 63 30.5 106.5t94.5 91.5l10 8l-13 14q-39 41 -62 76.5t-23 81.5q0 55 26.5 95t68.5 61t88 21q82 0 135 -47t53 -126q0 -84 -100 -157l-36 -27l132 -137l158 176v-129l-96 -111l161 -166h-133l-90 94
q-48 -52 -95 -79zM258 454l22 -24l48 36q30 22 41.5 42.5t11.5 45.5q0 36 -25.5 61t-64.5 25q-33 0 -60 -24t-27 -63q0 -45 54 -99zM343.5 98q29.5 20 64.5 58l3 4l-144 151l-36 -27q-29 -22 -44.5 -47.5t-15.5 -59.5q0 -24 13 -47t37 -37.5t55 -14.5q38 0 67.5 20z" />
    <glyph glyph-name="quotesingle" unicode="'" horiz-adv-x="201" 
d="M57 704q17 17 44 17q26 0 43 -17t17 -44q0 -4 -2 -18l-42 -188h-34l-41 187q-2 14 -2 19q0 27 17 44z" />
    <glyph glyph-name="parenleft" unicode="(" horiz-adv-x="302" 
d="M105.5 587q50.5 116 139.5 207l57 -50q-81 -90 -123.5 -195t-42.5 -232q0 -245 166 -427l-57 -50q-89 91 -139.5 207t-50.5 270t50.5 270z" />
    <glyph glyph-name="parenright" unicode=")" horiz-adv-x="302" 
d="M196.5 47q-50.5 -116 -139.5 -207l-57 50q166 186 166 427q0 127 -42.5 231.5t-123.5 195.5l57 50q89 -91 139.5 -207t50.5 -270t-50.5 -270z" />
    <glyph glyph-name="asterisk" unicode="*" horiz-adv-x="440" 
d="M382 617l23 -72l-124 -41l82 -105l-61 -46l-83 109l-78 -108l-61 46l79 104l-124 41l23 72l122 -43v135h79v-134z" />
    <glyph glyph-name="plus" unicode="+" horiz-adv-x="567" 
d="M242 562h82v-195h188v-79h-188v-197h-82v197h-187v79h187v195z" />
    <glyph glyph-name="comma" unicode="," horiz-adv-x="294" 
d="M90.5 111.5q20.5 19.5 52.5 19.5q34 0 57.5 -24.5t23.5 -70.5q0 -62 -23 -104t-57 -64.5t-68 -26.5v52q35 8 59 39.5t24 68.5q-5 -5 -22 -5q-29 0 -48 18.5t-19 49.5q0 28 20.5 47.5z" />
    <glyph glyph-name="hyphen" unicode="-" horiz-adv-x="361" 
d="M45 328h271v-82h-271v82z" />
    <glyph glyph-name="period" unicode="." horiz-adv-x="279" 
d="M90 113.5q20 20.5 49 20.5t49.5 -20.5t20.5 -49.5t-20.5 -49t-49.5 -20t-49 20t-20 49t20 49.5z" />
    <glyph glyph-name="slash" unicode="/" horiz-adv-x="434" 
d="M0 0l343 709h91l-343 -709h-91z" />
    <glyph glyph-name="zero" unicode="0" horiz-adv-x="667" 
d="M120 611q77 113 214 113t214 -113q63 -95 63 -257q0 -160 -63 -257q-76 -112 -214 -112t-214 112q-63 92 -63 257q0 166 63 257zM220 115q23 -22 50.5 -33t63.5 -11q67 0 113 44q67 67 67 239t-67 239q-46 44 -113 44q-36 0 -63.5 -11t-50.5 -33q-67 -67 -67 -239
t67 -239z" />
    <glyph glyph-name="one" unicode="1" horiz-adv-x="375" 
d="M197 506h-171v70q72 2 120 38t60 95h87v-709h-96v506z" />
    <glyph glyph-name="two" unicode="2" horiz-adv-x="574" 
d="M47 497q0 61 29 113t83.5 83t128.5 31q72 0 125.5 -29t82 -78t28.5 -108q0 -67 -35 -123t-97 -96l-141 -91q-37 -24 -60 -49t-31 -57h368v-93h-489q2 88 41 154.5t127 122.5l118 78q50 32 75 71t25 82q0 54 -36.5 92t-102.5 38q-69 0 -104.5 -42t-35.5 -109q0 -19 1 -30
l-100 15v25z" />
    <glyph glyph-name="three" unicode="3" horiz-adv-x="604" 
d="M411 617h-344v92h476v-91l-206 -194q55 0 105.5 -23.5t83 -72t32.5 -119.5q0 -60 -29.5 -111t-87 -82t-136.5 -31t-136.5 30.5t-89 81t-35.5 109.5l97 23q1 -48 23.5 -83.5t59 -55t80.5 -19.5q73 0 114 39t41 96q0 67 -44.5 102t-105.5 35q-35 0 -62 -10l-49 85z" />
    <glyph glyph-name="four" unicode="4" horiz-adv-x="621" 
d="M343 709h139v-456h122v-92h-122v-161h-94v161h-349v116zM130 253h258v365z" />
    <glyph glyph-name="five" unicode="5" horiz-adv-x="596" 
d="M185 112.5q46 -41.5 115 -41.5q67 0 112 41t45 107q0 72 -45.5 112t-112.5 40q-39 0 -74 -13t-59 -39q-33 13 -41 18q-8 3 -24.5 10t-32.5 12l94 350h367v-92h-303l-56 -214q23 27 62.5 41t84.5 14q69 0 123.5 -28t85 -81t30.5 -125q0 -66 -32 -121t-90.5 -86.5
t-133.5 -31.5q-72 0 -129.5 28.5t-91.5 76t-40 103.5l96 29q4 -68 50 -109.5z" />
    <glyph glyph-name="six" unicode="6" horiz-adv-x="631" 
d="M481.5 625.5q-33.5 9.5 -71.5 9.5q-74 0 -130 -34.5t-87 -94.5t-34 -134q24 40 73 66.5t116 26.5q70 0 125 -28t86 -82.5t31 -130.5q0 -73 -36 -127.5t-95 -83t-128 -28.5q-71 0 -133 33.5t-101 107t-39 186.5q0 128 47 221t128.5 142t182.5 49q46 0 86.5 -11.5
t66.5 -29.5l-30 -80q-24 13 -57.5 22.5zM196.5 143q22.5 -35 59 -54t76.5 -19q43 0 79.5 18.5t58 54t21.5 82.5q0 48 -21.5 83t-58 53.5t-79.5 18.5t-79 -18.5t-57.5 -53.5t-21.5 -83q0 -47 22.5 -82z" />
    <glyph glyph-name="seven" unicode="7" horiz-adv-x="521" 
d="M329.5 390q-92.5 -147 -115.5 -390h-100q11 143 55 259.5t105 205.5t136 152h-405v92h511v-97q-94 -75 -186.5 -222z" />
    <glyph glyph-name="eight" unicode="8" horiz-adv-x="608" 
d="M167.5 11.5q-57.5 26.5 -87.5 72.5t-30 102q0 64 38 110.5t98 65.5q-49 19 -82.5 63.5t-33.5 102.5q0 57 31 101.5t84 69.5t119 25t119.5 -25t84.5 -69.5t31 -101.5q0 -58 -33 -102.5t-84 -63.5q60 -19 98 -65.5t38 -110.5q0 -56 -30 -102t-87.5 -72.5t-136.5 -26.5
t-136.5 26.5zM402.5 438.5q38.5 32.5 38.5 85.5q0 52 -37.5 85t-99.5 33q-61 0 -98.5 -33t-37.5 -85q0 -53 38 -85.5t98 -34.5q60 2 98.5 34.5zM417 105.5q41 34.5 41 88.5q0 55 -41.5 90t-112.5 35t-112.5 -35t-41.5 -90q0 -54 40.5 -88.5t113.5 -34.5q72 0 113 34.5z" />
    <glyph glyph-name="nine" unicode="9" horiz-adv-x="632" 
d="M158.5 83.5q35.5 -9.5 68.5 -9.5q126 0 186.5 73t62.5 188q-20 -40 -68 -66.5t-119 -26.5q-63 0 -119 27.5t-90.5 82t-34.5 129.5q0 71 36 126.5t95.5 86t126.5 30.5q71 0 133.5 -35.5t101.5 -108t39 -179.5q0 -199 -88 -307.5t-262 -108.5q-42 0 -90 12t-74 30l35 81
q25 -15 60.5 -24.5zM441.5 563.5q-22.5 35.5 -59.5 54.5t-78 19t-77 -19t-58.5 -54t-22.5 -82q0 -49 21.5 -84t57.5 -53.5t79 -18.5q42 0 78.5 19t59 54t22.5 83q0 46 -22.5 81.5z" />
    <glyph glyph-name="colon" unicode=":" horiz-adv-x="290" 
d="M95 465.5q20 20.5 49 20.5t49.5 -20.5t20.5 -49.5t-20.5 -49t-49.5 -20t-49 20t-20 49t20 49.5zM96 113.5q20 20.5 49 20.5t49.5 -20.5t20.5 -49.5t-20.5 -49t-49.5 -20t-49 20t-20 49t20 49.5z" />
    <glyph glyph-name="semicolon" unicode=";" horiz-adv-x="297" 
d="M96 465.5q20 20.5 49 20.5t49.5 -20.5t20.5 -49.5t-20.5 -49t-49.5 -20t-49 20t-20 49t20 49.5zM95 106q20 19 50 19q32 0 54.5 -23.5t22.5 -66.5q0 -59 -22 -99t-54 -60.5t-65 -25.5v49q34 8 56.5 38.5t22.5 64.5q-5 -5 -21 -5q-27 0 -45.5 17.5t-18.5 47.5q0 25 20 44z
" />
    <glyph glyph-name="less" unicode="&#x3c;" horiz-adv-x="482" 
d="M447 575v-95l-310 -153l310 -153v-95l-412 205v85z" />
    <glyph glyph-name="equal" unicode="=" horiz-adv-x="593" 
d="M65 463h463v-77h-463v77zM65 270h463v-79h-463v79z" />
    <glyph glyph-name="greater" unicode="&#x3e;" horiz-adv-x="482" 
d="M35 79v95l312 153l-312 153v95l412 -206v-85z" />
    <glyph glyph-name="question" unicode="?" horiz-adv-x="510" 
d="M195 238q0 51 19.5 89t63.5 67l44 30q26 17 39.5 42.5t13.5 55.5q0 48 -31 81t-88 33q-61 0 -93 -37.5t-32 -90.5q0 -30 7 -49l-97 12q-6 21 -6 48q0 49 24.5 96.5t74 78t122.5 30.5q67 0 117 -28.5t76 -74.5t26 -98q0 -107 -102 -174l-46 -31q-22 -15 -33 -40t-11 -56
l1 -19h-88q-1 12 -1 35zM193 106.5q19 19.5 46 19.5t46.5 -19.5t19.5 -46.5t-19.5 -46t-46.5 -19t-46 19t-19 46t19 46.5z" />
    <glyph glyph-name="at" unicode="@" horiz-adv-x="826" 
d="M537 153q-27 16 -35 48q-23 -32 -54.5 -49t-64.5 -17q-69 0 -111 46.5t-42 124.5q0 65 27 118.5t73 84t100 30.5q35 0 65.5 -17t41.5 -49l9 53h79l-54 -251q-3 -15 -3 -28q0 -41 38 -41q27 0 52 26.5t40.5 70.5t15.5 93q0 73 -35 131t-98.5 91t-146.5 33q-87 0 -157 -40
t-110 -112.5t-40 -166.5q0 -88 38 -157.5t110 -109t170 -39.5q56 0 108.5 17.5t96.5 52.5l41 -54q-43 -41 -111.5 -65t-134.5 -24q-116 0 -207 47.5t-142 134t-51 198.5q0 113 52.5 202.5t141.5 139t194 49.5q100 0 182 -42.5t129 -117.5t47 -167q0 -73 -25.5 -132.5
t-69 -93.5t-95.5 -34q-37 0 -64 16zM493.5 439.5q-21.5 24.5 -62.5 24.5q-35 0 -62 -20.5t-42 -54.5t-15 -72q0 -109 85 -109q51 0 83.5 45.5t34.5 116.5q0 45 -21.5 69.5z" />
    <glyph glyph-name="A" unicode="A" horiz-adv-x="697" 
d="M190 198l-75 -198h-105l282 709h113l282 -709h-106l-77 198h-314zM469 289l-123 318l-121 -318h244z" />
    <glyph glyph-name="B" unicode="B" horiz-adv-x="602" 
d="M435.5 684.5q48.5 -24.5 74 -68t25.5 -99.5t-28.5 -95.5t-77.5 -57.5q60 -16 94 -63t34 -108q0 -56 -27.5 -99.5t-77.5 -68.5t-114 -25h-248v709h231q66 0 114.5 -24.5zM402.5 430q33.5 31 33.5 82t-34.5 81t-95.5 30h-118v-224h122q59 0 92.5 31zM420.5 116.5
q36.5 30.5 36.5 82.5q0 53 -33 84.5t-96 31.5h-140v-229h136q60 0 96.5 30.5z" />
    <glyph glyph-name="C" unicode="C" horiz-adv-x="750" 
d="M223 29q-81 44 -129.5 128t-48.5 198q0 113 50 197t130.5 128t171.5 44q120 0 201.5 -60t110.5 -165l-91 -32q-20 81 -76.5 124t-144.5 43q-67 0 -124.5 -32t-92.5 -95t-35 -152t35 -152t92.5 -95.5t124.5 -32.5q87 0 144.5 46.5t81.5 123.5l87 -32q-28 -103 -111 -165.5
t-202 -62.5q-93 0 -174 44z" />
    <glyph glyph-name="D" unicode="D" horiz-adv-x="720" 
d="M90 709h248q92 0 169 -41.5t122.5 -122t45.5 -192.5t-46 -191.5t-123.5 -120.5t-169.5 -41h-246v709zM455.5 117q54.5 30 86.5 90t32 146q0 87 -31.5 147.5t-86 91t-121.5 30.5h-147v-535h145q68 0 122.5 30z" />
    <glyph glyph-name="E" unicode="E" horiz-adv-x="581" 
d="M90 709h431v-91h-333v-218h302v-92h-302v-217h333v-91h-431v709z" />
    <glyph glyph-name="F" unicode="F" horiz-adv-x="551" 
d="M90 709h431v-91h-333v-228h302v-92h-302v-298h-98v709z" />
    <glyph glyph-name="G" unicode="G" horiz-adv-x="765" 
d="M616 100q-27 -48 -85.5 -81.5t-141.5 -33.5q-92 0 -170.5 43.5t-126 127.5t-47.5 199t49.5 198.5t130 127t171.5 43.5q114 0 199 -58.5t115 -155.5l-89 -38q-24 77 -83 119.5t-142 42.5q-66 0 -123.5 -31.5t-92.5 -94.5t-35 -153t34 -153.5t90.5 -95.5t122.5 -32
q73 0 121.5 29t71.5 71.5t26 84.5h-246v88h339v-347h-79z" />
    <glyph glyph-name="H" unicode="H" horiz-adv-x="738" 
d="M550 315h-362v-315h-98v709h98v-303h362v303h98v-709h-98v315z" />
    <glyph glyph-name="I" unicode="I" horiz-adv-x="280" 
d="M90 709h100v-709h-100v709z" />
    <glyph glyph-name="J" unicode="J" horiz-adv-x="534" 
d="M118 279v-67q0 -69 32.5 -102.5t89.5 -33.5q54 0 85 33.5t31 95.5v504h98v-497q0 -62 -26 -114t-74.5 -82.5t-112.5 -30.5q-103 0 -162 61.5t-59 164.5v46z" />
    <glyph glyph-name="K" unicode="K" horiz-adv-x="668" 
d="M188 214v-214h-98v709h98v-365l332 365h129l-295 -316l299 -393h-124l-240 322z" />
    <glyph glyph-name="L" unicode="L" horiz-adv-x="548" 
d="M90 709h98v-617h335v-92h-433v709z" />
    <glyph glyph-name="M" unicode="M" horiz-adv-x="946" 
d="M759 552l-242 -552h-90l-240 552v-552h-97v709h133l250 -577l252 577h131v-709h-97v552z" />
    <glyph glyph-name="N" unicode="N" horiz-adv-x="763" 
d="M188 578v-578h-98v709h131l354 -544v544h98v-709h-102z" />
    <glyph glyph-name="O" unicode="O" horiz-adv-x="802" 
d="M95.5 552q50.5 84 132 128t173.5 44t173.5 -44t132 -128t50.5 -197q0 -114 -50.5 -198t-132 -128t-173.5 -44t-173.5 44t-132 128t-50.5 198q0 113 50.5 197zM180.5 203q35.5 -63 94 -95.5t126.5 -32.5t126.5 32.5t94 95.5t35.5 152t-35.5 152t-94 95t-126.5 32
t-126.5 -32t-94 -95t-35.5 -152t35.5 -152z" />
    <glyph glyph-name="P" unicode="P" horiz-adv-x="597" 
d="M188 0h-98v709h258q64 0 114 -27.5t77.5 -75.5t27.5 -107q0 -60 -27.5 -107.5t-77.5 -74.5t-114 -27h-160v-290zM430 410.5q37 32.5 37 87.5q0 57 -36.5 90t-100.5 33h-142v-243h142q63 0 100 32.5z" />
    <glyph glyph-name="Q" unicode="Q" horiz-adv-x="802" 
d="M95.5 552q50.5 84 132 128t173.5 44t173.5 -44t132 -128t50.5 -197q0 -157 -100 -262l83 -93l-67 -59l-86 95q-82 -51 -186 -51q-92 0 -173.5 44t-132 128t-50.5 198q0 113 50.5 197zM180.5 203q35.5 -63 94 -95.5t126.5 -32.5q69 0 124 31l-123 138l68 59l124 -140
q63 76 63 192q0 89 -35.5 152t-94 95t-126.5 32t-126.5 -32t-94 -95t-35.5 -152t35.5 -152z" />
    <glyph glyph-name="R" unicode="R" horiz-adv-x="619" 
d="M189 290v-290h-99v709h267q65 0 114.5 -28t76 -76t26.5 -107q0 -78 -46 -132t-126 -69l169 -297h-114l-162 290h-106zM436 410.5q37 32.5 37 87.5q0 57 -36.5 90t-97.5 33h-150v-243h150q60 0 97 32.5z" />
    <glyph glyph-name="S" unicode="S" horiz-adv-x="593" 
d="M409 601q-38 37 -105 37q-60 0 -98.5 -33.5t-38.5 -84.5q0 -39 23.5 -66t67.5 -37l106 -23q89 -20 136.5 -72t47.5 -127q0 -55 -30.5 -103.5t-86 -77.5t-128.5 -29q-81 0 -138.5 30.5t-88.5 78.5t-38 102l94 30q6 -65 50 -108.5t120 -43.5q70 0 108 31.5t38 81.5
q0 40 -27 69.5t-79 40.5l-101 22q-79 18 -126 67.5t-47 126.5q0 55 31 103.5t85 78t118 29.5q108 0 166.5 -53t73.5 -123l-88 -31q-7 47 -45 84z" />
    <glyph glyph-name="T" unicode="T" horiz-adv-x="592" 
d="M345 0h-98v618h-237v91h572v-91h-237v-618z" />
    <glyph glyph-name="U" unicode="U" horiz-adv-x="670" 
d="M204 14.5q-58 29.5 -91 87.5t-33 140v467h97v-464q0 -81 41.5 -125t116.5 -44t116 44t41 125v464h98v-467q0 -82 -33 -140t-91 -87.5t-131 -29.5t-131 29.5z" />
    <glyph glyph-name="V" unicode="V" horiz-adv-x="657" 
d="M647 709l-273 -709h-97l-267 709h104l214 -583l216 583h103z" />
    <glyph glyph-name="W" unicode="W" horiz-adv-x="1004" 
d="M989 709l-202 -709h-101l-185 575l-183 -575h-98l-205 709h101l156 -555l178 555h103l182 -561l153 561h101z" />
    <glyph glyph-name="X" unicode="X" horiz-adv-x="617" 
d="M604 0h-117l-179 277l-183 -277h-115l242 355l-240 354h118l179 -278l182 278h116l-241 -354z" />
    <glyph glyph-name="Y" unicode="Y" horiz-adv-x="618" 
d="M128 709l184 -316l184 316h112l-250 -406v-303h-98v303l-250 406h118z" />
    <glyph glyph-name="Z" unicode="Z" horiz-adv-x="632" 
d="M45 98l423 520h-413v91h532v-95l-425 -522h430v-92h-547v98z" />
    <glyph glyph-name="bracketleft" unicode="[" horiz-adv-x="288" 
d="M90 785h193v-76h-111v-782h111v-75h-193v933z" />
    <glyph glyph-name="backslash" unicode="\" horiz-adv-x="434" 
d="M93 709l341 -709h-93l-341 709h93z" />
    <glyph glyph-name="bracketright" unicode="]" horiz-adv-x="288" 
d="M5 -73h111v782h-111v76h193v-933h-193v75z" />
    <glyph glyph-name="asciicircum" unicode="^" horiz-adv-x="521" 
d="M261 612l-137 -258h-99l194 356h83l194 -356h-99z" />
    <glyph glyph-name="underscore" unicode="_" horiz-adv-x="542" 
d="M15 0h512v-79h-512v79z" />
    <glyph glyph-name="grave" unicode="`" horiz-adv-x="272" 
d="M152 689l86 -146h-78l-126 146h118z" />
    <glyph glyph-name="a" unicode="a" horiz-adv-x="523" 
d="M89.5 228q39.5 37 106.5 47l130 19q37 5 37 36q0 38 -26 62t-78 24q-48 0 -75.5 -26.5t-33.5 -70.5l-90 21q8 69 63 112.5t134 43.5q101 0 150.5 -50t49.5 -126v-241q0 -55 6 -79h-92q-5 20 -5 65q-20 -32 -58.5 -56t-96.5 -24q-47 0 -84 20t-57 53t-20 71q0 62 39.5 99z
M325 98q38 34 38 108v22l-147 -22q-32 -6 -51 -23.5t-19 -48.5q0 -28 21.5 -49t56.5 -21q63 0 101 34z" />
    <glyph glyph-name="b" unicode="b" horiz-adv-x="593" 
d="M80 724h93v-311q19 35 60.5 58.5t98.5 23.5q71 0 120.5 -33t75 -90.5t25.5 -128.5q0 -72 -26.5 -130.5t-77 -92t-120.5 -33.5q-53 0 -92.5 21.5t-63.5 61.5v-70h-93v724zM419 366.5q-38 45.5 -104 45.5q-64 0 -103.5 -46t-39.5 -123q0 -78 39.5 -125t103.5 -47
q65 0 103.5 47t38.5 125t-38 123.5z" />
    <glyph glyph-name="c" unicode="c" horiz-adv-x="530" 
d="M209.5 390q-33.5 -19 -53.5 -57t-20 -92q0 -53 20 -91t53.5 -58t73.5 -20q60 0 91.5 30t42.5 69l83 -36q-21 -61 -76 -105.5t-141 -44.5q-69 0 -124.5 33.5t-87 92t-31.5 130.5q0 73 32 131.5t87 91t123 32.5q89 0 142 -44.5t72 -108.5l-85 -36q-12 43 -42.5 72.5
t-86.5 29.5q-39 0 -72.5 -19z" />
    <glyph glyph-name="d" unicode="d" horiz-adv-x="588" 
d="M360 11q-38 -24 -92 -24q-68 0 -120 33.5t-80 91.5t-28 130q0 68 29 125.5t81 92t118 34.5q58 0 95.5 -23.5t51.5 -57.5v311h93v-635q0 -49 5 -89h-91q-5 18 -5 65v8q-19 -38 -57 -62zM173.5 118q37.5 -48 103.5 -48q63 0 101 49t38 125t-37 121.5t-101 45.5t-103 -47
t-39 -122q0 -76 37.5 -124z" />
    <glyph glyph-name="e" unicode="e" horiz-adv-x="542" 
d="M421 28q-58 -43 -138 -43q-66 0 -121 30.5t-88 89t-33 137.5q0 73 32 131t84.5 90.5t113.5 32.5q109 0 170 -69t61 -183q0 -16 -2 -30h-362q2 -64 42.5 -105t102.5 -41q56 0 87.5 26t47.5 71l81 -28q-20 -66 -78 -109zM367.5 378.5q-34.5 34.5 -95.5 34.5
q-37 0 -66.5 -17.5t-46 -46t-18.5 -59.5h263q-2 54 -36.5 88.5z" />
    <glyph glyph-name="f" unicode="f" horiz-adv-x="343" 
d="M206 0h-97v396h-89v85h89v81q0 78 45 121.5t113 43.5q21 0 36.5 -3.5t19.5 -6.5v-84q-10 6 -41 6t-53.5 -18.5t-22.5 -63.5v-76h116v-85h-116v-396z" />
    <glyph glyph-name="g" unicode="g" horiz-adv-x="578" 
d="M177 -90q36 -33 90 -33q75 0 111 38.5t36 117.5v69q-18 -35 -56.5 -57t-90.5 -22q-63 0 -113.5 30t-79 83t-28.5 120q0 65 28 118.5t78 84.5t115 31q55 0 92.5 -19.5t55.5 -56.5v67h93v-445q0 -104 -57.5 -172.5t-183.5 -68.5q-59 0 -107.5 23t-79 64t-35.5 92l91 21
q5 -52 41 -85zM380 144.5q38 42.5 38 111.5t-38 111.5t-99 42.5q-63 0 -101 -42t-38 -112q0 -71 37.5 -112.5t101.5 -41.5q61 0 99 42.5z" />
    <glyph glyph-name="h" unicode="h" horiz-adv-x="562" 
d="M80 0v724h94v-299q25 36 63 53t83 17q84 0 128 -52.5t44 -137.5v-305h-94v289q0 55 -26.5 88t-85.5 33q-52 0 -81 -35.5t-31 -91.5v-283h-94z" />
    <glyph glyph-name="i" unicode="i" horiz-adv-x="253" 
d="M78.5 711.5q19.5 19.5 47.5 19.5q29 0 48.5 -19.5t19.5 -48.5q0 -28 -19.5 -47.5t-48.5 -19.5q-28 0 -47.5 19.5t-19.5 47.5q0 29 19.5 48.5zM80 481h93v-481h-93v481z" />
    <glyph glyph-name="j" unicode="j" horiz-adv-x="254" 
d="M78.5 713.5q19.5 19.5 47.5 19.5q29 0 48.5 -19.5t19.5 -48.5q0 -28 -19.5 -47.5t-48.5 -19.5q-28 0 -47.5 19.5t-19.5 47.5q0 29 19.5 48.5zM174 481v-537q0 -67 -35.5 -108t-97.5 -41q-40 0 -56 7v79q15 -3 30 -3q35 0 50 17.5t15 52.5v533h94z" />
    <glyph glyph-name="k" unicode="k" horiz-adv-x="525" 
d="M515 0h-118l-157 212l-67 -67v-145h-93v724h93v-456l208 213h130l-205 -203z" />
    <glyph glyph-name="l" unicode="l" horiz-adv-x="254" 
d="M80 724h94v-724h-94v724z" />
    <glyph glyph-name="m" unicode="m" horiz-adv-x="857" 
d="M80 481h90v-64q22 38 62 58t84 20q47 0 86 -23t58 -68q51 91 161 91q44 0 82 -20.5t61 -61.5t23 -101v-312h-93v302q0 50 -25.5 80t-76.5 30q-50 0 -80.5 -34.5t-30.5 -86.5v-291h-94v302q0 50 -25 80t-77 30q-51 0 -81.5 -34t-30.5 -88v-290h-93v481z" />
    <glyph glyph-name="n" unicode="n" horiz-adv-x="562" 
d="M80 0v481h92v-69q25 43 64 63t84 20q84 0 128 -52.5t44 -137.5v-305h-94v289q0 55 -26.5 88t-85.5 33q-54 0 -83 -37.5t-29 -94.5v-278h-94z" />
    <glyph glyph-name="o" unicode="o" horiz-adv-x="572" 
d="M413 463q56 -33 87.5 -91.5t31.5 -130.5q0 -73 -31.5 -131.5t-87.5 -91.5t-127 -33t-127 33t-87.5 91.5t-31.5 131.5q0 72 31.5 130.5t87.5 91.5t127 33t127 -33zM361 89q34 20 54.5 59t20.5 93t-20.5 92.5t-54.5 58.5t-75 20t-75 -20t-54.5 -58.5t-20.5 -92.5t20.5 -93
t54.5 -59t75 -20t75 20z" />
    <glyph glyph-name="p" unicode="p" horiz-adv-x="593" 
d="M80 481h91v-75q22 38 63.5 62t97.5 24q70 0 120 -33t75.5 -90t25.5 -128q0 -72 -27 -130t-77.5 -91t-119.5 -33q-53 0 -93.5 22t-62.5 56v-255h-93v671zM418.5 361.5q-38.5 47.5 -103.5 47.5q-64 0 -103.5 -48t-39.5 -120q0 -75 39.5 -122.5t103.5 -47.5q65 0 103.5 47
t38.5 123q0 73 -38.5 120.5z" />
    <glyph glyph-name="q" unicode="q" horiz-adv-x="581" 
d="M418 68q-19 -38 -58 -59.5t-92 -21.5q-68 0 -119.5 34t-80 92.5t-28.5 128.5q0 69 27.5 126t79 91t119.5 34q57 0 96.5 -25t57.5 -61v74h91v-671h-93v258zM175 118.5q39 -48.5 102 -48.5t102.5 48.5t39.5 123.5t-39 121.5t-103 46.5q-65 0 -103 -46t-38 -122
q0 -75 39 -123.5z" />
    <glyph glyph-name="r" unicode="r" horiz-adv-x="367" 
d="M306 389q-62 0 -97 -36t-35 -112v-241h-94v481h92v-84q23 50 62 71t82 21q16 0 31 -3v-100q-21 3 -41 3z" />
    <glyph glyph-name="s" unicode="s" horiz-adv-x="452" 
d="M154.5 90q28.5 -25 77.5 -25q38 0 60 18.5t22 45.5q0 23 -16 39t-46 23l-82 18q-57 12 -88.5 48t-31.5 87q0 41 23 76t62.5 55.5t85.5 20.5q87 0 129 -40.5t54 -88.5l-83 -31q-19 80 -100 80q-35 0 -57.5 -19t-22.5 -45q0 -46 55 -58l78 -17q65 -14 99 -51t34 -92
q0 -36 -20 -70.5t-60 -56.5t-96 -22q-61 0 -104 22t-65 54t-27 64l85 30q6 -40 34.5 -65z" />
    <glyph glyph-name="t" unicode="t" horiz-adv-x="355" 
d="M310 481v-85h-104v-250q0 -34 15.5 -50t51.5 -16q26 0 37 4v-80q-24 -9 -64 -9q-63 0 -98.5 36t-35.5 101v264h-92v85h26q37 0 55.5 20t18.5 54v78h86v-152h104z" />
    <glyph glyph-name="u" unicode="u" horiz-adv-x="566" 
d="M339 3.5q-39 -18.5 -84 -18.5q-55 0 -95.5 25.5t-62.5 69.5t-22 98v303h94v-289q0 -55 26.5 -89.5t82.5 -34.5t85 33.5t29 89.5v290h94v-392q0 -61 5 -89h-90q-4 15 -4 58q-19 -36 -58 -54.5z" />
    <glyph glyph-name="v" unicode="v" horiz-adv-x="502" 
d="M205 0l-195 481h106l137 -371l138 371h101l-192 -481h-95z" />
    <glyph glyph-name="w" unicode="w" horiz-adv-x="793" 
d="M573 119l106 362h99l-156 -481h-97l-128 366l-125 -366h-99l-158 481h103l108 -362l125 362h97z" />
    <glyph glyph-name="x" unicode="x" horiz-adv-x="491" 
d="M16 481h114l118 -169l116 169h111l-171 -236q30 -42 89 -122l88 -123h-113l-124 177l-122 -177h-112l179 245z" />
    <glyph glyph-name="y" unicode="y" horiz-adv-x="523" 
d="M217 53l-207 428h108l150 -332l144 332h101l-313 -682h-103z" />
    <glyph glyph-name="z" unicode="z" horiz-adv-x="466" 
d="M40 82l264 314h-260v85h377v-82l-264 -314h269v-85h-386v82z" />
    <glyph glyph-name="braceleft" unicode="{" horiz-adv-x="353" 
d="M124.5 385.5q30.5 24.5 30.5 76.5v137q0 93 46 139.5t134 46.5h13v-75h-13q-55 0 -76.5 -24.5t-21.5 -80.5v-164q0 -50 -27.5 -82t-76.5 -41q49 -9 76.5 -41t27.5 -82v-163q0 -56 21.5 -80.5t76.5 -24.5h13v-75h-13q-88 0 -134 46.5t-46 139.5v136q0 52 -30.5 76.5
t-79.5 24.5v86q49 0 79.5 24.5z" />
    <glyph glyph-name="bar" unicode="|" horiz-adv-x="262" 
d="M90 785h82v-933h-82v933z" />
    <glyph glyph-name="braceright" unicode="}" horiz-adv-x="353" 
d="M228.5 250.5q-30.5 -24.5 -30.5 -76.5v-136q0 -93 -46 -139.5t-134 -46.5h-13v75h13q55 0 76.5 24.5t21.5 80.5v163q0 50 27.5 82t76.5 41q-49 9 -76.5 41t-27.5 82v164q0 56 -21.5 80.5t-76.5 24.5h-13v75h13q88 0 134 -46.5t46 -139.5v-137q0 -52 30.5 -76.5
t79.5 -24.5v-86q-49 0 -79.5 -24.5z" />
    <glyph glyph-name="asciitilde" unicode="~" horiz-adv-x="570" 
d="M188 319q-52 0 -96 -57l-57 46q28 46 67 70.5t85 24.5q51 0 95 -26l46 -25q28 -16 57 -16q28 0 52 14.5t41 40.5l57 -46q-28 -45 -66.5 -69t-83.5 -24q-47 0 -97 27l-46 25q-29 15 -54 15z" />
    <glyph glyph-name="uni00A0" unicode="&#xa0;" horiz-adv-x="250" 
 />
    <glyph glyph-name="exclamdown" unicode="&#xa1;" horiz-adv-x="277" 
d="M92 476.5q19 19.5 46 19.5t46.5 -19.5t19.5 -46.5t-19.5 -46t-46.5 -19t-46 19t-19 46t19 46.5zM79 -217l26 505h67l25 -505h-118z" />
    <glyph glyph-name="cent" unicode="&#xa2;" horiz-adv-x="589" 
d="M466.5 154.5q-47.5 -42.5 -120.5 -51.5v-103h-87v104q-91 18 -146.5 87.5t-55.5 167.5q0 65 26 118.5t72 88.5t104 44v99h87v-95q75 -10 119.5 -51.5t62.5 -98.5l-81 -36q-9 35 -34 63.5t-67 39.5v-346q45 11 71.5 40t34.5 60l80 -35q-18 -53 -65.5 -95.5zM179.5 249.5
q29.5 -44.5 79.5 -62.5v341q-50 -18 -79.5 -61.5t-29.5 -107.5q0 -65 29.5 -109.5z" />
    <glyph glyph-name="sterling" unicode="&#xa3;" horiz-adv-x="646" 
d="M131.5 454q-9.5 33 -9.5 69q0 57 29 103t77.5 72t106.5 26q114 0 166 -56.5t57 -135.5l-101 -19q-2 62 -34.5 92.5t-85.5 30.5q-48 0 -81.5 -30.5t-33.5 -82.5q0 -32 10 -63.5t29 -72.5h213v-89h-187q2 -22 2 -31q0 -59 -28.5 -105.5t-79.5 -72.5h232q55 0 82 34.5
t27 84.5l96 -16q0 -85 -47.5 -138.5t-130.5 -53.5h-368v101q55 21 88 64.5t33 89.5q0 24 -5 43h-109v89h79q-17 34 -26.5 67z" />
    <glyph glyph-name="currency" unicode="&#xa4;" horiz-adv-x="633" 
d="M133 454l-83 84l60 61l82 -86q62 40 130 40q67 0 123 -35l78 81l60 -61l-76 -79q47 -65 47 -139q0 -39 -12 -75t-34 -64l75 -77l-59 -59l-76 78q-27 -18 -60 -28t-66 -10q-69 0 -133 44l-80 -84l-59 59l80 84q-40 62 -40 132q0 72 43 134zM194.5 242q19.5 -34 53 -53
t74.5 -19q39 0 72 19t52.5 53t19.5 78q0 42 -19.5 76t-52.5 53t-72 19q-41 0 -74.5 -19t-53 -53t-19.5 -76q0 -44 19.5 -78z" />
    <glyph glyph-name="yen" unicode="&#xa5;" horiz-adv-x="627" 
d="M370 0h-99v174h-183v72h183v91h-183v72h130l-190 299h116l176 -290l165 290h114l-180 -299h132v-72h-181v-91h181v-72h-181v-174z" />
    <glyph glyph-name="brokenbar" unicode="&#xa6;" horiz-adv-x="262" 
d="M172 386h-82v399h82v-399zM172 -148h-82v399h82v-399z" />
    <glyph glyph-name="section" unicode="&#xa7;" horiz-adv-x="573" 
d="M458 162.5q-26 -34.5 -58 -48.5q42 -26 65 -64.5t23 -80.5q0 -54 -28 -96t-75 -65t-102 -23q-94 0 -144.5 50.5t-52.5 135.5l89 18q0 -57 28 -91t82 -34q48 0 77 25t29 70q0 27 -15.5 49.5t-43.5 37.5l-104 54q-66 33 -102.5 71.5t-36.5 99.5q0 43 27 78t58 46
q-42 26 -65.5 65t-23.5 81q0 54 28 96t75 64.5t102 22.5q62 0 106.5 -24.5t67.5 -66.5t23 -94l-90 -18q0 58 -28 91t-81 33q-48 0 -77.5 -26t-29.5 -69q0 -54 60 -86l103 -54q68 -36 104 -73.5t36 -97.5q0 -42 -26 -76.5zM194.5 334.5q-14.5 -22.5 -14.5 -48.5q0 -28 15 -49
t49 -39l100 -54q19 9 33.5 31t14.5 49q0 28 -15 49t-49 39l-100 54q-19 -9 -33.5 -31.5z" />
    <glyph glyph-name="dieresis" unicode="&#xa8;" horiz-adv-x="379" 
d="M54.5 662q16.5 17 40.5 17q25 0 42 -17t17 -41q0 -25 -17 -41.5t-42 -16.5q-24 0 -40.5 16.5t-16.5 41.5q0 24 16.5 41zM241.5 662q16.5 17 41.5 17q24 0 41 -17t17 -41q0 -25 -17 -41.5t-41 -16.5q-25 0 -41.5 16.5t-16.5 41.5q0 24 16.5 41z" />
    <glyph glyph-name="copyright" unicode="&#xa9;" horiz-adv-x="821" 
d="M94 539.5q49 84.5 132.5 134.5t182.5 50q100 0 184 -50t133.5 -134.5t49.5 -184.5t-49.5 -185t-133.5 -135t-184 -50q-99 0 -182.5 50t-132.5 135t-49 185t49 184.5zM161 204q38 -68 103.5 -107t144.5 -39t144.5 39t103.5 107t38 151t-38 150.5t-103.5 106.5t-144.5 39
t-144.5 -39t-103.5 -106.5t-38 -150.5t38 -151zM327 458q-35 -36 -35 -101t34.5 -101.5t85.5 -36.5q49 0 75 25t34 56l68 -30q-17 -49 -62 -85.5t-115 -36.5q-57 0 -102 27.5t-70.5 75t-25.5 106.5t26 106.5t71 74.5t100 27q73 0 115.5 -36.5t59.5 -88.5l-70 -29
q-10 35 -35 59t-70 24q-49 0 -84 -36z" />
    <glyph glyph-name="ordfeminine" unicode="&#xaa;" horiz-adv-x="428" 
d="M95 531q29 27 74 33l88 12q26 4 26 25q0 25 -17 40.5t-51 15.5q-32 0 -51 -18t-22 -47l-69 16q4 46 43.5 78.5t97.5 32.5q73 0 108 -35.5t35 -90.5v-169q0 -18 1.5 -33t2.5 -22h-71q-4 11 -4 44q-13 -22 -40 -38t-65 -16q-51 0 -83 30t-32 72q0 43 29 70zM258.5 441
q24.5 22 24.5 71v15l-95 -15q-47 -7 -47 -47q0 -19 14 -32.5t38 -13.5q41 0 65.5 22z" />
    <glyph glyph-name="guillemotleft" unicode="&#xab;" horiz-adv-x="471" 
d="M30 290l133 191h93l-131 -191l131 -191h-93zM225 290l133 191h93l-131 -191l131 -191h-93z" />
    <glyph glyph-name="logicalnot" unicode="&#xac;" horiz-adv-x="573" 
d="M424 384h-379v82h463v-277h-84v195z" />
    <glyph glyph-name="uni00AD" unicode="&#xad;" horiz-adv-x="361" 
d="M45 328h271v-82h-271v82z" />
    <glyph glyph-name="registered" unicode="&#xae;" horiz-adv-x="821" 
d="M94 539.5q49 84.5 132.5 134.5t182.5 50q100 0 184 -50t133.5 -134.5t49.5 -184.5t-49.5 -185t-133.5 -135t-184 -50q-99 0 -182.5 50t-132.5 135t-49 185t49 184.5zM161 204q38 -68 103.5 -107t144.5 -39t144.5 39t103.5 107t38 151t-38 150.5t-103.5 106.5t-144.5 39
t-144.5 -39t-103.5 -106.5t-38 -150.5t38 -151zM287 157v402h139q58 0 97 -36t39 -90q0 -42 -24.5 -74t-63.5 -45l90 -157h-87l-84 150h-30v-150h-76zM467 388.5q18 15.5 18 43.5q0 61 -70 61h-52v-120h52q34 0 52 15.5z" />
    <glyph glyph-name="macron" unicode="&#xaf;" horiz-adv-x="343" 
d="M35 658h273v-81h-273v81z" />
    <glyph glyph-name="degree" unicode="&#xb0;" horiz-adv-x="371" 
d="M47 641q22 36 59 57t79 21q43 0 80 -21t59 -57t22 -79t-22 -79.5t-59 -57.5t-80 -21q-42 0 -79 21t-59 57.5t-22 79.5t22 79zM130 505q22 -22 55 -22t55 22t22 57q0 34 -22 56t-55 22q-32 0 -54.5 -22t-22.5 -56q0 -35 22 -57z" />
    <glyph glyph-name="plusminus" unicode="&#xb1;" horiz-adv-x="567" 
d="M242 562h82v-136h178v-77h-178v-134h-82v134h-177v77h177v136zM502 91h-437v79h437v-79z" />
    <glyph glyph-name="uni00B2" unicode="&#xb2;" horiz-adv-x="389" 
d="M64 599q0 49 36 83t96 34q59 0 95 -33.5t36 -81.5q0 -66 -70 -110l-72 -45q-13 -10 -21 -18.5t-10 -18.5h175v-65h-268v13q0 94 85 145l60 37q43 25 43 63q0 21 -14.5 35.5t-39.5 14.5q-26 0 -41.5 -16t-15.5 -42q0 -17 3 -26h-74q-3 11 -3 31z" />
    <glyph glyph-name="uni00B3" unicode="&#xb3;" horiz-adv-x="412" 
d="M244 644h-171v65h271v-63l-100 -80q46 -4 77 -32t31 -77q0 -51 -40.5 -86t-104.5 -35q-61 0 -99.5 30t-47.5 73l67 27q5 -29 26.5 -46.5t52.5 -17.5q30 0 49 15.5t19 39.5q0 28 -20 42t-48 14q-19 0 -28 -4l-29 56z" />
    <glyph glyph-name="acute" unicode="&#xb4;" horiz-adv-x="274" 
d="M35 543l87 146h118l-126 -146h-79z" />
    <glyph glyph-name="uni00B5" unicode="&#xb5;" horiz-adv-x="571" 
d="M344 3.5q-39 -18.5 -84 -18.5q-46 0 -86 20v-195h-94v671h94v-289q0 -55 26.5 -89.5t82.5 -34.5t85 33.5t29 89.5v290h94v-392q0 -67 5 -89h-90q-4 15 -4 58q-19 -36 -58 -54.5z" />
    <glyph glyph-name="paragraph" unicode="&#xb6;" horiz-adv-x="626" 
d="M245 -201v522h-16q-52 0 -96.5 25t-71 68.5t-26.5 96.5q0 62 30.5 107t81.5 68t114 23h340v-81h-97v-829h-83v829h-93v-829h-83z" />
    <glyph glyph-name="periodcentered" unicode="&#xb7;" horiz-adv-x="279" 
d="M90 333.5q20 20.5 49 20.5t49.5 -20.5t20.5 -49.5t-20.5 -49t-49.5 -20t-49 20t-20 49t20 49.5z" />
    <glyph glyph-name="cedilla" unicode="&#xb8;" horiz-adv-x="294" 
d="M130 14h71l-39 -60q43 0 70 -22t27 -60t-30 -64t-87 -26q-36 0 -65 13t-45 33l37 45q31 -34 72 -34q20 0 33.5 8.5t13.5 24.5q0 14 -11.5 23t-32.5 9q-14 0 -29 -5l-33 39z" />
    <glyph glyph-name="uni00B9" unicode="&#xb9;" horiz-adv-x="293" 
d="M136 589h-86v52q36 1 61.5 20.5t30.5 47.5h71v-365h-77v245z" />
    <glyph glyph-name="ordmasculine" unicode="&#xba;" horiz-adv-x="484" 
d="M332 695.5q40 -23.5 62.5 -64.5t22.5 -92t-22.5 -92t-62.5 -64.5t-90 -23.5t-90 23.5t-62.5 64.5t-22.5 92t22.5 92t62.5 64.5t90 23.5t90 -23.5zM312.5 455.5q28.5 29.5 28.5 83.5t-28.5 83t-70.5 29t-71 -29t-29 -83t29 -83.5t71 -29.5t70.5 29.5z" />
    <glyph glyph-name="guillemotright" unicode="&#xbb;" horiz-adv-x="471" 
d="M151 290l-131 191h93l133 -191l-133 -191h-93zM346 290l-131 191h93l133 -191l-133 -191h-93z" />
    <glyph glyph-name="onequarter" unicode="&#xbc;" horiz-adv-x="785" 
d="M136 589h-86v52q36 1 61.5 20.5t30.5 47.5h71v-365h-77v245zM585 709h90l-507 -709h-92zM576 365h85v-228h64v-65h-64v-72h-77v72h-185v73zM473 137h111v139z" />
    <glyph glyph-name="onehalf" unicode="&#xbd;" horiz-adv-x="797" 
d="M147 589h-86v52q36 1 61.5 20.5t30.5 47.5h71v-365h-77v245zM595 709h90l-507 -709h-92zM472 255q0 49 36 83t96 34q59 0 95 -33.5t36 -81.5q0 -66 -70 -110l-72 -45q-13 -10 -21 -18.5t-10 -18.5h175v-65h-268v13q0 94 85 145l60 37q43 25 43 63q0 21 -14.5 35.5
t-39.5 14.5q-26 0 -41.5 -16t-15.5 -42q0 -17 3 -26h-74q-3 11 -3 31z" />
    <glyph glyph-name="threequarters" unicode="&#xbe;" horiz-adv-x="865" 
d="M244 644h-171v65h271v-63l-100 -80q46 -4 77 -32t31 -77q0 -51 -40.5 -86t-104.5 -35q-61 0 -99.5 30t-47.5 73l67 27q5 -29 26.5 -46.5t52.5 -17.5q30 0 49 15.5t19 39.5q0 28 -20 42t-48 14q-19 0 -28 -4l-29 56zM665 709h90l-507 -709h-92zM656 365h85v-228h64v-65
h-64v-72h-77v72h-185v73zM553 137h111v139z" />
    <glyph glyph-name="questiondown" unicode="&#xbf;" horiz-adv-x="510" 
d="M301 384.5q-19 -19.5 -46 -19.5t-46.5 19.5t-19.5 46.5t19.5 46t46.5 19t46 -19t19 -46t-19 -46.5zM300 254q0 -51 -19.5 -89t-63.5 -67l-44 -30q-26 -17 -39.5 -42.5t-13.5 -55.5q0 -48 31 -81t88 -33q61 0 93 37.5t32 90.5q0 30 -7 49l97 -12q6 -21 6 -48
q0 -49 -24.5 -96.5t-74 -78t-122.5 -30.5q-67 0 -117 28.5t-76 74.5t-26 98q0 107 102 174l46 31q22 15 33 40t11 56q0 12 -1 19h88q1 -12 1 -35z" />
    <glyph glyph-name="Agrave" unicode="&#xc0;" horiz-adv-x="697" 
d="M292 878l102 -119h-93l-138 119h129zM190 198l-75 -198h-105l282 709h113l282 -709h-106l-77 198h-314zM469 289l-123 318l-121 -318h244z" />
    <glyph glyph-name="Aacute" unicode="&#xc1;" horiz-adv-x="697" 
d="M300 759l101 119h130l-137 -119h-94zM190 198l-75 -198h-105l282 709h113l282 -709h-106l-77 198h-314zM469 289l-123 318l-121 -318h244z" />
    <glyph glyph-name="Acircumflex" unicode="&#xc2;" horiz-adv-x="697" 
d="M284 878h120l117 -119h-92l-85 64l-81 -64h-91zM190 198l-75 -198h-105l282 709h113l282 -709h-106l-77 198h-314zM469 289l-123 318l-121 -318h244z" />
    <glyph glyph-name="Atilde" unicode="&#xc3;" horiz-adv-x="697" 
d="M480 782.5q-26 -28.5 -70 -28.5q-40 0 -71 23l-15 10q-23 14 -37 14q-35 0 -35 -44h-68v16q0 54 26.5 82.5t70.5 28.5q35 0 73 -23l15 -9q10 -6 19.5 -10t18.5 -4q32 0 32 35v8h67v-16q0 -54 -26 -82.5zM190 198l-75 -198h-105l282 709h113l282 -709h-106l-77 198h-314z
M469 289l-123 318l-121 -318h244z" />
    <glyph glyph-name="Adieresis" unicode="&#xc4;" horiz-adv-x="697" 
d="M159 861q17 17 42 17t42 -17t17 -42t-17 -42t-42 -17t-42 17t-17 42t17 42zM450 861q17 17 42 17t42 -17t17 -42t-17 -42t-42 -17t-42 17t-17 42t17 42zM190 198l-75 -198h-105l282 709h113l282 -709h-106l-77 198h-314zM469 289l-123 318l-121 -318h244z" />
    <glyph glyph-name="Aring" unicode="&#xc5;" horiz-adv-x="697" 
d="M422 666l265 -666h-106l-77 198h-314l-75 -198h-105l264 664q-50 37 -50 96q0 33 17 61t45 44t60 16q51 0 87 -35t36 -86q0 -55 -47 -94zM382 796.5q-15 15.5 -38 15.5q-21 0 -35.5 -15.5t-14.5 -36.5q0 -22 14.5 -36.5t35.5 -14.5q23 0 38 14.5t15 36.5q0 21 -15 36.5z
M469 289l-123 318l-121 -318h244z" />
    <glyph glyph-name="AE" unicode="&#xc6;" horiz-adv-x="1026" 
d="M535 196h-278l-126 -196h-126l472 709h489v-91h-333v-218h302v-92h-302v-217h333v-91h-431v196zM535 628l-222 -344h222v344z" />
    <glyph glyph-name="Ccedilla" unicode="&#xc7;" horiz-adv-x="750" 
d="M368 -14q-87 7 -161 52.5t-118 127t-44 189.5q0 113 50 197t130.5 128t171.5 44q120 0 201.5 -60t110.5 -165l-91 -32q-20 81 -76.5 124t-144.5 43q-67 0 -124.5 -32t-92.5 -95t-35 -152t35 -152t92.5 -95.5t124.5 -32.5q86 0 144 47t82 123l87 -32q-27 -92 -98.5 -153
t-172.5 -73l-21 -33q43 0 70 -22t27 -60t-30 -64t-87 -26q-36 0 -65 13t-45 33l37 45q31 -34 72 -34q20 0 33.5 8.5t13.5 24.5q0 14 -11.5 23t-32.5 9q-14 0 -29 -5l-33 39z" />
    <glyph glyph-name="Egrave" unicode="&#xc8;" horiz-adv-x="581" 
d="M278 878l102 -119h-93l-138 119h129zM90 709h431v-91h-333v-218h302v-92h-302v-217h333v-91h-431v709z" />
    <glyph glyph-name="Eacute" unicode="&#xc9;" horiz-adv-x="581" 
d="M234 759l101 119h130l-137 -119h-94zM90 709h431v-91h-333v-218h302v-92h-302v-217h333v-91h-431v709z" />
    <glyph glyph-name="Ecircumflex" unicode="&#xca;" horiz-adv-x="581" 
d="M243 878h120l117 -119h-92l-85 64l-81 -64h-91zM90 709h431v-91h-333v-218h302v-92h-302v-217h333v-91h-431v709z" />
    <glyph glyph-name="Edieresis" unicode="&#xcb;" horiz-adv-x="581" 
d="M150 861q17 17 42 17t42 -17t17 -42t-17 -42t-42 -17t-42 17t-17 42t17 42zM381 861q17 17 42 17t42 -17t17 -42t-17 -42t-42 -17t-42 17t-17 42t17 42zM90 709h431v-91h-333v-218h302v-92h-302v-217h333v-91h-431v709z" />
    <glyph glyph-name="Igrave" unicode="&#xcc;" horiz-adv-x="280" 
d="M84 878l102 -119h-93l-138 119h129zM90 709h100v-709h-100v709z" />
    <glyph glyph-name="Iacute" unicode="&#xcd;" horiz-adv-x="280" 
d="M94 759l101 119h130l-137 -119h-94zM90 709h100v-709h-100v709z" />
    <glyph glyph-name="Icircumflex" unicode="&#xce;" horiz-adv-x="280" 
d="M84 878h120l117 -119h-92l-85 64l-81 -64h-91zM90 709h100v-709h-100v709z" />
    <glyph glyph-name="Idieresis" unicode="&#xcf;" horiz-adv-x="280" 
d="M26 857q15 15 38 15t38.5 -15t15.5 -38t-15.5 -38.5t-38.5 -15.5t-38 15.5t-15 38.5t15 38zM179.5 857q15.5 15 38.5 15t38 -15t15 -38t-15 -38.5t-38 -15.5t-38.5 15.5t-15.5 38.5t15.5 38zM90 709h100v-709h-100v709z" />
    <glyph glyph-name="Eth" unicode="&#xd0;" horiz-adv-x="724" 
d="M94 325h-76v82h76v302h248q92 0 169 -41.5t122.5 -122t45.5 -192.5t-46 -191.5t-123.5 -120.5t-169.5 -41h-246v325zM459.5 117q54.5 30 86.5 90t32 146q0 87 -31.5 147.5t-86 91t-121.5 30.5h-147v-215h122v-82h-122v-238h145q68 0 122.5 30z" />
    <glyph glyph-name="Ntilde" unicode="&#xd1;" horiz-adv-x="763" 
d="M517 782.5q-26 -28.5 -70 -28.5q-40 0 -71 23l-15 10q-23 14 -37 14q-35 0 -35 -44h-68v16q0 54 26.5 82.5t70.5 28.5q35 0 73 -23l15 -9q10 -6 19.5 -10t18.5 -4q32 0 32 35v8h67v-16q0 -54 -26 -82.5zM188 578v-578h-98v709h131l354 -544v544h98v-709h-102z" />
    <glyph glyph-name="Ograve" unicode="&#xd2;" horiz-adv-x="802" 
d="M352 878l102 -119h-93l-138 119h129zM95.5 552q50.5 84 132 128t173.5 44t173.5 -44t132 -128t50.5 -197q0 -114 -50.5 -198t-132 -128t-173.5 -44t-173.5 44t-132 128t-50.5 198q0 113 50.5 197zM180.5 203q35.5 -63 94 -95.5t126.5 -32.5t126.5 32.5t94 95.5t35.5 152
t-35.5 152t-94 95t-126.5 32t-126.5 -32t-94 -95t-35.5 -152t35.5 -152z" />
    <glyph glyph-name="Oacute" unicode="&#xd3;" horiz-adv-x="802" 
d="M346 759l101 119h130l-137 -119h-94zM95.5 552q50.5 84 132 128t173.5 44t173.5 -44t132 -128t50.5 -197q0 -114 -50.5 -198t-132 -128t-173.5 -44t-173.5 44t-132 128t-50.5 198q0 113 50.5 197zM180.5 203q35.5 -63 94 -95.5t126.5 -32.5t126.5 32.5t94 95.5t35.5 152
t-35.5 152t-94 95t-126.5 32t-126.5 -32t-94 -95t-35.5 -152t35.5 -152z" />
    <glyph glyph-name="Ocircumflex" unicode="&#xd4;" horiz-adv-x="802" 
d="M339 878h120l117 -119h-92l-85 64l-81 -64h-91zM95.5 552q50.5 84 132 128t173.5 44t173.5 -44t132 -128t50.5 -197q0 -114 -50.5 -198t-132 -128t-173.5 -44t-173.5 44t-132 128t-50.5 198q0 113 50.5 197zM180.5 203q35.5 -63 94 -95.5t126.5 -32.5t126.5 32.5t94 95.5
t35.5 152t-35.5 152t-94 95t-126.5 32t-126.5 -32t-94 -95t-35.5 -152t35.5 -152z" />
    <glyph glyph-name="Otilde" unicode="&#xd5;" horiz-adv-x="802" 
d="M540 783.5q-26 -28.5 -70 -28.5q-40 0 -71 23l-15 10q-23 14 -37 14q-35 0 -35 -44h-68v16q0 54 26.5 82.5t70.5 28.5q35 0 73 -23l15 -9q10 -6 19.5 -10t18.5 -4q32 0 32 35v8h67v-16q0 -54 -26 -82.5zM95.5 552q50.5 84 132 128t173.5 44t173.5 -44t132 -128t50.5 -197
q0 -114 -50.5 -198t-132 -128t-173.5 -44t-173.5 44t-132 128t-50.5 198q0 113 50.5 197zM180.5 203q35.5 -63 94 -95.5t126.5 -32.5t126.5 32.5t94 95.5t35.5 152t-35.5 152t-94 95t-126.5 32t-126.5 -32t-94 -95t-35.5 -152t35.5 -152z" />
    <glyph glyph-name="Odieresis" unicode="&#xd6;" horiz-adv-x="802" 
d="M204 861q17 17 42 17t42 -17t17 -42t-17 -42t-42 -17t-42 17t-17 42t17 42zM515 861q17 17 42 17t42 -17t17 -42t-17 -42t-42 -17t-42 17t-17 42t17 42zM95.5 552q50.5 84 132 128t173.5 44t173.5 -44t132 -128t50.5 -197q0 -114 -50.5 -198t-132 -128t-173.5 -44
t-173.5 44t-132 128t-50.5 198q0 113 50.5 197zM180.5 203q35.5 -63 94 -95.5t126.5 -32.5t126.5 32.5t94 95.5t35.5 152t-35.5 152t-94 95t-126.5 32t-126.5 -32t-94 -95t-35.5 -152t35.5 -152z" />
    <glyph glyph-name="multiply" unicode="&#xd7;" horiz-adv-x="530" 
d="M96 96l-56 56l169 176l-168 174l57 57l167 -174l167 174l57 -56l-169 -175l170 -176l-56 -57l-170 175z" />
    <glyph glyph-name="Oslash" unicode="&#xd8;" horiz-adv-x="802" 
d="M95.5 552q50.5 84 132 128t173.5 44q104 0 191 -55l72 92l68 -52l-73 -94q98 -103 98 -260q0 -114 -50.5 -198t-132 -128t-173.5 -44q-103 0 -189 53l-68 -89l-70 51l71 92q-100 105 -100 263q0 113 50.5 197zM204 167l332 429q-62 38 -135 38q-68 0 -126.5 -32t-94 -95
t-35.5 -152q0 -113 59 -188zM600 539l-332 -429q58 -35 133 -35q68 0 126.5 32.5t94 95.5t35.5 152q0 107 -57 184z" />
    <glyph glyph-name="Ugrave" unicode="&#xd9;" horiz-adv-x="670" 
d="M302 878l102 -119h-93l-138 119h129zM204 14.5q-58 29.5 -91 87.5t-33 140v467h97v-464q0 -81 41.5 -125t116.5 -44t116 44t41 125v464h98v-467q0 -82 -33 -140t-91 -87.5t-131 -29.5t-131 29.5z" />
    <glyph glyph-name="Uacute" unicode="&#xda;" horiz-adv-x="670" 
d="M263 759l101 119h130l-137 -119h-94zM204 14.5q-58 29.5 -91 87.5t-33 140v467h97v-464q0 -81 41.5 -125t116.5 -44t116 44t41 125v464h98v-467q0 -82 -33 -140t-91 -87.5t-131 -29.5t-131 29.5z" />
    <glyph glyph-name="Ucircumflex" unicode="&#xdb;" horiz-adv-x="670" 
d="M273 878h120l117 -119h-92l-85 64l-81 -64h-91zM204 14.5q-58 29.5 -91 87.5t-33 140v467h97v-464q0 -81 41.5 -125t116.5 -44t116 44t41 125v464h98v-467q0 -82 -33 -140t-91 -87.5t-131 -29.5t-131 29.5z" />
    <glyph glyph-name="Udieresis" unicode="&#xdc;" horiz-adv-x="670" 
d="M183 861q17 17 42 17t42 -17t17 -42t-17 -42t-42 -17t-42 17t-17 42t17 42zM404 861q17 17 42 17t42 -17t17 -42t-17 -42t-42 -17t-42 17t-17 42t17 42zM204 14.5q-58 29.5 -91 87.5t-33 140v467h97v-464q0 -81 41.5 -125t116.5 -44t116 44t41 125v464h98v-467
q0 -82 -33 -140t-91 -87.5t-131 -29.5t-131 29.5z" />
    <glyph glyph-name="Yacute" unicode="&#xdd;" horiz-adv-x="618" 
d="M236 759l101 119h130l-137 -119h-94zM128 709l184 -316l184 316h112l-250 -406v-303h-98v303l-250 406h118z" />
    <glyph glyph-name="Thorn" unicode="&#xde;" horiz-adv-x="592" 
d="M188 0h-98v709h98v-137h155q64 0 115.5 -27t80 -74.5t28.5 -106.5t-28.5 -106.5t-79 -74t-115.5 -26.5h-156v-157zM431 276q36 32 36 87q0 57 -35.5 89.5t-99.5 32.5h-144v-241h144q63 0 99 32z" />
    <glyph glyph-name="germandbls" unicode="&#xdf;" horiz-adv-x="567" 
d="M367 316q10 -9 36 -21l35 -17q46 -22 75 -60t29 -88q0 -36 -18 -69.5t-55 -54.5t-90 -21q-56 0 -93 22t-54 54.5t-17 64.5l83 22q0 -31 20 -58t61 -27q33 0 51.5 18.5t18.5 40.5q0 26 -12.5 43t-39.5 30l-34 16q-47 22 -76 49.5t-29 77.5q0 68 63 108l32 21q57 36 57 85
q0 38 -29.5 63.5t-80.5 25.5q-54 0 -90 -40t-36 -113v-488h-94v493q0 72 29 124t79 79.5t112 27.5q60 0 106.5 -22.5t72.5 -61t26 -85.5q0 -95 -88 -148l-29 -18q-16 -9 -23.5 -19.5t-7.5 -26.5q0 -18 10 -27z" />
    <glyph glyph-name="agrave" unicode="&#xe0;" horiz-adv-x="523" 
d="M227 689l86 -146h-78l-126 146h118zM89.5 228q39.5 37 106.5 47l130 19q37 5 37 36q0 38 -26 62t-78 24q-48 0 -75.5 -26.5t-33.5 -70.5l-90 21q8 69 63 112.5t134 43.5q101 0 150.5 -50t49.5 -126v-241q0 -55 6 -79h-92q-5 20 -5 65q-20 -32 -58.5 -56t-96.5 -24
q-47 0 -84 20t-57 53t-20 71q0 62 39.5 99zM325 98q38 34 38 108v22l-147 -22q-32 -6 -51 -23.5t-19 -48.5q0 -28 21.5 -49t56.5 -21q63 0 101 34z" />
    <glyph glyph-name="aacute" unicode="&#xe1;" horiz-adv-x="523" 
d="M220 543l87 146h118l-126 -146h-79zM89.5 228q39.5 37 106.5 47l130 19q37 5 37 36q0 38 -26 62t-78 24q-48 0 -75.5 -26.5t-33.5 -70.5l-90 21q8 69 63 112.5t134 43.5q101 0 150.5 -50t49.5 -126v-241q0 -55 6 -79h-92q-5 20 -5 65q-20 -32 -58.5 -56t-96.5 -24
q-47 0 -84 20t-57 53t-20 71q0 62 39.5 99zM325 98q38 34 38 108v22l-147 -22q-32 -6 -51 -23.5t-19 -48.5q0 -28 21.5 -49t56.5 -21q63 0 101 34z" />
    <glyph glyph-name="acircumflex" unicode="&#xe2;" horiz-adv-x="523" 
d="M212 684h107l104 -139h-88l-70 81l-70 -81h-87zM89.5 228q39.5 37 106.5 47l130 19q37 5 37 36q0 38 -26 62t-78 24q-48 0 -75.5 -26.5t-33.5 -70.5l-90 21q8 69 63 112.5t134 43.5q101 0 150.5 -50t49.5 -126v-241q0 -55 6 -79h-92q-5 20 -5 65q-20 -32 -58.5 -56
t-96.5 -24q-47 0 -84 20t-57 53t-20 71q0 62 39.5 99zM325 98q38 34 38 108v22l-147 -22q-32 -6 -51 -23.5t-19 -48.5q0 -28 21.5 -49t56.5 -21q63 0 101 34z" />
    <glyph glyph-name="atilde" unicode="&#xe3;" horiz-adv-x="523" 
d="M395.5 580.5q-26.5 -27.5 -70.5 -27.5q-31 0 -66 22l-14 9q-23 14 -37 14q-15 0 -22 -9.5t-7 -33.5h-72v15q0 54 27 81.5t71 27.5q32 0 67 -22l14 -9q12 -7 19.5 -10.5t16.5 -3.5q15 0 22 9.5t7 33.5h71v-15q0 -54 -26.5 -81.5zM89.5 228q39.5 37 106.5 47l130 19
q37 5 37 36q0 38 -26 62t-78 24q-48 0 -75.5 -26.5t-33.5 -70.5l-90 21q8 69 63 112.5t134 43.5q101 0 150.5 -50t49.5 -126v-241q0 -55 6 -79h-92q-5 20 -5 65q-20 -32 -58.5 -56t-96.5 -24q-47 0 -84 20t-57 53t-20 71q0 62 39.5 99zM325 98q38 34 38 108v22l-147 -22
q-32 -6 -51 -23.5t-19 -48.5q0 -28 21.5 -49t56.5 -21q63 0 101 34z" />
    <glyph glyph-name="adieresis" unicode="&#xe4;" horiz-adv-x="523" 
d="M126.5 662q16.5 17 40.5 17q25 0 42 -17t17 -41q0 -25 -17 -41.5t-42 -16.5q-24 0 -40.5 16.5t-16.5 41.5q0 24 16.5 41zM313.5 662q16.5 17 41.5 17q24 0 41 -17t17 -41q0 -25 -17 -41.5t-41 -16.5q-25 0 -41.5 16.5t-16.5 41.5q0 24 16.5 41zM89.5 228
q39.5 37 106.5 47l130 19q37 5 37 36q0 38 -26 62t-78 24q-48 0 -75.5 -26.5t-33.5 -70.5l-90 21q8 69 63 112.5t134 43.5q101 0 150.5 -50t49.5 -126v-241q0 -55 6 -79h-92q-5 20 -5 65q-20 -32 -58.5 -56t-96.5 -24q-47 0 -84 20t-57 53t-20 71q0 62 39.5 99zM325 98
q38 34 38 108v22l-147 -22q-32 -6 -51 -23.5t-19 -48.5q0 -28 21.5 -49t56.5 -21q63 0 101 34z" />
    <glyph glyph-name="aring" unicode="&#xe5;" horiz-adv-x="523" 
d="M340 564q-33 -32 -79 -32q-45 0 -78 32t-33 77t33 77.5t78 32.5q46 0 79 -32t33 -78q0 -45 -33 -77zM295 675.5q-14 14.5 -35 14.5q-20 0 -33.5 -14.5t-13.5 -34.5t13.5 -34t33.5 -14q21 0 35 14t14 34t-14 34.5zM89.5 228q39.5 37 106.5 47l130 19q37 5 37 36
q0 38 -26 62t-78 24q-48 0 -75.5 -26.5t-33.5 -70.5l-90 21q8 69 63 112.5t134 43.5q101 0 150.5 -50t49.5 -126v-241q0 -55 6 -79h-92q-5 20 -5 65q-20 -32 -58.5 -56t-96.5 -24q-47 0 -84 20t-57 53t-20 71q0 62 39.5 99zM325 98q38 34 38 108v22l-147 -22
q-32 -6 -51 -23.5t-19 -48.5q0 -28 21.5 -49t56.5 -21q63 0 101 34z" />
    <glyph glyph-name="ae" unicode="&#xe6;" horiz-adv-x="874" 
d="M751.5 28.5q-59.5 -43.5 -136.5 -43.5q-62 0 -114.5 27t-85.5 77q-59 -104 -193 -104q-53 0 -92 19.5t-59.5 52.5t-20.5 72q0 62 39.5 99t106.5 47l139 19q38 6 38 36q0 37 -29 62t-81 25q-49 0 -79 -27t-36 -67l-88 17q4 46 34.5 81.5t76 55t92.5 19.5q60 0 103.5 -21.5
t67.5 -58.5q32 38 76 59t93 21q109 0 170 -69t61 -183q0 -20 -2 -30h-362q2 -63 43.5 -104.5t101.5 -41.5q100 0 134 97l82 -28q-20 -65 -79.5 -108.5zM699.5 378.5q-34.5 34.5 -95.5 34.5q-37 0 -66.5 -17.5t-46 -46t-18.5 -59.5h263q-2 54 -36.5 88.5zM330 98.5
q43 34.5 43 106.5v23l-157 -22q-70 -11 -70 -74q0 -28 22.5 -48t60.5 -20q58 0 101 34.5z" />
    <glyph glyph-name="ccedilla" unicode="&#xe7;" horiz-adv-x="530" 
d="M252 -13q-61 8 -109.5 43t-75.5 90t-27 121q0 73 32 131t87 91t123 33q89 0 142 -44.5t72 -108.5l-85 -36q-12 43 -42.5 72.5t-86.5 29.5q-39 0 -72.5 -19.5t-53.5 -58t-20 -90.5q0 -53 20 -91t53.5 -58t73.5 -20q58 0 90.5 30.5t43.5 68.5l83 -36q-19 -54 -63 -95
t-114 -52l-23 -35q43 0 70 -22t27 -60t-29.5 -63t-87.5 -25q-36 0 -65 12.5t-45 31.5l37 45q31 -34 72 -34q20 0 33.5 8.5t13.5 24.5q0 14 -11.5 23t-32.5 9q-14 0 -29 -5l-33 39z" />
    <glyph glyph-name="egrave" unicode="&#xe8;" horiz-adv-x="542" 
d="M242 689l86 -146h-78l-126 146h118zM421 28q-58 -43 -138 -43q-66 0 -121 30.5t-88 89t-33 137.5q0 73 32 131t84.5 90.5t113.5 32.5q109 0 170 -69t61 -183q0 -16 -2 -30h-362q2 -64 42.5 -105t102.5 -41q56 0 87.5 26t47.5 71l81 -28q-20 -66 -78 -109zM367.5 378.5
q-34.5 34.5 -95.5 34.5q-37 0 -66.5 -17.5t-46 -46t-18.5 -59.5h263q-2 54 -36.5 88.5z" />
    <glyph glyph-name="eacute" unicode="&#xe9;" horiz-adv-x="542" 
d="M230 543l87 146h118l-126 -146h-79zM421 28q-58 -43 -138 -43q-66 0 -121 30.5t-88 89t-33 137.5q0 73 32 131t84.5 90.5t113.5 32.5q109 0 170 -69t61 -183q0 -16 -2 -30h-362q2 -64 42.5 -105t102.5 -41q56 0 87.5 26t47.5 71l81 -28q-20 -66 -78 -109zM367.5 378.5
q-34.5 34.5 -95.5 34.5q-37 0 -66.5 -17.5t-46 -46t-18.5 -59.5h263q-2 54 -36.5 88.5z" />
    <glyph glyph-name="ecircumflex" unicode="&#xea;" horiz-adv-x="542" 
d="M226 684h107l104 -139h-88l-70 81l-70 -81h-87zM421 28q-58 -43 -138 -43q-66 0 -121 30.5t-88 89t-33 137.5q0 73 32 131t84.5 90.5t113.5 32.5q109 0 170 -69t61 -183q0 -16 -2 -30h-362q2 -64 42.5 -105t102.5 -41q56 0 87.5 26t47.5 71l81 -28q-20 -66 -78 -109z
M367.5 378.5q-34.5 34.5 -95.5 34.5q-37 0 -66.5 -17.5t-46 -46t-18.5 -59.5h263q-2 54 -36.5 88.5z" />
    <glyph glyph-name="edieresis" unicode="&#xeb;" horiz-adv-x="542" 
d="M142.5 662q16.5 17 40.5 17q25 0 42 -17t17 -41q0 -25 -17 -41.5t-42 -16.5q-24 0 -40.5 16.5t-16.5 41.5q0 24 16.5 41zM329.5 662q16.5 17 41.5 17q24 0 41 -17t17 -41q0 -25 -17 -41.5t-41 -16.5q-25 0 -41.5 16.5t-16.5 41.5q0 24 16.5 41zM421 28q-58 -43 -138 -43
q-66 0 -121 30.5t-88 89t-33 137.5q0 73 32 131t84.5 90.5t113.5 32.5q109 0 170 -69t61 -183q0 -16 -2 -30h-362q2 -64 42.5 -105t102.5 -41q56 0 87.5 26t47.5 71l81 -28q-20 -66 -78 -109zM367.5 378.5q-34.5 34.5 -95.5 34.5q-37 0 -66.5 -17.5t-46 -46t-18.5 -59.5h263
q-2 54 -36.5 88.5z" />
    <glyph glyph-name="igrave" unicode="&#xec;" horiz-adv-x="253" 
d="M85 689l86 -146h-78l-126 146h118zM80 481h93v-481h-93v481z" />
    <glyph glyph-name="iacute" unicode="&#xed;" horiz-adv-x="253" 
d="M85 543l87 146h118l-126 -146h-79zM80 481h93v-481h-93v481z" />
    <glyph glyph-name="icircumflex" unicode="&#xee;" horiz-adv-x="253" 
d="M74 684h107l104 -139h-88l-70 81l-70 -81h-87zM80 481h93v-481h-93v481z" />
    <glyph glyph-name="idieresis" unicode="&#xef;" horiz-adv-x="253" 
d="M18 659.5q15 15.5 38 15.5t38.5 -15.5t15.5 -38.5t-15.5 -38t-38.5 -15t-38 15t-15 38t15 38.5zM159 659.5q15 15.5 38 15.5t38.5 -15.5t15.5 -38.5t-15.5 -38t-38.5 -15t-38 15t-15 38t15 38.5zM80 481h93v-481h-93v481z" />
    <glyph glyph-name="eth" unicode="&#xf0;" horiz-adv-x="570" 
d="M493.5 456.5q37.5 -84.5 37.5 -195.5q0 -78 -29.5 -140.5t-85.5 -98.5t-131 -36q-71 0 -127 31t-87 86t-31 124q0 71 33 125t86 83t112 29q46 0 82.5 -13t57.5 -37q-32 85 -101 143l-131 -65l-29 63l94 47q-47 27 -112 46l29 76q36 -8 82.5 -27.5t91.5 -49.5l109 55
l31 -63l-81 -40q62 -58 99.5 -142.5zM391 112q43 42 43 115q0 74 -43 115.5t-106 41.5q-41 0 -75 -18.5t-54.5 -54.5t-20.5 -84q0 -73 43.5 -115t106.5 -42t106 42z" />
    <glyph glyph-name="ntilde" unicode="&#xf1;" horiz-adv-x="562" 
d="M425.5 580.5q-26.5 -27.5 -70.5 -27.5q-31 0 -66 22l-14 9q-23 14 -37 14q-15 0 -22 -9.5t-7 -33.5h-72v15q0 54 27 81.5t71 27.5q32 0 67 -22l14 -9q12 -7 19.5 -10.5t16.5 -3.5q15 0 22 9.5t7 33.5h71v-15q0 -54 -26.5 -81.5zM80 0v481h92v-69q25 43 64 63t84 20
q84 0 128 -52.5t44 -137.5v-305h-94v289q0 55 -26.5 88t-85.5 33q-54 0 -83 -37.5t-29 -94.5v-278h-94z" />
    <glyph glyph-name="ograve" unicode="&#xf2;" horiz-adv-x="572" 
d="M243 689l86 -146h-78l-126 146h118zM413 463q56 -33 87.5 -91.5t31.5 -130.5q0 -73 -31.5 -131.5t-87.5 -91.5t-127 -33t-127 33t-87.5 91.5t-31.5 131.5q0 72 31.5 130.5t87.5 91.5t127 33t127 -33zM361 89q34 20 54.5 59t20.5 93t-20.5 92.5t-54.5 58.5t-75 20t-75 -20
t-54.5 -58.5t-20.5 -92.5t20.5 -93t54.5 -59t75 -20t75 20z" />
    <glyph glyph-name="oacute" unicode="&#xf3;" horiz-adv-x="572" 
d="M230 543l87 146h118l-126 -146h-79zM413 463q56 -33 87.5 -91.5t31.5 -130.5q0 -73 -31.5 -131.5t-87.5 -91.5t-127 -33t-127 33t-87.5 91.5t-31.5 131.5q0 72 31.5 130.5t87.5 91.5t127 33t127 -33zM361 89q34 20 54.5 59t20.5 93t-20.5 92.5t-54.5 58.5t-75 20t-75 -20
t-54.5 -58.5t-20.5 -92.5t20.5 -93t54.5 -59t75 -20t75 20z" />
    <glyph glyph-name="ocircumflex" unicode="&#xf4;" horiz-adv-x="572" 
d="M233 684h107l104 -139h-88l-70 81l-70 -81h-87zM413 463q56 -33 87.5 -91.5t31.5 -130.5q0 -73 -31.5 -131.5t-87.5 -91.5t-127 -33t-127 33t-87.5 91.5t-31.5 131.5q0 72 31.5 130.5t87.5 91.5t127 33t127 -33zM361 89q34 20 54.5 59t20.5 93t-20.5 92.5t-54.5 58.5
t-75 20t-75 -20t-54.5 -58.5t-20.5 -92.5t20.5 -93t54.5 -59t75 -20t75 20z" />
    <glyph glyph-name="otilde" unicode="&#xf5;" horiz-adv-x="572" 
d="M418.5 580.5q-26.5 -27.5 -70.5 -27.5q-31 0 -66 22l-14 9q-23 14 -37 14q-15 0 -22 -9.5t-7 -33.5h-72v15q0 54 27 81.5t71 27.5q32 0 67 -22l14 -9q12 -7 19.5 -10.5t16.5 -3.5q15 0 22 9.5t7 33.5h71v-15q0 -54 -26.5 -81.5zM413 463q56 -33 87.5 -91.5t31.5 -130.5
q0 -73 -31.5 -131.5t-87.5 -91.5t-127 -33t-127 33t-87.5 91.5t-31.5 131.5q0 72 31.5 130.5t87.5 91.5t127 33t127 -33zM361 89q34 20 54.5 59t20.5 93t-20.5 92.5t-54.5 58.5t-75 20t-75 -20t-54.5 -58.5t-20.5 -92.5t20.5 -93t54.5 -59t75 -20t75 20z" />
    <glyph glyph-name="odieresis" unicode="&#xf6;" horiz-adv-x="572" 
d="M150.5 662q16.5 17 40.5 17q25 0 42 -17t17 -41q0 -25 -17 -41.5t-42 -16.5q-24 0 -40.5 16.5t-16.5 41.5q0 24 16.5 41zM337.5 662q16.5 17 41.5 17q24 0 41 -17t17 -41q0 -25 -17 -41.5t-41 -16.5q-25 0 -41.5 16.5t-16.5 41.5q0 24 16.5 41zM413 463
q56 -33 87.5 -91.5t31.5 -130.5q0 -73 -31.5 -131.5t-87.5 -91.5t-127 -33t-127 33t-87.5 91.5t-31.5 131.5q0 72 31.5 130.5t87.5 91.5t127 33t127 -33zM361 89q34 20 54.5 59t20.5 93t-20.5 92.5t-54.5 58.5t-75 20t-75 -20t-54.5 -58.5t-20.5 -92.5t20.5 -93t54.5 -59
t75 -20t75 20z" />
    <glyph glyph-name="divide" unicode="&#xf7;" horiz-adv-x="567" 
d="M237.5 550q19.5 19 45.5 19t45 -19t19 -45t-19 -45.5t-45 -19.5t-45.5 19.5t-19.5 45.5t19.5 45zM512 369v-83h-457v83h457zM237.5 195q19.5 19 45.5 19t45 -19t19 -45t-19 -45.5t-45 -19.5t-45.5 19.5t-19.5 45.5t19.5 45z" />
    <glyph glyph-name="oslash" unicode="&#xf8;" horiz-adv-x="572" 
d="M411 464l50 65l60 -48l-51 -66q30 -34 46 -78.5t16 -95.5q0 -73 -31.5 -131.5t-87.5 -91.5t-127 -33q-67 0 -124 31l-49 -63l-60 48l49 64q-62 72 -62 176q0 72 31.5 130.5t87.5 91.5t127 33q67 0 125 -32zM161 140l196 254q-33 18 -71 18q-41 0 -75 -20t-54.5 -58.5
t-20.5 -92.5q0 -56 25 -101zM361 89q34 20 54.5 59t20.5 93q0 56 -24 99l-196 -254q31 -17 70 -17q41 0 75 20z" />
    <glyph glyph-name="ugrave" unicode="&#xf9;" horiz-adv-x="566" 
d="M248 689l86 -146h-78l-126 146h118zM339 3.5q-39 -18.5 -84 -18.5q-55 0 -95.5 25.5t-62.5 69.5t-22 98v303h94v-289q0 -55 26.5 -89.5t82.5 -34.5t85 33.5t29 89.5v290h94v-392q0 -61 5 -89h-90q-4 15 -4 58q-19 -36 -58 -54.5z" />
    <glyph glyph-name="uacute" unicode="&#xfa;" horiz-adv-x="566" 
d="M218 543l87 146h118l-126 -146h-79zM339 3.5q-39 -18.5 -84 -18.5q-55 0 -95.5 25.5t-62.5 69.5t-22 98v303h94v-289q0 -55 26.5 -89.5t82.5 -34.5t85 33.5t29 89.5v290h94v-392q0 -61 5 -89h-90q-4 15 -4 58q-19 -36 -58 -54.5z" />
    <glyph glyph-name="ucircumflex" unicode="&#xfb;" horiz-adv-x="566" 
d="M227 684h107l104 -139h-88l-70 81l-70 -81h-87zM339 3.5q-39 -18.5 -84 -18.5q-55 0 -95.5 25.5t-62.5 69.5t-22 98v303h94v-289q0 -55 26.5 -89.5t82.5 -34.5t85 33.5t29 89.5v290h94v-392q0 -61 5 -89h-90q-4 15 -4 58q-19 -36 -58 -54.5z" />
    <glyph glyph-name="udieresis" unicode="&#xfc;" horiz-adv-x="566" 
d="M144.5 662q16.5 17 40.5 17q25 0 42 -17t17 -41q0 -25 -17 -41.5t-42 -16.5q-24 0 -40.5 16.5t-16.5 41.5q0 24 16.5 41zM331.5 662q16.5 17 41.5 17q24 0 41 -17t17 -41q0 -25 -17 -41.5t-41 -16.5q-25 0 -41.5 16.5t-16.5 41.5q0 24 16.5 41zM339 3.5
q-39 -18.5 -84 -18.5q-55 0 -95.5 25.5t-62.5 69.5t-22 98v303h94v-289q0 -55 26.5 -89.5t82.5 -34.5t85 33.5t29 89.5v290h94v-392q0 -61 5 -89h-90q-4 15 -4 58q-19 -36 -58 -54.5z" />
    <glyph glyph-name="yacute" unicode="&#xfd;" horiz-adv-x="523" 
d="M204 543l87 146h118l-126 -146h-79zM217 53l-207 428h108l150 -332l144 332h101l-313 -682h-103z" />
    <glyph glyph-name="thorn" unicode="&#xfe;" horiz-adv-x="593" 
d="M80 724h94v-313q22 36 63 58.5t95 22.5q70 0 120 -33t75.5 -90t25.5 -128q0 -72 -27 -130t-77.5 -91t-119.5 -33q-53 0 -93.5 22t-62.5 56v-255h-93v914zM418.5 361.5q-38.5 47.5 -103.5 47.5q-64 0 -103.5 -48t-39.5 -120q0 -75 39.5 -122.5t103.5 -47.5q65 0 103.5 47
t38.5 123q0 73 -38.5 120.5z" />
    <glyph glyph-name="ydieresis" unicode="&#xff;" horiz-adv-x="523" 
d="M126.5 662q16.5 17 40.5 17q25 0 42 -17t17 -41q0 -25 -17 -41.5t-42 -16.5q-24 0 -40.5 16.5t-16.5 41.5q0 24 16.5 41zM313.5 662q16.5 17 41.5 17q24 0 41 -17t17 -41q0 -25 -17 -41.5t-41 -16.5q-25 0 -41.5 16.5t-16.5 41.5q0 24 16.5 41zM217 53l-207 428h108
l150 -332l144 332h101l-313 -682h-103z" />
    <glyph glyph-name="Amacron" unicode="&#x100;" horiz-adv-x="697" 
d="M199 862h293v-83h-293v83zM190 198l-75 -198h-105l282 709h113l282 -709h-106l-77 198h-314zM469 289l-123 318l-121 -318h244z" />
    <glyph glyph-name="amacron" unicode="&#x101;" horiz-adv-x="523" 
d="M125 658h273v-81h-273v81zM89.5 228q39.5 37 106.5 47l130 19q37 5 37 36q0 38 -26 62t-78 24q-48 0 -75.5 -26.5t-33.5 -70.5l-90 21q8 69 63 112.5t134 43.5q101 0 150.5 -50t49.5 -126v-241q0 -55 6 -79h-92q-5 20 -5 65q-20 -32 -58.5 -56t-96.5 -24q-47 0 -84 20
t-57 53t-20 71q0 62 39.5 99zM325 98q38 34 38 108v22l-147 -22q-32 -6 -51 -23.5t-19 -48.5q0 -28 21.5 -49t56.5 -21q63 0 101 34z" />
    <glyph glyph-name="Abreve" unicode="&#x102;" horiz-adv-x="697" 
d="M265 772.5q-35 18.5 -54 48t-21 62.5h81q3 -22 21 -39t55 -17q36 0 54 17t21 39h81q-4 -53 -44 -91t-112 -38q-47 0 -82 18.5zM190 198l-75 -198h-105l282 709h113l282 -709h-106l-77 198h-314zM469 289l-123 318l-121 -318h244z" />
    <glyph glyph-name="abreve" unicode="&#x103;" horiz-adv-x="523" 
d="M181.5 565q-33.5 20 -51 52.5t-17.5 69.5h73q1 -26 19.5 -45.5t53.5 -19.5t52.5 19t20.5 46h73q0 -37 -17 -69.5t-50 -52.5t-79 -20q-44 0 -77.5 20zM89.5 228q39.5 37 106.5 47l130 19q37 5 37 36q0 38 -26 62t-78 24q-48 0 -75.5 -26.5t-33.5 -70.5l-90 21
q8 69 63 112.5t134 43.5q101 0 150.5 -50t49.5 -126v-241q0 -55 6 -79h-92q-5 20 -5 65q-20 -32 -58.5 -56t-96.5 -24q-47 0 -84 20t-57 53t-20 71q0 62 39.5 99zM325 98q38 34 38 108v22l-147 -22q-32 -6 -51 -23.5t-19 -48.5q0 -28 21.5 -49t56.5 -21q63 0 101 34z" />
    <glyph glyph-name="Aogonek" unicode="&#x104;" horiz-adv-x="697" 
d="M594 0h-13l-77 198h-314l-75 -198h-105l282 709h113l282 -709q-37 -19 -61 -41.5t-24 -55.5q0 -24 15 -35.5t38 -11.5q21 0 32 4v-68q-21 -8 -50 -8q-48 0 -81.5 27.5t-33.5 73.5q0 70 72 115zM469 289l-123 318l-121 -318h244z" />
    <glyph glyph-name="aogonek" unicode="&#x105;" horiz-adv-x="523" 
d="M318 -48q20 27 53 48q-5 25 -5 65q-20 -32 -58.5 -56t-96.5 -24q-47 0 -84 20t-57 53t-20 71q0 62 39.5 99t106.5 47l130 19q37 5 37 36q0 38 -26 62t-78 24q-48 0 -75.5 -26.5t-33.5 -70.5l-90 21q8 69 63 112.5t134 43.5q101 0 150.5 -50t49.5 -126v-241q0 -55 6 -79
q-37 -19 -61 -41.5t-24 -55.5q0 -24 15 -35.5t38 -11.5q21 0 32 4v-68q-21 -8 -50 -8q-48 0 -81.5 27.5t-33.5 73.5q0 40 20 67zM325 98q38 34 38 108v22l-147 -22q-32 -6 -51 -23.5t-19 -48.5q0 -28 21.5 -49t56.5 -21q63 0 101 34z" />
    <glyph glyph-name="Cacute" unicode="&#x106;" horiz-adv-x="750" 
d="M342 759l101 119h130l-137 -119h-94zM223 29q-81 44 -129.5 128t-48.5 198q0 113 50 197t130.5 128t171.5 44q120 0 201.5 -60t110.5 -165l-91 -32q-20 81 -76.5 124t-144.5 43q-67 0 -124.5 -32t-92.5 -95t-35 -152t35 -152t92.5 -95.5t124.5 -32.5q87 0 144.5 46.5
t81.5 123.5l87 -32q-28 -103 -111 -165.5t-202 -62.5q-93 0 -174 44z" />
    <glyph glyph-name="cacute" unicode="&#x107;" horiz-adv-x="530" 
d="M232 543l87 146h118l-126 -146h-79zM209.5 390q-33.5 -19 -53.5 -57t-20 -92q0 -53 20 -91t53.5 -58t73.5 -20q60 0 91.5 30t42.5 69l83 -36q-21 -61 -76 -105.5t-141 -44.5q-69 0 -124.5 33.5t-87 92t-31.5 130.5q0 73 32 131.5t87 91t123 32.5q89 0 142 -44.5
t72 -108.5l-85 -36q-12 43 -42.5 72.5t-86.5 29.5q-39 0 -72.5 -19z" />
    <glyph glyph-name="Ccircumflex" unicode="&#x108;" horiz-adv-x="750" 
d="M339 878h120l117 -119h-92l-85 64l-81 -64h-91zM223 29q-81 44 -129.5 128t-48.5 198q0 113 50 197t130.5 128t171.5 44q120 0 201.5 -60t110.5 -165l-91 -32q-20 81 -76.5 124t-144.5 43q-67 0 -124.5 -32t-92.5 -95t-35 -152t35 -152t92.5 -95.5t124.5 -32.5
q87 0 144.5 46.5t81.5 123.5l87 -32q-28 -103 -111 -165.5t-202 -62.5q-93 0 -174 44z" />
    <glyph glyph-name="ccircumflex" unicode="&#x109;" horiz-adv-x="530" 
d="M228 684h107l104 -139h-88l-70 81l-70 -81h-87zM209.5 390q-33.5 -19 -53.5 -57t-20 -92q0 -53 20 -91t53.5 -58t73.5 -20q60 0 91.5 30t42.5 69l83 -36q-21 -61 -76 -105.5t-141 -44.5q-69 0 -124.5 33.5t-87 92t-31.5 130.5q0 73 32 131.5t87 91t123 32.5
q89 0 142 -44.5t72 -108.5l-85 -36q-12 43 -42.5 72.5t-86.5 29.5q-39 0 -72.5 -19z" />
    <glyph glyph-name="Cdotaccent" unicode="&#x10a;" horiz-adv-x="750" 
d="M351.5 863q18.5 19 44.5 19t45 -19t19 -45t-19 -44.5t-45 -18.5t-44.5 18.5t-18.5 44.5t18.5 45zM223 29q-81 44 -129.5 128t-48.5 198q0 113 50 197t130.5 128t171.5 44q120 0 201.5 -60t110.5 -165l-91 -32q-20 81 -76.5 124t-144.5 43q-67 0 -124.5 -32t-92.5 -95
t-35 -152t35 -152t92.5 -95.5t124.5 -32.5q87 0 144.5 46.5t81.5 123.5l87 -32q-28 -103 -111 -165.5t-202 -62.5q-93 0 -174 44z" />
    <glyph glyph-name="cdotaccent" unicode="&#x10b;" horiz-adv-x="530" 
d="M238 660q18 18 44 18t44 -18t18 -44t-18 -44t-44 -18t-44 18t-18 44t18 44zM209.5 390q-33.5 -19 -53.5 -57t-20 -92q0 -53 20 -91t53.5 -58t73.5 -20q60 0 91.5 30t42.5 69l83 -36q-21 -61 -76 -105.5t-141 -44.5q-69 0 -124.5 33.5t-87 92t-31.5 130.5q0 73 32 131.5
t87 91t123 32.5q89 0 142 -44.5t72 -108.5l-85 -36q-12 43 -42.5 72.5t-86.5 29.5q-39 0 -72.5 -19z" />
    <glyph glyph-name="Ccaron" unicode="&#x10c;" horiz-adv-x="750" 
d="M394 814l85 64h92l-117 -119h-120l-112 119h91zM223 29q-81 44 -129.5 128t-48.5 198q0 113 50 197t130.5 128t171.5 44q120 0 201.5 -60t110.5 -165l-91 -32q-20 81 -76.5 124t-144.5 43q-67 0 -124.5 -32t-92.5 -95t-35 -152t35 -152t92.5 -95.5t124.5 -32.5
q87 0 144.5 46.5t81.5 123.5l87 -32q-28 -103 -111 -165.5t-202 -62.5q-93 0 -174 44z" />
    <glyph glyph-name="ccaron" unicode="&#x10d;" horiz-adv-x="530" 
d="M274 606l70 81h88l-102 -142h-111l-102 142h87zM209.5 390q-33.5 -19 -53.5 -57t-20 -92q0 -53 20 -91t53.5 -58t73.5 -20q60 0 91.5 30t42.5 69l83 -36q-21 -61 -76 -105.5t-141 -44.5q-69 0 -124.5 33.5t-87 92t-31.5 130.5q0 73 32 131.5t87 91t123 32.5
q89 0 142 -44.5t72 -108.5l-85 -36q-12 43 -42.5 72.5t-86.5 29.5q-39 0 -72.5 -19z" />
    <glyph glyph-name="Dcaron" unicode="&#x10e;" horiz-adv-x="720" 
d="M352 814l85 64h92l-117 -119h-120l-112 119h91zM90 709h248q92 0 169 -41.5t122.5 -122t45.5 -192.5t-46 -191.5t-123.5 -120.5t-169.5 -41h-246v709zM455.5 117q54.5 30 86.5 90t32 146q0 87 -31.5 147.5t-86 91t-121.5 30.5h-147v-535h145q68 0 122.5 30z" />
    <glyph glyph-name="dcaron" unicode="&#x10f;" horiz-adv-x="593" 
d="M360 11q-38 -24 -92 -24q-68 0 -120 33.5t-80 91.5t-28 130q0 68 29 125.5t81 92t118 34.5q58 0 95.5 -23.5t51.5 -57.5v311h93v-635q0 -49 5 -89h-91q-5 18 -5 65v8q-19 -38 -57 -62zM549 545l28 179h105l-64 -179h-69zM173.5 118q37.5 -48 103.5 -48q63 0 101 49
t38 125t-37 121.5t-101 45.5t-103 -47t-39 -122q0 -76 37.5 -124z" />
    <glyph glyph-name="Dcroat" unicode="&#x110;" horiz-adv-x="724" 
d="M94 325h-76v82h76v302h248q92 0 169 -41.5t122.5 -122t45.5 -192.5t-46 -191.5t-123.5 -120.5t-169.5 -41h-246v325zM459.5 117q54.5 30 86.5 90t32 146q0 87 -31.5 147.5t-86 91t-121.5 30.5h-147v-215h122v-82h-122v-238h145q68 0 122.5 30z" />
    <glyph glyph-name="dcroat" unicode="&#x111;" horiz-adv-x="593" 
d="M585 631v-76h-77v-466q0 -49 5 -89h-91q-5 18 -5 65v8q-19 -38 -57 -62t-92 -24q-68 0 -120 33.5t-80 91.5t-28 130q0 68 29 125.5t81 92t118 34.5q58 0 95.5 -23.5t51.5 -57.5v142h-131v76h131v93h93v-93h77zM173.5 118q37.5 -48 103.5 -48q63 0 101 49t38 125
t-37 121.5t-101 45.5t-103 -47t-39 -122q0 -76 37.5 -124z" />
    <glyph glyph-name="Emacron" unicode="&#x112;" horiz-adv-x="581" 
d="M156 862h293v-83h-293v83zM90 709h431v-91h-333v-218h302v-92h-302v-217h333v-91h-431v709z" />
    <glyph glyph-name="emacron" unicode="&#x113;" horiz-adv-x="542" 
d="M142 658h273v-81h-273v81zM421 28q-58 -43 -138 -43q-66 0 -121 30.5t-88 89t-33 137.5q0 73 32 131t84.5 90.5t113.5 32.5q109 0 170 -69t61 -183q0 -16 -2 -30h-362q2 -64 42.5 -105t102.5 -41q56 0 87.5 26t47.5 71l81 -28q-20 -66 -78 -109zM367.5 378.5
q-34.5 34.5 -95.5 34.5q-37 0 -66.5 -17.5t-46 -46t-18.5 -59.5h263q-2 54 -36.5 88.5z" />
    <glyph glyph-name="Ebreve" unicode="&#x114;" horiz-adv-x="581" 
d="M225 772.5q-35 18.5 -54 48t-21 62.5h81q3 -22 21 -39t55 -17q36 0 54 17t21 39h81q-4 -53 -44 -91t-112 -38q-47 0 -82 18.5zM90 709h431v-91h-333v-218h302v-92h-302v-217h333v-91h-431v709z" />
    <glyph glyph-name="ebreve" unicode="&#x115;" horiz-adv-x="542" 
d="M200.5 565q-33.5 20 -51 52.5t-17.5 69.5h73q1 -26 19.5 -45.5t53.5 -19.5t52.5 19t20.5 46h73q0 -37 -17 -69.5t-50 -52.5t-79 -20q-44 0 -77.5 20zM421 28q-58 -43 -138 -43q-66 0 -121 30.5t-88 89t-33 137.5q0 73 32 131t84.5 90.5t113.5 32.5q109 0 170 -69t61 -183
q0 -16 -2 -30h-362q2 -64 42.5 -105t102.5 -41q56 0 87.5 26t47.5 71l81 -28q-20 -66 -78 -109zM367.5 378.5q-34.5 34.5 -95.5 34.5q-37 0 -66.5 -17.5t-46 -46t-18.5 -59.5h263q-2 54 -36.5 88.5z" />
    <glyph glyph-name="Edotaccent" unicode="&#x116;" horiz-adv-x="581" 
d="M261.5 863q18.5 19 44.5 19t45 -19t19 -45t-19 -44.5t-45 -18.5t-44.5 18.5t-18.5 44.5t18.5 45zM90 709h431v-91h-333v-218h302v-92h-302v-217h333v-91h-431v709z" />
    <glyph glyph-name="edotaccent" unicode="&#x117;" horiz-adv-x="542" 
d="M235 660q18 18 44 18t44 -18t18 -44t-18 -44t-44 -18t-44 18t-18 44t18 44zM421 28q-58 -43 -138 -43q-66 0 -121 30.5t-88 89t-33 137.5q0 73 32 131t84.5 90.5t113.5 32.5q109 0 170 -69t61 -183q0 -16 -2 -30h-362q2 -64 42.5 -105t102.5 -41q56 0 87.5 26t47.5 71
l81 -28q-20 -66 -78 -109zM367.5 378.5q-34.5 34.5 -95.5 34.5q-37 0 -66.5 -17.5t-46 -46t-18.5 -59.5h263q-2 54 -36.5 88.5z" />
    <glyph glyph-name="Eogonek" unicode="&#x118;" horiz-adv-x="581" 
d="M428 0h-338v709h431v-91h-333v-218h302v-92h-302v-217h333v-91q-37 -19 -61 -41.5t-24 -55.5q0 -24 15 -35.5t38 -11.5q21 0 32 4v-68q-21 -8 -50 -8q-48 0 -81.5 27.5t-33.5 73.5q0 70 72 115z" />
    <glyph glyph-name="eogonek" unicode="&#x119;" horiz-adv-x="542" 
d="M237.5 -187.5q-33.5 27.5 -33.5 73.5q0 58 51 100q-59 7 -108 39.5t-77.5 88t-28.5 128.5t32 131t84.5 90.5t113.5 32.5q109 0 170 -69t61 -183v-8q0 -13 -2 -22h-362q2 -63 43.5 -104.5t101.5 -41.5q56 0 87.5 26t47.5 71l81 -28q-15 -49 -51.5 -86t-88.5 -54
q-34 -12 -54.5 -34.5t-20.5 -53.5q0 -27 15 -39.5t38 -12.5q19 0 32 4v-68q-21 -8 -50 -8q-48 0 -81.5 27.5zM367.5 378.5q-34.5 34.5 -95.5 34.5q-37 0 -66.5 -17.5t-46 -46t-18.5 -59.5h263q-2 54 -36.5 88.5z" />
    <glyph glyph-name="Ecaron" unicode="&#x11a;" horiz-adv-x="581" 
d="M311 814l85 64h92l-117 -119h-120l-112 119h91zM90 709h431v-91h-333v-218h302v-92h-302v-217h333v-91h-431v709z" />
    <glyph glyph-name="ecaron" unicode="&#x11b;" horiz-adv-x="542" 
d="M278 606l70 81h88l-102 -142h-111l-102 142h87zM421 28q-58 -43 -138 -43q-66 0 -121 30.5t-88 89t-33 137.5q0 73 32 131t84.5 90.5t113.5 32.5q109 0 170 -69t61 -183q0 -16 -2 -30h-362q2 -64 42.5 -105t102.5 -41q56 0 87.5 26t47.5 71l81 -28q-20 -66 -78 -109z
M367.5 378.5q-34.5 34.5 -95.5 34.5q-37 0 -66.5 -17.5t-46 -46t-18.5 -59.5h263q-2 54 -36.5 88.5z" />
    <glyph glyph-name="Gcircumflex" unicode="&#x11c;" horiz-adv-x="765" 
d="M334 878h120l117 -119h-92l-85 64l-81 -64h-91zM616 100q-27 -48 -85.5 -81.5t-141.5 -33.5q-92 0 -170.5 43.5t-126 127.5t-47.5 199t49.5 198.5t130 127t171.5 43.5q114 0 199 -58.5t115 -155.5l-89 -38q-24 77 -83 119.5t-142 42.5q-66 0 -123.5 -31.5t-92.5 -94.5
t-35 -153t34 -153.5t90.5 -95.5t122.5 -32q73 0 121.5 29t71.5 71.5t26 84.5h-246v88h339v-347h-79z" />
    <glyph glyph-name="gcircumflex" unicode="&#x11d;" horiz-adv-x="578" 
d="M230 684h107l104 -139h-88l-70 81l-70 -81h-87zM177 -90q36 -33 90 -33q75 0 111 38.5t36 117.5v69q-18 -35 -56.5 -57t-90.5 -22q-63 0 -113.5 30t-79 83t-28.5 120q0 65 28 118.5t78 84.5t115 31q55 0 92.5 -19.5t55.5 -56.5v67h93v-445q0 -104 -57.5 -172.5
t-183.5 -68.5q-59 0 -107.5 23t-79 64t-35.5 92l91 21q5 -52 41 -85zM380 144.5q38 42.5 38 111.5t-38 111.5t-99 42.5q-63 0 -101 -42t-38 -112q0 -71 37.5 -112.5t101.5 -41.5q61 0 99 42.5z" />
    <glyph glyph-name="Gbreve" unicode="&#x11e;" horiz-adv-x="765" 
d="M308 772.5q-35 18.5 -54 48t-21 62.5h81q3 -22 21 -39t55 -17q36 0 54 17t21 39h81q-4 -53 -44 -91t-112 -38q-47 0 -82 18.5zM616 100q-27 -48 -85.5 -81.5t-141.5 -33.5q-92 0 -170.5 43.5t-126 127.5t-47.5 199t49.5 198.5t130 127t171.5 43.5q114 0 199 -58.5
t115 -155.5l-89 -38q-24 77 -83 119.5t-142 42.5q-66 0 -123.5 -31.5t-92.5 -94.5t-35 -153t34 -153.5t90.5 -95.5t122.5 -32q73 0 121.5 29t71.5 71.5t26 84.5h-246v88h339v-347h-79z" />
    <glyph glyph-name="gbreve" unicode="&#x11f;" horiz-adv-x="578" 
d="M199.5 565q-33.5 20 -51 52.5t-17.5 69.5h73q1 -26 19.5 -45.5t53.5 -19.5t52.5 19t20.5 46h73q0 -37 -17 -69.5t-50 -52.5t-79 -20q-44 0 -77.5 20zM177 -90q36 -33 90 -33q75 0 111 38.5t36 117.5v69q-18 -35 -56.5 -57t-90.5 -22q-63 0 -113.5 30t-79 83t-28.5 120
q0 65 28 118.5t78 84.5t115 31q55 0 92.5 -19.5t55.5 -56.5v67h93v-445q0 -104 -57.5 -172.5t-183.5 -68.5q-59 0 -107.5 23t-79 64t-35.5 92l91 21q5 -52 41 -85zM380 144.5q38 42.5 38 111.5t-38 111.5t-99 42.5q-63 0 -101 -42t-38 -112q0 -71 37.5 -112.5t101.5 -41.5
q61 0 99 42.5z" />
    <glyph glyph-name="Gdotaccent" unicode="&#x120;" horiz-adv-x="765" 
d="M349.5 863q18.5 19 44.5 19t45 -19t19 -45t-19 -44.5t-45 -18.5t-44.5 18.5t-18.5 44.5t18.5 45zM616 100q-27 -48 -85.5 -81.5t-141.5 -33.5q-92 0 -170.5 43.5t-126 127.5t-47.5 199t49.5 198.5t130 127t171.5 43.5q114 0 199 -58.5t115 -155.5l-89 -38
q-24 77 -83 119.5t-142 42.5q-66 0 -123.5 -31.5t-92.5 -94.5t-35 -153t34 -153.5t90.5 -95.5t122.5 -32q73 0 121.5 29t71.5 71.5t26 84.5h-246v88h339v-347h-79z" />
    <glyph glyph-name="gdotaccent" unicode="&#x121;" horiz-adv-x="578" 
d="M234 660q18 18 44 18t44 -18t18 -44t-18 -44t-44 -18t-44 18t-18 44t18 44zM177 -90q36 -33 90 -33q75 0 111 38.5t36 117.5v69q-18 -35 -56.5 -57t-90.5 -22q-63 0 -113.5 30t-79 83t-28.5 120q0 65 28 118.5t78 84.5t115 31q55 0 92.5 -19.5t55.5 -56.5v67h93v-445
q0 -104 -57.5 -172.5t-183.5 -68.5q-59 0 -107.5 23t-79 64t-35.5 92l91 21q5 -52 41 -85zM380 144.5q38 42.5 38 111.5t-38 111.5t-99 42.5q-63 0 -101 -42t-38 -112q0 -71 37.5 -112.5t101.5 -41.5q61 0 99 42.5z" />
    <glyph glyph-name="Gcommaaccent" unicode="&#x122;" horiz-adv-x="765" 
d="M616 100q-27 -48 -85.5 -81.5t-141.5 -33.5q-92 0 -170.5 43.5t-126 127.5t-47.5 199t49.5 198.5t130 127t171.5 43.5q114 0 199 -58.5t115 -155.5l-89 -38q-24 77 -83 119.5t-142 42.5q-66 0 -123.5 -31.5t-92.5 -94.5t-35 -153t34 -153.5t90.5 -95.5t122.5 -32
q73 0 121.5 29t71.5 71.5t26 84.5h-246v88h339v-347h-79zM347.5 -50.5q17.5 14.5 41.5 14.5q25 0 45 -18.5t20 -54.5q0 -54 -34.5 -83t-79.5 -29v40q25 0 44 14.5t21 33.5q-2 -2 -8.5 -4t-12.5 -2q-24 0 -39 13t-15 38q0 23 17.5 37.5z" />
    <glyph glyph-name="gcommaaccent" unicode="&#x123;" horiz-adv-x="578" 
d="M315 548.5q-17 -14.5 -42 -14.5t-45 18.5t-20 54.5q0 34 16.5 59.5t43 39t54.5 13.5v-40q-25 0 -44 -14.5t-21 -33.5q2 2 7.5 4t13.5 2q24 0 39 -13.5t15 -37.5q0 -23 -17 -37.5zM177 -90q36 -33 90 -33q75 0 111 38.5t36 117.5v69q-18 -35 -56.5 -57t-90.5 -22
q-63 0 -113.5 30t-79 83t-28.5 120q0 65 28 118.5t78 84.5t115 31q55 0 92.5 -19.5t55.5 -56.5v67h93v-445q0 -104 -57.5 -172.5t-183.5 -68.5q-59 0 -107.5 23t-79 64t-35.5 92l91 21q5 -52 41 -85zM380 144.5q38 42.5 38 111.5t-38 111.5t-99 42.5q-63 0 -101 -42
t-38 -112q0 -71 37.5 -112.5t101.5 -41.5q61 0 99 42.5z" />
    <glyph glyph-name="Hcircumflex" unicode="&#x124;" horiz-adv-x="738" 
d="M307 878h120l117 -119h-92l-85 64l-81 -64h-91zM550 315h-362v-315h-98v709h98v-303h362v303h98v-709h-98v315z" />
    <glyph glyph-name="hcircumflex" unicode="&#x125;" horiz-adv-x="562" 
d="M227 888h120l117 -119h-92l-85 64l-81 -64h-91zM80 0v724h94v-299q25 36 63 53t83 17q84 0 128 -52.5t44 -137.5v-305h-94v289q0 55 -26.5 88t-85.5 33q-52 0 -81 -35.5t-31 -91.5v-283h-94z" />
    <glyph glyph-name="Hbar" unicode="&#x126;" horiz-adv-x="763" 
d="M563 315h-362v-315h-98v513h-73v75h73v121h98v-121h362v121h98v-121h72v-75h-72v-513h-98v315zM563 513h-362v-107h362v107z" />
    <glyph glyph-name="hbar" unicode="&#x127;" horiz-adv-x="567" 
d="M85 0v557h-86v76h86v91h94v-91h121v-76h-121v-132q25 36 63 53t83 17q84 0 128 -52.5t44 -137.5v-305h-94v289q0 55 -26.5 88t-85.5 33q-52 0 -81 -35.5t-31 -91.5v-283h-94z" />
    <glyph glyph-name="Itilde" unicode="&#x128;" horiz-adv-x="280" 
d="M277 782.5q-26 -28.5 -70 -28.5q-40 0 -71 23l-15 10q-23 14 -37 14q-35 0 -35 -44h-68v16q0 54 26.5 82.5t70.5 28.5q35 0 73 -23l15 -9q10 -6 19.5 -10t18.5 -4q32 0 32 35v8h67v-16q0 -54 -26 -82.5zM90 709h100v-709h-100v709z" />
    <glyph glyph-name="itilde" unicode="&#x129;" horiz-adv-x="253" 
d="M257.5 580.5q-26.5 -27.5 -70.5 -27.5q-31 0 -66 22l-14 9q-23 14 -37 14q-15 0 -22 -9.5t-7 -33.5h-72v15q0 54 27 81.5t71 27.5q32 0 67 -22l14 -9q12 -7 19.5 -10.5t16.5 -3.5q15 0 22 9.5t7 33.5h71v-15q0 -54 -26.5 -81.5zM80 481h93v-481h-93v481z" />
    <glyph glyph-name="Imacron" unicode="&#x12a;" horiz-adv-x="280" 
d="M-6 862h293v-83h-293v83zM90 709h100v-709h-100v709z" />
    <glyph glyph-name="imacron" unicode="&#x12b;" horiz-adv-x="253" 
d="M-9 658h273v-81h-273v81zM80 481h93v-481h-93v481z" />
    <glyph glyph-name="Ibreve" unicode="&#x12c;" horiz-adv-x="280" 
d="M59 772.5q-35 18.5 -54 48t-21 62.5h81q3 -22 21 -39t55 -17q36 0 54 17t21 39h81q-4 -53 -44 -91t-112 -38q-47 0 -82 18.5zM90 709h100v-709h-100v709z" />
    <glyph glyph-name="ibreve" unicode="&#x12d;" horiz-adv-x="253" 
d="M49.5 565q-33.5 20 -51 52.5t-17.5 69.5h73q1 -26 19.5 -45.5t53.5 -19.5t52.5 19t20.5 46h73q0 -37 -17 -69.5t-50 -52.5t-79 -20q-44 0 -77.5 20zM80 481h93v-481h-93v481z" />
    <glyph glyph-name="Iogonek" unicode="&#x12e;" horiz-adv-x="280" 
d="M97 0h-7v709h100v-709q-37 -19 -61 -41.5t-24 -55.5q0 -24 15 -35.5t38 -11.5q21 0 32 4v-68q-21 -8 -50 -8q-48 0 -81.5 27.5t-33.5 73.5q0 70 72 115z" />
    <glyph glyph-name="iogonek" unicode="&#x12f;" horiz-adv-x="253" 
d="M78.5 711.5q19.5 19.5 47.5 19.5q29 0 48.5 -19.5t19.5 -48.5q0 -28 -19.5 -47.5t-48.5 -19.5q-28 0 -47.5 19.5t-19.5 47.5q0 29 19.5 48.5zM103 -132.5q15 -11.5 38 -11.5q21 0 32 4v-68q-21 -8 -50 -8q-48 0 -81.5 27.5t-33.5 73.5q0 40 19.5 67.5t52.5 47.5v481h93
v-481q-37 -19 -61 -41.5t-24 -55.5q0 -24 15 -35.5z" />
    <glyph glyph-name="Idotaccent" unicode="&#x130;" horiz-adv-x="280" 
d="M94.5 863q18.5 19 44.5 19t45 -19t19 -45t-19 -44.5t-45 -18.5t-44.5 18.5t-18.5 44.5t18.5 45zM90 709h100v-709h-100v709z" />
    <glyph glyph-name="dotlessi" unicode="&#x131;" horiz-adv-x="253" 
d="M80 481h93v-481h-93v481z" />
    <glyph glyph-name="IJ" unicode="&#x132;" horiz-adv-x="594" 
d="M80 709h100v-409h-100v409zM180 212q0 -69 32 -102.5t88 -33.5q54 0 85 33.5t31 95.5v504h98v-497q0 -62 -26 -114t-74.5 -82.5t-112.5 -30.5q-103 0 -162 61.5t-59 164.5l100 19v-18z" />
    <glyph glyph-name="ij" unicode="&#x133;" horiz-adv-x="517" 
d="M341.5 713.5q19.5 19.5 47.5 19.5q29 0 48.5 -19.5t19.5 -48.5q0 -28 -19.5 -47.5t-48.5 -19.5q-28 0 -47.5 19.5t-19.5 47.5q0 29 19.5 48.5zM78.5 711.5q19.5 19.5 47.5 19.5q29 0 48.5 -19.5t19.5 -48.5q0 -28 -19.5 -47.5t-48.5 -19.5q-28 0 -47.5 19.5t-19.5 47.5
q0 29 19.5 48.5zM80 481h93v-481h-93v481zM437 481v-537q0 -67 -35.5 -108t-97.5 -41q-40 0 -56 7v79q15 -3 30 -3q35 0 50 17.5t15 52.5v533h94z" />
    <glyph glyph-name="Jcircumflex" unicode="&#x134;" horiz-adv-x="534" 
d="M344 878h120l117 -119h-92l-85 64l-81 -64h-91zM118 279v-67q0 -69 32.5 -102.5t89.5 -33.5q54 0 85 33.5t31 95.5v504h98v-497q0 -62 -26 -114t-74.5 -82.5t-112.5 -30.5q-103 0 -162 61.5t-59 164.5v46z" />
    <glyph glyph-name="jcircumflex" unicode="&#x135;" horiz-adv-x="254" 
d="M74 684h107l104 -139h-88l-70 81l-70 -81h-87zM174 481v-537q0 -67 -35.5 -108t-97.5 -41q-40 0 -56 7v78q10 -2 30 -2q35 0 50 17.5t15 52.5v533h94z" />
    <glyph glyph-name="Kcommaaccent" unicode="&#x136;" horiz-adv-x="668" 
d="M188 214v-214h-98v709h98v-365l332 365h129l-295 -316l299 -393h-124l-240 322zM312.5 -50.5q17.5 14.5 41.5 14.5q25 0 45 -18.5t20 -54.5q0 -54 -34.5 -83t-79.5 -29v40q25 0 44 14.5t21 33.5q-2 -2 -8.5 -4t-12.5 -2q-24 0 -39 13t-15 38q0 23 17.5 37.5z" />
    <glyph glyph-name="kcommaaccent" unicode="&#x137;" horiz-adv-x="525" 
d="M515 0h-118l-157 212l-67 -67v-145h-93v724h93v-456l208 213h130l-205 -203zM247.5 -50.5q17.5 14.5 41.5 14.5q25 0 45 -18.5t20 -54.5q0 -54 -34.5 -83t-79.5 -29v40q25 0 44 14.5t21 33.5q-2 -2 -8.5 -4t-12.5 -2q-24 0 -39 13t-15 38q0 23 17.5 37.5z" />
    <glyph glyph-name="kgreenlandic" unicode="&#x138;" horiz-adv-x="525" 
d="M515 0h-118l-157 212l-67 -67v-145h-93v481h93v-213l208 213h130l-205 -203z" />
    <glyph glyph-name="Lacute" unicode="&#x139;" horiz-adv-x="548" 
d="M94 759l101 119h130l-137 -119h-94zM90 709h98v-617h335v-92h-433v709z" />
    <glyph glyph-name="lacute" unicode="&#x13a;" horiz-adv-x="254" 
d="M81 769l101 119h130l-137 -119h-94zM80 724h94v-724h-94v724z" />
    <glyph glyph-name="Lcommaaccent" unicode="&#x13b;" horiz-adv-x="548" 
d="M90 709h98v-617h335v-92h-433v709zM273.5 -50.5q17.5 14.5 41.5 14.5q25 0 45 -18.5t20 -54.5q0 -54 -34.5 -83t-79.5 -29v40q25 0 44 14.5t21 33.5q-2 -2 -8 -4t-13 -2q-24 0 -39 13t-15 38q0 23 17.5 37.5z" />
    <glyph glyph-name="lcommaaccent" unicode="&#x13c;" horiz-adv-x="254" 
d="M80 724h94v-724h-94v724zM82.5 -50.5q17.5 14.5 41.5 14.5q25 0 45 -18.5t20 -54.5q0 -54 -34.5 -83t-79.5 -29v40q25 0 44 14.5t21 33.5q-2 -2 -8 -4t-13 -2q-24 0 -39 13t-15 38q0 23 17.5 37.5z" />
    <glyph glyph-name="Lcaron" unicode="&#x13d;" horiz-adv-x="548" 
d="M288 569l30 190h111l-68 -190h-73zM90 709h98v-617h335v-92h-433v709z" />
    <glyph glyph-name="lcaron" unicode="&#x13e;" horiz-adv-x="254" 
d="M80 724h94v-724h-94v724zM207 545l28 179h105l-64 -179h-69z" />
    <glyph glyph-name="Ldot" unicode="&#x13f;" horiz-adv-x="548" 
d="M90 709h98v-617h335v-92h-433v709zM307.5 417q18.5 19 44.5 19t45 -19t19 -45t-19 -44.5t-45 -18.5t-44.5 18.5t-18.5 44.5t18.5 45z" />
    <glyph glyph-name="ldot" unicode="&#x140;" horiz-adv-x="372" 
d="M80 724h94v-724h-94v724zM251 356q18 18 44 18t44 -18t18 -44t-18 -44t-44 -18t-44 18t-18 44t18 44z" />
    <glyph glyph-name="Lslash" unicode="&#x141;" horiz-adv-x="559" 
d="M101 289l-96 -42v87l96 42v333h98v-289l157 69v-87l-157 -70v-240h335v-92h-433v289z" />
    <glyph glyph-name="lslash" unicode="&#x142;" horiz-adv-x="288" 
d="M94 272l-89 -39v87l89 39v365h94v-323l95 42v-87l-95 -42v-314h-94v272z" />
    <glyph glyph-name="Nacute" unicode="&#x143;" horiz-adv-x="763" 
d="M306 759l101 119h130l-137 -119h-94zM188 578v-578h-98v709h131l354 -544v544h98v-709h-102z" />
    <glyph glyph-name="nacute" unicode="&#x144;" horiz-adv-x="562" 
d="M221 543l87 146h118l-126 -146h-79zM80 0v481h92v-69q25 43 64 63t84 20q84 0 128 -52.5t44 -137.5v-305h-94v289q0 55 -26.5 88t-85.5 33q-54 0 -83 -37.5t-29 -94.5v-278h-94z" />
    <glyph glyph-name="Ncommaaccent" unicode="&#x145;" horiz-adv-x="763" 
d="M188 578v-578h-98v709h131l354 -544v544h98v-709h-102zM350.5 -50.5q17.5 14.5 41.5 14.5q25 0 45 -18.5t20 -54.5q0 -54 -34.5 -83t-79.5 -29v40q25 0 44 14.5t21 33.5q-2 -2 -8 -4t-13 -2q-24 0 -39 13t-15 38q0 23 17.5 37.5z" />
    <glyph glyph-name="ncommaaccent" unicode="&#x146;" horiz-adv-x="562" 
d="M80 0v481h92v-69q25 43 64 63t84 20q84 0 128 -52.5t44 -137.5v-305h-94v289q0 55 -26.5 88t-85.5 33q-54 0 -83 -37.5t-29 -94.5v-278h-94zM247.5 -50.5q17.5 14.5 41.5 14.5q25 0 45 -18.5t20 -54.5q0 -54 -34.5 -83t-79.5 -29v40q25 0 44 14.5t21 33.5q-2 -2 -8.5 -4
t-12.5 -2q-24 0 -39 13t-15 38q0 23 17.5 37.5z" />
    <glyph glyph-name="Ncaron" unicode="&#x147;" horiz-adv-x="763" 
d="M382 814l85 64h92l-117 -119h-120l-112 119h91zM188 578v-578h-98v709h131l354 -544v544h98v-709h-102z" />
    <glyph glyph-name="ncaron" unicode="&#x148;" horiz-adv-x="562" 
d="M269 606l70 81h88l-102 -142h-111l-102 142h87zM80 0v481h92v-69q25 43 64 63t84 20q84 0 128 -52.5t44 -137.5v-305h-94v289q0 55 -26.5 88t-85.5 33q-54 0 -83 -37.5t-29 -94.5v-278h-94z" />
    <glyph glyph-name="napostrophe" unicode="&#x149;" horiz-adv-x="562" 
d="M86.5 696.5q17.5 14.5 41.5 14.5q25 0 45 -18.5t20 -54.5q0 -54 -34.5 -83t-79.5 -29v40q25 0 44 14.5t21 33.5q-6 -6 -21 -6q-24 0 -39 13t-15 38q0 23 17.5 37.5zM80 0v481h92v-69q25 43 64 63t84 20q84 0 128 -52.5t44 -137.5v-305h-94v289q0 55 -26.5 88t-85.5 33
q-54 0 -83 -37.5t-29 -94.5v-278h-94z" />
    <glyph glyph-name="Eng" unicode="&#x14a;" horiz-adv-x="763" 
d="M561.5 -96q13.5 16 13.5 51v39l-387 584v-578h-98v709h131l354 -544v544h98v-756q0 -67 -36 -108t-98 -41q-47 0 -56 7v79q14 -2 30 -2q35 0 48.5 16z" />
    <glyph glyph-name="eng" unicode="&#x14b;" horiz-adv-x="562" 
d="M80 0v481h92v-69q25 43 64 63t84 20q84 0 128 -52.5t44 -137.5v-361q0 -67 -35.5 -108t-97.5 -41q-47 0 -56 7v78q14 -2 30 -2q35 0 50 17.5t15 52.5v341q0 55 -26.5 88t-85.5 33q-54 0 -83 -37.5t-29 -94.5v-278h-94z" />
    <glyph glyph-name="Omacron" unicode="&#x14c;" horiz-adv-x="802" 
d="M255 862h293v-83h-293v83zM95.5 552q50.5 84 132 128t173.5 44t173.5 -44t132 -128t50.5 -197q0 -114 -50.5 -198t-132 -128t-173.5 -44t-173.5 44t-132 128t-50.5 198q0 113 50.5 197zM180.5 203q35.5 -63 94 -95.5t126.5 -32.5t126.5 32.5t94 95.5t35.5 152t-35.5 152
t-94 95t-126.5 32t-126.5 -32t-94 -95t-35.5 -152t35.5 -152z" />
    <glyph glyph-name="omacron" unicode="&#x14d;" horiz-adv-x="572" 
d="M150 658h273v-81h-273v81zM413 463q56 -33 87.5 -91.5t31.5 -130.5q0 -73 -31.5 -131.5t-87.5 -91.5t-127 -33t-127 33t-87.5 91.5t-31.5 131.5q0 72 31.5 130.5t87.5 91.5t127 33t127 -33zM361 89q34 20 54.5 59t20.5 93t-20.5 92.5t-54.5 58.5t-75 20t-75 -20
t-54.5 -58.5t-20.5 -92.5t20.5 -93t54.5 -59t75 -20t75 20z" />
    <glyph glyph-name="Obreve" unicode="&#x14e;" horiz-adv-x="802" 
d="M327 772.5q-35 18.5 -54 48t-21 62.5h81q3 -22 21 -39t55 -17q36 0 54 17t21 39h81q-4 -53 -44 -91t-112 -38q-47 0 -82 18.5zM95.5 552q50.5 84 132 128t173.5 44t173.5 -44t132 -128t50.5 -197q0 -114 -50.5 -198t-132 -128t-173.5 -44t-173.5 44t-132 128t-50.5 198
q0 113 50.5 197zM180.5 203q35.5 -63 94 -95.5t126.5 -32.5t126.5 32.5t94 95.5t35.5 152t-35.5 152t-94 95t-126.5 32t-126.5 -32t-94 -95t-35.5 -152t35.5 -152z" />
    <glyph glyph-name="obreve" unicode="&#x14f;" horiz-adv-x="572" 
d="M208.5 565q-33.5 20 -51 52.5t-17.5 69.5h73q1 -26 19.5 -45.5t53.5 -19.5t52.5 19t20.5 46h73q0 -37 -17 -69.5t-50 -52.5t-79 -20q-44 0 -77.5 20zM413 463q56 -33 87.5 -91.5t31.5 -130.5q0 -73 -31.5 -131.5t-87.5 -91.5t-127 -33t-127 33t-87.5 91.5t-31.5 131.5
q0 72 31.5 130.5t87.5 91.5t127 33t127 -33zM361 89q34 20 54.5 59t20.5 93t-20.5 92.5t-54.5 58.5t-75 20t-75 -20t-54.5 -58.5t-20.5 -92.5t20.5 -93t54.5 -59t75 -20t75 20z" />
    <glyph glyph-name="Ohungarumlaut" unicode="&#x150;" horiz-adv-x="802" 
d="M285 759l61 119h105l-96 -119h-70zM426 759l71 119h105l-106 -119h-70zM95.5 552q50.5 84 132 128t173.5 44t173.5 -44t132 -128t50.5 -197q0 -114 -50.5 -198t-132 -128t-173.5 -44t-173.5 44t-132 128t-50.5 198q0 113 50.5 197zM180.5 203q35.5 -63 94 -95.5
t126.5 -32.5t126.5 32.5t94 95.5t35.5 152t-35.5 152t-94 95t-126.5 32t-126.5 -32t-94 -95t-35.5 -152t35.5 -152z" />
    <glyph glyph-name="ohungarumlaut" unicode="&#x151;" horiz-adv-x="572" 
d="M182 543l51 146h105l-90 -146h-66zM313 543l61 146h105l-100 -146h-66zM413 463q56 -33 87.5 -91.5t31.5 -130.5q0 -73 -31.5 -131.5t-87.5 -91.5t-127 -33t-127 33t-87.5 91.5t-31.5 131.5q0 72 31.5 130.5t87.5 91.5t127 33t127 -33zM361 89q34 20 54.5 59t20.5 93
t-20.5 92.5t-54.5 58.5t-75 20t-75 -20t-54.5 -58.5t-20.5 -92.5t20.5 -93t54.5 -59t75 -20t75 20z" />
    <glyph glyph-name="OE" unicode="&#x152;" horiz-adv-x="1148" 
d="M657 93q-50 -53 -116.5 -80.5t-139.5 -27.5q-92 0 -173.5 44t-132 128t-50.5 198q0 113 50.5 197t132 128t173.5 44q73 0 139.5 -27.5t116.5 -80.5v93h431v-91h-333v-218h302v-92h-302v-217h333v-91h-431v93zM180.5 203q35.5 -63 94 -95.5t126.5 -32.5t126.5 32.5
t94 95.5t35.5 152t-35.5 152t-94 95t-126.5 32t-126.5 -32t-94 -95t-35.5 -152t35.5 -152z" />
    <glyph glyph-name="oe" unicode="&#x153;" horiz-adv-x="937" 
d="M816 28q-58 -43 -138 -43q-60 0 -111 25t-84 72q-33 -46 -84 -71.5t-113 -25.5q-71 0 -127 33t-87.5 91.5t-31.5 131.5q0 72 31.5 130.5t87.5 91.5t127 33q62 0 113 -26t84 -72q32 46 80.5 72t102.5 26q109 0 170 -69t61 -183q0 -16 -2 -30h-362q2 -63 43.5 -104.5
t101.5 -41.5q56 0 87.5 26t47.5 71l81 -28q-20 -66 -78 -109zM762.5 378.5q-34.5 34.5 -95.5 34.5q-37 0 -66.5 -17.5t-46 -46t-18.5 -59.5h263q-2 54 -36.5 88.5zM361 89q34 20 54.5 59t20.5 93t-20.5 92.5t-54.5 58.5t-75 20t-75 -20t-54.5 -58.5t-20.5 -92.5t20.5 -93
t54.5 -59t75 -20t75 20z" />
    <glyph glyph-name="Racute" unicode="&#x154;" horiz-adv-x="619" 
d="M241 759l101 119h130l-137 -119h-94zM189 290v-290h-99v709h267q65 0 114.5 -28t76 -76t26.5 -107q0 -78 -46 -132t-126 -69l169 -297h-114l-162 290h-106zM436 410.5q37 32.5 37 87.5q0 57 -36.5 90t-97.5 33h-150v-243h150q60 0 97 32.5z" />
    <glyph glyph-name="racute" unicode="&#x155;" horiz-adv-x="367" 
d="M142 543l87 146h118l-126 -146h-79zM306 389q-62 0 -97 -36t-35 -112v-241h-94v481h92v-84q23 50 62 71t82 21q16 0 31 -3v-100q-21 3 -41 3z" />
    <glyph glyph-name="Rcommaaccent" unicode="&#x156;" horiz-adv-x="619" 
d="M189 290v-290h-99v709h267q65 0 114.5 -28t76 -76t26.5 -107q0 -78 -46 -132t-126 -69l169 -297h-114l-162 290h-106zM436 410.5q37 32.5 37 87.5q0 57 -36.5 90t-97.5 33h-150v-243h150q60 0 97 32.5zM289.5 -50.5q17.5 14.5 41.5 14.5q25 0 45 -18.5t20 -54.5
q0 -54 -34.5 -83t-79.5 -29v40q25 0 44 14.5t21 33.5q-2 -2 -8 -4t-13 -2q-24 0 -39 13t-15 38q0 23 17.5 37.5z" />
    <glyph glyph-name="rcommaaccent" unicode="&#x157;" horiz-adv-x="367" 
d="M306 389q-62 0 -97 -36t-35 -112v-241h-94v481h92v-84q23 50 62 71t82 21q16 0 31 -3v-100q-21 3 -41 3zM83.5 -50.5q17.5 14.5 41.5 14.5q25 0 45 -18.5t20 -54.5q0 -54 -34.5 -83t-79.5 -29v40q25 0 44 14.5t21 33.5q-2 -2 -8.5 -4t-12.5 -2q-24 0 -39 13t-15 38
q0 23 17.5 37.5z" />
    <glyph glyph-name="Rcaron" unicode="&#x158;" horiz-adv-x="619" 
d="M304 814l85 64h92l-117 -119h-120l-112 119h91zM189 290v-290h-99v709h267q65 0 114.5 -28t76 -76t26.5 -107q0 -78 -46 -132t-126 -69l169 -297h-114l-162 290h-106zM436 410.5q37 32.5 37 87.5q0 57 -36.5 90t-97.5 33h-150v-243h150q60 0 97 32.5z" />
    <glyph glyph-name="rcaron" unicode="&#x159;" horiz-adv-x="367" 
d="M210 606l70 81h88l-102 -142h-111l-102 142h87zM306 389q-62 0 -97 -36t-35 -112v-241h-94v481h92v-84q23 50 62 71t82 21q16 0 31 -3v-100q-21 3 -41 3z" />
    <glyph glyph-name="Sacute" unicode="&#x15a;" horiz-adv-x="593" 
d="M247 759l101 119h130l-137 -119h-94zM409 601q-38 37 -105 37q-60 0 -98.5 -33.5t-38.5 -84.5q0 -39 23.5 -66t67.5 -37l106 -23q89 -20 136.5 -72t47.5 -127q0 -55 -30.5 -103.5t-86 -77.5t-128.5 -29q-81 0 -138.5 30.5t-88.5 78.5t-38 102l94 30q6 -65 50 -108.5
t120 -43.5q70 0 108 31.5t38 81.5q0 40 -27 69.5t-79 40.5l-101 22q-79 18 -126 67.5t-47 126.5q0 55 31 103.5t85 78t118 29.5q108 0 166.5 -53t73.5 -123l-88 -31q-7 47 -45 84z" />
    <glyph glyph-name="sacute" unicode="&#x15b;" horiz-adv-x="452" 
d="M178 543l87 146h118l-126 -146h-79zM154.5 90q28.5 -25 77.5 -25q38 0 60 18.5t22 45.5q0 23 -16 39t-46 23l-82 18q-57 12 -88.5 48t-31.5 87q0 41 23 76t62.5 55.5t85.5 20.5q87 0 129 -40.5t54 -88.5l-83 -31q-19 80 -100 80q-35 0 -57.5 -19t-22.5 -45q0 -46 55 -58
l78 -17q65 -14 99 -51t34 -92q0 -36 -20 -70.5t-60 -56.5t-96 -22q-61 0 -104 22t-65 54t-27 64l85 30q6 -40 34.5 -65z" />
    <glyph glyph-name="Scircumflex" unicode="&#x15c;" horiz-adv-x="593" 
d="M256 878h120l117 -119h-92l-85 64l-81 -64h-91zM409 601q-38 37 -105 37q-60 0 -98.5 -33.5t-38.5 -84.5q0 -39 23.5 -66t67.5 -37l106 -23q89 -20 136.5 -72t47.5 -127q0 -55 -30.5 -103.5t-86 -77.5t-128.5 -29q-81 0 -138.5 30.5t-88.5 78.5t-38 102l94 30
q6 -65 50 -108.5t120 -43.5q70 0 108 31.5t38 81.5q0 40 -27 69.5t-79 40.5l-101 22q-79 18 -126 67.5t-47 126.5q0 55 31 103.5t85 78t118 29.5q108 0 166.5 -53t73.5 -123l-88 -31q-7 47 -45 84z" />
    <glyph glyph-name="scircumflex" unicode="&#x15d;" horiz-adv-x="452" 
d="M180 684h107l104 -139h-88l-70 81l-70 -81h-87zM154.5 90q28.5 -25 77.5 -25q38 0 60 18.5t22 45.5q0 23 -16 39t-46 23l-82 18q-57 12 -88.5 48t-31.5 87q0 41 23 76t62.5 55.5t85.5 20.5q87 0 129 -40.5t54 -88.5l-83 -31q-19 80 -100 80q-35 0 -57.5 -19t-22.5 -45
q0 -46 55 -58l78 -17q65 -14 99 -51t34 -92q0 -36 -20 -70.5t-60 -56.5t-96 -22q-61 0 -104 22t-65 54t-27 64l85 30q6 -40 34.5 -65z" />
    <glyph glyph-name="Scedilla" unicode="&#x15e;" horiz-adv-x="593" 
d="M409 601q-38 37 -105 37q-39 0 -70.5 -16t-49 -43t-17.5 -59q0 -39 23.5 -66t67.5 -37l106 -23q89 -20 136.5 -72t47.5 -127q0 -51 -24.5 -95.5t-70.5 -74t-107 -37.5l-22 -34q43 0 70 -22t27 -60t-29.5 -63t-87.5 -25q-36 0 -65 12.5t-45 31.5l37 45q31 -34 72 -34
q20 0 33.5 8.5t13.5 24.5q0 14 -11.5 23t-32.5 9q-14 0 -29 -5l-33 39l31 48q-71 5 -122.5 36.5t-80 77.5t-34.5 98l94 30q6 -64 51 -109t119 -45q70 0 108 31.5t38 81.5q0 39 -27.5 69t-78.5 41l-101 22q-79 18 -126 67.5t-47 126.5q0 55 31 103.5t85 78t118 29.5
q108 0 166.5 -53t73.5 -123l-88 -31q-7 47 -45 84z" />
    <glyph glyph-name="scedilla" unicode="&#x15f;" horiz-adv-x="452" 
d="M154.5 90.5q28.5 -25.5 77.5 -25.5q38 0 60 18.5t22 45.5q0 23 -16 39t-46 23l-82 18q-55 12 -87.5 48.5t-32.5 86.5q0 41 23 76t62.5 55.5t85.5 20.5q87 0 129 -40.5t54 -88.5l-83 -31q-19 80 -100 80q-35 0 -57.5 -19t-22.5 -45q0 -45 55 -58l78 -17q65 -14 99 -51
t34 -92q0 -32 -16.5 -63.5t-49 -54.5t-79.5 -29l-21 -33q43 0 70 -22t27 -60t-29.5 -63t-87.5 -25q-36 0 -65 12.5t-45 31.5l37 45q31 -34 72 -34q20 0 33.5 8.5t13.5 24.5q0 14 -11.5 23t-32.5 9q-14 0 -29 -5l-33 39l32 50q-49 6 -83 29t-52.5 52.5t-22.5 57.5l85 30
q6 -41 34.5 -66.5z" />
    <glyph glyph-name="Scaron" unicode="&#x160;" horiz-adv-x="593" 
d="M305 814l85 64h92l-117 -119h-120l-112 119h91zM409 601q-38 37 -105 37q-60 0 -98.5 -33.5t-38.5 -84.5q0 -39 23.5 -66t67.5 -37l106 -23q89 -20 136.5 -72t47.5 -127q0 -55 -30.5 -103.5t-86 -77.5t-128.5 -29q-81 0 -138.5 30.5t-88.5 78.5t-38 102l94 30
q6 -65 50 -108.5t120 -43.5q70 0 108 31.5t38 81.5q0 40 -27 69.5t-79 40.5l-101 22q-79 18 -126 67.5t-47 126.5q0 55 31 103.5t85 78t118 29.5q108 0 166.5 -53t73.5 -123l-88 -31q-7 47 -45 84z" />
    <glyph glyph-name="scaron" unicode="&#x161;" horiz-adv-x="452" 
d="M226 606l70 81h88l-102 -142h-111l-102 142h87zM154.5 90q28.5 -25 77.5 -25q38 0 60 18.5t22 45.5q0 23 -16 39t-46 23l-82 18q-57 12 -88.5 48t-31.5 87q0 41 23 76t62.5 55.5t85.5 20.5q87 0 129 -40.5t54 -88.5l-83 -31q-19 80 -100 80q-35 0 -57.5 -19t-22.5 -45
q0 -46 55 -58l78 -17q65 -14 99 -51t34 -92q0 -36 -20 -70.5t-60 -56.5t-96 -22q-61 0 -104 22t-65 54t-27 64l85 30q6 -40 34.5 -65z" />
    <glyph glyph-name="uni0162" unicode="&#x162;" horiz-adv-x="592" 
d="M261 0h-14v618h-237v91h572v-91h-237v-618h-13l-30 -46q43 0 70 -22t27 -60t-30 -64t-87 -26q-36 0 -65 13t-45 33l37 45q31 -34 72 -34q20 0 33.5 8.5t13.5 24.5q0 14 -11.5 23t-32.5 9q-14 0 -29 -5l-33 39z" />
    <glyph glyph-name="uni0163" unicode="&#x163;" horiz-adv-x="355" 
d="M185 6q-36 14 -54.5 46t-18.5 80v264h-92v85h26q37 0 55.5 20t18.5 54v78h86v-152h104v-85h-104v-250q0 -34 15.5 -50t51.5 -16q26 0 37 4v-80q-20 -8 -62 -9l-26 -41q43 0 70 -22t27 -60t-30 -64t-87 -26q-36 0 -65 13t-45 33l37 45q31 -34 72 -34q20 0 33.5 8.5
t13.5 24.5q0 14 -11.5 23t-32.5 9q-14 0 -29 -5l-33 39z" />
    <glyph glyph-name="Tcaron" unicode="&#x164;" horiz-adv-x="592" 
d="M294 814l85 64h92l-117 -119h-120l-112 119h91zM345 0h-98v618h-237v91h572v-91h-237v-618z" />
    <glyph glyph-name="tcaron" unicode="&#x165;" horiz-adv-x="355" 
d="M270 566l28 179h105l-64 -179h-69zM310 481v-85h-104v-250q0 -34 15.5 -50t51.5 -16q26 0 37 4v-80q-24 -9 -64 -9q-63 0 -98.5 36t-35.5 101v264h-92v85h26q37 0 55.5 20t18.5 54v78h86v-152h104z" />
    <glyph glyph-name="Tbar" unicode="&#x166;" horiz-adv-x="592" 
d="M345 372h110v-81h-110v-291h-98v291h-108v81h108v246h-237v91h572v-91h-237v-246z" />
    <glyph glyph-name="tbar" unicode="&#x167;" horiz-adv-x="355" 
d="M310 84v-80q-24 -9 -64 -9q-63 0 -98.5 36t-35.5 101v75h-92v76h92v113h-92v85h26q37 0 55.5 20t18.5 54v78h86v-152h104v-85h-104v-113h104v-76h-104v-61q0 -34 15.5 -50t51.5 -16q26 0 37 4z" />
    <glyph glyph-name="Utilde" unicode="&#x168;" horiz-adv-x="670" 
d="M469 782.5q-26 -28.5 -70 -28.5q-40 0 -71 23l-15 10q-23 14 -37 14q-35 0 -35 -44h-68v16q0 54 26.5 82.5t70.5 28.5q35 0 73 -23l15 -9q10 -6 19.5 -10t18.5 -4q32 0 32 35v8h67v-16q0 -54 -26 -82.5zM204 14.5q-58 29.5 -91 87.5t-33 140v467h97v-464q0 -81 41.5 -125
t116.5 -44t116 44t41 125v464h98v-467q0 -82 -33 -140t-91 -87.5t-131 -29.5t-131 29.5z" />
    <glyph glyph-name="utilde" unicode="&#x169;" horiz-adv-x="566" 
d="M410.5 580.5q-26.5 -27.5 -70.5 -27.5q-31 0 -66 22l-14 9q-23 14 -37 14q-15 0 -22 -9.5t-7 -33.5h-72v15q0 54 27 81.5t71 27.5q32 0 67 -22l14 -9q12 -7 19.5 -10.5t16.5 -3.5q15 0 22 9.5t7 33.5h71v-15q0 -54 -26.5 -81.5zM339 3.5q-39 -18.5 -84 -18.5
q-55 0 -95.5 25.5t-62.5 69.5t-22 98v303h94v-289q0 -55 26.5 -89.5t82.5 -34.5t85 33.5t29 89.5v290h94v-392q0 -61 5 -89h-90q-4 15 -4 58q-19 -36 -58 -54.5z" />
    <glyph glyph-name="Umacron" unicode="&#x16a;" horiz-adv-x="670" 
d="M189 862h293v-83h-293v83zM204 14.5q-58 29.5 -91 87.5t-33 140v467h97v-464q0 -81 41.5 -125t116.5 -44t116 44t41 125v464h98v-467q0 -82 -33 -140t-91 -87.5t-131 -29.5t-131 29.5z" />
    <glyph glyph-name="umacron" unicode="&#x16b;" horiz-adv-x="566" 
d="M144 658h273v-81h-273v81zM339 3.5q-39 -18.5 -84 -18.5q-55 0 -95.5 25.5t-62.5 69.5t-22 98v303h94v-289q0 -55 26.5 -89.5t82.5 -34.5t85 33.5t29 89.5v290h94v-392q0 -61 5 -89h-90q-4 15 -4 58q-19 -36 -58 -54.5z" />
    <glyph glyph-name="Ubreve" unicode="&#x16c;" horiz-adv-x="670" 
d="M254 772.5q-35 18.5 -54 48t-21 62.5h81q3 -22 21 -39t55 -17q36 0 54 17t21 39h81q-4 -53 -44 -91t-112 -38q-47 0 -82 18.5zM204 14.5q-58 29.5 -91 87.5t-33 140v467h97v-464q0 -81 41.5 -125t116.5 -44t116 44t41 125v464h98v-467q0 -82 -33 -140t-91 -87.5
t-131 -29.5t-131 29.5z" />
    <glyph glyph-name="ubreve" unicode="&#x16d;" horiz-adv-x="566" 
d="M204.5 565q-33.5 20 -51 52.5t-17.5 69.5h73q1 -26 19.5 -45.5t53.5 -19.5t52.5 19t20.5 46h73q0 -37 -17 -69.5t-50 -52.5t-79 -20q-44 0 -77.5 20zM339 3.5q-39 -18.5 -84 -18.5q-55 0 -95.5 25.5t-62.5 69.5t-22 98v303h94v-289q0 -55 26.5 -89.5t82.5 -34.5t85 33.5
t29 89.5v290h94v-392q0 -61 5 -89h-90q-4 15 -4 58q-19 -36 -58 -54.5z" />
    <glyph glyph-name="Uring" unicode="&#x16e;" horiz-adv-x="670" 
d="M414 771q-33 -32 -79 -32q-45 0 -78 32t-33 77t33 77.5t78 32.5q46 0 79 -32t33 -78q0 -45 -33 -77zM368 881.5q-14 13.5 -34 13.5t-33 -13.5t-13 -33.5t13 -33t33 -13t34 13t14 33t-14 33.5zM204 14.5q-58 29.5 -91 87.5t-33 140v467h97v-464q0 -81 41.5 -125t116.5 -44
t116 44t41 125v464h98v-467q0 -82 -33 -140t-91 -87.5t-131 -29.5t-131 29.5z" />
    <glyph glyph-name="uring" unicode="&#x16f;" horiz-adv-x="566" 
d="M359 564q-33 -32 -79 -32q-45 0 -78 32t-33 77t33 77.5t78 32.5q46 0 79 -32t33 -78q0 -45 -33 -77zM314 675.5q-14 14.5 -35 14.5q-20 0 -33.5 -14.5t-13.5 -34.5t13.5 -34t33.5 -14q21 0 35 14t14 34t-14 34.5zM339 3.5q-39 -18.5 -84 -18.5q-55 0 -95.5 25.5
t-62.5 69.5t-22 98v303h94v-289q0 -55 26.5 -89.5t82.5 -34.5t85 33.5t29 89.5v290h94v-392q0 -61 5 -89h-90q-4 15 -4 58q-19 -36 -58 -54.5z" />
    <glyph glyph-name="Uhungarumlaut" unicode="&#x170;" horiz-adv-x="670" 
d="M215 759l61 119h105l-96 -119h-70zM356 759l71 119h105l-106 -119h-70zM204 14.5q-58 29.5 -91 87.5t-33 140v467h97v-464q0 -81 41.5 -125t116.5 -44t116 44t41 125v464h98v-467q0 -82 -33 -140t-91 -87.5t-131 -29.5t-131 29.5z" />
    <glyph glyph-name="uhungarumlaut" unicode="&#x171;" horiz-adv-x="566" 
d="M166 543l51 146h105l-90 -146h-66zM297 543l61 146h105l-100 -146h-66zM339 3.5q-39 -18.5 -84 -18.5q-55 0 -95.5 25.5t-62.5 69.5t-22 98v303h94v-289q0 -55 26.5 -89.5t82.5 -34.5t85 33.5t29 89.5v290h94v-392q0 -61 5 -89h-90q-4 15 -4 58q-19 -36 -58 -54.5z" />
    <glyph glyph-name="Uogonek" unicode="&#x172;" horiz-adv-x="670" 
d="M317 -14q-68 3 -121.5 34t-84.5 88t-31 134v467h97v-464q0 -81 41.5 -125t116.5 -44t116 44t41 125v464h98v-467q0 -94 -42.5 -155.5t-116.5 -86.5q-37 -19 -61 -41.5t-24 -55.5q0 -24 15 -35.5t38 -11.5q21 0 32 4v-68q-21 -8 -50 -8q-48 0 -81.5 27.5t-33.5 73.5
q0 59 51 101z" />
    <glyph glyph-name="uogonek" unicode="&#x173;" horiz-adv-x="566" 
d="M401 2q-4 16 -4 56q-19 -36 -58 -54.5t-84 -18.5q-55 0 -95.5 25.5t-62.5 69.5t-22 98v303h94v-289q0 -55 26.5 -89.5t82.5 -34.5t85 33.5t29 89.5v290h94v-392q0 -61 5 -89q-37 -19 -61 -41.5t-24 -55.5q0 -24 15 -35.5t38 -11.5q21 0 32 4v-68q-21 -8 -50 -8
q-48 0 -81.5 27.5t-33.5 73.5q0 73 75 117z" />
    <glyph glyph-name="Wcircumflex" unicode="&#x174;" horiz-adv-x="1004" 
d="M440 878h120l117 -119h-92l-85 64l-81 -64h-91zM989 709l-202 -709h-101l-185 575l-183 -575h-98l-205 709h101l156 -555l178 555h103l182 -561l153 561h101z" />
    <glyph glyph-name="wcircumflex" unicode="&#x175;" horiz-adv-x="793" 
d="M344 684h107l104 -139h-88l-70 81l-70 -81h-87zM573 119l106 362h99l-156 -481h-97l-128 366l-125 -366h-99l-158 481h103l108 -362l125 362h97z" />
    <glyph glyph-name="Ycircumflex" unicode="&#x176;" horiz-adv-x="618" 
d="M247 878h120l117 -119h-92l-85 64l-81 -64h-91zM128 709l184 -316l184 316h112l-250 -406v-303h-98v303l-250 406h118z" />
    <glyph glyph-name="ycircumflex" unicode="&#x177;" horiz-adv-x="523" 
d="M207 684h107l104 -139h-88l-70 81l-70 -81h-87zM217 53l-207 428h108l150 -332l144 332h101l-313 -682h-103z" />
    <glyph glyph-name="Ydieresis" unicode="&#x178;" horiz-adv-x="618" 
d="M152 861q17 17 42 17t42 -17t17 -42t-17 -42t-42 -17t-42 17t-17 42t17 42zM383 861q17 17 42 17t42 -17t17 -42t-17 -42t-42 -17t-42 17t-17 42t17 42zM128 709l184 -316l184 316h112l-250 -406v-303h-98v303l-250 406h118z" />
    <glyph glyph-name="Zacute" unicode="&#x179;" horiz-adv-x="632" 
d="M245 759l101 119h130l-137 -119h-94zM45 98l423 520h-413v91h532v-95l-425 -522h430v-92h-547v98z" />
    <glyph glyph-name="zacute" unicode="&#x17a;" horiz-adv-x="466" 
d="M170 543l87 146h118l-126 -146h-79zM40 82l264 314h-260v85h377v-82l-264 -314h269v-85h-386v82z" />
    <glyph glyph-name="Zdotaccent" unicode="&#x17b;" horiz-adv-x="632" 
d="M274.5 863q18.5 19 44.5 19t45 -19t19 -45t-19 -44.5t-45 -18.5t-44.5 18.5t-18.5 44.5t18.5 45zM45 98l423 520h-413v91h532v-95l-425 -522h430v-92h-547v98z" />
    <glyph glyph-name="zdotaccent" unicode="&#x17c;" horiz-adv-x="466" 
d="M189 660q18 18 44 18t44 -18t18 -44t-18 -44t-44 -18t-44 18t-18 44t18 44zM40 82l264 314h-260v85h377v-82l-264 -314h269v-85h-386v82z" />
    <glyph glyph-name="Zcaron" unicode="&#x17d;" horiz-adv-x="632" 
d="M321 814l85 64h92l-117 -119h-120l-112 119h91zM45 98l423 520h-413v91h532v-95l-425 -522h430v-92h-547v98z" />
    <glyph glyph-name="zcaron" unicode="&#x17e;" horiz-adv-x="466" 
d="M235 606l70 81h88l-102 -142h-111l-102 142h87zM40 82l264 314h-260v85h377v-82l-264 -314h269v-85h-386v82z" />
    <glyph glyph-name="uni018F" unicode="&#x18f;" horiz-adv-x="794" 
d="M570.5 681q82.5 -43 130.5 -126.5t48 -200.5q0 -116 -49.5 -199.5t-130 -126.5t-172.5 -43t-172.5 41.5t-130 124.5t-49.5 200q0 13 1 24h602q-4 83 -40.5 141.5t-94 88t-125.5 29.5q-57 0 -108.5 -23t-87.5 -62t-49 -85l-88 32q18 62 67 114.5t118.5 83t147.5 30.5
q100 0 182.5 -43zM643 285h-496q4 -37 18 -67q29 -69 92 -106t140 -37q71 0 129.5 33.5t90.5 97.5q15 32 26 79z" />
    <glyph glyph-name="florin" unicode="&#x192;" horiz-adv-x="481" 
d="M87 398v83h127l23 113q13 71 59.5 108t105.5 37q28 0 43.5 -2t30.5 -8v-83q-26 7 -53 7q-35 0 -60 -18t-36 -74l-16 -80h129v-83h-146l-82 -411q-15 -72 -60.5 -108.5t-104.5 -36.5q-30 0 -46 2t-31 8v83q26 -7 56 -7q34 0 59.5 18.5t36.5 73.5l75 378h-110z" />
    <glyph glyph-name="uni01B5" unicode="&#x1b5;" horiz-adv-x="632" 
d="M45 98l187 230h-145v85h214l167 205h-413v91h532v-95l-164 -201h120v-85h-189l-192 -236h430v-92h-547v98z" />
    <glyph glyph-name="uni01B6" unicode="&#x1b6;" horiz-adv-x="466" 
d="M40 82l108 129h-99v76h163l92 109h-260v85h377v-82l-94 -112h87v-76h-151l-106 -126h269v-85h-386v82z" />
    <glyph glyph-name="Aringacute" unicode="&#x1fa;" horiz-adv-x="697" 
d="M300 902l101 119h130l-137 -119h-94zM447.5 709q-10.5 -22 -28.5 -37l268 -672h-106l-77 198h-314l-75 -198h-105l267 671q-42 34 -42 84q0 45 33 77.5t78 32.5q46 0 79 -32t33 -78q0 -24 -10.5 -46zM379 788.5q-14 13.5 -34 13.5t-33 -13.5t-13 -33.5t13 -33t33 -13
t34 13t14 33t-14 33.5zM469 289l-123 318l-121 -318h244z" />
    <glyph glyph-name="aringacute" unicode="&#x1fb;" horiz-adv-x="523" 
d="M218 779l87 146h118l-126 -146h-79zM340 559q-33 -32 -79 -32q-45 0 -78 32t-33 77t33 77.5t78 32.5q46 0 79 -32t33 -78q0 -45 -33 -77zM295 670.5q-14 14.5 -35 14.5q-20 0 -33.5 -14.5t-13.5 -34.5t13.5 -34t33.5 -14q21 0 35 14t14 34t-14 34.5zM89.5 228
q39.5 37 106.5 47l130 19q37 5 37 36q0 38 -26 62t-78 24q-48 0 -75.5 -26.5t-33.5 -70.5l-90 21q8 69 63 112.5t134 43.5q101 0 150.5 -50t49.5 -126v-241q0 -55 6 -79h-92q-5 20 -5 65q-20 -32 -58.5 -56t-96.5 -24q-47 0 -84 20t-57 53t-20 71q0 62 39.5 99zM325 98
q38 34 38 108v22l-147 -22q-32 -6 -51 -23.5t-19 -48.5q0 -28 21.5 -49t56.5 -21q63 0 101 34z" />
    <glyph glyph-name="AEacute" unicode="&#x1fc;" horiz-adv-x="1026" 
d="M505 759l101 119h130l-137 -119h-94zM535 196h-278l-126 -196h-126l472 709h489v-91h-333v-218h302v-92h-302v-217h333v-91h-431v196zM535 628l-222 -344h222v344z" />
    <glyph glyph-name="aeacute" unicode="&#x1fd;" horiz-adv-x="874" 
d="M393 543l87 146h118l-126 -146h-79zM751.5 28.5q-59.5 -43.5 -136.5 -43.5q-62 0 -114.5 27t-85.5 77q-59 -104 -193 -104q-53 0 -92 19.5t-59.5 52.5t-20.5 72q0 62 39.5 99t106.5 47l139 19q38 6 38 36q0 37 -29 62t-81 25q-49 0 -79 -27t-36 -67l-88 17
q4 46 34.5 81.5t76 55t92.5 19.5q60 0 103.5 -21.5t67.5 -58.5q32 38 76 59t93 21q109 0 170 -69t61 -183q0 -20 -2 -30h-362q2 -63 43.5 -104.5t101.5 -41.5q100 0 134 97l82 -28q-20 -65 -79.5 -108.5zM699.5 378.5q-34.5 34.5 -95.5 34.5q-37 0 -66.5 -17.5t-46 -46
t-18.5 -59.5h263q-2 54 -36.5 88.5zM330 98.5q43 34.5 43 106.5v23l-157 -22q-70 -11 -70 -74q0 -28 22.5 -48t60.5 -20q58 0 101 34.5z" />
    <glyph glyph-name="Oslashacute" unicode="&#x1fe;" horiz-adv-x="802" 
d="M351 759l101 119h130l-137 -119h-94zM95.5 552q50.5 84 132 128t173.5 44q104 0 191 -55l72 92l68 -52l-73 -94q98 -103 98 -260q0 -114 -50.5 -198t-132 -128t-173.5 -44q-103 0 -189 53l-68 -89l-70 51l71 92q-100 105 -100 263q0 113 50.5 197zM204 167l332 429
q-62 38 -135 38q-68 0 -126.5 -32t-94 -95t-35.5 -152q0 -113 59 -188zM600 539l-332 -429q58 -35 133 -35q68 0 126.5 32.5t94 95.5t35.5 152q0 107 -57 184z" />
    <glyph glyph-name="oslashacute" unicode="&#x1ff;" horiz-adv-x="572" 
d="M247 543l87 146h118l-126 -146h-79zM411 464l50 65l60 -48l-51 -66q30 -34 46 -78.5t16 -95.5q0 -73 -31.5 -131.5t-87.5 -91.5t-127 -33q-67 0 -124 31l-49 -63l-60 48l49 64q-62 72 -62 176q0 72 31.5 130.5t87.5 91.5t127 33q67 0 125 -32zM161 140l196 254
q-33 18 -71 18q-41 0 -75 -20t-54.5 -58.5t-20.5 -92.5q0 -56 25 -101zM361 89q34 20 54.5 59t20.5 93q0 56 -24 99l-196 -254q31 -17 70 -17q41 0 75 20z" />
    <glyph glyph-name="Scommaaccent" unicode="&#x218;" horiz-adv-x="593" 
d="M409 601q-38 37 -105 37q-60 0 -98.5 -33.5t-38.5 -84.5q0 -39 23.5 -66t67.5 -37l106 -23q89 -20 136.5 -72t47.5 -127q0 -55 -30.5 -103.5t-86 -77.5t-128.5 -29q-81 0 -138.5 30.5t-88.5 78.5t-38 102l94 30q6 -65 50 -108.5t120 -43.5q70 0 108 31.5t38 81.5
q0 40 -27 69.5t-79 40.5l-101 22q-79 18 -126 67.5t-47 126.5q0 55 31 103.5t85 78t118 29.5q108 0 166.5 -53t73.5 -123l-88 -31q-7 47 -45 84zM265.5 -50.5q17.5 14.5 41.5 14.5q25 0 45 -18.5t20 -54.5q0 -54 -34.5 -83t-79.5 -29v40q25 0 44 14.5t21 33.5q-2 -2 -8 -4
t-13 -2q-24 0 -39 13t-15 38q0 23 17.5 37.5z" />
    <glyph glyph-name="scommaaccent" unicode="&#x219;" horiz-adv-x="452" 
d="M154.5 90q28.5 -25 77.5 -25q38 0 60 18.5t22 45.5q0 23 -16 39t-46 23l-82 18q-57 12 -88.5 48t-31.5 87q0 41 23 76t62.5 55.5t85.5 20.5q87 0 129 -40.5t54 -88.5l-83 -31q-19 80 -100 80q-35 0 -57.5 -19t-22.5 -45q0 -46 55 -58l78 -17q65 -14 99 -51t34 -92
q0 -36 -20 -70.5t-60 -56.5t-96 -22q-61 0 -104 22t-65 54t-27 64l85 30q6 -40 34.5 -65zM186.5 -50.5q17.5 14.5 41.5 14.5q25 0 45 -18.5t20 -54.5q0 -54 -34.5 -83t-79.5 -29v40q25 0 44 14.5t21 33.5q-2 -2 -8 -4t-13 -2q-24 0 -39 13t-15 38q0 23 17.5 37.5z" />
    <glyph glyph-name="uni021A" unicode="&#x21a;" horiz-adv-x="592" 
d="M345 0h-98v618h-237v91h572v-91h-237v-618zM250.5 -50.5q17.5 14.5 41.5 14.5q25 0 45 -18.5t20 -54.5q0 -54 -34.5 -83t-79.5 -29v40q25 0 44 14.5t21 33.5q-2 -2 -8 -4t-13 -2q-24 0 -39 13t-15 38q0 23 17.5 37.5z" />
    <glyph glyph-name="uni021B" unicode="&#x21b;" horiz-adv-x="355" 
d="M310 481v-85h-104v-250q0 -34 15.5 -50t51.5 -16q26 0 37 4v-80q-24 -9 -64 -9q-63 0 -98.5 36t-35.5 101v264h-92v85h26q37 0 55.5 20t18.5 54v78h86v-152h104zM163.5 -50.5q17.5 14.5 41.5 14.5q25 0 45 -18.5t20 -54.5q0 -54 -34.5 -83t-79.5 -29v40q25 0 44 14.5
t21 33.5q-2 -2 -8.5 -4t-12.5 -2q-24 0 -39 13t-15 38q0 23 17.5 37.5z" />
    <glyph glyph-name="uni0237" unicode="&#x237;" horiz-adv-x="254" 
d="M174 481v-537q0 -67 -35.5 -108t-97.5 -41q-40 0 -56 7v78q10 -2 30 -2q35 0 50 17.5t15 52.5v533h94z" />
    <glyph glyph-name="uni0259" unicode="&#x259;" horiz-adv-x="546" 
d="M126.5 453q60.5 43 140.5 43q73 0 127 -32t83 -90.5t29 -134.5q0 -74 -31 -132t-83.5 -90t-115.5 -32q-72 0 -125 31t-82 87.5t-29 130.5v8q0 12 2 22h367q-2 65 -40.5 107t-101.5 42q-54 0 -91 -27t-52 -69l-79 28q21 65 81.5 108zM178 101.5q36 -33.5 97 -33.5
q57 0 92 35t39 85h-266q2 -53 38 -86.5z" />
    <glyph glyph-name="circumflex" unicode="&#x2c6;" horiz-adv-x="385" 
d="M139 684h107l104 -139h-88l-70 81l-70 -81h-87z" />
    <glyph glyph-name="caron" unicode="&#x2c7;" horiz-adv-x="385" 
d="M192 606l70 81h88l-102 -142h-111l-102 142h87z" />
    <glyph glyph-name="uni02C9" unicode="&#x2c9;" horiz-adv-x="343" 
d="M35 658h273v-81h-273v81z" />
    <glyph glyph-name="breve" unicode="&#x2d8;" horiz-adv-x="362" 
d="M103.5 565q-33.5 20 -51 52.5t-17.5 69.5h73q1 -26 19.5 -45.5t53.5 -19.5t52.5 19t20.5 46h73q0 -37 -17 -69.5t-50 -52.5t-79 -20q-44 0 -77.5 20z" />
    <glyph glyph-name="dotaccent" unicode="&#x2d9;" horiz-adv-x="174" 
d="M43 660q18 18 44 18t44 -18t18 -44t-18 -44t-44 -18t-44 18t-18 44t18 44z" />
    <glyph glyph-name="ring" unicode="&#x2da;" horiz-adv-x="293" 
d="M225 564q-33 -32 -79 -32q-45 0 -78 32t-33 77t33 77.5t78 32.5q46 0 79 -32t33 -78q0 -45 -33 -77zM180 675.5q-14 14.5 -35 14.5q-20 0 -33.5 -14.5t-13.5 -34.5t13.5 -34t33.5 -14q21 0 35 14t14 34t-14 34.5z" />
    <glyph glyph-name="ogonek" unicode="&#x2db;" horiz-adv-x="233" 
d="M62 -35q29 30 73 51l63 -16q-37 -19 -61 -41.5t-24 -55.5q0 -24 15 -35.5t38 -11.5q21 0 32 4v-68q-21 -8 -50 -8q-48 0 -81.5 27.5t-33.5 73.5q0 50 29 80z" />
    <glyph glyph-name="tilde" unicode="&#x2dc;" horiz-adv-x="377" 
d="M319.5 580.5q-26.5 -27.5 -70.5 -27.5q-31 0 -66 22l-14 9q-23 14 -37 14q-15 0 -22 -9.5t-7 -33.5h-72v15q0 54 27 81.5t71 27.5q32 0 67 -22l14 -9q12 -7 19.5 -10.5t16.5 -3.5q15 0 22 9.5t7 33.5h71v-15q0 -54 -26.5 -81.5z" />
    <glyph glyph-name="hungarumlaut" unicode="&#x2dd;" horiz-adv-x="367" 
d="M35 543l51 146h105l-90 -146h-66zM166 543l61 146h105l-100 -146h-66z" />
    <glyph glyph-name="uni0394" unicode="&#x394;" horiz-adv-x="662" 
d="M383 709l279 -709h-662l278 709h105zM522 90l-193 507l-190 -507h383z" />
    <glyph glyph-name="uni03A9" unicode="&#x3a9;" horiz-adv-x="796" 
d="M276 607q-58 -29 -94.5 -85.5t-36.5 -133.5q0 -69 30.5 -123t79 -88t100.5 -45v-132h-305v88h202q-54 20 -101 61.5t-76.5 102.5t-29.5 135q0 102 49 178.5t130 117.5t174 41t174 -41t130 -117.5t49 -178.5q0 -73 -29.5 -134.5t-77 -103.5t-101.5 -61h203v-88h-305v132
q52 11 100.5 45t79 88t30.5 123q0 77 -36.5 133.5t-94.5 85.5t-122 29t-122 -29z" />
    <glyph glyph-name="uni03BC" unicode="&#x3bc;" horiz-adv-x="571" 
d="M344 3.5q-39 -18.5 -84 -18.5q-46 0 -86 20v-195h-94v671h94v-289q0 -55 26.5 -89.5t82.5 -34.5t85 33.5t29 89.5v290h94v-392q0 -67 5 -89h-90q-4 15 -4 58q-19 -36 -58 -54.5z" />
    <glyph glyph-name="pi" unicode="&#x3c0;" horiz-adv-x="615" 
d="M504 -7q-58 0 -88 34.5t-30 84.5v287h-165v-399h-94v399h-82v82h518v-82h-83v-277q0 -49 54 -49q16 0 31 4v-72q-29 -12 -61 -12z" />
    <glyph glyph-name="Wgrave" unicode="&#x1e80;" horiz-adv-x="1004" 
d="M449 878l102 -119h-93l-138 119h129zM989 709l-202 -709h-101l-185 575l-183 -575h-98l-205 709h101l156 -555l178 555h103l182 -561l153 561h101z" />
    <glyph glyph-name="wgrave" unicode="&#x1e81;" horiz-adv-x="793" 
d="M352 689l86 -146h-78l-126 146h118zM573 119l106 362h99l-156 -481h-97l-128 366l-125 -366h-99l-158 481h103l108 -362l125 362h97z" />
    <glyph glyph-name="Wacute" unicode="&#x1e82;" horiz-adv-x="1004" 
d="M455 759l101 119h130l-137 -119h-94zM989 709l-202 -709h-101l-185 575l-183 -575h-98l-205 709h101l156 -555l178 555h103l182 -561l153 561h101z" />
    <glyph glyph-name="wacute" unicode="&#x1e83;" horiz-adv-x="793" 
d="M358 543l87 146h118l-126 -146h-79zM573 119l106 362h99l-156 -481h-97l-128 366l-125 -366h-99l-158 481h103l108 -362l125 362h97z" />
    <glyph glyph-name="Wdieresis" unicode="&#x1e84;" horiz-adv-x="1004" 
d="M315 861q17 17 42 17t42 -17t17 -42t-17 -42t-42 -17t-42 17t-17 42t17 42zM606 861q17 17 42 17t42 -17t17 -42t-17 -42t-42 -17t-42 17t-17 42t17 42zM989 709l-202 -709h-101l-185 575l-183 -575h-98l-205 709h101l156 -555l178 555h103l182 -561l153 561h101z" />
    <glyph glyph-name="wdieresis" unicode="&#x1e85;" horiz-adv-x="793" 
d="M241.5 662q16.5 17 40.5 17q25 0 42 -17t17 -41q0 -25 -17 -41.5t-42 -16.5q-24 0 -40.5 16.5t-16.5 41.5q0 24 16.5 41zM468.5 662q16.5 17 41.5 17q24 0 41 -17t17 -41q0 -25 -17 -41.5t-41 -16.5q-25 0 -41.5 16.5t-16.5 41.5q0 24 16.5 41zM573 119l106 362h99
l-156 -481h-97l-128 366l-125 -366h-99l-158 481h103l108 -362l125 362h97z" />
    <glyph glyph-name="uni1E8A" unicode="&#x1e8a;" horiz-adv-x="617" 
d="M264.5 863q18.5 19 44.5 19t45 -19t19 -45t-19 -44.5t-45 -18.5t-44.5 18.5t-18.5 44.5t18.5 45zM604 0h-117l-179 277l-183 -277h-115l242 355l-240 354h118l179 -278l182 278h116l-241 -354z" />
    <glyph glyph-name="uni1E8B" unicode="&#x1e8b;" horiz-adv-x="491" 
d="M202 660q18 18 44 18t44 -18t18 -44t-18 -44t-44 -18t-44 18t-18 44t18 44zM16 481h114l118 -169l116 169h111l-171 -236q30 -42 89 -122l88 -123h-113l-124 177l-122 -177h-112l179 245z" />
    <glyph glyph-name="Ygrave" unicode="&#x1ef2;" horiz-adv-x="618" 
d="M266 878l102 -119h-93l-138 119h129zM128 709l184 -316l184 316h112l-250 -406v-303h-98v303l-250 406h118z" />
    <glyph glyph-name="ygrave" unicode="&#x1ef3;" horiz-adv-x="523" 
d="M234 689l86 -146h-78l-126 146h118zM217 53l-207 428h108l150 -332l144 332h101l-313 -682h-103z" />
    <glyph glyph-name="uni2007" unicode="&#x2007;" horiz-adv-x="667" 
 />
    <glyph glyph-name="uni2008" unicode="&#x2008;" horiz-adv-x="279" 
 />
    <glyph glyph-name="uni200B" unicode="&#x200b;" horiz-adv-x="0" 
 />
    <glyph glyph-name="endash" unicode="&#x2013;" horiz-adv-x="642" 
d="M65 328h512v-82h-512v82z" />
    <glyph glyph-name="emdash" unicode="&#x2014;" horiz-adv-x="1103" 
d="M75 328h953v-82h-953v82z" />
    <glyph glyph-name="quoteleft" unicode="&#x2018;" horiz-adv-x="218" 
d="M159.5 472.5q-18.5 -17.5 -46.5 -17.5q-31 0 -52 22t-21 63q0 55 20.5 93.5t51 58.5t61.5 23v-47q-32 -8 -53 -36.5t-22 -60.5q5 5 20 5q26 0 43 -16.5t17 -44.5q0 -25 -18.5 -42.5z" />
    <glyph glyph-name="quoteright" unicode="&#x2019;" horiz-adv-x="224" 
d="M59.5 699.5q19.5 18.5 48.5 18.5q32 0 54 -23t22 -65q0 -58 -21 -97.5t-52.5 -59.5t-64.5 -25v48q33 8 54.5 37t22.5 64q-5 -5 -20 -5q-27 0 -45 17.5t-18 46.5q0 25 19.5 43.5z" />
    <glyph glyph-name="quotesinglbase" unicode="&#x201a;" horiz-adv-x="224" 
d="M59.5 104.5q19.5 18.5 48.5 18.5q32 0 54 -23t22 -65q0 -58 -21 -97.5t-52.5 -59.5t-64.5 -25v48q33 8 54.5 37t22.5 64q-5 -5 -20 -5q-27 0 -45 17.5t-18 46.5q0 25 19.5 43.5z" />
    <glyph glyph-name="quotedblleft" unicode="&#x201c;" horiz-adv-x="389" 
d="M159.5 477.5q-18.5 -17.5 -46.5 -17.5q-31 0 -52 22t-21 63q0 55 20.5 93.5t51 58.5t61.5 23v-47q-32 -8 -53 -36.5t-22 -60.5q5 5 20 5q26 0 43 -16.5t17 -44.5q0 -25 -18.5 -42.5zM330.5 477.5q-18.5 -17.5 -46.5 -17.5q-31 0 -52 22t-21 63q0 55 20.5 93.5t51 58.5
t61.5 23v-47q-32 -8 -53 -36.5t-22 -60.5q5 5 20 5q26 0 43 -16.5t17 -44.5q0 -25 -18.5 -42.5z" />
    <glyph glyph-name="quotedblright" unicode="&#x201d;" horiz-adv-x="389" 
d="M58.5 697.5q18.5 17.5 46.5 17.5q31 0 52 -22t21 -63q0 -55 -20.5 -93t-51 -58t-61.5 -24v47q32 8 53.5 36t21.5 61q-5 -5 -20 -5q-26 0 -43 16.5t-17 44.5q0 25 18.5 42.5zM229.5 697.5q18.5 17.5 46.5 17.5q31 0 52 -22t21 -63q0 -55 -20.5 -93t-51 -58t-61.5 -24v47
q32 8 53.5 36t21.5 61q-5 -5 -20 -5q-26 0 -43 16.5t-17 44.5q0 25 18.5 42.5z" />
    <glyph glyph-name="quotedblbase" unicode="&#x201e;" horiz-adv-x="389" 
d="M58.5 100.5q18.5 17.5 46.5 17.5q31 0 52 -22t21 -63q0 -55 -20.5 -93t-51 -58t-61.5 -24v47q32 8 53.5 36t21.5 61q-5 -5 -20 -5q-26 0 -43 16.5t-17 44.5q0 25 18.5 42.5zM229.5 100.5q18.5 17.5 46.5 17.5q31 0 52 -22t21 -63q0 -55 -20.5 -93t-51 -58t-61.5 -24v47
q32 8 53.5 36t21.5 61q-5 -5 -20 -5q-26 0 -43 16.5t-17 44.5q0 25 18.5 42.5z" />
    <glyph glyph-name="dagger" unicode="&#x2020;" horiz-adv-x="386" 
d="M152 479h-127v81h127v149h82v-149h127v-81h-127v-317h-82v317z" />
    <glyph glyph-name="daggerdbl" unicode="&#x2021;" horiz-adv-x="874" 
d="M347 14q-42 -27 -95 -27q-45 0 -81 20.5t-56.5 57t-20.5 81.5q0 27 8.5 50.5t25.5 59.5l167 343q28 58 59 90.5t83 32.5t83.5 -33t58.5 -90l167 -343q17 -36 25.5 -59.5t8.5 -50.5q0 -45 -20.5 -81.5t-56.5 -57t-81 -20.5q-53 0 -95 27t-90 75q-48 -48 -90 -75z
M528 418.5q35 -35.5 35 -89.5q0 -49 -28 -103t-67 -101q36 -39 74.5 -65t79.5 -26q47 0 79 32t32 80q0 20 -7 39t-22 50l-167 344q-22 46 -43 71t-57 25t-57 -25t-43 -71l-167 -344q-15 -31 -22 -50t-7 -39q0 -48 32 -80t79 -32q41 0 79.5 26t74.5 65q-39 47 -67 101
t-28 103q0 54 35 89.5t91 35.5t91 -35.5zM516 329q0 33 -22 55.5t-57 22.5t-57 -22.5t-22 -55.5q0 -67 79 -169q79 102 79 169z" />
    <glyph glyph-name="bullet" unicode="&#x2022;" horiz-adv-x="554" 
d="M98 393.5q28 47.5 75.5 75.5t103.5 28t103.5 -28t75.5 -75.5t28 -104.5q0 -56 -28 -103.5t-75.5 -75.5t-103.5 -28t-103.5 28t-75.5 75.5t-28 103.5q0 57 28 104.5z" />
    <glyph glyph-name="ellipsis" unicode="&#x2026;" horiz-adv-x="932" 
d="M200.5 13.5q-18.5 -18.5 -45.5 -18.5t-46 18.5t-19 45.5t19 46t46 19t45.5 -19t18.5 -46t-18.5 -45.5zM511.5 13.5q-18.5 -18.5 -45.5 -18.5t-46 18.5t-19 45.5t19 46t46 19t45.5 -19t18.5 -46t-18.5 -45.5zM823.5 13.5q-18.5 -18.5 -45.5 -18.5t-46 18.5t-19 45.5t19 46
t46 19t45.5 -19t18.5 -46t-18.5 -45.5z" />
    <glyph glyph-name="perthousand" unicode="&#x2030;" horiz-adv-x="1139" 
d="M86 633q24 39 63.5 61.5t85.5 22.5t86 -22.5t64.5 -61.5t24.5 -85q0 -47 -24.5 -86t-64.5 -62t-86 -23t-85.5 22.5t-63.5 62t-24 86.5q0 46 24 85zM655 709h92l-507 -709h-95zM174 485q25 -25 61 -25q37 0 62 25t25 63t-25 62.5t-62 24.5q-36 0 -61 -24.5t-25 -62.5
t25 -63zM509.5 249q23.5 39 63.5 61.5t85 22.5q39 0 73 -17.5t56 -48.5q22 31 55 48.5t74 17.5q46 0 86 -22.5t64 -61.5t24 -85q0 -47 -24 -86.5t-64 -62.5t-86 -23q-40 0 -73.5 17t-55.5 48q-22 -30 -56 -47.5t-73 -17.5q-46 0 -85.5 22.5t-63 62t-23.5 87.5q0 46 23.5 85z
M597 100q25 -25 61 -25q37 0 61.5 25t24.5 64q0 38 -24.5 62.5t-61.5 24.5q-36 0 -61 -24.5t-25 -62.5q0 -39 25 -64zM855 100q25 -25 61 -25q37 0 61.5 25t24.5 64q0 38 -24.5 62.5t-61.5 24.5q-36 0 -61 -24.5t-25 -62.5q0 -39 25 -64z" />
    <glyph glyph-name="guilsinglleft" unicode="&#x2039;" horiz-adv-x="276" 
d="M30 290l133 191h93l-131 -191l131 -191h-93z" />
    <glyph glyph-name="guilsinglright" unicode="&#x203a;" horiz-adv-x="276" 
d="M151 290l-131 191h93l133 -191l-133 -191h-93z" />
    <glyph glyph-name="uni2042" unicode="&#x2042;" horiz-adv-x="835" 
d="M564 626l20 -65l-111 -36l74 -95l-55 -41l-75 98l-70 -97l-55 41l71 94l-112 36l21 65l110 -38v121h71v-121zM348 229l20 -65l-111 -36l74 -95l-55 -41l-75 98l-70 -97l-55 41l71 94l-112 36l21 65l110 -38v121h71v-121zM780 229l20 -65l-111 -36l74 -95l-55 -41l-75 98
l-70 -97l-55 41l71 94l-112 36l21 65l110 -38v121h71v-121z" />
    <glyph glyph-name="fraction" unicode="&#x2044;" horiz-adv-x="599" 
d="M509 709h90l-507 -709h-92z" />
    <glyph glyph-name="uni2051" unicode="&#x2051;" horiz-adv-x="423" 
d="M358 626l20 -65l-111 -36l74 -95l-55 -41l-75 98l-70 -97l-55 41l71 94l-112 36l21 65l110 -38v121h71v-121zM358 229l20 -65l-111 -36l74 -95l-55 -41l-75 98l-70 -97l-55 41l71 94l-112 36l21 65l110 -38v121h71v-121z" />
    <glyph glyph-name="uni2070" unicode="&#x2070;" horiz-adv-x="426" 
d="M95 658q43 58 118 58t118 -58q35 -47 35 -132q0 -84 -35 -131q-43 -58 -118 -58t-118 58q-35 47 -35 131q0 85 35 132zM153.5 438q15.5 -35 59.5 -35t59.5 35t15.5 88q0 124 -75 124q-44 0 -59.5 -35t-15.5 -89q0 -53 15.5 -88z" />
    <glyph glyph-name="uni2074" unicode="&#x2074;" horiz-adv-x="446" 
d="M237 709h85v-228h64v-65h-64v-72h-77v72h-185v73zM134 481h111v139z" />
    <glyph glyph-name="uni2075" unicode="&#x2075;" horiz-adv-x="404" 
d="M152.5 417.5q19.5 -15.5 46.5 -15.5q30 0 48.5 16t18.5 45q0 30 -18.5 46t-48.5 16q-37 0 -64 -27l-64 24l49 187h204v-66h-154l-23 -86q27 28 73 28q56 0 90 -32t34 -87q0 -56 -38.5 -92.5t-106.5 -36.5q-52 0 -90.5 27.5t-48.5 64.5l66 30q7 -26 26.5 -41.5z" />
    <glyph glyph-name="uni2076" unicode="&#x2076;" horiz-adv-x="418" 
d="M260 654q-49 0 -82 -27t-41 -78q13 19 38 31t53 12q59 0 94.5 -33.5t35.5 -92.5q0 -56 -42 -92.5t-105 -36.5q-39 0 -73.5 18.5t-56 56t-21.5 92.5q0 64 25 112t69 74.5t100 26.5q25 0 48 -5t38 -14l-18 -57q-27 13 -62 13zM163.5 419q20.5 -17 48.5 -17t48 17t20 46
t-20 46t-48 17t-48.5 -17t-20.5 -46t20.5 -46z" />
    <glyph glyph-name="uni2077" unicode="&#x2077;" horiz-adv-x="417" 
d="M263 537q-48 -71 -60 -193h-82q11 122 75 224q29 45 61 75h-197v66h297v-69q-46 -32 -94 -103z" />
    <glyph glyph-name="uni2078" unicode="&#x2078;" horiz-adv-x="410" 
d="M98.5 367.5q-38.5 30.5 -38.5 77.5q0 27 18 50.5t50 35.5q-26 11 -41 33t-15 47q0 47 37.5 76t95.5 29t95.5 -29t37.5 -76q0 -25 -15 -47t-41 -33q32 -12 50 -35.5t18 -50.5q0 -47 -38.5 -77.5t-106.5 -30.5t-106.5 30.5zM246.5 574q15.5 13 15.5 35q0 21 -15 33t-42 12
t-42 -12t-15 -33q0 -22 15.5 -35t41.5 -13t41.5 13zM255 414q17 13 17 37q0 22 -17.5 36t-49.5 14t-49.5 -14t-17.5 -36q0 -24 17 -37t50 -13t50 13z" />
    <glyph glyph-name="uni2079" unicode="&#x2079;" horiz-adv-x="416" 
d="M158 402q51 0 84 25.5t39 77.5q-13 -19 -38 -31t-53 -12q-58 0 -94 34t-36 92q0 56 42 92.5t105 36.5q39 0 73 -18.5t55 -56t21 -92.5q0 -101 -53 -157t-139 -56q-25 0 -48 5t-38 14l18 59q27 -13 62 -13zM253 634.5q-20 17.5 -49 17.5q-28 0 -48 -17t-20 -47t20 -47
t48 -17q29 0 49 17.5t20 46.5t-20 46.5z" />
    <glyph glyph-name="uni2080" unicode="&#x2080;" horiz-adv-x="426" 
d="M95 242q43 58 118 58t118 -58q35 -47 35 -132q0 -84 -35 -131q-43 -58 -118 -58t-118 58q-35 47 -35 131q0 85 35 132zM153.5 22q15.5 -35 59.5 -35t59.5 35t15.5 88q0 124 -75 124q-44 0 -59.5 -35t-15.5 -89q0 -53 15.5 -88z" />
    <glyph glyph-name="uni2081" unicode="&#x2081;" horiz-adv-x="303" 
d="M136 173h-86v52q36 1 61.5 20.5t30.5 47.5h71v-365h-77v245z" />
    <glyph glyph-name="uni2082" unicode="&#x2082;" horiz-adv-x="389" 
d="M64 183q0 49 36 83t96 34q59 0 95 -33.5t36 -81.5q0 -66 -70 -110l-72 -45q-13 -10 -21 -18.5t-10 -18.5h175v-65h-268v13q0 94 85 145l60 37q43 25 43 63q0 21 -14.5 35.5t-39.5 14.5q-26 0 -41.5 -16t-15.5 -42q0 -17 3 -26h-74q-3 11 -3 31z" />
    <glyph glyph-name="uni2083" unicode="&#x2083;" horiz-adv-x="412" 
d="M244 229h-171v65h271v-63l-100 -80q46 -4 77 -32t31 -77q0 -51 -40.5 -86t-104.5 -35q-61 0 -99.5 30t-47.5 73l67 27q5 -29 26.5 -46.5t52.5 -17.5q30 0 49 15.5t19 39.5q0 28 -20 42t-48 14q-19 0 -28 -4l-29 56z" />
    <glyph glyph-name="uni2084" unicode="&#x2084;" horiz-adv-x="446" 
d="M237 293h85v-228h64v-65h-64v-72h-77v72h-185v73zM134 65h111v139z" />
    <glyph glyph-name="uni2085" unicode="&#x2085;" horiz-adv-x="404" 
d="M152.5 1.5q19.5 -15.5 46.5 -15.5q30 0 48.5 16t18.5 45q0 30 -18.5 46t-48.5 16q-37 0 -64 -27l-64 24l49 187h204v-66h-154l-23 -86q27 28 73 28q56 0 90 -32t34 -87q0 -56 -38.5 -92.5t-106.5 -36.5q-52 0 -90.5 27.5t-48.5 64.5l66 30q7 -26 26.5 -41.5z" />
    <glyph glyph-name="uni2086" unicode="&#x2086;" horiz-adv-x="418" 
d="M260 238q-49 0 -82 -27t-41 -78q13 19 38 31t53 12q59 0 94.5 -33.5t35.5 -92.5q0 -56 -42 -92.5t-105 -36.5q-39 0 -73.5 18.5t-56 56t-21.5 92.5q0 64 25 112t69 74.5t100 26.5q25 0 48 -5t38 -14l-18 -57q-27 13 -62 13zM163.5 3q20.5 -17 48.5 -17t48 17t20 46
t-20 46t-48 17t-48.5 -17t-20.5 -46t20.5 -46z" />
    <glyph glyph-name="uni2087" unicode="&#x2087;" horiz-adv-x="417" 
d="M263 121q-48 -71 -60 -193h-82q11 122 75 224q29 45 61 75h-197v66h297v-69q-46 -32 -94 -103z" />
    <glyph glyph-name="uni2088" unicode="&#x2088;" horiz-adv-x="410" 
d="M98.5 -48.5q-38.5 30.5 -38.5 77.5q0 27 18 50.5t50 35.5q-26 11 -41 33t-15 47q0 47 37.5 76t95.5 29t95.5 -29t37.5 -76q0 -25 -15 -47t-41 -33q32 -12 50 -35.5t18 -50.5q0 -47 -38.5 -77.5t-106.5 -30.5t-106.5 30.5zM246.5 158q15.5 13 15.5 35q0 21 -15 33t-42 12
t-42 -12t-15 -33q0 -22 15.5 -35t41.5 -13t41.5 13zM255 -2q17 13 17 37q0 22 -17.5 36t-49.5 14t-49.5 -14t-17.5 -36q0 -24 17 -37t50 -13t50 13z" />
    <glyph glyph-name="uni2089" unicode="&#x2089;" horiz-adv-x="416" 
d="M158 -14q51 0 84 25.5t39 77.5q-13 -19 -38 -31t-53 -12q-58 0 -94 34t-36 92q0 56 42 92.5t105 36.5q39 0 73 -18.5t55 -56t21 -92.5q0 -101 -53 -157t-139 -56q-25 0 -48 5t-38 14l18 59q27 -13 62 -13zM253 218.5q-20 17.5 -49 17.5q-28 0 -48 -17t-20 -47t20 -47
t48 -17q29 0 49 17.5t20 46.5t-20 46.5z" />
    <glyph glyph-name="Euro" unicode="&#x20ac;" horiz-adv-x="753" 
d="M507 -15q-70 0 -136 27t-117.5 80.5t-77.5 129.5h-104v84h87q-2 24 -2 49q0 22 2 46h-87v82h102q24 77 77.5 131.5t121.5 82t138 27.5q114 0 187 -52l-42 -77q-57 41 -145 41q-80 0 -142.5 -39t-93.5 -114h328l-42 -82h-304q-3 -19 -3 -46q0 -38 3 -49h263l-42 -84h-200
q29 -74 90.5 -112.5t138.5 -38.5q50 0 93 16t73 46l51 -70q-93 -78 -217 -78z" />
    <glyph glyph-name="uni2113" unicode="&#x2113;" horiz-adv-x="407" 
d="M59.5 266.5q20.5 6.5 43.5 17.5v222q0 73 36.5 115.5t97.5 42.5q64 0 99.5 -39t35.5 -111q0 -79 -46.5 -155.5t-128.5 -127.5v-71q0 -39 18 -58t49 -20q58 0 90 29v-85q-8 -11 -31.5 -21t-62.5 -10q-78 0 -117.5 44t-39.5 116v33q-41 -13 -68 -17v88q4 1 24.5 7.5z
M269 562.5q-9 15.5 -30 15.5q-19 0 -30.5 -17t-11.5 -54v-164q81 74 81 171q0 33 -9 48.5z" />
    <glyph glyph-name="trademark" unicode="&#x2122;" horiz-adv-x="859" 
d="M218 344h-76v297h-112v68h300v-68h-112v-297zM727 577l-101 -233h-59l-98 230v-230h-76v365h99l107 -254l107 254h93v-365h-72v233z" />
    <glyph glyph-name="uni2126" unicode="&#x2126;" horiz-adv-x="796" 
d="M276 607q-58 -29 -94.5 -85.5t-36.5 -133.5q0 -69 30.5 -123t79 -88t100.5 -45v-132h-305v88h202q-54 20 -101 61.5t-76.5 102.5t-29.5 135q0 102 49 178.5t130 117.5t174 41t174 -41t130 -117.5t49 -178.5q0 -73 -29.5 -134.5t-77 -103.5t-101.5 -61h203v-88h-305v132
q52 11 100.5 45t79 88t30.5 123q0 77 -36.5 133.5t-94.5 85.5t-122 29t-122 -29z" />
    <glyph glyph-name="uni2160" unicode="&#x2160;" horiz-adv-x="506" 
d="M301 560v-472h150v-88h-396v88h150v472h-150v88h396v-88h-150z" />
    <glyph glyph-name="uni2161" unicode="&#x2161;" horiz-adv-x="770" 
d="M55 0v88h140v472h-140v88h660v-88h-140v-472h140v-88h-660zM291 560v-472h188v472h-188z" />
    <glyph glyph-name="uni2162" unicode="&#x2162;" horiz-adv-x="1044" 
d="M55 0v88h140v472h-140v88h934v-88h-140v-472h140v-88h-934zM474 88v472h-183v-472h183zM570 560v-472h183v472h-183z" />
    <glyph glyph-name="uni2163" unicode="&#x2163;" horiz-adv-x="1006" 
d="M55 0v88h130v472h-130v88h895v-88h-115l-163 -472h279v-88h-896zM521 88l-160 472h-80v-472h240zM463 560l136 -419l137 419h-273z" />
    <glyph glyph-name="uni2164" unicode="&#x2164;" horiz-adv-x="803" 
d="M638 560l-163 -472h269v-88h-684v88h264l-160 472h-109v88h693v-88h-110zM266 560l136 -419l137 419h-273z" />
    <glyph glyph-name="uni2165" unicode="&#x2165;" horiz-adv-x="1006" 
d="M55 0v88h274l-160 472h-114v88h895v-88h-129v-472h130v-88h-896zM271 560l136 -419l137 419h-273zM725 88v472h-82l-163 -472h245z" />
    <glyph glyph-name="uni2166" unicode="&#x2166;" horiz-adv-x="1293" 
d="M55 0v88h273l-159 472h-114v88h1183v-88h-140v-472h140v-88h-1183zM271 560l135 -419l137 419h-272zM724 88v472h-82l-163 -472h245zM820 560v-472h182v472h-182z" />
    <glyph glyph-name="uni2167" unicode="&#x2167;" horiz-adv-x="1542" 
d="M55 0v88h270l-156 472h-114v88h1432v-88h-135v-472h135v-88h-1432zM271 560l131 -419l132 419h-263zM718 88v472h-84l-160 -472h244zM987 88v472h-173v-472h173zM1256 88v472h-173v-472h173z" />
    <glyph glyph-name="uni2168" unicode="&#x2168;" horiz-adv-x="976" 
d="M55 0v88h130v472h-130v88h865v-88h-105l-170 -243l161 -229h115v-88h-866zM281 560v-472h92l165 229l-171 243h-86zM706 560h-229l114 -168zM696 88l-106 155l-109 -155h215z" />
    <glyph glyph-name="uni2169" unicode="&#x2169;" horiz-adv-x="767" 
d="M606 560l-170 -243l161 -229h115v-88h-657v88h109l165 229l-171 243h-103v88h656v-88h-105zM497 560h-229l114 -168zM487 88l-106 155l-109 -155h215z" />
    <glyph glyph-name="uni216C" unicode="&#x216c;" horiz-adv-x="654" 
d="M55 0v88h130v472h-130v88h366v-88h-140v-472h222v193h96v-281h-544z" />
    <glyph glyph-name="uni216D" unicode="&#x216d;" horiz-adv-x="722" 
d="M571 0v67q-32 -40 -78.5 -60.5t-113.5 -20.5q-84 0 -158.5 40.5t-120 117.5t-45.5 181t46 181t120.5 117.5t157.5 40.5q126 0 190 -77v63h96v-226h-96q-8 71 -57 111.5t-133 40.5q-63 0 -114.5 -27.5t-82 -84t-30.5 -139.5t30.5 -139.5t82 -84t114.5 -27.5q62 0 104 23
t63.5 59t24.5 75h96v-231h-96z" />
    <glyph glyph-name="uni216E" unicode="&#x216e;" horiz-adv-x="735" 
d="M526.5 610.5q69.5 -37.5 111.5 -111t42 -176.5q0 -102 -42 -175t-113 -110.5t-155 -37.5h-315v88h135v472h-135v88h321q81 0 150.5 -37.5zM475 114q48 26 77.5 79t29.5 130q0 76 -28 129.5t-76.5 80.5t-107.5 27h-84v-472h86q55 0 103 26z" />
    <glyph glyph-name="uni216F" unicode="&#x216f;" horiz-adv-x="1069" 
d="M743 648h271v-88h-132v-472h132v-88h-325v88h99v428l-219 -516h-76l-217 516v-428h104v-88h-325v88h127v472h-127v88h266l210 -515z" />
    <glyph glyph-name="arrowleft" unicode="&#x2190;" horiz-adv-x="1026" 
d="M221 473v-144h735v-83h-735v-144l-221 185z" />
    <glyph glyph-name="arrowup" unicode="&#x2191;" horiz-adv-x="449" 
d="M281 555v-703h-83v703h-158l200 245l199 -245h-158z" />
    <glyph glyph-name="arrowright" unicode="&#x2192;" horiz-adv-x="1026" 
d="M730 245h-696v83h696v171l252 -212l-252 -211v169z" />
    <glyph glyph-name="arrowdown" unicode="&#x2193;" horiz-adv-x="449" 
d="M-1 90h169v696h83v-696h171l-212 -252z" />
    <glyph glyph-name="uni2196" unicode="&#x2196;" horiz-adv-x="874" 
d="M231 592l543 -542l-59 -58l-543 541l-117 -118v294h292z" />
    <glyph glyph-name="uni2197" unicode="&#x2197;" horiz-adv-x="773" 
d="M673 415l-118 118l-542 -541l-59 58l543 542l-116 117h292v-294z" />
    <glyph glyph-name="uni2198" unicode="&#x2198;" horiz-adv-x="874" 
d="M598 117l-543 542l59 58l542 -542l118 119v-294h-292z" />
    <glyph glyph-name="uni2199" unicode="&#x2199;" horiz-adv-x="764" 
d="M45 294l117 -119l543 542l59 -58l-543 -542l116 -117h-292v294z" />
    <glyph glyph-name="uni21A9" unicode="&#x21a9;" horiz-adv-x="833" 
d="M590 664q59 0 109 -27.5t79 -75.5t29 -106q0 -61 -30.5 -108.5t-81.5 -74t-109 -26.5h-367v-144l-221 185l221 186v-144h362q59 0 101.5 34t42.5 92t-42 92t-105 34h-180v83h192z" />
    <glyph glyph-name="uni21B0" unicode="&#x21b0;" horiz-adv-x="775" 
d="M271 724v-144h414v-580h-83v497h-331v-144l-221 185z" />
    <glyph glyph-name="uni21B1" unicode="&#x21b1;" horiz-adv-x="720" 
d="M35 580h464v144l221 -186l-221 -185v144h-381v-497h-83v580z" />
    <glyph glyph-name="uni21B2" unicode="&#x21b2;" horiz-adv-x="760" 
d="M675 129h-464v-144l-221 186l221 185v-144h381v497h83v-580z" />
    <glyph glyph-name="uni21B3" unicode="&#x21b3;" horiz-adv-x="840" 
d="M549 -15v144h-464v580h83v-497h381v144l221 -185z" />
    <glyph glyph-name="uni21B4" unicode="&#x21b4;" horiz-adv-x="814" 
d="M635 709v-504h144l-186 -221l-185 221h144v421h-497v83h580z" />
    <glyph glyph-name="uni21C6" unicode="&#x21c6;" horiz-adv-x="1106" 
d="M276 726v-144h755v-83h-755v-144l-221 185zM830 129h-755v83h755v144l221 -186l-221 -185v144z" />
    <glyph glyph-name="partialdiff" unicode="&#x2202;" horiz-adv-x="611" 
d="M179.5 631q-37.5 -7 -72.5 -24l-32 74q39 22 86.5 32.5t93.5 10.5q72 0 141 -32t117.5 -116t48.5 -228q0 -170 -71 -266.5t-204 -96.5q-64 0 -119 27t-88.5 80t-33.5 129q0 69 33 121.5t89.5 81t123.5 28.5q57 0 101.5 -16t69.5 -41q-9 124 -66 183.5t-150 59.5
q-30 0 -67.5 -7zM185 325q-43 -44 -43 -110q0 -44 21 -76.5t55.5 -49.5t73.5 -17q59 0 97.5 33t56.5 84t18 107q-26 35 -68 54t-90 19q-78 0 -121 -44z" />
    <glyph glyph-name="uni2206" unicode="&#x2206;" horiz-adv-x="662" 
d="M383 709l279 -709h-662l278 709h105zM522 90l-193 507l-190 -507h383z" />
    <glyph glyph-name="product" unicode="&#x220f;" horiz-adv-x="687" 
d="M502 622h-314v-622h-98v709h507v-709h-95v622z" />
    <glyph glyph-name="summation" unicode="&#x2211;" horiz-adv-x="567" 
d="M318 357l-273 266v86h497v-90h-365l269 -262l-278 -267h374v-90h-497v86z" />
    <glyph glyph-name="minus" unicode="&#x2212;" horiz-adv-x="533" 
d="M55 367h423v-79h-423v79z" />
    <glyph glyph-name="uni2215" unicode="&#x2215;" horiz-adv-x="404" 
d="M0 0l313 648h91l-313 -648h-91z" />
    <glyph glyph-name="uni2219" unicode="&#x2219;" horiz-adv-x="279" 
d="M90 333.5q20 20.5 49 20.5t49.5 -20.5t20.5 -49.5t-20.5 -49t-49.5 -20t-49 20t-20 49t20 49.5z" />
    <glyph glyph-name="radical" unicode="&#x221a;" horiz-adv-x="665" 
d="M315 0h-91l-189 529h108l127 -374l235 713h195v-88h-119z" />
    <glyph glyph-name="infinity" unicode="&#x221e;" horiz-adv-x="801" 
d="M308.5 188q-41.5 -26 -89.5 -26q-50 0 -89.5 21.5t-62 60t-22.5 86.5q0 47 22.5 86t62 61t89.5 22q99 0 183 -107q47 55 89 81t91 26q50 0 89.5 -22t62 -61t22.5 -86q0 -48 -22.5 -86.5t-62 -60t-89.5 -21.5q-99 0 -183 106q-49 -54 -90.5 -80zM153.5 393.5
q-25.5 -25.5 -25.5 -64.5t25.5 -64t67.5 -25q34 0 64.5 22t64.5 65q-40 48 -67 70t-62 22q-42 0 -67.5 -25.5zM647.5 265q25.5 25 25.5 64t-25.5 64.5t-67.5 25.5q-35 0 -61.5 -21t-67.5 -68q39 -47 66.5 -68.5t62.5 -21.5q42 0 67.5 25z" />
    <glyph glyph-name="integral" unicode="&#x222b;" horiz-adv-x="310" 
d="M151 667q42 42 117 42h37v-86h-30q-34 0 -53 -20t-19 -59v-585q0 -75 -40.5 -117t-114.5 -42h-43v86h31q33 0 53 21t20 60v584q0 74 42 116z" />
    <glyph glyph-name="approxequal" unicode="&#x2248;" horiz-adv-x="569" 
d="M469 362.5q-37 -21.5 -81 -21.5q-47 0 -100 30l-47 26q-32 17 -62 17q-52 0 -91 -45l-53 47q59 85 143 85q25 0 49.5 -7.5t53.5 -23.5l46 -25q35 -20 70 -20q48 0 86 44l51 -45q-28 -40 -65 -61.5zM469 168.5q-37 -21.5 -81 -21.5q-47 0 -100 30l-47 26q-32 17 -62 17
q-52 0 -91 -45l-53 47q59 85 143 85q25 0 49.5 -7.5t53.5 -23.5l46 -25q35 -20 70 -20q48 0 86 44l51 -45q-28 -40 -65 -61.5z" />
    <glyph glyph-name="notequal" unicode="&#x2260;" horiz-adv-x="593" 
d="M172 91h-96l74 100h-85v79h143l85 116h-228v77h285l73 99h96l-73 -99h82v-77h-139l-85 -116h224v-79h-282z" />
    <glyph glyph-name="lessequal" unicode="&#x2264;" horiz-adv-x="542" 
d="M477 575v-84l-307 -104l307 -104v-84l-412 145v85zM477 91h-412v79h412v-79z" />
    <glyph glyph-name="greaterequal" unicode="&#x2265;" horiz-adv-x="542" 
d="M65 199v84l307 104l-307 104v84l412 -146v-85zM477 91h-412v79h412v-79z" />
    <glyph glyph-name="dotmath" unicode="&#x22c5;" horiz-adv-x="279" 
d="M90 333.5q20 20.5 49 20.5t49.5 -20.5t20.5 -49.5t-20.5 -49t-49.5 -20t-49 20t-20 49t20 49.5z" />
    <glyph glyph-name="uni24C5" unicode="&#x24c5;" horiz-adv-x="821" 
d="M94 539.5q49 84.5 132.5 134.5t182.5 50q100 0 184 -50t133.5 -134.5t49.5 -184.5t-49.5 -185t-133.5 -135t-184 -50q-99 0 -182.5 50t-132.5 135t-49 185t49 184.5zM161 204q38 -68 103.5 -107t144.5 -39t144.5 39t103.5 107t38 151t-38 150.5t-103.5 106.5t-144.5 39
t-144.5 -39t-103.5 -106.5t-38 -150.5t38 -151zM363 157h-76v402h159q38 0 69 -17t49 -46.5t18 -65.5t-18 -65.5t-49 -46.5t-69 -17h-83v-144zM485.5 384q19.5 17 19.5 45q0 29 -19 46.5t-53 17.5h-70v-126h70q33 0 52.5 17z" />
    <glyph glyph-name="filledbox" unicode="&#x25a0;" horiz-adv-x="921" 
d="M811 709v-709h-701v709h701z" />
    <glyph glyph-name="uni25A1" unicode="&#x25a1;" horiz-adv-x="921" 
d="M110 709h701v-709h-701v709zM729 75v558h-537v-558h537z" />
    <glyph glyph-name="uni25AF" unicode="&#x25af;" horiz-adv-x="562" 
d="M482 709v-709h-402v709h402zM403 630h-244v-551h244v551z" />
    <glyph glyph-name="triagup" unicode="&#x25b2;" horiz-adv-x="837" 
d="M0 0l420 724l417 -724h-837z" />
    <glyph glyph-name="uni25B3" unicode="&#x25b3;" horiz-adv-x="837" 
d="M0 0l420 724l417 -724h-837zM140 75h556l-277 486z" />
    <glyph glyph-name="lozenge" unicode="&#x25ca;" horiz-adv-x="556" 
d="M319 709l202 -355l-202 -354h-82l-202 354l202 355h82zM418 354l-140 243l-141 -243l141 -242z" />
    <glyph glyph-name="circle" unicode="&#x25cb;" horiz-adv-x="831" 
d="M94.5 540q49.5 85 134.5 135t186 50t186 -50t135 -135t50 -186t-50 -186t-135 -134.5t-186 -49.5t-186 49.5t-134.5 134.5t-49.5 186t49.5 186zM167 207q38 -67 103.5 -105.5t144.5 -38.5t144.5 38.5t103.5 105.5t38 147t-38 147t-103.5 105.5t-144.5 38.5t-144.5 -38.5
t-103.5 -105.5t-38 -147t38 -147z" />
    <glyph glyph-name="uni25CF" unicode="&#x25cf;" horiz-adv-x="831" 
d="M94.5 540q49.5 85 134.5 135t186 50t186 -50t135 -135t50 -186t-50 -186t-135 -134.5t-186 -49.5t-186 49.5t-134.5 134.5t-49.5 186t49.5 186z" />
    <glyph glyph-name="uni262E" unicode="&#x262e;" horiz-adv-x="821" 
d="M726.5 170q-49.5 -85 -133.5 -135t-184 -50q-99 0 -182.5 50t-132.5 135t-49 185t49 184.5t132.5 134.5t182.5 50q100 0 184 -50t133.5 -134.5t49.5 -184.5t-49.5 -185zM162 203l205 205v240q-70 -10 -125.5 -50.5t-87 -103.5t-31.5 -139q0 -83 39 -152zM663 493.5
q-32 63.5 -88.5 104t-125.5 50.5v-240l206 -207q40 72 40 154q0 75 -32 138.5zM367 61v231l-155 -155q64 -64 155 -76zM604 136l-155 156v-231q87 12 155 75z" />
    <glyph glyph-name="uni2713" unicode="&#x2713;" horiz-adv-x="970" 
d="M25 298l60 57l226 -247l574 621l60 -59l-638 -687z" />
    <glyph glyph-name="uni2715" unicode="&#x2715;" horiz-adv-x="756" 
d="M84 -5l-59 59l294 301l-293 300l60 59l292 -299l292 299l60 -59l-294 -300l295 -301l-59 -59l-294 300z" />
    <glyph glyph-name="uni2780" unicode="&#x2780;" horiz-adv-x="821" 
d="M94 539.5q49 84.5 132.5 134.5t182.5 50q100 0 184 -50t133.5 -134.5t49.5 -184.5t-49.5 -185t-133.5 -135t-184 -50q-99 0 -182.5 50t-132.5 135t-49 185t49 184.5zM161 204q38 -68 103.5 -107t144.5 -39t144.5 39t103.5 107t38 151t-38 150.5t-103.5 106.5t-144.5 39
t-144.5 -39t-103.5 -106.5t-38 -150.5t38 -151zM385 418h-86v52q36 1 61.5 20.5t30.5 47.5h71v-365h-77v245z" />
    <glyph glyph-name="uni2781" unicode="&#x2781;" horiz-adv-x="821" 
d="M94 539.5q49 84.5 132.5 134.5t182.5 50q100 0 184 -50t133.5 -134.5t49.5 -184.5t-49.5 -185t-133.5 -135t-184 -50q-99 0 -182.5 50t-132.5 135t-49 185t49 184.5zM161 204q38 -68 103.5 -107t144.5 -39t144.5 39t103.5 107t38 151t-38 150.5t-103.5 106.5t-144.5 39
t-144.5 -39t-103.5 -106.5t-38 -150.5t38 -151zM273 433q0 49 36 83t96 34q59 0 95 -33.5t36 -81.5q0 -66 -70 -110l-72 -45q-13 -10 -21 -18.5t-10 -18.5h175v-65h-268v13q0 94 85 145l60 37q43 25 43 63q0 21 -14.5 35.5t-39.5 14.5q-26 0 -41.5 -16t-15.5 -42
q0 -17 3 -26h-74q-3 11 -3 31z" />
    <glyph glyph-name="uni2782" unicode="&#x2782;" horiz-adv-x="821" 
d="M94 539.5q49 84.5 132.5 134.5t182.5 50q100 0 184 -50t133.5 -134.5t49.5 -184.5t-49.5 -185t-133.5 -135t-184 -50q-99 0 -182.5 50t-132.5 135t-49 185t49 184.5zM161 204q38 -68 103.5 -107t144.5 -39t144.5 39t103.5 107t38 151t-38 150.5t-103.5 106.5t-144.5 39
t-144.5 -39t-103.5 -106.5t-38 -150.5t38 -151zM440 472h-171v65h271v-63l-100 -80q46 -4 77 -32t31 -77q0 -51 -40.5 -86t-104.5 -35q-61 0 -99.5 30t-47.5 73l67 27q5 -29 26.5 -46.5t52.5 -17.5q30 0 49 15.5t19 39.5q0 28 -20 42t-48 14q-19 0 -28 -4l-29 56z" />
    <glyph glyph-name="uni2783" unicode="&#x2783;" horiz-adv-x="821" 
d="M94 539.5q49 84.5 132.5 134.5t182.5 50q100 0 184 -50t133.5 -134.5t49.5 -184.5t-49.5 -185t-133.5 -135t-184 -50q-99 0 -182.5 50t-132.5 135t-49 185t49 184.5zM161 204q38 -68 103.5 -107t144.5 -39t144.5 39t103.5 107t38 151t-38 150.5t-103.5 106.5t-144.5 39
t-144.5 -39t-103.5 -106.5t-38 -150.5t38 -151zM412 543h85v-228h64v-65h-64v-72h-77v72h-185v73zM309 315h111v139z" />
    <glyph glyph-name="uni2784" unicode="&#x2784;" horiz-adv-x="821" 
d="M94 539.5q49 84.5 132.5 134.5t182.5 50q100 0 184 -50t133.5 -134.5t49.5 -184.5t-49.5 -185t-133.5 -135t-184 -50q-99 0 -182.5 50t-132.5 135t-49 185t49 184.5zM161 204q38 -68 103.5 -107t144.5 -39t144.5 39t103.5 107t38 151t-38 150.5t-103.5 106.5t-144.5 39
t-144.5 -39t-103.5 -106.5t-38 -150.5t38 -151zM349.5 243.5q19.5 -15.5 46.5 -15.5q30 0 48.5 16t18.5 45q0 30 -18.5 46t-48.5 16q-37 0 -64 -27l-64 24l49 187h204v-66h-154l-23 -86q27 28 73 28q56 0 90 -32t34 -87q0 -56 -38.5 -92.5t-106.5 -36.5q-52 0 -90.5 27.5
t-48.5 64.5l66 30q7 -26 26.5 -41.5z" />
    <glyph glyph-name="uni2785" unicode="&#x2785;" horiz-adv-x="821" 
d="M94 539.5q49 84.5 132.5 134.5t182.5 50q100 0 184 -50t133.5 -134.5t49.5 -184.5t-49.5 -185t-133.5 -135t-184 -50q-99 0 -182.5 50t-132.5 135t-49 185t49 184.5zM161 204q38 -68 103.5 -107t144.5 -39t144.5 39t103.5 107t38 151t-38 150.5t-103.5 106.5t-144.5 39
t-144.5 -39t-103.5 -106.5t-38 -150.5t38 -151zM448 483q-49 0 -82 -27t-41 -78q13 19 38 31t53 12q59 0 94.5 -33.5t35.5 -92.5q0 -56 -42 -92.5t-105 -36.5q-39 0 -73.5 18.5t-56 56t-21.5 92.5q0 64 25 112t69 74.5t100 26.5q25 0 48 -5t38 -14l-18 -57q-27 13 -62 13z
M351.5 248q20.5 -17 48.5 -17t48 17t20 46t-20 46t-48 17t-48.5 -17t-20.5 -46t20.5 -46z" />
    <glyph glyph-name="uni2786" unicode="&#x2786;" horiz-adv-x="821" 
d="M94 539.5q49 84.5 132.5 134.5t182.5 50q100 0 184 -50t133.5 -134.5t49.5 -184.5t-49.5 -185t-133.5 -135t-184 -50q-99 0 -182.5 50t-132.5 135t-49 185t49 184.5zM161 204q38 -68 103.5 -107t144.5 -39t144.5 39t103.5 107t38 151t-38 150.5t-103.5 106.5t-144.5 39
t-144.5 -39t-103.5 -106.5t-38 -150.5t38 -151zM465 361q-48 -71 -60 -193h-82q11 122 75 224q29 45 61 75h-197v66h297v-69q-46 -32 -94 -103z" />
    <glyph glyph-name="uni2787" unicode="&#x2787;" horiz-adv-x="821" 
d="M94 539.5q49 84.5 132.5 134.5t182.5 50q100 0 184 -50t133.5 -134.5t49.5 -184.5t-49.5 -185t-133.5 -135t-184 -50q-99 0 -182.5 50t-132.5 135t-49 185t49 184.5zM161 204q38 -68 103.5 -107t144.5 -39t144.5 39t103.5 107t38 151t-38 150.5t-103.5 106.5t-144.5 39
t-144.5 -39t-103.5 -106.5t-38 -150.5t38 -151zM301.5 196.5q-38.5 30.5 -38.5 77.5q0 27 18 50.5t50 35.5q-26 11 -41 33t-15 47q0 47 37.5 76t95.5 29t95.5 -29t37.5 -76q0 -25 -15 -47t-41 -33q32 -12 50 -35.5t18 -50.5q0 -47 -38.5 -77.5t-106.5 -30.5t-106.5 30.5z
M449.5 403q15.5 13 15.5 35q0 21 -15 33t-42 12t-42 -12t-15 -33q0 -22 15.5 -35t41.5 -13t41.5 13zM458 243q17 13 17 37q0 22 -17.5 36t-49.5 14t-49.5 -14t-17.5 -36q0 -24 17 -37t50 -13t50 13z" />
    <glyph glyph-name="uni2788" unicode="&#x2788;" horiz-adv-x="821" 
d="M94 539.5q49 84.5 132.5 134.5t182.5 50q100 0 184 -50t133.5 -134.5t49.5 -184.5t-49.5 -185t-133.5 -135t-184 -50q-99 0 -182.5 50t-132.5 135t-49 185t49 184.5zM161 204q38 -68 103.5 -107t144.5 -39t144.5 39t103.5 107t38 151t-38 150.5t-103.5 106.5t-144.5 39
t-144.5 -39t-103.5 -106.5t-38 -150.5t38 -151zM361 229q51 0 84 25.5t39 77.5q-13 -19 -38 -31t-53 -12q-58 0 -94 34t-36 92q0 56 42 92.5t105 36.5q39 0 73 -18.5t55 -56t21 -92.5q0 -101 -53 -157t-139 -56q-25 0 -48 5t-38 14l18 59q27 -13 62 -13zM456 461.5
q-20 17.5 -49 17.5q-28 0 -48 -17t-20 -47t20 -47t48 -17q29 0 49 17.5t20 46.5t-20 46.5z" />
    <glyph glyph-name="uniE000" unicode="&#xe000;" horiz-adv-x="814" 
d="M179 205v504h580v-83h-497v-421h144l-185 -221l-186 221h144z" />
    <glyph glyph-name="uniE002" unicode="&#xe002;" horiz-adv-x="949" 
d="M919 354h-130q0 -100 -49.5 -185t-134.5 -134.5t-186 -49.5q-100 0 -185 49.5t-134.5 134.5t-49.5 185q0 101 49.5 186t134.5 134.5t185 49.5q99 0 182 -47l-37 -74q-68 38 -144 38q-79 0 -144.5 -38.5t-103.5 -104t-38 -144.5t38 -145t103.5 -104.5t144.5 -38.5
t144 38.5t103 104.5t38 145h-144l179 210z" />
    <glyph glyph-name="uniE021" unicode="&#xe021;" horiz-adv-x="1080" 
d="M176 355q0 100 50 185t135 134.5t184 49.5t182 -47l-37 -74q-68 38 -144 38q-79 0 -144.5 -38t-103.5 -104t-38 -144h143l-179 -210l-179 210h131zM864 169q-50 -85 -135 -134.5t-184 -49.5t-182 47l37 74q68 -38 144 -38q79 0 144.5 38t103.5 104t38 144h-138l179 210
l179 -210h-136q0 -100 -50 -185z" />
    <glyph glyph-name="uniFB00" unicode="&#xfb00;" horiz-adv-x="659" 
d="M544.5 620.5q-22.5 -18.5 -22.5 -63.5v-76h116v-85h-116v-396h-97v396h-219v-396h-97v396h-89v85h89v81q0 78 45 121.5t113 43.5q21 0 36.5 -3.5t19.5 -6.5v-84q-10 6 -41 6t-53.5 -18.5t-22.5 -63.5v-76h219v81q0 78 45 121.5t113 43.5q21 0 36.5 -3.5t19.5 -6.5v-84
q-10 6 -41 6t-53.5 -18.5z" />
    <glyph glyph-name="fi" unicode="&#xfb01;" horiz-adv-x="604" 
d="M429.5 713.5q19.5 19.5 47.5 19.5q29 0 48.5 -19.5t19.5 -48.5q0 -28 -19.5 -47.5t-48.5 -19.5q-28 0 -47.5 19.5t-19.5 47.5q0 29 19.5 48.5zM303.5 723.5q15.5 -3.5 19.5 -6.5v-84q-10 6 -41 6t-53.5 -18t-22.5 -63v-77h318v-481h-93v396h-225v-396h-97v396h-89v85h89
v81q0 78 45 121.5t113 43.5q21 0 36.5 -3.5z" />
    <glyph glyph-name="fl" unicode="&#xfb02;" horiz-adv-x="602" 
d="M228.5 620.5q-22.5 -18.5 -22.5 -63.5v-76h222v243h94v-724h-94v396h-222v-396h-97v396h-89v85h89v81q0 78 45 121.5t113 43.5q21 0 36.5 -3.5t19.5 -6.5v-84q-10 6 -41 6t-53.5 -18.5z" />
    <glyph glyph-name="uniFB03" unicode="&#xfb03;" horiz-adv-x="920" 
d="M745.5 713.5q19.5 19.5 47.5 19.5q29 0 48.5 -19.5t19.5 -48.5q0 -28 -19.5 -47.5t-48.5 -19.5q-28 0 -47.5 19.5t-19.5 47.5q0 29 19.5 48.5zM154 683.5q45 43.5 113 43.5q21 0 36.5 -3.5t19.5 -6.5v-84q-10 6 -41 6t-53.5 -18.5t-22.5 -63.5v-76h219v81q0 78 45 121.5
t113 43.5q21 0 36.5 -3.5t19.5 -6.5v-84q-10 6 -41 6t-53.5 -18.5t-22.5 -63.5v-76h318v-481h-93v396h-225v-396h-97v396h-219v-396h-97v396h-89v85h89v81q0 78 45 121.5z" />
    <glyph glyph-name="uniFB04" unicode="&#xfb04;" horiz-adv-x="920" 
d="M154 683.5q45 43.5 113 43.5q21 0 36.5 -3.5t19.5 -6.5v-84q-10 6 -41 6t-53.5 -18.5t-22.5 -63.5v-76h219v81q0 78 45 121.5t113 43.5q21 0 36.5 -3.5t19.5 -6.5v-84q-10 6 -41 6t-53.5 -18.5t-22.5 -63.5v-76h225v243h93v-724h-93v396h-225v-396h-97v396h-219v-396h-97
v396h-89v85h89v81q0 78 45 121.5z" />
    <glyph glyph-name="uniFEFF" unicode="&#xfeff;" horiz-adv-x="0" 
 />
    <glyph glyph-name="i.latn_TRK" horiz-adv-x="253" 
d="M78.5 711.5q19.5 19.5 47.5 19.5q29 0 48.5 -19.5t19.5 -48.5q0 -28 -19.5 -47.5t-48.5 -19.5q-28 0 -47.5 19.5t-19.5 47.5q0 29 19.5 48.5zM80 481h93v-481h-93v481z" />
    <glyph glyph-name="Ldot.latn_CAT" horiz-adv-x="548" 
d="M90 709h98v-617h335v-92h-433v709z" />
    <glyph glyph-name="ldot.latn_CAT" horiz-adv-x="372" 
d="M80 724h94v-724h-94v724zM251 356q18 18 44 18t44 -18t18 -44t-18 -44t-44 -18t-44 18t-18 44t18 44z" />
    <glyph glyph-name="zero.numr" horiz-adv-x="426" 
d="M95 658q43 58 118 58t118 -58q35 -47 35 -132q0 -84 -35 -131q-43 -58 -118 -58t-118 58q-35 47 -35 131q0 85 35 132zM153.5 438q15.5 -35 59.5 -35t59.5 35t15.5 88q0 124 -75 124q-44 0 -59.5 -35t-15.5 -89q0 -53 15.5 -88z" />
    <glyph glyph-name="one.numr" horiz-adv-x="303" 
d="M136 589h-86v52q36 1 61.5 20.5t30.5 47.5h71v-365h-77v245z" />
    <glyph glyph-name="two.numr" horiz-adv-x="389" 
d="M64 599q0 49 36 83t96 34q59 0 95 -33.5t36 -81.5q0 -66 -70 -110l-72 -45q-13 -10 -21 -18.5t-10 -18.5h175v-65h-268v13q0 94 85 145l60 37q43 25 43 63q0 21 -14.5 35.5t-39.5 14.5q-26 0 -41.5 -16t-15.5 -42q0 -17 3 -26h-74q-3 11 -3 31z" />
    <glyph glyph-name="three.numr" horiz-adv-x="412" 
d="M244 644h-171v65h271v-63l-100 -80q46 -4 77 -32t31 -77q0 -51 -40.5 -86t-104.5 -35q-61 0 -99.5 30t-47.5 73l67 27q5 -29 26.5 -46.5t52.5 -17.5q30 0 49 15.5t19 39.5q0 28 -20 42t-48 14q-19 0 -28 -4l-29 56z" />
    <glyph glyph-name="four.numr" horiz-adv-x="446" 
d="M237 709h85v-228h64v-65h-64v-72h-77v72h-185v73zM134 481h111v139z" />
    <glyph glyph-name="five.numr" horiz-adv-x="404" 
d="M152.5 417.5q19.5 -15.5 46.5 -15.5q30 0 48.5 16t18.5 45q0 30 -18.5 46t-48.5 16q-37 0 -64 -27l-64 24l49 187h204v-66h-154l-23 -86q27 28 73 28q56 0 90 -32t34 -87q0 -56 -38.5 -92.5t-106.5 -36.5q-52 0 -90.5 27.5t-48.5 64.5l66 30q7 -26 26.5 -41.5z" />
    <glyph glyph-name="six.numr" horiz-adv-x="418" 
d="M260 654q-49 0 -82 -27t-41 -78q13 19 38 31t53 12q59 0 94.5 -33.5t35.5 -92.5q0 -56 -42 -92.5t-105 -36.5q-39 0 -73.5 18.5t-56 56t-21.5 92.5q0 64 25 112t69 74.5t100 26.5q25 0 48 -5t38 -14l-18 -57q-27 13 -62 13zM163.5 419q20.5 -17 48.5 -17t48 17t20 46
t-20 46t-48 17t-48.5 -17t-20.5 -46t20.5 -46z" />
    <glyph glyph-name="seven.numr" horiz-adv-x="417" 
d="M263 537q-48 -71 -60 -193h-82q11 122 75 224q29 45 61 75h-197v66h297v-69q-46 -32 -94 -103z" />
    <glyph glyph-name="eight.numr" horiz-adv-x="410" 
d="M98.5 367.5q-38.5 30.5 -38.5 77.5q0 27 18 50.5t50 35.5q-26 11 -41 33t-15 47q0 47 37.5 76t95.5 29t95.5 -29t37.5 -76q0 -25 -15 -47t-41 -33q32 -12 50 -35.5t18 -50.5q0 -47 -38.5 -77.5t-106.5 -30.5t-106.5 30.5zM246.5 574q15.5 13 15.5 35q0 21 -15 33t-42 12
t-42 -12t-15 -33q0 -22 15.5 -35t41.5 -13t41.5 13zM255 414q17 13 17 37q0 22 -17.5 36t-49.5 14t-49.5 -14t-17.5 -36q0 -24 17 -37t50 -13t50 13z" />
    <glyph glyph-name="nine.numr" horiz-adv-x="416" 
d="M158 400q51 0 84 25.5t39 77.5q-13 -19 -38 -31t-53 -12q-58 0 -94 34t-36 92q0 56 42 92.5t105 36.5q39 0 73 -18.5t55 -56t21 -92.5q0 -101 -53 -157t-139 -56q-25 0 -48 5t-38 14l18 59q27 -13 62 -13zM253 632.5q-20 17.5 -49 17.5q-28 0 -48 -17t-20 -47t20 -47
t48 -17q29 0 49 17.5t20 46.5t-20 46.5z" />
    <glyph glyph-name="zero.dnom" horiz-adv-x="426" 
d="M95 314q43 58 118 58t118 -58q35 -47 35 -132q0 -84 -35 -131q-43 -58 -118 -58t-118 58q-35 47 -35 131q0 85 35 132zM153.5 94q15.5 -35 59.5 -35t59.5 35t15.5 88q0 124 -75 124q-44 0 -59.5 -35t-15.5 -89q0 -53 15.5 -88z" />
    <glyph glyph-name="one.dnom" horiz-adv-x="303" 
d="M136 245h-86v52q36 1 61.5 20.5t30.5 47.5h71v-365h-77v245z" />
    <glyph glyph-name="two.dnom" horiz-adv-x="389" 
d="M64 255q0 49 36 83t96 34q59 0 95 -33.5t36 -81.5q0 -66 -70 -110l-72 -45q-13 -10 -21 -18.5t-10 -18.5h175v-65h-268v13q0 94 85 145l60 37q43 25 43 63q0 21 -14.5 35.5t-39.5 14.5q-26 0 -41.5 -16t-15.5 -42q0 -17 3 -26h-74q-3 11 -3 31z" />
    <glyph glyph-name="three.dnom" horiz-adv-x="412" 
d="M244 301h-171v65h271v-63l-100 -80q46 -4 77 -32t31 -77q0 -51 -40.5 -86t-104.5 -35q-61 0 -99.5 30t-47.5 73l67 27q5 -29 26.5 -46.5t52.5 -17.5q30 0 49 15.5t19 39.5q0 28 -20 42t-48 14q-19 0 -28 -4l-29 56z" />
    <glyph glyph-name="four.dnom" horiz-adv-x="446" 
d="M237 365h85v-228h64v-65h-64v-72h-77v72h-185v73zM134 137h111v139z" />
    <glyph glyph-name="five.dnom" horiz-adv-x="404" 
d="M152.5 73.5q19.5 -15.5 46.5 -15.5q30 0 48.5 16t18.5 45q0 30 -18.5 46t-48.5 16q-37 0 -64 -27l-64 24l49 187h204v-66h-154l-23 -86q27 28 73 28q56 0 90 -32t34 -87q0 -56 -38.5 -92.5t-106.5 -36.5q-52 0 -90.5 27.5t-48.5 64.5l66 30q7 -26 26.5 -41.5z" />
    <glyph glyph-name="six.dnom" horiz-adv-x="418" 
d="M260 310q-49 0 -82 -27t-41 -78q13 19 38 31t53 12q59 0 94.5 -33.5t35.5 -92.5q0 -56 -42 -92.5t-105 -36.5q-39 0 -73.5 18.5t-56 56t-21.5 92.5q0 64 25 112t69 74.5t100 26.5q25 0 48 -5t38 -14l-18 -57q-27 13 -62 13zM163.5 75q20.5 -17 48.5 -17t48 17t20 46
t-20 46t-48 17t-48.5 -17t-20.5 -46t20.5 -46z" />
    <glyph glyph-name="seven.dnom" horiz-adv-x="417" 
d="M263 193q-48 -71 -60 -193h-82q11 122 75 224q29 45 61 75h-197v66h297v-69q-46 -32 -94 -103z" />
    <glyph glyph-name="eight.dnom" horiz-adv-x="410" 
d="M98.5 23.5q-38.5 30.5 -38.5 77.5q0 27 18 50.5t50 35.5q-26 11 -41 33t-15 47q0 47 37.5 76t95.5 29t95.5 -29t37.5 -76q0 -25 -15 -47t-41 -33q32 -12 50 -35.5t18 -50.5q0 -47 -38.5 -77.5t-106.5 -30.5t-106.5 30.5zM246.5 230q15.5 13 15.5 35q0 21 -15 33t-42 12
t-42 -12t-15 -33q0 -22 15.5 -35t41.5 -13t41.5 13zM255 70q17 13 17 37q0 22 -17.5 36t-49.5 14t-49.5 -14t-17.5 -36q0 -24 17 -37t50 -13t50 13z" />
    <glyph glyph-name="nine.dnom" horiz-adv-x="416" 
d="M158 58q51 0 84 25.5t39 77.5q-13 -19 -38 -31t-53 -12q-58 0 -94 34t-36 92q0 56 42 92.5t105 36.5q39 0 73 -18.5t55 -56t21 -92.5q0 -101 -53 -157t-139 -56q-25 0 -48 5t-38 14l18 59q27 -13 62 -13zM253 290.5q-20 17.5 -49 17.5q-28 0 -48 -17t-20 -47t20 -47
t48 -17q29 0 49 17.5t20 46.5t-20 46.5z" />
    <glyph glyph-name="space.frac" horiz-adv-x="50" 
 />
    <glyph glyph-name="a.ordn" horiz-adv-x="428" 
d="M95 471q29 27 74 33l88 12q26 4 26 25q0 25 -17 40.5t-51 15.5q-32 0 -51 -18t-22 -47l-69 16q4 46 43.5 78.5t97.5 32.5q73 0 108 -35.5t35 -90.5v-169q0 -18 1.5 -33t2.5 -22h-71q-4 11 -4 44q-13 -22 -40 -38t-65 -16q-51 0 -83 30t-32 72q0 43 29 70zM258.5 381
q24.5 22 24.5 71v15l-95 -15q-47 -7 -47 -47q0 -19 14 -32.5t38 -13.5q41 0 65.5 22z" />
    <glyph glyph-name="b.ordn" horiz-adv-x="494" 
d="M88 816h74v-212q12 23 41 38.5t68 15.5q74 0 115 -50.5t41 -127.5q0 -78 -43 -129t-116 -51q-36 0 -63.5 14.5t-43.5 41.5v-47h-73v507zM325.5 561.5q-25.5 29.5 -68.5 29.5t-69.5 -29.5t-26.5 -81.5t26.5 -82.5t69.5 -30.5t68.5 30t25.5 83q0 52 -25.5 81.5z" />
    <glyph glyph-name="c.ordn" horiz-adv-x="462" 
d="M170.5 560q-28.5 -30 -28.5 -81q0 -52 28.5 -81.5t69.5 -29.5q38 0 59.5 19.5t29.5 45.5l67 -26q-14 -44 -54.5 -76t-101.5 -32q-49 0 -88.5 23.5t-62 64.5t-22.5 92t22.5 92t61.5 64.5t88 23.5q63 0 103 -33t51 -78l-67 -26q-7 28 -29 48t-58 20q-40 0 -68.5 -30z" />
    <glyph glyph-name="d.ordn" horiz-adv-x="495" 
d="M406 309h-72q-4 32 -4 46q-12 -23 -38.5 -39t-62.5 -16q-48 0 -85 23.5t-57 64.5t-20 92q0 48 20.5 88.5t57 64.5t83.5 24q41 0 66 -15t35 -37v211h74v-445q0 -41 3 -62zM168 397q25 -31 69 -31q42 0 67.5 31.5t25.5 82.5t-25.5 80.5t-67.5 29.5t-68 -30t-26 -80
q0 -52 25 -83z" />
    <glyph glyph-name="e.ordn" horiz-adv-x="461" 
d="M336 329q-40 -30 -98 -30q-46 0 -85.5 21.5t-63 62.5t-23.5 97q0 52 23 93t61 63.5t80 22.5q77 0 121 -48t44 -129q0 -10 -1 -16.5t-1 -7.5h-251q1 -41 28.5 -67.5t67.5 -26.5q68 0 89 63l64 -21q-15 -47 -55 -77zM294 572q-23 23 -63 23q-37 0 -61 -24t-26 -56h174
q-1 34 -24 57z" />
    <glyph glyph-name="f.ordn" horiz-adv-x="350" 
d="M203 308h-76v274h-61v67h61v50q0 57 32 88.5t84 31.5q15 0 26.5 -2t14.5 -5v-65q-9 4 -29 4q-21 0 -36.5 -12.5t-15.5 -42.5v-47h80v-67h-80v-274z" />
    <glyph glyph-name="g.ordn" horiz-adv-x="465" 
d="M166 252.5q24 -21.5 60 -21.5q99 0 99 105v40q-12 -22 -38.5 -36.5t-62.5 -14.5q-68 0 -112 46.5t-44 118.5q0 45 20 83t55.5 60t80.5 22q39 0 64.5 -13.5t37.5 -37.5v44h73v-310q0 -74 -41.5 -123t-130.5 -49q-65 0 -109.5 36t-50.5 89l71 17q4 -34 28 -55.5zM302 415.5
q25 27.5 25 74.5q0 45 -25.5 72.5t-65.5 27.5q-41 0 -66.5 -27.5t-25.5 -72.5q0 -48 25 -75t67 -27q41 0 66 27.5z" />
    <glyph glyph-name="h.ordn" horiz-adv-x="473" 
d="M88 309v507h75v-203q17 23 43 34t56 11q60 0 91.5 -37.5t31.5 -96.5v-215h-75v202q0 79 -74 79q-34 0 -53 -22.5t-20 -59.5v-199h-75z" />
    <glyph glyph-name="i.ordn" horiz-adv-x="278" 
d="M103.5 807q14.5 15 35.5 15t35.5 -15t14.5 -36t-14.5 -35.5t-35.5 -14.5t-35.5 14.5t-14.5 35.5t14.5 36zM102 648h74v-339h-74v339z" />
    <glyph glyph-name="j.ordn" horiz-adv-x="297" 
d="M138.5 808q14.5 15 35.5 15t35.5 -15t14.5 -36t-14.5 -35.5t-35.5 -14.5t-35.5 14.5t-14.5 35.5t14.5 36zM212 648v-375q0 -48 -26.5 -77.5t-71.5 -29.5q-29 0 -44 5v62q14 -2 23 -2q24 0 34 12t10 35v370h75z" />
    <glyph glyph-name="k.ordn" horiz-adv-x="430" 
d="M403 309h-93l-104 143l-44 -45v-98h-74v507h74v-310l137 142h101l-141 -143z" />
    <glyph glyph-name="l.ordn" horiz-adv-x="251" 
d="M88 816h75v-507h-75v507z" />
    <glyph glyph-name="m.ordn" horiz-adv-x="681" 
d="M88 648h71v-44q15 26 43 40t59 14q34 0 61.5 -15.5t39.5 -45.5q36 61 112 61q49 0 84 -33t35 -96v-220h-73v209q0 34 -17 53.5t-51 19.5q-33 0 -53.5 -22.5t-20.5 -56.5v-203h-74v209q0 34 -16.5 53.5t-51.5 19.5q-33 0 -53.5 -22t-20.5 -58v-202h-74v339z" />
    <glyph glyph-name="n.ordn" horiz-adv-x="473" 
d="M88 309v339h73v-46q16 28 43.5 42t58.5 14q60 0 91 -37.5t31 -96.5v-215h-75v202q0 79 -74 79q-34 0 -53.5 -24t-19.5 -61v-196h-75z" />
    <glyph glyph-name="o.ordn" horiz-adv-x="484" 
d="M332 635.5q40 -23.5 62.5 -64.5t22.5 -92t-22.5 -92t-62.5 -64.5t-90 -23.5t-90 23.5t-62.5 64.5t-22.5 92t22.5 92t62.5 64.5t90 23.5t90 -23.5zM312.5 395.5q28.5 29.5 28.5 83.5t-28.5 83t-70.5 29t-71 -29t-29 -83t29 -83.5t71 -29.5t70.5 29.5z" />
    <glyph glyph-name="p.ordn" horiz-adv-x="494" 
d="M88 648h73v-49q13 25 42 41t68 16q73 0 114.5 -50t41.5 -127t-43.5 -128t-115.5 -51q-36 0 -63.5 14t-42.5 36v-174h-74v472zM326 559q-26 31 -69 31q-42 0 -69 -31t-27 -80q0 -50 27 -81t69 -31t68.5 30.5t26.5 81.5q0 49 -26 80z" />
    <glyph glyph-name="q.ordn" horiz-adv-x="477" 
d="M331 352q-13 -24 -40 -38t-62 -14q-47 0 -84 24t-57.5 65t-20.5 91q0 48 19.5 88.5t56 64.5t84.5 24q41 0 68 -16.5t38 -40.5v48h72v-472h-74v176zM169 397.5q26 -31.5 68 -31.5t68.5 31.5t26.5 82.5q0 50 -26.5 80t-68.5 30t-68 -30t-26 -80q0 -51 26 -82.5z" />
    <glyph glyph-name="r.ordn" horiz-adv-x="288" 
d="M237 576q-42 0 -66 -24.5t-24 -77.5v-165h-75v339h73v-56q16 33 42.5 47t55.5 14q9 0 23 -2v-78q-15 3 -29 3z" />
    <glyph glyph-name="s.ordn" horiz-adv-x="401" 
d="M155 376.5q19 -17.5 51 -17.5q25 0 39.5 12t14.5 30q0 31 -41 40l-54 12q-41 9 -64.5 35t-23.5 62q0 45 35.5 77t87.5 32q62 0 93 -30t37 -64l-64 -20q-3 19 -19 36t-47 17q-23 0 -37.5 -12.5t-14.5 -28.5q0 -30 36 -38l53 -11q48 -11 72 -37t24 -65q0 -27 -14.5 -51.5
t-43.5 -40t-69 -15.5q-45 0 -75 16t-45.5 39.5t-18.5 45.5l67 20q2 -26 21 -43.5z" />
    <glyph glyph-name="t.ordn" horiz-adv-x="324" 
d="M265 648v-67h-72v-165q0 -23 10.5 -33.5t34.5 -10.5q14 0 27 3v-63q-4 -3 -18 -5t-30 -2q-46 0 -72.5 26t-26.5 73v177h-63v67h18q26 0 39 14.5t13 38.5v52h68v-105h72z" />
    <glyph glyph-name="u.ordn" horiz-adv-x="440" 
d="M252.5 311.5q-26.5 -12.5 -57.5 -12.5q-59 0 -93.5 38.5t-34.5 96.5v214h75v-201q0 -36 18 -58.5t54 -22.5t55.5 22t19.5 58v202h75v-277q0 -21 1.5 -37.5t2.5 -24.5h-72q-3 8 -3 40q-14 -25 -40.5 -37.5z" />
    <glyph glyph-name="v.ordn" horiz-adv-x="404" 
d="M165 309l-138 339h83l93 -250l91 250h80l-134 -339h-75z" />
    <glyph glyph-name="w.ordn" horiz-adv-x="603" 
d="M424 406l70 242h77l-109 -339h-76l-86 249l-85 -249h-78l-110 339h80l72 -242l84 242h77z" />
    <glyph glyph-name="x.ordn" horiz-adv-x="413" 
d="M39 648h90l78 -113l77 113h87l-120 -166q4 -6 79 -111l45 -62h-89l-82 118q-1 -2 -5 -7.5t-11 -16.5q-15 -21 -39 -56.5t-26 -37.5h-86l124 172z" />
    <glyph glyph-name="y.ordn" horiz-adv-x="418" 
d="M173 348l-146 300h86l100 -222l96 222h79l-217 -478h-81z" />
    <glyph glyph-name="z.ordn" horiz-adv-x="409" 
d="M67 375l178 207h-174v66h268v-64l-179 -209h182v-66h-275v66z" />
    <glyph glyph-name="numbersign.tf" 
d="M598 525v-84h-126l-35 -170h108v-85h-127l-39 -186h-92l39 186h-128l-41 -186h-92l41 186h-97v85h115l36 170h-98v84h116l39 184h92l-39 -184h128l40 184h92l-40 -184h108zM345 271l36 170h-129l-36 -170h129z" />
    <glyph glyph-name="dollar.tf" 
d="M271 -4q-67 8 -116 39t-76.5 75t-33.5 93l94 31q7 -56 39.5 -98t92.5 -53v231l-24 5q-82 16 -127.5 64.5t-45.5 125.5q0 48 25.5 90.5t70.5 71t101 34.5v104h87v-105q86 -11 131 -58t63 -110l-88 -34q-11 44 -35.5 74t-70.5 44v-228l12 -3q85 -18 136 -71t51 -124
q0 -48 -23 -91t-68 -72t-108 -35v-100h-87v100zM193.5 450q23.5 -25 77.5 -39v210q-48 -9 -74.5 -38t-26.5 -71q0 -37 23.5 -62zM436.5 255.5q-26.5 29.5 -78.5 40.5v-213q52 9 78.5 38t26.5 68q0 37 -26.5 66.5z" />
    <glyph glyph-name="percent.tf" 
d="M39 646q20 33 54 52t73 19t73 -19t54.5 -52t20.5 -72q0 -40 -20.5 -74t-54.5 -53.5t-73 -19.5t-73 19.5t-54 53t-20 74.5q0 39 20 72zM118.5 524.5q20.5 -20.5 47.5 -20.5q29 0 48 20t19 50q0 29 -19 47t-48 18q-28 0 -48 -18.5t-20 -46.5q0 -29 20.5 -49.5zM48 134v97
l525 359v-100zM312.5 210q20.5 33 54 52t72.5 19q40 0 74 -19t54.5 -52t20.5 -72q0 -40 -20.5 -73.5t-55 -53t-73.5 -19.5t-72.5 19.5t-54 53t-20.5 73.5q0 39 20.5 72zM392 89q19 -19 47 -19q30 0 49.5 19t19.5 49q0 29 -19.5 48t-49.5 19q-28 0 -47 -19t-19 -48
q0 -30 19 -49z" />
    <glyph glyph-name="plus.tf" 
d="M262 562h82v-195h188v-79h-188v-197h-82v197h-187v79h187v195z" />
    <glyph glyph-name="comma.tf" 
d="M238.5 128q24.5 23 59.5 23q40 0 67 -28.5t27 -81.5q0 -71 -26.5 -119.5t-65.5 -73.5t-79 -31v60q41 10 68.5 45.5t27.5 78.5q-6 -6 -25 -6q-34 0 -56 21.5t-22 57.5q0 31 24.5 54z" />
    <glyph glyph-name="period.tf" 
d="M246 130.5q23 23.5 57 23.5q33 0 56.5 -23.5t23.5 -56.5q0 -34 -23.5 -57t-56.5 -23q-34 0 -57 23t-23 57q0 33 23 56.5z" />
    <glyph glyph-name="zero.tf" 
d="M50.5 501.5q12.5 65.5 44.5 113.5q33 51 86.5 80t121.5 29t121.5 -29t87.5 -80q31 -48 43.5 -113.5t12.5 -147.5t-12.5 -147t-43.5 -113q-34 -52 -87.5 -80.5t-121.5 -28.5t-121.5 28.5t-86.5 80.5q-32 48 -44.5 113t-12.5 147t12.5 147.5zM168 154q33 -83 135 -83
q103 0 136.5 83.5t33.5 199.5t-33.5 199.5t-136.5 83.5q-102 0 -135 -83t-33 -200t33 -200z" />
    <glyph glyph-name="one.tf" 
d="M297 506h-173v70q72 2 120.5 38.5t61.5 94.5h86v-619h172v-90h-445v90h178v416z" />
    <glyph glyph-name="two.tf" 
d="M70.5 487.5q0.5 5.5 0.5 9.5q0 61 29 113t83.5 83t128.5 31q72 0 125.5 -29t82 -78t28.5 -108q0 -67 -35 -123t-97 -96l-141 -91q-37 -24 -60 -49t-31 -57h367v-93h-489q2 86 41.5 152.5t127.5 124.5l118 78q50 32 75 71t25 82q0 54 -36.5 92t-102.5 38q-69 0 -105 -42
t-36 -109q0 -8 2 -30l-100 15q-1 10 -0.5 15.5z" />
    <glyph glyph-name="three.tf" 
d="M404 617h-344v92h476v-91l-206 -194q55 0 105.5 -23.5t83 -72t32.5 -119.5q0 -60 -29.5 -111t-87 -82t-136.5 -31t-136.5 30.5t-89 81t-35.5 109.5l97 23q1 -48 23.5 -83.5t59 -55t80.5 -19.5q73 0 114 39t41 96q0 67 -44.5 102t-105.5 35q-35 0 -62 -10l-49 85z" />
    <glyph glyph-name="four.tf" 
d="M346 709h140v-456h112v-92h-112v-161h-94v161h-351v116zM132 253h260v365z" />
    <glyph glyph-name="five.tf" 
d="M192 112.5q45 -41.5 115 -41.5q67 0 112 41t45 107q0 72 -45.5 112t-112.5 40q-39 0 -74 -13t-59 -39q-23 8 -44 19q-25 11 -54 21l93 350h368v-92h-303l-57 -214q24 27 63.5 41t84.5 14q69 0 123.5 -28t85 -81t30.5 -125q0 -66 -32 -121t-90.5 -86.5t-133.5 -31.5
q-73 0 -130.5 28.5t-91 76t-39.5 103.5l95 29q6 -68 51 -109.5z" />
    <glyph glyph-name="six.tf" 
d="M466.5 625.5q-33.5 9.5 -72.5 9.5q-74 0 -129.5 -34t-87 -93.5t-35.5 -133.5q26 39 74.5 65t115.5 26q70 0 126 -29t87.5 -83.5t31.5 -128.5q0 -72 -36.5 -126.5t-96.5 -83.5t-129 -29q-71 0 -133 33.5t-101.5 107.5t-39.5 187q0 128 47 221t128.5 141.5t182.5 48.5
q46 0 86 -11.5t68 -29.5l-31 -80q-22 13 -55.5 22.5zM181.5 143q22.5 -35 58.5 -54t77 -19q43 0 79.5 18.5t58.5 54t22 82.5q0 48 -22 83t-58.5 53.5t-79.5 18.5t-79 -18.5t-57.5 -53.5t-21.5 -83q0 -47 22.5 -82z" />
    <glyph glyph-name="seven.tf" 
d="M385.5 387.5q-95.5 -145.5 -118.5 -387.5h-101q20 259 166 465q66 92 142 152h-427v92h532v-97q-98 -79 -193.5 -224.5z" />
    <glyph glyph-name="eight.tf" 
d="M171.5 11.5q-57.5 26.5 -87.5 72.5t-30 102q0 64 38 110.5t98 65.5q-50 19 -83 63.5t-33 102.5q0 57 31 101.5t84 69.5t119 25t119 -25t84 -69.5t31 -101.5q0 -58 -33 -102.5t-84 -63.5q60 -19 98 -65.5t38 -110.5q0 -56 -29.5 -102t-87 -72.5t-136.5 -26.5t-136.5 26.5z
M405.5 438.5q38.5 32.5 38.5 85.5q0 52 -37 85t-99 33t-99.5 -33t-37.5 -85q0 -53 38.5 -85.5t98.5 -34.5q59 2 97.5 34.5zM420.5 105.5q40.5 34.5 40.5 88.5q0 55 -41 90t-112 35t-112.5 -35t-41.5 -90q0 -54 40.5 -88.5t113.5 -34.5q72 0 112.5 34.5z" />
    <glyph glyph-name="nine.tf" 
d="M148 83.5q36 -9.5 68 -9.5q127 0 187 72t64 187q-20 -38 -68.5 -64.5t-119.5 -26.5q-62 0 -118.5 27.5t-92 82t-35.5 129.5q0 71 36 126.5t96 86t128 30.5q71 0 133.5 -35.5t101.5 -108t39 -179.5q0 -200 -88 -308t-263 -108q-41 0 -89 12t-74 30l35 81q24 -15 60 -24.5z
M431 563.5q-23 35.5 -60 54.5t-77 19q-42 0 -78.5 -19t-59 -54t-22.5 -82q0 -48 22 -84t58.5 -54.5t79.5 -18.5q41 0 78 19t59.5 54.5t22.5 83.5q0 46 -23 81.5z" />
    <glyph glyph-name="colon.tf" 
d="M248 466.5q22 22.5 54 22.5t54.5 -22.5t22.5 -54.5q0 -31 -22.5 -53.5t-54.5 -22.5t-54 22.5t-22 53.5q0 32 22 54.5zM248 119.5q22 22.5 54 22.5t54.5 -22.5t22.5 -54.5q0 -31 -22.5 -53.5t-54.5 -22.5t-54 22.5t-22 53.5q0 32 22 54.5z" />
    <glyph glyph-name="semicolon.tf" 
d="M249 466.5q22 22.5 54 22.5t54.5 -22.5t22.5 -54.5q0 -31 -22.5 -53.5t-54.5 -22.5t-54 22.5t-22 53.5q0 32 22 54.5zM247.5 119.5q22.5 21.5 55.5 21.5q35 0 60 -26.5t25 -74.5q0 -66 -24 -110.5t-59.5 -67.5t-72.5 -29v56q37 7 62.5 41.5t25.5 72.5q-7 -5 -24 -5
q-30 0 -50.5 19.5t-20.5 52.5q0 28 22.5 49.5z" />
    <glyph glyph-name="less.tf" 
d="M509 575v-95l-310 -153l310 -153v-95l-412 205v85z" />
    <glyph glyph-name="equal.tf" 
d="M72 463h463v-77h-463v77zM72 270h463v-79h-463v79z" />
    <glyph glyph-name="greater.tf" 
d="M100 79v95l312 153l-312 153v95l412 -206v-85z" />
    <glyph glyph-name="cent.tf" 
d="M478.5 154.5q-47.5 -42.5 -120.5 -51.5v-103h-87v104q-91 18 -146.5 87.5t-55.5 167.5q0 65 26 118.5t72 88.5t104 44v99h87v-95q75 -10 119.5 -51.5t62.5 -98.5l-81 -36q-9 35 -34 63.5t-67 39.5v-346q45 11 71.5 40t34.5 60l80 -35q-18 -53 -65.5 -95.5zM191.5 249.5
q29.5 -44.5 79.5 -62.5v341q-50 -18 -79.5 -61.5t-29.5 -107.5q0 -65 29.5 -109.5z" />
    <glyph glyph-name="sterling.tf" 
d="M519.5 53.5q-47.5 -53.5 -130.5 -53.5h-331v101q55 21 88 64.5t33 89.5q0 24 -5 43h-110v89h79q-35 72 -35 136q0 58 27.5 103.5t75.5 71.5t107 26q112 0 163.5 -57t56.5 -135l-102 -19q-1 61 -32 92t-84 31q-47 0 -79.5 -30t-32.5 -83q0 -31 9.5 -62.5t28.5 -73.5h201
v-89h-174q2 -22 2 -31q0 -59 -28.5 -105.5t-79.5 -72.5h195q54 0 81 34.5t27 84.5l97 -16q0 -85 -47.5 -138.5z" />
    <glyph glyph-name="currency.tf" 
d="M119 454l-83 84l60 61l82 -86q62 40 130 40q67 0 123 -35l78 81l60 -61l-76 -79q47 -65 47 -139q0 -39 -12 -75t-34 -64l75 -77l-59 -59l-76 78q-27 -18 -60 -28t-66 -10q-69 0 -133 44l-80 -84l-59 59l80 84q-40 62 -40 132q0 72 43 134zM180.5 242q19.5 -34 53 -53
t74.5 -19q39 0 72 19t52.5 53t19.5 78q0 42 -19.5 76t-52.5 53t-72 19q-41 0 -74.5 -19t-53 -53t-19.5 -76q0 -44 19.5 -78z" />
    <glyph glyph-name="yen.tf" 
d="M359 0h-98v174h-186v72h186v91h-186v72h133l-193 300h117l177 -291l167 291h115l-182 -300h133v-72h-183v-91h183v-72h-183v-174z" />
    <glyph glyph-name="section.tf" 
d="M478 167.5q-26 -34.5 -58 -48.5q42 -26 65 -64.5t23 -80.5q0 -54 -28 -96t-75 -65t-102 -23q-94 0 -144.5 50.5t-52.5 135.5l89 18q0 -57 28 -91t82 -34q48 0 77 25t29 70q0 27 -15.5 49.5t-43.5 37.5l-104 54q-66 33 -102.5 71.5t-36.5 99.5q0 43 27 78t58 46
q-42 26 -65.5 65t-23.5 81q0 54 28 96t75 64.5t102 22.5q62 0 106.5 -24.5t67.5 -66.5t23 -94l-90 -18q0 58 -28 91t-81 33q-48 0 -77.5 -26t-29.5 -69q0 -54 60 -86l103 -54q68 -36 104 -73.5t36 -97.5q0 -42 -26 -76.5zM214.5 339.5q-14.5 -22.5 -14.5 -48.5q0 -28 15 -49
t49 -39l100 -54q19 9 33.5 31t14.5 49q0 28 -15 49t-49 39l-100 54q-19 -9 -33.5 -31.5z" />
    <glyph glyph-name="logicalnot.tf" 
d="M445 384h-379v82h463v-277h-84v195z" />
    <glyph glyph-name="plusminus.tf" 
d="M262 562h82v-136h178v-77h-178v-134h-82v134h-177v77h177v136zM522 91h-437v79h437v-79z" />
    <glyph glyph-name="multiply.tf" 
d="M134 96l-56 56l169 176l-168 174l57 57l167 -174l167 174l57 -56l-169 -175l170 -176l-56 -57l-170 175z" />
    <glyph glyph-name="divide.tf" 
d="M256.5 550q19.5 19 45.5 19t45 -19t19 -45t-19 -45.5t-45 -19.5t-45.5 19.5t-19.5 45.5t19.5 45zM531 369v-83h-457v83h457zM256.5 195q19.5 19 45.5 19t45 -19t19 -45t-19 -45.5t-45 -19.5t-45.5 19.5t-19.5 45.5t19.5 45z" />
    <glyph glyph-name="florin.tf" 
d="M167 398v83h127l23 113q13 71 59.5 108t105.5 37q28 0 43.5 -2t30.5 -8v-83q-26 7 -53 7q-35 0 -60 -18t-36 -74l-16 -80h129v-83h-146l-82 -411q-15 -72 -60.5 -108.5t-104.5 -36.5q-30 0 -46 2t-31 8v83q26 -7 56 -7q34 0 59.5 18.5t36.5 73.5l75 378h-110z" />
    <glyph glyph-name="uni2007.tf" 
 />
    <glyph glyph-name="uni2008.tf" 
 />
    <glyph glyph-name="perthousand.tf" 
d="M58.5 653.5q17.5 29.5 47.5 46.5t64 17t64 -17t48 -46.5t18 -64.5t-18 -64t-48 -46t-64 -17t-64 17t-47.5 46t-17.5 64t17.5 64.5zM74 178v97l524 418v-99zM126.5 545.5q17.5 -17.5 43.5 -17.5t42.5 17.5t16.5 43.5q0 27 -16.5 44t-42.5 17t-43.5 -17t-17.5 -44
q0 -26 17.5 -43.5zM185 184q18 29 48 46t64 17q27 0 51 -11t41 -31q36 42 93 42q34 0 64 -17t48 -46t18 -64t-18 -64.5t-48 -46.5t-64 -17q-58 0 -93 41q-36 -41 -92 -41q-34 0 -64 17t-48 46.5t-18 64.5t18 64zM253.5 163.5q-17.5 -17.5 -17.5 -43.5q0 -27 17.5 -44
t43.5 -17t42 17t16 44t-16 44t-42 17t-43.5 -17.5zM438.5 163.5q-17.5 -17.5 -17.5 -43.5q0 -27 17.5 -44t43.5 -17t42.5 17t16.5 44q0 26 -16.5 43.5t-42.5 17.5t-43.5 -17.5z" />
    <glyph glyph-name="Euro.tf" 
d="M132 399h-82v82h97q25 78 77.5 133t120 82.5t139.5 27.5q41 0 64.5 -4t51.5 -14l-24 -82q-4 1 -27 6.5t-65 5.5q-79 0 -142.5 -39.5t-92.5 -115.5h285l-25 -82h-280q-3 -18 -3 -46q0 -40 3 -49h261l-26 -84h-214q31 -73 93.5 -110.5t140.5 -37.5q60 0 91 13l25 -84
q-30 -9 -52.5 -12.5t-63.5 -3.5q-70 0 -137.5 26.5t-120 79.5t-76.5 129h-100v84h82q-3 7 -3 49q0 41 3 46z" />
    <glyph glyph-name="minus.tf" 
d="M114 367h423v-79h-423v79z" />
    <glyph glyph-name="approxequal.tf" 
d="M510 362.5q-37 -21.5 -81 -21.5q-47 0 -100 30l-47 26q-32 17 -62 17q-52 0 -91 -45l-53 47q59 85 143 85q25 0 49.5 -7.5t53.5 -23.5l46 -25q35 -20 70 -20q48 0 86 44l51 -45q-28 -40 -65 -61.5zM510 168.5q-37 -21.5 -81 -21.5q-47 0 -100 30l-47 26q-32 17 -62 17
q-52 0 -91 -45l-53 47q59 85 143 85q25 0 49.5 -7.5t53.5 -23.5l46 -25q35 -20 70 -20q48 0 86 44l51 -45q-28 -40 -65 -61.5z" />
    <glyph glyph-name="notequal.tf" 
d="M211 91h-96l74 100h-95v79h153l85 116h-238v77h295l73 99h96l-73 -99h72v-77h-129l-85 -116h214v-79h-272z" />
    <glyph glyph-name="lessequal.tf" 
d="M535 575v-84l-307 -104l307 -104v-84l-412 145v85zM535 91h-412v79h412v-79z" />
    <glyph glyph-name="greaterequal.tf" 
d="M123 199v84l307 104l-307 104v84l412 -146v-85zM535 91h-412v79h412v-79z" />
    <glyph glyph-name="parenleft.case" horiz-adv-x="297" 
d="M106.5 599q51.5 111 135.5 195l55 -49q-80 -89 -120.5 -182.5t-40.5 -210.5q0 -118 40.5 -211t120.5 -182l-55 -49q-85 85 -136 195t-51 247q0 136 51.5 247z" />
    <glyph glyph-name="parenright.case" horiz-adv-x="297" 
d="M191 105q-51 -110 -136 -195l-55 49q80 89 120.5 182t40.5 211q0 117 -40.5 210.5t-120.5 182.5l55 49q84 -84 135.5 -195t51.5 -247q0 -137 -51 -247z" />
    <glyph glyph-name="hyphen.case" horiz-adv-x="361" 
d="M45 378h271v-82h-271v82z" />
    <glyph glyph-name="bracketleft.case" horiz-adv-x="288" 
d="M90 800h193v-76h-111v-739h111v-75h-193v890z" />
    <glyph glyph-name="bracketright.case" horiz-adv-x="288" 
d="M5 -15h111v739h-111v76h193v-890h-193v75z" />
    <glyph glyph-name="braceleft.case" horiz-adv-x="353" 
d="M124.5 421.5q30.5 24.5 30.5 76.5v116q0 93 46 139.5t134 46.5h13v-75h-13q-55 0 -76.5 -24.5t-21.5 -80.5v-143q0 -50 -27.5 -82t-76.5 -41q49 -9 76.5 -41t27.5 -82v-141q0 -56 21.5 -80.5t76.5 -24.5h13v-75h-13q-88 0 -134 46.5t-46 139.5v114q0 52 -30.5 76.5
t-79.5 24.5v86q49 0 79.5 24.5z" />
    <glyph glyph-name="braceright.case" horiz-adv-x="353" 
d="M228.5 286.5q-30.5 -24.5 -30.5 -76.5v-114q0 -93 -46 -139.5t-134 -46.5h-13v75h13q55 0 76.5 24.5t21.5 80.5v141q0 50 27.5 82t76.5 41q-49 9 -76.5 41t-27.5 82v143q0 56 -21.5 80.5t-76.5 24.5h-13v75h13q88 0 134 -46.5t46 -139.5v-116q0 -52 30.5 -76.5
t79.5 -24.5v-86q-49 0 -79.5 -24.5z" />
    <glyph glyph-name="exclamdown.case" horiz-adv-x="311" 
d="M109 693.5q19 19.5 46 19.5t46.5 -19.5t19.5 -46.5t-19.5 -46t-46.5 -19t-46 19t-19 46t19 46.5zM96 0l26 505h67l25 -505h-118z" />
    <glyph glyph-name="guillemotleft.case" horiz-adv-x="471" 
d="M30 340l133 191h93l-131 -191l131 -191h-93zM225 340l133 191h93l-131 -191l131 -191h-93z" />
    <glyph glyph-name="uni00AD.case" horiz-adv-x="361" 
d="M45 395h271v-82h-271v82z" />
    <glyph glyph-name="guillemotright.case" horiz-adv-x="471" 
d="M151 340l-131 191h93l133 -191l-133 -191h-93zM346 340l-131 191h93l133 -191l-133 -191h-93z" />
    <glyph glyph-name="questiondown.case" horiz-adv-x="510" 
d="M316 603.5q-19 -19.5 -46 -19.5t-46.5 19.5t-19.5 46.5t19.5 46t46.5 19t46 -19t19 -46t-19 -46.5zM315 473q0 -51 -19.5 -89t-63.5 -67l-44 -30q-26 -17 -39.5 -42.5t-13.5 -55.5q0 -48 31 -81t88 -33q61 0 93 37.5t32 90.5q0 30 -7 49l97 -12q6 -21 6 -48
q0 -49 -24.5 -96.5t-74 -78t-122.5 -30.5q-67 0 -117 28.5t-76 74.5t-26 98q0 107 102 174l46 31q22 15 33 40t11 56q0 12 -1 19h88q1 -12 1 -35z" />
    <glyph glyph-name="endash.case" horiz-adv-x="622" 
d="M55 378h512v-82h-512v82z" />
    <glyph glyph-name="emdash.case" horiz-adv-x="1083" 
d="M65 378h953v-82h-953v82z" />
    <glyph glyph-name="guilsinglleft.case" horiz-adv-x="276" 
d="M30 340l133 191h93l-131 -191l131 -191h-93z" />
    <glyph glyph-name="guilsinglright.case" horiz-adv-x="276" 
d="M151 340l-131 191h93l133 -191l-133 -191h-93z" />
    <glyph glyph-name="G.ss01" horiz-adv-x="767" 
d="M227.5 29q-81.5 44 -132 128t-50.5 198q0 113 50.5 197t132 128t173.5 44q118 0 202 -61t113 -164l-91 -31q-23 82 -80.5 124t-143.5 42q-68 0 -126.5 -31.5t-94 -94.5t-35.5 -153t35.5 -153.5t94 -95.5t126.5 -32q64 0 113 23.5t77.5 64t35.5 89.5h-286v88h385
q1 -8 1 -25q0 -92 -37 -166.5t-111 -118.5t-178 -44q-92 0 -173.5 44z" />
    <glyph glyph-name="Gcircumflex.ss01" horiz-adv-x="767" 
d="M339 878h120l117 -119h-92l-85 64l-81 -64h-91zM227.5 29q-81.5 44 -132 128t-50.5 198q0 113 50.5 197t132 128t173.5 44q118 0 202 -61t113 -164l-91 -31q-23 82 -80.5 124t-143.5 42q-68 0 -126.5 -31.5t-94 -94.5t-35.5 -153t35.5 -153.5t94 -95.5t126.5 -32
q64 0 113 23.5t77.5 64t35.5 89.5h-286v88h385q1 -8 1 -25q0 -92 -37 -166.5t-111 -118.5t-178 -44q-92 0 -173.5 44z" />
    <glyph glyph-name="Gbreve.ss01" horiz-adv-x="767" 
d="M315 772.5q-35 18.5 -54 48t-21 62.5h81q3 -22 21 -39t55 -17q36 0 54 17t21 39h81q-4 -53 -44 -91t-112 -38q-47 0 -82 18.5zM227.5 29q-81.5 44 -132 128t-50.5 198q0 113 50.5 197t132 128t173.5 44q118 0 202 -61t113 -164l-91 -31q-23 82 -80.5 124t-143.5 42
q-68 0 -126.5 -31.5t-94 -94.5t-35.5 -153t35.5 -153.5t94 -95.5t126.5 -32q64 0 113 23.5t77.5 64t35.5 89.5h-286v88h385q1 -8 1 -25q0 -92 -37 -166.5t-111 -118.5t-178 -44q-92 0 -173.5 44z" />
    <glyph glyph-name="Gdotaccent.ss01" horiz-adv-x="767" 
d="M351.5 863q18.5 19 44.5 19t45 -19t19 -45t-19 -44.5t-45 -18.5t-44.5 18.5t-18.5 44.5t18.5 45zM227.5 29q-81.5 44 -132 128t-50.5 198q0 113 50.5 197t132 128t173.5 44q118 0 202 -61t113 -164l-91 -31q-23 82 -80.5 124t-143.5 42q-68 0 -126.5 -31.5t-94 -94.5
t-35.5 -153t35.5 -153.5t94 -95.5t126.5 -32q64 0 113 23.5t77.5 64t35.5 89.5h-286v88h385q1 -8 1 -25q0 -92 -37 -166.5t-111 -118.5t-178 -44q-92 0 -173.5 44z" />
    <glyph glyph-name="Gcommaaccent.ss01" horiz-adv-x="767" 
d="M227.5 29q-81.5 44 -132 128t-50.5 198q0 113 50.5 197t132 128t173.5 44q118 0 202 -61t113 -164l-91 -31q-23 82 -80.5 124t-143.5 42q-68 0 -126.5 -31.5t-94 -94.5t-35.5 -153t35.5 -153.5t94 -95.5t126.5 -32q64 0 113 23.5t77.5 64t35.5 89.5h-286v88h385
q1 -8 1 -25q0 -92 -37 -166.5t-111 -118.5t-178 -44q-92 0 -173.5 44zM362.5 -50.5q17.5 14.5 41.5 14.5q25 0 45 -18.5t20 -54.5q0 -54 -34.5 -83t-79.5 -29v40q25 0 44 14.5t21 33.5q-2 -2 -8.5 -4t-12.5 -2q-24 0 -39 13t-15 38q0 23 17.5 37.5z" />
    <glyph glyph-name="a.ss02" horiz-adv-x="583" 
d="M360 11q-38 -24 -92 -24q-68 0 -120 34t-80 92.5t-28 130.5q0 68 29 125t81 91t118 34q58 0 95.5 -23.5t51.5 -57.5v68h93v-392q0 -44 5 -89h-91q-5 18 -5 65v8q-19 -38 -57 -62zM173.5 119q37.5 -49 103.5 -49q63 0 101 49t38 125t-37 121.5t-101 45.5q-65 0 -103.5 -46
t-38.5 -121q0 -76 37.5 -125z" />
    <glyph glyph-name="agrave.ss02" horiz-adv-x="583" 
d="M230 689l86 -146h-78l-126 146h118zM360 11q-38 -24 -92 -24q-68 0 -120 34t-80 92.5t-28 130.5q0 68 29 125t81 91t118 34q58 0 95.5 -23.5t51.5 -57.5v68h93v-392q0 -44 5 -89h-91q-5 18 -5 65v8q-19 -38 -57 -62zM173.5 119q37.5 -49 103.5 -49q63 0 101 49t38 125
t-37 121.5t-101 45.5q-65 0 -103.5 -46t-38.5 -121q0 -76 37.5 -125z" />
    <glyph glyph-name="aacute.ss02" horiz-adv-x="583" 
d="M213 543l87 146h118l-126 -146h-79zM360 11q-38 -24 -92 -24q-68 0 -120 34t-80 92.5t-28 130.5q0 68 29 125t81 91t118 34q58 0 95.5 -23.5t51.5 -57.5v68h93v-392q0 -44 5 -89h-91q-5 18 -5 65v8q-19 -38 -57 -62zM173.5 119q37.5 -49 103.5 -49q63 0 101 49t38 125
t-37 121.5t-101 45.5q-65 0 -103.5 -46t-38.5 -121q0 -76 37.5 -125z" />
    <glyph glyph-name="acircumflex.ss02" horiz-adv-x="583" 
d="M231 684h107l104 -139h-88l-70 81l-70 -81h-87zM360 11q-38 -24 -92 -24q-68 0 -120 34t-80 92.5t-28 130.5q0 68 29 125t81 91t118 34q58 0 95.5 -23.5t51.5 -57.5v68h93v-392q0 -44 5 -89h-91q-5 18 -5 65v8q-19 -38 -57 -62zM173.5 119q37.5 -49 103.5 -49
q63 0 101 49t38 125t-37 121.5t-101 45.5q-65 0 -103.5 -46t-38.5 -121q0 -76 37.5 -125z" />
    <glyph glyph-name="atilde.ss02" horiz-adv-x="583" 
d="M409.5 580.5q-26.5 -27.5 -70.5 -27.5q-31 0 -66 22l-14 9q-23 14 -37 14q-15 0 -22 -9.5t-7 -33.5h-72v15q0 54 27 81.5t71 27.5q32 0 67 -22l14 -9q12 -7 19.5 -10.5t16.5 -3.5q15 0 22 9.5t7 33.5h71v-15q0 -54 -26.5 -81.5zM360 11q-38 -24 -92 -24q-68 0 -120 34
t-80 92.5t-28 130.5q0 68 29 125t81 91t118 34q58 0 95.5 -23.5t51.5 -57.5v68h93v-392q0 -44 5 -89h-91q-5 18 -5 65v8q-19 -38 -57 -62zM173.5 119q37.5 -49 103.5 -49q63 0 101 49t38 125t-37 121.5t-101 45.5q-65 0 -103.5 -46t-38.5 -121q0 -76 37.5 -125z" />
    <glyph glyph-name="adieresis.ss02" horiz-adv-x="583" 
d="M146.5 662q16.5 17 40.5 17q25 0 42 -17t17 -41q0 -25 -17 -41.5t-42 -16.5q-24 0 -40.5 16.5t-16.5 41.5q0 24 16.5 41zM333.5 662q16.5 17 41.5 17q24 0 41 -17t17 -41q0 -25 -17 -41.5t-41 -16.5q-25 0 -41.5 16.5t-16.5 41.5q0 24 16.5 41zM360 11q-38 -24 -92 -24
q-68 0 -120 34t-80 92.5t-28 130.5q0 68 29 125t81 91t118 34q58 0 95.5 -23.5t51.5 -57.5v68h93v-392q0 -44 5 -89h-91q-5 18 -5 65v8q-19 -38 -57 -62zM173.5 119q37.5 -49 103.5 -49q63 0 101 49t38 125t-37 121.5t-101 45.5q-65 0 -103.5 -46t-38.5 -121
q0 -76 37.5 -125z" />
    <glyph glyph-name="aring.ss02" horiz-adv-x="583" 
d="M353 564q-33 -32 -79 -32q-45 0 -78 32t-33 77t33 77.5t78 32.5q46 0 79 -32t33 -78q0 -45 -33 -77zM308 675.5q-14 14.5 -35 14.5q-20 0 -33.5 -14.5t-13.5 -34.5t13.5 -34t33.5 -14q21 0 35 14t14 34t-14 34.5zM360 11q-38 -24 -92 -24q-68 0 -120 34t-80 92.5
t-28 130.5q0 68 29 125t81 91t118 34q58 0 95.5 -23.5t51.5 -57.5v68h93v-392q0 -44 5 -89h-91q-5 18 -5 65v8q-19 -38 -57 -62zM173.5 119q37.5 -49 103.5 -49q63 0 101 49t38 125t-37 121.5t-101 45.5q-65 0 -103.5 -46t-38.5 -121q0 -76 37.5 -125z" />
    <glyph glyph-name="amacron.ss02" horiz-adv-x="583" 
d="M131 658h273v-81h-273v81zM360 11q-38 -24 -92 -24q-68 0 -120 34t-80 92.5t-28 130.5q0 68 29 125t81 91t118 34q58 0 95.5 -23.5t51.5 -57.5v68h93v-392q0 -44 5 -89h-91q-5 18 -5 65v8q-19 -38 -57 -62zM173.5 119q37.5 -49 103.5 -49q63 0 101 49t38 125t-37 121.5
t-101 45.5q-65 0 -103.5 -46t-38.5 -121q0 -76 37.5 -125z" />
    <glyph glyph-name="abreve.ss02" horiz-adv-x="583" 
d="M197.5 565q-33.5 20 -51 52.5t-17.5 69.5h73q1 -26 19.5 -45.5t53.5 -19.5t52.5 19t20.5 46h73q0 -37 -17 -69.5t-50 -52.5t-79 -20q-44 0 -77.5 20zM360 11q-38 -24 -92 -24q-68 0 -120 34t-80 92.5t-28 130.5q0 68 29 125t81 91t118 34q58 0 95.5 -23.5t51.5 -57.5v68
h93v-392q0 -44 5 -89h-91q-5 18 -5 65v8q-19 -38 -57 -62zM173.5 119q37.5 -49 103.5 -49q63 0 101 49t38 125t-37 121.5t-101 45.5q-65 0 -103.5 -46t-38.5 -121q0 -76 37.5 -125z" />
    <glyph glyph-name="aogonek.ss02" horiz-adv-x="583" 
d="M381.5 -188.5q-33.5 27.5 -33.5 73.5q0 40 20 67t53 48q-4 16 -4 65v8q-19 -38 -57 -62t-92 -24q-68 0 -120 34t-80 92.5t-28 130.5q0 68 29 125t81 91t118 34q58 0 95.5 -23.5t51.5 -57.5v68h93v-392q0 -57 5 -89q-37 -19 -61 -41.5t-24 -55.5q0 -24 15 -35.5t38 -11.5
q21 0 32 4v-68q-21 -8 -50 -8q-48 0 -81.5 27.5zM173.5 119q37.5 -49 103.5 -49q63 0 101 49t38 125t-37 121.5t-101 45.5q-65 0 -103.5 -46t-38.5 -121q0 -76 37.5 -125z" />
    <glyph glyph-name="aringacute.ss02" horiz-adv-x="583" 
d="M228 769l87 146h118l-126 -146h-79zM348 554q-33 -32 -79 -32q-45 0 -78 32t-33 77t33 77.5t78 32.5q46 0 79 -32t33 -78q0 -45 -33 -77zM303 665.5q-14 14.5 -35 14.5q-20 0 -33.5 -14.5t-13.5 -34.5t13.5 -34t33.5 -14q21 0 35 14t14 34t-14 34.5zM360 11
q-38 -24 -92 -24q-68 0 -120 34t-80 92.5t-28 130.5q0 68 29 125t81 91t118 34q58 0 95.5 -23.5t51.5 -57.5v68h93v-392q0 -44 5 -89h-91q-5 18 -5 65v8q-19 -38 -57 -62zM173.5 119q37.5 -49 103.5 -49q63 0 101 49t38 125t-37 121.5t-101 45.5q-65 0 -103.5 -46
t-38.5 -121q0 -76 37.5 -125z" />
    <glyph glyph-name="r.ss03" horiz-adv-x="330" 
d="M195.5 465.5q20.5 20.5 50.5 20.5q29 0 49.5 -20.5t20.5 -50.5q0 -29 -20.5 -49.5t-49.5 -20.5q-30 0 -50.5 20.5t-20.5 49.5q0 30 20.5 50.5zM80 0v481h94v-481h-94z" />
    <glyph glyph-name="racute.ss03" horiz-adv-x="330" 
d="M90 543l87 146h118l-126 -146h-79zM195.5 465.5q20.5 20.5 50.5 20.5q29 0 49.5 -20.5t20.5 -50.5q0 -29 -20.5 -49.5t-49.5 -20.5q-30 0 -50.5 20.5t-20.5 49.5q0 30 20.5 50.5zM80 0v481h94v-481h-94z" />
    <glyph glyph-name="rcommaaccent.ss03" horiz-adv-x="330" 
d="M195.5 465.5q20.5 20.5 50.5 20.5q29 0 49.5 -20.5t20.5 -50.5q0 -29 -20.5 -49.5t-49.5 -20.5q-30 0 -50.5 20.5t-20.5 49.5q0 30 20.5 50.5zM80 0v481h94v-481h-94zM83.5 -50.5q17.5 14.5 41.5 14.5q25 0 45 -18.5t20 -54.5q0 -54 -34.5 -83t-79.5 -29v40q25 0 44 14.5
t21 33.5q-2 -2 -8.5 -4t-12.5 -2q-24 0 -39 13t-15 38q0 23 17.5 37.5z" />
    <glyph glyph-name="rcaron.ss03" horiz-adv-x="330" 
d="M192 606l70 81h88l-102 -142h-111l-102 142h87zM195.5 465.5q20.5 20.5 50.5 20.5q29 0 49.5 -20.5t20.5 -50.5q0 -29 -20.5 -49.5t-49.5 -20.5q-30 0 -50.5 20.5t-20.5 49.5q0 30 20.5 50.5zM80 0v481h94v-481h-94z" />
    <glyph glyph-name="ampersand.ss04" horiz-adv-x="677" 
d="M662 332v-89h-86v-10q0 -69 -30 -125.5t-87.5 -89.5t-137.5 -33q-76 0 -134 26.5t-90 74t-32 108.5q0 74 42.5 124.5t103.5 67.5q-50 18 -80.5 57.5t-30.5 97.5q0 50 27 92t75 66.5t106 24.5q106 0 159.5 -55t60.5 -138l-96 -17q-4 58 -34.5 90t-88.5 32q-46 0 -77.5 -28
t-31.5 -72q0 -33 17 -56.5t42 -35t49 -11.5h13v-90q-61 0 -108.5 -34t-47.5 -107q0 -33 18 -62t53.5 -47t85.5 -18q72 0 113.5 42.5t41.5 115.5v10h-90v89h275z" />
    <glyph glyph-name="one.ss05" horiz-adv-x="502" 
d="M231 507h-173v69q72 2 120.5 38.5t61.5 94.5h86v-619h171v-90h-447v90h181v417z" />
    <glyph glyph-name="registered.ss06" horiz-adv-x="429" 
d="M50.5 620.5q25.5 43.5 69 69t94.5 25.5t95 -25.5t69.5 -69t25.5 -94.5t-25.5 -94.5t-69.5 -69t-95 -25.5t-94.5 25.5t-69 69t-25.5 94.5t25.5 94.5zM92.5 454q18.5 -33 50.5 -52t71 -19t71.5 19t51 52t18.5 72t-18.5 72t-51 52t-71.5 19t-71 -19t-50.5 -52t-18.5 -72
t18.5 -72zM197 495v-65h-52v196h83q29 0 48.5 -19t19.5 -46q0 -18 -10 -32.5t-26 -23.5l36 -75h-54l-30 65h-15zM235.5 543.5q7.5 6.5 7.5 17.5t-7 16.5t-19 5.5h-20v-46h20q11 0 18.5 6.5z" />
    <glyph glyph-name="daggerdbl.ss08" horiz-adv-x="426" 
d="M172 479h-127v81h127v149h82v-149h127v-81h-127v-249h127v-81h-127v-149h-82v149h-127v81h127v249z" />
    <glyph glyph-name="caron.alt" horiz-adv-x="203" 
d="M35 530l28 179h105l-64 -179h-69z" />
    <glyph glyph-name="uni0326" unicode="&#x326;" horiz-adv-x="0" 
d="M-141.5 696.5q17.5 14.5 41.5 14.5q25 0 45 -18.5t20 -54.5q0 -54 -34.5 -83t-79.5 -29v40q25 0 44 14.5t21 33.5q-6 -6 -21 -6q-24 0 -39 13t-15 38q0 23 17.5 37.5z" />
    <glyph glyph-name="commaturn" horiz-adv-x="172" 
d="M132 548.5q-17 -14.5 -42 -14.5t-45 18.5t-20 54.5q0 34 16.5 59.5t43 39t54.5 13.5v-40q-25 0 -44 -14.5t-21 -33.5q2 2 7.5 4t13.5 2q24 0 39 -13.5t15 -37.5q0 -23 -17 -37.5z" />
    <glyph glyph-name="dieresis.narrow" horiz-adv-x="294" 
d="M38 659.5q15 15.5 38 15.5t38.5 -15.5t15.5 -38.5t-15.5 -38t-38.5 -15t-38 15t-15 38t15 38.5zM179 659.5q15 15.5 38 15.5t38.5 -15.5t15.5 -38.5t-15.5 -38t-38.5 -15t-38 15t-15 38t15 38.5z" />
    <glyph glyph-name="dieresis.uc.narrow" horiz-adv-x="310" 
d="M40 857q15 15 38 15t38.5 -15t15.5 -38t-15.5 -38.5t-38.5 -15.5t-38 15.5t-15 38.5t15 38zM193.5 857q15.5 15 38.5 15t38 -15t15 -38t-15 -38.5t-38 -15.5t-38.5 15.5t-15.5 38.5t15.5 38z" />
    <glyph glyph-name="grave.uc" horiz-adv-x="273" 
d="M147 878l102 -119h-93l-138 119h129z" />
    <glyph glyph-name="dieresis.uc" horiz-adv-x="407" 
d="M46 861q17 17 42 17t42 -17t17 -42t-17 -42t-42 -17t-42 17t-17 42t17 42zM277 861q17 17 42 17t42 -17t17 -42t-17 -42t-42 -17t-42 17t-17 42t17 42z" />
    <glyph glyph-name="macron.uc" horiz-adv-x="343" 
d="M25 862h293v-83h-293v83z" />
    <glyph glyph-name="acute.uc" horiz-adv-x="273" 
d="M24 759l101 119h130l-137 -119h-94z" />
    <glyph glyph-name="circumflex.uc" horiz-adv-x="403" 
d="M141 878h120l117 -119h-92l-85 64l-81 -64h-91z" />
    <glyph glyph-name="caron.uc" horiz-adv-x="403" 
d="M201 814l85 64h92l-117 -119h-120l-112 119h91z" />
    <glyph glyph-name="breve.uc" horiz-adv-x="371" 
d="M104 772.5q-35 18.5 -54 48t-21 62.5h81q3 -22 21 -39t55 -17q36 0 54 17t21 39h81q-4 -53 -44 -91t-112 -38q-47 0 -82 18.5z" />
    <glyph glyph-name="dotaccent.uc" horiz-adv-x="177" 
d="M43.5 863q18.5 19 44.5 19t45 -19t19 -45t-19 -44.5t-45 -18.5t-44.5 18.5t-18.5 44.5t18.5 45z" />
    <glyph glyph-name="ring.uc" horiz-adv-x="273" 
d="M215 771q-33 -32 -79 -32q-45 0 -78 32t-33 77t33 77.5t78 32.5q46 0 79 -32t33 -78q0 -45 -33 -77zM169 881.5q-14 13.5 -34 13.5t-33 -13.5t-13 -33.5t13 -33t33 -13t34 13t14 33t-14 33.5z" />
    <glyph glyph-name="tilde.uc" horiz-adv-x="373" 
d="M323 782.5q-26 -28.5 -70 -28.5q-40 0 -71 23l-15 10q-23 14 -37 14q-35 0 -35 -44h-68v16q0 54 26.5 82.5t70.5 28.5q35 0 73 -23l15 -9q10 -6 19.5 -10t18.5 -4q32 0 32 35v8h67v-16q0 -54 -26 -82.5z" />
    <glyph glyph-name="hungarumlaut.uc" horiz-adv-x="367" 
d="M25 759l61 119h105l-96 -119h-70zM166 759l71 119h105l-106 -119h-70z" />
    <glyph glyph-name="caron.alt.uc" horiz-adv-x="203" 
d="M35 519l30 190h111l-68 -190h-73z" />
    <glyph glyph-name="undercommaaccent" horiz-adv-x="174" 
d="M42.5 -50.5q17.5 14.5 41.5 14.5q25 0 45 -18.5t20 -54.5q0 -54 -34.5 -83t-79.5 -29v40q25 0 44 14.5t21 33.5q-2 -2 -8 -4t-13 -2q-24 0 -39 13t-15 38q0 23 17.5 37.5z" />
    <glyph glyph-name="uF6001" unicode="&#xf6001;" horiz-adv-x="466" 
d="M446 76q0 -9 -5 -14l-51 -60q-7 -7 -15 -7h-1q-9 0 -15 6q-71 64 -125.5 123.5t-77.5 89.5q-135 170 -135 288q0 67 27 119t75 81t109 29q44 0 82.5 -16t67.5 -45q61 -64 61 -168q0 -115 -130 -283q-2 0 0 -2q62 -68 126 -126q7 -6 7 -15zM312 498q0 49 -24 73
q-21 22 -56 22q-37 0 -58 -25.5t-21 -69.5q0 -61 79 -167q80 106 80 167zM144 187q43 -54 43 -88q0 -22 -15 -37q-29 -29 -65 -61q-6 -6 -14 -6h-2q-8 0 -15 7l-51 60q-5 5 -5 14t7 15q56 51 99 97q4 4 9 4q6 0 9 -5z" />
    <glyph glyph-name="uF5005" unicode="&#xf5005;" horiz-adv-x="681" 
d="M648.5 134.5q-13.5 -13.5 -33.5 -13.5h-7l27 -61q3 -7 3 -14q0 -9 -5 -16.5t-13 -11.5q-6 -3 -13 -3q-9 0 -17 5t-12 14l-39 87h-395l-39 -87q-4 -9 -12 -14t-17 -5q-7 0 -13 3q-9 4 -14 12t-5 17q0 7 3 13l28 61h-10q-20 0 -33 13.5t-12 32.5l39 501q2 18 19 28
q31 16 95 29.5t161 14.5h12q98 -1 162.5 -14.5t93.5 -29.5q17 -10 19 -28l40 -501q1 -19 -12.5 -32.5zM130 614h421l-2 25q-75 26 -204 27h-10q-129 -1 -204 -27zM303 540h-179l-11 -139h190v139zM377 401h191l-11 139h-180v-139zM178 267.5q12 12.5 12 29.5t-12 29.5
t-30 12.5q-17 0 -29 -12.5t-12 -29.5t12 -29.5t29 -12.5q18 0 30 12.5zM561.5 267.5q12.5 12.5 12.5 29.5t-12.5 29.5t-29.5 12.5t-29.5 -12.5t-12.5 -29.5t12.5 -29.5t29.5 -12.5t29.5 12.5zM500.5 54.5q9.5 -9.5 9.5 -22.5t-9 -22.5t-23 -9.5h-278q-13 0 -22 9.5t-9 22.5
t9 22.5t22 9.5h278q13 0 22.5 -9.5z" />
    <glyph glyph-name="uF1002" unicode="&#xf1002;" horiz-adv-x="657" 
d="M637 96q0 -12 -6 -22t-16 -15l-121 -60q-7 -4 -18 -4q-4 0 -12 2q-15 5 -23 20l-153 307q-33 -10 -61 -10q-20 0 -36 4q-64 13 -110.5 57.5t-58.5 112.5q-2 11 -2 32q0 50 23 96t63 76q56 42 127 42q60 0 112 -31.5t79 -86.5q20 -39 20 -86q0 -51 -23 -99
q-20 -41 -62 -72l57 -114l88 45q8 4 17 4q12 0 22 -6t14 -16q4 -8 4 -18q0 -11 -5.5 -21t-15.5 -14l-89 -45l43 -86l85 42q8 4 18 4q11 0 21 -5.5t15 -15.5q4 -8 4 -17zM240 571.5q8 12.5 8 27.5q0 24 -16 39t-37 15q-24 0 -39.5 -16t-15.5 -38q0 -24 16 -38.5t37 -14.5
q13 0 25 6q14 7 22 19.5z" />
    <glyph glyph-name="uF5003" unicode="&#xf5003;" horiz-adv-x="843" 
d="M814.5 597q8.5 -8 8.5 -20v-91q0 -12 -8.5 -20t-19.5 -8h-50v-320q0 -28 -20 -48.5t-49 -20.5h-7v-32q0 -17 -12.5 -29.5t-29.5 -12.5q-18 0 -30.5 12.5t-12.5 29.5v32h-321v-32q0 -17 -12.5 -29.5t-30.5 -12.5q-17 0 -29.5 12.5t-12.5 29.5v32h-11q-28 0 -48.5 20.5
t-20.5 48.5v320h-50q-11 0 -19.5 8t-8.5 20v91q0 12 8.5 20t19.5 8h52q2 29 18 52t41 34q97 42 263 42q165 0 258 -40q27 -11 44 -34.5t19 -53.5h52q11 0 19.5 -8zM327.5 622.5q-8.5 -8.5 -8.5 -19.5q0 -12 8.5 -20.5t19.5 -8.5h147q12 0 20 8.5t8 20.5q0 11 -8 19.5
t-20 8.5h-147q-11 0 -19.5 -8.5zM400 489h-219q-7 0 -7 -7v-126q0 -3 2 -5.5t5 -2.5h219v141zM669 484q0 5 -5 5h-222v-141h222q5 0 5 6v130zM233 229.5q10 10.5 10 24.5t-10 24.5t-25 10.5q-14 0 -24 -10.5t-10 -24.5t10 -24.5t24 -10.5q15 0 25 10.5zM659 229.5
q10 10.5 10 24.5t-10 24.5t-24 10.5q-15 0 -25 -10.5t-10 -24.5t10 -24.5t25 -10.5q14 0 24 10.5z" />
    <glyph glyph-name="uF2001" unicode="&#xf2001;" horiz-adv-x="453" 
d="M179.5 780.5q12.5 -12.5 12.5 -29.5t-12.5 -29.5t-29.5 -12.5t-29.5 12.5t-12.5 29.5t12.5 29.5t29.5 12.5t29.5 -12.5zM430.5 610.5q2.5 -2.5 2.5 -6.5l-42 -590q0 -6 -4.5 -10t-10.5 -4h-305q-6 0 -10.5 4t-4.5 11l-36 589q0 4 2.5 6.5t5.5 2.5h206v7q0 23 16.5 40
t40.5 17t41 -17t17 -40v-7h76q3 0 5.5 -2.5zM358 537q0 7 -7 7h-250q-3 0 -5.5 -2.5t-1.5 -5.5l4 -79q128 0 255 -3l5 82v1z" />
    <glyph glyph-name="uF1401" unicode="&#xf1401;" horiz-adv-x="842" 
d="M319 669q-4 20 -4 29q0 29 13.5 54.5t35.5 42.5q12 9 20 9q5 0 7 -4.5t4 -15.5q1 -7 2.5 -14t6.5 -10t25.5 -15t31.5 -27q13 -18 13 -46l-1 -12q-1 -8 -5.5 -15.5t-11.5 -12.5l-37 -26q-11 -8 -24 -8q-6 0 -10 1q-12 2 -24 10t-19 16q-17 18 -23 44zM822 168
q0 -24 -22 -41q-14 -12 -31 -12q-33 0 -65 46q-71 101 -233 346l-38 57q-3 6 2 11l48 35q7 3 11 -2l20 -25q210 -257 283 -355q25 -33 25 -60zM515 227l29 1q10 0 17 -3t13 -11q11 -17 11 -37q0 -40 -39.5 -83t-103.5 -71t-132 -28q-85 0 -152 46q-68 46 -103 114t-35 141
q0 79 39 142.5t108 86.5q39 13 75 13q69 0 128 -51q45 -40 61 -82t24 -98q5 -32 9.5 -47t16.5 -24t34 -9zM256 383q13 13 13 32t-13 32.5t-32 13.5t-32.5 -13.5t-13.5 -32.5t13.5 -32t32.5 -13t32 13zM161.5 257.5q11.5 11.5 11.5 27.5t-11.5 27t-27.5 11t-27.5 -11
t-11.5 -27t11.5 -27.5t27.5 -11.5t27.5 11.5zM238.5 126.5q11.5 11.5 11.5 27.5t-11.5 27.5t-27.5 11.5t-27 -11.5t-11 -27.5t11 -27.5t27 -11.5t27.5 11.5z" />
    <glyph glyph-name="uF5002" unicode="&#xf5002;" horiz-adv-x="915" 
d="M802 344.5q43 -25.5 68 -68.5t25 -94t-25.5 -94t-68.5 -68t-94 -25t-94 25.5t-68 68.5t-25 94q0 53 28 97.5t74 68.5l-21 43q-8 16 -27 16h-146q-9 0 -15 -6t-6 -15q0 -6 3 -12l80 -130q5 -8 5 -16q0 -16 -15 -26q-8 -5 -17 -5q-17 0 -26 15l-176 284h-59q-13 0 -22 9
t-9 22t9 22t22 9h165q13 0 22 -9t9 -22t-9 -22t-22 -9h-33l17 -27h221l-37 112q-2 4 -2 12q0 11 6 19.5t17 12.5q6 3 12 3h126q33 0 56.5 -23.5t23.5 -56.5q0 -18 -7 -32q-4 -8 -11.5 -13t-16.5 -5q-5 0 -13 2q-8 4 -13 12t-5 17q0 6 3 12q1 2 1 7q0 8 -5 13t-13 5h-80
l66 -199q18 2 28 2q51 0 94 -25.5zM302 344.5q43 -25.5 68 -68.5t25 -94t-25.5 -94t-68.5 -68t-94 -25t-94 25.5t-68 68.5t-25 94t25.5 94t68.5 68t94 25t94 -25.5z" />
    <glyph glyph-name="uF4002" unicode="&#xf4002;" horiz-adv-x="568" 
d="M525 666q-7 12 -21 16l-213 53q-3 1 -8 1q-12 0 -24 -10q-8 -8 -9 -16q-1 -1 -0.5 -2t-0.5 -2l-33 24q-8 7 -21 7t-23 -10l-4 -4q-7 -10 -7 -21q0 -16 14 -27l226 -164q9 -6 19 -6q18 0 29 14q7 11 7 20q0 18 -15 28l-126 91l172 -43q14 -3 26 4.5t16 21.5q3 13 -4 25z
M84 379q-3 4 -1 16q5 30 26.5 45t51.5 13q8 33 34 54t61 21q30 0 53.5 -17t35.5 -44q14 2 23 2q34 0 65.5 -16t45.5 -45q5 -12 5 -20q0 -6 -1 -9h-399zM513 172.5q-35 -59.5 -93 -94.5h12q16 0 27.5 -11.5t11.5 -27.5t-11 -27.5t-28 -11.5h-296q-16 0 -27.5 11.5t-11.5 27.5
t11.5 27.5t27.5 11.5h12q-58 35 -93 94.5t-35 130.5q0 12 8.5 20.5t20.5 8.5h470q12 0 20.5 -8.5t8.5 -20.5q0 -71 -35 -130.5z" />
    <glyph glyph-name="uF5001" unicode="&#xf5001;" horiz-adv-x="868" 
d="M803.5 366.5q26.5 -22.5 37.5 -54.5q7 -20 7 -49q0 -53 -22 -82v-48q0 -19 -13.5 -32.5t-32.5 -13.5h-14v-34q0 -24 -17 -41t-41 -17t-40.5 17t-16.5 41v34h-430v-34q0 -24 -17 -41t-41 -17t-40.5 17t-16.5 41v34h-14q-20 0 -33.5 13.5t-13.5 32.5v44q-12 14 -18.5 37
t-6.5 48q0 26 8 50q11 32 37 54.5t59 34.5q19 85 61.5 155t117.5 70h262q76 0 118.5 -70.5t60.5 -154.5q33 -12 59.5 -34.5zM281 549q-15 -9 -28 -30t-15 -39v-3q0 -9 7 -14q4 -3 8 -3q7 0 15 6q2 2 21.5 17t34.5 17q19 3 45 4t58 1q88 0 115 -5q21 -4 37.5 -17.5
t20.5 -16.5q9 -6 14 -6t9 3q8 5 7 19q-1 11 -14.5 35.5t-27.5 31.5q-23 13 -125 13h-36q-130 0 -146 -13zM583 341q7 4 7 11t-4.5 9t-12.5 2h-278q-13 0 -16 -6q-1 -2 -1 -5q0 -7 7 -11q42 -20 76.5 -31.5t72.5 -11.5t69.5 10.5t75.5 30.5zM128.5 224.5
q12.5 -12.5 30.5 -12.5t30.5 12.5t12.5 30.5t-12.5 30.5t-30.5 12.5t-30.5 -12.5t-12.5 -30.5t12.5 -30.5zM678.5 224.5q12.5 -12.5 30.5 -12.5t30.5 12.5t12.5 30.5t-12.5 30.5t-30.5 12.5t-30.5 -12.5t-12.5 -30.5t12.5 -30.5z" />
    <glyph glyph-name="uF2006" unicode="&#xf2006;" horiz-adv-x="462" 
d="M267.5 160.5q-4.5 -5.5 -4.5 -12.5v-72q0 -7 1 -9.5t6 -2.5h36q13 0 22 -9.5t9 -22.5t-9 -22.5t-22 -9.5h-150q-13 0 -22 9.5t-9 22.5t9 22.5t22 9.5h36q5 0 6 2.5t1 10.5v71q0 7 -4.5 12.5t-11.5 7.5q-71 17 -117 74t-46 131q0 57 30 106q28 51 28 108q0 33 -7 69
q-2 11 5 19.5t18 8.5h149l23 98q2 10 10.5 15.5t18.5 3.5l100 -19l-10 -49l-76 15l-15 -64h67q11 0 18 -8.5t5 -19.5q-8 -40 -8 -79q4 -43 37 -99q1 -1 1 -4q28 -49 28 -101q0 -74 -46 -131t-117 -74q-7 -2 -11.5 -7.5zM232 634h-102q-5 0 -5 -6q2 -10 2.5 -17t0.5 -12
q1 -17 13 -29t29 -12h44zM265 558h20q17 0 29 12t13 29l2 29q1 2 -1 4t-4 2h-41z" />
    <glyph glyph-name="uF2002" unicode="&#xf2002;" horiz-adv-x="649" 
d="M596.5 516.5q-32.5 -37.5 -80.5 -45.5q-12 -3 -24 -3q-21 0 -45 8l-126 -192q-14 -20 -14 -45v-151q0 -11 2 -14t11 -3h35q14 0 24.5 -10.5t10.5 -25.5q0 -14 -10.5 -24.5t-24.5 -10.5h-166q-15 0 -25.5 10.5t-10.5 24.5q0 15 10.5 25.5t25.5 10.5h34q9 0 11 2.5t2 13.5
v151q0 22 -13 45l-198 301q-5 8 -5 17q0 8 4 15t11.5 11.5t15.5 4.5h311q10 46 47 76.5t85 30.5q37 0 68 -18.5t49 -49.5t18 -67q0 -50 -32.5 -87.5zM350 458.5q18 9.5 29 26.5l56 85h-327l53 -84q11 -17 29 -27t39 -10h83q20 0 38 9.5z" />
    <glyph glyph-name="uF2004" unicode="&#xf2004;" horiz-adv-x="684" 
d="M104 632.5q-8 16.5 -9 30.5q-1 4 -1 12q0 18 8 35t22 30q7 7 17 7q13 0 20 -9q7 -7 7 -17q0 -12 -8 -20q-15 -13 -13 -33q1 -10 19 -34q26 -34 26 -67q0 -37 -30 -67q-7 -7 -18 -7q-13 0 -20 9q-7 7 -7 17q0 13 9 20q15 14 12 33q-1 7 -6 15.5t-12 17.5q-8 11 -16 27.5z
M233 630.5q-9 16.5 -11 29.5q-1 5 -1 16q0 35 26 63q8 8 19 8t18 -7q8 -10 8 -20q0 -11 -7 -18q-14 -13 -11 -33q2 -12 21 -34q22 -27 28 -54q1 -5 1 -16q0 -36 -26 -64q-7 -7 -18 -7q-12 0 -19 7q-8 7 -8 19q0 11 7 18q12 14 12 28q0 9 -5 17t-16 21q-9 10 -18 26.5z
M363 632.5q-8 16.5 -9 30.5q-1 4 -1 12q0 18 8 35t22 30q7 7 17 7q13 0 20 -9q7 -7 7 -17q0 -12 -8 -20q-15 -13 -13 -33q1 -10 19 -34q26 -34 26 -67q0 -37 -30 -67q-7 -7 -18 -7q-13 0 -20 9q-7 7 -7 17q0 13 9 20q15 14 12 33q-1 7 -6 15.5t-12 17.5q-8 11 -16 27.5z
M628 380q36 -36 36 -87t-36.5 -87t-87.5 -36q-11 0 -23 -22l-2 -2q-31 -68 -94 -109.5t-140 -41.5q-71 0 -131 35t-95 95t-35 131v138q0 9 6.5 15.5t15.5 6.5h499q51 0 87 -36zM589 251.5q16 17.5 16 41.5t-16 41.5t-40 20.5q-8 -2 -8 -25v-75q0 -23 9 -24q23 3 39 20.5z
" />
    <glyph glyph-name="uF2003" unicode="&#xf2003;" horiz-adv-x="484" 
d="M456.5 642q6.5 -7 5.5 -17l-41 -614q-1 -5 -4.5 -8t-8.5 -3h-340q-5 0 -8.5 3.5t-4.5 8.5l-35 614q-1 9 5.5 16t16.5 7h250l26 135q2 10 11 16.5t20 4.5l115 -23l-10 -52l-89 18l-20 -99h95q10 0 16.5 -7zM278 579h-165q-8 0 -13.5 -6t-4.5 -14l4 -69l161 -1zM381.5 573
q-5.5 6 -13.5 6h-37l-17 -91h67l6 71q0 8 -5.5 14z" />
    <glyph glyph-name="uF1303" unicode="&#xf1303;" horiz-adv-x="749" 
d="M729 241q0 -10 -20 -40t-37 -49q-7 -8 -20 -8q-11 0 -17 5l-212 132v-210h45q14 0 24.5 -10.5t10.5 -24.5t-10.5 -24.5t-24.5 -10.5h-158q-14 0 -24.5 10.5t-10.5 24.5t10.5 24.5t24.5 10.5h42v254l-78 49q-8 5 -15 1q-31 -11 -62 -11q-50 0 -91 25l-5 -7q-5 -7 -12 -10
q-6 -2 -10 -2q-9 0 -16 7q-9 8 -9 19q0 8 5 16l7 10q-22 25 -34 56t-12 64q0 56 32 101t82 64q28 11 62 11q36 0 68 -13l7 10q8 11 21 11q11 0 19 -8q7 -7 7 -17q0 -9 -5 -17q-2 -2 -1.5 -5t2.5 -5q27 -23 42.5 -55.5t17.5 -67.5q2 -21 18 -36l325 -250q12 -9 12 -24z
M307 547q-3 31 -23 56q-5 5 -11 5q-7 0 -12 -6l-101 -143q-2 -4 -2 -8q0 -5 3 -9t7 -5q17 -6 35 -6q13 0 25 3q5 2 8 6l69 97q4 5 2 10z" />
    <glyph glyph-name="uF3001" unicode="&#xf3001;" horiz-adv-x="527" 
d="M473.5 575q33.5 -39 33.5 -90v-421q0 -26 -19 -45t-45 -19h-359q-26 0 -45 19t-19 45v421q0 50 32 88.5t81 47.5v21q0 38 27.5 65.5t65.5 27.5h71q38 0 65.5 -27.5t27.5 -65.5v-20q50 -8 83.5 -47zM193 624h138v18q0 14 -10 23.5t-24 9.5h-71q-13 0 -23 -9.5t-10 -23.5
v-18zM428 309h-60v-87q0 -13 -8.5 -21.5t-21.5 -8.5q-12 0 -20.5 8.5t-8.5 21.5v87h-90v-87q0 -13 -9 -21.5t-21 -8.5q-13 0 -21.5 8.5t-8.5 21.5v87h-59v-105q0 -39 27 -66t66 -27h141q39 0 66.5 27t27.5 66v105z" />
    <glyph glyph-name="uF9001" unicode="&#xf9001;" horiz-adv-x="761" 
d="M350.5 159.5q13.5 14.5 11.5 34.5l-1 16q0 40 14.5 83.5t52 78t101.5 40.5q18 1 29.5 14.5t11.5 30.5q0 19 -14.5 33t-34.5 12q-7 -1 -20 -1q-62 0 -102 33t-58.5 76t-21.5 77q-2 18 -15 29.5t-30 11.5q-20 0 -33.5 -14.5t-11.5 -34.5q3 -37 -9.5 -85t-51 -87.5
t-107.5 -45.5q-18 -1 -29.5 -14.5t-11.5 -30.5q0 -19 14.5 -33t34.5 -12q7 1 20 1q62 0 102 -32.5t59 -75.5t22 -78q1 -18 14.5 -29.5t30.5 -11.5q20 0 33.5 14.5zM724 371.5q-17 17.5 -42 17.5t-42.5 -17.5t-17.5 -41.5q0 -25 17.5 -42.5t41.5 -17.5q25 0 42.5 17.5
t17.5 41.5q0 25 -17 42.5zM620 183.5q-33 32.5 -77 32.5q-47 0 -79 -33t-32 -77q0 -47 33 -79t77 -32q47 0 79 33t32 77q0 46 -33 78.5z" />
    <glyph glyph-name="uF1309" unicode="&#xf1309;" horiz-adv-x="817" 
d="M797 43q0 -17 -12.5 -30t-30.5 -13h-378q-29 0 -65.5 59.5t-88.5 164.5q-26 52 -39.5 76.5t-19.5 23.5q-12 -1 -21 -56.5t-22 -169.5q-7 -65 -8 -73q0 -7 -7 -16t-19 -9t-18.5 9t-6.5 16l-41 523q0 53 25 92.5t53 62.5q4 4 10 4q5 0 9 -3q48 -33 83 -79.5t53 -101.5l1 -3
q48 -139 90 -215t78 -104t72 -28q24 0 59 11q38 10 56 10q16 0 32 -6q46 -18 91.5 -55t61.5 -73q3 -7 3 -17z" />
    <glyph glyph-name="uF1301" unicode="&#xf1301;" horiz-adv-x="781" 
d="M761 77q0 -32 -33 -63q-19 -14 -46 -14h-455q-14 0 -24 10t-10 24t10 24t24 10h163q-35 29 -94 99l-245 283q-23 26 -23 59q0 26 16 45l18 20q30 35 65 72l43 44q30 31 41 40t25 9q10 0 15 -2q8 -2 23 -9q34 -18 37 -21l8 -6q26 -24 28 -64q3 -22 8 -35t11 -15t15.5 1
t15.5 5.5t9 3.5q17 8 28.5 11.5t20.5 0.5q10 -3 16 -7q19 -13 26.5 -36t5.5 -46v-14q-1 -25 7.5 -70t18.5 -74q17 -49 75 -121q23 -23 129 -113q28 -23 28 -51zM179 618l-11 -11q-15 -15 -60 -66l-22 -24q-2 -4 -2 -8q0 -11 9 -22l44 -50q56 50 56 117q0 34 -14 64z
M455.5 286q22.5 -15 52.5 -20q-29 56 -46.5 126.5t-14.5 130.5v5q0 14 -4 24l-12 -6q-27 -11 -48 -15q31 -165 43 -205q7 -25 29.5 -40zM140 58q10 -10 10 -24t-10 -24t-24 -10h-62q-14 0 -24 10t-10 24t10 24t24 10h62q14 0 24 -10z" />
    <glyph glyph-name="uF4003" unicode="&#xf4003;" horiz-adv-x="642" 
d="M491.5 609q5.5 -9 5.5 -19q0 -9 -4 -16l-150 -311q-13 -28 -36.5 -48t-52.5 -31l-102 -35l-64 -134q-4 -9 -13 -14.5t-19 -5.5q-9 0 -16 4q-20 9 -20 32q0 8 3 15l65 134l-35 101q-9 24 -9 51q0 34 16 68l150 311q4 9 13 14.5t19 5.5q9 0 16 -4q10 -4 15 -12.5t5 -18.5
q0 -9 -4 -16l-32 -68l23 -67l73 150q4 9 13 14.5t19 5.5q8 0 15 -3q20 -11 20 -33q0 -7 -3 -15l-73 -150l67 24l33 67q11 20 33 20q7 0 15 -3q9 -4 14.5 -13zM181 471q0 -9 3 -20l15 -42l29 60l-23 67l-18 -37q-6 -13 -6 -28zM359 461l-67 -23l-29 -60l42 14q25 9 37 33z
M162 332l-23 67l-22 -43q-4 -9 -4 -22q0 -10 2 -15l17 -48zM293 324l-67 -23l-30 -61l49 16q20 8 27 25zM492 141h128v-141h-51l-3 28q-8 -14 -26 -23.5t-44 -9.5q-52 0 -89 36.5t-37 98.5q0 40 18.5 71t49.5 47.5t67 16.5q48 0 77.5 -23t39.5 -56l-64 -21q-4 14 -17 25
t-37 11q-25 0 -45 -19t-20 -54t19.5 -54t46.5 -19q23 0 36.5 11t17.5 25h-67v50z" />
    <glyph glyph-name="uF1501" unicode="&#xf1501;" horiz-adv-x="705" 
d="M462 105.5q-34 -51.5 -70 -76.5q-50 -34 -113 -34l-19 1q-103 5 -185 100q-55 65 -55 145q0 26 3.5 39t3.5 14q9 32 31 92q23 61 35.5 105t14.5 99q1 11 8.5 17.5t16.5 6.5t16.5 -5.5t11.5 -15.5q15 -41 15 -85q0 -43 -15 -98q-1 -2 -4 -12.5t0 -12.5q5 -3 14.5 6.5
t18.5 26.5q28 49 76 120.5t87.5 128t50.5 72.5q9 12 24 12q11 0 19 -7q12 -9 12 -25q0 -9 -6 -18l-137 -217q-6 -9 -6 -18t5.5 -16t12.5 -7q10 0 18 11l178 261q9 12 25 12q9 0 18 -6q12 -9 12 -24q0 -10 -5 -18l-158 -249q-9 -13 -9 -27q0 -7 3.5 -12t8.5 -5q9 0 20 15
l143 204q10 13 25 13q10 0 19 -6q12 -9 12 -24q0 -9 -6 -18l-136 -204q-8 -12 -8 -25q0 -7 4 -12t10 -5q11 0 22 15l105 159q9 14 26 14q8 0 16 -5q7 -4 10.5 -11t3.5 -15q0 -9 -5 -17l-43 -63q-69 -106 -119 -203q-22 -41 -56 -92.5z" />
    <glyph glyph-name="uF8001" unicode="&#xf8001;" horiz-adv-x="755" 
d="M703 177q12 -16 12 -36q0 -27 -19 -46t-46 -19h-58l-12 -54q-2 -10 -13 -19.5t-29 -6.5l-86 20q-14 3 -21.5 15t-4.5 26l52 228q2 11 10 18t18 9q9 0 14 -1l86 -20l3 -1q6 32 8 57t1 56q-1 28 -8.5 55t-11.5 32q-26 -20 -57 -18q-37 3 -60 29q-22 25 -51 38.5t-62 15.5
q-69 -3 -114 -54q-23 -26 -60 -29q-31 -2 -57 18q-4 -6 -11.5 -31.5t-8.5 -55.5q-1 -10 -1 -27q0 -36 10 -86l3 1l86 20q5 1 14 1q10 -2 18 -9t10 -18l52 -228q3 -14 -4.5 -26t-21.5 -15l-87 -20q-3 -1 -9 -1q-14 0 -21.5 9t-10.5 18l-12 54h-58q-27 0 -46 19t-19 46
q0 20 12 36t31 23q-31 95 -31 179q0 19 1 28q4 89 50 163t121 118t164 46q88 -2 163.5 -46t121 -118t49.5 -163q1 -9 1 -28q0 -84 -31 -179q19 -7 31 -23z" />
    <glyph glyph-name="uF1311" unicode="&#xf1311;" horiz-adv-x="614" 
d="M561.5 366.5q-32.5 -55.5 -88 -88t-120.5 -32.5t-120.5 32.5t-88 88t-32.5 120.5t32.5 120.5t88 88t120.5 32.5t120.5 -32.5t88 -88t32.5 -120.5t-32.5 -120.5zM212 592q-3 -10 -3 -22q0 -23 20.5 -39.5t54.5 -22.5q23 -5 35 -24q9 -14 9 -29q0 -7 -3 -13
q-13 -24 -13 -43q0 -35 37 -83q1 -2 7.5 -10t14 -12.5t14.5 -3.5q9 2 12.5 9t4.5 15.5t2 13.5q3 22 19 39q23 25 31.5 38.5t8.5 26.5q0 11 -4 23q-9 29 -38 29l-18 -1l-11 -1q-11 0 -18 4q-9 8 -11 20q-1 4 -1 14q0 22 11 34q8 10 18.5 12t25.5 2h9q15 0 23 6q12 7 10 28
q0 10 -8 26q-7 13 -18 19q-37 20 -80 20q-38 0 -72 -15.5t-59 -43.5q-8 -10 -10 -16zM350 209q53 0 101.5 19t86.5 55q7 7 19 7t21 -9q7 -7 7 -18q0 -13 -9 -21q-40 -38 -91 -60t-106 -27v-4q0 -40 27.5 -67.5t66.5 -27.5q12 0 20 -8t8 -20q0 -11 -8 -19.5t-20 -8.5h-245
q-11 0 -19.5 8.5t-8.5 19.5q0 12 8.5 20t19.5 8q40 0 67.5 27.5t27.5 67.5v4q-81 7 -148.5 50t-109 112t-45.5 151v43q0 12 8 20t20 8q11 0 19.5 -8t8.5 -20v-42q2 -30 7 -52q17 -70 68.5 -123.5t121.5 -73.5q41 -11 77 -11z" />
    <glyph glyph-name="uF1001" unicode="&#xf1001;" horiz-adv-x="779" 
d="M754.5 516q4.5 -9 4.5 -18q0 -13 -8 -24q-12 -17 -32 -17h-61v-445q0 -5 -3.5 -8.5t-8.5 -3.5h-115q-4 0 -6.5 2.5t-2.5 6.5v193q0 24 -23 42t-49 18t-47.5 -18t-21.5 -42v-193q0 -4 -2.5 -6.5t-6.5 -2.5h-239q-5 0 -8.5 3.5t-3.5 8.5v445h-60q-9 0 -18 4.5t-15 12.5
q-8 11 -8 24q0 21 17 33l346 206q7 5 13 0l346 -206q8 -6 12.5 -15zM315.5 346.5q16.5 16.5 16.5 40.5t-16.5 40.5t-40.5 16.5t-40.5 -16.5t-16.5 -40.5t16.5 -40.5t40.5 -16.5t40.5 16.5z" />
    <glyph glyph-name="uF1404" unicode="&#xf1404;" horiz-adv-x="690" 
d="M670 85q0 -16 -1.5 -21.5t-6.5 -7.5t-21 -4q-21 -4 -27 -4q-150 -26 -249 -48l-20 -5l-20 5q-99 22 -249 48q-6 1 -27 4q-16 2 -21 4t-6.5 7.5t-1.5 21.5l7 475q0 23 3.5 28.5t19.5 5.5h12q2 0 42.5 -3t111.5 -17.5t129 -37.5q57 23 118.5 35.5t106 17t58.5 5.5h12
q15 0 19 -6t4 -28zM379 418q0 -3 2.5 -4.5t4.5 -0.5q81 26 183 39q2 0 3.5 2t0.5 4v34q0 2 -2 4t-4 1q-107 -13 -185 -44q-3 0 -3 -5v-30zM379 312q0 -7 7 -5q89 24 185 39q2 0 3 1.5t1 3.5v39q-2 6 -6 5q-103 -12 -187 -44q-3 -1 -3 -5v-34zM379 202q0 -2 2 -3.5t4 -0.5
q108 24 188 36q4 2 4 5l-1 45q0 5 -5 5q-99 -17 -189 -42q-3 -1 -3 -5v-40zM578 136v39q0 2 -3 2q-103 -18 -194 -38q-2 0 -2 -2v-38q0 -3 3 -3q102 22 194 37q2 0 2 3z" />
    <glyph glyph-name="uF1306" unicode="&#xf1306;" horiz-adv-x="869" 
d="M845 358q4 -9 4 -25t-4.5 -44t-6.5 -37q-14 -80 -19 -100q-17 -67 -65 -112t-113 -45q-54 0 -98 29t-67 76q-17 38 -42 38q-23 0 -42 -38q-22 -47 -66.5 -76t-98.5 -29q-64 0 -112 45t-66 112q-6 23 -18 100l-5 29q-7 39 -7 54q0 9 4 23q2 5 13 18q31 33 105.5 112.5
t139.5 151.5q10 10 25 10q13 0 26 -7t21 -18l19 -27q8 -8 8 -22q0 -15 -10 -24q-8 -8 -22 -8q-17 0 -25 11l-9 9q-7 9 -105 -132q-7 -10 -7 -18q0 -14 20 -15q45 -2 62 -6q35 -4 56 -21.5t53 -64.5l15 -24q8 -15 13.5 -21.5t12.5 -6.5t13 6.5t15 22.5q10 18 14 23
q33 48 53 65t55 21q17 4 62 6q21 2 21 14q0 8 -8 19q-98 141 -105 132l-9 -9q-8 -11 -25 -11q-13 0 -21 8q-11 8 -11 25q0 13 8 21l20 27q7 11 20 18t26 7q15 0 25 -10q67 -72 143 -153t105 -112q6 -7 10 -17zM144.5 105.5q34.5 -34.5 82.5 -34.5q49 0 83 34.5t34 82.5
q0 18 -7 39q-12 34 -42 56t-68 22t-68 -22t-42 -56q-7 -21 -7 -39q0 -48 34.5 -82.5zM559 105.5q34 -34.5 82 -34.5q49 0 83 34.5t34 82.5q0 18 -7 39q-12 34 -42 56t-68 22q-37 0 -67 -22t-42 -56q-7 -17 -7 -39q0 -48 34 -82.5z" />
    <glyph glyph-name="uF1405" unicode="&#xf1405;" horiz-adv-x="679" 
d="M655 460q4 -4 4 -10v-379q0 -29 -21 -50t-50 -21h-497q-29 0 -50 21t-21 50v491q0 5 5 7l60 17l501 148h3q8 0 10 -8l29 -111v-2q0 -3 -2 -6t-6 -4l-366 -110q-7 -3 -7 -5t1.5 -4t2.5 -4l4 -7q4 -6 8.5 -7.5t14.5 -1.5h367q6 0 10 -4zM88 439q0 -6 4 -7.5t14 -1.5h72
q6 0 6.5 1.5t-3.5 7.5l-18 25l-2 2l-28 40q-5 8 -12 8l-13 -2l-15 -4q-3 -1 -4 -5t-1 -9v-55zM591 339q0 4 -3 7t-8 3h-481q-5 0 -8 -3t-3 -7v-98q0 -4 3 -7t8 -3h481q5 0 8 3t3 7v98z" />
    <glyph glyph-name="uF1402" unicode="&#xf1402;" horiz-adv-x="668" 
d="M584.5 720.5q29.5 -17.5 46.5 -47t17 -63.5q0 -41 -23 -73t-60 -46q-7 -3 -11 -9.5t-4 -13.5v-453q0 -6 -4 -10.5t-10 -4.5h-403q-6 0 -10.5 4.5t-4.5 10.5v454q0 8 -4 14t-11 8q-37 15 -60 47.5t-23 72.5q0 53 37.5 90.5t90.5 37.5l372 -1q35 0 64.5 -17.5zM571 558.5
q21 21.5 21 51.5t-21 51t-51 21l-372 1q-30 0 -51 -21t-21 -51t21 -51t51 -21q18 0 30 8.5t12 21.5q0 14 -12 17h-33q-11 0 -19 8.5t-8 19.5q0 12 8 20t19 8l378 -1q11 0 19 -8.5t8 -19.5t-8 -19.5t-19 -8.5h-33q-12 -3 -12 -17q0 -13 12 -22t30 -9q30 0 51 21.5zM229 454
q-6 6 -14 6t-13.5 -6t-5.5 -14v-197q0 -8 5.5 -13.5t13.5 -5.5t14 5.5t6 13.5v197q0 8 -6 14zM350 454q-6 6 -14 6t-13.5 -6t-5.5 -14v-231q0 -8 5.5 -14t13.5 -6t14 6t6 14v231q0 8 -6 14zM466.5 454q-5.5 6 -13.5 6t-14 -6t-6 -14v-197q0 -8 6 -13.5t14 -5.5t13.5 5.5
t5.5 13.5v197q0 8 -5.5 14z" />
    <glyph glyph-name="uF1305" unicode="&#xf1305;" horiz-adv-x="636" 
d="M616 372v-223q0 -40 -31 -86q-25 -36 -58 -61t-70 -26q-39 0 -70 20.5t-44 56.5q-7 20 -7 42q0 50 35.5 85t84.5 35q44 0 96 -37v195q0 16 -7.5 23t-29.5 16l-118 50l-124 65h-3q-4 0 -7 -3t-3 -7v-207q0 -41 -31 -87q-25 -36 -58 -61t-70 -26q-39 0 -70 21t-43 56
q-7 21 -7 43q0 50 35 84.5t84 34.5q43 0 96 -36v346q0 13 10 20.5t22 3.5l169 -75l208 -79q11 -3 11 -14v-166v-3z" />
    </font>
</defs>
</svg>
