<?xml version="1.0" standalone="no"?>
<!DOCTYPE svg PUBLIC "-//W3C//DTD SVG 1.1//EN" "http://www.w3.org/Graphics/SVG/1.1/DTD/svg11.dtd" >
<svg xmlns="http://www.w3.org/2000/svg" xmlns:xlink="http://www.w3.org/1999/xlink" version="1.1">
<metadata>
Created by FontForge 20170924 at Tue Jul  4 17:04:04 2017
 By patjennings,,,
Copyright (c) 2017 by Alexander Slobzheninov. All rights reserved.
</metadata>
<defs>
<font id="FivoSansModern-ExtBlack-Oblique" horiz-adv-x="652" >
  <font-face 
    font-family="Fivo Sans Modern ExtBlk"
    font-weight="900"
    font-style="oblique"
    font-stretch="normal"
    units-per-em="1000"
    panose-1="0 0 0 0 0 0 0 0 0 0"
    ascent="800"
    descent="-200"
    x-height="500"
    cap-height="700"
    bbox="-105 -265 1409 978"
    underline-thickness="50"
    underline-position="925"
    unicode-range="U+000D-E133"
  />
<missing-glyph horiz-adv-x="200" 
 />
    <glyph glyph-name=".notdef" horiz-adv-x="200" 
 />
    <glyph glyph-name=".null" horiz-adv-x="0" 
 />
    <glyph glyph-name="nonmarkingreturn" horiz-adv-x="333" 
 />
    <glyph glyph-name="NULL" horiz-adv-x="754" 
d="M158 700h634l-98 -700h-634zM356 524l-49 -348h189l49 348h-189z" />
    <glyph glyph-name="NULL" horiz-adv-x="754" 
d="M158 700h634l-98 -700h-634zM356 524l-49 -348h189l49 348h-189z" />
    <glyph glyph-name="CR" unicode="&#xd;" horiz-adv-x="250" 
 />
    <glyph glyph-name="space" unicode=" " horiz-adv-x="300" 
 />
    <glyph glyph-name="exclam" unicode="!" horiz-adv-x="350" 
d="M204 206q65 0 91.5 -26.5t17.5 -83.5q-7 -56 -40.5 -81.5t-99.5 -25.5q-65 0 -90.5 25.5t-17.5 82.5t41 83t98 26zM149 698h249l-27 -190l-88 -246h-141l-20 246z" />
    <glyph glyph-name="quotedbl" unicode="&#x22;" horiz-adv-x="531" 
d="M337 700l-19 -140l-64 -264h-155l10 264l19 140h209zM599 700l-19 -140l-64 -264h-155l10 264l19 140h209z" />
    <glyph glyph-name="numbersign" unicode="#" horiz-adv-x="710" 
d="M332 0h-2l45 158h-55l-45 -158h-168l45 158h-102l20 140h122l20 70h-102l19 140h122l54 192h169l-54 -192h55l54 192h169l-54 -192h106l-19 -140h-126l-20 -70h106l-20 -140h-126l-45 -158h-168zM435 368h-55l-20 -70h55z" />
    <glyph glyph-name="dollar" unicode="$" horiz-adv-x="702" 
d="M246 -100v1l12 84q-118 13 -166 64.5t-34 150.5h236q-5 -35 13.5 -51.5t62.5 -16.5q72 0 78 48q4 24 -15 41t-51 28t-71 22t-77.5 26.5t-69.5 37.5t-46.5 60t-8.5 89q15 105 75.5 161t177.5 70l11 85h182l-11 -85q112 -13 157.5 -64.5t31.5 -150.5h-236q3 18 0 30.5
t-11 21t-22 12.5t-33 4q-62 0 -69 -48q-2 -17 17 -29.5t52 -21.5t72 -19t77.5 -27.5t69 -42t45.5 -67t7 -97.5q-15 -106 -78 -162t-184 -69l-12 -85h-182z" />
    <glyph glyph-name="percent" unicode="%" horiz-adv-x="956" 
d="M310 710q100 0 138 -48t23 -154q-14 -106 -66 -154t-152 -48t-138 48t-24 154q15 106 67 154t152 48zM269 422q13 0 26 22t18 64q5 30 2.5 49t-8.5 28t-13.5 9t-16 -8.5t-16.5 -29t-12 -48.5q-4 -30 -1.5 -49t8 -28t13.5 -9zM358 -30h-208l547 760h208zM800 390
q100 0 138 -48t23 -154q-14 -106 -66 -154t-152 -48t-138 48t-24 154q10 71 36.5 115.5t71 65.5t111.5 21zM759 102q8 0 16.5 8.5t16 29t11.5 48.5q5 30 2.5 49t-8.5 28t-13 9q-13 0 -26 -22t-19 -64q-4 -30 -1.5 -49t8 -28t13.5 -9z" />
    <glyph glyph-name="ampersand" unicode="&#x26;" horiz-adv-x="845" 
d="M843 2h-257l-34 36q-101 -56 -235 -56q-158 0 -218 45.5t-44 155.5q10 71 56 120.5t118 89.5q-45 72 -37 130q15 105 82.5 151.5t204.5 46.5q122 0 172.5 -38t37.5 -126q-4 -32 -19.5 -59.5t-41.5 -50.5t-51 -39.5t-61 -35.5l61 -68q6 19 15 47h182q-28 -107 -78 -182z
M451 145l-113 119q-26 -27 -31 -66q-5 -34 10 -49.5t61 -15.5q42 0 73 12zM425 481l-1 -1q21 10 34 20t22.5 23.5t12.5 29.5q5 40 -36 40q-46 0 -52 -44q-4 -33 20 -68z" />
    <glyph glyph-name="quotesingle" unicode="'" horiz-adv-x="269" 
d="M337 700l-19 -140l-64 -264h-155l10 264l19 140h209z" />
    <glyph glyph-name="parenleft" unicode="(" horiz-adv-x="342" 
d="M133 -200h-1q-11 24 -16 35.5t-19 49t-20.5 72t-14 83t-6.5 104.5t10 116q5 40 14 78.5t20.5 72.5t22.5 62.5t25.5 56.5t25.5 47.5t26 42t22.5 33t21 28t14.5 19.5h181q-18 -25 -29.5 -41.5t-37.5 -62t-44 -88.5t-37 -110t-29 -138t-10 -139.5t6 -116t17.5 -93t20 -68
t18.5 -43.5h-181z" />
    <glyph glyph-name="parenright" unicode=")" horiz-adv-x="342" 
d="M153 -200h-1h-181q20 27 40 60t50 92.5t54.5 140t37.5 167.5q8 60 9.5 115t-4 100t-11 79t-17 66.5t-17 46t-15.5 33.5h181q2 -2 10 -19.5t12.5 -28t13.5 -33t14.5 -42t12.5 -47.5t9.5 -56.5t4.5 -62.5t0 -72.5t-7 -78.5q-10 -71 -31.5 -140.5t-41 -114t-50 -95
t-41.5 -66t-32 -44.5z" />
    <glyph glyph-name="asterisk" unicode="*" horiz-adv-x="350" 
d="M282 400h-105l14 69l-63 -36l-39 80l79 35l-69 35l62 80l54 -38l5 74h101l-14 -72l64 38l40 -80l-80 -35l70 -35l-61 -80l-52 36z" />
    <glyph glyph-name="plus" unicode="+" horiz-adv-x="559" 
d="M585 330l-21 -152h-169l-25 -178h-182l25 178h-169l21 152h169l24 170h182l-24 -170h169z" />
    <glyph glyph-name="comma" unicode="," horiz-adv-x="288" 
d="M34 98q8 57 38.5 82.5t87.5 25.5q73 0 99.5 -41t13.5 -135q-11 -83 -43 -135t-88.5 -77.5t-140.5 -25.5l13 92q51 0 78 25t35 81q-58 0 -79.5 25.5t-13.5 82.5z" />
    <glyph glyph-name="hyphen" unicode="-" horiz-adv-x="369" 
d="M375 188h-330l22 152h330z" />
    <glyph glyph-name="period" unicode="." horiz-adv-x="289" 
d="M143 -10q-66 0 -91 25t-17 82t41 82.5t98 25.5t91 -25.5t18 -82.5q-8 -56 -41 -81.5t-99 -25.5z" />
    <glyph glyph-name="slash" unicode="/" horiz-adv-x="449" 
d="M338 700h209l-338 -700h-209z" />
    <glyph glyph-name="zero" unicode="0" horiz-adv-x="769" 
d="M485 720q186 0 257.5 -88t44.5 -282t-123.5 -282t-282.5 -88t-257.5 88t-44.5 282q28 195 124 282.5t282 87.5zM403 132q54 0 86.5 52t48.5 166t-1.5 166t-72.5 52t-87.5 -52t-48.5 -166q-11 -76 -6.5 -124.5t24.5 -71t57 -22.5z" />
    <glyph glyph-name="one" unicode="1" horiz-adv-x="436" 
d="M97 548l21 152h356l-98 -700h-236l77 548h-120z" />
    <glyph glyph-name="two" unicode="2" horiz-adv-x="611" 
d="M412 720q142 0 199 -55t40 -175q-4 -30 -9.5 -51.5t-15.5 -47.5t-26 -46t-40.5 -42.5t-59.5 -41.5t-81 -38t-108 -37t-139 -34h421l-21 -152h-541l35 250q85 19 159 54t129 88.5t63 113.5q9 62 -24 62q-23 0 -32.5 -21t-17.5 -77h-236q12 88 48 143t99 81t158 26z" />
    <glyph glyph-name="three" unicode="3" horiz-adv-x="668" 
d="M350 132q25 0 41.5 7t26 21.5t12.5 38.5q6 40 -10.5 58t-57.5 18h-60l23 164h61q38 0 59.5 18.5t25.5 50.5q9 60 -53 60q-36 0 -55.5 -21t-26.5 -67h-209q18 126 91 183t217 57t202.5 -45.5t44.5 -146.5q-4 -32 -12 -54.5t-25.5 -44.5t-45.5 -35.5t-72.5 -23
t-106.5 -12.5q69 -3 117 -12.5t74 -24t40.5 -34t15 -42.5t-2.5 -50q-15 -113 -93 -164t-232 -51q-166 0 -231 59t-47 191h223q-7 -51 9 -74.5t57 -23.5z" />
    <glyph glyph-name="four" unicode="4" horiz-adv-x="695" 
d="M424 700h259l-56 -400h70l-21 -152h-70l-21 -148h-236l21 148h-319l24 174zM268 300h1h122l22 154z" />
    <glyph glyph-name="five" unicode="5" horiz-adv-x="658" 
d="M376 548l-68 -208q36 75 80 107.5t114 32.5q98 0 138 -60t21 -190q-18 -131 -102.5 -190.5t-253.5 -59.5q-132 0 -188 52t-48 168h209q3 -35 17.5 -51.5t44.5 -16.5q36 0 56.5 23.5t27.5 74.5q5 34 0 55.5t-20 32t-41 10.5q-56 0 -72 -42h-195l130 414h449l-21 -152h-278
z" />
    <glyph glyph-name="six" unicode="6" horiz-adv-x="658" 
d="M331 -20q-154 0 -217 86.5t-36 273.5q28 200 112.5 290t244.5 90q123 0 181.5 -47.5t64.5 -152.5h-222q-5 60 -43 60q-68 0 -111 -304q0 4 1.5 11.5t8 28.5t14.5 40.5t23.5 43t34 40.5t47 28.5t60.5 11.5q105 0 145 -58.5t21 -191.5q-18 -131 -96 -190.5t-233 -59.5z
M380 328q-31 0 -47.5 -23t-24 -75t3 -75t41.5 -23q30 0 47 23.5t24 74.5t-3.5 74.5t-40.5 23.5z" />
    <glyph glyph-name="seven" unicode="7" horiz-adv-x="609" 
d="M624 390l-335 -390h-269l508 548h-424l21 152h542z" />
    <glyph glyph-name="eight" unicode="8" horiz-adv-x="688" 
d="M134 528q14 101 88 146.5t223 45.5t210 -45.5t47 -146.5q-7 -49 -32 -82.5t-70.5 -53.5t-114.5 -27q115 -11 162.5 -56t35.5 -129q-14 -105 -95.5 -152.5t-246.5 -47.5t-232.5 47.5t-53.5 152.5q12 84 72 129t178 56q-99 10 -140 49.5t-31 113.5zM296 210q-11 -78 66 -78
q78 0 89 78q5 41 -11 59.5t-56.5 18.5t-61.5 -18t-26 -60zM422 568q-61 0 -71 -70q-5 -37 7.5 -53.5t44.5 -16.5t49 16.5t22 53.5q10 70 -52 70z" />
    <glyph glyph-name="nine" unicode="9" horiz-adv-x="658" 
d="M424 720q153 0 216 -86.5t37 -273.5q-28 -200 -113 -290t-245 -90q-123 0 -181 47.5t-65 152.5h223q5 -60 44 -60q68 0 111 304q-1 -4 -2.5 -11.5t-7.5 -28.5t-14.5 -40.5t-24 -43t-34 -40.5t-46.5 -28.5t-61 -11.5q-105 0 -144.5 58.5t-20.5 191.5q19 131 96.5 190.5
t231.5 59.5zM374 372q21 0 35 10t23 31.5t14 56.5q7 52 -3 75t-41 23q-30 0 -47.5 -23.5t-24.5 -74.5t3.5 -74.5t40.5 -23.5z" />
    <glyph glyph-name="colon" unicode=":" horiz-adv-x="289" 
d="M35 97q5 38 21.5 61.5t45.5 34.5t73 11q65 0 90.5 -25.5t17.5 -82.5q-7 -56 -40.5 -81.5t-99.5 -25.5q-65 0 -90.5 25.5t-17.5 82.5zM216 498q65 0 91 -25.5t18 -82.5t-41 -82.5t-99 -25.5t-91.5 25.5t-17.5 82.5q8 56 41.5 82t98.5 26z" />
    <glyph glyph-name="semicolon" unicode=";" horiz-adv-x="289" 
d="M75 392q8 57 41 82.5t99 25.5t91.5 -25.5t17.5 -82.5q-8 -56 -41 -82t-99 -26q-65 0 -91 25.5t-18 82.5zM127 -10q-58 0 -79 26t-13 83q8 56 38 81.5t88 25.5q53 0 82 -22.5t33.5 -59.5t-1.5 -85q-18 -130 -82.5 -188.5t-190.5 -58.5l13 92q51 0 77.5 25t34.5 81z" />
    <glyph glyph-name="less" unicode="&#x3c;" horiz-adv-x="460" 
d="M40 73l50 354l410 73l-26 -187l-341 -63l323 -63l-26 -187z" />
    <glyph glyph-name="equal" unicode="=" horiz-adv-x="688" 
d="M691 238l-21 -152h-628l21 152h628zM720 444l-21 -152h-628l21 152h628z" />
    <glyph glyph-name="greater" unicode="&#x3e;" horiz-adv-x="460" 
d="M440 74l-410 -73l26 187l341 63l-323 63l26 187l390 -73z" />
    <glyph glyph-name="question" unicode="?" horiz-adv-x="609" 
d="M174 97q5 38 21.5 61.5t45.5 34.5t73 11q65 0 90.5 -25.5t17.5 -82.5q-7 -56 -40.5 -81.5t-99.5 -25.5q-65 0 -90.5 25.5t-17.5 82.5zM229 268q6 44 19 76.5t28.5 51.5t33.5 32.5t35.5 23t32 18.5t24.5 23.5t13 34.5t-7.5 29t-36 9t-40 -18.5t-19.5 -59.5h-222
q17 121 92 175.5t224 54.5t210 -45t47 -145q-6 -42 -25 -72.5t-44 -45.5t-53 -30t-52.5 -26t-42.5 -33t-22 -53h-195z" />
    <glyph glyph-name="at" unicode="@" horiz-adv-x="980" 
d="M571 339l71 120h125l-38 -270q-4 -28 2 -41t23 -13q23 0 37.5 27t22.5 87q21 151 -38.5 219.5t-211.5 68.5q-153 0 -232.5 -68.5t-100.5 -219.5q-21 -146 26 -212t171 -66q47 0 87 10t58.5 20.5t22.5 18.5l-19 -137q0 -3 -8 -7.5t-23 -10t-34.5 -10t-46 -8t-53.5 -3.5
q-212 0 -294.5 96t-52.5 310q31 218 154.5 317t366.5 99q240 0 335 -99t64 -317q-16 -114 -75.5 -172t-168.5 -58q-35 0 -62.5 3.5t-54.5 13t-44 25t-26 42t-7 62.5q-20 -65 -57.5 -95.5t-96.5 -30.5q-81 0 -110 50t-14 160q16 116 60 168t125 52q58 0 86.5 -31.5
t30.5 -99.5zM447 249q-13 -95 39 -95q28 0 44.5 23t23.5 72q7 48 -3.5 70t-38.5 22q-27 0 -42.5 -22t-22.5 -70z" />
    <glyph glyph-name="A" unicode="A" horiz-adv-x="789" 
d="M493 0h-1l-2 116h-171l-37 -116h-263l235 700h503l12 -700h-276zM480 621l-112 -353h119z" />
    <glyph glyph-name="B" unicode="B" horiz-adv-x="732" 
d="M420 359l-1 -1q80 -4 138 -13.5t92.5 -23.5t53.5 -35t24 -43.5t1 -52.5q-14 -100 -91 -145t-233 -45h-344l98 700h331q148 0 209 -40.5t48 -129.5q-5 -40 -22 -68t-53 -51t-98 -35.5t-153 -16.5zM384 152q61 0 70 62q4 26 0 42.5t-16.5 24t-34.5 7.5h-41l-19 -136h41z
M426 548h-28l-17 -120h28q23 0 36.5 16t17.5 50q8 54 -37 54z" />
    <glyph glyph-name="C" unicode="C" horiz-adv-x="812" 
d="M553 244h263q-44 -139 -138 -201.5t-256 -62.5q-207 0 -288 88t-54 282t133 282t313 88q171 0 247 -62.5t73 -201.5h-263q2 88 -83 88q-62 0 -96.5 -46t-48.5 -148t7.5 -148t83.5 -46q93 0 107 88z" />
    <glyph glyph-name="D" unicode="D" horiz-adv-x="789" 
d="M808 350q-26 -184 -128 -267t-302 -83h-318l98 700h318q201 0 279.5 -83t52.5 -267zM439 536h-42l-52 -372h42q62 0 96.5 44.5t48 141.5t-8.5 141.5t-84 44.5z" />
    <glyph glyph-name="E" unicode="E" horiz-adv-x="638" 
d="M683 536h-285l-13 -96h245l-23 -164h-245l-16 -112h285l-23 -164h-548l98 700h548z" />
    <glyph glyph-name="F" unicode="F" horiz-adv-x="628" 
d="M683 536h-285l-13 -96h245l-23 -164h-245l-39 -276h-263l98 700h548z" />
    <glyph glyph-name="G" unicode="G" horiz-adv-x="822" 
d="M458 266l22 152h371l-10 -68q-27 -194 -127.5 -282t-295.5 -88q-205 0 -285.5 88t-53.5 282t132.5 282t310.5 88q164 0 242 -57t85 -183h-249q-2 33 -26.5 48.5t-75.5 15.5q-60 0 -94 -46.5t-48 -147.5t7 -147.5t80 -46.5q63 0 95.5 26.5t40.5 83.5h-121z" />
    <glyph glyph-name="H" unicode="H" horiz-adv-x="782" 
d="M557 700h263l-98 -700h-263l40 288h-136l-40 -288h-263l98 700h263l-33 -236h136z" />
    <glyph glyph-name="I" unicode="I" horiz-adv-x="383" 
d="M158 700h263l-98 -700h-263z" />
    <glyph glyph-name="J" unicode="J" horiz-adv-x="625" 
d="M288 -20h-2q-143 0 -200.5 51.5t-41.5 166.5l8 58h251l-8 -58q-8 -54 14 -54t30 54l70 502h264l-70 -502q-16 -115 -91 -166.5t-224 -51.5z" />
    <glyph glyph-name="K" unicode="K" horiz-adv-x="828" 
d="M419 700l-44 -319l205 319h314l-231 -340l154 -360h-313l-133 341l-48 -341h-263l98 700h261z" />
    <glyph glyph-name="L" unicode="L" horiz-adv-x="598" 
d="M593 176l-25 -176h-508l98 700h263l-73 -524h245z" />
    <glyph glyph-name="M" unicode="M" horiz-adv-x="1090" 
d="M1127 700l-98 -700h-248l87 618l-162 -618h-325l13 612l-86 -612h-249l98 700h441l-39 -620l152 620h416z" />
    <glyph glyph-name="N" unicode="N" horiz-adv-x="884" 
d="M672 700h250l-98 -700h-418l-5 644l-91 -644h-250l98 700h417l7 -644z" />
    <glyph glyph-name="O" unicode="O" horiz-adv-x="842" 
d="M522.5 720q205.5 0 285.5 -88t53 -282t-132 -282t-310.5 -88t-286 88t-53.5 282t132.5 282t311 88zM497 544q-59 0 -93 -46.5t-48 -147.5q-7 -51 -5.5 -87.5t12.5 -60t30.5 -35t49.5 -11.5q40 0 67.5 20.5t46 63t27.5 110.5q10 67 3.5 110t-28.5 63.5t-62 20.5z" />
    <glyph glyph-name="P" unicode="P" horiz-adv-x="722" 
d="M767.5 466q-6.5 -45 -29.5 -85.5t-62 -74.5t-102 -54t-140 -20h-78l-33 -232h-263l98 700h341q78 0 135 -20t87 -54t41.5 -74.5t5 -85.5zM443 396q22 0 39.5 22t21 48t-8 48t-34.5 22h-64l-19 -140h65z" />
    <glyph glyph-name="Q" unicode="Q" horiz-adv-x="844" 
d="M536 -216l-91 197q-6 -1 -27 -1q-205 0 -285.5 88t-53.5 282t132.5 282t311 88t285.5 -88t53 -282q-21 -149 -89.5 -232t-198.5 -118h152l99 -216h-288zM497 544q-59 0 -93 -46.5t-48 -147.5q-7 -51 -5.5 -87.5t12.5 -60t30.5 -35t49.5 -11.5q59 0 93 46.5t48 147.5
q10 67 3.5 110t-28.5 63.5t-62 20.5z" />
    <glyph glyph-name="R" unicode="R" horiz-adv-x="769" 
d="M395 244h-1h-38l-34 -244h-263l98 700h348q78 0 135 -20t87 -54t41.5 -74.5t5.5 -85.5q-12 -80 -66.5 -136t-155.5 -76h102l84 -254h-275zM378 396h1h71q22 0 39.5 22t21 48t-8 48t-34.5 22h-71z" />
    <glyph glyph-name="S" unicode="S" horiz-adv-x="702" 
d="M362 520q-2 -17 17 -29.5t52 -21.5t72 -19t77.5 -27.5t69 -42t45.5 -67t7 -97.5q-17 -124 -101 -180t-253 -56t-237.5 52t-52.5 168h236q-5 -35 13.5 -51.5t62.5 -16.5q72 0 78 48q4 24 -15 41t-51 28t-71 22t-77.5 26.5t-69.5 37.5t-46.5 60t-8.5 89q17 124 99 180
t245.5 56t230 -52t49.5 -168h-236q3 18 0 30.5t-11 21t-22 12.5t-33 4q-62 0 -69 -48z" />
    <glyph glyph-name="T" unicode="T" horiz-adv-x="682" 
d="M759 700l-26 -188h-189l-72 -512h-263l72 512h-189l26 188h641z" />
    <glyph glyph-name="U" unicode="U" horiz-adv-x="762" 
d="M87 262l61 438h263l-61 -438q-8 -55 5 -80.5t48 -25.5t55 25.5t28 80.5l61 438h263l-61 -438q-21 -148 -109 -215t-262 -67t-243 67t-48 215z" />
    <glyph glyph-name="V" unicode="V" horiz-adv-x="755" 
d="M371 700l23 -583l187 583h263l-235 -700h-462l-39 700h263z" />
    <glyph glyph-name="W" unicode="W" horiz-adv-x="1131" 
d="M461 700h405l-37 -625l127 625h263l-183 -700h-414l26 631l-139 -631h-413l12 700h263l-47 -620z" />
    <glyph glyph-name="X" unicode="X" horiz-adv-x="783" 
d="M407 700l46 -269l133 269h275l-182 -340l95 -360h-289l-55 290l-145 -290h-275l193 360l-85 340h289z" />
    <glyph glyph-name="Y" unicode="Y" horiz-adv-x="743" 
d="M840 700l-175 -400h-121l-42 -300h-249l42 300h-121l-76 400h289l35 -384l143 384h275z" />
    <glyph glyph-name="Z" unicode="Z" horiz-adv-x="668" 
d="M680 370l-484 -206h465l-23 -164h-608l46 330l485 206h-446l23 164h588z" />
    <glyph glyph-name="bracketleft" unicode="[" horiz-adv-x="366" 
d="M158 700h305l-21 -152h-110l-84 -596h110l-21 -152h-305z" />
    <glyph glyph-name="backslash" unicode="\" horiz-adv-x="449" 
d="M98 700h209l142 -700h-209z" />
    <glyph glyph-name="bracketright" unicode="]" horiz-adv-x="366" 
d="M403 700l-126 -900h-305l21 152h110l84 596h-110l21 152h305z" />
    <glyph glyph-name="asciicircum" unicode="^" horiz-adv-x="542" 
d="M533 670l32 -350h-181l-26 305l-113 -305h-181l130 350h339z" />
    <glyph glyph-name="underscore" unicode="_" horiz-adv-x="520" 
d="M520 0l-21 -152h-520l21 152h520z" />
    <glyph glyph-name="grave" unicode="`" horiz-adv-x="352" 
d="M392 700l57 -150h-180l-111 150h234z" />
    <glyph glyph-name="a" unicode="a" horiz-adv-x="603" 
d="M381 0l-37 119q-21 -68 -60.5 -98t-108.5 -30q-77 0 -111.5 36.5t-23.5 115.5q14 96 82 137.5t207 41.5h42l3 18q7 54 -25 54q-31 0 -37 -44h-222q12 84 79 122t204.5 38t193 -46t40.5 -148l-44 -316h-182zM327 207q-42 0 -48 -42q-5 -35 25 -35q14 0 23.5 5.5t15.5 17
t9 30.5l3 24h-28z" />
    <glyph glyph-name="b" unicode="b" 
d="M434 -10q-44 0 -72 17t-41.5 53t-14.5 93l-74 -153h-182l98 700h236l-48 -346q24 81 65.5 118.5t106.5 37.5q69 0 108 -27t52 -84.5t-1 -148.5q-19 -137 -74.5 -198.5t-158.5 -61.5zM359 142q28 0 44.5 26t24.5 82q8 57 -1 82.5t-37.5 25.5t-45 -25.5t-24.5 -82.5
q-8 -56 1.5 -82t37.5 -26z" />
    <glyph glyph-name="c" unicode="c" horiz-adv-x="622" 
d="M394 196h236q-25 -108 -98.5 -157t-211.5 -49q-159 0 -221.5 61.5t-43.5 198.5t99 198.5t239 61.5q138 0 198 -49t54 -157h-236q0 19 -4 31t-13 17.5t-25 5.5q-32 0 -50 -25.5t-26 -82.5t3 -82.5t43 -25.5q15 0 25.5 5.5t18 17.5t13.5 31z" />
    <glyph glyph-name="d" unicode="d" 
d="M216 -10q-104 0 -142 61.5t-19 198t74.5 198.5t158.5 62q64 0 95 -37.5t33 -118.5l48 346h236l-98 -700h-182l-31 153q-24 -85 -66 -124t-107 -39zM329 142q28 0 44.5 26t24.5 82q8 57 -1 82.5t-37.5 25.5t-45 -25.5t-24.5 -82.5q-4 -28 -3.5 -48.5t5 -33.5t14 -19.5
t23.5 -6.5z" />
    <glyph glyph-name="e" unicode="e" horiz-adv-x="622" 
d="M630 198h-349q-6 -42 5 -61t41 -19q43 0 54 46h223q-27 -91 -97 -132.5t-197 -41.5q-153 0 -213.5 61.5t-41.5 198.5t97 198.5t231 61.5t213.5 -61t41.5 -195zM364 382q-30 0 -45 -16t-20 -52h110q5 35 -6 51.5t-39 16.5z" />
    <glyph glyph-name="f" unicode="f" horiz-adv-x="462" 
d="M529 548h-110q-24 0 -27 -18l-4 -30h133l-18 -128h-133l-52 -372h-236l52 372h-73l18 128h73l5 32q11 79 63.5 123.5t130.5 44.5h199z" />
    <glyph glyph-name="g" unicode="g" 
d="M215 -10q-99 0 -141 62.5t-23 196.5q19 135 77 197.5t157 62.5q43 0 71 -17t42 -52.5t14 -91.5l75 152h182l-63 -451q-19 -137 -97 -198.5t-231 -61.5q-129 0 -187.5 41.5t-57.5 132.5h223q0 -24 8.5 -35t32.5 -11q56 0 70 95l19 136q-24 -82 -65.5 -120t-105.5 -38z
M327 141q55 0 70 108q8 56 -1.5 82t-38.5 26q-19 0 -32.5 -11.5t-23 -35t-14.5 -61.5q-15 -108 40 -108z" />
    <glyph glyph-name="h" unicode="h" horiz-adv-x="632" 
d="M50 0h-1l98 700h236l-46 -327q22 71 57 104t89 33q94 0 129 -57t17 -183l-38 -270h-236l38 270q12 88 -26 88q-31 0 -43 -88l-38 -270h-236z" />
    <glyph glyph-name="i" unicode="i" horiz-adv-x="349" 
d="M292 0h-236l70 500h236zM139 636q8 53 41 77.5t98.5 24.5t91.5 -24.5t18 -77.5q-7 -54 -40 -78t-99 -24q-65 0 -91 24t-19 78z" />
    <glyph glyph-name="j" unicode="j" horiz-adv-x="353" 
d="M25 -28q11 0 22 11.5t14 28.5l68 488h236l-72 -512q-11 -79 -63 -123.5t-130 -44.5h-205l21 152h109zM251 534q-65 0 -90.5 24t-18.5 78q5 36 21.5 58t45 33t72.5 11q65 0 91 -24.5t18 -77.5q-7 -54 -40 -78t-99 -24z" />
    <glyph glyph-name="k" unicode="k" horiz-adv-x="687" 
d="M383 700l-59 -419l139 219h273l-164 -240l115 -260h-273l-94 241l-34 -241h-236l98 700h235z" />
    <glyph glyph-name="l" unicode="l" horiz-adv-x="336" 
d="M50 0l98 700h236l-98 -700h-236z" />
    <glyph glyph-name="m" unicode="m" horiz-adv-x="912" 
d="M361 358q-26 0 -38 -87l-38 -271h-236l70 500h182l35 -130q22 73 61 106.5t106 33.5q108 0 119 -127q23 66 62.5 96.5t99.5 30.5q79 0 111 -58t15 -182l-38 -270h-236l38 270q12 88 -20 88q-25 0 -37 -88l-38 -270h-236l38 270q12 88 -20 88z" />
    <glyph glyph-name="n" unicode="n" horiz-adv-x="632" 
d="M302 500l36 -129q14 48 35.5 78.5t50 45.5t66.5 15q91 0 124.5 -57t15.5 -183l-38 -270h-235l36 258q9 52 3.5 76t-28.5 24q-32 0 -44 -88l-38 -270h-236l70 500h182z" />
    <glyph glyph-name="o" unicode="o" horiz-adv-x="642" 
d="M392.5 510q158.5 0 221 -61.5t43.5 -198.5t-99 -198.5t-238.5 -61.5t-221 61.5t-43.5 198.5t99 198.5t238.5 61.5zM291 250q-8 -56 4 -82t46 -26t53 26t27 82t-4 82t-46 26q-33 0 -52.5 -26t-27.5 -82z" />
    <glyph glyph-name="p" unicode="p" 
d="M507 510q103 0 141 -61.5t19 -198t-74.5 -198.5t-157.5 -62q-44 0 -71.5 16.5t-42 51t-14.5 88.5l-49 -346h-236l98 700h182l32 -153q24 85 65.5 124t107.5 39zM430 250q15 108 -43 108q-28 0 -44.5 -25.5t-24.5 -82.5t2 -82.5t39 -25.5t46 25.5t25 82.5z" />
    <glyph glyph-name="q" unicode="q" 
d="M289 510q65 0 96 -39t31 -124l74 153h182l-98 -700h-236l49 346q-25 -81 -66.5 -118.5t-105.5 -37.5q-103 0 -141 62t-19 198q13 92 41.5 149t75.5 84t117 27zM400 250q15 108 -43 108q-28 0 -44.5 -25.5t-24.5 -82.5t2 -82.5t39 -25.5t46 25.5t25 82.5z" />
    <glyph glyph-name="r" unicode="r" horiz-adv-x="476" 
d="M321 250l-35 -250h-236l70 500h182l36 -102q42 112 133 112h67l-25 -176h-94q-51 0 -70.5 -15.5t-27.5 -68.5z" />
    <glyph glyph-name="s" unicode="s" horiz-adv-x="552" 
d="M325 394q-29 0 -31 -19q-2 -14 12.5 -22.5t39.5 -14t55 -11.5t59.5 -18t52.5 -29.5t34.5 -49.5t5.5 -75q-12 -85 -82 -125t-210 -40q-126 0 -178 38t-40 122h223q-6 -44 19 -44t29 26q2 16 -8.5 26.5t-29 15.5t-42.5 11t-49.5 11t-48.5 17t-40 28t-25 44.5t-3 65.5
q12 82 77 120.5t197 38.5q124 0 175.5 -35.5t40.5 -114.5h-209q4 34 -24 34z" />
    <glyph glyph-name="t" unicode="t" horiz-adv-x="499" 
d="M363 192q-2 -14 0.5 -23t11 -13t22.5 -4h92l-21 -152h-198q-78 0 -117.5 44.5t-28.5 123.5l28 204h-80l18 128h80l19 134h236l-19 -134h133l-18 -128h-133z" />
    <glyph glyph-name="u" unicode="u" horiz-adv-x="632" 
d="M582 0h-183l-36 129q-21 -72 -58 -105.5t-93 -33.5q-92 0 -125 57t-16 183l38 270h236l-36 -258q-8 -52 -3 -76t28 -24q32 0 44 88l38 270h236z" />
    <glyph glyph-name="v" unicode="v" horiz-adv-x="608" 
d="M324 62l94 438h249l-147 -500h-421l-20 500h249z" />
    <glyph glyph-name="w" unicode="w" horiz-adv-x="981" 
d="M890 0h-347l11 441l-102 -441h-360l-12 500h236l-24 -433l100 433h338l-21 -432l96 432h236z" />
    <glyph glyph-name="x" unicode="x" horiz-adv-x="609" 
d="M337 500l14 -212l61 212h248l-95 -239l35 -261h-248l-8 237l-86 -237h-248l122 260l-42 240h247z" />
    <glyph glyph-name="y" unicode="y" horiz-adv-x="555" 
d="M204 -52q58 0 70 52h-178l-26 500h235l-8 -401l92 401h236l-157 -511q-13 -45 -32.5 -76.5t-47.5 -52t-64 -30.5t-82 -10h-176l18 128h120z" />
    <glyph glyph-name="z" unicode="z" horiz-adv-x="548" 
d="M192 140h346l-20 -140h-488l40 282l347 78h-326l19 140h468l-39 -282z" />
    <glyph glyph-name="braceleft" unicode="{" horiz-adv-x="436" 
d="M124 256q112 -5 159.5 -33.5t39.5 -85.5l-20 -145q-3 -24 5.5 -32t31.5 -8h89l-21 -152h-147q-93 0 -132.5 37t-26.5 126l21 150q3 26 -13.5 37.5t-56.5 11.5l26 188q41 0 60.5 11t23.5 36l20 142q8 60 34.5 96t67 51t102.5 15h148l-22 -152h-93q-16 0 -25.5 -4t-14 -13
t-7.5 -26l-18 -131q-8 -57 -63 -85.5t-168 -33.5z" />
    <glyph glyph-name="bar" unicode="|" horiz-adv-x="315" 
d="M158 700h195l-126 -900h-195z" />
    <glyph glyph-name="braceright" unicode="}" horiz-adv-x="436" 
d="M384 256q-112 5 -158.5 33.5t-38.5 85.5l18 131q3 17 0 26.5t-10.5 13t-24.5 3.5h-93l22 152h148q45 0 76.5 -8t52.5 -27t28 -50.5t1 -76.5l-20 -142q-4 -25 13 -36t57 -11l-26 -188q-27 0 -45 -5t-27.5 -16t-11.5 -28l-21 -150q-7 -46 -22.5 -77.5t-42 -50t-60.5 -27
t-80 -8.5h-147l21 152h89q23 0 34.5 8t14.5 32l20 145q8 57 63.5 85.5t169.5 33.5z" />
    <glyph glyph-name="asciitilde" unicode="~" horiz-adv-x="640" 
d="M647 190q-46 -41 -93.5 -54t-89.5 -3.5t-84 28.5t-84 39t-81.5 31.5t-83.5 2.5t-84 -44l19 139q36 33 73.5 48t70.5 14t67 -10.5t66 -25t64 -31.5t64.5 -27.5t63.5 -15t65 8t66 39.5z" />
    <glyph glyph-name="space_" unicode="&#xa0;" horiz-adv-x="300" 
 />
    <glyph glyph-name="exclamdown" unicode="&#xa1;" horiz-adv-x="352" 
d="M300 -10h-1l-27 -190h-249l27 190l88 246h142zM352 404q-8 -57 -42 -83.5t-99 -26.5t-90.5 26t-17.5 83t41 82.5t98 25.5q66 0 92 -25.5t18 -81.5z" />
    <glyph glyph-name="cent" unicode="&#xa2;" horiz-adv-x="622" 
d="M216 -102l13 98q-106 16 -148 77.5t-26 176.5t75.5 176.5t170.5 77.5l12 86h182l-12 -86q89 -14 128 -62.5t34 -137.5h-236q1 29 -8.5 41.5t-32.5 12.5q-21 0 -36.5 -11t-25.5 -35t-15 -62q-8 -57 3 -82.5t43 -25.5q15 0 25.5 5.5t18 17.5t13.5 31h236
q-20 -89 -72.5 -137.5t-146.5 -62.5l-13 -98h-182z" />
    <glyph glyph-name="sterling" unicode="&#xa3;" horiz-adv-x="686" 
d="M125 165h556l-23 -164h-626l35 251q64 0 72 57h-64l18 122h64l10 72q16 117 90.5 168t224.5 51q129 0 180.5 -53t35.5 -167h-223q5 42 -2 61t-26 18q-36 -1 -47 -81l-10 -70h188l-17 -122h-188l-1 -8q-8 -61 -66 -92.5t-181 -42.5z" />
    <glyph glyph-name="currency" unicode="&#xa4;" horiz-adv-x="702" 
d="M550 497l86 69l101 -105l-65 -54q29 -59 15 -158q-14 -101 -60 -159l50 -54l-132 -105l-66 71q-55 -13 -131 -13t-126 13l-86 -71l-102 105l65 54q-30 58 -16 160q14 99 59 158l-49 54l131 106l66 -71q55 13 131.5 13t128.5 -13zM321 248q-8 -56 4 -82t45.5 -26t53 26
t27.5 82q5 37 1.5 61t-16 35.5t-35.5 11.5q-17 0 -30 -6.5t-23 -19.5t-16.5 -33.5t-10.5 -48.5z" />
    <glyph glyph-name="yen" unicode="&#xa5;" horiz-adv-x="763" 
d="M744 242h-196l-6 -44h197l-17 -120h-197l-11 -78h-249l11 78h-203l17 120h203l6 44h-203l17 120h61l-65 338h289l35 -384l143 384h275l-147 -338h57z" />
    <glyph glyph-name="section" unicode="&#xa7;" horiz-adv-x="668" 
d="M377 537q-2 -20 14.5 -32.5t45.5 -19.5t63.5 -13t69 -16.5t62 -26t42 -45.5t8.5 -72q-9 -62 -55 -93.5t-140 -42.5q55 -21 83.5 -61t18.5 -109q-11 -80 -47.5 -129.5t-101.5 -73t-164 -23.5q-124 0 -173 52t-33 168h196q-5 -36 3.5 -53t33.5 -17q39 0 44 37
q4 23 -12 37.5t-43.5 21t-61 11t-67 12.5t-60 22t-40 42t-7.5 69q9 67 62.5 97.5t164.5 36.5q-32 10 -56 23.5t-45 34.5t-29 53t-3 74q11 77 44.5 125t93.5 71t150 23q126 0 175.5 -52t33.5 -168h-195q10 68 -35 68q-35 0 -40 -31zM424 195q21 15 24 42q1 6 0 11.5
t-5.5 10.5t-9 8.5t-13 7.5t-15 6.5t-18 6t-19.5 5.5l-22 5.5l-22 5.5q-31 -10 -35 -43q-1 -7 0.5 -13t6 -10.5t9.5 -8.5t14 -7.5t16.5 -6t19.5 -5.5t21.5 -5t24 -5t23.5 -5z" />
    <glyph glyph-name="dieresis" unicode="&#xa8;" horiz-adv-x="571" 
d="M101 571q8 57 41.5 82t98.5 25q66 0 91.5 -25.5t17.5 -82.5q-8 -56 -41 -81.5t-99 -25.5q-65 0 -91 25.5t-18 82.5zM384 569q4 29 14 49t27.5 33t41.5 19t57 6q65 0 91 -25.5t18 -82.5q-8 -56 -41 -81.5t-99 -25.5t-91.5 25.5t-17.5 82.5z" />
    <glyph glyph-name="copyright" unicode="&#xa9;" horiz-adv-x="854" 
d="M528.5 720q208.5 0 290 -88t54.5 -282q-18 -130 -71 -211.5t-145.5 -120t-232.5 -38.5q-208 0 -290 88t-55 282t134 282t315.5 88zM234 352q-17 -128 32.5 -185.5t176 -57.5t192.5 57.5t83.5 184.5t-32 184.5t-176 57.5t-192.5 -57.5t-84 -183.5zM263 352
q15 104 72 151.5t169 47.5q104 0 150 -38t44 -122h-182q0 43 -26 43q-18 0 -29 -20t-17 -64q-6 -43 -1 -62.5t23 -19.5q26 0 39 44h182q-11 -42 -30.5 -72t-49 -50t-69 -29t-91.5 -9q-111 0 -154.5 47.5t-29.5 152.5z" />
    <glyph glyph-name="guillemotleft" unicode="&#xab;" horiz-adv-x="675" 
d="M218 450h221l-147 -190l92 -200h-221l-106 200zM497 450h221l-147 -190l92 -200h-221l-106 200z" />
    <glyph glyph-name="logicalnot" unicode="&#xac;" horiz-adv-x="570" 
d="M588 340l-40 -282h-182l18 130h-338l22 152h520z" />
    <glyph glyph-name="registered" unicode="&#xae;" horiz-adv-x="854" 
d="M528.5 720q208.5 0 290 -88t54.5 -282q-18 -130 -71 -211.5t-145.5 -120t-232.5 -38.5q-208 0 -290 88t-55 282t134 282t315.5 88zM442 109q127 0 192.5 57t83.5 183q12 85 -6 138t-67.5 78.5t-134.5 25.5q-126 0 -192 -57.5t-84 -183.5q-12 -85 6.5 -138t68 -78
t133.5 -25zM485 169l-29 116h-24l-16 -116h-141l50 360h183q89 0 125.5 -29t27.5 -93q-7 -52 -38 -80.5t-89 -37.5h51l42 -120h-142zM520 407q5 31 -24 31h-42l-9 -60h42q29 0 33 29z" />
    <glyph glyph-name="macron" unicode="&#xaf;" horiz-adv-x="380" 
d="M99 564l17 116h340l-17 -116h-340z" />
    <glyph glyph-name="degree" unicode="&#xb0;" horiz-adv-x="420" 
d="M93 520q14 100 65.5 145t151.5 45q67 0 105.5 -20t52.5 -61.5t5 -108.5q-14 -100 -65.5 -145t-151 -45t-138.5 45t-25 145zM293 594q-48 0 -58 -74t39 -74q48 0 58 74t-39 74z" />
    <glyph glyph-name="plusminus" unicode="&#xb1;" horiz-adv-x="560" 
d="M20 0l21 152h520l-21 -152h-520zM601 432l-22 -152h-169l-10 -76h-182l10 76h-169l22 152h169l9 68h182l-9 -68h169z" />
    <glyph glyph-name="acute" unicode="&#xb4;" horiz-adv-x="352" 
d="M97 550l99 150h234l-153 -150h-180z" />
    <glyph glyph-name="paragraph" unicode="&#xb6;" horiz-adv-x="770" 
d="M827 548h-84l-105 -748h-196l105 748h-62l-105 -748h-195l70 500q-106 0 -147.5 47.5t-27 152.5t80.5 152.5t197 47.5h490z" />
    <glyph glyph-name="periodcentered" unicode="&#xb7;" horiz-adv-x="289" 
d="M57 253q8 57 41 82t99 25q65 0 90.5 -25.5t17.5 -82.5q-7 -56 -40.5 -81.5t-99.5 -25.5q-65 0 -90.5 25.5t-17.5 82.5z" />
    <glyph glyph-name="cedilla" unicode="&#xb8;" horiz-adv-x="261" 
d="M71 48h115l-35 -98q7 -2 16 -6t24.5 -13.5t24 -27.5t5.5 -41q-8 -53 -71 -82.5t-162 -29.5l11 80q49 0 53 28q2 12 -8.5 18t-40.5 6z" />
    <glyph glyph-name="guillemotright" unicode="&#xbb;" horiz-adv-x="672" 
d="M83 450h221l105 -190l-160 -200h-221l147 200zM362 450h221l105 -190l-160 -200h-221l147 200z" />
    <glyph glyph-name="questiondown" unicode="&#xbf;" horiz-adv-x="609" 
d="M447 230q-6 -44 -18.5 -76.5t-28.5 -51.5t-34 -32.5t-35 -23t-31.5 -18.5t-24.5 -23.5t-13 -34.5t7.5 -29t36 -9t40 18.5t19.5 59.5h223q-11 -81 -48 -131.5t-102.5 -74.5t-165.5 -24q-149 0 -210 45t-47 145q6 42 25 72.5t44 45.5t53.5 30t53 26t42.5 33t22 53h192z
M498 405q-8 -57 -41.5 -82t-98.5 -25t-91 25.5t-18 82.5q8 56 41 81.5t99 25.5q65 0 91 -25.5t18 -82.5z" />
    <glyph glyph-name="Agrave" unicode="&#xc0;" horiz-adv-x="789" 
d="M493 0h-1l-2 116h-171l-37 -116h-263l235 700h503l12 -700h-276zM480 621l-112 -353h119zM521 870l78 -120h-166l-119 120h207z" />
    <glyph glyph-name="Aacute" unicode="&#xc1;" horiz-adv-x="789" 
d="M493 0h-1l-2 116h-171l-37 -116h-263l235 700h503l12 -700h-276zM480 621l-112 -353h119zM422 750l99 120h220l-139 -120h-180z" />
    <glyph glyph-name="Acircumflex" unicode="&#xc2;" horiz-adv-x="789" 
d="M493 0h-1l-2 116h-171l-37 -116h-263l235 700h503l12 -700h-276zM480 621l-112 -353h119zM694 870h1l-1 -120h-153l-19 112l-51 -112h-153l32 120h344z" />
    <glyph glyph-name="Atilde" unicode="&#xc3;" horiz-adv-x="789" 
d="M493 0h-1l-2 116h-171l-37 -116h-263l235 700h503l12 -700h-276zM480 621l-112 -353h119zM324 762q9 64 42.5 93t98.5 29q27 0 46 -6t27.5 -14t18 -14t19.5 -6q5 0 9 1.5t7 4t5.5 5.5t4.5 6t3 5.5t1 3.5l1 2h87q-9 -64 -42.5 -93t-99.5 -29q-26 0 -46 6t-29 14t-19 14
t-19 6q-8 0 -15 -7t-9 -14l-3 -7h-88z" />
    <glyph glyph-name="Adieresis" unicode="&#xc4;" horiz-adv-x="789" 
d="M493 0h-1l-2 116h-171l-37 -116h-263l235 700h503l12 -700h-276zM480 621l-112 -353h119zM375.5 930q65.5 0 92.5 -21.5t20 -69.5q-7 -47 -39.5 -68.5t-98.5 -21.5q-65 0 -91.5 21.5t-19.5 68.5q7 48 39 69.5t97.5 21.5zM684.5 930q65.5 0 92.5 -21.5t20 -69.5
q-7 -47 -39.5 -68.5t-98.5 -21.5q-65 0 -91.5 21.5t-19.5 68.5q7 48 39 69.5t97.5 21.5z" />
    <glyph glyph-name="Aring" unicode="&#xc5;" horiz-adv-x="789" 
d="M493 0h-1l-2 116h-171l-37 -116h-263l235 700h503l12 -700h-276zM480 621l-112 -353h119zM536.5 978q73.5 0 103 -27t21 -87t-45.5 -87t-110.5 -27t-103 27t-21 87t45.5 87t110.5 27zM516 830q26 0 30.5 34t-21.5 34t-30.5 -34t21.5 -34z" />
    <glyph glyph-name="AE" unicode="&#xc6;" horiz-adv-x="1029" 
d="M1074 536h-262l-13 -96h222l-23 -164h-222l-16 -112h262l-23 -164h-498l16 116h-178l-57 -116h-262l339 700h738zM588 620l-173 -352h124z" />
    <glyph glyph-name="Ccedilla" unicode="&#xc7;" horiz-adv-x="786" 
d="M307 -112l38 94q-164 13 -227.5 101t-38.5 267q27 194 130 282t302 88q109 0 177.5 -27t100.5 -84.5t31 -149.5h-224q-1 53 -26.5 77.5t-78.5 24.5q-77 0 -118.5 -50t-57.5 -161q-11 -73 -2 -120t38 -69t82 -22q54 0 86.5 24.5t46.5 77.5h224q-44 -128 -125.5 -190
t-216.5 -69l-11 -31q4 -1 9.5 -3t19.5 -9t24 -16.5t17 -26t4 -35.5q-7 -51 -68.5 -80.5t-159.5 -29.5l10 73q68 0 73 37q4 27 -59 27z" />
    <glyph glyph-name="Egrave" unicode="&#xc8;" horiz-adv-x="638" 
d="M683 536h-285l-13 -96h245l-23 -164h-245l-16 -112h285l-23 -164h-548l98 700h548zM452 870l78 -120h-166l-119 120h207z" />
    <glyph glyph-name="Eacute" unicode="&#xc9;" horiz-adv-x="638" 
d="M683 536h-285l-13 -96h245l-23 -164h-245l-16 -112h285l-23 -164h-548l98 700h548zM353 750l99 120h220l-139 -120h-180z" />
    <glyph glyph-name="Ecircumflex" unicode="&#xca;" horiz-adv-x="638" 
d="M683 536h-285l-13 -96h245l-23 -164h-245l-16 -112h285l-23 -164h-548l98 700h548zM628 870h1l-1 -120h-153l-19 112l-51 -112h-153l32 120h344z" />
    <glyph glyph-name="Edieresis" unicode="&#xcb;" horiz-adv-x="648" 
d="M691 536h-285l-13 -96h245l-23 -164h-245l-16 -112h285l-23 -164h-548l98 700h548zM315.5 930q65.5 0 92.5 -21.5t20 -69.5q-7 -47 -39.5 -68.5t-98.5 -21.5q-65 0 -91.5 21.5t-19.5 68.5q7 48 39 69.5t97.5 21.5zM624.5 930q65.5 0 92.5 -21.5t20 -69.5
q-7 -47 -39.5 -68.5t-98.5 -21.5q-65 0 -91.5 21.5t-19.5 68.5q7 48 39 69.5t97.5 21.5z" />
    <glyph glyph-name="Igrave" unicode="&#xcc;" horiz-adv-x="382" 
d="M157 700h263l-98 -700h-263zM327 860l78 -120h-166l-119 120h207z" />
    <glyph glyph-name="Iacute" unicode="&#xcd;" horiz-adv-x="382" 
d="M158 700h263l-98 -700h-263zM185 750l99 120h220l-139 -120h-180z" />
    <glyph glyph-name="Icircumflex" unicode="&#xce;" horiz-adv-x="383" 
d="M158 700h263l-98 -700h-263zM485 870h1l-1 -120h-153l-19 112l-51 -112h-153l32 120h344z" />
    <glyph glyph-name="Idieresis" unicode="&#xcf;" horiz-adv-x="383" 
d="M158 700h263l-98 -700h-263zM167.5 930q65.5 0 92.5 -21.5t20 -69.5q-7 -47 -39.5 -68.5t-98.5 -21.5q-65 0 -91.5 21.5t-19.5 68.5q7 48 39 69.5t97.5 21.5zM476.5 930q65.5 0 92.5 -21.5t20 -69.5q-7 -47 -39.5 -68.5t-98.5 -21.5q-65 0 -91.5 21.5t-19.5 68.5
q7 48 39 69.5t97.5 21.5z" />
    <glyph glyph-name="Ntilde" unicode="&#xd1;" horiz-adv-x="884" 
d="M672 700h250l-98 -700h-418l-5 644l-91 -644h-250l98 700h417l7 -644zM370 761q9 64 42.5 93t98.5 29q27 0 46 -6.5t27.5 -13.5t18 -13.5t18.5 -6.5q5 0 9.5 1.5t7.5 4t5.5 5.5t4 6t3 5.5t1.5 3.5v2h87q-9 -64 -42.5 -93t-98.5 -29q-26 0 -46 6.5t-29 13.5t-19 13.5
t-19 6.5t-15.5 -7t-9.5 -14l-2 -7h-88z" />
    <glyph glyph-name="Ograve" unicode="&#xd2;" horiz-adv-x="842" 
d="M522.5 720q205.5 0 285.5 -88t53 -282t-132 -282t-310.5 -88t-286 88t-53.5 282t132.5 282t311 88zM497 544q-59 0 -93 -46.5t-48 -147.5q-7 -51 -5.5 -87.5t12.5 -60t30.5 -35t49.5 -11.5q40 0 67.5 20.5t46 63t27.5 110.5q10 67 3.5 110t-28.5 63.5t-62 20.5zM542 870
l78 -120h-166l-119 120h207z" />
    <glyph glyph-name="Oacute" unicode="&#xd3;" horiz-adv-x="842" 
d="M522.5 720q205.5 0 285.5 -88t53 -282t-132 -282t-310.5 -88t-286 88t-53.5 282t132.5 282t311 88zM497 544q-59 0 -93 -46.5t-48 -147.5q-7 -51 -5.5 -87.5t12.5 -60t30.5 -35t49.5 -11.5q40 0 67.5 20.5t46 63t27.5 110.5q10 67 3.5 110t-28.5 63.5t-62 20.5zM443 750
l99 120h220l-139 -120h-180z" />
    <glyph glyph-name="Ocircumflex" unicode="&#xd4;" horiz-adv-x="842" 
d="M522.5 720q205.5 0 285.5 -88t53 -282t-132 -282t-310.5 -88t-286 88t-53.5 282t132.5 282t311 88zM497 544q-59 0 -93 -46.5t-48 -147.5q-7 -51 -5.5 -87.5t12.5 -60t30.5 -35t49.5 -11.5q40 0 67.5 20.5t46 63t27.5 110.5q10 67 3.5 110t-28.5 63.5t-62 20.5zM715 870
h1l-1 -120h-153l-19 112l-51 -112h-153l32 120h344z" />
    <glyph glyph-name="Otilde" unicode="&#xd5;" horiz-adv-x="842" 
d="M522.5 720q205.5 0 285.5 -88t53 -282t-132 -282t-310.5 -88t-286 88t-53.5 282t132.5 282t311 88zM497 544q-59 0 -93 -46.5t-48 -147.5q-7 -51 -5.5 -87.5t12.5 -60t30.5 -35t49.5 -11.5q40 0 67.5 20.5t46 63t27.5 110.5q10 67 3.5 110t-28.5 63.5t-62 20.5zM351 762
q9 64 42.5 93t98.5 29q27 0 46 -6t27.5 -14t18 -14t19.5 -6q6 0 12 3t9 7t5.5 8t3.5 7l1 3h87q-9 -64 -42.5 -93t-99.5 -29q-26 0 -46 6t-29 14t-19 14t-19 6q-8 0 -15 -7t-9 -14l-3 -7h-88z" />
    <glyph glyph-name="Odieresis" unicode="&#xd6;" horiz-adv-x="842" 
d="M522.5 720q205.5 0 285.5 -88t53 -282t-132 -282t-310.5 -88t-286 88t-53.5 282t132.5 282t311 88zM497 544q-59 0 -93 -46.5t-48 -147.5q-7 -51 -5.5 -87.5t12.5 -60t30.5 -35t49.5 -11.5q40 0 67.5 20.5t46 63t27.5 110.5q10 67 3.5 110t-28.5 63.5t-62 20.5z
M397.5 930q65.5 0 92.5 -21.5t20 -69.5q-7 -47 -39.5 -68.5t-98.5 -21.5q-65 0 -91.5 21.5t-19.5 68.5q7 48 39 69.5t97.5 21.5zM706.5 930q65.5 0 92.5 -21.5t20 -69.5q-7 -47 -39.5 -68.5t-98.5 -21.5q-65 0 -91.5 21.5t-19.5 68.5q7 48 39 69.5t97.5 21.5z" />
    <glyph glyph-name="multiply" unicode="&#xd7;" horiz-adv-x="570" 
d="M221 508l116 -135l154 135l114 -117l-161 -141l121 -141l-146 -117l-116 135l-154 -135l-114 117l161 141l-121 141z" />
    <glyph glyph-name="Oslash" unicode="&#xd8;" horiz-adv-x="842" 
d="M861 350h-1q-27 -194 -132.5 -282t-310.5 -88q-22 0 -60 2l-30 -62h-155l45 91q-91 37 -124 119.5t-14 219.5q27 194 132.5 282t310.5 88q28 0 41 -1l30 61h155l-42 -85q100 -34 137.5 -118.5t17.5 -226.5zM445 156q59 0 93.5 46.5t48.5 147.5q4 24 5 42.5t1 43t-5.5 42
t-15 33.5t-28 24.5t-44.5 8.5q-30 0 -54 -13t-38.5 -31.5t-25 -47t-15.5 -51t-9 -51.5q-3 -24 -4.5 -42.5t-1 -43t5.5 -42t15 -33.5t28.5 -24.5t43.5 -8.5z" />
    <glyph glyph-name="Ugrave" unicode="&#xd9;" horiz-adv-x="762" 
d="M87 262l61 438h263l-61 -438q-8 -55 5 -80.5t48 -25.5t55 25.5t28 80.5l61 438h263l-61 -438q-21 -148 -109 -215t-262 -67t-243 67t-48 215zM502 870l78 -120h-166l-119 120h207z" />
    <glyph glyph-name="Uacute" unicode="&#xda;" horiz-adv-x="762" 
d="M87 262l61 438h263l-61 -438q-8 -55 5 -80.5t48 -25.5t55 25.5t28 80.5l61 438h263l-61 -438q-21 -148 -109 -215t-262 -67t-243 67t-48 215zM403 750l99 120h220l-139 -120h-180z" />
    <glyph glyph-name="Ucircumflex" unicode="&#xdb;" horiz-adv-x="762" 
d="M87 262l61 438h263l-61 -438q-8 -55 5 -80.5t48 -25.5t55 25.5t28 80.5l61 438h263l-61 -438q-21 -148 -109 -215t-262 -67t-243 67t-48 215zM675 870h1l-1 -120h-153l-19 112l-51 -112h-153l32 120h344z" />
    <glyph glyph-name="Udieresis" unicode="&#xdc;" horiz-adv-x="762" 
d="M87 262l61 438h263l-61 -438q-8 -55 5 -80.5t48 -25.5t55 25.5t28 80.5l61 438h263l-61 -438q-21 -148 -109 -215t-262 -67t-243 67t-48 215zM356.5 930q65.5 0 92.5 -21.5t20 -69.5q-7 -47 -39.5 -68.5t-98.5 -21.5q-65 0 -91.5 21.5t-19.5 68.5q7 48 39 69.5t97.5 21.5
zM665.5 930q65.5 0 92.5 -21.5t20 -69.5q-7 -47 -39.5 -68.5t-98.5 -21.5q-65 0 -91.5 21.5t-19.5 68.5q7 48 39 69.5t97.5 21.5z" />
    <glyph glyph-name="Yacute" unicode="&#xdd;" horiz-adv-x="743" 
d="M666 300h-1h-121l-42 -300h-249l42 300h-121l-76 400h289l35 -384l143 384h275zM402 750l99 120h220l-139 -120h-180z" />
    <glyph glyph-name="germandbls" unicode="&#xdf;" horiz-adv-x="733" 
d="M459 720q165 0 233.5 -45t54.5 -142q-11 -77 -64 -114t-162 -44q121 -7 171 -46t39 -117q-16 -111 -79.5 -161.5t-187.5 -50.5q-63 0 -110 20l19 140q15 -8 49 -8q35 0 53 15t22 49q6 41 -13.5 60t-69.5 19l23 162q41 0 61.5 13.5t24.5 42.5t-12 42.5t-56 13.5
q-47 0 -70.5 -19t-29.5 -61l-69 -488h-236l66 466q18 133 99.5 193t243.5 60z" />
    <glyph glyph-name="agrave" unicode="&#xe0;" horiz-adv-x="602" 
d="M380 0l-37 119q-21 -68 -60.5 -98t-108.5 -30q-77 0 -111.5 36.5t-23.5 115.5q14 96 82 137.5t207 41.5h42l3 18q7 54 -25 54q-31 0 -37 -44h-222q12 84 79 122t204.5 38t193 -46t40.5 -148l-44 -316h-182zM326 207q-42 0 -48 -42q-5 -35 25 -35q14 0 23.5 5.5t15.5 17
t9 30.5l3 24h-28zM415 700l57 -150h-180l-111 150h234z" />
    <glyph glyph-name="aacute" unicode="&#xe1;" horiz-adv-x="602" 
d="M380 0l-37 119q-21 -68 -60.5 -98.5t-108.5 -30.5q-77 0 -111.5 37t-23.5 116q14 96 82 137.5t207 41.5h42l3 18q7 54 -25 54q-31 0 -37 -44h-222q12 84 79 122t204.5 38t193 -46t40.5 -148l-44 -316h-182zM326 207q-42 0 -48 -42q-5 -35 25 -35q14 0 23.5 5.5t15.5 17
t9 30.5l3 24h-28zM277 550l99 150h234l-153 -150h-180z" />
    <glyph glyph-name="acircumflex" unicode="&#xe2;" horiz-adv-x="602" 
d="M380 0l-37 119q-21 -68 -60.5 -98.5t-108.5 -30.5q-77 0 -111.5 37t-23.5 116q14 96 82 137.5t207 41.5h42l3 18q7 54 -25 54q-31 0 -37 -44h-222q12 84 79 122t204.5 38t193 -46t40.5 -148l-44 -316h-182zM326 207q-42 0 -48 -42q-5 -35 25 -35q14 0 23.5 5.5t15.5 17
t9 30.5l3 24h-28zM569 700l-2 -150h-140l-31 142l-71 -142h-140l40 150h344z" />
    <glyph glyph-name="atilde" unicode="&#xe3;" horiz-adv-x="602" 
d="M380 0l-37 119q-21 -68 -60.5 -98.5t-108.5 -30.5q-77 0 -111.5 37t-23.5 116q14 96 82 137.5t207 41.5h42l3 18q7 54 -25 54q-31 0 -37 -44h-222q12 84 79 122t204.5 38t193 -46t40.5 -148l-44 -316h-182zM326 207q-42 0 -48 -42q-5 -35 25 -35q14 0 23.5 5.5t15.5 17
t9 30.5l3 24h-28zM203 581q5 41 16.5 70t29 47.5t42 27.5t57.5 9q27 0 46 -9.5t27 -21.5t16 -21.5t14 -9.5q10 0 15 8.5t8 29.5h101q-11 -81 -45.5 -117.5t-100.5 -36.5q-27 0 -45.5 6.5t-27 15.5t-13 18t-8.5 15.5t-10 6.5q-16 0 -21 -38h-101z" />
    <glyph glyph-name="adieresis" unicode="&#xe4;" horiz-adv-x="605" 
d="M380 0l-37 119q-21 -68 -60.5 -98.5t-108.5 -30.5q-77 0 -111.5 37t-23.5 116q14 96 82 137.5t207 41.5h42l3 18q7 54 -25 54q-31 0 -37 -44h-222q12 84 79 122t204.5 38t193 -46t40.5 -148l-44 -316h-182zM326 207q-42 0 -48 -42q-5 -35 25 -35q14 0 23.5 5.5t15.5 17
t9 30.5l3 24h-28zM130 682q8 57 41 82t99 25q65 0 91 -25.5t18 -82.5q-8 -56 -41 -81.5t-99 -25.5t-91.5 25.5t-17.5 82.5zM413 680q8 57 41 82t99 25q65 0 90.5 -25.5t17.5 -82.5q-5 -38 -21 -61.5t-45 -34.5t-74 -11q-65 0 -90.5 25.5t-17.5 82.5z" />
    <glyph glyph-name="aring" unicode="&#xe5;" horiz-adv-x="602" 
d="M380 0l-37 119q-21 -68 -60.5 -98.5t-108.5 -30.5q-77 0 -111.5 37t-23.5 116q14 96 82 137.5t207 41.5h42l3 18q7 54 -25 54q-31 0 -37 -44h-222q12 84 79 122t204.5 38t193 -46t40.5 -148l-44 -316h-182zM326 207q-42 0 -48 -42q-5 -35 25 -35q14 0 23.5 5.5t15.5 17
t9 30.5l3 24h-28zM408.5 779q73.5 0 103 -27t21 -87t-45.5 -87t-110.5 -27t-103 27t-21 87t45.5 87t110.5 27zM388 631q26 0 30.5 34t-21.5 34t-30.5 -34t21.5 -34z" />
    <glyph glyph-name="ae" unicode="&#xe6;" horiz-adv-x="928" 
d="M944 254l-8 -58h-352q-6 -42 4.5 -61t38.5 -19q44 0 57 46h223q-27 -91 -85.5 -131.5t-157.5 -40.5q-101 0 -146 42t-45 136q-22 -93 -87 -135.5t-175 -42.5q-103 0 -144 36t-30 114q6 46 27 80t48 52.5t65.5 29.5t71 14t74.5 3h46l2 16q7 46 -36 46q-22 0 -33 -11.5
t-14 -36.5h-202q13 91 71 134t166 43q103 0 144 -40t34 -130q27 89 84.5 129.5t157.5 40.5q122 0 170.5 -61.5t30.5 -194.5zM351 204h-15q-55 0 -61 -40q-3 -20 1.5 -28t20.5 -8q43 0 54 76zM711 312q5 35 -6 51.5t-40 16.5q-27 0 -42 -16t-20 -52h108z" />
    <glyph glyph-name="ccedilla" unicode="&#xe7;" horiz-adv-x="622" 
d="M203 -118l46 111q-118 13 -164.5 75t-29.5 182q19 137 99 198.5t239 61.5q138 0 198 -49t54 -157h-236q0 19 -4 31t-13 17.5t-25 5.5q-32 0 -50 -25.5t-26 -82.5t3 -82.5t43 -25.5q15 0 25.5 5.5t18 17.5t13.5 31h236q-23 -99 -86 -148.5t-178 -56.5l-15 -41q7 -2 16 -6
t24.5 -13.5t24 -27.5t5.5 -41q-8 -53 -71 -82.5t-162 -29.5l11 80q49 0 53 28q2 12 -8.5 18t-40.5 6z" />
    <glyph glyph-name="egrave" unicode="&#xe8;" horiz-adv-x="622" 
d="M630 198h-349q-6 -42 5 -61t41 -19q43 0 54 46h223q-27 -91 -97 -132.5t-197 -41.5q-153 0 -213.5 61.5t-41.5 198.5t97 198.5t231 61.5t213.5 -61t41.5 -195zM364 382q-30 0 -45 -16t-20 -52h110q5 35 -6 51.5t-39 16.5zM427 700l57 -150h-180l-111 150h234z" />
    <glyph glyph-name="eacute" unicode="&#xe9;" horiz-adv-x="622" 
d="M630 198h-349q-6 -42 5 -61t41 -19q43 0 54 46h223q-27 -91 -97 -132.5t-197 -41.5q-153 0 -213.5 61.5t-41.5 198.5t97 198.5t231 61.5t213.5 -61t41.5 -195zM364 382q-30 0 -45 -16t-20 -52h110q5 35 -6 51.5t-39 16.5zM288 550l99 150h234l-153 -150h-180z" />
    <glyph glyph-name="ecircumflex" unicode="&#xea;" horiz-adv-x="622" 
d="M630 198h-349q-6 -42 5 -61t41 -19q43 0 54 46h223q-27 -91 -97 -132.5t-197 -41.5q-153 0 -213.5 61.5t-41.5 198.5t97 198.5t231 61.5t213.5 -61t41.5 -195zM364 382q-30 0 -45 -16t-20 -52h110q5 35 -6 51.5t-39 16.5zM578 700l-2 -150h-140l-31 142l-71 -142h-140
l40 150h344z" />
    <glyph glyph-name="edieresis" unicode="&#xeb;" horiz-adv-x="622" 
d="M630 198h-349q-6 -42 5 -61t41 -19q43 0 54 46h223q-27 -91 -97 -132.5t-197 -41.5q-153 0 -213.5 61.5t-41.5 198.5t97 198.5t231 61.5t213.5 -61t41.5 -195zM364 382q-30 0 -45 -16t-20 -52h110q5 35 -6 51.5t-39 16.5zM135 651q5 29 15 49t27 33t41.5 19t57.5 6
q65 0 90.5 -25.5t17.5 -82.5q-8 -56 -41 -81.5t-99 -25.5q-65 0 -91 25.5t-18 82.5zM418 649q4 29 14 49t27.5 33t41.5 19t57 6q66 0 91.5 -25.5t17.5 -82.5q-5 -38 -21.5 -61.5t-45.5 -34.5t-73 -11q-65 0 -91 25.5t-18 82.5z" />
    <glyph glyph-name="igrave" unicode="&#xec;" horiz-adv-x="336" 
d="M286 0h-236l70 500h236zM302 700l57 -150h-180l-111 150h234z" />
    <glyph glyph-name="iacute" unicode="&#xed;" horiz-adv-x="342" 
d="M286 0h-236l70 500h236zM127 550l99 150h234l-153 -150h-180z" />
    <glyph glyph-name="icircumflex" unicode="&#xee;" horiz-adv-x="336" 
d="M286 0h-236l70 500h236zM437 700l-2 -150h-140l-31 142l-71 -142h-140l40 150h344z" />
    <glyph glyph-name="idieresis" unicode="&#xef;" horiz-adv-x="336" 
d="M286 0h-236l70 500h236zM-6 651q5 29 15 49t27 33t41.5 19t57.5 6q65 0 90.5 -25.5t17.5 -82.5q-8 -56 -41 -81.5t-99 -25.5q-65 0 -91 25.5t-18 82.5zM277 649q4 29 14 49t27.5 33t41.5 19t57 6q66 0 91.5 -25.5t17.5 -82.5q-8 -56 -41 -81.5t-99 -25.5q-65 0 -91 25.5
t-18 82.5z" />
    <glyph glyph-name="ntilde" unicode="&#xf1;" horiz-adv-x="632" 
d="M302 500l36 -129q14 48 35.5 78.5t50 45.5t66.5 15q91 0 124.5 -57t15.5 -183l-38 -270h-235l36 258q9 52 3.5 76t-28.5 24q-32 0 -44 -88l-38 -270h-236l70 500h182zM203 574q5 41 16.5 70t29 47.5t42 27.5t57.5 9q27 0 46 -9.5t27 -21.5t16 -21.5t14 -9.5q10 0 15 8.5
t8 29.5h101q-11 -81 -45.5 -117.5t-100.5 -36.5q-27 0 -45.5 6.5t-27 15.5t-13 18t-8.5 15.5t-10 6.5q-16 0 -21 -38h-101z" />
    <glyph glyph-name="ograve" unicode="&#xf2;" horiz-adv-x="642" 
d="M392.5 510q158.5 0 221 -61.5t43.5 -198.5t-99 -198.5t-238.5 -61.5t-221 61.5t-43.5 198.5t99 198.5t238.5 61.5zM291 250q-8 -56 4 -82t46 -26t53 26t27 82t-4 82t-46 26q-33 0 -52.5 -26t-27.5 -82zM436 700l57 -150h-180l-111 150h234z" />
    <glyph glyph-name="oacute" unicode="&#xf3;" horiz-adv-x="642" 
d="M392.5 510q158.5 0 221 -61.5t43.5 -198.5t-99 -198.5t-238.5 -61.5t-221 61.5t-43.5 198.5t99 198.5t238.5 61.5zM291 250q-8 -56 4 -82t46 -26t53 26t27 82t-4 82t-46 26q-33 0 -52.5 -26t-27.5 -82zM298 550l99 150h234l-153 -150h-180z" />
    <glyph glyph-name="ocircumflex" unicode="&#xf4;" horiz-adv-x="642" 
d="M392.5 510q158.5 0 221 -61.5t43.5 -198.5t-99 -198.5t-238.5 -61.5t-221 61.5t-43.5 198.5t99 198.5t238.5 61.5zM291 250q-8 -56 4 -82t46 -26t53 26t27 82t-4 82t-46 26q-33 0 -52.5 -26t-27.5 -82zM589 700l-2 -150h-140l-31 142l-71 -142h-140l40 150h344z" />
    <glyph glyph-name="otilde" unicode="&#xf5;" horiz-adv-x="642" 
d="M392.5 510q158.5 0 221 -61.5t43.5 -198.5t-99 -198.5t-238.5 -61.5t-221 61.5t-43.5 198.5t99 198.5t238.5 61.5zM291 250q-8 -56 4 -82t46 -26t53 26t27 82t-4 82t-46 26q-33 0 -52.5 -26t-27.5 -82zM223 574q5 41 16.5 70t29 47.5t42 27.5t57.5 9q27 0 46 -9.5
t27 -21.5t16 -21.5t14 -9.5q10 0 15 8.5t8 29.5h101q-11 -81 -45.5 -117.5t-100.5 -36.5q-27 0 -45.5 6.5t-27 15.5t-13 18t-8.5 15.5t-10 6.5q-16 0 -21 -38h-101z" />
    <glyph glyph-name="odieresis" unicode="&#xf6;" horiz-adv-x="642" 
d="M392.5 510q158.5 0 221 -61.5t43.5 -198.5t-99 -198.5t-238.5 -61.5t-221 61.5t-43.5 198.5t99 198.5t238.5 61.5zM291 250q-8 -56 4 -82t46 -26t53 26t27 82t-4 82t-46 26q-33 0 -52.5 -26t-27.5 -82zM146 651q5 29 15 49t27 33t41.5 19t57.5 6q65 0 90.5 -25.5
t17.5 -82.5q-8 -56 -41 -81.5t-99 -25.5q-65 0 -91 25.5t-18 82.5zM429 649q4 29 14 49t27.5 33t41.5 19t57 6q66 0 91.5 -25.5t17.5 -82.5q-5 -38 -21.5 -61.5t-45.5 -34.5t-73 -11q-65 0 -91 25.5t-18 82.5z" />
    <glyph glyph-name="divide" unicode="&#xf7;" horiz-adv-x="560" 
d="M277 -12q-48 0 -74 25.5t-20 68.5t39 68.5t82 25.5q48 0 74 -25.5t20 -68.5q-4 -28 -20.5 -49.5t-42.5 -33t-58 -11.5zM327.5 344q-48.5 0 -74.5 25.5t-20 68.5q4 28 20 49.5t42.5 33t58.5 11.5q48 0 74 -25.5t20 -68.5t-39 -68.5t-81.5 -25.5zM568 198h-520l17 122h520z
" />
    <glyph glyph-name="oslash" unicode="&#xf8;" horiz-adv-x="642" 
d="M283 -9l-30 -60h-100l37 74q-83 22 -114.5 82t-17.5 163q19 137 99 198.5t239 61.5q26 0 38 -1l29 61h101l-36 -75q82 -22 114 -82t17 -163q-19 -137 -99 -198.5t-238 -61.5q-27 0 -39 1zM374 359q-66 0 -81 -111q-2 -23 -3 -47t12 -41.5t41 -17.5q21 0 36 10t24 27.5
t13 33.5t7 37q2 14 3 24.5t0.5 24t-3.5 23.5t-8.5 19t-15.5 13.5t-25 4.5z" />
    <glyph glyph-name="ugrave" unicode="&#xf9;" horiz-adv-x="632" 
d="M582 0h-183l-36 129q-21 -72 -58 -105.5t-93 -33.5q-92 0 -125 57t-16 183l38 270h236l-36 -258q-8 -52 -3 -76t28 -24q32 0 44 88l38 270h236zM425 700l57 -150h-180l-111 150h234z" />
    <glyph glyph-name="uacute" unicode="&#xfa;" horiz-adv-x="632" 
d="M582 0h-183l-36 129q-21 -72 -58 -105.5t-93 -33.5q-92 0 -125 57t-16 183l38 270h236l-36 -258q-8 -52 -3 -76t28 -24q32 0 44 88l38 270h236zM287 550l99 150h234l-153 -150h-180z" />
    <glyph glyph-name="ucircumflex" unicode="&#xfb;" horiz-adv-x="632" 
d="M582 0h-183l-36 129q-21 -72 -58 -105.5t-93 -33.5q-92 0 -125 57t-16 183l38 270h236l-36 -258q-8 -52 -3 -76t28 -24q32 0 44 88l38 270h236zM578 700l-2 -150h-140l-31 142l-71 -142h-140l40 150h344z" />
    <glyph glyph-name="udieresis" unicode="&#xfc;" horiz-adv-x="632" 
d="M582 0h-183l-36 129q-21 -72 -58 -105.5t-93 -33.5q-92 0 -125 57t-16 183l38 270h236l-36 -258q-8 -52 -3 -76t28 -24q32 0 44 88l38 270h236zM135 651q5 29 15 49t27 33t41.5 19t57.5 6q65 0 90.5 -25.5t17.5 -82.5q-8 -56 -41 -81.5t-99 -25.5q-65 0 -91 25.5
t-18 82.5zM418 649q4 29 14 49t27.5 33t41.5 19t57 6q66 0 91.5 -25.5t17.5 -82.5q-5 -38 -21.5 -61.5t-45.5 -34.5t-73 -11q-65 0 -91 25.5t-18 82.5z" />
    <glyph glyph-name="yacute" unicode="&#xfd;" horiz-adv-x="555" 
d="M204 -52q58 0 70 52h-178l-26 500h235l-8 -401l92 401h236l-157 -511q-13 -45 -32.5 -76.5t-47.5 -52t-64 -30.5t-82 -10h-176l18 128h120zM259 550l99 150h234l-153 -150h-180z" />
    <glyph glyph-name="ydieresis" unicode="&#xff;" horiz-adv-x="555" 
d="M204 -52q58 0 70 52h-178l-26 500h235l-8 -401l92 401h236l-157 -511q-13 -45 -32.5 -76.5t-47.5 -52t-64 -30.5t-82 -10h-176l18 128h120zM107 651q5 29 15 49t27 33t41.5 19t57.5 6q65 0 90.5 -25.5t17.5 -82.5q-8 -56 -41 -81.5t-99 -25.5q-65 0 -91 25.5t-18 82.5z
M390 649q4 29 14 49t27.5 33t41.5 19t57 6q66 0 91.5 -25.5t17.5 -82.5q-8 -56 -41 -81.5t-99 -25.5q-65 0 -91 25.5t-18 82.5z" />
    <glyph glyph-name="Amacron" unicode="&#x100;" horiz-adv-x="789" 
d="M493 0h-1l-2 116h-171l-37 -116h-263l235 700h503l12 -700h-276zM480 621l-112 -353h119zM336 764l17 116h340l-17 -116h-340z" />
    <glyph glyph-name="amacron" unicode="&#x101;" horiz-adv-x="602" 
d="M380 0l-37 119q-21 -68 -60.5 -98t-108.5 -30q-77 0 -111.5 36.5t-23.5 115.5q14 96 82 137.5t207 41.5h42l3 18q7 54 -25 54q-31 0 -37 -44h-222q12 84 79 122t204.5 38t193 -46t40.5 -148l-44 -316h-182zM326 207q-42 0 -48 -42q-5 -35 25 -35q14 0 23.5 5.5t15.5 17
t9 30.5l3 24h-28zM208 565l17 116h340l-17 -116h-340z" />
    <glyph glyph-name="Abreve" unicode="&#x102;" horiz-adv-x="789" 
d="M493 0h-1l-2 116h-171l-37 -116h-263l235 700h503l12 -700h-276zM480 621l-112 -353h119zM698 870q-9 -63 -55 -91.5t-139 -28.5t-131 28.5t-29 91.5h149q-2 -15 3.5 -21.5t20.5 -6.5q29 0 33 28h148z" />
    <glyph glyph-name="abreve" unicode="&#x103;" horiz-adv-x="602" 
d="M380 0l-37 119q-21 -68 -60.5 -98t-108.5 -30q-77 0 -111.5 36.5t-23.5 115.5q14 96 82 137.5t207 41.5h42l3 18q7 54 -25 54q-31 0 -37 -44h-222q12 84 79 122t204.5 38t193 -46t40.5 -148l-44 -316h-182zM326 207q-42 0 -48 -42q-5 -35 25 -35q14 0 23.5 5.5t15.5 17
t9 30.5l3 24h-28zM575 701q-12 -79 -59 -114.5t-140 -35.5t-130 35.5t-25 114.5h145q-7 -46 25 -46t39 46h145z" />
    <glyph glyph-name="Aogonek" unicode="&#x104;" horiz-adv-x="789" 
d="M738 0q-43 -48 -33 -68q3 -7 15 -7q16 0 34 8l-23 -163q-33 -20 -74 -20q-43 0 -71 25.5t-34 62.5t10.5 82t55.5 80h-126l-2 116h-171l-37 -116h-263l235 700h503l12 -700h-31zM479 620l-112 -353h119z" />
    <glyph glyph-name="aogonek" unicode="&#x105;" horiz-adv-x="602" 
d="M562 0h-70q-43 -48 -32 -66q4 -7 16 -7q16 0 33 8l-23 -163q-33 -20 -74 -20q-43 0 -71 26t-33.5 64t12 83t58.5 80l-35 114q-21 -68 -60.5 -98t-108.5 -30q-77 0 -111.5 36.5t-23.5 115.5q14 96 82 137.5t207 41.5h42l3 18q7 54 -25 54q-31 0 -37 -44h-222q12 84 79 122
t204.5 38t193 -46t40.5 -148zM352 207h-28q-42 0 -48 -42q-5 -35 25 -35q14 0 23.5 5.5t15.5 17t9 30.5z" />
    <glyph glyph-name="Cacute" unicode="&#x106;" horiz-adv-x="812" 
d="M553 244h263q-44 -139 -138 -201.5t-256 -62.5q-207 0 -288 88t-54 282t133 282t313 88q171 0 247 -62.5t73 -201.5h-263q2 88 -83 88q-62 0 -96.5 -46t-48.5 -148t7.5 -148t83.5 -46q93 0 107 88zM428 750l99 120h220l-139 -120h-180z" />
    <glyph glyph-name="cacute" unicode="&#x107;" horiz-adv-x="622" 
d="M394 196h236q-25 -108 -98.5 -157t-211.5 -49q-159 0 -221.5 61.5t-43.5 198.5t99 198.5t239 61.5q138 0 198 -49t54 -157h-236q0 19 -4 31t-13 17.5t-25 5.5q-32 0 -50 -25.5t-26 -82.5t3 -82.5t43 -25.5q15 0 25.5 5.5t18 17.5t13.5 31zM298 550l99 150h234l-153 -150
h-180z" />
    <glyph glyph-name="Ccircumflex" unicode="&#x108;" horiz-adv-x="812" 
d="M553 244h263q-44 -139 -138 -201.5t-256 -62.5q-207 0 -288 88t-54 282t133 282t313 88q171 0 247 -62.5t73 -201.5h-263q2 88 -83 88q-62 0 -96.5 -46t-48.5 -148t7.5 -148t83.5 -46q93 0 107 88zM719 870h1l-1 -120h-153l-19 112l-51 -112h-153l32 120h344z" />
    <glyph glyph-name="ccircumflex" unicode="&#x109;" horiz-adv-x="622" 
d="M394 196h236q-25 -108 -98.5 -157t-211.5 -49q-159 0 -221.5 61.5t-43.5 198.5t99 198.5t239 61.5q138 0 198 -49t54 -157h-236q0 19 -4 31t-13 17.5t-25 5.5q-32 0 -50 -25.5t-26 -82.5t3 -82.5t43 -25.5q15 0 25.5 5.5t18 17.5t13.5 31zM590 700l-2 -150h-140l-31 142
l-71 -142h-140l40 150h344z" />
    <glyph glyph-name="Cdotaccent" unicode="&#x10a;" horiz-adv-x="812" 
d="M553 244h263q-44 -139 -138 -201.5t-256 -62.5q-207 0 -288 88t-54 282t133 282t313 88q171 0 247 -62.5t73 -201.5h-263q2 88 -83 88q-62 0 -96.5 -46t-48.5 -148t7.5 -148t83.5 -46q93 0 107 88zM419 840q7 48 39.5 69.5t97.5 21.5t92 -21.5t20 -69.5q-4 -32 -20 -51.5
t-44.5 -29t-73.5 -9.5q-65 0 -91.5 21.5t-19.5 68.5z" />
    <glyph glyph-name="cdotaccent" unicode="&#x10b;" horiz-adv-x="622" 
d="M394 196h236q-25 -108 -98.5 -157t-211.5 -49q-159 0 -221.5 61.5t-43.5 198.5t99 198.5t239 61.5q138 0 198 -49t54 -157h-236q0 19 -4 31t-13 17.5t-25 5.5q-32 0 -50 -25.5t-26 -82.5t3 -82.5t43 -25.5q15 0 25.5 5.5t18 17.5t13.5 31zM288 651q7 54 39.5 77.5
t98.5 23.5q65 0 91 -24.5t18.5 -77.5t-40.5 -77t-99 -24q-43 0 -68.5 11t-35.5 33t-4 58z" />
    <glyph glyph-name="Ccaron" unicode="&#x10c;" horiz-adv-x="812" 
d="M553 244h263q-44 -139 -138 -201.5t-256 -62.5q-207 0 -288 88t-54 282t133 282t313 88q171 0 247 -62.5t73 -201.5h-263q2 88 -83 88q-62 0 -96.5 -46t-48.5 -148t7.5 -148t83.5 -46q93 0 107 88zM742 900l-40 -150h-344l2 150h140l31 -142l71 142h140z" />
    <glyph glyph-name="ccaron" unicode="&#x10d;" horiz-adv-x="622" 
d="M394 196h236q-25 -108 -98.5 -157t-211.5 -49q-159 0 -221.5 61.5t-43.5 198.5t99 198.5t239 61.5q138 0 198 -49t54 -157h-236q0 19 -4 31t-13 17.5t-25 5.5q-32 0 -50 -25.5t-26 -82.5t3 -82.5t43 -25.5q15 0 25.5 5.5t18 17.5t13.5 31zM609 700l-40 -150h-344l2 150
h140l31 -142l71 142h140z" />
    <glyph glyph-name="Dcaron" unicode="&#x10e;" horiz-adv-x="789" 
d="M808 350q-26 -184 -128 -267t-302 -83h-318l98 700h318q201 0 279.5 -83t52.5 -267zM439 536h-42l-52 -372h42q62 0 96.5 44.5t48 141.5t-8.5 141.5t-84 44.5zM666 900l-40 -150h-344l2 150h140l32 -142l70 142h140z" />
    <glyph glyph-name="dcaron" unicode="&#x10f;" horiz-adv-x="820" 
d="M216 -10q-104 0 -142 61.5t-19 198t74.5 198.5t158.5 62q64 0 95 -37.5t33 -118.5l48 346h236l-98 -700h-182l-31 153q-24 -85 -66 -124t-107 -39zM329 142q28 0 44.5 26t24.5 82q8 57 -1 82.5t-37.5 25.5t-45 -25.5t-24.5 -82.5q-4 -28 -3.5 -48.5t5 -33.5t14 -19.5
t23.5 -6.5zM719 644q9 64 85 64q51 0 68 -24.5t10 -70.5q-9 -68 -50.5 -98t-125.5 -30l10 68q57 0 62 36q-36 0 -50 13t-9 42z" />
    <glyph glyph-name="Dcroat" unicode="&#x110;" horiz-adv-x="829" 
d="M848 350q-26 -184 -128 -267t-302 -83h-318l43 304h-90l19 140h90l36 256h318q201 0 279.5 -83t52.5 -267zM479 536h-42l-13 -92h101l-19 -140h-101l-20 -140h42q62 0 96 44.5t48 141.5t-8 141.5t-84 44.5z" />
    <glyph glyph-name="dcroat" unicode="&#x111;" horiz-adv-x="672" 
d="M455 630l9 70h236l-9 -70h60l-13 -92h-60l-76 -538h-182l-31 153q-24 -85 -66 -124t-107 -39q-104 0 -142 61.5t-19 198t74.5 198.5t158.5 62q43 0 71 -16.5t42 -51t15 -88.5l26 184h-165l13 92h165zM329 142q29 1 45 26.5t24 81.5q8 57 -1 82.5t-37.5 25.5t-45 -25.5
t-24.5 -82.5q-5 -37 -2.5 -61t12.5 -35t29 -12z" />
    <glyph glyph-name="Emacron" unicode="&#x112;" horiz-adv-x="638" 
d="M683 536h-285l-13 -96h245l-23 -164h-245l-16 -112h285l-23 -164h-548l98 700h548zM267 764l17 116h340l-17 -116h-340z" />
    <glyph glyph-name="emacron" unicode="&#x113;" horiz-adv-x="622" 
d="M630 198h-349q-6 -42 5 -61t41 -19q43 0 54 46h223q-27 -91 -97 -132.5t-197 -41.5q-153 0 -213.5 61.5t-41.5 198.5t97 198.5t231 61.5t213.5 -61t41.5 -195zM364 382q-30 0 -45 -16t-20 -52h110q5 35 -6 51.5t-39 16.5zM218 564l17 116h340l-17 -116h-340z" />
    <glyph glyph-name="Ebreve" unicode="&#x114;" horiz-adv-x="638" 
d="M683 536h-285l-13 -96h245l-23 -164h-245l-16 -112h285l-23 -164h-548l98 700h548zM629 870q-9 -63 -55 -91.5t-139 -28.5t-131 28.5t-29 91.5h149q-2 -15 3.5 -21.5t20.5 -6.5q29 0 33 28h148z" />
    <glyph glyph-name="ebreve" unicode="&#x115;" horiz-adv-x="622" 
d="M630 198h-349q-6 -42 5 -61t41 -19q43 0 54 46h223q-27 -91 -97 -132.5t-197 -41.5q-153 0 -213.5 61.5t-41.5 198.5t97 198.5t231 61.5t213.5 -61t41.5 -195zM364 382q-30 0 -45 -16t-20 -52h110q5 35 -6 51.5t-39 16.5zM584 700q-7 -53 -30 -86t-64 -48.5t-104 -15.5
q-93 0 -130 35.5t-26 114.5h145q-6 -46 26 -46t38 46h145z" />
    <glyph glyph-name="Edotaccent" unicode="&#x116;" horiz-adv-x="638" 
d="M683 536h-285l-13 -96h245l-23 -164h-245l-16 -112h285l-23 -164h-548l98 700h548zM323 840q7 48 39.5 69.5t97.5 21.5t92 -21.5t20 -69.5q-4 -32 -20 -51.5t-44.5 -29t-73.5 -9.5q-65 0 -91.5 21.5t-19.5 68.5z" />
    <glyph glyph-name="edotaccent" unicode="&#x117;" horiz-adv-x="622" 
d="M630 198h-349q-6 -42 5 -61t41 -19q43 0 54 46h223q-27 -91 -97 -132.5t-197 -41.5q-153 0 -213.5 61.5t-41.5 198.5t97 198.5t231 61.5t213.5 -61t41.5 -195zM364 382q-30 0 -45 -16t-20 -52h110q5 35 -6 51.5t-39 16.5zM276 651q8 54 40.5 77.5t98.5 23.5
q65 0 91 -24.5t18.5 -77.5t-40.5 -77t-99 -24q-43 0 -68.5 11t-35.5 33t-5 58z" />
    <glyph glyph-name="Eogonek" unicode="&#x118;" horiz-adv-x="638" 
d="M579 0l-1 -1q-42 -47 -33 -67q4 -7 16 -7q16 0 34 8l-23 -163q-33 -20 -74 -20q-43 0 -71 25.5t-34 62.5t10.5 82t55.5 80h-399l98 700h548l-23 -164h-285l-13 -96h245l-23 -164h-245l-16 -112h285l-23 -164h-29z" />
    <glyph glyph-name="eogonek" unicode="&#x119;" horiz-adv-x="622" 
d="M474 15l-2 -3q-44 -41 -48 -71q-2 -18 17 -18q16 0 33 8l-23 -163q-32 -20 -73 -20q-56 0 -85 39.5t-19.5 97t54.5 104.5h-18q-152 0 -212.5 61.5t-41.5 198.5t97 198.5t230.5 61.5t213 -61t42.5 -195l-8 -56h-348q-6 -42 4.5 -61t40.5 -19q44 0 55 46h223
q-33 -110 -132 -148zM362 379q-29 0 -44 -16t-20 -52h110q3 24 -0.5 39t-15 22t-30.5 7z" />
    <glyph glyph-name="Ecaron" unicode="&#x11a;" horiz-adv-x="638" 
d="M683 536h-285l-13 -96h245l-23 -164h-245l-16 -112h285l-23 -164h-548l98 700h548zM647 900l-40 -150h-344l2 150h140l32 -142l70 142h140z" />
    <glyph glyph-name="ecaron" unicode="&#x11b;" horiz-adv-x="622" 
d="M630 198h-349q-6 -42 5 -61t41 -19q43 0 54 46h223q-27 -91 -97 -132.5t-197 -41.5q-153 0 -213.5 61.5t-41.5 198.5t97 198.5t231 61.5t213.5 -61t41.5 -195zM364 382q-30 0 -45 -16t-20 -52h110q5 35 -6 51.5t-39 16.5zM598 700l-40 -150h-344l2 150h140l31 -142
l71 142h140z" />
    <glyph glyph-name="Gbreve" unicode="&#x11e;" horiz-adv-x="822" 
d="M458 266l22 152h371l-10 -68q-27 -194 -127.5 -282t-295.5 -88q-205 0 -285.5 88t-53.5 282t132.5 282t310.5 88q164 0 242 -57t85 -183h-249q-2 33 -26.5 48.5t-75.5 15.5q-60 0 -94 -46.5t-48 -147.5t7 -147.5t80 -46.5q63 0 95.5 26.5t40.5 83.5h-121zM719 870
q-9 -63 -55 -91.5t-139 -28.5t-131 28.5t-29 91.5h149q-2 -15 3.5 -21.5t20.5 -6.5q29 0 33 28h148z" />
    <glyph glyph-name="gbreve" unicode="&#x11f;" 
d="M386 149q-46 -159 -175 -159q-99 0 -139 63t-21 197.5t77 197t157 62.5q43 0 71 -17t42 -52.5t14 -91.5l75 151h182l-63 -450q-19 -137 -97 -198.5t-231 -61.5q-129 0 -187.5 41.5t-57.5 132.5h223q0 -24 9 -35t32 -11q56 0 70 95zM327 142q55 0 70 108q6 37 3 61
t-13.5 35.5t-29.5 11.5t-32.5 -11.5t-23 -35t-14.5 -61.5q-15 -108 40 -108zM581 700q-7 -53 -30 -86t-64 -48.5t-104 -15.5q-93 0 -130 35.5t-26 114.5h145q-6 -46 26 -46t38 46h145z" />
    <glyph glyph-name="Gdotaccent" unicode="&#x120;" horiz-adv-x="822" 
d="M458 266l22 152h371l-10 -68q-27 -194 -127.5 -282t-295.5 -88q-205 0 -285.5 88t-53.5 282t132.5 282t310.5 88q164 0 242 -57t85 -183h-249q-2 33 -26.5 48.5t-75.5 15.5q-60 0 -94 -46.5t-48 -147.5t7 -147.5t80 -46.5q63 0 95.5 26.5t40.5 83.5h-121zM414 840
q7 48 39.5 69.5t97.5 21.5t92 -21.5t20 -69.5q-4 -32 -20 -51.5t-44.5 -29t-73.5 -9.5q-65 0 -91.5 21.5t-19.5 68.5z" />
    <glyph glyph-name="gdotaccent" unicode="&#x121;" 
d="M386 149q-46 -159 -175 -159q-99 0 -139 63t-21 197.5t77 197t157 62.5q43 0 71 -17t42 -52.5t14 -91.5l75 151h182l-63 -450q-19 -137 -97 -198.5t-231 -61.5q-129 0 -187.5 41.5t-57.5 132.5h223q0 -24 9 -35t32 -11q56 0 70 95zM327 142q55 0 70 108q6 37 3 61
t-13.5 35.5t-29.5 11.5t-32.5 -11.5t-23 -35t-14.5 -61.5q-15 -108 40 -108zM274 651q7 54 39.5 77.5t98.5 23.5q65 0 91 -24.5t18.5 -77.5t-40.5 -77t-99 -24q-43 0 -68.5 11t-35.5 33t-4 58z" />
    <glyph glyph-name="Gcedilla" unicode="&#x122;" horiz-adv-x="822" 
d="M458 266l22 152h371l-10 -68q-27 -194 -127.5 -282t-295.5 -88q-205 0 -285.5 88t-53.5 282t132.5 282t310.5 88q164 0 242 -57t85 -183h-249q-2 33 -26.5 48.5t-75.5 15.5q-60 0 -94 -46.5t-48 -147.5t7 -147.5t80 -46.5q63 0 95.5 26.5t40.5 83.5h-121zM315 -105
q9 64 85 64q52 0 68.5 -24.5t10.5 -70.5q-10 -68 -51 -98t-125 -30l9 68q57 0 63 36q-36 0 -50 13t-10 42z" />
    <glyph glyph-name="gcedilla" unicode="&#x123;" 
d="M386 149q-46 -159 -175 -159q-99 0 -139 63t-21 197.5t77 197t157 62.5q43 0 71 -17t42 -52.5t14 -91.5l75 151h182l-63 -450q-19 -137 -97 -198.5t-231 -61.5q-129 0 -187.5 41.5t-57.5 132.5h223q0 -24 9 -35t32 -11q56 0 70 95zM327 142q55 0 70 108q6 37 3 61
t-13.5 35.5t-29.5 11.5t-32.5 -11.5t-23 -35t-14.5 -61.5q-15 -108 40 -108zM488 606q-9 -64 -85 -64q-51 0 -68 24.5t-10 70.5q9 68 50.5 98t125.5 30l-10 -68q-57 0 -62 -36q36 0 49.5 -13t9.5 -42z" />
    <glyph glyph-name="Itilde" unicode="&#x128;" horiz-adv-x="383" 
d="M158 700h263l-98 -700h-263zM117 762q9 64 42.5 93t98.5 29q27 0 46 -6t27.5 -14t18 -14t19.5 -6t18 7t10 14l3 7h87q-9 -64 -42.5 -93t-99.5 -29q-26 0 -46 6t-29 14t-19 14t-19 6q-8 0 -15 -7t-9 -14l-3 -7h-88z" />
    <glyph glyph-name="itilde" unicode="&#x129;" horiz-adv-x="336" 
d="M286 0h-236l70 500h236zM81 574q3 23 8 42.5t12 35.5t16 28t20 21.5t25 15t30 8.5t34 3q27 0 46 -9.5t27 -21.5t16 -21.5t14 -9.5q10 0 15 8.5t8 29.5h101q-11 -81 -45.5 -117.5t-100.5 -36.5q-27 0 -45.5 6.5t-27 15.5t-13 18t-8.5 15.5t-10 6.5q-16 0 -21 -38h-101z
" />
    <glyph glyph-name="Imacron" unicode="&#x12a;" horiz-adv-x="383" 
d="M158 700h263l-98 -700h-263zM126 750l17 116h340l-17 -116h-340z" />
    <glyph glyph-name="imacron" unicode="&#x12b;" horiz-adv-x="336" 
d="M286 0h-236l70 500h236zM67 564l17 116h340l-17 -116h-340z" />
    <glyph glyph-name="Iogonek" unicode="&#x12e;" horiz-adv-x="384" 
d="M299 0q-43 -48 -33 -68q3 -7 15 -7q16 0 34 8l-23 -163q-33 -20 -74 -20q-43 0 -71 25.5t-34 62.5t10.5 82t55.5 80h-119l98 700h263l-98 -700h-24z" />
    <glyph glyph-name="iogonek" unicode="&#x12f;" horiz-adv-x="349" 
d="M259 0q-44 -49 -34 -68q4 -7 15 -7q16 0 34 8l-23 -163q-33 -20 -74 -20q-43 0 -71 25.5t-34 62.5t10.5 82t55.5 80h-82l70 500h236l-70 -500h-33zM138 635q8 53 41 77.5t98.5 24.5t91.5 -24.5t18 -77.5q-5 -36 -21 -58.5t-45 -33t-73 -10.5q-65 0 -91 24t-19 78z" />
    <glyph glyph-name="Idotaccent" unicode="&#x130;" horiz-adv-x="383" 
d="M158 700h263l-98 -700h-263zM185 840q7 48 39.5 69.5t97.5 21.5t92 -21.5t20 -69.5q-4 -32 -20 -51.5t-44.5 -29t-73.5 -9.5q-65 0 -91.5 21.5t-19.5 68.5z" />
    <glyph glyph-name="dotlessi" unicode="&#x131;" horiz-adv-x="336" 
d="M286 0h-236l70 500h236z" />
    <glyph glyph-name="IJ" unicode="&#x132;" horiz-adv-x="997" 
d="M158 700h263l-98 -700h-263zM660 -18h-1q-142 0 -200 51.5t-42 166.5l8 56h251l-8 -56q-7 -54 15 -54t29 54l70 500h263l-70 -500q-16 -115 -90.5 -166.5t-224.5 -51.5z" />
    <glyph glyph-name="ij" unicode="&#x133;" horiz-adv-x="705" 
d="M286 0h-236l70 500h236zM378 -28q11 0 22 11.5t14 28.5l68 488h236l-72 -512q-11 -79 -63 -123.5t-130 -44.5h-205l21 152h109zM139 632q7 53 40.5 77.5t98.5 24.5t91 -24.5t19 -77.5q-8 -54 -40.5 -78t-99.5 -24q-65 0 -91 24t-18 78zM604 530q-43 0 -68.5 10.5t-35 33
t-4.5 58.5q4 27 13.5 46t26.5 31.5t41 18.5t57 6q65 0 91 -24.5t19 -77.5q-8 -54 -40.5 -78t-99.5 -24z" />
    <glyph glyph-name="Kcedilla" unicode="&#x136;" horiz-adv-x="828" 
d="M419 700l-44 -319l205 319h314l-231 -340l154 -360h-313l-133 341l-48 -341h-263l98 700h261zM313 -105q9 64 85 64q52 0 68.5 -24.5t10.5 -70.5q-10 -68 -51 -98t-125 -30l9 68q57 0 63 36q-36 0 -50 13t-10 42z" />
    <glyph glyph-name="kcedilla" unicode="&#x137;" horiz-adv-x="687" 
d="M383 700l-59 -419l139 219h273l-164 -240l115 -260h-273l-94 241l-34 -241h-236l98 700h235zM254 -105q9 64 85 64q52 0 68.5 -24.5t10.5 -70.5q-10 -68 -51 -98t-125 -30l9 68q57 0 63 36q-36 0 -50 13t-10 42z" />
    <glyph glyph-name="Lacute" unicode="&#x139;" horiz-adv-x="598" 
d="M593 176l-25 -176h-508l98 700h263l-73 -524h245zM195 750l99 120h220l-139 -120h-180z" />
    <glyph glyph-name="lacute" unicode="&#x13a;" horiz-adv-x="336" 
d="M50 0l98 700h236l-98 -700h-236zM175 750l99 150h234l-153 -150h-180z" />
    <glyph glyph-name="Lcedilla" unicode="&#x13b;" horiz-adv-x="598" 
d="M593 176l-25 -176h-508l98 700h263l-73 -524h245zM225 -105q9 64 85 64q52 0 68.5 -24.5t10.5 -70.5q-10 -68 -51 -98t-125 -30l9 68q57 0 63 36q-36 0 -50 13t-10 42z" />
    <glyph glyph-name="lcedilla" unicode="&#x13c;" horiz-adv-x="301" 
d="M50 0l98 700h236l-98 -700h-236zM75 -105q9 64 85 64q52 0 68.5 -24.5t10.5 -70.5q-10 -68 -51 -98t-125 -30l9 68q57 0 63 36q-36 0 -50 13t-10 42z" />
    <glyph glyph-name="Lcaron" unicode="&#x13d;" horiz-adv-x="598" 
d="M593 176l-25 -176h-508l98 700h263l-73 -524h245zM453 646q9 64 85 64q51 0 68 -24.5t10 -70.5q-9 -68 -50.5 -98t-125.5 -30l10 68q57 0 62 36q-36 0 -49.5 13t-9.5 42z" />
    <glyph glyph-name="lcaron" unicode="&#x13e;" horiz-adv-x="514" 
d="M50 0l98 700h236l-98 -700h-236zM416 646q9 64 85 64q51 0 68 -24.5t10 -70.5q-9 -68 -50.5 -98t-125.5 -30l10 68q57 0 62 36q-36 0 -49.5 13t-9.5 42z" />
    <glyph glyph-name="Lslash" unicode="&#x141;" horiz-adv-x="655" 
d="M648 176l-25 -176h-508l42 299l-93 -49l21 151l94 49l35 250h263l-14 -100l139 73l-22 -151l-138 -73l-38 -273h244z" />
    <glyph glyph-name="lslash" unicode="&#x142;" horiz-adv-x="449" 
d="M52 229l-1 -1l21 151l94 47l38 273h236l-20 -143l94 47l-21 -151l-93 -47l-57 -405h-236l39 276z" />
    <glyph glyph-name="Nacute" unicode="&#x143;" horiz-adv-x="884" 
d="M672 700h250l-98 -700h-418l-5 644l-91 -644h-250l98 700h417l7 -644zM445 750l99 120h220l-139 -120h-180z" />
    <glyph glyph-name="nacute" unicode="&#x144;" horiz-adv-x="632" 
d="M302 500l36 -129q14 48 35.5 78.5t50 45.5t66.5 15q91 0 124.5 -57t15.5 -183l-38 -270h-235l36 258q9 52 3.5 76t-28.5 24q-32 0 -44 -88l-38 -270h-236l70 500h182zM278 550l99 150h234l-153 -150h-180z" />
    <glyph glyph-name="Ncedilla" unicode="&#x145;" horiz-adv-x="884" 
d="M672 700h250l-98 -700h-418l-5 644l-91 -644h-250l98 700h417l7 -644zM365 -105q9 64 85 64q52 0 68.5 -24.5t10.5 -70.5q-10 -68 -51 -98t-125 -30l9 68q57 0 63 36q-36 0 -50 13t-10 42z" />
    <glyph glyph-name="ncedilla" unicode="&#x146;" horiz-adv-x="632" 
d="M302 500l36 -129q14 48 35.5 78.5t50 45.5t66.5 15q91 0 124.5 -57t15.5 -183l-38 -270h-235l36 258q9 52 3.5 76t-28.5 24q-32 0 -44 -88l-38 -270h-236l70 500h182zM225 -105q9 64 85 64q52 0 68.5 -24.5t10.5 -70.5q-10 -68 -51 -98t-125 -30l9 68q57 0 63 36
q-36 0 -50 13t-10 42z" />
    <glyph glyph-name="Ncaron" unicode="&#x147;" horiz-adv-x="884" 
d="M672 700h250l-98 -700h-418l-5 644l-91 -644h-250l98 700h417l7 -644zM757 900l-40 -150h-344l2 150h140l32 -142l70 142h140z" />
    <glyph glyph-name="ncaron" unicode="&#x148;" horiz-adv-x="632" 
d="M302 500l36 -129q14 48 35.5 78.5t50 45.5t66.5 15q91 0 124.5 -57t15.5 -183l-38 -270h-235l36 258q9 52 3.5 76t-28.5 24q-32 0 -44 -88l-38 -270h-236l70 500h182zM589 700l-40 -150h-344l2 150h140l31 -142l71 142h140z" />
    <glyph glyph-name="Omacron" unicode="&#x14c;" horiz-adv-x="842" 
d="M522.5 720q205.5 0 285.5 -88t53 -282t-132 -282t-310.5 -88t-286 88t-53.5 282t132.5 282t311 88zM497 544q-59 0 -93 -46.5t-48 -147.5q-7 -51 -5.5 -87.5t12.5 -60t30.5 -35t49.5 -11.5q40 0 67.5 20.5t46 63t27.5 110.5q10 67 3.5 110t-28.5 63.5t-62 20.5zM357 764
l17 116h340l-17 -116h-340z" />
    <glyph glyph-name="omacron" unicode="&#x14d;" horiz-adv-x="642" 
d="M392.5 510q158.5 0 221 -61.5t43.5 -198.5t-99 -198.5t-238.5 -61.5t-221 61.5t-43.5 198.5t99 198.5t238.5 61.5zM291 250q-8 -56 4 -82t46 -26t53 26t27 82t-4 82t-46 26q-33 0 -52.5 -26t-27.5 -82zM229 564l17 116h340l-17 -116h-340z" />
    <glyph glyph-name="Obreve" unicode="&#x14e;" horiz-adv-x="842" 
d="M522.5 720q205.5 0 285.5 -88t53 -282t-132 -282t-310.5 -88t-286 88t-53.5 282t132.5 282t311 88zM497 544q-59 0 -93 -46.5t-48 -147.5q-7 -51 -5.5 -87.5t12.5 -60t30.5 -35t49.5 -11.5q40 0 67.5 20.5t46 63t27.5 110.5q10 67 3.5 110t-28.5 63.5t-62 20.5zM720 870
q-9 -63 -55 -91.5t-139 -28.5t-131 28.5t-29 91.5h149q-2 -15 3.5 -21.5t20.5 -6.5q29 0 33 28h148z" />
    <glyph glyph-name="obreve" unicode="&#x14f;" horiz-adv-x="642" 
d="M392.5 510q158.5 0 221 -61.5t43.5 -198.5t-99 -198.5t-238.5 -61.5t-221 61.5t-43.5 198.5t99 198.5t238.5 61.5zM291 250q-8 -56 4 -82t46 -26t53 26t27 82t-4 82t-46 26q-33 0 -52.5 -26t-27.5 -82zM595 700q-7 -53 -30 -86t-64 -48.5t-104 -15.5q-93 0 -130 35.5
t-26 114.5h145q-6 -46 26 -46t38 46h145z" />
    <glyph glyph-name="Ohungarumlaut" unicode="&#x150;" horiz-adv-x="842" 
d="M522.5 720q205.5 0 285.5 -88t53 -282t-132 -282t-310.5 -88t-286 88t-53.5 282t132.5 282t311 88zM497 544q-59 0 -93 -46.5t-48 -147.5q-7 -51 -5.5 -87.5t12.5 -60t30.5 -35t49.5 -11.5q40 0 67.5 20.5t46 63t27.5 110.5q10 67 3.5 110t-28.5 63.5t-62 20.5zM305 750
l89 150h221l-143 -150h-167zM573 750l88 150h221l-142 -150h-167z" />
    <glyph glyph-name="ohungarumlaut" unicode="&#x151;" horiz-adv-x="642" 
d="M392.5 510q158.5 0 221 -61.5t43.5 -198.5t-99 -198.5t-238.5 -61.5t-221 61.5t-43.5 198.5t99 198.5t238.5 61.5zM291 250q-8 -56 4 -82t46 -26t53 26t27 82t-4 82t-46 26q-33 0 -52.5 -26t-27.5 -82zM177 550l89 150h221l-143 -150h-167zM445 550l88 150h221l-142 -150
h-167z" />
    <glyph glyph-name="OE" unicode="&#x152;" horiz-adv-x="1087" 
d="M1154 700l-23 -166h-259l-13 -96h218l-23 -164h-218l-16 -112h258l-23 -164h-494l32 227q-34 -129 -100 -187.5t-183 -58.5q-145 0 -202 89t-30 281t109 281t227 89q117 0 167 -58t47 -188l32 227h494zM495 542q-59 0 -93 -46.5t-48 -147.5q-7 -51 -5.5 -87.5t12 -60
t30.5 -35t50 -11.5q59 0 93 46t48 148q10 67 3.5 110t-28.5 63.5t-62 20.5z" />
    <glyph glyph-name="oe" unicode="&#x153;" horiz-adv-x="961" 
d="M969 198h-1h-350q-4 -42 7.5 -61t40.5 -19q46 0 55 46h223q-27 -91 -90.5 -132.5t-176.5 -41.5q-91 0 -131 46.5t-36 147.5q-26 -102 -85.5 -148t-166.5 -46q-124 0 -172.5 62t-29.5 198q13 91 46.5 148.5t89.5 84.5t139 27q107 0 153.5 -46t43.5 -148q25 101 78 147.5
t143 46.5q93 0 147 -27t73.5 -83t7.5 -146zM290 250q-8 -56 4 -82t46 -26t53 26t27 82t-4 82t-46 26q-16 0 -29 -6.5t-23 -19.5t-17 -33.5t-11 -48.5zM748 314q5 36 -6 52t-39 16q-27 0 -43.5 -16t-25.5 -52h114z" />
    <glyph glyph-name="Racute" unicode="&#x154;" horiz-adv-x="769" 
d="M395 244h-39l-34 -244h-263l98 700h348q78 0 135 -20t87 -54t41.5 -74.5t5.5 -85.5q-12 -80 -66.5 -136t-155.5 -76h102l84 -254h-275zM378 396h72q22 0 39.5 22t21 48t-8 48t-34.5 22h-71zM373 750l99 120h220l-139 -120h-180z" />
    <glyph glyph-name="racute" unicode="&#x155;" horiz-adv-x="476" 
d="M321 250l-35 -250h-236l70 500h182l36 -102q42 112 133 112h67l-25 -176h-94q-51 0 -70.5 -15.5t-27.5 -68.5zM208 550l99 150h234l-153 -150h-180z" />
    <glyph glyph-name="Rcedilla" unicode="&#x156;" horiz-adv-x="769" 
d="M395 244h-39l-34 -244h-263l98 700h348q78 0 135 -20t87 -54t41.5 -74.5t5.5 -85.5q-12 -80 -66.5 -136t-155.5 -76h102l84 -254h-275zM378 396h72q22 0 39.5 22t21 48t-8 48t-34.5 22h-71zM285 -105q9 64 85 64q52 0 68.5 -24.5t10.5 -70.5q-10 -68 -51 -98t-125 -30
l9 68q57 0 63 36q-36 0 -50 13t-10 42z" />
    <glyph glyph-name="rcedilla" unicode="&#x157;" horiz-adv-x="476" 
d="M321 250l-35 -250h-236l70 500h182l36 -102q42 112 133 112h67l-25 -176h-94q-51 0 -70.5 -15.5t-27.5 -68.5zM65 -105q9 64 85 64q52 0 68.5 -24.5t10.5 -70.5q-10 -68 -51 -98t-125 -30l9 68q57 0 63 36q-36 0 -50 13t-10 42z" />
    <glyph glyph-name="Rcaron" unicode="&#x158;" horiz-adv-x="769" 
d="M395 244h-39l-34 -244h-263l98 700h348q78 0 135 -20t87 -54t41.5 -74.5t5.5 -85.5q-12 -80 -66.5 -136t-155.5 -76h102l84 -254h-275zM378 396h72q22 0 39.5 22t21 48t-8 48t-34.5 22h-71zM667 900l-40 -150h-344l2 150h140l32 -142l70 142h140z" />
    <glyph glyph-name="rcaron" unicode="&#x159;" horiz-adv-x="481" 
d="M321 250l-35 -250h-236l70 500h182l36 -102q42 112 133 112h67l-25 -176h-94q-51 0 -70.5 -15.5t-27.5 -68.5zM549 700l-40 -150h-344l2 150h140l31 -142l71 142h140z" />
    <glyph glyph-name="Sacute" unicode="&#x15a;" horiz-adv-x="702" 
d="M362 520q-2 -17 17 -29.5t52 -21.5t72 -19t77.5 -27.5t69 -42t45.5 -67t7 -97.5q-17 -124 -101 -180t-253 -56t-237.5 52t-52.5 168h236q-5 -35 13.5 -51.5t62.5 -16.5q72 0 78 48q4 24 -15 41t-51 28t-71 22t-77.5 26.5t-69.5 37.5t-46.5 60t-8.5 89q17 124 99 180
t245.5 56t230 -52t49.5 -168h-236q3 18 0 30.5t-11 21t-22 12.5t-33 4q-62 0 -69 -48zM353 749l99 120h220l-139 -120h-180z" />
    <glyph glyph-name="sacute" unicode="&#x15b;" horiz-adv-x="552" 
d="M325 394q-29 0 -31 -19q-2 -14 12.5 -22.5t39.5 -14t55 -11.5t59.5 -18t52.5 -29.5t34.5 -49.5t5.5 -75q-12 -85 -82 -125t-210 -40q-126 0 -178 38t-40 122h223q-6 -44 19 -44t29 26q2 16 -8.5 26.5t-29 15.5t-42.5 11t-49.5 11t-48.5 17t-40 28t-25 44.5t-3 65.5
q12 82 77 120.5t197 38.5q124 0 175.5 -35.5t40.5 -114.5h-209q4 34 -24 34zM246 550l99 150h234l-153 -150h-180z" />
    <glyph glyph-name="Scircumflex" unicode="&#x15c;" horiz-adv-x="702" 
d="M362 520q-2 -17 17 -29.5t52 -21.5t72 -19t77.5 -27.5t69 -42t45.5 -67t7 -97.5q-17 -124 -101 -180t-253 -56t-237.5 52t-52.5 168h236q-5 -35 13.5 -51.5t62.5 -16.5q72 0 78 48q4 24 -15 41t-51 28t-71 22t-77.5 26.5t-69.5 37.5t-46.5 60t-8.5 89q17 124 99 180
t245.5 56t230 -52t49.5 -168h-236q3 18 0 30.5t-11 21t-22 12.5t-33 4q-62 0 -69 -48zM644 869h1l-1 -120h-153l-19 112l-51 -112h-153l32 120h344z" />
    <glyph glyph-name="scircumflex" unicode="&#x15d;" horiz-adv-x="552" 
d="M325 394q-29 0 -31 -19q-2 -14 12.5 -22.5t39.5 -14t55 -11.5t59.5 -18t52.5 -29.5t34.5 -49.5t5.5 -75q-12 -85 -82 -125t-210 -40q-126 0 -178 38t-40 122h223q-6 -44 19 -44t29 26q2 16 -8.5 26.5t-29 15.5t-42.5 11t-49.5 11t-48.5 17t-40 28t-25 44.5t-3 65.5
q12 82 77 120.5t197 38.5q124 0 175.5 -35.5t40.5 -114.5h-209q4 34 -24 34zM538 700l-2 -150h-140l-31 142l-71 -142h-140l40 150h344z" />
    <glyph glyph-name="Scedilla" unicode="&#x15e;" horiz-adv-x="702" 
d="M233 -118l42 101q-128 10 -179.5 62.5t-37.5 154.5h236q-3 -24 4 -39t24.5 -22t47.5 -7q72 0 78 48q4 24 -15 41t-51 28t-71 22t-77.5 26.5t-69.5 37.5t-46.5 60t-8.5 89q17 124 99 180t245.5 56t230 -52t49.5 -168h-236q3 18 0 30.5t-11 21t-22 12.5t-33 4
q-62 0 -69 -48q-2 -17 17 -29.5t52 -21.5t72 -19t77.5 -27.5t69 -42t45.5 -67t7 -97.5q-16 -116 -90 -172t-220 -63l-11 -31q7 -2 16 -6t24.5 -13.5t24 -27.5t5.5 -41q-8 -53 -71 -82.5t-162 -29.5l11 80q49 0 53 28q2 12 -8.5 18t-40.5 6z" />
    <glyph glyph-name="scedilla" unicode="&#x15f;" horiz-adv-x="552" 
d="M325 394q-29 0 -31 -19q-2 -14 12.5 -22.5t39.5 -14t55 -11.5t59.5 -18t52.5 -29.5t34.5 -49.5t5.5 -75q-11 -74 -65.5 -114t-161.5 -48l-14 -42q7 -2 16 -6t24.5 -13.5t24 -27.5t5.5 -41q-8 -53 -71 -82.5t-162 -29.5l11 80q49 0 53 28q2 12 -8 18t-40 6h-3l43 110
q-95 7 -133.5 45t-28.5 112h223q-6 -44 19 -44t29 26q2 16 -8.5 26.5t-29 15.5t-42.5 11t-49.5 11t-48.5 17t-40 28t-25 44.5t-3 65.5q12 82 77 120.5t197 38.5q124 0 175.5 -35.5t40.5 -114.5h-209q4 34 -24 34z" />
    <glyph glyph-name="Scaron" unicode="&#x160;" horiz-adv-x="702" 
d="M362 520q-2 -17 17 -29.5t52 -21.5t72 -19t77.5 -27.5t69 -42t45.5 -67t7 -97.5q-17 -124 -101 -180t-253 -56t-237.5 52t-52.5 168h236q-5 -35 13.5 -51.5t62.5 -16.5q72 0 78 48q4 24 -15 41t-51 28t-71 22t-77.5 26.5t-69.5 37.5t-46.5 60t-8.5 89q17 124 99 180
t245.5 56t230 -52t49.5 -168h-236q3 18 0 30.5t-11 21t-22 12.5t-33 4q-62 0 -69 -48zM667 899l-40 -150h-344l2 150h140l31 -142l71 142h140z" />
    <glyph glyph-name="scaron" unicode="&#x161;" horiz-adv-x="552" 
d="M325 394q-29 0 -31 -19q-2 -14 12.5 -22.5t39.5 -14t55 -11.5t59.5 -18t52.5 -29.5t34.5 -49.5t5.5 -75q-12 -85 -82 -125t-210 -40q-126 0 -178 38t-40 122h223q-6 -44 19 -44t29 26q2 16 -8.5 26.5t-29 15.5t-42.5 11t-49.5 11t-48.5 17t-40 28t-25 44.5t-3 65.5
q12 82 77 120.5t197 38.5q124 0 175.5 -35.5t40.5 -114.5h-209q4 34 -24 34zM558 700l-40 -150h-344l2 150h140l31 -142l71 142h140z" />
    <glyph glyph-name="Tcedilla" unicode="&#x162;" horiz-adv-x="656" 
d="M273 0h-57l76 541h-196l22 159h616l-22 -159h-196l-76 -541h-65l-18 -50l9 -3t20 -9t24 -16.5t17 -26t4 -35.5q-7 -51 -68.5 -80.5t-159.5 -29.5l10 73q68 0 73 37q4 27 -59 27z" />
    <glyph glyph-name="tcedilla" unicode="&#x163;" horiz-adv-x="469" 
d="M216 5v1q-53 13 -77.5 53.5t-15.5 103.5l31 221h-80l16 116h80l19 131h202l-19 -131h137l-16 -116h-137l-28 -200q-3 -21 7 -33.5t28 -12.5h95l-19 -138h-123l-18 -50l9 -3t20 -9t24 -16.5t17 -26t4 -35.5q-7 -51 -68.5 -80.5t-158.5 -29.5l10 73q68 0 73 37q4 27 -60 27
z" />
    <glyph glyph-name="Tcaron" unicode="&#x164;" horiz-adv-x="682" 
d="M759 700l-26 -188h-189l-72 -512h-263l72 512h-189l26 188h641zM656 900l-40 -150h-344l2 150h140l32 -142l70 142h140z" />
    <glyph glyph-name="tcaron" unicode="&#x165;" horiz-adv-x="538" 
d="M363 192q-2 -14 0.5 -23t11 -13t22.5 -4h92l-21 -152h-198q-78 0 -117.5 44.5t-28.5 123.5l28 204h-80l18 128h80l19 134h236l-19 -134h133l-18 -128h-133zM446 688q9 64 85 64q51 0 68 -24.5t10 -70.5q-4 -34 -16.5 -58t-34 -39.5t-52 -23t-73.5 -7.5l10 68q57 0 62 36
q-36 0 -49.5 13t-9.5 42z" />
    <glyph glyph-name="Utilde" unicode="&#x168;" horiz-adv-x="762" 
d="M87 262l61 438h263l-61 -438q-8 -55 5 -80.5t48 -25.5t55 25.5t28 80.5l61 438h263l-61 -438q-21 -148 -109 -215t-262 -67t-243 67t-48 215zM311 762q9 64 42.5 93t98.5 29q27 0 46 -6t27.5 -14t18 -14t19.5 -6q6 0 12 3t9 7t5.5 8t3.5 7l1 3h87q-9 -64 -42.5 -93
t-99.5 -29q-26 0 -46 6t-29 14t-19 14t-19 6q-8 0 -15 -7t-9 -14l-3 -7h-88z" />
    <glyph glyph-name="utilde" unicode="&#x169;" horiz-adv-x="632" 
d="M582 0h-183l-36 129q-21 -72 -58 -105.5t-93 -33.5q-92 0 -125 57t-16 183l38 270h236l-36 -258q-8 -52 -3 -76t28 -24q32 0 44 88l38 270h236zM212 574q5 41 16.5 70t29 47.5t42 27.5t57.5 9q27 0 46 -9.5t27 -21.5t16 -21.5t14 -9.5q7 0 11.5 4t7 12t4.5 22h101
q-11 -81 -45.5 -117.5t-100.5 -36.5q-27 0 -45.5 6.5t-27 15.5t-13 18t-8.5 15.5t-10 6.5q-16 0 -21 -38h-101z" />
    <glyph glyph-name="Umacron" unicode="&#x16a;" horiz-adv-x="762" 
d="M87 262l61 438h263l-61 -438q-8 -55 5 -80.5t48 -25.5t55 25.5t28 80.5l61 438h263l-61 -438q-21 -148 -109 -215t-262 -67t-243 67t-48 215zM317 764l17 116h340l-17 -116h-340z" />
    <glyph glyph-name="umacron" unicode="&#x16b;" horiz-adv-x="632" 
d="M582 0h-183l-36 129q-21 -72 -58 -105.5t-93 -33.5q-92 0 -125 57t-16 183l38 270h236l-36 -258q-8 -52 -3 -76t28 -24q32 0 44 88l38 270h236zM218 564l17 116h340l-17 -116h-340z" />
    <glyph glyph-name="Ubreve" unicode="&#x16c;" horiz-adv-x="762" 
d="M87 262l61 438h263l-61 -438q-8 -55 5 -80.5t48 -25.5t55 25.5t28 80.5l61 438h263l-61 -438q-21 -148 -109 -215t-262 -67t-243 67t-48 215zM680 870q-4 -32 -17.5 -54.5t-37 -37t-58 -21.5t-81.5 -7q-93 0 -131 28.5t-29 91.5h149q-2 -15 3.5 -21.5t20.5 -6.5
q29 0 33 28h148z" />
    <glyph glyph-name="ubreve" unicode="&#x16d;" horiz-adv-x="632" 
d="M582 0h-183l-36 129q-21 -72 -58 -105.5t-93 -33.5q-92 0 -125 57t-16 183l38 270h236l-36 -258q-8 -52 -3 -76t28 -24q32 0 44 88l38 270h236zM584 700q-7 -53 -30 -86t-64 -48.5t-104 -15.5q-93 0 -130 35.5t-26 114.5h145q-6 -46 26 -46t38 46h145z" />
    <glyph glyph-name="Uring" unicode="&#x16e;" horiz-adv-x="762" 
d="M87 262l61 438h263l-61 -438q-8 -55 5 -80.5t48 -25.5t55 25.5t28 80.5l61 438h263l-61 -438q-21 -148 -109 -215t-262 -67t-243 67t-48 215zM517.5 978q73.5 0 103 -27t21 -87t-45.5 -87t-110.5 -27t-103 27t-21 87t45.5 87t110.5 27zM497 830q26 0 30.5 34t-21.5 34
t-30.5 -34t21.5 -34z" />
    <glyph glyph-name="uring" unicode="&#x16f;" horiz-adv-x="632" 
d="M582 0h-183l-36 129q-21 -72 -58 -105.5t-93 -33.5q-92 0 -125 57t-16 183l38 270h236l-36 -258q-8 -52 -3 -76t28 -24q32 0 44 88l38 270h236zM418.5 778q73.5 0 103 -27t21 -87t-45.5 -87t-110.5 -27t-103 27t-21 87t45.5 87t110.5 27zM398 630q26 0 30.5 34t-21.5 34
t-30.5 -34t21.5 -34z" />
    <glyph glyph-name="Uhungarumlaut" unicode="&#x170;" horiz-adv-x="762" 
d="M87 262l61 438h263l-61 -438q-8 -55 5 -80.5t48 -25.5t55 25.5t28 80.5l61 438h263l-61 -438q-21 -148 -109 -215t-262 -67t-243 67t-48 215zM265 750l89 150h221l-143 -150h-167zM533 750l88 150h221l-142 -150h-167z" />
    <glyph glyph-name="uhungarumlaut" unicode="&#x171;" horiz-adv-x="632" 
d="M582 0h-183l-36 129q-21 -72 -58 -105.5t-93 -33.5q-92 0 -125 57t-16 183l38 270h236l-36 -258q-8 -52 -3 -76t28 -24q32 0 44 88l38 270h236zM166 550l89 150h221l-143 -150h-167zM434 550l88 150h221l-142 -150h-167z" />
    <glyph glyph-name="Uogonek" unicode="&#x172;" horiz-adv-x="762" 
d="M552 -74q15 0 32 8l-23 -163q-33 -20 -74 -20q-54 0 -82.5 37t-22 92t47.5 102q-34 -2 -52 -2q-174 0 -243 67t-48 215l61 438h263l-61 -438q-8 -55 5 -80.5t48 -25.5t55 25.5t28 80.5l61 438h263l-61 -438q-9 -64 -30 -112t-55 -82t-82 -54q-44 -42 -47 -71
q-2 -17 17 -17z" />
    <glyph glyph-name="uogonek" unicode="&#x173;" horiz-adv-x="632" 
d="M582 0h-66q-42 -46 -33 -67q5 -8 16 -8q16 0 34 8l-23 -163q-33 -20 -74 -20q-43 0 -71 25.5t-34 63t11 82.5t56 80l-35 128q-21 -72 -58 -105.5t-93 -33.5q-92 0 -125 57t-16 183l38 270h236l-36 -258q-8 -52 -3 -76t28 -24q32 0 44 88l38 270h236z" />
    <glyph glyph-name="Wcircumflex" unicode="&#x174;" horiz-adv-x="1131" 
d="M461 700h405l-37 -625l127 625h263l-183 -700h-414l26 631l-139 -631h-413l12 700h263l-47 -620zM854 870h1l-1 -120h-153l-19 112l-51 -112h-153l32 120h344z" />
    <glyph glyph-name="wcircumflex" unicode="&#x175;" horiz-adv-x="981" 
d="M890 0h-347l11 441l-102 -441h-360l-12 500h236l-24 -433l100 433h338l-21 -432l96 432h236zM760 700l-2 -150h-140l-31 142l-71 -142h-140l40 150h344z" />
    <glyph glyph-name="Ycircumflex" unicode="&#x176;" horiz-adv-x="743" 
d="M666 300h-1h-121l-42 -300h-249l42 300h-121l-76 400h289l35 -384l143 384h275zM672 870h1l-1 -120h-153l-19 112l-51 -112h-153l32 120h344z" />
    <glyph glyph-name="ycircumflex" unicode="&#x177;" horiz-adv-x="555" 
d="M204 -52q58 0 70 52h-178l-26 500h235l-8 -401l92 401h236l-157 -511q-13 -45 -32.5 -76.5t-47.5 -52t-64 -30.5t-82 -10h-176l18 128h120zM550 700l-2 -150h-140l-31 142l-71 -142h-140l40 150h344z" />
    <glyph glyph-name="Ydieresis" unicode="&#x178;" horiz-adv-x="743" 
d="M666 300h-1h-121l-42 -300h-249l42 300h-121l-76 400h289l35 -384l143 384h275zM354.5 930q65.5 0 92.5 -21.5t20 -69.5q-7 -47 -39.5 -68.5t-98.5 -21.5q-65 0 -91.5 21.5t-19.5 68.5q7 48 39 69.5t97.5 21.5zM663.5 930q65.5 0 92.5 -21.5t20 -69.5q-7 -47 -39.5 -68.5
t-98.5 -21.5q-65 0 -91.5 21.5t-19.5 68.5q7 48 39 69.5t97.5 21.5z" />
    <glyph glyph-name="Zacute" unicode="&#x179;" horiz-adv-x="668" 
d="M680 370l-484 -206h465l-23 -164h-608l46 330l485 206h-446l23 164h588zM333 750l99 120h220l-139 -120h-180z" />
    <glyph glyph-name="zacute" unicode="&#x17a;" horiz-adv-x="548" 
d="M192 140h346l-20 -140h-488l40 282l347 78h-326l19 140h468l-39 -282zM258 550l99 150h234l-153 -150h-180z" />
    <glyph glyph-name="Zdotaccent" unicode="&#x17b;" horiz-adv-x="668" 
d="M680 370l-484 -206h465l-23 -164h-608l46 330l485 206h-446l23 164h588zM323 840q7 48 39.5 69.5t97.5 21.5t92 -21.5t20 -69.5q-4 -32 -20 -51.5t-44.5 -29t-73.5 -9.5q-65 0 -91.5 21.5t-19.5 68.5z" />
    <glyph glyph-name="zdotaccent" unicode="&#x17c;" horiz-adv-x="548" 
d="M192 140h346l-20 -140h-488l40 282l347 78h-326l19 140h468l-39 -282zM248 651q7 54 39.5 77.5t98.5 23.5q65 0 91 -24.5t18.5 -77.5t-40.5 -77t-99 -24q-43 0 -68.5 11t-35.5 33t-4 58z" />
    <glyph glyph-name="Zcaron" unicode="&#x17d;" horiz-adv-x="668" 
d="M680 370l-484 -206h465l-23 -164h-608l46 330l485 206h-446l23 164h588zM647 900l-40 -150h-344l2 150h140l32 -142l70 142h140z" />
    <glyph glyph-name="zcaron" unicode="&#x17e;" horiz-adv-x="548" 
d="M192 140h346l-20 -140h-488l40 282l347 78h-326l19 140h468l-39 -282zM569 700l-40 -150h-344l2 150h140l31 -142l71 142h140z" />
    <glyph glyph-name="Aacutering" unicode="&#x1fa;" horiz-adv-x="789" 
d="M769 0h-277l-2 116h-171l-37 -116h-263l235 700h503zM480 621l-112 -353h119zM527 960v-1h138l-64 -55q31 -11 42.5 -30t7.5 -50q-7 -48 -43.5 -70t-109.5 -22q-74 0 -104.5 22t-23.5 70q6 43 35.5 64.5t89.5 26.5zM505 800q39 0 43 24q1 9 -2.5 14t-11.5 7.5t-22 2.5
q-39 0 -42 -24q-2 -13 6.5 -18.5t28.5 -5.5z" />
    <glyph glyph-name="aacutering" unicode="&#x1fb;" horiz-adv-x="602" 
d="M380 0l-37 119q-21 -69 -59 -99t-106 -30q-160 0 -139 153q14 96 82 137.5t207 41.5h42l3 18q7 54 -25 54q-31 0 -37 -44h-222q12 84 78 122t197 38q143 0 200 -46t42 -148l-44 -316h-182zM326 207q-42 0 -48 -42q-5 -35 26 -35q21 0 32 12.5t15 40.5l3 24h-28zM637 781
l-119 -82q25 -26 19 -64q-7 -53 -44.5 -77.5t-110.5 -24.5q-74 0 -103.5 24.5t-22.5 77.5q8 53 45 77.5t111 24.5h12l48 44h165zM394 613q26 0 29 22q1 7 -0.5 12t-7 7.5t-15.5 2.5q-26 0 -29 -22q-1 -7 0.5 -12t7 -7.5t15.5 -2.5z" />
    <glyph glyph-name="AEacute" unicode="&#x1fc;" horiz-adv-x="1029" 
d="M1074 536h-262l-13 -96h222l-23 -164h-222l-16 -112h262l-23 -164h-498l16 116h-178l-57 -116h-262l339 700h738zM588 620l-173 -352h124zM515 750l99 150h234l-153 -150h-180z" />
    <glyph glyph-name="aeacute" unicode="&#x1fd;" horiz-adv-x="928" 
d="M944 254l-8 -58h-352q-6 -42 4.5 -61t38.5 -19q44 0 57 46h223q-27 -91 -85.5 -131.5t-157.5 -40.5q-101 0 -146 42t-45 136q-22 -93 -87 -135.5t-175 -42.5q-103 0 -144 36t-30 114q6 46 27 80t48 52.5t65.5 29.5t71 14t74.5 3h46l2 16q7 46 -36 46q-22 0 -33 -11.5
t-14 -36.5h-202q13 91 71 134t166 43q103 0 144 -40t34 -130q27 89 84.5 129.5t157.5 40.5q122 0 170.5 -61.5t30.5 -194.5zM351 204h-15q-55 0 -61 -40q-3 -20 1.5 -28t20.5 -8q43 0 54 76zM711 312q5 35 -6 51.5t-40 16.5q-27 0 -42 -16t-20 -52h108zM412 550l99 150h234
l-153 -150h-180z" />
    <glyph glyph-name="Oslashacute" unicode="&#x1fe;" horiz-adv-x="842" 
d="M861 350h-1q-27 -194 -132.5 -282t-310.5 -88q-22 0 -60 2l-30 -62h-155l45 91q-91 37 -124 119.5t-14 219.5q27 194 132.5 282t310.5 88q28 0 41 -1l30 61h155l-42 -85q100 -34 137.5 -118.5t17.5 -226.5zM445 156q59 0 93.5 46.5t48.5 147.5q15 102 -6 148t-81 46
q-30 0 -54 -13t-38.5 -31.5t-25 -47t-15.5 -51t-9 -51.5q-14 -102 6.5 -148t80.5 -46zM348 750l99 150h234l-153 -150h-180z" />
    <glyph glyph-name="oslashacute" unicode="&#x1ff;" horiz-adv-x="642" 
d="M283 -9l-30 -60h-100l37 74q-83 22 -114.5 82t-17.5 163q19 137 99 198.5t239 61.5q26 0 38 -1l29 61h101l-36 -75q82 -22 114 -82t17 -163q-19 -137 -99 -198.5t-238 -61.5q-27 0 -39 1zM374 359q-66 0 -81 -111q-2 -23 -3 -47t12 -41.5t41 -17.5q21 0 36 10t24 27.5
t13 33.5t7 37q2 14 3 24.5t0.5 24t-3.5 23.5t-8.5 19t-15.5 13.5t-25 4.5zM239 550l99 150h234l-153 -150h-180z" />
    <glyph glyph-name="Scommaaccent" unicode="&#x218;" horiz-adv-x="702" 
d="M362 520q-2 -17 17 -29.5t52 -21.5t72 -19t77.5 -27.5t69 -42t45.5 -67t7 -97.5q-17 -124 -101 -180t-253 -56t-237.5 52t-52.5 168h236q-5 -35 13.5 -51.5t62.5 -16.5q72 0 78 48q4 24 -15 41t-51 28t-71 22t-77.5 26.5t-69.5 37.5t-46.5 60t-8.5 89q17 124 99 180
t245.5 56t230 -52t49.5 -168h-236q3 18 0 30.5t-11 21t-22 12.5t-33 4q-62 0 -69 -48zM244 -106q9 64 85 64q52 0 68.5 -24.5t10.5 -70.5q-10 -68 -51 -98t-125 -30l9 68q57 0 62 36q-35 0 -49 13t-10 42z" />
    <glyph glyph-name="scommaaccent" unicode="&#x219;" horiz-adv-x="552" 
d="M325 394q-29 0 -31 -19q-2 -14 12.5 -22.5t39.5 -14t55 -11.5t59.5 -18t52.5 -29.5t34.5 -49.5t5.5 -75q-12 -85 -82 -125t-210 -40q-126 0 -178 38t-40 122h223q-6 -44 19 -44t29 26q2 16 -8.5 26.5t-29 15.5t-42.5 11t-49.5 11t-48.5 17t-40 28t-25 44.5t-3 65.5
q12 82 77 120.5t197 38.5q124 0 175.5 -35.5t40.5 -114.5h-209q4 34 -24 34zM173 -104q9 64 85 64q52 0 68.5 -24.5t10.5 -70.5q-9 -68 -50.5 -98t-125.5 -30l10 68q57 0 62 36q-36 0 -50 13t-10 42z" />
    <glyph glyph-name="uni021A" unicode="&#x21a;" horiz-adv-x="682" 
d="M759 700l-26 -188h-189l-72 -512h-263l72 512h-189l26 188h641zM244 -105q9 64 85 64q52 0 68.5 -24.5t10.5 -70.5q-10 -68 -51 -98t-125 -30l9 68q57 0 63 36q-36 0 -50 13t-10 42z" />
    <glyph glyph-name="uni021B" unicode="&#x21b;" horiz-adv-x="499" 
d="M363 192q-2 -14 0.5 -23t11 -13t22.5 -4h92l-21 -152h-198q-78 0 -117.5 44.5t-28.5 123.5l28 204h-80l18 128h80l19 134h236l-19 -134h133l-18 -128h-133zM184 -105q9 64 85 64q52 0 68.5 -24.5t10.5 -70.5q-10 -68 -51 -98t-125 -30l9 68q57 0 63 36q-36 0 -50 13
t-10 42z" />
    <glyph glyph-name="circumflex" unicode="&#x2c6;" horiz-adv-x="422" 
d="M480 700l-2 -150h-140l-31 142l-71 -142h-140l40 150h344z" />
    <glyph glyph-name="caron" unicode="&#x2c7;" horiz-adv-x="422" 
d="M500 700l-40 -150h-344l2 150h140l31 -142l71 142h140z" />
    <glyph glyph-name="breve" unicode="&#x2d8;" horiz-adv-x="394" 
d="M472 700q-7 -53 -30 -86t-64 -48.5t-104 -15.5q-93 0 -130 35.5t-26 114.5h145q-6 -46 26 -46t38 46h145z" />
    <glyph glyph-name="dotaccent" unicode="&#x2d9;" horiz-adv-x="289" 
d="M248 736q65 0 91 -25t19 -79q-8 -53 -40.5 -77t-98.5 -24q-44 0 -69.5 11t-35 33t-4.5 58q8 54 40.5 78.5t97.5 24.5z" />
    <glyph glyph-name="ring" unicode="&#x2da;" horiz-adv-x="321" 
d="M263.5 734q73.5 0 103 -27t21 -87t-45.5 -87t-110.5 -27t-103 27t-21 87t45.5 87t110.5 27zM242 586q26 0 31 34t-21 34t-31 -34t21 -34z" />
    <glyph glyph-name="ogonek" unicode="&#x2db;" horiz-adv-x="234" 
d="M214 24q-41 -33 -56 -69q-13 -30 12 -30q16 0 34 8l-23 -163q-33 -20 -74 -20q-38 0 -64 19t-35 50.5t-4.5 67t30 73t65.5 64.5h115z" />
    <glyph glyph-name="tilde" unicode="&#x2dc;" horiz-adv-x="394" 
d="M101 574q3 23 8 42.5t12 35.5t16 28t20 21.5t25 15t30 8.5t34 3q27 0 46 -9.5t27 -21.5t16 -21.5t14 -9.5q7 0 11.5 4t7 12t4.5 22h101q-11 -81 -45.5 -117.5t-100.5 -36.5q-27 0 -45.5 6.5t-27 15.5t-13 18t-8.5 15.5t-10 6.5q-16 0 -21 -38h-101z" />
    <glyph glyph-name="hungarumlaut" unicode="&#x2dd;" horiz-adv-x="597" 
d="M97 550l89 150h221l-143 -150h-167zM365 550l88 150h221l-142 -150h-167z" />
    <glyph glyph-name="Wgrave" unicode="&#x1e80;" horiz-adv-x="1131" 
d="M461 700h405l-37 -625l127 625h263l-183 -700h-414l26 631l-139 -631h-413l12 700h263l-47 -620zM702 870l78 -120h-166l-119 120h207z" />
    <glyph glyph-name="wgrave" unicode="&#x1e81;" horiz-adv-x="981" 
d="M890 0h-347l11 441l-102 -441h-360l-12 500h236l-24 -433l100 433h338l-21 -432l96 432h236zM606 700l57 -150h-180l-111 150h234z" />
    <glyph glyph-name="Wacute" unicode="&#x1e82;" horiz-adv-x="1131" 
d="M461 700h405l-37 -625l127 625h263l-183 -700h-414l26 631l-139 -631h-413l12 700h263l-47 -620zM563 750l99 120h220l-139 -120h-180z" />
    <glyph glyph-name="wacute" unicode="&#x1e83;" horiz-adv-x="981" 
d="M890 0h-347l11 441l-102 -441h-360l-12 500h236l-24 -433l100 433h338l-21 -432l96 432h236zM468 550l99 150h234l-153 -150h-180z" />
    <glyph glyph-name="Wdieresis" unicode="&#x1e84;" horiz-adv-x="1131" 
d="M461 700h405l-37 -625l127 625h263l-183 -700h-414l26 631l-139 -631h-413l12 700h263l-47 -620zM541.5 930q65.5 0 92.5 -21.5t20 -69.5q-7 -47 -39.5 -68.5t-98.5 -21.5q-65 0 -91.5 21.5t-19.5 68.5q7 48 39 69.5t97.5 21.5zM850.5 930q65.5 0 92.5 -21.5t20 -69.5
q-7 -47 -39.5 -68.5t-98.5 -21.5q-65 0 -91.5 21.5t-19.5 68.5q7 48 39 69.5t97.5 21.5z" />
    <glyph glyph-name="wdieresis" unicode="&#x1e85;" horiz-adv-x="981" 
d="M890 0h-347l11 441l-102 -441h-360l-12 500h236l-24 -433l100 433h338l-21 -432l96 432h236zM316 651q5 29 15 49t27 33t41.5 19t57.5 6q65 0 90.5 -25.5t17.5 -82.5q-8 -56 -41 -81.5t-99 -25.5q-65 0 -91 25.5t-18 82.5zM599 649q4 29 14 49t27.5 33t41.5 19t57 6
q66 0 91.5 -25.5t17.5 -82.5q-5 -38 -21.5 -61.5t-45.5 -34.5t-73 -11q-65 0 -91 25.5t-18 82.5z" />
    <glyph glyph-name="uni1E9E" unicode="&#x1e9e;" horiz-adv-x="733" 
d="M459 720q165 0 233.5 -45t54.5 -142q-11 -77 -64 -114t-162 -44q121 -7 171 -46t39 -117q-16 -111 -79.5 -161.5t-187.5 -50.5q-63 0 -110 20l19 140q15 -8 49 -8q35 0 53 15t22 49q6 41 -13.5 60t-69.5 19l23 162q41 0 61.5 13.5t24.5 42.5t-12 42.5t-56 13.5
q-47 0 -70.5 -19t-29.5 -61l-69 -488h-236l66 466q18 133 99.5 193t243.5 60z" />
    <glyph glyph-name="Ygrave" unicode="&#x1ef2;" horiz-adv-x="743" 
d="M666 300h-1h-121l-42 -300h-249l42 300h-121l-76 400h289l35 -384l143 384h275zM507 900l57 -150h-180l-111 150h234z" />
    <glyph glyph-name="ygrave" unicode="&#x1ef3;" horiz-adv-x="555" 
d="M204 -52q58 0 70 52h-178l-26 500h235l-8 -401l92 401h236l-157 -511q-13 -45 -32.5 -76.5t-47.5 -52t-64 -30.5t-82 -10h-176l18 128h120zM392 700l57 -150h-180l-111 150h234z" />
    <glyph glyph-name="endash" unicode="&#x2013;" horiz-adv-x="560" 
d="M588 340l-22 -152h-520l22 152h520z" />
    <glyph glyph-name="emdash" unicode="&#x2014;" horiz-adv-x="780" 
d="M808 340l-22 -152h-740l22 152h740z" />
    <glyph glyph-name="quoteleft" unicode="&#x2018;" horiz-adv-x="288" 
d="M323 394q-8 -57 -38 -82.5t-88 -25.5q-73 0 -99.5 41t-13.5 135q17 124 81.5 181t190.5 57l-13 -92q-51 0 -78 -25t-34 -81q57 0 78.5 -25.5t13.5 -82.5z" />
    <glyph glyph-name="quoteright" unicode="&#x2019;" horiz-adv-x="288" 
d="M105 602q5 38 20.5 62t41 35t64.5 11q73 0 99.5 -41t13.5 -135q-17 -124 -81.5 -181t-190.5 -57l13 92q51 0 78 25t34 81q-57 0 -78.5 25.5t-13.5 82.5z" />
    <glyph glyph-name="quotesinglbase" unicode="&#x201a;" horiz-adv-x="288" 
d="M34 98q8 57 38.5 82.5t87.5 25.5q73 0 99.5 -41t13.5 -135q-11 -83 -43 -135t-88.5 -77.5t-140.5 -25.5l13 92q51 0 78 25t35 81q-58 0 -79.5 25.5t-13.5 82.5z" />
    <glyph glyph-name="quotedblleft" unicode="&#x201c;" horiz-adv-x="598" 
d="M323 394q-8 -57 -38 -82.5t-88 -25.5q-73 0 -99.5 41t-13.5 135q17 124 81.5 181t190.5 57l-13 -92q-51 0 -78 -25t-34 -81q57 0 78.5 -25.5t13.5 -82.5zM632 394q-3 -23 -9.5 -40.5t-17 -30.5t-25 -21t-33 -12t-41.5 -4q-73 0 -99.5 41t-13.5 135q17 124 81.5 181
t190.5 57l-13 -92q-34 0 -57 -11t-36.5 -34.5t-18.5 -60.5q57 0 78.5 -25.5t13.5 -82.5z" />
    <glyph glyph-name="quotedblright" unicode="&#x201d;" horiz-adv-x="598" 
d="M105 602q5 38 20.5 62t41 35t64.5 11q73 0 99.5 -41t13.5 -135q-17 -124 -81.5 -181t-190.5 -57l13 92q51 0 78 25t34 81q-57 0 -78.5 25.5t-13.5 82.5zM416 602q8 57 38 82.5t88 25.5q73 0 99.5 -41t13.5 -135q-17 -124 -81.5 -181t-190.5 -57l13 92q51 0 78 25t34 81
q-57 0 -78.5 25.5t-13.5 82.5z" />
    <glyph glyph-name="quotedblbase" unicode="&#x201e;" horiz-adv-x="598" 
d="M34 98q8 57 38.5 82.5t87.5 25.5q73 0 99.5 -41t13.5 -135q-11 -83 -43 -135t-88.5 -77.5t-140.5 -25.5l13 92q51 0 78 25t35 81q-58 0 -79.5 25.5t-13.5 82.5zM345 98q8 57 38.5 82.5t87.5 25.5q73 0 99.5 -41t13.5 -135q-11 -83 -43 -135t-88.5 -77.5t-140.5 -25.5
l13 92q51 0 78 25t35 81q-58 0 -79.5 25.5t-13.5 82.5z" />
    <glyph glyph-name="ellipsis" unicode="&#x2026;" horiz-adv-x="1049" 
d="M34 95q8 57 41.5 82t98.5 25q66 0 91.5 -25.5t17.5 -82.5q-8 -56 -41 -81.5t-99 -25.5q-65 0 -91 25.5t-18 82.5zM554.5 202q65.5 0 91.5 -26.5t18 -83.5q-8 -56 -41 -81.5t-99 -25.5q-65 0 -91 25.5t-18 82.5t41 83t98.5 26zM796 91q8 57 41 82t99 25q65 0 91 -25.5
t18 -82.5q-8 -56 -41 -81.5t-99 -25.5t-91.5 25.5t-17.5 82.5z" />
    <glyph glyph-name="perthousand" unicode="&#x2030;" horiz-adv-x="1380" 
d="M800 390q100 0 138 -48t23 -154q-14 -106 -66 -154t-152 -48t-138 48t-24 154q10 71 36.5 115.5t71 65.5t111.5 21zM759 102q22 0 34 86t-10 86t-34 -86t10 -86zM1224 390q100 0 138 -48t23 -154q-14 -106 -66 -154t-152 -48t-138 48t-24 154q15 106 67 154t152 48z
M1183 102q22 0 34 86t-10 86t-34 -86t10 -86zM310 710q100 0 138 -48t23 -154q-14 -106 -66 -154t-152 -48t-138 48t-24 154q15 106 67 154t152 48zM269 422q22 0 34 86t-10 86t-34 -86t10 -86zM358 -30h-208l547 760h208z" />
    <glyph glyph-name="guilsinglleft" unicode="&#x2039;" horiz-adv-x="396" 
d="M218 450h221l-147 -190l92 -200h-221l-106 200z" />
    <glyph glyph-name="guilsinglright" unicode="&#x203a;" horiz-adv-x="396" 
d="M83 450h221l109 -190l-164 -200h-221l150 200z" />
    <glyph glyph-name="lira" unicode="&#x20a4;" horiz-adv-x="686" 
d="M114 164h1h565l-23 -164h-626l35 251q54 0 68 40h-62l10 74h65l5 34h-64l10 74h65l5 29q16 116 90.5 167.5t224.5 51.5q129 0 180 -53t35 -167h-223q6 42 -1 61t-26 18q-36 -1 -47 -81l-4 -27h186l-10 -74h-186l-5 -33h186l-10 -74h-187q-13 -57 -74.5 -87t-182.5 -40z
" />
    <glyph glyph-name="Euro" unicode="&#x20ac;" horiz-adv-x="847" 
d="M588 240h268q-49 -136 -139.5 -198t-240.5 -62q-167 0 -248.5 60.5t-87.5 191.5h-83l14 104h73l2 15l2 12h-73l15 104h82q28 88 81 144.5t131.5 83t187.5 26.5q164 0 238 -61.5t75 -198.5h-263q-4 43 -21.5 63.5t-50.5 20.5q-68 0 -100 -78h148l-15 -104h-160l-2 -12
l-2 -15h120l-14 -104h-108q11 -76 79 -76t92 84z" />
    <glyph glyph-name="trademark" unicode="&#x2122;" horiz-adv-x="1374" 
d="M569 700l-23 -164h-115l-47 -336h-222l47 336h-115l23 164h452zM1339 200h-224l57 405l-99 -405h-273l15 404l-57 -404h-222l70 500h364l-23 -444l102 444h360z" />
    <glyph glyph-name="minus" unicode="&#x2212;" horiz-adv-x="369" 
d="M375 188h-330l22 152h330z" />
    <glyph glyph-name="approxequal" unicode="&#x2248;" horiz-adv-x="640" 
d="M633 96q-45 -41 -92.5 -54t-89.5 -3.5t-84.5 28.5t-84 39t-81.5 31.5t-83.5 2.5t-84.5 -44l20 139q36 33 73 48t70.5 14t67.5 -10.5t66 -25t64 -31.5t64.5 -27.5t63.5 -15t65 8t66 39.5zM62 300l20 139q36 33 73 48t70.5 14t67 -10.5t66 -25t64.5 -31.5t64 -27.5
t63.5 -15t65.5 8t66 39.5l-20 -139q-45 -41 -92.5 -54t-89.5 -3.5t-84.5 28.5t-84 39t-81.5 31.5t-83.5 2.5t-84.5 -44z" />
    <glyph glyph-name="notequal" unicode="&#x2260;" horiz-adv-x="668" 
d="M184 0l43 86h-195l21 152h249l27 54h-269l21 152h324l28 56h128l-28 -56h177l-21 -152h-232l-27 -54h251l-21 -152h-306l-43 -86h-127z" />
    <glyph glyph-name="lessequal" unicode="&#x2264;" horiz-adv-x="460" 
d="M430 0h-400l23 164h400zM68 273l50 354l410 73l-26 -187l-341 -63l323 -63l-26 -187z" />
    <glyph glyph-name="greaterequal" unicode="&#x2265;" horiz-adv-x="460" 
d="M30 0l23 164h400l-23 -164h-400zM469 274l-411 -73l27 187l340 63l-323 63l27 187l389 -73z" />
    <glyph glyph-name="uniE132" unicode="&#xe132;" horiz-adv-x="681" 
d="M286 0h-236l70 500h236zM357 -28q11 0 22 11.5t14 28.5l68 488h236l-72 -512q-11 -79 -63 -123.5t-130 -44.5h-205l21 152h109zM133 550l99 150h234l-153 -150h-180zM474 550l99 150h234l-153 -150h-180z" />
    <glyph glyph-name="uniE133" unicode="&#xe133;" horiz-adv-x="1011" 
d="M158 700h263l-98 -700h-263zM665 -18q-144 0 -203 56t-42 172l6 46h250l-6 -46q-5 -28 -1.5 -46t14 -18t19 18t12.5 46l68 490h263l-68 -490q-11 -77 -47.5 -127t-102 -75.5t-162.5 -25.5zM197 750l99 120h220l-139 -120h-180zM821 750l99 120h220l-139 -120h-180z" />
    <glyph glyph-name="a.alt1" 
d="M215 -10q-103 0 -141 62t-19 198t74.5 198t158.5 62q65 0 96.5 -37.5t32.5 -117.5l73 145h182l-70 -500h-182l-33 150q-24 -83 -65.5 -121.5t-106.5 -38.5zM332 142q28 0 44.5 26t24.5 82q8 57 -1 82.5t-37.5 25.5t-45 -25.5t-24.5 -82.5q-4 -28 -3.5 -48.5t5 -33.5
t14 -19.5t23.5 -6.5z" />
    <glyph glyph-name="aacute.alt1" 
d="M215 -10q-103 0 -141 62t-19 198t74.5 198t158.5 62q65 0 96.5 -37.5t32.5 -117.5l73 145h182l-70 -500h-182l-33 150q-24 -83 -65.5 -121.5t-106.5 -38.5zM332 142q28 0 44.5 26t24.5 82q8 57 -1 82.5t-37.5 25.5t-45 -25.5t-24.5 -82.5q-4 -28 -3.5 -48.5t5 -33.5
t14 -19.5t23.5 -6.5zM296 550l99 150h234l-153 -150h-180z" />
    <glyph glyph-name="aacutering.alt1" 
d="M215 -10q-103 0 -141 62t-19 198t74.5 198t158.5 62q65 0 96.5 -37.5t32.5 -117.5l73 145h182l-70 -500h-182l-33 150q-24 -83 -65.5 -121.5t-106.5 -38.5zM332 142q28 0 44.5 26t24.5 82q8 57 -1 82.5t-37.5 25.5t-45 -25.5t-24.5 -82.5q-4 -28 -3.5 -48.5t5 -33.5
t14 -19.5t23.5 -6.5zM669 780l-119 -82q24 -26 19 -64q-7 -53 -44 -77.5t-110.5 -24.5t-103 24.5t-22.5 77.5q5 36 23 58t50 33t81 11h12l49 44h165zM426 612q26 0 29 22q1 7 -0.5 12t-7 7.5t-15.5 2.5q-26 0 -29 -22q-1 -11 4 -16.5t19 -5.5z" />
    <glyph glyph-name="abreve.alt1" 
d="M215 -10q-103 0 -141 62t-19 198t74.5 198t158.5 62q65 0 96.5 -37.5t32.5 -117.5l73 145h182l-70 -500h-182l-33 150q-24 -83 -65.5 -121.5t-106.5 -38.5zM332 142q28 0 44.5 26t24.5 82q8 57 -1 82.5t-37.5 25.5t-45 -25.5t-24.5 -82.5q-4 -28 -3.5 -48.5t5 -33.5
t14 -19.5t23.5 -6.5zM601 700q-11 -79 -58 -114.5t-140 -35.5t-130 35.5t-26 114.5h145q-6 -46 26 -46t38 46h145z" />
    <glyph glyph-name="acircumflex.alt1" 
d="M215 -10q-103 0 -141 62t-19 198t74.5 198t158.5 62q65 0 96.5 -37.5t32.5 -117.5l73 145h182l-70 -500h-182l-33 150q-24 -83 -65.5 -121.5t-106.5 -38.5zM332 142q28 0 44.5 26t24.5 82q8 57 -1 82.5t-37.5 25.5t-45 -25.5t-24.5 -82.5q-4 -28 -3.5 -48.5t5 -33.5
t14 -19.5t23.5 -6.5zM599 700l-2 -150h-140l-31 142l-71 -142h-140l40 150h344z" />
    <glyph glyph-name="acute.case" horiz-adv-x="342" 
d="M97 550l99 120h220l-139 -120h-180z" />
    <glyph glyph-name="adieresis.alt1" 
d="M215 -10q-103 0 -141 62t-19 198t74.5 198t158.5 62q65 0 96.5 -37.5t32.5 -117.5l73 145h182l-70 -500h-182l-33 150q-24 -83 -65.5 -121.5t-106.5 -38.5zM332 142q28 0 44.5 26t24.5 82q8 57 -1 82.5t-37.5 25.5t-45 -25.5t-24.5 -82.5q-4 -28 -3.5 -48.5t5 -33.5
t14 -19.5t23.5 -6.5zM153 660q8 57 41.5 82t98.5 25q66 0 91.5 -25.5t17.5 -82.5q-8 -56 -41 -81.5t-99 -25.5q-65 0 -91 25.5t-18 82.5zM436 658q8 57 41 82t99 25q65 0 91 -25.5t18 -82.5q-5 -38 -21.5 -61.5t-45.5 -34.5t-73 -11q-66 0 -91.5 25.5t-17.5 82.5z" />
    <glyph glyph-name="agrave.alt1" 
d="M215 -10q-103 0 -141 62t-19 198t74.5 198t158.5 62q65 0 96.5 -37.5t32.5 -117.5l73 145h182l-70 -500h-182l-33 150q-24 -83 -65.5 -121.5t-106.5 -38.5zM332 142q28 0 44.5 26t24.5 82q8 57 -1 82.5t-37.5 25.5t-45 -25.5t-24.5 -82.5q-4 -28 -3.5 -48.5t5 -33.5
t14 -19.5t23.5 -6.5zM451 700l57 -150h-180l-111 150h234z" />
    <glyph glyph-name="amacron.alt1" 
d="M215 -10q-103 0 -141 62t-19 198t74.5 198t158.5 62q65 0 96.5 -37.5t32.5 -117.5l73 145h182l-70 -500h-182l-33 150q-24 -83 -65.5 -121.5t-106.5 -38.5zM332 142q28 0 44.5 26t24.5 82q8 57 -1 82.5t-37.5 25.5t-45 -25.5t-24.5 -82.5q-4 -28 -3.5 -48.5t5 -33.5
t14 -19.5t23.5 -6.5zM228 564l17 116h340l-17 -116h-340z" />
    <glyph glyph-name="aogonek.alt1" 
d="M513 -74l-2 -1q16 0 34 8l-23 -163q-33 -20 -74 -20q-44 0 -72 27t-33 65.5t14.5 84.5t61.5 81l-31 142q-24 -83 -65.5 -121.5t-106.5 -38.5q-104 0 -142 61.5t-19 198t74.5 198.5t158.5 62q65 0 96.5 -37.5t32.5 -117.5l73 145h182l-70 -500h-73q-42 -47 -33 -67
q4 -7 17 -7zM327.5 141q28.5 0 45 26t24.5 82q6 38 3.5 62t-13 35t-29.5 11q-28 0 -44.5 -25.5t-24.5 -82.5q-8 -56 1 -82t37.5 -26z" />
    <glyph glyph-name="aring.alt1" 
d="M215 -10q-103 0 -141 62t-19 198t74.5 198t158.5 62q65 0 96.5 -37.5t32.5 -117.5l73 145h182l-70 -500h-182l-33 150q-24 -83 -65.5 -121.5t-106.5 -38.5zM332 142q28 0 44.5 26t24.5 82q8 57 -1 82.5t-37.5 25.5t-45 -25.5t-24.5 -82.5q-4 -28 -3.5 -48.5t5 -33.5
t14 -19.5t23.5 -6.5zM452.5 734q73.5 0 103 -27t21 -87t-45.5 -87t-110.5 -27t-103 27t-21 87t45.5 87t110.5 27zM431 586q26 0 31 34t-21 34t-31 -34t21 -34z" />
    <glyph glyph-name="atilde.alt1" 
d="M215 -10q-103 0 -141 62t-19 198t74.5 198t158.5 62q65 0 96.5 -37.5t32.5 -117.5l73 145h182l-70 -500h-182l-33 150q-24 -83 -65.5 -121.5t-106.5 -38.5zM332 142q28 0 44.5 26t24.5 82q8 57 -1 82.5t-37.5 25.5t-45 -25.5t-24.5 -82.5q-4 -28 -3.5 -48.5t5 -33.5
t14 -19.5t23.5 -6.5zM230 574q11 81 45.5 117.5t99.5 36.5q27 0 46 -9.5t27 -21.5t16 -21.5t14 -9.5q10 0 15 8.5t8 29.5h101q-11 -81 -45.5 -117.5t-100.5 -36.5q-27 0 -45.5 6.5t-27 15.5t-13 18t-8.5 15.5t-10 6.5q-16 0 -21 -38h-101z" />
    <glyph glyph-name="breve.case" horiz-adv-x="394" 
d="M468 670q-9 -63 -55 -91.5t-139 -28.5q-62 0 -99 12.5t-52 39t-9 68.5h149q-2 -15 3.5 -21.5t20.5 -6.5q29 0 33 28h148z" />
    <glyph glyph-name="caron.case" horiz-adv-x="415" 
d="M488 670l-33 -120h-344l2 120h153l19 -112l51 112h152z" />
    <glyph glyph-name="circumflex.case" horiz-adv-x="415" 
d="M473 670h1l-1 -120h-153l-19 112l-51 -112h-153l32 120h344z" />
    <glyph glyph-name="commaaccent" horiz-adv-x="208" 
d="M5 -105q9 64 85 64q52 0 68.5 -24.5t10.5 -70.5q-10 -68 -51 -98t-125 -30l9 68q57 0 63 36q-36 0 -50 13t-10 42z" />
    <glyph glyph-name="dieresis.case" horiz-adv-x="598" 
d="M246.5 724q65.5 0 92.5 -21.5t20 -69.5q-4 -32 -20 -51.5t-44.5 -29t-73.5 -9.5q-65 0 -91.5 21.5t-19.5 68.5q7 48 39 69.5t97.5 21.5zM555.5 724q65.5 0 92.5 -21.5t20 -69.5q-4 -32 -20 -51.5t-44.5 -29t-73.5 -9.5q-65 0 -91.5 21.5t-19.5 68.5q7 48 39 69.5
t97.5 21.5z" />
    <glyph glyph-name="dotaccent.case" horiz-adv-x="289" 
d="M110 638q6 48 38.5 69.5t98 21.5t92 -21.5t20.5 -69.5q-5 -32 -20.5 -51.5t-44.5 -29t-73 -9.5q-65 0 -91.5 21.5t-19.5 68.5z" />
    <glyph glyph-name="grave.case" horiz-adv-x="342" 
d="M321 670l78 -120h-166l-119 120h207z" />
    <glyph glyph-name="hungarumlaut.case" horiz-adv-x="570" 
d="M97 550l85 120h207l-126 -120h-166zM352 550l85 120h207l-126 -120h-166z" />
    <glyph glyph-name="tilde.case" horiz-adv-x="394" 
d="M100 570q9 64 42.5 93t98.5 29q27 0 46 -6t27.5 -14t18 -14t19.5 -6t18 7t10 14l3 7h87q-9 -64 -42.5 -93t-99.5 -29q-26 0 -46 6t-29 14t-19 14t-19 6q-8 0 -15 -7t-9 -14l-3 -7h-88z" />
    </font>
</defs>
</svg>
