<?xml version="1.0" standalone="no"?>
<!DOCTYPE svg PUBLIC "-//W3C//DTD SVG 1.1//EN" "http://www.w3.org/Graphics/SVG/1.1/DTD/svg11.dtd" >
<svg xmlns="http://www.w3.org/2000/svg" xmlns:xlink="http://www.w3.org/1999/xlink" version="1.1">
<metadata>
Created by FontForge 20170924 at Tue Jul  4 01:56:23 2017
 By patjennings,,,
Copyright (c) 2017 by Alexander Slobzheninov. All rights reserved.
</metadata>
<defs>
<font id="FivoSansModern-Heavy" horiz-adv-x="610" >
  <font-face 
    font-family="Fivo Sans Modern Heavy"
    font-weight="900"
    font-stretch="normal"
    units-per-em="1000"
    panose-1="0 0 0 0 0 0 0 0 0 0"
    ascent="800"
    descent="-200"
    x-height="500"
    cap-height="700"
    bbox="-80 -250 1300 960"
    underline-thickness="50"
    underline-position="-175"
    unicode-range="U+000D-E133"
  />
<missing-glyph horiz-adv-x="180" 
 />
    <glyph glyph-name=".notdef" horiz-adv-x="180" 
 />
    <glyph glyph-name=".null" horiz-adv-x="0" 
 />
    <glyph glyph-name="nonmarkingreturn" horiz-adv-x="333" 
 />
    <glyph glyph-name="NULL" horiz-adv-x="760" 
d="M70 700h620v-700h-620v700zM240 550v-400h280v400h-280z" />
    <glyph glyph-name="NULL" horiz-adv-x="760" 
d="M70 700h620v-700h-620v700zM240 550v-400h280v400h-280z" />
    <glyph glyph-name="CR" unicode="&#xd;" horiz-adv-x="250" 
 />
    <glyph glyph-name="space" unicode=" " horiz-adv-x="300" 
 />
    <glyph glyph-name="exclam" unicode="!" horiz-adv-x="300" 
d="M150 180q52 0 76 -23t24 -73t-24 -72.5t-76 -22.5q-53 0 -76.5 22.5t-23.5 72.5t24 73t76 23zM55 700h190v-190l-40 -250h-110l-40 250v190z" />
    <glyph glyph-name="quotedbl" unicode="&#x22;" horiz-adv-x="480" 
d="M210 700v-140l-20 -240h-120l-20 240v140h160zM430 700v-140l-20 -240h-120l-20 240v140h160z" />
    <glyph glyph-name="numbersign" unicode="#" horiz-adv-x="710" 
d="M30 170v120h141l13 90h-124v120h141l29 200h130l-29 -200h90l29 200h130l-29 -200h129v-120h-146l-13 -90h129v-120h-146l-24 -170h-130l24 170h-90l-24 -170h-130l24 170h-124zM391 290l13 90h-90l-13 -90h90z" />
    <glyph glyph-name="dollar" unicode="$" horiz-adv-x="660" 
d="M330 590q-53 0 -76.5 -16t-23.5 -53q0 -25 29.5 -42.5t74 -26.5t96.5 -26t96.5 -39t74 -67.5t29.5 -108.5q0 -107 -55 -161.5t-175 -65.5v-84h-140v84q-120 10 -175 62.5t-55 154.5h180q0 -47 28.5 -68.5t91.5 -21.5q58 0 84 16.5t26 53.5q0 38 -41 61t-100 37.5t-118 34
t-100 64t-41 113.5q0 106 52.5 160.5t167.5 65.5v83h140v-83q115 -11 167.5 -63.5t52.5 -153.5h-180q0 47 -26 68.5t-84 21.5z" />
    <glyph glyph-name="percent" unicode="%" horiz-adv-x="920" 
d="M210 710q95 0 137.5 -47t42.5 -152t-43 -152.5t-137 -47.5t-137 47.5t-43 152.5t42.5 152t137.5 47zM210 410q26 0 38 24t12 76t-12 76t-38 24t-38 -24t-12 -76t12 -76t38 -24zM320 -30h-160l440 760h160zM710 390q95 0 137.5 -47t42.5 -152t-43 -152.5t-137 -47.5
t-137 47.5t-43 152.5t42.5 152t137.5 47zM710 90q26 0 38 24t12 76t-12 76t-38 24t-38 -24t-12 -76t12 -76t38 -24z" />
    <glyph glyph-name="ampersand" unicode="&#x26;" horiz-adv-x="799" 
d="M301 -20v-1q-142 0 -206.5 47t-64.5 152q0 122 150 210q-60 64 -60 140q0 100 55 145.5t178 45.5q113 0 165 -38.5t52 -122.5q0 -60 -40.5 -101t-114.5 -83l116 -113q11 36 19 88h140q-12 -116 -49 -193l160 -156h-230l-36 36q-87 -56 -234 -56zM436 133l-159 159
q-56 -43 -56 -103q0 -41 25 -61t80 -20q64 0 110 25zM327 462q46 23 70 45t24 52q0 49 -66 49q-74 0 -74 -60q0 -22 10.5 -40.5t35.5 -45.5z" />
    <glyph glyph-name="quotesingle" unicode="'" horiz-adv-x="260" 
d="M210 700v-140l-20 -240h-120l-20 240v140h160z" />
    <glyph glyph-name="parenleft" unicode="(" horiz-adv-x="300" 
d="M160 -200q-130 217 -130 460q0 40 3 78.5t10 72.5t14 62.5t18 57t18.5 47.5t20 42t18 33t16.5 27.5t12 19.5h140q-17 -29 -25 -42.5t-29.5 -61t-33 -89t-22 -109t-10.5 -138.5q0 -260 120 -460h-140z" />
    <glyph glyph-name="parenright" unicode=")" horiz-adv-x="300" 
d="M140 -200h-140q120 200 120 460q0 87 -13 163t-37.5 135.5t-36.5 82.5t-33 59h140q1 -2 12 -19.5t16.5 -27.5t18 -33t20 -42t18.5 -47.5t18 -57t14 -62.5t10 -72.5t3 -78.5q0 -243 -130 -460z" />
    <glyph glyph-name="asterisk" unicode="*" horiz-adv-x="340" 
d="M228 630l50 32l40 -69l-52 -30l-37 -11l36 -10l52 -30l-40 -69l-52 30l-26 25l9 -36v-60h-80v60l9 36l-27 -26l-52 -30l-40 69l52 30l36 10l-36 10l-52 30l40 69l52 -30l28 -27l-9 37v60h80v-60l-9 -37z" />
    <glyph glyph-name="plus" unicode="+" horiz-adv-x="580" 
d="M550 320v-130h-190v-190h-140v190h-190v130h190v180h140v-180h190z" />
    <glyph glyph-name="comma" unicode="," horiz-adv-x="240" 
d="M110 180q58 0 84 -35.5t26 -114.5q0 -116 -45 -168t-145 -52v80q42 0 61 24t19 76q-47 0 -68.5 22.5t-21.5 71.5q0 50 21.5 73t68.5 23z" />
    <glyph glyph-name="hyphen" unicode="-" horiz-adv-x="390" 
d="M360 200h-330v130h330v-130z" />
    <glyph glyph-name="period" unicode="." horiz-adv-x="240" 
d="M120 180q52 0 76 -23t24 -73t-24 -72.5t-76 -22.5q-53 0 -76.5 22.5t-23.5 72.5t24 73t76 23z" />
    <glyph glyph-name="slash" unicode="/" horiz-adv-x="400" 
d="M240 700h160l-240 -700h-160z" />
    <glyph glyph-name="zero" unicode="0" horiz-adv-x="720" 
d="M360 720q173 0 251.5 -88t78.5 -282t-78.5 -282t-251.5 -88t-251.5 88t-78.5 282q0 195 78.5 282.5t251.5 87.5zM360 110q74 0 107 57t33 183t-33 183t-107 57t-107 -57t-33 -183t33 -183t107 -57z" />
    <glyph glyph-name="one" unicode="1" horiz-adv-x="370" 
d="M0 570v130h300v-700h-180v570h-120z" />
    <glyph glyph-name="two" unicode="2" horiz-adv-x="530" 
d="M100 130h420v-130h-520v210q93 33 167.5 72.5t128.5 95t54 112.5q0 52 -19 76t-61 24t-61 -28.5t-19 -91.5h-180q0 131 62 190.5t198 59.5q135 0 197.5 -51.5t62.5 -158.5q0 -88 -35 -151.5t-131 -122t-264 -106.5z" />
    <glyph glyph-name="three" unicode="3" horiz-adv-x="640" 
d="M310 290h-50v140h50q110 0 110 80q0 42 -24 61t-76 19t-76 -26t-24 -84h-160q0 126 62 183t198 57t198 -45t62 -145q0 -84 -52 -124.5t-168 -45.5q131 -6 190.5 -46.5t59.5 -123.5q0 -110 -69 -160t-221 -50t-221 59.5t-69 190.5h170q0 -63 28.5 -91.5t91.5 -28.5
q60 0 85 19.5t25 70.5q0 90 -120 90z" />
    <glyph glyph-name="four" unicode="4" horiz-adv-x="600" 
d="M321 700h200v-410h70v-130h-70v-160h-180v160h-340v150zM158 290h184v226z" />
    <glyph glyph-name="five" unicode="5" horiz-adv-x="660" 
d="M290 570l-37 -204q21 60 58 87t99 27q116 0 168 -59.5t52 -190.5t-71 -190.5t-229 -59.5q-128 0 -190 52.5t-70 167.5h160q8 -47 34.5 -68.5t76.5 -21.5q58 0 84 28.5t26 91.5t-26 91.5t-84 28.5q-45 0 -69 -14t-32 -46h-150l70 410h420v-130h-290z" />
    <glyph glyph-name="six" unicode="6" horiz-adv-x="631" 
d="M321 -20q-152 0 -221.5 85.5t-69.5 274.5q0 200 69.5 290t224.5 90q113 0 174 -47.5t82 -152.5h-170q-20 80 -83 80q-61 0 -89 -73.5t-28 -236.5q0 22 5 47.5t19.5 61t50 58.5t86.5 23q120 0 175 -58t55 -183q0 -137 -66 -198t-214 -61zM320 350q-52 0 -76 -28.5
t-24 -91.5t24 -91.5t76 -28.5t76 28.5t24 91.5t-24 91.5t-76 28.5z" />
    <glyph glyph-name="seven" unicode="7" horiz-adv-x="560" 
d="M520 700v-270l-280 -430h-210l390 570h-410v130h510z" />
    <glyph glyph-name="eight" unicode="8" horiz-adv-x="660" 
d="M600 530q0 -73 -42.5 -113t-133.5 -52q107 -12 156.5 -56.5t49.5 -128.5q0 -105 -71 -152.5t-229 -47.5t-229 47.5t-71 152.5q0 84 49.5 128.5t156.5 56.5q-91 12 -133.5 52t-42.5 113q0 100 64 145t206 45t206 -45t64 -145zM330 110q63 0 91.5 23t28.5 72q0 51 -28.5 73
t-91.5 22t-91.5 -22t-28.5 -73q0 -49 28.5 -72t91.5 -23zM330 590q-52 0 -76 -20.5t-24 -64.5q0 -45 23.5 -65t76.5 -20t76.5 20t23.5 65q0 44 -24 64.5t-76 20.5z" />
    <glyph glyph-name="nine" unicode="9" horiz-adv-x="631" 
d="M310 720q152 0 221.5 -85.5t69.5 -274.5q0 -200 -69.5 -290t-224.5 -90q-113 0 -174 47.5t-82 152.5h170q20 -80 83 -80q61 0 89 73.5t28 236.5q0 -22 -5 -47.5t-19.5 -61t-50 -58.5t-86.5 -23q-120 0 -175 58t-55 183q0 137 66 198t214 61zM311 350q53 0 76.5 28.5
t23.5 91.5t-23.5 91.5t-76.5 28.5t-76.5 -28.5t-23.5 -91.5t23.5 -91.5t76.5 -28.5z" />
    <glyph glyph-name="colon" unicode=":" horiz-adv-x="300" 
d="M150 180q52 0 76 -23t24 -73t-24 -72.5t-76 -22.5q-53 0 -76.5 22.5t-23.5 72.5t24 73t76 23zM150 500q52 0 76 -23t24 -73t-24 -72.5t-76 -22.5q-53 0 -76.5 22.5t-23.5 72.5t24 73t76 23z" />
    <glyph glyph-name="semicolon" unicode=";" horiz-adv-x="300" 
d="M150 500q52 0 76 -23t24 -73t-24 -72.5t-76 -22.5q-53 0 -76.5 22.5t-23.5 72.5t24 73t76 23zM140 180q58 0 84 -35.5t26 -114.5q0 -116 -45 -168t-145 -52v80q42 0 61 24t19 76q-47 0 -68.5 22.5t-21.5 71.5q0 50 21.5 73t68.5 23z" />
    <glyph glyph-name="less" unicode="&#x3c;" horiz-adv-x="500" 
d="M79 250l351 -90v-160l-400 100v300l400 100v-160z" />
    <glyph glyph-name="equal" unicode="=" horiz-adv-x="660" 
d="M630 230v-130h-600v130h600zM630 430v-130h-600v130h600z" />
    <glyph glyph-name="greater" unicode="&#x3e;" horiz-adv-x="500" 
d="M421 250l-351 90v160l400 -100v-300l-400 -100v160z" />
    <glyph glyph-name="question" unicode="?" horiz-adv-x="560" 
d="M265 180q52 0 76 -23t24 -73t-24 -72.5t-76 -22.5q-53 0 -76.5 22.5t-23.5 72.5t24 73t76 23zM190 260q0 58 16.5 97t40 57.5t47 32.5t40 33.5t16.5 49.5q0 32 -19 46t-61 14t-61 -24t-19 -76h-170q0 121 62 175.5t198 54.5t198 -45t62 -145q0 -50 -20.5 -83t-50 -50
t-59 -32.5t-50 -41t-20.5 -63.5h-150z" />
    <glyph glyph-name="at" unicode="@" horiz-adv-x="910" 
d="M381 470q58 0 92 -28t47 -89l39 108h100v-270q0 -70 40 -70q26 0 38 31t12 99q0 157 -69 228.5t-221 71.5q-157 0 -228.5 -71.5t-71.5 -228.5q0 -152 59.5 -221t190.5 -69q45 0 83.5 11t54 21t22.5 18v-120q-11 -12 -56 -26t-104 -14q-200 0 -290 94.5t-90 305.5
q0 215 102 312.5t328 97.5q221 0 320.5 -97.5t99.5 -312.5q0 -119 -44.5 -174.5t-135.5 -55.5q-84 0 -127.5 32.5t-50.5 103.5q-13 -60 -47 -88.5t-94 -28.5q-84 0 -122 50t-38 160q0 116 38 168t123 52zM438 141q42 0 61 26t19 84t-19 84t-61 26t-61 -26t-19 -84t19 -84
t61 -26z" />
    <glyph glyph-name="A" unicode="A" horiz-adv-x="700" 
d="M490 0l-28 130h-232l-30 -130h-200l170 700h380l150 -700h-210zM350 645l-89 -385h173z" />
    <glyph glyph-name="B" unicode="B" horiz-adv-x="700" 
d="M380 360q152 -8 221 -48t69 -122q0 -100 -66.5 -145t-213.5 -45h-320v700h310q136 0 198 -40.5t62 -129.5q0 -82 -62 -122.5t-198 -47.5zM360 130q52 0 76 19t24 61q0 47 -24 68.5t-76 21.5h-90v-170h90zM270 570v-150h80q42 0 61 19t19 61q0 37 -19 53.5t-61 16.5h-80z
" />
    <glyph glyph-name="C" unicode="C" horiz-adv-x="770" 
d="M540 240h200q-29 -137 -110 -198.5t-230 -61.5q-194 0 -282 88t-88 282t88 282t282 88q159 0 240 -62t100 -198h-200q-11 58 -44.5 84t-95.5 26q-84 0 -122 -52t-38 -168q0 -115 38 -167.5t122 -52.5q62 0 95.5 26t44.5 84z" />
    <glyph glyph-name="D" unicode="D" horiz-adv-x="750" 
d="M720 350q0 -184 -85.5 -267t-274.5 -83h-290v700h290q189 0 274.5 -83t85.5 -267zM350 560h-80v-420h80q84 0 122 50t38 160t-38 160t-122 50z" />
    <glyph glyph-name="E" unicode="E" 
d="M590 560h-320v-130h280v-140h-280v-150h320v-140h-520v700h520v-140z" />
    <glyph glyph-name="F" unicode="F" horiz-adv-x="600" 
d="M590 560h-320v-130h280v-140h-280v-290h-200v700h520v-140z" />
    <glyph glyph-name="G" unicode="G" horiz-adv-x="780" 
d="M400 280v130h350v-60q0 -194 -83 -282t-267 -88q-194 0 -282 88t-88 282t88 282t282 88q153 0 233.5 -57t106.5 -183h-190q-12 47 -47.5 68.5t-102.5 21.5q-84 0 -122 -52t-38 -168q0 -115 38 -167.5t122 -52.5t122 35.5t38 114.5h-160z" />
    <glyph glyph-name="H" unicode="H" horiz-adv-x="760" 
d="M490 700h200v-700h-200v300h-220v-300h-200v700h200v-250h220v250z" />
    <glyph glyph-name="I" unicode="I" horiz-adv-x="340" 
d="M70 700h200v-700h-200v700z" />
    <glyph glyph-name="J" unicode="J" horiz-adv-x="580" 
d="M0 200v50h190v-50q0 -42 14 -61t46 -19t46 19t14 61v500h200v-500q0 -116 -62 -168t-198 -52q-131 0 -190.5 52t-59.5 168z" />
    <glyph glyph-name="K" unicode="K" horiz-adv-x="740" 
d="M270 700v-324l210 324h240l-230 -340l250 -360h-240l-230 344v-344h-200v700h200z" />
    <glyph glyph-name="L" unicode="L" horiz-adv-x="560" 
d="M550 150v-150h-480v700h200v-550h280z" />
    <glyph glyph-name="M" unicode="M" horiz-adv-x="980" 
d="M70 700h340l82 -631l78 631h340v-700h-190v624l-90 -624h-280l-90 622v-622h-190v700z" />
    <glyph glyph-name="N" unicode="N" horiz-adv-x="820" 
d="M560 700h190v-700h-340l-150 650v-650h-190v700h340l150 -650v650z" />
    <glyph glyph-name="O" unicode="O" horiz-adv-x="800" 
d="M400 720q194 0 282 -88t88 -282t-88 -282t-282 -88t-282 88t-88 282t88 282t282 88zM400 130q84 0 122 52.5t38 167.5q0 116 -38 168t-122 52t-122 -52t-38 -168q0 -115 38 -167.5t122 -52.5z" />
    <glyph glyph-name="P" unicode="P" horiz-adv-x="690" 
d="M670 470q0 -99 -69.5 -164.5t-210.5 -65.5h-120v-240h-200v700h320q141 0 210.5 -65.5t69.5 -164.5zM470 470q0 39 -23.5 64.5t-66.5 25.5h-110v-180h110q43 0 66.5 25.5t23.5 64.5z" />
    <glyph glyph-name="Q" unicode="Q" horiz-adv-x="830" 
d="M400 720q194 0 282 -88.5t88 -282.5q0 -148 -50 -233t-158 -116h118l120 -200h-220l-110 183q-33 -3 -70 -3q-194 0 -282 88t-88 282t88 282t282 88zM400 129q84 0 122 52.5t38 167.5t-38 167.5t-122 52.5t-122 -52.5t-38 -167.5t38 -167.5t122 -52.5z" />
    <glyph glyph-name="R" unicode="R" horiz-adv-x="720" 
d="M490 -1l-115 251h-105v-250h-200v700h330q141 0 210.5 -65.5t69.5 -164.5q0 -173 -176 -211h66l130 -260h-210zM270 380h120q43 0 66.5 25.5t23.5 64.5t-23.5 64.5t-66.5 25.5h-120v-180z" />
    <glyph glyph-name="S" unicode="S" horiz-adv-x="660" 
d="M230 520q0 -25 29.5 -42.5t74 -26.5t96.5 -26t96.5 -39t74 -67.5t29.5 -108.5q0 -121 -71 -175.5t-229 -54.5t-229 52t-71 168h180q0 -47 28.5 -68.5t91.5 -21.5q58 0 84 16.5t26 53.5q0 38 -41 61t-100 37.5t-118 34t-100 64t-41 113.5q0 121 69 175.5t221 54.5t221 -52
t69 -168h-180q0 47 -26 68.5t-84 21.5q-52 0 -76 -16.5t-24 -53.5z" />
    <glyph glyph-name="T" unicode="T" horiz-adv-x="620" 
d="M610 700v-150h-200v-550h-200v550h-200v150h600z" />
    <glyph glyph-name="U" unicode="U" horiz-adv-x="740" 
d="M60 260v440h200v-440q0 -68 26 -99t84 -31t84 31t26 99v440h200v-440q0 -147 -73.5 -213.5t-236.5 -66.5t-236.5 66.5t-73.5 213.5z" />
    <glyph glyph-name="V" unicode="V" horiz-adv-x="690" 
d="M170 0l-170 700h200l145 -625l145 625h200l-170 -700h-350z" />
    <glyph glyph-name="W" unicode="W" horiz-adv-x="1000" 
d="M330 700h340l47 -643l83 643h200l-120 -700h-330l-55 626l-45 -626h-330l-120 700h200l84 -641z" />
    <glyph glyph-name="X" unicode="X" horiz-adv-x="700" 
d="M230 700l121 -293l129 293h210l-160 -340l170 -360h-220l-131 314l-139 -314h-210l170 360l-160 340h220z" />
    <glyph glyph-name="Y" unicode="Y" horiz-adv-x="680" 
d="M530 300h-90v-300h-190v300h-90l-160 400h220l125 -385l125 385h210z" />
    <glyph glyph-name="Z" unicode="Z" horiz-adv-x="580" 
d="M110 140h470v-140h-580v280l460 280h-450v140h560v-280z" />
    <glyph glyph-name="bracketleft" unicode="[" horiz-adv-x="330" 
d="M8 700h260v-130h-110v-640h110v-130h-260v900z" />
    <glyph glyph-name="backslash" unicode="\" horiz-adv-x="400" 
d="M160 700l240 -700h-160l-240 700h160z" />
    <glyph glyph-name="bracketright" unicode="]" horiz-adv-x="330" 
d="M260 700v-900h-260v130h110v640h-110v130h260z" />
    <glyph glyph-name="asciicircum" unicode="^" horiz-adv-x="500" 
d="M380 670l100 -350h-140l-90 315l-90 -315h-140l100 350h260z" />
    <glyph glyph-name="underscore" unicode="_" horiz-adv-x="520" 
d="M520 0v-130h-520v130h520z" />
    <glyph glyph-name="grave" unicode="`" horiz-adv-x="310" 
d="M200 700l90 -150h-140l-130 150h180z" />
    <glyph glyph-name="a" unicode="a" horiz-adv-x="560" 
d="M20 150q0 89 59.5 129.5t190.5 40.5h70v20q0 37 -15.5 53.5t-50.5 16.5q-34 0 -49 -14t-15 -46h-170q0 84 57 122t183 38t183 -45t57 -145v-320h-140l-40 100q-26 -110 -140 -110q-94 0 -137 38t-43 122zM290 220q-48 0 -69 -13t-21 -47q0 -28 14 -39t46 -11
q42 0 61 21.5t19 68.5v20h-50z" />
    <glyph glyph-name="b" unicode="b" 
d="M230 131l-40 -132h-140v700h180v-331q15 73 54 107t106 34q105 0 152.5 -61.5t47.5 -198.5t-47.5 -198.5t-152.5 -61.5q-67 0 -106 34.5t-54 107.5zM320 120q47 0 68.5 31t21.5 99t-21.5 99t-68.5 31t-68.5 -31t-21.5 -99t21.5 -99t68.5 -31z" />
    <glyph glyph-name="c" unicode="c" horiz-adv-x="580" 
d="M380 190h180q-10 -105 -72 -152.5t-188 -47.5q-147 0 -213.5 62t-66.5 198t66.5 198t213.5 62q126 0 188 -47.5t72 -152.5h-180q-11 70 -80 70q-52 0 -76 -31t-24 -99t24 -99t76 -31q35 0 54 16.5t26 53.5z" />
    <glyph glyph-name="d" unicode="d" 
d="M400 131q-15 -73 -54 -107.5t-106 -34.5q-105 0 -152.5 61.5t-47.5 198.5t47.5 198.5t152.5 61.5q67 0 106 -34t54 -107v331h180v-700h-140zM310 120q47 0 68.5 31t21.5 99t-21.5 99t-68.5 31t-68.5 -31t-21.5 -99t21.5 -99t68.5 -31z" />
    <glyph glyph-name="e" unicode="e" horiz-adv-x="580" 
d="M200 200q0 -52 21 -76t68 -24q36 0 55 14t26 46h170q-16 -89 -75 -129.5t-175 -40.5q-142 0 -206 61.5t-64 198.5q0 136 64 198t206 62t206 -62t64 -198v-50h-360zM291 400q-47 0 -68.5 -24t-21.5 -76h180q0 52 -21.5 76t-68.5 24z" />
    <glyph glyph-name="f" unicode="f" horiz-adv-x="420" 
d="M300 570q-30 0 -30 -30v-40h140v-110h-140v-390h-180v390h-80v110h80v40q0 75 42.5 117.5t117.5 42.5h160v-130h-110z" />
    <glyph glyph-name="g" unicode="g" 
d="M381 363l39 137h140v-450q0 -137 -64 -198.5t-206 -61.5q-118 0 -177 40.5t-72 129.5h170q11 -60 70 -60q52 0 76 28.5t24 90.5v113q-15 -73 -54 -107.5t-106 -34.5q-102 0 -151 62.5t-49 197.5t49 197.5t151 62.5q68 0 107 -35.5t53 -111.5zM290 380q-47 0 -68.5 -31
t-21.5 -99t21.5 -99t68.5 -31t68.5 31t21.5 99t-21.5 99t-68.5 31z" />
    <glyph glyph-name="h" unicode="h" horiz-adv-x="590" 
d="M50 0v699h180v-315q26 126 140 126q94 0 137 -57t43 -183v-270h-180v270q0 58 -16.5 84t-53.5 26t-53.5 -26t-16.5 -84v-270h-180z" />
    <glyph glyph-name="i" unicode="i" horiz-adv-x="280" 
d="M230 0h-180v500h180v-500zM140 730q52 0 76 -21.5t24 -68.5t-24 -68.5t-76 -21.5t-76 21.5t-24 68.5t24 68.5t76 21.5z" />
    <glyph glyph-name="j" unicode="j" horiz-adv-x="290" 
d="M10 -50q22 0 36 14t14 36v500h180v-520q0 -75 -42.5 -117.5t-117.5 -42.5h-160v130h90zM150 730q52 0 76 -21.5t24 -68.5t-24 -68.5t-76 -21.5t-76 21.5t-24 68.5t24 68.5t76 21.5z" />
    <glyph glyph-name="k" unicode="k" 
d="M230 245v-245h-180v700h180v-424l150 224h210l-170 -240l190 -260h-210z" />
    <glyph glyph-name="l" unicode="l" horiz-adv-x="280" 
d="M230 700v-700h-180v700h180z" />
    <glyph glyph-name="m" unicode="m" horiz-adv-x="869" 
d="M289 379q-31 0 -45 -25.5t-14 -83.5v-270h-180v500h140l39 -118q14 66 50 96.5t101 30.5q111 0 139 -129q14 66 50.5 97.5t99.5 31.5q81 0 120.5 -58t39.5 -182v-270h-180v270q0 58 -14.5 84t-45.5 26t-45.5 -26t-14.5 -84v-270h-180v270q0 58 -14.5 84t-45.5 26z" />
    <glyph glyph-name="n" unicode="n" horiz-adv-x="590" 
d="M190 500l39 -118q13 66 47.5 97t93.5 31q94 0 137 -57t43 -183v-270h-180v270q0 58 -16.5 84t-53.5 26t-53.5 -26t-16.5 -84v-270h-180v500h140z" />
    <glyph glyph-name="o" unicode="o" horiz-adv-x="600" 
d="M300 510q147 0 213.5 -62t66.5 -198t-66.5 -198t-213.5 -62t-213.5 62t-66.5 198t66.5 198t213.5 62zM200 250q0 -68 24 -99t76 -31t76 31t24 99t-24 99t-76 31t-76 -31t-24 -99z" />
    <glyph glyph-name="p" unicode="p" 
d="M230 368q15 73 54 107.5t106 34.5q105 0 152.5 -62t47.5 -198q0 -137 -47.5 -198.5t-152.5 -61.5q-67 0 -106 34t-54 107v-331h-180v700h140zM320 379q-47 0 -68.5 -31t-21.5 -99t21.5 -99t68.5 -31t68.5 31t21.5 99t-21.5 99t-68.5 31z" />
    <glyph glyph-name="q" unicode="q" 
d="M400 368l40 132h140v-700h-180v331q-15 -73 -54 -107t-106 -34q-105 0 -152.5 61.5t-47.5 198.5q0 136 47.5 198t152.5 62q67 0 106 -34.5t54 -107.5zM310 379q-47 0 -68.5 -31t-21.5 -99t21.5 -99t68.5 -31t68.5 31t21.5 99t-21.5 99t-68.5 31z" />
    <glyph glyph-name="r" unicode="r" horiz-adv-x="420" 
d="M230 250v-250h-180v500h140l40 -119q13 67 42 98t78 31h60v-150h-80q-59 0 -79.5 -22t-20.5 -88z" />
    <glyph glyph-name="s" unicode="s" horiz-adv-x="510" 
d="M190 369q0 -21 31 -32.5t75 -19t88 -20.5t75 -47.5t31 -90.5q0 -89 -58.5 -129.5t-187.5 -40.5q-118 0 -171 38t-53 122h170q0 -31 14 -45.5t46 -14.5t46 12t14 38q0 21 -21.5 33t-53.5 16.5t-70 14t-70 23t-53.5 45t-21.5 78.5q0 84 54.5 122t175.5 38q116 0 168 -35.5
t52 -114.5h-160q0 26 -14 38t-46 12q-60 0 -60 -40z" />
    <glyph glyph-name="t" unicode="t" horiz-adv-x="450" 
d="M280 180q0 -22 14 -36t36 -14h90v-130h-160q-75 0 -117.5 42.5t-42.5 117.5v230h-80v110h80v130h180v-130h140v-110h-140v-210z" />
    <glyph glyph-name="u" unicode="u" horiz-adv-x="590" 
d="M400 0l-39 118q-13 -66 -47.5 -97t-93.5 -31q-95 0 -137.5 57t-42.5 183v270h180v-270q0 -58 16.5 -84t53.5 -26t53.5 26t16.5 84v270h180v-500h-140z" />
    <glyph glyph-name="v" unicode="v" horiz-adv-x="550" 
d="M440 0h-320l-120 500h190l94 -463l76 463h190z" />
    <glyph glyph-name="w" unicode="w" horiz-adv-x="870" 
d="M101 0h-1l-90 500h180l55 -445l45 445h290l45 -445l55 445h180l-90 -500h-280l-55 445l-45 -445h-289z" />
    <glyph glyph-name="x" unicode="x" horiz-adv-x="540" 
d="M275 245l-85 -245h-190l110 260l-100 240h190l75 -224l65 224h190l-90 -240l100 -260h-190z" />
    <glyph glyph-name="y" unicode="y" horiz-adv-x="520" 
d="M269 56l71 444h180l-100 -490q-20 -100 -63 -145t-117 -45h-160v110h110q32 0 48.5 16.5t21.5 53.5h-140l-120 500h180z" />
    <glyph glyph-name="z" unicode="z" horiz-adv-x="500" 
d="M130 120h350v-120h-460v240l340 140h-330v120h440v-240z" />
    <glyph glyph-name="braceleft" unicode="{" horiz-adv-x="390" 
d="M250 -20q0 -52 50 -52h90v-130h-130q-84 0 -122 38t-38 122v160q0 32 -16.5 46t-53.5 14v150q37 0 53.5 14t16.5 46v150q0 84 38 122t122 38h130v-130h-90q-26 0 -38 -12t-12 -38v-150q0 -50 -30.5 -77.5t-96.5 -36.5q66 -9 96.5 -36.5t30.5 -77.5v-160z" />
    <glyph glyph-name="bar" unicode="|" horiz-adv-x="290" 
d="M70 700h150v-900h-150v900z" />
    <glyph glyph-name="braceright" unicode="}" horiz-adv-x="390" 
d="M140 -20v160q0 50 30.5 77.5t96.5 36.5q-66 9 -96.5 36.5t-30.5 77.5v150q0 26 -12 38t-38 12h-90v130h130q84 0 122 -38t38 -122v-150q0 -32 16.5 -46t53.5 -14v-150q-37 0 -53.5 -14t-16.5 -46v-160q0 -84 -38 -122t-122 -38h-130v130h90q50 0 50 52z" />
    <glyph glyph-name="asciitilde" unicode="~" horiz-adv-x="660" 
d="M30 200v1v120q41 41 86.5 53.5t88.5 2.5t87.5 -29.5t88.5 -39.5t85 -31.5t84 -2t79 45.5v-120q-41 -41 -86.5 -53.5t-88.5 -2.5t-88 29t-88.5 39t-85 31.5t-84 2t-78.5 -45.5z" />
    <glyph glyph-name="space_" unicode="&#xa0;" horiz-adv-x="300" 
 />
    <glyph glyph-name="exclamdown" unicode="&#xa1;" horiz-adv-x="300" 
d="M60 -200v190l40 250h110l40 -250v-190h-190zM150 320q-52 0 -76 23t-24 73t23.5 72.5t76.5 22.5q52 0 76 -22.5t24 -72.5t-24 -73t-76 -23z" />
    <glyph glyph-name="cent" unicode="&#xa2;" horiz-adv-x="580" 
d="M380 190v-2h180q-9 -89 -54.5 -136.5t-135.5 -59.5v-94h-140v94q-109 13 -159.5 75t-50.5 182t50.5 182t159.5 75v84h140v-84q90 -12 135.5 -59.5t54.5 -136.5h-180q-11 70 -80 70q-52 0 -76 -31t-24 -99t24 -99t76 -31q35 0 54 16.5t26 53.5z" />
    <glyph glyph-name="sterling" unicode="&#xa3;" horiz-adv-x="650" 
d="M510 290h-219q-3 -65 -53 -100.5t-157 -49.5h550v-140h-600v220q75 10 79 70h-80v130h80v80q0 115 58.5 167.5t187.5 52.5t186.5 -52t57.5 -168h-170q0 52 -16.5 76t-53.5 24t-53.5 -24t-16.5 -76v-80h220v-130z" />
    <glyph glyph-name="currency" unicode="&#xa4;" horiz-adv-x="640" 
d="M320 510q80 0 132 -17l67 67l90 -90l-51 -51q41 -60 41 -169t-41 -169l52 -52l-90 -90l-67 67q-54 -16 -133 -16t-133 16l-67 -67l-90 90l51 51q-41 60 -41 169t41 169l-51 51l90 90l67 -67q55 18 133 18zM219 251q0 -68 23.5 -99t76.5 -31t76.5 31t23.5 99t-23.5 99
t-76.5 31t-76.5 -31t-23.5 -99z" />
    <glyph glyph-name="yen" unicode="&#xa5;" horiz-adv-x="720" 
d="M670 370v-120h-210v-40h210v-120h-210v-90h-190v90h-200v120h200v40h-200v120h82l-132 330h220l107 -330h36l107 330h210l-124 -330h94z" />
    <glyph glyph-name="section" unicode="&#xa7;" horiz-adv-x="640" 
d="M250 530q0 -30 37 -46.5t90 -26.5t106 -25t90 -53t37 -99q0 -52 -37 -82t-116 -41q103 -48 103 -157q0 -116 -61.5 -168t-198.5 -52q-121 0 -175.5 52t-54.5 168h150q0 -47 19 -68.5t61 -21.5t61 14t19 46q0 30 -26 48.5t-65 25t-84 17.5t-84 25t-65 48t-26 86
q0 53 43.5 82t137.5 36q-61 24 -96 64t-35 108q0 110 57 160t183 50q121 0 175.5 -52t54.5 -168h-150q0 47 -19 68.5t-61 21.5q-37 0 -53.5 -14t-16.5 -46zM440 229q0 17 -10 29.5t-32 21.5t-42.5 15t-55 15t-55.5 16q-45 -12 -45 -56q0 -18 12 -30.5t35 -21t47 -14.5
t59 -14t59 -16q28 16 28 55z" />
    <glyph glyph-name="dieresis" unicode="&#xa8;" horiz-adv-x="480" 
d="M120 710q52 0 76 -23t24 -73t-24 -72.5t-76 -22.5q-53 0 -76.5 22.5t-23.5 72.5t24 73t76 23zM360 710q52 0 76 -23t24 -73t-24 -72.5t-76 -22.5q-53 0 -76.5 22.5t-23.5 72.5t24 73t76 23z" />
    <glyph glyph-name="copyright" unicode="&#xa9;" horiz-adv-x="840" 
d="M420 720q205 0 297.5 -88t92.5 -282t-92.5 -282t-297.5 -88t-297.5 88t-92.5 282t92.5 282t297.5 88zM420 90q142 0 206 62t64 198t-64 198t-206 62t-206 -62t-64 -198t64 -198t206 -62zM490 310h141q-11 -84 -60.5 -122t-149.5 -38q-110 0 -160 47.5t-50 152.5t50 152.5
t160 47.5q100 0 149.5 -38t59.5 -122h-140q-14 60 -70 60q-37 0 -53.5 -24t-16.5 -76t16.5 -76t53.5 -24q54 0 70 60z" />
    <glyph glyph-name="guillemotleft" unicode="&#xab;" horiz-adv-x="580" 
d="M150 450h170l-120 -190l120 -200h-170l-130 200zM380 450h170l-120 -190l120 -200h-170l-130 200z" />
    <glyph glyph-name="logicalnot" unicode="&#xac;" horiz-adv-x="590" 
d="M550 330v-260h-140v130h-380v130h520z" />
    <glyph glyph-name="registered" unicode="&#xae;" horiz-adv-x="840" 
d="M420 720q205 0 297.5 -88t92.5 -282t-92.5 -282t-297.5 -88t-297.5 88t-92.5 282t92.5 282t297.5 88zM420 90q142 0 206 62t64 198t-64 198t-206 62t-206 -62t-64 -198t64 -198t206 -62zM490 170h-1l-58 120h-62v-120h-109v360h180q84 0 122 -28.5t38 -91.5
q0 -98 -98 -115h38l70 -125h-120zM439 450h-70v-80h70q50 0 50 40t-50 40z" />
    <glyph glyph-name="macron" unicode="&#xaf;" horiz-adv-x="400" 
d="M30 570v100h340v-100h-340z" />
    <glyph glyph-name="degree" unicode="&#xb0;" horiz-adv-x="420" 
d="M20 520q0 100 45 145t145 45t145 -45t45 -145t-45 -145t-145 -45t-145 45t-45 145zM130 520q0 -47 19 -68.5t61 -21.5t61 21.5t19 68.5t-19 68.5t-61 21.5t-61 -21.5t-19 -68.5z" />
    <glyph glyph-name="plusminus" unicode="&#xb1;" horiz-adv-x="580" 
d="M30 0v130h520v-130h-520zM550 410v-130h-190v-100h-140v100h-190v130h190v90h140v-90h190z" />
    <glyph glyph-name="acute" unicode="&#xb4;" horiz-adv-x="310" 
d="M20 550l90 150h180l-130 -150h-140z" />
    <glyph glyph-name="paragraph" unicode="&#xb6;" horiz-adv-x="760" 
d="M660 570v-770h-150v770h-120v-770h-150v500q-110 0 -160 47.5t-50 152.5t59.5 152.5t190.5 47.5h470v-130h-90z" />
    <glyph glyph-name="periodcentered" unicode="&#xb7;" horiz-adv-x="240" 
d="M120 350q52 0 76 -23t24 -73t-24 -72.5t-76 -22.5q-53 0 -76.5 22.5t-23.5 72.5t24 73t76 23z" />
    <glyph glyph-name="cedilla" unicode="&#xb8;" horiz-adv-x="250" 
d="M70 40h91l-21 -90l10 -2.5t21.5 -9t27.5 -16.5t21.5 -25.5t9.5 -36.5q0 -52 -56 -81t-154 -29v70q80 0 80 40q0 30 -70 30z" />
    <glyph glyph-name="guillemotright" unicode="&#xbb;" horiz-adv-x="580" 
d="M200 450l130 -190l-130 -200h-170l120 200l-120 190h170zM430 450l130 -190l-130 -200h-170l120 200l-120 190h170z" />
    <glyph glyph-name="questiondown" unicode="&#xbf;" horiz-adv-x="560" 
d="M370 240q0 -58 -16.5 -97t-40 -57.5t-47 -32.5t-40 -33.5t-16.5 -49.5q0 -32 19 -46t61 -14t61 24t19 76h170q0 -121 -62 -175.5t-198 -54.5t-198 45t-62 145q0 50 20.5 83t50 50t59 32.5t50 41t20.5 63.5h150zM295 320q-52 0 -76 23t-24 73t24 72.5t76 22.5
q53 0 76.5 -22.5t23.5 -72.5t-24 -73t-76 -23z" />
    <glyph glyph-name="Agrave" unicode="&#xc0;" horiz-adv-x="700" 
d="M490 0l-28 130h-232l-30 -130h-200l170 700h380l150 -700h-210zM350 645l-89 -385h173zM430 750h-130l-130 120h160z" />
    <glyph glyph-name="Aacute" unicode="&#xc1;" horiz-adv-x="700" 
d="M490 0l-28 130h-232l-30 -130h-200l170 700h380l150 -700h-210zM350 645l-89 -385h173zM280 750l90 120h170l-120 -120h-140z" />
    <glyph glyph-name="Acircumflex" unicode="&#xc2;" horiz-adv-x="700" 
d="M490 0l-28 130h-232l-30 -130h-200l170 700h380l150 -700h-210zM350 645l-89 -385h173zM530 750h-120l-50 110l-50 -110h-120l40 120h260z" />
    <glyph glyph-name="Atilde" unicode="&#xc3;" horiz-adv-x="700" 
d="M490 0l-28 130h-232l-30 -130h-200l170 700h380l150 -700h-210zM350 645l-89 -385h173zM190 760q0 51 31.5 80.5t78.5 29.5q51 0 88.5 -20t51.5 -20q8 0 14 6t6 14h70q0 -51 -31.5 -80.5t-78.5 -29.5q-51 0 -88.5 20t-51.5 20q-8 0 -14 -6t-6 -14h-70z" />
    <glyph glyph-name="Adieresis" unicode="&#xc4;" horiz-adv-x="700" 
d="M490 0l-28 130h-232l-30 -130h-200l170 700h380l150 -700h-210zM350 645l-89 -385h173zM230 890q52 0 76 -19t24 -61t-24 -61t-76 -19t-76 19t-24 61t24 61t76 19zM490 890q52 0 76 -19t24 -61t-24 -61t-76 -19t-76 19t-24 61t24 61t76 19z" />
    <glyph glyph-name="Aring" unicode="&#xc5;" horiz-adv-x="700" 
d="M490 0l-28 130h-232l-30 -130h-200l170 700h380l150 -700h-210zM350 645l-89 -385h173zM360 950q68 0 99 -26t31 -84t-31 -84t-99 -26t-99 26t-31 84t31 84t99 26zM360 800q40 0 40 40t-40 40t-40 -40t40 -40z" />
    <glyph glyph-name="AE" unicode="&#xc6;" horiz-adv-x="950" 
d="M930 560h-290v-130h250v-140h-250v-150h290v-140h-470v130h-207l-53 -130h-200l280 700h650v-140zM460 641l-154 -381h154v381z" />
    <glyph glyph-name="Ccedilla" unicode="&#xc7;" horiz-adv-x="770" 
d="M319 -110l24 90q-164 12 -239 100.5t-75 268.5q0 194 88 282t282 88q159 0 240 -61.5t100 -198.5h-200q-11 58 -44.5 84t-95.5 26q-84 0 -122 -52.5t-38 -167.5t38 -167.5t122 -52.5q62 0 95.5 26t44.5 84h200q-27 -128 -99.5 -189.5t-203.5 -68.5l-7 -31l10 -2.5
t21.5 -9t27.5 -16.5t21.5 -25.5t9.5 -36.5q0 -52 -56 -81t-154 -29v70q80 0 80 40q0 30 -70 30z" />
    <glyph glyph-name="Egrave" unicode="&#xc8;" 
d="M590 560h-320v-130h280v-140h-280v-150h320v-140h-520v700h520v-140zM415 750h-130l-130 120h160z" />
    <glyph glyph-name="Eacute" unicode="&#xc9;" 
d="M590 560h-320v-130h280v-140h-280v-150h320v-140h-520v700h520v-140zM250 750l90 120h170l-120 -120h-140z" />
    <glyph glyph-name="Ecircumflex" unicode="&#xca;" 
d="M590 560h-320v-130h280v-140h-280v-150h320v-140h-520v700h520v-140zM500 750h-120l-50 110l-50 -110h-120l40 120h260z" />
    <glyph glyph-name="Edieresis" unicode="&#xcb;" 
d="M590 560h-320v-130h280v-140h-280v-150h320v-140h-520v700h520v-140zM200 890q52 0 76 -19t24 -61t-24 -61t-76 -19t-76 19t-24 61t24 61t76 19zM460 890q52 0 76 -19t24 -61t-24 -61t-76 -19t-76 19t-24 61t24 61t76 19z" />
    <glyph glyph-name="Igrave" unicode="&#xcc;" horiz-adv-x="340" 
d="M70 700h200v-700h-200v700zM250 750h-130l-130 120h160z" />
    <glyph glyph-name="Iacute" unicode="&#xcd;" horiz-adv-x="340" 
d="M70 700h200v-700h-200v700zM90 750l90 120h170l-120 -120h-140z" />
    <glyph glyph-name="Icircumflex" unicode="&#xce;" horiz-adv-x="340" 
d="M70 700h200v-700h-200v700zM340 750h-120l-50 110l-50 -110h-120l40 120h260z" />
    <glyph glyph-name="Idieresis" unicode="&#xcf;" horiz-adv-x="340" 
d="M70 700h200v-700h-200v700zM40 890q52 0 76 -19t24 -61t-24 -61t-76 -19t-76 19t-24 61t24 61t76 19zM300 890q52 0 76 -19t24 -61t-24 -61t-76 -19t-76 19t-24 61t24 61t76 19z" />
    <glyph glyph-name="Ntilde" unicode="&#xd1;" horiz-adv-x="820" 
d="M560 700h190v-700h-340l-150 650v-650h-190v700h340l150 -650v650zM240 760q0 51 31.5 80.5t78.5 29.5q51 0 88.5 -20t51.5 -20q8 0 14 6t6 14h70q0 -51 -31.5 -80.5t-78.5 -29.5q-51 0 -88.5 20t-51.5 20q-8 0 -14 -6t-6 -14h-70z" />
    <glyph glyph-name="Ograve" unicode="&#xd2;" horiz-adv-x="800" 
d="M400 720q194 0 282 -88t88 -282t-88 -282t-282 -88t-282 88t-88 282t88 282t282 88zM400 130q84 0 122 52.5t38 167.5q0 116 -38 168t-122 52t-122 -52t-38 -168q0 -115 38 -167.5t122 -52.5zM470 750h-130l-130 120h160z" />
    <glyph glyph-name="Oacute" unicode="&#xd3;" horiz-adv-x="800" 
d="M400 720q194 0 282 -88t88 -282t-88 -282t-282 -88t-282 88t-88 282t88 282t282 88zM400 130q84 0 122 52.5t38 167.5q0 116 -38 168t-122 52t-122 -52t-38 -168q0 -115 38 -167.5t122 -52.5zM320 750l90 120h170l-120 -120h-140z" />
    <glyph glyph-name="Ocircumflex" unicode="&#xd4;" horiz-adv-x="800" 
d="M400 720q194 0 282 -88t88 -282t-88 -282t-282 -88t-282 88t-88 282t88 282t282 88zM400 130q84 0 122 52.5t38 167.5q0 116 -38 168t-122 52t-122 -52t-38 -168q0 -115 38 -167.5t122 -52.5zM570 750h-120l-50 110l-50 -110h-120l40 120h260z" />
    <glyph glyph-name="Otilde" unicode="&#xd5;" horiz-adv-x="800" 
d="M400 720q194 0 282 -88t88 -282t-88 -282t-282 -88t-282 88t-88 282t88 282t282 88zM400 130q84 0 122 52.5t38 167.5q0 116 -38 168t-122 52t-122 -52t-38 -168q0 -115 38 -167.5t122 -52.5zM230 760q0 51 31.5 80.5t78.5 29.5q51 0 88.5 -20t51.5 -20q8 0 14 6t6 14h70
q0 -51 -31.5 -80.5t-78.5 -29.5q-51 0 -88.5 20t-51.5 20q-8 0 -14 -6t-6 -14h-70z" />
    <glyph glyph-name="Odieresis" unicode="&#xd6;" horiz-adv-x="800" 
d="M400 720q194 0 282 -88t88 -282t-88 -282t-282 -88t-282 88t-88 282t88 282t282 88zM400 130q84 0 122 52.5t38 167.5q0 116 -38 168t-122 52t-122 -52t-38 -168q0 -115 38 -167.5t122 -52.5zM270 890q52 0 76 -19t24 -61t-24 -61t-76 -19t-76 19t-24 61t24 61t76 19z
M530 890q52 0 76 -19t24 -61t-24 -61t-76 -19t-76 19t-24 61t24 61t76 19z" />
    <glyph glyph-name="multiply" unicode="&#xd7;" horiz-adv-x="560" 
d="M430 0l-150 150l-150 -150l-100 100l150 150l-150 150l100 100l150 -150l150 150l100 -100l-150 -150l150 -150z" />
    <glyph glyph-name="Oslash" unicode="&#xd8;" horiz-adv-x="800" 
d="M610 780l-30 -86q98 -34 144 -118t46 -226q0 -194 -88 -282t-282 -88q-36 0 -68 3l-22 -63h-120l30 86q-98 34 -144 118t-46 226q0 194 88 282t282 88q36 0 68 -3l22 63h120zM239 350q0 -115 38 -167.5t122 -52.5t122 52.5t38 167.5q0 116 -38 168t-122 52t-122 -52
t-38 -168z" />
    <glyph glyph-name="Ugrave" unicode="&#xd9;" horiz-adv-x="740" 
d="M60 260v440h200v-440q0 -68 26 -99t84 -31t84 31t26 99v440h200v-440q0 -147 -73.5 -213.5t-236.5 -66.5t-236.5 66.5t-73.5 213.5zM450 750h-130l-130 120h160z" />
    <glyph glyph-name="Uacute" unicode="&#xda;" horiz-adv-x="740" 
d="M60 260v440h200v-440q0 -68 26 -99t84 -31t84 31t26 99v440h200v-440q0 -147 -73.5 -213.5t-236.5 -66.5t-236.5 66.5t-73.5 213.5zM290 750l90 120h170l-120 -120h-140z" />
    <glyph glyph-name="Ucircumflex" unicode="&#xdb;" horiz-adv-x="740" 
d="M60 260v440h200v-440q0 -68 26 -99t84 -31t84 31t26 99v440h200v-440q0 -147 -73.5 -213.5t-236.5 -66.5t-236.5 66.5t-73.5 213.5zM540 750h-120l-50 110l-50 -110h-120l40 120h260z" />
    <glyph glyph-name="Udieresis" unicode="&#xdc;" horiz-adv-x="740" 
d="M60 260v440h200v-440q0 -68 26 -99t84 -31t84 31t26 99v440h200v-440q0 -147 -73.5 -213.5t-236.5 -66.5t-236.5 66.5t-73.5 213.5zM240 890q52 0 76 -19t24 -61t-24 -61t-76 -19t-76 19t-24 61t24 61t76 19zM500 890q52 0 76 -19t24 -61t-24 -61t-76 -19t-76 19t-24 61
t24 61t76 19z" />
    <glyph glyph-name="Yacute" unicode="&#xdd;" horiz-adv-x="680" 
d="M530 300h-90v-300h-190v300h-90l-160 400h220l125 -385l125 385h210zM270 750l90 120h170l-120 -120h-140z" />
    <glyph glyph-name="germandbls" unicode="&#xdf;" horiz-adv-x="680" 
d="M340 720q147 0 213.5 -45.5t66.5 -145.5q0 -73 -47.5 -108.5t-152.5 -40.5q121 -7 175.5 -47.5t54.5 -122.5q0 -110 -52 -160t-168 -50q-27 0 -54.5 5t-41.5 10l-14 5v120q30 -10 60 -10q47 0 68.5 19t21.5 61q0 100 -130 100v140q110 0 110 70q0 37 -24 53.5t-76 16.5
q-110 0 -110 -100v-490h-180v470q0 250 280 250z" />
    <glyph glyph-name="agrave" unicode="&#xe0;" horiz-adv-x="560" 
d="M20 150q0 89 59.5 129.5t190.5 40.5h70v20q0 37 -15.5 53.5t-50.5 16.5q-34 0 -49 -14t-15 -46h-170q0 84 57 122t183 38t183 -45t57 -145v-320h-140l-40 100q-26 -110 -140 -110q-94 0 -137 38t-43 122zM290 220q-48 0 -69 -13t-21 -47q0 -28 14 -39t46 -11
q42 0 61 21.5t19 68.5v20h-50zM270 700l90 -150h-140l-130 150h180z" />
    <glyph glyph-name="aacute" unicode="&#xe1;" horiz-adv-x="560" 
d="M20 150q0 89 59.5 129.5t190.5 40.5h70v20q0 37 -15.5 53.5t-50.5 16.5q-34 0 -49 -14t-15 -46h-170q0 84 57 122t183 38t183 -45t57 -145v-320h-140l-40 100q-26 -110 -140 -110q-94 0 -137 38t-43 122zM290 220q-48 0 -69 -13t-21 -47q0 -28 14 -39t46 -11
q42 0 61 21.5t19 68.5v20h-50zM190 550l90 150h180l-130 -150h-140z" />
    <glyph glyph-name="acircumflex" unicode="&#xe2;" horiz-adv-x="560" 
d="M20 150q0 89 59.5 129.5t190.5 40.5h70v20q0 37 -15.5 53.5t-50.5 16.5q-34 0 -49 -14t-15 -46h-170q0 84 57 122t183 38t183 -45t57 -145v-320h-140l-40 100q-26 -110 -140 -110q-94 0 -137 38t-43 122zM290 220q-48 0 -69 -13t-21 -47q0 -28 14 -39t46 -11
q42 0 61 21.5t19 68.5v20h-50zM450 550h-110l-60 140l-60 -140h-110l40 150h260z" />
    <glyph glyph-name="atilde" unicode="&#xe3;" horiz-adv-x="500" 
d="M0 150q0 89 59.5 129.5t190.5 40.5h70v20q0 37 -15.5 53.5t-50.5 16.5q-34 0 -49 -14t-15 -46h-170q0 84 57 122t183 38t183 -45t57 -145v-320h-140l-40 100q-26 -110 -140 -110q-94 0 -137 38t-43 122zM270 220q-48 0 -69 -13t-21 -47q0 -28 14 -39t46 -11q42 0 61 21.5
t19 68.5v20h-50zM90 580q0 53 32.5 91.5t77.5 38.5q31 0 54 -11t33.5 -24t22 -24t20.5 -11q20 0 20 30h80q0 -53 -32.5 -91.5t-77.5 -38.5q-31 0 -54 11t-33.5 24t-22 24t-20.5 11q-20 0 -20 -30h-80z" />
    <glyph glyph-name="adieresis" unicode="&#xe4;" horiz-adv-x="560" 
d="M20 150q0 89 59.5 129.5t190.5 40.5h70v20q0 37 -15.5 53.5t-50.5 16.5q-34 0 -49 -14t-15 -46h-170q0 84 57 122t183 38t183 -45t57 -145v-320h-140l-40 100q-26 -110 -140 -110q-94 0 -137 38t-43 122zM290 220q-48 0 -69 -13t-21 -47q0 -28 14 -39t46 -11
q42 0 61 21.5t19 68.5v20h-50zM160 750q52 0 76 -23t24 -73t-24 -72.5t-76 -22.5q-53 0 -76.5 22.5t-23.5 72.5t24 73t76 23zM400 750q52 0 76 -23t24 -73t-24 -72.5t-76 -22.5q-53 0 -76.5 22.5t-23.5 72.5t24 73t76 23z" />
    <glyph glyph-name="aring" unicode="&#xe5;" horiz-adv-x="500" 
d="M0 150q0 89 59.5 129.5t190.5 40.5h70v20q0 37 -15.5 53.5t-50.5 16.5q-34 0 -49 -14t-15 -46h-170q0 84 57 122t183 38t183 -45t57 -145v-320h-140l-40 100q-26 -110 -140 -110q-94 0 -137 38t-43 122zM270 220q-48 0 -69 -13t-21 -47q0 -28 14 -39t46 -11q42 0 61 21.5
t19 68.5v20h-50zM260 750q68 0 99 -26t31 -84t-31 -84t-99 -26t-99 26t-31 84t31 84t99 26zM260 600q40 0 40 40t-40 40t-40 -40t40 -40z" />
    <glyph glyph-name="ae" unicode="&#xe6;" horiz-adv-x="900" 
d="M520 199v-1q6 -52 28.5 -76t63.5 -24q66 0 80 60h170q-16 -89 -68 -129.5t-152 -40.5q-89 0 -138 40t-65 126q-11 -85 -67 -125t-160 -40q-100 0 -145 38t-45 122q0 89 59.5 129.5t190.5 40.5h70v20q0 31 -16.5 45.5t-53.5 14.5q-32 0 -46 -12t-14 -38h-170q0 84 52 122
t168 38q86 0 128.5 -37t49.5 -119q16 81 65 118.5t136 37.5q126 0 183 -61.5t57 -198.5v-50h-361zM261 109q42 0 61 21.5t19 68.5v20h-50q-47 0 -68.5 -14.5t-21.5 -45.5q0 -26 14.5 -38t45.5 -12zM611 398q-40 0 -61.5 -24t-28.5 -76h180q0 52 -21.5 76t-68.5 24z" />
    <glyph glyph-name="ccedilla" unicode="&#xe7;" horiz-adv-x="580" 
d="M220 -109l28 100q-118 10 -172.5 72.5t-54.5 186.5q0 136 66.5 198t213.5 62q126 0 188 -47.5t72 -152.5h-180q-11 70 -80 70q-53 0 -76.5 -31t-23.5 -99t23.5 -99t76.5 -31q35 0 54 16.5t26 53.5h180q-10 -96 -62.5 -143.5t-158.5 -54.5l-10 -41l10 -2.5t21.5 -9
t27.5 -16.5t21.5 -25.5t9.5 -36.5q0 -52 -56 -81t-154 -29v70q80 0 80 40q0 30 -70 30z" />
    <glyph glyph-name="egrave" unicode="&#xe8;" horiz-adv-x="580" 
d="M200 200q0 -52 21 -76t68 -24q36 0 55 14t26 46h170q-16 -89 -75 -129.5t-175 -40.5q-142 0 -206 61.5t-64 198.5q0 136 64 198t206 62t206 -62t64 -198v-50h-360zM291 400q-47 0 -68.5 -24t-21.5 -76h180q0 52 -21.5 76t-68.5 24zM281 700l90 -150h-140l-130 150h180z
" />
    <glyph glyph-name="eacute" unicode="&#xe9;" horiz-adv-x="580" 
d="M200 200q0 -52 21 -76t68 -24q36 0 55 14t26 46h170q-16 -89 -75 -129.5t-175 -40.5q-142 0 -206 61.5t-64 198.5q0 136 64 198t206 62t206 -62t64 -198v-50h-360zM291 400q-47 0 -68.5 -24t-21.5 -76h180q0 52 -21.5 76t-68.5 24zM211 550l90 150h180l-130 -150h-140z
" />
    <glyph glyph-name="ecircumflex" unicode="&#xea;" horiz-adv-x="580" 
d="M200 200q0 -52 21 -76t68 -24q36 0 55 14t26 46h170q-16 -89 -75 -129.5t-175 -40.5q-142 0 -206 61.5t-64 198.5q0 136 64 198t206 62t206 -62t64 -198v-50h-360zM291 400q-47 0 -68.5 -24t-21.5 -76h180q0 52 -21.5 76t-68.5 24zM461 550h-110l-60 140l-60 -140h-110
l40 150h260z" />
    <glyph glyph-name="edieresis" unicode="&#xeb;" horiz-adv-x="580" 
d="M200 200q0 -52 21 -76t68 -24q36 0 55 14t26 46h170q-16 -89 -75 -129.5t-175 -40.5q-142 0 -206 61.5t-64 198.5q0 136 64 198t206 62t206 -62t64 -198v-50h-360zM291 400q-47 0 -68.5 -24t-21.5 -76h180q0 52 -21.5 76t-68.5 24zM171 750q52 0 76 -23t24 -73t-24 -72.5
t-76 -22.5q-53 0 -76.5 22.5t-23.5 72.5t24 73t76 23zM411 750q52 0 76 -23t24 -73t-24 -72.5t-76 -22.5q-53 0 -76.5 22.5t-23.5 72.5t24 73t76 23z" />
    <glyph glyph-name="igrave" unicode="&#xec;" horiz-adv-x="260" 
d="M220 0h-180v500h180v-500zM120 700l90 -150h-140l-130 150h180z" />
    <glyph glyph-name="iacute" unicode="&#xed;" horiz-adv-x="270" 
d="M230 0h-180v500h180v-500zM50 550l90 150h180l-130 -150h-140z" />
    <glyph glyph-name="icircumflex" unicode="&#xee;" horiz-adv-x="260" 
d="M220 0h-180v500h180v-500zM300 550h-110l-60 140l-60 -140h-110l40 150h260z" />
    <glyph glyph-name="idieresis" unicode="&#xef;" horiz-adv-x="280" 
d="M230 0h-180v500h180v-500zM20 750q52 0 76 -23t24 -73t-24 -72.5t-76 -22.5q-53 0 -76.5 22.5t-23.5 72.5t24 73t76 23zM260 750q52 0 76 -23t24 -73t-24 -72.5t-76 -22.5q-53 0 -76.5 22.5t-23.5 72.5t24 73t76 23z" />
    <glyph glyph-name="ntilde" unicode="&#xf1;" horiz-adv-x="590" 
d="M190 500l39 -118q13 66 47.5 97t93.5 31q94 0 137 -57t43 -183v-270h-180v270q0 58 -16.5 84t-53.5 26t-53.5 -26t-16.5 -84v-270h-180v500h140zM130 580q0 53 32.5 91.5t77.5 38.5q31 0 54 -11t33.5 -24t22 -24t20.5 -11q20 0 20 30h80q0 -53 -32.5 -91.5t-77.5 -38.5
q-31 0 -54 11t-33.5 24t-22 24t-20.5 11q-20 0 -20 -30h-80z" />
    <glyph glyph-name="ograve" unicode="&#xf2;" horiz-adv-x="600" 
d="M300 510q147 0 213.5 -62t66.5 -198t-66.5 -198t-213.5 -62t-213.5 62t-66.5 198t66.5 198t213.5 62zM200 250q0 -68 24 -99t76 -31t76 31t24 99t-24 99t-76 31t-76 -31t-24 -99zM290 700l90 -150h-140l-130 150h180z" />
    <glyph glyph-name="oacute" unicode="&#xf3;" horiz-adv-x="600" 
d="M300 510q147 0 213.5 -62t66.5 -198t-66.5 -198t-213.5 -62t-213.5 62t-66.5 198t66.5 198t213.5 62zM200 250q0 -68 24 -99t76 -31t76 31t24 99t-24 99t-76 31t-76 -31t-24 -99zM220 550l90 150h180l-130 -150h-140z" />
    <glyph glyph-name="ocircumflex" unicode="&#xf4;" horiz-adv-x="600" 
d="M300 510q147 0 213.5 -62t66.5 -198t-66.5 -198t-213.5 -62t-213.5 62t-66.5 198t66.5 198t213.5 62zM200 250q0 -68 24 -99t76 -31t76 31t24 99t-24 99t-76 31t-76 -31t-24 -99zM470 550h-110l-60 140l-60 -140h-110l40 150h260z" />
    <glyph glyph-name="otilde" unicode="&#xf5;" horiz-adv-x="600" 
d="M300 510q147 0 213.5 -62t66.5 -198t-66.5 -198t-213.5 -62t-213.5 62t-66.5 198t66.5 198t213.5 62zM200 250q0 -68 24 -99t76 -31t76 31t24 99t-24 99t-76 31t-76 -31t-24 -99zM130 580q0 53 32.5 91.5t77.5 38.5q31 0 54 -11t33.5 -24t22 -24t20.5 -11q20 0 20 30h80
q0 -53 -32.5 -91.5t-77.5 -38.5q-31 0 -54 11t-33.5 24t-22 24t-20.5 11q-20 0 -20 -30h-80z" />
    <glyph glyph-name="odieresis" unicode="&#xf6;" horiz-adv-x="600" 
d="M300 510q147 0 213.5 -62t66.5 -198t-66.5 -198t-213.5 -62t-213.5 62t-66.5 198t66.5 198t213.5 62zM200 250q0 -68 24 -99t76 -31t76 31t24 99t-24 99t-76 31t-76 -31t-24 -99zM180 750q52 0 76 -23t24 -73t-24 -72.5t-76 -22.5q-53 0 -76.5 22.5t-23.5 72.5t24 73
t76 23zM420 750q52 0 76 -23t24 -73t-24 -72.5t-76 -22.5q-53 0 -76.5 22.5t-23.5 72.5t24 73t76 23z" />
    <glyph glyph-name="divide" unicode="&#xf7;" horiz-adv-x="580" 
d="M550 200h-520v130h520v-130zM290 160q40 0 65 -23.5t25 -61.5t-25 -61.5t-65 -23.5t-65 23.5t-25 61.5t25 61.5t65 23.5zM291 540q41 0 65.5 -23.5t24.5 -61.5t-24.5 -61.5t-65.5 -23.5t-65.5 23.5t-24.5 61.5t24.5 61.5t65.5 23.5z" />
    <glyph glyph-name="oslash" unicode="&#xf8;" horiz-adv-x="600" 
d="M424 495q81 -22 118.5 -82t37.5 -163q0 -137 -66.5 -199t-213.5 -62q-17 0 -49 2l-21 -61h-80l26 74q-80 22 -117.5 82t-37.5 163q0 137 66.5 198.5t213.5 61.5q18 0 48 -2l21 62h80zM400 249h1q0 68 -23 99t-75 31t-77.5 -31t-25.5 -99t24 -99t76 -31t76 31t24 99z" />
    <glyph glyph-name="ugrave" unicode="&#xf9;" horiz-adv-x="590" 
d="M400 0l-39 118q-13 -66 -47.5 -97t-93.5 -31q-95 0 -137.5 57t-42.5 183v270h180v-270q0 -58 16.5 -84t53.5 -26t53.5 26t16.5 84v270h180v-500h-140zM280 700l90 -150h-140l-130 150h180z" />
    <glyph glyph-name="uacute" unicode="&#xfa;" horiz-adv-x="590" 
d="M400 0l-39 118q-13 -66 -47.5 -97t-93.5 -31q-95 0 -137.5 57t-42.5 183v270h180v-270q0 -58 16.5 -84t53.5 -26t53.5 26t16.5 84v270h180v-500h-140zM170 550l90 150h180l-130 -150h-140z" />
    <glyph glyph-name="ucircumflex" unicode="&#xfb;" horiz-adv-x="590" 
d="M400 0l-39 118q-13 -66 -47.5 -97t-93.5 -31q-95 0 -137.5 57t-42.5 183v270h180v-270q0 -58 16.5 -84t53.5 -26t53.5 26t16.5 84v270h180v-500h-140zM440 550h-110l-60 140l-60 -140h-110l40 150h260z" />
    <glyph glyph-name="udieresis" unicode="&#xfc;" horiz-adv-x="590" 
d="M400 0l-39 118q-13 -66 -47.5 -97t-93.5 -31q-95 0 -137.5 57t-42.5 183v270h180v-270q0 -58 16.5 -84t53.5 -26t53.5 26t16.5 84v270h180v-500h-140zM170 750q52 0 76 -23t24 -73t-24 -72.5t-76 -22.5q-53 0 -76.5 22.5t-23.5 72.5t24 73t76 23zM410 750q52 0 76 -23
t24 -73t-24 -72.5t-76 -22.5q-53 0 -76.5 22.5t-23.5 72.5t24 73t76 23z" />
    <glyph glyph-name="yacute" unicode="&#xfd;" horiz-adv-x="520" 
d="M269 56l71 444h180l-100 -490q-20 -100 -63 -145t-117 -45h-160v110h110q32 0 48.5 16.5t21.5 53.5h-140l-120 500h180zM200 550l90 150h180l-130 -150h-140z" />
    <glyph glyph-name="ydieresis" unicode="&#xff;" horiz-adv-x="520" 
d="M269 56l71 444h180l-100 -490q-20 -100 -63 -145t-117 -45h-160v110h110q32 0 48.5 16.5t21.5 53.5h-140l-120 500h180zM150 750q52 0 76 -23t24 -73t-24 -72.5t-76 -22.5q-53 0 -76.5 22.5t-23.5 72.5t24 73t76 23zM390 750q52 0 76 -23t24 -73t-24 -72.5t-76 -22.5
q-53 0 -76.5 22.5t-23.5 72.5t24 73t76 23z" />
    <glyph glyph-name="Amacron" unicode="&#x100;" horiz-adv-x="700" 
d="M490 0l-28 130h-232l-30 -130h-200l170 700h380l150 -700h-210zM350 645l-89 -385h173zM190 760v100h340v-100h-340z" />
    <glyph glyph-name="amacron" unicode="&#x101;" horiz-adv-x="560" 
d="M20 150q0 89 59.5 129.5t190.5 40.5h70v20q0 37 -15.5 53.5t-50.5 16.5q-34 0 -49 -14t-15 -46h-170q0 84 57 122t183 38t183 -45t57 -145v-320h-140l-40 100q-26 -110 -140 -110q-94 0 -137 38t-43 122zM290 220q-48 0 -69 -13t-21 -47q0 -28 14 -39t46 -11
q42 0 61 21.5t19 68.5v20h-50zM110 570v100h340v-100h-340z" />
    <glyph glyph-name="Abreve" unicode="&#x102;" horiz-adv-x="700" 
d="M490 0l-28 130h-232l-30 -130h-200l170 700h380l150 -700h-210zM350 645l-89 -385h173zM530 870q0 -63 -40.5 -91.5t-129.5 -28.5t-129.5 28.5t-40.5 91.5h130q0 -40 40 -40t40 40h130z" />
    <glyph glyph-name="abreve" unicode="&#x103;" horiz-adv-x="560" 
d="M20 150q0 89 59.5 129.5t190.5 40.5h70v20q0 37 -15.5 53.5t-50.5 16.5q-34 0 -49 -14t-15 -46h-170q0 84 57 122t183 38t183 -45t57 -145v-320h-140l-40 100q-26 -110 -140 -110q-94 0 -137 38t-43 122zM290 220q-48 0 -69 -13t-21 -47q0 -28 14 -39t46 -11
q42 0 61 21.5t19 68.5v20h-50zM330 700h120q0 -79 -40.5 -114.5t-129.5 -35.5t-129.5 35.5t-40.5 114.5h120q0 -32 12 -46t38 -14t38 14t12 46z" />
    <glyph glyph-name="Aogonek" unicode="&#x104;" horiz-adv-x="700" 
d="M566 0h-76l-28 130h-232l-30 -130h-200l170 700h380l150 -700h-44q-41 -41 -38 -75q2 -25 32 -25q8 0 18 2.5t16 5.5l6 2v-140q-30 -20 -70 -20q-58 0 -89.5 42.5t-22.5 102.5t58 105zM351 645l-89 -385h173z" />
    <glyph glyph-name="aogonek" unicode="&#x105;" horiz-adv-x="560" 
d="M375 6l-35 94q-26 -110 -140 -110q-94 0 -137 38t-43 122q0 89 59.5 129.5t190.5 40.5h70v20q0 37 -15.5 53.5t-50.5 16.5q-34 0 -49 -14t-15 -46h-170q0 84 57 122t183 38t183 -45t57 -145v-320h-61q-41 -41 -38 -75q2 -25 32 -25q8 0 18 2.5t16 5.5l6 2v-140
q-30 -20 -70 -20q-60 0 -91.5 44t-20 105.5t63.5 106.5zM289 219q-48 0 -69 -13t-21 -47q0 -28 14 -39t46 -11q42 0 61 21.5t19 68.5v20h-50z" />
    <glyph glyph-name="Cacute" unicode="&#x106;" horiz-adv-x="770" 
d="M540 240h200q-29 -137 -110 -198.5t-230 -61.5q-194 0 -282 88t-88 282t88 282t282 88q159 0 240 -62t100 -198h-200q-11 58 -44.5 84t-95.5 26q-84 0 -122 -52t-38 -168q0 -115 38 -167.5t122 -52.5q62 0 95.5 26t44.5 84zM320 750l90 120h170l-120 -120h-140z" />
    <glyph glyph-name="cacute" unicode="&#x107;" horiz-adv-x="580" 
d="M380 190h180q-10 -105 -72 -152.5t-188 -47.5q-147 0 -213.5 62t-66.5 198t66.5 198t213.5 62q126 0 188 -47.5t72 -152.5h-180q-11 70 -80 70q-52 0 -76 -31t-24 -99t24 -99t76 -31q35 0 54 16.5t26 53.5zM220 550l90 150h180l-130 -150h-140z" />
    <glyph glyph-name="Ccircumflex" unicode="&#x108;" horiz-adv-x="770" 
d="M540 240h200q-29 -137 -110 -198.5t-230 -61.5q-194 0 -282 88t-88 282t88 282t282 88q159 0 240 -62t100 -198h-200q-11 58 -44.5 84t-95.5 26q-84 0 -122 -52t-38 -168q0 -115 38 -167.5t122 -52.5q62 0 95.5 26t44.5 84zM570 750h-120l-50 110l-50 -110h-120l40 120
h260z" />
    <glyph glyph-name="ccircumflex" unicode="&#x109;" horiz-adv-x="580" 
d="M380 190h180q-10 -105 -72 -152.5t-188 -47.5q-147 0 -213.5 62t-66.5 198t66.5 198t213.5 62q126 0 188 -47.5t72 -152.5h-180q-11 70 -80 70q-52 0 -76 -31t-24 -99t24 -99t76 -31q35 0 54 16.5t26 53.5zM470 550h-110l-60 140l-60 -140h-110l40 150h260z" />
    <glyph glyph-name="Cdotaccent" unicode="&#x10a;" horiz-adv-x="770" 
d="M540 240h200q-29 -137 -110 -198.5t-230 -61.5q-194 0 -282 88t-88 282t88 282t282 88q159 0 240 -62t100 -198h-200q-11 58 -44.5 84t-95.5 26q-84 0 -122 -52t-38 -168q0 -115 38 -167.5t122 -52.5q62 0 95.5 26t44.5 84zM400 900q52 0 76 -19t24 -61t-24 -61t-76 -19
t-76 19t-24 61t24 61t76 19z" />
    <glyph glyph-name="cdotaccent" unicode="&#x10b;" horiz-adv-x="580" 
d="M380 190h180q-10 -105 -72 -152.5t-188 -47.5q-147 0 -213.5 62t-66.5 198t66.5 198t213.5 62q126 0 188 -47.5t72 -152.5h-180q-11 70 -80 70q-52 0 -76 -31t-24 -99t24 -99t76 -31q35 0 54 16.5t26 53.5zM300 750q53 0 76 -21t23 -68t-23.5 -68.5t-76.5 -21.5
q-52 0 -75.5 21t-23.5 68t24 68.5t76 21.5z" />
    <glyph glyph-name="Ccaron" unicode="&#x10c;" horiz-adv-x="770" 
d="M540 240h200q-29 -137 -110 -198.5t-230 -61.5q-194 0 -282 88t-88 282t88 282t282 88q159 0 240 -62t100 -198h-200q-11 58 -44.5 84t-95.5 26q-84 0 -122 -52t-38 -168q0 -115 38 -167.5t122 -52.5q62 0 95.5 26t44.5 84zM560 870l-40 -120h-260l-40 120h120l50 -110
l50 110h120z" />
    <glyph glyph-name="ccaron" unicode="&#x10d;" horiz-adv-x="580" 
d="M380 190h180q-10 -105 -72 -152.5t-188 -47.5q-147 0 -213.5 62t-66.5 198t66.5 198t213.5 62q126 0 188 -47.5t72 -152.5h-180q-11 70 -80 70q-52 0 -76 -31t-24 -99t24 -99t76 -31q35 0 54 16.5t26 53.5zM470 700l-40 -150h-260l-40 150h110l60 -140l60 140h110z" />
    <glyph glyph-name="Dcaron" unicode="&#x10e;" horiz-adv-x="750" 
d="M720 350q0 -184 -85.5 -267t-274.5 -83h-290v700h290q189 0 274.5 -83t85.5 -267zM350 560h-80v-420h80q84 0 122 50t38 160t-38 160t-122 50zM510 870l-40 -120h-260l-40 120h120l50 -110l50 110h120z" />
    <glyph glyph-name="dcaron" unicode="&#x10f;" horiz-adv-x="730" 
d="M400 131q-15 -73 -54 -107.5t-106 -34.5q-105 0 -152.5 61.5t-47.5 198.5t47.5 198.5t152.5 61.5q67 0 106 -34t54 -107v331h180v-700h-140zM310 120q47 0 68.5 31t21.5 99t-21.5 99t-68.5 31t-68.5 -31t-21.5 -99t21.5 -99t68.5 -31zM670 710q37 0 53.5 -21.5
t16.5 -68.5q0 -63 -31 -91.5t-99 -28.5v60q50 0 50 40q-32 0 -46 12t-14 38q0 32 16.5 46t53.5 14z" />
    <glyph glyph-name="Dcroat" unicode="&#x110;" horiz-adv-x="760" 
d="M730 350q0 -184 -85.5 -267t-274.5 -83h-290v320h-90v120h90v260h290q189 0 274.5 -83t85.5 -267zM360 560h-80v-120h132v-120h-132v-180h80q84 0 122 50t38 160t-38 160t-122 50z" />
    <glyph glyph-name="dcroat" unicode="&#x111;" horiz-adv-x="650" 
d="M400 132q-15 -73 -54 -107.5t-106 -34.5q-105 0 -152.5 61.5t-47.5 198.5q0 136 47.5 198t152.5 62q67 0 106 -34t54 -107v181h-180v80h180v70h180v-70h70v-80h-70v-550h-140zM310 121q47 0 68.5 31t21.5 99t-21.5 99t-68.5 31t-68.5 -31t-21.5 -99t21.5 -99t68.5 -31z
" />
    <glyph glyph-name="Emacron" unicode="&#x112;" 
d="M590 560h-320v-130h280v-140h-280v-150h320v-140h-520v700h520v-140zM160 760v100h340v-100h-340z" />
    <glyph glyph-name="emacron" unicode="&#x113;" horiz-adv-x="580" 
d="M200 200q0 -52 21 -76t68 -24q36 0 55 14t26 46h170q-16 -89 -75 -129.5t-175 -40.5q-142 0 -206 61.5t-64 198.5q0 136 64 198t206 62t206 -62t64 -198v-50h-360zM291 400q-47 0 -68.5 -24t-21.5 -76h180q0 52 -21.5 76t-68.5 24zM121 570v100h340v-100h-340z" />
    <glyph glyph-name="Ebreve" unicode="&#x114;" 
d="M590 560h-320v-130h280v-140h-280v-150h320v-140h-520v700h520v-140zM500 870q0 -63 -40.5 -91.5t-129.5 -28.5t-129.5 28.5t-40.5 91.5h130q0 -40 40 -40t40 40h130z" />
    <glyph glyph-name="ebreve" unicode="&#x115;" horiz-adv-x="580" 
d="M200 200q0 -52 21 -76t68 -24q36 0 55 14t26 46h170q-16 -89 -75 -129.5t-175 -40.5q-142 0 -206 61.5t-64 198.5q0 136 64 198t206 62t206 -62t64 -198v-50h-360zM291 400q-47 0 -68.5 -24t-21.5 -76h180q0 52 -21.5 76t-68.5 24zM341 700h120q0 -79 -40.5 -114.5
t-129.5 -35.5t-129.5 35.5t-40.5 114.5h120q0 -32 12 -46t38 -14t38 14t12 46z" />
    <glyph glyph-name="Edotaccent" unicode="&#x116;" 
d="M590 560h-320v-130h280v-140h-280v-150h320v-140h-520v700h520v-140zM330 900q52 0 76 -19t24 -61t-24 -61t-76 -19t-76 19t-24 61t24 61t76 19z" />
    <glyph glyph-name="edotaccent" unicode="&#x117;" horiz-adv-x="580" 
d="M200 200q0 -52 21 -76t68 -24q36 0 55 14t26 46h170q-16 -89 -75 -129.5t-175 -40.5q-142 0 -206 61.5t-64 198.5q0 136 64 198t206 62t206 -62t64 -198v-50h-360zM291 400q-47 0 -68.5 -24t-21.5 -76h180q0 52 -21.5 76t-68.5 24zM291 750q53 0 76 -21t23 -68t-24 -68.5
t-76 -21.5t-75.5 21t-23.5 68t23.5 68.5t76.5 21.5z" />
    <glyph glyph-name="Eogonek" unicode="&#x118;" 
d="M442 0h-373v700h520v-140h-320v-130h280v-140h-280v-150h320v-140h-57q-41 -41 -38 -75q2 -25 32 -25q8 0 18 2.5t16 5.5l6 2v-140q-30 -20 -70 -20q-58 0 -89.5 42.5t-22.5 102.5t58 105z" />
    <glyph glyph-name="eogonek" unicode="&#x119;" horiz-adv-x="580" 
d="M200 200q0 -52 21 -76t68 -24q36 0 55 14t26 46h170q-12 -66 -47.5 -105t-98.5 -54q-21 -21 -31.5 -44.5t-4 -40t30.5 -16.5q8 0 18 2.5t16 5.5l6 2v-140q-30 -20 -70 -20q-56 0 -88 40t-26 97t48 103h-3q-142 0 -206 61.5t-64 198.5q0 136 64 198t206 62t206 -62
t64 -198v-50h-360zM291 400q-47 0 -68.5 -24t-21.5 -76h180q0 52 -21.5 76t-68.5 24z" />
    <glyph glyph-name="Ecaron" unicode="&#x11a;" 
d="M590 560h-320v-130h280v-140h-280v-150h320v-140h-520v700h520v-140zM490 870l-40 -120h-260l-40 120h120l50 -110l50 110h120z" />
    <glyph glyph-name="ecaron" unicode="&#x11b;" horiz-adv-x="580" 
d="M200 200q0 -52 21 -76t68 -24q36 0 55 14t26 46h170q-16 -89 -75 -129.5t-175 -40.5q-142 0 -206 61.5t-64 198.5q0 136 64 198t206 62t206 -62t64 -198v-50h-360zM291 400q-47 0 -68.5 -24t-21.5 -76h180q0 52 -21.5 76t-68.5 24zM461 700l-40 -150h-260l-40 150h110
l60 -140l60 140h110z" />
    <glyph glyph-name="Gbreve" unicode="&#x11e;" horiz-adv-x="780" 
d="M400 280v130h350v-60q0 -194 -83 -282t-267 -88q-194 0 -282 88t-88 282t88 282t282 88q153 0 233.5 -57t106.5 -183h-190q-12 47 -47.5 68.5t-102.5 21.5q-84 0 -122 -52t-38 -168q0 -115 38 -167.5t122 -52.5t122 35.5t38 114.5h-160zM570 870q0 -63 -40.5 -91.5
t-129.5 -28.5t-129.5 28.5t-40.5 91.5h130q0 -40 40 -40t40 40h130z" />
    <glyph glyph-name="gbreve" unicode="&#x11f;" 
d="M381 363l39 137h140v-450q0 -137 -64 -198.5t-206 -61.5q-118 0 -177 40.5t-72 129.5h170q11 -60 70 -60q52 0 76 28.5t24 90.5v113q-15 -73 -54 -107.5t-106 -34.5q-102 0 -151 62.5t-49 197.5t49 197.5t151 62.5q68 0 107 -35.5t53 -111.5zM290 380q-47 0 -68.5 -31
t-21.5 -99t21.5 -99t68.5 -31t68.5 31t21.5 99t-21.5 99t-68.5 31zM340 700h120q0 -79 -40.5 -114.5t-129.5 -35.5t-129.5 35.5t-40.5 114.5h120q0 -32 12 -46t38 -14t38 14t12 46z" />
    <glyph glyph-name="Gdotaccent" unicode="&#x120;" horiz-adv-x="780" 
d="M400 280v130h350v-60q0 -194 -83 -282t-267 -88q-194 0 -282 88t-88 282t88 282t282 88q153 0 233.5 -57t106.5 -183h-190q-12 47 -47.5 68.5t-102.5 21.5q-84 0 -122 -52t-38 -168q0 -115 38 -167.5t122 -52.5t122 35.5t38 114.5h-160zM400 900q52 0 76 -19t24 -61
t-24 -61t-76 -19t-76 19t-24 61t24 61t76 19z" />
    <glyph glyph-name="gdotaccent" unicode="&#x121;" 
d="M381 363l39 137h140v-450q0 -137 -64 -198.5t-206 -61.5q-118 0 -177 40.5t-72 129.5h170q11 -60 70 -60q52 0 76 28.5t24 90.5v113q-15 -73 -54 -107.5t-106 -34.5q-102 0 -151 62.5t-49 197.5t49 197.5t151 62.5q68 0 107 -35.5t53 -111.5zM290 380q-47 0 -68.5 -31
t-21.5 -99t21.5 -99t68.5 -31t68.5 31t21.5 99t-21.5 99t-68.5 31zM280 750q53 0 76 -21t23 -68t-23.5 -68.5t-76.5 -21.5q-52 0 -75.5 21t-23.5 68t24 68.5t76 21.5z" />
    <glyph glyph-name="Gcedilla" unicode="&#x122;" horiz-adv-x="780" 
d="M400 280v130h350v-60q0 -194 -83 -282t-267 -88q-194 0 -282 88t-88 282t88 282t282 88q153 0 233.5 -57t106.5 -183h-190q-12 47 -47.5 68.5t-102.5 21.5q-84 0 -122 -52t-38 -168q0 -115 38 -167.5t122 -52.5t122 35.5t38 114.5h-160zM400 -40q37 0 53.5 -21.5
t16.5 -68.5q0 -63 -31 -91.5t-99 -28.5v60q50 0 50 40q-32 0 -46 12t-14 38q0 32 16.5 46t53.5 14z" />
    <glyph glyph-name="gcedilla" unicode="&#x123;" 
d="M381 363l39 137h140v-450q0 -137 -64 -198.5t-206 -61.5q-118 0 -177 40.5t-72 129.5h170q11 -60 70 -60q52 0 76 28.5t24 90.5v113q-15 -73 -54 -107.5t-106 -34.5q-102 0 -151 62.5t-49 197.5t49 197.5t151 62.5q68 0 107 -35.5t53 -111.5zM290 380q-47 0 -68.5 -31
t-21.5 -99t21.5 -99t68.5 -31t68.5 31t21.5 99t-21.5 99t-68.5 31zM310 540q-37 0 -53.5 21.5t-16.5 68.5q0 63 31 91.5t99 28.5v-60q-50 0 -50 -40q32 0 46 -12t14 -38q0 -32 -16.5 -46t-53.5 -14z" />
    <glyph glyph-name="Itilde" unicode="&#x128;" horiz-adv-x="340" 
d="M70 700h200v-700h-200v700zM0 760q0 51 31.5 80.5t78.5 29.5q51 0 88.5 -20t51.5 -20q8 0 14 6t6 14h70q0 -51 -31.5 -80.5t-78.5 -29.5q-51 0 -88.5 20t-51.5 20q-8 0 -14 -6t-6 -14h-70z" />
    <glyph glyph-name="itilde" unicode="&#x129;" horiz-adv-x="280" 
d="M230 0h-180v500h180v-500zM-30 580q0 53 32.5 91.5t77.5 38.5q31 0 54 -11t33.5 -24t22 -24t20.5 -11q20 0 20 30h80q0 -53 -32.5 -91.5t-77.5 -38.5q-31 0 -54 11t-33.5 24t-22 24t-20.5 11q-20 0 -20 -30h-80z" />
    <glyph glyph-name="Imacron" unicode="&#x12a;" horiz-adv-x="340" 
d="M70 700h200v-700h-200v700zM0 760v100h340v-100h-340z" />
    <glyph glyph-name="imacron" unicode="&#x12b;" horiz-adv-x="280" 
d="M230 0h-180v500h180v-500zM-30 550v100h340v-100h-340z" />
    <glyph glyph-name="Iogonek" unicode="&#x12e;" horiz-adv-x="340" 
d="M145 0h-75v700h200v-700h-35q-41 -41 -38 -75q2 -25 32 -25q8 0 18 2.5t16 5.5l6 2v-140q-30 -20 -70 -20q-58 0 -89.5 42.5t-22.5 102.5t58 105z" />
    <glyph glyph-name="iogonek" unicode="&#x12f;" horiz-adv-x="300" 
d="M115 0h-55v500h180v-500h-35q-41 -41 -38 -75q2 -25 32 -25q8 0 18 2.5t16 5.5l6 2v-140q-30 -20 -70 -20q-58 0 -89.5 42.5t-22.5 102.5t58 105zM150 730q52 0 76 -21.5t24 -68.5t-24 -68.5t-76 -21.5t-76 21.5t-24 68.5t24 68.5t76 21.5z" />
    <glyph glyph-name="Idotaccent" unicode="&#x130;" horiz-adv-x="340" 
d="M70 700h200v-700h-200v700zM170 900q52 0 76 -19t24 -61t-24 -61t-76 -19t-76 19t-24 61t24 61t76 19z" />
    <glyph glyph-name="dotlessi" unicode="&#x131;" horiz-adv-x="280" 
d="M230 0h-180v500h180v-500z" />
    <glyph glyph-name="IJ" unicode="&#x132;" horiz-adv-x="940" 
d="M70 700h200v-700h-200v700zM360 200v50h190v-50q0 -42 14 -61t46 -19t46 19t14 61v500h200v-500q0 -116 -62 -168t-198 -52q-131 0 -190.5 52t-59.5 168z" />
    <glyph glyph-name="ij" unicode="&#x133;" horiz-adv-x="590" 
d="M230 0h-180v500h180v-500zM310 -50q22 0 36 14t14 36v500h180v-520q0 -75 -42.5 -117.5t-117.5 -42.5h-160v130h90zM140 730q52 0 76 -21.5t24 -68.5t-24 -68.5t-76 -21.5t-76 21.5t-24 68.5t24 68.5t76 21.5zM450 730q52 0 76 -21.5t24 -68.5t-24 -68.5t-76 -21.5
t-76 21.5t-24 68.5t24 68.5t76 21.5z" />
    <glyph glyph-name="Kcedilla" unicode="&#x136;" horiz-adv-x="740" 
d="M270 700v-324l210 324h240l-230 -340l250 -360h-240l-230 344v-344h-200v700h200zM360 -40q37 0 53.5 -21.5t16.5 -68.5q0 -63 -31 -91.5t-99 -28.5v60q50 0 50 40q-32 0 -46 12t-14 38q0 32 16.5 46t53.5 14z" />
    <glyph glyph-name="kcedilla" unicode="&#x137;" 
d="M230 245v-245h-180v700h180v-424l150 224h210l-170 -240l190 -260h-210zM300 -40q37 0 53.5 -21.5t16.5 -68.5q0 -63 -31 -91.5t-99 -28.5v60q50 0 50 40q-32 0 -46 12t-14 38q0 32 16.5 46t53.5 14z" />
    <glyph glyph-name="Lacute" unicode="&#x139;" horiz-adv-x="560" 
d="M550 150v-150h-480v700h200v-550h280zM100 750l90 120h170l-120 -120h-140z" />
    <glyph glyph-name="lacute" unicode="&#x13a;" horiz-adv-x="330" 
d="M250 700v-700h-180v700h180zM90 750l90 120h170l-120 -120h-140z" />
    <glyph glyph-name="Lcedilla" unicode="&#x13b;" horiz-adv-x="560" 
d="M550 150v-150h-480v700h200v-550h280zM310 -40q37 0 53.5 -21.5t16.5 -68.5q0 -63 -31 -91.5t-99 -28.5v60q50 0 50 40q-32 0 -46 12t-14 38q0 32 16.5 46t53.5 14z" />
    <glyph glyph-name="lcedilla" unicode="&#x13c;" horiz-adv-x="280" 
d="M230 700v-700h-180v700h180zM140 -40q37 0 53.5 -21.5t16.5 -68.5q0 -63 -31 -91.5t-99 -28.5v60q50 0 50 40q-32 0 -46 12t-14 38q0 32 16.5 46t53.5 14z" />
    <glyph glyph-name="Lcaron" unicode="&#x13d;" horiz-adv-x="560" 
d="M550 150v-150h-480v700h200v-550h280zM380 710q37 0 53.5 -21.5t16.5 -68.5q0 -63 -31 -91.5t-99 -28.5v60q50 0 50 40q-31 0 -45.5 12t-14.5 38q0 32 16.5 46t53.5 14z" />
    <glyph glyph-name="lcaron" unicode="&#x13e;" horiz-adv-x="380" 
d="M230 700v-700h-180v700h180zM340 710q37 0 53.5 -21.5t16.5 -68.5q0 -63 -31 -91.5t-99 -28.5v60q50 0 50 40q-32 0 -46 12t-14 38q0 32 16.5 46t53.5 14z" />
    <glyph glyph-name="Lslash" unicode="&#x141;" horiz-adv-x="570" 
d="M560 150v-150h-480v303l-90 -53v130l90 53v267h200v-150l170 100v-130l-170 -100v-270h280z" />
    <glyph glyph-name="lslash" unicode="&#x142;" horiz-adv-x="400" 
d="M290 700v-4v-162l90 53v-130l-90 -52v-407h-180v303l-90 -52v130l90 53v268h180z" />
    <glyph glyph-name="Nacute" unicode="&#x143;" horiz-adv-x="820" 
d="M560 700h190v-700h-340l-150 650v-650h-190v700h340l150 -650v650zM330 750l90 120h170l-120 -120h-140z" />
    <glyph glyph-name="nacute" unicode="&#x144;" horiz-adv-x="590" 
d="M190 500l39 -118q13 66 47.5 97t93.5 31q94 0 137 -57t43 -183v-270h-180v270q0 58 -16.5 84t-53.5 26t-53.5 -26t-16.5 -84v-270h-180v500h140zM220 550l90 150h180l-130 -150h-140z" />
    <glyph glyph-name="Ncedilla" unicode="&#x145;" horiz-adv-x="820" 
d="M560 700h190v-700h-340l-150 650v-650h-190v700h340l150 -650v650zM410 -40q37 0 53.5 -21.5t16.5 -68.5q0 -63 -31 -91.5t-99 -28.5v60q50 0 50 40q-31 0 -45.5 12t-14.5 38q0 32 16.5 46t53.5 14z" />
    <glyph glyph-name="ncedilla" unicode="&#x146;" horiz-adv-x="590" 
d="M190 500l39 -118q13 66 47.5 97t93.5 31q94 0 137 -57t43 -183v-270h-180v270q0 58 -16.5 84t-53.5 26t-53.5 -26t-16.5 -84v-270h-180v500h140zM300 -40q37 0 53.5 -21.5t16.5 -68.5q0 -63 -31 -91.5t-99 -28.5v60q50 0 50 40q-32 0 -46 12t-14 38q0 32 16.5 46t53.5 14
z" />
    <glyph glyph-name="Ncaron" unicode="&#x147;" horiz-adv-x="820" 
d="M560 700h190v-700h-340l-150 650v-650h-190v700h340l150 -650v650zM570 870l-40 -120h-260l-40 120h120l50 -110l50 110h120z" />
    <glyph glyph-name="ncaron" unicode="&#x148;" horiz-adv-x="590" 
d="M190 500l39 -118q13 66 47.5 97t93.5 31q94 0 137 -57t43 -183v-270h-180v270q0 58 -16.5 84t-53.5 26t-53.5 -26t-16.5 -84v-270h-180v500h140zM470 700l-40 -150h-260l-40 150h110l60 -140l60 140h110z" />
    <glyph glyph-name="Omacron" unicode="&#x14c;" horiz-adv-x="800" 
d="M400 720q194 0 282 -88t88 -282t-88 -282t-282 -88t-282 88t-88 282t88 282t282 88zM400 130q84 0 122 52.5t38 167.5q0 116 -38 168t-122 52t-122 -52t-38 -168q0 -115 38 -167.5t122 -52.5zM230 760v100h340v-100h-340z" />
    <glyph glyph-name="omacron" unicode="&#x14d;" horiz-adv-x="600" 
d="M300 510q147 0 213.5 -62t66.5 -198t-66.5 -198t-213.5 -62t-213.5 62t-66.5 198t66.5 198t213.5 62zM200 250q0 -68 24 -99t76 -31t76 31t24 99t-24 99t-76 31t-76 -31t-24 -99zM130 570v100h340v-100h-340z" />
    <glyph glyph-name="Obreve" unicode="&#x14e;" horiz-adv-x="800" 
d="M400 720q194 0 282 -88t88 -282t-88 -282t-282 -88t-282 88t-88 282t88 282t282 88zM400 130q84 0 122 52.5t38 167.5q0 116 -38 168t-122 52t-122 -52t-38 -168q0 -115 38 -167.5t122 -52.5zM570 870q0 -63 -40.5 -91.5t-129.5 -28.5t-129.5 28.5t-40.5 91.5h130
q0 -40 40 -40t40 40h130z" />
    <glyph glyph-name="obreve" unicode="&#x14f;" horiz-adv-x="600" 
d="M300 510q147 0 213.5 -62t66.5 -198t-66.5 -198t-213.5 -62t-213.5 62t-66.5 198t66.5 198t213.5 62zM200 250q0 -68 24 -99t76 -31t76 31t24 99t-24 99t-76 31t-76 -31t-24 -99zM350 700h120q0 -79 -40.5 -114.5t-129.5 -35.5t-129.5 35.5t-40.5 114.5h120q0 -32 12 -46
t38 -14t38 14t12 46z" />
    <glyph glyph-name="Ohungarumlaut" unicode="&#x150;" horiz-adv-x="800" 
d="M400 720q194 0 282 -88t88 -282t-88 -282t-282 -88t-282 88t-88 282t88 282t282 88zM400 130q84 0 122 52.5t38 167.5q0 116 -38 168t-122 52t-122 -52t-38 -168q0 -115 38 -167.5t122 -52.5zM220 750l80 150h170l-120 -150h-130zM450 750l80 150h170l-120 -150h-130z
" />
    <glyph glyph-name="ohungarumlaut" unicode="&#x151;" horiz-adv-x="620" 
d="M300 510q147 0 213.5 -62t66.5 -198t-66.5 -198t-213.5 -62t-213.5 62t-66.5 198t66.5 198t213.5 62zM200 250q0 -68 24 -99t76 -31t76 31t24 99t-24 99t-76 31t-76 -31t-24 -99zM120 550l80 150h170l-120 -150h-130zM350 550l80 150h170l-120 -150h-130z" />
    <glyph glyph-name="OE" unicode="&#x152;" horiz-adv-x="1080" 
d="M1060 560h-300v-130h260v-140h-260v-150h300v-140h-480v207q-19 -117 -77.5 -172t-163.5 -55q-163 0 -236.5 88t-73.5 282t73.5 282t236.5 88q105 0 163.5 -55t77.5 -172v207h480v-140zM400 130q84 0 122 52.5t38 167.5q0 116 -38 168t-122 52t-122 -52t-38 -168
q0 -115 38 -167.5t122 -52.5z" />
    <glyph glyph-name="oe" unicode="&#x153;" horiz-adv-x="939" 
d="M558 200q12 -101 91 -101q29 0 51.5 17t28.5 44h170q-16 -89 -70.5 -129.5t-159.5 -40.5q-88 0 -135 43.5t-60 136.5q-13 -93 -65 -136.5t-149 -43.5q-126 0 -183 62t-57 198t57 198t183 62q97 0 149 -43.5t65 -136.5q13 93 60 136.5t135 43.5q131 0 190.5 -62t59.5 -198
v-50h-361zM199 250q0 -68 23.5 -99t76.5 -31t76.5 31t23.5 99t-23.5 99t-76.5 31t-76.5 -31t-23.5 -99zM648 399q-79 0 -91 -100h181q0 45 -25 72.5t-65 27.5z" />
    <glyph glyph-name="Racute" unicode="&#x154;" horiz-adv-x="720" 
d="M375 249v1h-105v-250h-200v700h330q141 0 210.5 -65.5t69.5 -164.5q0 -173 -176 -211h66l130 -260h-210zM270 380h120q43 0 66.5 25.5t23.5 64.5t-23.5 64.5t-66.5 25.5h-120v-180zM260 750l90 120h170l-120 -120h-140z" />
    <glyph glyph-name="racute" unicode="&#x155;" horiz-adv-x="430" 
d="M230 250v-250h-180v500h140l40 -119q13 67 42 98t78 31h60v-150h-80q-59 0 -79.5 -22t-20.5 -88zM150 550l90 150h180l-130 -150h-140z" />
    <glyph glyph-name="Rcedilla" unicode="&#x156;" horiz-adv-x="720" 
d="M375 249v1h-105v-250h-200v700h330q141 0 210.5 -65.5t69.5 -164.5q0 -173 -176 -211h66l130 -260h-210zM270 380h120q43 0 66.5 25.5t23.5 64.5t-23.5 64.5t-66.5 25.5h-120v-180zM370 -40q37 0 53.5 -21.5t16.5 -68.5q0 -63 -31 -91.5t-99 -28.5v60q50 0 50 40
q-32 0 -46 12t-14 38q0 32 16.5 46t53.5 14z" />
    <glyph glyph-name="rcedilla" unicode="&#x157;" horiz-adv-x="420" 
d="M230 250v-250h-180v500h140l40 -119q13 67 42 98t78 31h60v-150h-80q-59 0 -79.5 -22t-20.5 -88zM140 -40q37 0 53.5 -21.5t16.5 -68.5q0 -63 -31 -91.5t-99 -28.5v60q50 0 50 40q-32 0 -46 12t-14 38q0 32 16.5 46t53.5 14z" />
    <glyph glyph-name="Rcaron" unicode="&#x158;" horiz-adv-x="720" 
d="M343 250h-73v-250h-200v700h330q141 0 210.5 -65.5t69.5 -164.5q0 -157 -146 -202l166 -268h-210zM270 380h130q80 0 80 90t-80 90h-130v-180zM500 870l-40 -120h-260l-40 120h120l50 -110l50 110h120z" />
    <glyph glyph-name="rcaron" unicode="&#x159;" horiz-adv-x="420" 
d="M230 250v-250h-180v500h140l40 -119q13 67 42 98t78 31h60v-150h-80q-59 0 -79.5 -22t-20.5 -88zM400 700l-40 -150h-260l-40 150h110l60 -140l60 140h110z" />
    <glyph glyph-name="Sacute" unicode="&#x15a;" horiz-adv-x="660" 
d="M230 520q0 -25 29.5 -42.5t74 -26.5t96.5 -26t96.5 -39t74 -67.5t29.5 -108.5q0 -121 -71 -175.5t-229 -54.5t-229 52t-71 168h180q0 -47 28.5 -68.5t91.5 -21.5q58 0 84 16.5t26 53.5q0 38 -41 61t-100 37.5t-118 34t-100 64t-41 113.5q0 121 69 175.5t221 54.5t221 -52
t69 -168h-180q0 47 -26 68.5t-84 21.5q-52 0 -76 -16.5t-24 -53.5zM250 750l90 120h170l-120 -120h-140z" />
    <glyph glyph-name="sacute" unicode="&#x15b;" horiz-adv-x="510" 
d="M250 409q-60 0 -60 -41q0 -16 16.5 -26t43 -15.5t58.5 -11t64 -15.5t58.5 -25.5t43 -45t16.5 -70.5q0 -89 -58.5 -129.5t-187.5 -40.5q-118 0 -171 38t-53 122h170q0 -31 14 -45.5t46 -14.5t46 12t14 38q0 21 -21.5 33t-53.5 16.5t-70 14t-70 23t-53.5 45t-21.5 78.5
q0 84 54.5 122t175.5 38q116 0 168 -35.5t52 -114.5h-160q0 26 -14 38t-46 12zM170 549l90 150h180l-130 -150h-140z" />
    <glyph glyph-name="Scircumflex" unicode="&#x15c;" horiz-adv-x="660" 
d="M230 520q0 -25 29.5 -42.5t74 -26.5t96.5 -26t96.5 -39t74 -67.5t29.5 -108.5q0 -121 -71 -175.5t-229 -54.5t-229 52t-71 168h180q0 -47 28.5 -68.5t91.5 -21.5q58 0 84 16.5t26 53.5q0 38 -41 61t-100 37.5t-118 34t-100 64t-41 113.5q0 121 69 175.5t221 54.5t221 -52
t69 -168h-180q0 47 -26 68.5t-84 21.5q-52 0 -76 -16.5t-24 -53.5zM500 750h-120l-50 110l-50 -110h-120l40 120h260z" />
    <glyph glyph-name="scircumflex" unicode="&#x15d;" horiz-adv-x="510" 
d="M250 409q-60 0 -60 -41q0 -16 16.5 -26t43 -15.5t58.5 -11t64 -15.5t58.5 -25.5t43 -45t16.5 -70.5q0 -89 -58.5 -129.5t-187.5 -40.5q-118 0 -171 38t-53 122h170q0 -31 14 -45.5t46 -14.5t46 12t14 38q0 21 -21.5 33t-53.5 16.5t-70 14t-70 23t-53.5 45t-21.5 78.5
q0 84 54.5 122t175.5 38q116 0 168 -35.5t52 -114.5h-160q0 26 -14 38t-46 12zM420 549h-110l-60 140l-60 -140h-110l40 150h260z" />
    <glyph glyph-name="Scedilla" unicode="&#x15e;" horiz-adv-x="660" 
d="M274 -18h-1q-127 8 -185.5 60.5t-58.5 157.5h180q0 -47 28.5 -68.5t91.5 -21.5q58 0 84 16.5t26 53.5q0 38 -41 61t-100 37.5t-118 34t-100 64t-41 113.5q0 121 69 175.5t221 54.5t221 -52t69 -168h-180q0 47 -26 68.5t-84 21.5q-53 0 -76.5 -16.5t-23.5 -53.5
q0 -25 29.5 -42.5t74 -26.5t96.5 -26t96.5 -39t74 -67.5t29.5 -108.5q0 -113 -62.5 -168t-199.5 -61l-7 -31l10 -2.5t21.5 -9t27.5 -16.5t21.5 -25.5t9.5 -36.5q0 -52 -56 -81t-154 -29v70q80 0 80 40q0 30 -70 30z" />
    <glyph glyph-name="scedilla" unicode="&#x15f;" horiz-adv-x="510" 
d="M196 -8q-91 7 -133.5 45t-42.5 113h170q0 -32 14 -46t46 -14t46 12t14 38q0 21 -21.5 33t-53.5 16.5t-70 14t-70 23t-53.5 45t-21.5 78.5q0 84 54.5 122t175.5 38q116 0 168 -35.5t52 -114.5h-160q0 26 -14 38t-46 12q-60 0 -60 -40q0 -16 16.5 -26t43 -15.5t58.5 -11
t64 -15.5t58.5 -25.5t43 -45t16.5 -70.5q0 -81 -48 -121.5t-153 -47.5l-10 -41l10 -2.5t21.5 -9t27.5 -16.5t21.5 -25.5t9.5 -36.5q0 -52 -56 -81t-154 -29v70q80 0 80 40q0 30 -70 30z" />
    <glyph glyph-name="Scaron" unicode="&#x160;" horiz-adv-x="660" 
d="M230 520q0 -25 29.5 -42.5t74 -26.5t96.5 -26t96.5 -39t74 -67.5t29.5 -108.5q0 -121 -71 -175.5t-229 -54.5t-229 52t-71 168h180q0 -47 28.5 -68.5t91.5 -21.5q58 0 84 16.5t26 53.5q0 38 -41 61t-100 37.5t-118 34t-100 64t-41 113.5q0 121 69 175.5t221 54.5t221 -52
t69 -168h-180q0 47 -26 68.5t-84 21.5q-52 0 -76 -16.5t-24 -53.5zM490 870l-40 -120h-260l-40 120h120l50 -110l50 110h120z" />
    <glyph glyph-name="scaron" unicode="&#x161;" horiz-adv-x="510" 
d="M250 409q-60 0 -60 -41q0 -16 16.5 -26t43 -15.5t58.5 -11t64 -15.5t58.5 -25.5t43 -45t16.5 -70.5q0 -89 -58.5 -129.5t-187.5 -40.5q-118 0 -171 38t-53 122h170q0 -31 14 -45.5t46 -14.5t46 12t14 38q0 21 -21.5 33t-53.5 16.5t-70 14t-70 23t-53.5 45t-21.5 78.5
q0 84 54.5 122t175.5 38q116 0 168 -35.5t52 -114.5h-160q0 26 -14 38t-46 12zM420 699l-40 -150h-260l-40 150h110l60 -140l60 140h110z" />
    <glyph glyph-name="Tcedilla" unicode="&#x162;" horiz-adv-x="620" 
d="M259 0h-49v550h-200v150h600v-150h-200v-550h-58l-12 -50l10 -2.5t21.5 -9t27.5 -16.5t21.5 -25.5t9.5 -36.5q0 -52 -56 -81t-154 -29v70q80 0 80 40q0 30 -70 30z" />
    <glyph glyph-name="tcedilla" unicode="&#x163;" horiz-adv-x="450" 
d="M211 6q-53 13 -82 53t-29 101v230h-80v110h80v130h180v-130h140v-110h-140v-210q0 -22 14 -36t36 -14h90v-130h-118l-12 -50l10 -2.5t21.5 -9t27.5 -16.5t21.5 -25.5t9.5 -36.5q0 -52 -56 -81t-154 -29v70q80 0 80 40q0 30 -70 30z" />
    <glyph glyph-name="Tcaron" unicode="&#x164;" horiz-adv-x="620" 
d="M610 700v-150h-200v-550h-200v550h-200v150h600zM470 870l-40 -120h-260l-40 120h120l50 -110l50 110h120z" />
    <glyph glyph-name="tcaron" unicode="&#x165;" horiz-adv-x="470" 
d="M280 180q0 -22 14 -36t36 -14h90v-130h-160q-75 0 -117.5 42.5t-42.5 117.5v230h-80v110h80v130h180v-130h140v-110h-140v-210zM380 730q37 0 53.5 -21.5t16.5 -68.5q0 -63 -31 -91.5t-99 -28.5v60q50 0 50 40q-31 0 -45.5 12t-14.5 38q0 32 16.5 46t53.5 14z" />
    <glyph glyph-name="Utilde" unicode="&#x168;" horiz-adv-x="740" 
d="M60 260v440h200v-440q0 -68 26 -99t84 -31t84 31t26 99v440h200v-440q0 -147 -73.5 -213.5t-236.5 -66.5t-236.5 66.5t-73.5 213.5zM200 760q0 51 31.5 80.5t78.5 29.5q51 0 88.5 -20t51.5 -20q8 0 14 6t6 14h70q0 -51 -31.5 -80.5t-78.5 -29.5q-51 0 -88.5 20t-51.5 20
q-8 0 -14 -6t-6 -14h-70z" />
    <glyph glyph-name="utilde" unicode="&#x169;" horiz-adv-x="590" 
d="M400 0l-39 118q-13 -66 -47.5 -97t-93.5 -31q-95 0 -137.5 57t-42.5 183v270h180v-270q0 -58 16.5 -84t53.5 -26t53.5 26t16.5 84v270h180v-500h-140zM100 600q0 53 32.5 91.5t77.5 38.5q31 0 54 -11t33.5 -24t22 -24t20.5 -11q20 0 20 30h80q0 -53 -32.5 -91.5
t-77.5 -38.5q-31 0 -54 11t-33.5 24t-22 24t-20.5 11q-20 0 -20 -30h-80z" />
    <glyph glyph-name="Umacron" unicode="&#x16a;" horiz-adv-x="740" 
d="M60 260v440h200v-440q0 -68 26 -99t84 -31t84 31t26 99v440h200v-440q0 -147 -73.5 -213.5t-236.5 -66.5t-236.5 66.5t-73.5 213.5zM200 760v100h340v-100h-340z" />
    <glyph glyph-name="umacron" unicode="&#x16b;" horiz-adv-x="590" 
d="M400 0l-39 118q-13 -66 -47.5 -97t-93.5 -31q-95 0 -137.5 57t-42.5 183v270h180v-270q0 -58 16.5 -84t53.5 -26t53.5 26t16.5 84v270h180v-500h-140zM120 570v100h340v-100h-340z" />
    <glyph glyph-name="Ubreve" unicode="&#x16c;" horiz-adv-x="740" 
d="M60 260v440h200v-440q0 -68 26 -99t84 -31t84 31t26 99v440h200v-440q0 -147 -73.5 -213.5t-236.5 -66.5t-236.5 66.5t-73.5 213.5zM540 870q0 -63 -40.5 -91.5t-129.5 -28.5t-129.5 28.5t-40.5 91.5h130q0 -40 40 -40t40 40h130z" />
    <glyph glyph-name="ubreve" unicode="&#x16d;" horiz-adv-x="590" 
d="M400 0l-39 118q-13 -66 -47.5 -97t-93.5 -31q-95 0 -137.5 57t-42.5 183v270h180v-270q0 -58 16.5 -84t53.5 -26t53.5 26t16.5 84v270h180v-500h-140zM310 700h120q0 -79 -40.5 -114.5t-129.5 -35.5t-129.5 35.5t-40.5 114.5h120q0 -32 12 -46t38 -14t38 14t12 46z" />
    <glyph glyph-name="Uring" unicode="&#x16e;" horiz-adv-x="740" 
d="M60 260v440h200v-440q0 -68 26 -99t84 -31t84 31t26 99v440h200v-440q0 -147 -73.5 -213.5t-236.5 -66.5t-236.5 66.5t-73.5 213.5zM370 910q68 0 99 -26t31 -84t-31 -84t-99 -26t-99 26t-31 84t31 84t99 26zM370 760q40 0 40 40t-40 40t-40 -40t40 -40z" />
    <glyph glyph-name="uring" unicode="&#x16f;" horiz-adv-x="590" 
d="M400 0l-39 118q-13 -66 -47.5 -97t-93.5 -31q-95 0 -137.5 57t-42.5 183v270h180v-270q0 -58 16.5 -84t53.5 -26t53.5 26t16.5 84v270h180v-500h-140zM290 750q68 0 99 -26t31 -84t-31 -84t-99 -26t-99 26t-31 84t31 84t99 26zM290 600q40 0 40 40t-40 40t-40 -40t40 -40
z" />
    <glyph glyph-name="Uhungarumlaut" unicode="&#x170;" horiz-adv-x="740" 
d="M60 260v440h200v-440q0 -68 26 -99t84 -31t84 31t26 99v440h200v-440q0 -147 -73.5 -213.5t-236.5 -66.5t-236.5 66.5t-73.5 213.5zM190 750l80 150h170l-120 -150h-130zM420 750l80 150h170l-120 -150h-130z" />
    <glyph glyph-name="uhungarumlaut" unicode="&#x171;" horiz-adv-x="620" 
d="M400 0l-39 118q-13 -66 -47.5 -97t-93.5 -31q-95 0 -137.5 57t-42.5 183v270h180v-270q0 -58 16.5 -84t53.5 -26t53.5 26t16.5 84v270h180v-500h-140zM90 550l80 150h170l-120 -150h-130zM320 550l80 150h170l-120 -150h-130z" />
    <glyph glyph-name="Uogonek" unicode="&#x172;" horiz-adv-x="740" 
d="M407 -19q-12 -1 -37 -1q-163 0 -236.5 66.5t-73.5 213.5v440h200v-440q0 -68 26 -99t84 -31t84 31t26 99v440h200v-440q0 -110 -40.5 -174t-127.5 -89q-20 -21 -29.5 -43.5t-3.5 -38t30 -15.5q8 0 18 2.5t16 5.5l6 2v-140q-30 -20 -70 -20q-55 0 -86 37.5t-27.5 92.5
t41.5 101z" />
    <glyph glyph-name="uogonek" unicode="&#x173;" horiz-adv-x="590" 
d="M540 0h-80q-41 -41 -38 -75q2 -25 32 -25q8 0 18 2.5t16 5.5l6 2v-140q-30 -20 -70 -20q-47 0 -77 30t-36 71t15 89t68 80l-33 98q-13 -66 -47.5 -97t-93.5 -31q-95 0 -137.5 57t-42.5 183v270h180v-270q0 -58 16.5 -84t53.5 -26t53.5 26t16.5 84v270h180v-500z" />
    <glyph glyph-name="Wcircumflex" unicode="&#x174;" horiz-adv-x="1000" 
d="M330 700h340l47 -643l83 643h200l-120 -700h-330l-55 626l-45 -626h-330l-120 700h200l84 -641zM665 750h-120l-50 110l-50 -110h-120l40 120h260z" />
    <glyph glyph-name="wcircumflex" unicode="&#x175;" horiz-adv-x="870" 
d="M111 0h-1l-90 500h180l55 -445l45 445h290l45 -445l55 445h180l-90 -500h-280l-55 445l-45 -445h-289zM605 550h-110l-60 140l-60 -140h-110l40 150h260z" />
    <glyph glyph-name="Ycircumflex" unicode="&#x176;" horiz-adv-x="680" 
d="M530 300h-90v-300h-190v300h-90l-160 400h220l125 -385l125 385h210zM520 750h-120l-50 110l-50 -110h-120l40 120h260z" />
    <glyph glyph-name="ycircumflex" unicode="&#x177;" horiz-adv-x="520" 
d="M269 56l71 444h180l-100 -490q-20 -100 -63 -145t-117 -45h-160v110h110q32 0 48.5 16.5t21.5 53.5h-140l-120 500h180zM440 550h-110l-60 140l-60 -140h-110l40 150h260z" />
    <glyph glyph-name="Ydieresis" unicode="&#x178;" horiz-adv-x="680" 
d="M530 300h-90v-300h-190v300h-90l-160 400h220l125 -385l125 385h210zM220 890q52 0 76 -19t24 -61t-24 -61t-76 -19t-76 19t-24 61t24 61t76 19zM480 890q52 0 76 -19t24 -61t-24 -61t-76 -19t-76 19t-24 61t24 61t76 19z" />
    <glyph glyph-name="Zacute" unicode="&#x179;" horiz-adv-x="580" 
d="M110 140h470v-140h-580v280l460 280h-450v140h560v-280zM200 750l90 120h170l-120 -120h-140z" />
    <glyph glyph-name="zacute" unicode="&#x17a;" horiz-adv-x="500" 
d="M130 120h350v-120h-460v240l340 140h-330v120h440v-240zM170 550l90 150h180l-130 -150h-140z" />
    <glyph glyph-name="Zdotaccent" unicode="&#x17b;" horiz-adv-x="580" 
d="M110 140h470v-140h-580v280l460 280h-450v140h560v-280zM290 900q52 0 76 -19t24 -61t-24 -61t-76 -19t-76 19t-24 61t24 61t76 19z" />
    <glyph glyph-name="zdotaccent" unicode="&#x17c;" horiz-adv-x="500" 
d="M130 120h350v-120h-460v240l340 140h-330v120h440v-240zM250 720l-1 1q53 0 76.5 -21.5t23.5 -68.5t-23.5 -68.5t-76.5 -21.5q-52 0 -75.5 21t-23.5 68t24 68.5t76 21.5z" />
    <glyph glyph-name="Zcaron" unicode="&#x17d;" horiz-adv-x="580" 
d="M110 140h470v-140h-580v280l460 280h-450v140h560v-280zM450 870l-40 -120h-260l-40 120h120l50 -110l50 110h120z" />
    <glyph glyph-name="zcaron" unicode="&#x17e;" horiz-adv-x="500" 
d="M130 120h350v-120h-460v240l340 140h-330v120h440v-240zM420 700l-40 -150h-260l-40 150h110l60 -140l60 140h110z" />
    <glyph glyph-name="Aacutering" unicode="&#x1fa;" horiz-adv-x="700" 
d="M490 0l-28 130h-232l-30 -130h-200l170 700h380l150 -700h-210zM350 645l-89 -385h173zM336 910v-1l34 51h110l-60 -60q60 -21 60 -80q0 -47 -31 -68.5t-99 -21.5t-99 21.5t-31 68.5q0 45 27.5 66.5t88.5 23.5zM349 789q50 0 50 30t-50 30t-50 -30t50 -30z" />
    <glyph glyph-name="aacutering" unicode="&#x1fb;" horiz-adv-x="560" 
d="M20 150q0 89 59.5 129.5t190.5 40.5h70v20q0 37 -15.5 53.5t-50.5 16.5q-34 0 -49 -14t-15 -46h-170q0 84 57 122t183 38t183 -45t57 -145v-320h-140l-40 100q-26 -110 -140 -110q-94 0 -137 38t-43 122zM290 220q-48 0 -69 -13t-21 -47q0 -28 14 -39t46 -11
q42 0 61 21.5t19 68.5v20h-50zM470 780l-94 -80q33 -27 33 -70q0 -52 -31 -76t-99 -24t-99 24t-31 76t31 76t99 24h15l46 50h130zM280 600q40 0 40 30t-40 30t-40 -30t40 -30z" />
    <glyph glyph-name="AEacute" unicode="&#x1fc;" horiz-adv-x="950" 
d="M930 560h-290v-130h250v-140h-250v-150h290v-140h-470v130h-207l-53 -130h-200l280 700h650v-140zM460 641l-154 -381h154v381zM470 750l90 120h170l-120 -120h-140z" />
    <glyph glyph-name="aeacute" unicode="&#x1fd;" horiz-adv-x="900" 
d="M519 200v-1q6 -52 28.5 -76t63.5 -24q66 0 80 60h170q-16 -89 -68 -129.5t-152 -40.5q-89 0 -138 40t-65 126q-11 -85 -67 -125t-160 -40q-100 0 -145 38t-45 122q0 89 59.5 129.5t190.5 40.5h70v20q0 32 -16.5 46t-53.5 14q-31 0 -45.5 -12t-14.5 -38h-170
q0 84 52.5 122t167.5 38q86 0 128.5 -37t49.5 -119q16 81 65 118.5t136 37.5q126 0 183 -62t57 -198v-50h-361zM340 201v19h-50q-47 0 -68.5 -14t-21.5 -46q0 -26 14 -38t46 -12q42 0 61 22t19 69zM610 399q-40 0 -61.5 -24t-28.5 -76h180q0 53 -21.5 76.5t-68.5 23.5z
M371 549l90 150h180l-130 -150h-140z" />
    <glyph glyph-name="Oslashacute" unicode="&#x1fe;" horiz-adv-x="800" 
d="M610 780l-30 -86q98 -34 144 -118t46 -226q0 -194 -88 -282t-282 -88q-36 0 -68 3l-22 -63h-120l30 86q-98 34 -144 118t-46 226q0 194 88 282t282 88q36 0 68 -3l22 63h120zM239 350q0 -115 38 -167.5t122 -52.5t122 52.5t38 167.5q0 116 -38 168t-122 52t-122 -52
t-38 -168zM289 750l90 120h170l-120 -120h-140z" />
    <glyph glyph-name="oslashacute" unicode="&#x1ff;" horiz-adv-x="600" 
d="M580 250v-1q0 -136 -66.5 -198t-213.5 -62q-17 0 -49 2l-21 -61h-80l26 74q-80 22 -117.5 82t-37.5 163q0 137 66.5 198.5t213.5 61.5q18 0 48 -2l21 62h80l-26 -74q81 -22 118.5 -82t37.5 -163zM400 249h-1q0 68 -23.5 99t-76.5 31t-76.5 -31t-23.5 -99t23 -99t74 -31
q104 0 104 130zM179 550l90 150h180l-130 -150h-140z" />
    <glyph glyph-name="Scommaaccent" unicode="&#x218;" horiz-adv-x="660" 
d="M230 520q0 -25 29.5 -42.5t74 -26.5t96.5 -26t96.5 -39t74 -67.5t29.5 -108.5q0 -121 -71 -175.5t-229 -54.5t-229 52t-71 168h180q0 -47 28.5 -68.5t91.5 -21.5q58 0 84 16.5t26 53.5q0 38 -41 61t-100 37.5t-118 34t-100 64t-41 113.5q0 121 69 175.5t221 54.5t221 -52
t69 -168h-180q0 47 -26 68.5t-84 21.5q-52 0 -76 -16.5t-24 -53.5zM330 -40q37 0 53.5 -21.5t16.5 -68.5q0 -63 -31 -91.5t-99 -28.5v60q50 0 50 40q-32 0 -46 12t-14 38q0 32 16.5 46t53.5 14z" />
    <glyph glyph-name="scommaaccent" unicode="&#x219;" horiz-adv-x="510" 
d="M250 410q-60 0 -60 -41q0 -16 16.5 -26t43 -15.5t58.5 -11t64 -15.5t58.5 -25.5t43 -45t16.5 -70.5q0 -89 -58.5 -129.5t-187.5 -40.5q-118 0 -171 38t-53 122h170q0 -32 14 -46t46 -14t46 12t14 38q0 21 -21.5 33t-53.5 16.5t-70 14t-70 23t-53.5 45t-21.5 78.5
q0 84 54.5 122t175.5 38q116 0 168 -35.5t52 -114.5h-160q0 26 -14 38t-46 12zM250 -40q37 0 53.5 -21.5t16.5 -68.5q0 -63 -31 -91.5t-99 -28.5v60q50 0 50 40q-32 0 -46 12t-14 38q0 32 16.5 46t53.5 14z" />
    <glyph glyph-name="uni021A" unicode="&#x21a;" horiz-adv-x="620" 
d="M610 700v-150h-200v-550h-200v550h-200v150h600zM310 -40q37 0 53.5 -21.5t16.5 -68.5q0 -63 -31 -91.5t-99 -28.5v60q50 0 50 40q-32 0 -46 12t-14 38q0 32 16.5 46t53.5 14z" />
    <glyph glyph-name="uni021B" unicode="&#x21b;" horiz-adv-x="450" 
d="M280 180q0 -22 14 -36t36 -14h90v-130h-160q-75 0 -117.5 42.5t-42.5 117.5v230h-80v110h80v130h180v-130h140v-110h-140v-210zM240 -40q37 0 53.5 -21.5t16.5 -68.5q0 -63 -31 -91.5t-99 -28.5v60q50 0 50 40q-32 0 -46 12t-14 38q0 32 16.5 46t53.5 14z" />
    <glyph glyph-name="circumflex" unicode="&#x2c6;" horiz-adv-x="380" 
d="M360 550h-110l-60 140l-60 -140h-110l40 150h260z" />
    <glyph glyph-name="caron" unicode="&#x2c7;" horiz-adv-x="380" 
d="M360 700l-40 -150h-260l-40 150h110l60 -140l60 140h110z" />
    <glyph glyph-name="breve" unicode="&#x2d8;" horiz-adv-x="380" 
d="M240 700h120q0 -79 -40.5 -114.5t-129.5 -35.5t-129.5 35.5t-40.5 114.5h120q0 -32 12 -46t38 -14t38 14t12 46z" />
    <glyph glyph-name="dotaccent" unicode="&#x2d9;" horiz-adv-x="240" 
d="M120 730l-1 1q53 0 76.5 -21.5t23.5 -68.5t-23.5 -68.5t-76.5 -21.5q-52 0 -75.5 21t-23.5 68t24 68.5t76 21.5z" />
    <glyph glyph-name="ring" unicode="&#x2da;" horiz-adv-x="300" 
d="M150 730q68 0 99 -26t31 -84t-31 -84t-99 -26t-99 26t-31 84t31 84t99 26zM150 580q40 0 40 40t-40 40t-40 -40t40 -40z" />
    <glyph glyph-name="ogonek" unicode="&#x2db;" horiz-adv-x="224" 
d="M194 20h1q-47 -31 -61 -75q-4 -40 30 -45q8 0 18 2.5t16 5.5l6 2v-140q-30 -20 -70 -20q-47 0 -77 30t-36 71t15 89t68 80h90z" />
    <glyph glyph-name="tilde" unicode="&#x2dc;" horiz-adv-x="380" 
d="M20 600q0 53 32.5 91.5t77.5 38.5q31 0 54 -11t33.5 -24t22 -24t20.5 -11q20 0 20 30h80q0 -53 -32.5 -91.5t-77.5 -38.5q-31 0 -54 11t-33.5 24t-22 24t-20.5 11q-20 0 -20 -30h-80z" />
    <glyph glyph-name="hungarumlaut" unicode="&#x2dd;" horiz-adv-x="520" 
d="M20 550l80 150h170l-120 -150h-130zM250 550l80 150h170l-120 -150h-130z" />
    <glyph glyph-name="Wgrave" unicode="&#x1e80;" horiz-adv-x="1000" 
d="M330 700h340l47 -643l83 643h200l-120 -700h-330l-55 626l-45 -626h-330l-120 700h200l84 -641zM565 750h-130l-130 120h160z" />
    <glyph glyph-name="wgrave" unicode="&#x1e81;" horiz-adv-x="870" 
d="M111 0h-1l-90 500h180l55 -445l45 445h290l45 -445l55 445h180l-90 -500h-280l-55 445l-45 -445h-289zM425 700l90 -150h-140l-130 150h180z" />
    <glyph glyph-name="Wacute" unicode="&#x1e82;" horiz-adv-x="1000" 
d="M330 700h340l47 -643l83 643h200l-120 -700h-330l-55 626l-45 -626h-330l-120 700h200l84 -641zM415 750l90 120h170l-120 -120h-140z" />
    <glyph glyph-name="wacute" unicode="&#x1e83;" horiz-adv-x="870" 
d="M111 0h-1l-90 500h180l55 -445l45 445h290l45 -445l55 445h180l-90 -500h-280l-55 445l-45 -445h-289zM345 550l90 150h180l-130 -150h-140z" />
    <glyph glyph-name="Wdieresis" unicode="&#x1e84;" horiz-adv-x="1000" 
d="M330 700h340l47 -643l83 643h200l-120 -700h-330l-55 626l-45 -626h-330l-120 700h200l84 -641zM365 890q53 0 76.5 -19t23.5 -61t-23.5 -61t-76.5 -19t-76.5 19t-23.5 61t23.5 61t76.5 19zM625 890q53 0 76.5 -19t23.5 -61t-23.5 -61t-76.5 -19t-76.5 19t-23.5 61
t23.5 61t76.5 19z" />
    <glyph glyph-name="wdieresis" unicode="&#x1e85;" horiz-adv-x="870" 
d="M101 0h-1l-90 500h180l55 -445l45 445h290l45 -445l55 445h180l-90 -500h-280l-55 445l-45 -445h-289zM305 750q52 0 76 -23t24 -73t-24 -72.5t-76 -22.5q-53 0 -76.5 22.5t-23.5 72.5t24 73t76 23zM545 750q52 0 76 -23t24 -73t-24 -72.5t-76 -22.5q-53 0 -76.5 22.5
t-23.5 72.5t24 73t76 23z" />
    <glyph glyph-name="uni1E9E" unicode="&#x1e9e;" horiz-adv-x="680" 
d="M340 720q147 0 213.5 -45.5t66.5 -145.5q0 -73 -47.5 -108.5t-152.5 -40.5q121 -7 175.5 -47.5t54.5 -122.5q0 -110 -52 -160t-168 -50q-27 0 -54.5 5t-41.5 10l-14 5v120q30 -10 60 -10q47 0 68.5 19t21.5 61q0 100 -130 100v140q110 0 110 70q0 37 -24 53.5t-76 16.5
q-110 0 -110 -100v-490h-180v470q0 250 280 250z" />
    <glyph glyph-name="Ygrave" unicode="&#x1ef2;" horiz-adv-x="680" 
d="M530 300h-90v-300h-190v300h-90l-160 400h220l125 -385l125 385h210zM420 750h-130l-130 120h160z" />
    <glyph glyph-name="ygrave" unicode="&#x1ef3;" horiz-adv-x="520" 
d="M269 56l71 444h180l-100 -490q-20 -100 -63 -145t-117 -45h-160v110h110q32 0 48.5 16.5t21.5 53.5h-140l-120 500h180zM260 700l90 -150h-140l-130 150h180z" />
    <glyph glyph-name="endash" unicode="&#x2013;" horiz-adv-x="560" 
d="M540 330v-130h-520v130h520z" />
    <glyph glyph-name="emdash" unicode="&#x2014;" horiz-adv-x="780" 
d="M760 330v-130h-740v130h740z" />
    <glyph glyph-name="quoteleft" unicode="&#x2018;" horiz-adv-x="300" 
d="M171 330q-58 0 -84 35.5t-26 114.5q0 116 45 168t145 52v-80q-42 0 -61 -24t-19 -76q47 0 68.5 -22.5t21.5 -71.5q0 -50 -21.5 -73t-68.5 -23z" />
    <glyph glyph-name="quoteright" unicode="&#x2019;" horiz-adv-x="300" 
d="M140 710q58 0 84 -35.5t26 -114.5q0 -116 -45 -168t-145 -52v80q42 0 61 24t19 76q-47 0 -68.5 22.5t-21.5 71.5q0 50 21.5 73t68.5 23z" />
    <glyph glyph-name="quotesinglbase" unicode="&#x201a;" horiz-adv-x="240" 
d="M110 180q58 0 84 -35.5t26 -114.5q0 -116 -45 -168t-145 -52v80q42 0 61 24t19 76q-47 0 -68.5 22.5t-21.5 71.5q0 50 21.5 73t68.5 23z" />
    <glyph glyph-name="quotedblleft" unicode="&#x201c;" horiz-adv-x="560" 
d="M171 330q-58 0 -84 35.5t-26 114.5q0 116 45 168t145 52v-80q-42 0 -61 -24t-19 -76q47 0 68.5 -22.5t21.5 -71.5q0 -50 -21.5 -73t-68.5 -23zM431 330q-58 0 -84 35.5t-26 114.5q0 116 45 168t145 52v-80q-42 0 -61 -24t-19 -76q47 0 68.5 -22.5t21.5 -71.5
q0 -50 -21.5 -73t-68.5 -23z" />
    <glyph glyph-name="quotedblright" unicode="&#x201d;" horiz-adv-x="560" 
d="M140 710q58 0 84 -35.5t26 -114.5q0 -116 -45 -168t-145 -52v80q42 0 61 24t19 76q-47 0 -68.5 22.5t-21.5 71.5q0 50 21.5 73t68.5 23zM400 710q58 0 84 -35.5t26 -114.5q0 -116 -45 -168t-145 -52v80q42 0 61 24t19 76q-47 0 -68.5 22.5t-21.5 71.5q0 50 21.5 73
t68.5 23z" />
    <glyph glyph-name="quotedblbase" unicode="&#x201e;" horiz-adv-x="560" 
d="M140 180q58 0 84 -35.5t26 -114.5q0 -116 -45 -168t-145 -52v80q42 0 61 24t19 76q-47 0 -68.5 22.5t-21.5 71.5q0 50 21.5 73t68.5 23zM400 180q58 0 84 -35.5t26 -114.5q0 -116 -45 -168t-145 -52v80q42 0 61 24t19 76q-47 0 -68.5 22.5t-21.5 71.5q0 50 21.5 73
t68.5 23z" />
    <glyph glyph-name="ellipsis" unicode="&#x2026;" horiz-adv-x="860" 
d="M120 180q52 0 76 -23t24 -73t-24 -72.5t-76 -22.5q-53 0 -76.5 22.5t-23.5 72.5t24 73t76 23zM430 180q52 0 76 -23t24 -73t-24 -72.5t-76 -22.5q-53 0 -76.5 22.5t-23.5 72.5t24 73t76 23zM740 180q52 0 76 -23t24 -73t-24 -72.5t-76 -22.5q-53 0 -76.5 22.5t-23.5 72.5
t24 73t76 23z" />
    <glyph glyph-name="perthousand" unicode="&#x2030;" horiz-adv-x="1330" 
d="M710 390q95 0 137.5 -47t42.5 -152t-43 -152.5t-137 -47.5t-137 47.5t-43 152.5t42.5 152t137.5 47zM710 90q26 0 38 24t12 76t-12 76t-38 24t-38 -24t-12 -76t12 -76t38 -24zM1120 390q95 0 137.5 -47t42.5 -152t-43 -152.5t-137 -47.5t-137 47.5t-43 152.5t42.5 152
t137.5 47zM1120 90q26 0 38 24t12 76t-12 76t-38 24t-38 -24t-12 -76t12 -76t38 -24zM210 710q95 0 137.5 -47t42.5 -152t-43 -152.5t-137 -47.5t-137 47.5t-43 152.5t42.5 152t137.5 47zM210 410q26 0 38 24t12 76t-12 76t-38 24t-38 -24t-12 -76t12 -76t38 -24zM320 -30
h-160l440 760h160z" />
    <glyph glyph-name="guilsinglleft" unicode="&#x2039;" horiz-adv-x="360" 
d="M160 450h170l-120 -190l120 -200h-170l-130 200z" />
    <glyph glyph-name="guilsinglright" unicode="&#x203a;" horiz-adv-x="360" 
d="M220 450l130 -190l-130 -200h-170l120 200l-120 190h170z" />
    <glyph glyph-name="lira" unicode="&#x20a4;" horiz-adv-x="680" 
d="M670 140v-1v-140h-600v220q56 7 72 41h-72v90h80v30h-80v90h80v30q-1 116 58.5 168t191.5 52q126 0 183 -52t57 -168h-170q0 52 -16.5 76t-53.5 24t-53.5 -24t-16.5 -76v-30h220v-90h-220v-30h220v-90h-224q-13 -51 -62.5 -80t-143.5 -40h550z" />
    <glyph glyph-name="Euro" unicode="&#x20ac;" horiz-adv-x="830" 
d="M600 240v-2h200q-29 -137 -110 -198.5t-230 -61.5q-165 0 -252.5 62.5t-109.5 197.5h-88v90h80v21v21h-80v90h88q22 135 109.5 197.5t252.5 62.5q159 0 239.5 -62t100.5 -198h-200q-11 58 -44.5 84t-95.5 26q-118 0 -147 -110h208v-90h-220v-20v-20h180v-90h-168
q29 -110 147 -110q62 0 95.5 26t44.5 84z" />
    <glyph glyph-name="trademark" unicode="&#x2122;" horiz-adv-x="1269" 
d="M460 700v-140h-140v-360h-170v360h-140v140h450zM860 250l49 450h290v-500h-170v417l-50 -417h-240l-50 417v-417h-170v500h300z" />
    <glyph glyph-name="minus" unicode="&#x2212;" horiz-adv-x="390" 
d="M360 200h-330v130h330v-130z" />
    <glyph glyph-name="approxequal" unicode="&#x2248;" horiz-adv-x="660" 
d="M30 110v1v120q41 41 86.5 53.5t88.5 2.5t87.5 -29.5t88.5 -39.5t85 -31.5t84 -2t79 45.5v-120q-41 -41 -86.5 -53.5t-88.5 -2.5t-88 29t-88.5 39t-85 31.5t-84 2t-78.5 -45.5zM30 311v1v120q41 41 86.5 53.5t88.5 2.5t87.5 -29.5t88.5 -39.5t85 -31.5t84 -2t79 45.5v-120
q-41 -41 -86.5 -53.5t-88.5 -2.5t-88 29t-88.5 39t-85 31.5t-84 2t-78.5 -45.5z" />
    <glyph glyph-name="notequal" unicode="&#x2260;" horiz-adv-x="660" 
d="M190 0l36 100h-196v130h243l25 70h-268v130h315l25 70h100l-25 -70h185v-130h-232l-25 -70h257v-130h-304l-36 -100h-100z" />
    <glyph glyph-name="lessequal" unicode="&#x2264;" horiz-adv-x="500" 
d="M430 0h-400v140h400v-140zM79 450l351 -90v-160l-400 100v300l400 100v-160z" />
    <glyph glyph-name="greaterequal" unicode="&#x2265;" horiz-adv-x="500" 
d="M70 0v140h400v-140h-400zM421 450l-351 90v160l400 -100v-300l-400 -100v160z" />
    <glyph glyph-name="uniE132" unicode="&#xe132;" horiz-adv-x="570" 
d="M230 0h-180v500h180v-500zM300 -50q22 0 36 14t14 36v500h180v-520q0 -75 -42.5 -117.5t-117.5 -42.5h-160v130h90zM50 550l90 150h180l-130 -150h-140zM350 550l90 150h180l-130 -150h-140z" />
    <glyph glyph-name="uniE133" unicode="&#xe133;" horiz-adv-x="940" 
d="M70 700h200v-700h-200v700zM360 200v50h190v-50q0 -42 14 -61t46 -19t46 19t14 61v500h200v-500q0 -116 -62 -168t-198 -52q-131 0 -190.5 52t-59.5 168zM90 750l90 120h170l-120 -120h-140zM690 750l90 120h170l-120 -120h-140z" />
    <glyph glyph-name="a.alt1" 
d="M420 0l-39 135q-15 -75 -54 -110t-107 -35q-105 0 -152.5 61.5t-47.5 197.5q0 137 47.5 199t152.5 62q68 0 107.5 -35t53.5 -110l39 135h140v-500h-140zM290 120q47 0 68.5 30.5t21.5 98.5t-21.5 99.5t-68.5 31.5t-68.5 -31.5t-21.5 -99.5t21.5 -98.5t68.5 -30.5z" />
    <glyph glyph-name="aacute.alt1" 
d="M420 0l-39 136q-15 -75 -54 -110.5t-107 -35.5q-105 0 -152.5 61.5t-47.5 198.5q0 136 47.5 198t152.5 62q69 0 108 -34.5t53 -109.5l39 134h140v-500h-140zM290 120q47 0 68.5 31t21.5 99t-21.5 99t-68.5 31t-68.5 -31t-21.5 -99t21.5 -99t68.5 -31zM230 550l90 150h180
l-130 -150h-140z" />
    <glyph glyph-name="aacutering.alt1" 
d="M420 0l-39 135q-15 -75 -54 -110t-107 -35q-105 0 -152.5 61.5t-47.5 197.5q0 137 47.5 199t152.5 62q68 0 107.5 -35t53.5 -110l39 135h140v-500h-140zM290 120q47 0 68.5 30.5t21.5 98.5t-21.5 99.5t-68.5 31.5t-68.5 -31.5t-21.5 -99.5t21.5 -98.5t68.5 -30.5z
M317 730h17l46 50h130l-93 -79q33 -27 33 -70q0 -53 -31 -76.5t-99 -23.5t-99 23.5t-31 76.5q0 52 30 75.5t97 23.5zM319 600q40 0 40 30t-40 30t-40 -30t40 -30z" />
    <glyph glyph-name="abreve.alt1" 
d="M420 0l-39 135q-15 -75 -54 -110t-107 -35q-105 0 -152.5 61.5t-47.5 197.5q0 137 47.5 199t152.5 62q68 0 107.5 -35t53.5 -110l39 135h140v-500h-140zM290 120q47 0 68.5 30.5t21.5 98.5t-21.5 99.5t-68.5 31.5t-68.5 -31.5t-21.5 -99.5t21.5 -98.5t68.5 -30.5z
M370 700h120q0 -79 -40.5 -114.5t-129.5 -35.5t-129.5 35.5t-40.5 114.5h120q0 -32 12 -46t38 -14t38 14t12 46z" />
    <glyph glyph-name="acircumflex.alt1" 
d="M420 0l-39 135q-15 -75 -54 -110t-107 -35q-105 0 -152.5 61.5t-47.5 197.5q0 137 47.5 199t152.5 62q68 0 107.5 -35t53.5 -110l39 135h140v-500h-140zM290 120q47 0 68.5 30.5t21.5 98.5t-21.5 99.5t-68.5 31.5t-68.5 -31.5t-21.5 -99.5t21.5 -98.5t68.5 -30.5z
M490 550h-110l-60 140l-60 -140h-110l40 150h260z" />
    <glyph glyph-name="acute.case" horiz-adv-x="300" 
d="M20 550l90 120h170l-120 -120h-140z" />
    <glyph glyph-name="adieresis.alt1" 
d="M420 0l-39 135q-15 -75 -54 -110t-107 -35q-105 0 -152.5 61.5t-47.5 197.5q0 137 47.5 199t152.5 62q68 0 107.5 -35t53.5 -110l39 135h140v-500h-140zM290 120q47 0 68.5 30.5t21.5 98.5t-21.5 99.5t-68.5 31.5t-68.5 -31.5t-21.5 -99.5t21.5 -98.5t68.5 -30.5z
M200 750q52 0 76 -23t24 -73t-24 -72.5t-76 -22.5q-53 0 -76.5 22.5t-23.5 72.5t24 73t76 23zM440 750q52 0 76 -23t24 -73t-24 -72.5t-76 -22.5q-53 0 -76.5 22.5t-23.5 72.5t24 73t76 23z" />
    <glyph glyph-name="agrave.alt1" 
d="M420 0l-39 135q-15 -75 -54 -110t-107 -35q-105 0 -152.5 61.5t-47.5 197.5q0 137 47.5 199t152.5 62q68 0 107.5 -35t53.5 -110l39 135h140v-500h-140zM290 120q47 0 68.5 30.5t21.5 98.5t-21.5 99.5t-68.5 31.5t-68.5 -31.5t-21.5 -99.5t21.5 -98.5t68.5 -30.5z
M310 700l90 -150h-140l-130 150h180z" />
    <glyph glyph-name="amacron.alt1" 
d="M420 0l-39 135q-15 -75 -54 -110t-107 -35q-105 0 -152.5 61.5t-47.5 197.5q0 137 47.5 199t152.5 62q68 0 107.5 -35t53.5 -110l39 135h140v-500h-140zM290 120q47 0 68.5 30.5t21.5 98.5t-21.5 99.5t-68.5 31.5t-68.5 -31.5t-21.5 -99.5t21.5 -98.5t68.5 -30.5z
M150 570v100h340v-100h-340z" />
    <glyph glyph-name="aogonek.alt1" 
d="M473 -250q-59 0 -90 42.5t-21.5 102t58.5 104.5l-39 136q-15 -75 -54 -110t-107 -35q-105 0 -152.5 61.5t-47.5 197.5q0 137 47.5 199t152.5 62q68 0 107.5 -35t53.5 -110l39 135h140v-500h-51q-41 -41 -38 -75q2 -25 32 -25q8 0 18 2.5t16 5.5l6 2v-140q-30 -20 -70 -20
zM290 120q47 0 68.5 31t21.5 99t-21.5 99t-68.5 31t-68.5 -31t-21.5 -99t21.5 -99t68.5 -31z" />
    <glyph glyph-name="aring.alt1" 
d="M420 0l-39 135q-15 -75 -54 -110t-107 -35q-105 0 -152.5 61.5t-47.5 197.5q0 137 47.5 199t152.5 62q68 0 107.5 -35t53.5 -110l39 135h140v-500h-140zM290 120q47 0 68.5 30.5t21.5 98.5t-21.5 99.5t-68.5 31.5t-68.5 -31.5t-21.5 -99.5t21.5 -98.5t68.5 -30.5z
M320 750q68 0 99 -26t31 -84t-31 -84t-99 -26t-99 26t-31 84t31 84t99 26zM320 600q40 0 40 40t-40 40t-40 -40t40 -40z" />
    <glyph glyph-name="atilde.alt1" 
d="M420 0l-39 135q-15 -75 -54 -110t-107 -35q-105 0 -152.5 61.5t-47.5 197.5q0 137 47.5 199t152.5 62q68 0 107.5 -35t53.5 -110l39 135h140v-500h-140zM290 120q47 0 68.5 30.5t21.5 98.5t-21.5 99.5t-68.5 31.5t-68.5 -31.5t-21.5 -99.5t21.5 -98.5t68.5 -30.5z
M150 580q0 53 32.5 91.5t77.5 38.5q31 0 54 -11t33.5 -24t22 -24t20.5 -11q20 0 20 30h80q0 -53 -32.5 -91.5t-77.5 -38.5q-31 0 -54 11t-33.5 24t-22 24t-20.5 11q-20 0 -20 -30h-80z" />
    <glyph glyph-name="breve.case" horiz-adv-x="380" 
d="M360 670q0 -63 -40.5 -91.5t-129.5 -28.5t-129.5 28.5t-40.5 91.5h130q0 -40 40 -40t40 40h130z" />
    <glyph glyph-name="caron.case" horiz-adv-x="380" 
d="M360 670l-40 -120h-260l-40 120h120l50 -110l50 110h120z" />
    <glyph glyph-name="circumflex.case" horiz-adv-x="380" 
d="M360 550h-120l-50 110l-50 -110h-120l40 120h260z" />
    <glyph glyph-name="commaaccent" horiz-adv-x="180" 
d="M90 -40q37 0 53.5 -21.5t16.5 -68.5q0 -63 -31 -91.5t-99 -28.5v60q50 0 50 40q-32 0 -46 12t-14 38q0 32 16.5 46t53.5 14z" />
    <glyph glyph-name="dieresis.case" horiz-adv-x="500" 
d="M120 720q52 0 76 -19t24 -61t-24 -61t-76 -19t-76 19t-24 61t24 61t76 19zM380 720q52 0 76 -19t24 -61t-24 -61t-76 -19t-76 19t-24 61t24 61t76 19z" />
    <glyph glyph-name="dotaccent.case" horiz-adv-x="240" 
d="M120 710q52 0 76 -19t24 -61t-24 -61t-76 -19t-76 19t-24 61t24 61t76 19z" />
    <glyph glyph-name="grave.case" horiz-adv-x="300" 
d="M280 550h-130l-130 120h160z" />
    <glyph glyph-name="hungarumlaut.case" horiz-adv-x="500" 
d="M20 550l80 120h160l-110 -120h-130zM240 550l80 120h160l-110 -120h-130z" />
    <glyph glyph-name="tilde.case" horiz-adv-x="380" 
d="M20 580q0 51 31.5 80.5t78.5 29.5q51 0 88.5 -20t51.5 -20q8 0 14 6t6 14h70q0 -51 -31.5 -80.5t-78.5 -29.5q-51 0 -88.5 20t-51.5 20q-8 0 -14 -6t-6 -14h-70z" />
    </font>
</defs>
</svg>
