<?xml version="1.0" standalone="no"?>
<!DOCTYPE svg PUBLIC "-//W3C//DTD SVG 1.1//EN" "http://www.w3.org/Graphics/SVG/1.1/DTD/svg11.dtd" >
<svg xmlns="http://www.w3.org/2000/svg" xmlns:xlink="http://www.w3.org/1999/xlink" version="1.1">
<metadata>
Created by FontForge 20170924 at Tue Jul 19 17:55:20 2016
 By patjennings,,,
Copyright (c) 2007-2016 Bold Monday. All rights reserved. Nitti is a trademark of Bold Monday. Unauthorized copying or modification of any of its data is illegal.
</metadata>
<defs>
<font id="Nitti-Bold" horiz-adv-x="600" >
  <font-face 
    font-family="Nitti Bold"
    font-weight="700"
    font-stretch="normal"
    units-per-em="1000"
    panose-1="2 11 8 9 4 0 0 6 0 4"
    ascent="780"
    descent="-220"
    x-height="447"
    cap-height="579"
    bbox="-282 -420 668 980"
    underline-thickness="80"
    underline-position="-225"
    unicode-range="U+0020-FB4F"
  />
<missing-glyph 
d="M291 138l-46 59q79 51 106 84t27 66q0 73 -85 73q-40 0 -64 -16t-24 -61h-132q0 93 58.5 139.5t167.5 46.5q101 0 160 -42t59 -117q0 -69 -54 -118.5t-173 -113.5zM223 -61v144h146v-144h-146zM0 -185v841h600v-841h-600zM51 611v-751h498v751h-498z" />
    <glyph glyph-name=".notdef" 
d="M291 138l-46 59q79 51 106 84t27 66q0 73 -85 73q-40 0 -64 -16t-24 -61h-132q0 93 58.5 139.5t167.5 46.5q101 0 160 -42t59 -117q0 -69 -54 -118.5t-173 -113.5zM223 -61v144h146v-144h-146zM0 -185v841h600v-841h-600zM51 611v-751h498v751h-498z" />
    <glyph glyph-name=".null" horiz-adv-x="0" 
 />
    <glyph glyph-name="nonmarkingreturn" horiz-adv-x="333" 
 />
    <glyph glyph-name="space" unicode=" " 
 />
    <glyph glyph-name="exclam" unicode="!" 
d="M275 217l-48 187v175h146v-175l-48 -187h-50zM227 0v144h146v-144h-146z" />
    <glyph glyph-name="quotedbl" unicode="&#x22;" 
d="M147 275q-37 218 -37 237q0 36 22.5 57t60.5 21t60.5 -21t22.5 -57q0 -19 -37 -237h-92zM361 275q-37 218 -37 237q0 36 22.5 57t60.5 21t60.5 -21t22.5 -57q0 -19 -37 -237h-92z" />
    <glyph glyph-name="numbersign" unicode="#" 
d="M92 0l25 130h-85l21 107h85l18 91h-86l21 107h86l28 144h114l-28 -144h77l28 144h115l-28 -144h85l-20 -107h-86l-18 -91h86l-20 -107h-87l-25 -130h-114l25 130h-77l-25 -130h-115zM270 328l-18 -91h77l18 91h-77z" />
    <glyph glyph-name="dollar" unicode="$" 
d="M239 -91v85q-86 11 -131.5 59t-45.5 128h131q4 -42 29.5 -61t78.5 -19q98 0 98 57q0 22 -16.5 34t-55.5 25l-124 41q-128 43 -128 158q0 69 44 112t120 56v88h115v-86q80 -11 125.5 -58t47.5 -126h-132q-4 38 -25 57t-69 19q-42 0 -64.5 -14t-22.5 -39q0 -35 55 -53
l129 -44q67 -23 103.5 -59t36.5 -100q0 -76 -50 -120t-134 -55v-85h-115z" />
    <glyph glyph-name="percent" unicode="%" 
d="M169 259q-68 0 -110.5 40t-42.5 124q0 86 44.5 126.5t112.5 40.5q67 0 110 -40t43 -123q0 -85 -44.5 -126.5t-112.5 -41.5zM171 356q45 0 45 69q0 68 -45 68t-45 -68q0 -69 45 -69zM427 -10q-68 0 -110.5 40.5t-42.5 122.5q0 85 45 126t112 41t110.5 -40.5t43.5 -123.5
q0 -85 -44.5 -125.5t-113.5 -40.5zM429 87q45 0 45 68q0 69 -45 69t-45 -69q0 -68 45 -68zM12 0l164 229h66v-65l-118 -164h-112zM359 350v66l118 163h111l-164 -229h-65z" />
    <glyph glyph-name="ampersand" unicode="&#x26;" 
d="M287 104h92v139h-92q-111 0 -111 -69q0 -39 29 -54.5t82 -15.5zM287 0q-114 0 -182 39t-68 123q0 101 95 132q-79 35 -79 126q0 83 64 126.5t166 43.5q94 0 158 -42t70 -142h-134q-4 42 -28 59.5t-68 17.5q-93 0 -93 -69q0 -37 27.5 -52t82.5 -15h277v-104h-62v-243h-226
z" />
    <glyph glyph-name="quotesingle" unicode="'" 
d="M254 275q-37 218 -37 237q0 36 22.5 57t60.5 21t60.5 -21t22.5 -57q0 -19 -37 -237h-92z" />
    <glyph glyph-name="parenleft" unicode="(" 
d="M379 -185q-113 90 -171 204t-58 217t57.5 216.5t171.5 203.5h116q-119 -132 -171 -230.5t-52 -189.5t52 -190.5t171 -230.5h-116z" />
    <glyph glyph-name="parenright" unicode=")" 
d="M105 -185q119 132 171 230.5t52 189.5t-52 190.5t-171 230.5h116q113 -90 171 -204t58 -217t-57.5 -216.5t-171.5 -203.5h-116z" />
    <glyph glyph-name="asterisk" unicode="*" 
d="M196 206l-67 49l86 138l-151 61l25 78l158 -39l12 163h82l12 -163l158 39l25 -78l-151 -61l86 -138l-67 -49l-104 124z" />
    <glyph glyph-name="plus" unicode="+" 
d="M236 0v166h-161v116h161v165h128v-165h161v-116h-161v-166h-128z" />
    <glyph glyph-name="comma" unicode="," 
d="M226 -160q-25 0 -38.5 11.5t-13.5 29.5q0 12 2 26l33 273h192l-115 -297q-16 -43 -60 -43z" />
    <glyph glyph-name="hyphen" unicode="-" 
d="M144 231v117h312v-117h-312z" />
    <glyph glyph-name="period" unicode="." 
d="M210 0v180h180v-180h-180z" />
    <glyph glyph-name="slash" unicode="/" 
d="M-54 -185l502 841h118l-501 -841h-119z" />
    <glyph glyph-name="zero" unicode="0" 
d="M297 -10q-126 0 -188.5 77t-62.5 220q0 144 63 223.5t193 79.5q128 0 190 -77.5t62 -218.5q0 -142 -63.5 -223t-193.5 -81zM300 108q67 0 89.5 46t22.5 137t-22.5 136t-89.5 45t-89.5 -45t-22.5 -136t22.5 -137t89.5 -46zM300 240q-22 0 -35.5 13.5t-13.5 35.5t13.5 35.5
t35.5 13.5t35.5 -13.5t13.5 -35.5t-13.5 -35.5t-35.5 -13.5z" />
    <glyph glyph-name="one" unicode="1" 
d="M108 0v114h156v316q-36 -48 -131 -48h-25v124h49q109 0 144 73h100v-465h129v-114h-422z" />
    <glyph glyph-name="two" unicode="2" 
d="M99 0v45q0 135 120 215l74 49q34 23 49.5 34.5t31 31t15.5 39.5q0 29 -22 47.5t-59 18.5q-44 0 -69.5 -25.5t-28.5 -75.5h-137q4 100 68 155.5t173 55.5q95 0 155 -44.5t60 -126.5q0 -55 -27.5 -93.5t-92.5 -84.5l-76 -53q-4 -3 -14 -10t-14 -9.5t-11.5 -8.5t-11 -8.5
t-9 -7.5t-8 -8t-5.5 -7t-4.5 -7.5t-2.5 -7.5h292v-114h-446z" />
    <glyph glyph-name="three" unicode="3" 
d="M313 -10q-119 0 -183.5 53t-69.5 146h137q10 -89 109 -89q44 0 70.5 19.5t26.5 52.5q0 66 -103 66h-38v110h37q91 0 91 62q0 31 -22 50.5t-60 19.5q-43 0 -69 -24t-29 -67h-137q4 93 68.5 147t172.5 54q102 0 159 -47.5t57 -126.5q0 -84 -83 -124q45 -17 70.5 -52
t25.5 -82q0 -79 -67 -123.5t-163 -44.5z" />
    <glyph glyph-name="four" unicode="4" 
d="M333 0v126h-298v86l311 367h117v-345h99v-108h-99v-126h-130zM193 234h140v164z" />
    <glyph glyph-name="five" unicode="5" 
d="M318 -10q-116 0 -179.5 49.5t-69.5 135.5h137q11 -75 103 -75q45 0 70.5 23t25.5 65q0 85 -104 85q-71 0 -124 -56l-95 29l34 333h397v-116h-281l-12 -113q52 34 121 34q92 0 148.5 -50t56.5 -139q0 -101 -66 -153t-162 -52z" />
    <glyph glyph-name="six" unicode="6" 
d="M321 -10q-113 0 -184.5 74t-71.5 229q0 134 69.5 215.5t191.5 81.5q92 0 151.5 -49.5t66.5 -135.5h-137q-4 31 -25.5 53t-61.5 22q-107 0 -116 -160q58 45 142 45q98 0 147.5 -52t49.5 -131q0 -88 -62 -140t-160 -52zM318 100q39 0 62.5 21t23.5 55q0 80 -89 80
q-60 0 -107 -31q16 -125 110 -125z" />
    <glyph glyph-name="seven" unicode="7" 
d="M206 0v53q0 267 168 416h-194v-79h-118v189h476v-93q-192 -155 -192 -450v-36h-140z" />
    <glyph glyph-name="eight" unicode="8" 
d="M300 -10q-101 0 -173 44t-72 124q0 95 94 134q-81 43 -81 124q0 87 68 130.5t164 43.5t164 -43.5t68 -130.5q0 -81 -82 -124q95 -39 95 -134q0 -80 -72 -124t-173 -44zM301 100q44 0 74 18.5t30 53.5q0 37 -29.5 54.5t-74.5 17.5q-46 0 -76 -17.5t-30 -54.5
q0 -35 30.5 -53.5t75.5 -18.5zM300 337q38 0 65 17.5t27 52.5q0 37 -26.5 55t-65.5 18t-65.5 -18t-26.5 -55q0 -35 27 -52.5t65 -17.5z" />
    <glyph glyph-name="nine" unicode="9" 
d="M287 -10q-98 0 -160 50.5t-68 134.5h137q11 -75 95 -75q55 0 81 39.5t28 122.5q-55 -45 -139 -45q-98 0 -149 56t-51 130q0 84 62 135.5t159 51.5q114 0 185.5 -74.5t71.5 -232.5q0 -138 -67 -215.5t-185 -77.5zM287 327q62 0 108 30q-18 123 -109 123q-39 0 -62.5 -21.5
t-23.5 -55.5q0 -32 23 -54t64 -22z" />
    <glyph glyph-name="colon" unicode=":" 
d="M210 0v161h180v-161h-180zM210 287v160h180v-160h-180z" />
    <glyph glyph-name="semicolon" unicode=";" 
d="M226 -160q-25 0 -38.5 11.5t-13.5 29.5q0 12 2 26l33 273h192l-115 -297q-16 -43 -60 -43zM210 287v160h180v-160h-180z" />
    <glyph glyph-name="less" unicode="&#x3c;" 
d="M535 -10l-470 182v103l470 182v-116l-315 -116l315 -115v-120z" />
    <glyph glyph-name="equal" unicode="=" 
d="M89 53v116h422v-116h-422zM89 281v116h422v-116h-422z" />
    <glyph glyph-name="greater" unicode="&#x3e;" 
d="M65 -10v116l316 116l-316 116v119l470 -182v-103z" />
    <glyph glyph-name="question" unicode="?" 
d="M293 199l-46 59q79 51 106 84t27 66q0 73 -85 73q-40 0 -64 -16t-24 -61h-132q0 93 58.5 139.5t167.5 46.5q101 0 160 -42t59 -117q0 -69 -54 -118.5t-173 -113.5zM225 0v144h146v-144h-146z" />
    <glyph glyph-name="at" unicode="@" 
d="M178 -10q-60 0 -87.5 52.5t-27.5 177.5q0 129 28.5 183t88.5 54t88 -56v46h89v-323q0 -48 36 -48q35 0 35 48v290q0 86 -27.5 124t-105.5 38q-115 0 -115 -75h-105q0 30 10.5 57t34 52.5t70 40.5t109.5 15q48 0 86 -9.5t62 -23.5t41 -37.5t25.5 -42.5t13 -49t5 -46.5
t0.5 -43.5v-280q0 -78 -40 -111t-97 -33q-53 0 -80.5 22t-35.5 46q-31 -68 -101 -68zM214 76q24 0 36 21v254q-12 21 -36 21q-25 0 -33.5 -28t-8.5 -120t8.5 -120t33.5 -28z" />
    <glyph glyph-name="A" unicode="A" 
d="M25 0l202 579h145l203 -579h-147l-38 118h-183l-37 -118h-145zM249 259l-9 -33h115l-8 29l-50 180z" />
    <glyph glyph-name="B" unicode="B" 
d="M90 0v579h217q107 0 167 -43.5t60 -118.5q0 -82 -77 -119q97 -39 97 -129q0 -75 -62.5 -122t-166.5 -47h-235zM229 242v-129h84q97 0 97 65q0 64 -98 64h-83zM229 467v-121h63q55 0 76.5 15.5t21.5 43.5q0 62 -96 62h-65z" />
    <glyph glyph-name="C" unicode="C" 
d="M306 -10q-260 0 -260 295q0 305 267 305q228 0 239 -232h-142q-4 59 -29 86t-76 27q-68 0 -92 -44.5t-24 -136.5q0 -93 24 -137t94 -44q52 0 75.5 26.5t27.5 85.5h142q-15 -231 -246 -231z" />
    <glyph glyph-name="D" unicode="D" 
d="M90 0v579h191q142 0 207.5 -70.5t65.5 -213.5q0 -295 -273 -295h-191zM229 463v-347h52q75 0 102.5 41t27.5 133t-27.5 132.5t-102.5 40.5h-52z" />
    <glyph glyph-name="E" unicode="E" 
d="M90 0v579h431v-116h-292v-110h246v-116h-246v-121h292v-116h-431z" />
    <glyph glyph-name="F" unicode="F" 
d="M90 0v579h436v-116h-297v-142h255v-116h-255v-205h-139z" />
    <glyph glyph-name="G" unicode="G" 
d="M257 -10q-108 0 -159.5 80.5t-51.5 214.5q0 305 260 305q111 0 166.5 -54t59.5 -149h-138q-6 41 -27 62.5t-66 21.5q-46 0 -71.5 -24.5t-33 -60.5t-7.5 -95q0 -94 23 -138t89 -44q56 0 95 32v80h-109v100h244v-321h-120v60q-51 -70 -154 -70z" />
    <glyph glyph-name="H" unicode="H" 
d="M90 0v579h139v-226h142v226h139v-579h-139v237h-142v-237h-139z" />
    <glyph glyph-name="I" unicode="I" 
d="M89 0v116h141v347h-141v116h422v-116h-142v-347h142v-116h-422z" />
    <glyph glyph-name="J" unicode="J" 
d="M290 -10q-114 0 -172.5 59.5t-58.5 158.5q0 40 4 56h139q-3 -16 -3 -47q0 -108 91 -108q92 0 92 116v354h139v-354q0 -113 -58.5 -174t-172.5 -61z" />
    <glyph glyph-name="K" unicode="K" 
d="M90 0v579h139v-218l180 218h167l-203 -227l213 -352h-166l-142 248l-49 -53v-195h-139z" />
    <glyph glyph-name="L" unicode="L" 
d="M90 0v579h139v-463h297v-116h-436z" />
    <glyph glyph-name="M" unicode="M" 
d="M61 0v579h165l44 -145l33 -127l32 127l44 145h160v-579h-122v255l18 195l-90 -298h-90l-90 298l18 -195v-255h-122z" />
    <glyph glyph-name="N" unicode="N" 
d="M90 0v579h170l147 -445l-16 196v249h119v-579h-170l-147 445l16 -196v-249h-119z" />
    <glyph glyph-name="O" unicode="O" 
d="M297 -10q-126 0 -188.5 77t-62.5 220q0 144 63 223.5t193 79.5q128 0 190 -77.5t62 -218.5q0 -142 -63.5 -223t-193.5 -81zM300 109q66 0 88.5 46t22.5 135q0 90 -22.5 135.5t-88.5 45.5t-88.5 -45.5t-22.5 -135.5q0 -89 22.5 -135t88.5 -46z" />
    <glyph glyph-name="P" unicode="P" 
d="M90 0v579h211q111 0 181.5 -48.5t70.5 -150.5t-70.5 -151t-181.5 -49h-72v-180h-139zM229 465v-170h72q110 0 110 85t-110 85h-72z" />
    <glyph glyph-name="Q" unicode="Q" 
d="M300 109h29l-107 130h136l43 -52q10 36 10 103q0 90 -22.5 135.5t-88.5 45.5t-88.5 -45.5t-22.5 -135.5q0 -89 22.5 -135t88.5 -46zM459 -50l-50 60q-49 -20 -112 -20q-126 0 -188.5 77t-62.5 220q0 144 63 223.5t193 79.5q128 0 190 -77.5t62 -218.5q0 -143 -61 -220
l103 -124h-137z" />
    <glyph glyph-name="R" unicode="R" 
d="M90 0v579h189q112 0 183.5 -47t71.5 -145q0 -119 -111 -168l154 -219h-167l-119 191h-62v-191h-139zM229 465v-164h50q112 0 112 82t-112 82h-50z" />
    <glyph glyph-name="S" unicode="S" 
d="M295 -10q-113 0 -173 49.5t-60 141.5h131q4 -42 29.5 -61t78.5 -19q98 0 98 57q0 22 -16.5 34t-55.5 25l-124 41q-128 43 -128 158q0 83 63.5 128.5t164.5 45.5q103 0 162.5 -48.5t61.5 -139.5h-132q-4 38 -25 57t-69 19q-42 0 -64.5 -14t-22.5 -39q0 -35 55 -53l129 -44
q67 -23 103.5 -59t36.5 -100q0 -88 -67.5 -133.5t-175.5 -45.5z" />
    <glyph glyph-name="T" unicode="T" 
d="M230 0v463h-187v116h514v-116h-188v-463h-139z" />
    <glyph glyph-name="U" unicode="U" 
d="M299 -10q-222 0 -222 228v361h140v-361q0 -60 20 -84.5t63 -24.5t63 24.5t20 84.5v361h140v-361q0 -228 -224 -228z" />
    <glyph glyph-name="V" unicode="V" 
d="M233 0l-214 579h156l87 -268l42 -154l42 153l86 269h149l-214 -579h-134z" />
    <glyph glyph-name="W" unicode="W" 
d="M85 0l-64 579h135l20 -269l8 -180l65 269h106l64 -268l9 179l20 269h131l-64 -579h-156l-59 228l-59 -228h-156z" />
    <glyph glyph-name="X" unicode="X" 
d="M22 0l197 296l-184 283h166l75 -128l28 -56l28 56l76 128h157l-184 -275l197 -304h-166l-84 145l-31 55l-31 -55l-87 -145h-157z" />
    <glyph glyph-name="Y" unicode="Y" 
d="M230 0v226l-214 353h166l65 -117l54 -124l61 124l66 117h155l-214 -352v-227h-139z" />
    <glyph glyph-name="Z" unicode="Z" 
d="M63 0v94l284 369h-279v116h460v-94l-284 -369h293v-116h-474z" />
    <glyph glyph-name="bracketleft" unicode="[" 
d="M176 -185v841h340v-104h-222v-633h222v-104h-340z" />
    <glyph glyph-name="backslash" unicode="\" 
d="M535 -185l-501 841h118l502 -841h-119z" />
    <glyph glyph-name="bracketright" unicode="]" 
d="M84 -185v104h223v633h-223v104h340v-841h-340z" />
    <glyph glyph-name="asciicircum" unicode="^" 
d="M73 196l173 383h108l172 -383h-133l-97 244l-97 -244h-126z" />
    <glyph glyph-name="underscore" unicode="_" 
d="M22 -116v116h556v-116h-556z" />
    <glyph glyph-name="grave" unicode="`" 
d="M332 505l-143 204h144l78 -204h-79z" />
    <glyph glyph-name="a" unicode="a" 
d="M222 -10q-71 0 -116.5 32.5t-45.5 96.5q0 48 28.5 78.5t69 41.5t93.5 11q67 0 118 -14v34q0 41 -16.5 62.5t-66.5 21.5q-86 0 -86 -64h-125q0 85 60 126t159 41q208 0 208 -176v-167q0 -23 24 -23q15 0 35 5v-86q-40 -20 -93 -20q-78 0 -78 64v9q-58 -73 -168 -73z
M258 82q36 0 67 10.5t44 22.5v46q-28 6 -87 6q-88 0 -88 -44q0 -41 64 -41z" />
    <glyph glyph-name="b" unicode="b" 
d="M357 -10q-52 0 -91 21t-58 49v-60h-119v656h134v-257q49 58 134 58q83 0 135.5 -59t52.5 -174q0 -117 -54 -175.5t-134 -58.5zM312 102q94 0 94 122t-94 122q-54 0 -89 -33v-178q35 -33 89 -33z" />
    <glyph glyph-name="c" unicode="c" 
d="M300 -10q-48 0 -89 11.5t-77 37t-57 73t-21 112.5t21 112.5t57.5 72.5t77.5 36.5t90 11.5q98 0 164.5 -45.5t72.5 -148.5h-136q-7 85 -100 85q-108 0 -108 -124t109 -124q92 0 99 84h136q-6 -102 -74 -148t-165 -46z" />
    <glyph glyph-name="d" unicode="d" 
d="M243 -10q-83 0 -135.5 59t-52.5 174q0 117 54 175.5t134 58.5q85 0 134 -58v257h134v-656h-119v60q-19 -28 -58 -49t-91 -21zM288 102q54 0 89 33v178q-35 33 -89 33q-94 0 -94 -122t94 -122z" />
    <glyph glyph-name="e" unicode="e" 
d="M307 -10q-112 0 -180 56t-68 175q0 65 21 112.5t57 73.5t77.5 38t89.5 12q49 0 90 -12.5t75 -38.5t53 -72.5t19 -109.5v-23h-346q0 -110 113 -110q38 0 63.5 12.5t29.5 36.5h138q-17 -79 -80 -114.5t-152 -35.5zM197 282h206q-18 74 -103 74t-103 -74z" />
    <glyph glyph-name="f" unicode="f" 
d="M78 0v101h143v231h-143v101h143v1q0 50 17 89.5t45.5 65t67.5 42t81.5 23.5t89.5 7v-102q-167 0 -167 -125v-1h167v-101h-167v-231h167v-101h-444z" />
    <glyph glyph-name="g" unicode="g" 
d="M279 -195q-208 0 -214 177h128q4 -37 23.5 -58.5t69.5 -21.5q56 0 73.5 26.5t17.5 75.5v69q-49 -56 -130 -56q-84 0 -138 56.5t-54 161.5q0 106 54.5 164t138.5 58q50 0 88 -20t56 -47v57h119v-454q0 -188 -232 -188zM290 126q50 0 87 33v156q-37 33 -87 33
q-96 0 -96 -111t96 -111z" />
    <glyph glyph-name="h" unicode="h" 
d="M90 0v656h134v-258q49 59 132 59q154 0 154 -180v-277h-134v253q0 49 -15.5 70.5t-54.5 21.5q-53 0 -82 -32v-313h-134z" />
    <glyph glyph-name="i" unicode="i" 
d="M89 0v101h151v245h-151v101h285v-346h137v-101h-422zM228 518v138h158v-138h-158z" />
    <glyph glyph-name="j" unicode="j" 
d="M115 -190v100q94 0 136.5 37.5t42.5 130.5v268h-172v101h306v-381q0 -74 -23 -125.5t-67.5 -79t-98 -39.5t-124.5 -12zM282 518v138h158v-138h-158z" />
    <glyph glyph-name="k" unicode="k" 
d="M90 0v656h134v-353l164 144h179l-189 -161l201 -286h-162l-136 212l-57 -45v-167h-134z" />
    <glyph glyph-name="l" unicode="l" 
d="M89 0v101h144v453h-144v102h278v-555h144v-101h-422z" />
    <glyph glyph-name="m" unicode="m" 
d="M44 0v447h100v-61q40 71 112 71q71 0 91 -65q40 65 108 65q101 0 101 -151v-306h-115v292q0 62 -33 62q-17 0 -31 -10.5t-20 -21.5v-322h-114v292q0 62 -33 62q-17 0 -31 -10.5t-20 -21.5v-322h-115z" />
    <glyph glyph-name="n" unicode="n" 
d="M90 0v447h119v-60q47 70 144 70q68 0 112.5 -42t44.5 -138v-277h-134v253q0 49 -15.5 70.5t-54.5 21.5q-50 0 -82 -32v-313h-134z" />
    <glyph glyph-name="o" unicode="o" 
d="M297 -10q-47 0 -87.5 11.5t-76.5 37t-56.5 72.5t-20.5 111q0 66 21.5 113.5t58.5 73t78.5 37t88.5 11.5t88 -11.5t76.5 -37t56 -72t20.5 -110.5q0 -53 -14.5 -94.5t-38.5 -67.5t-57 -43t-66.5 -24t-70.5 -7zM300 100q105 0 105 124t-105 124t-105 -124t105 -124z" />
    <glyph glyph-name="p" unicode="p" 
d="M89 -185v632h119v-60q19 28 58 49t91 21q83 0 135.5 -59t52.5 -174q0 -117 -54 -175.5t-134 -58.5q-85 0 -134 58v-233h-134zM312 101q94 0 94 122t-94 122q-54 0 -89 -33v-178q35 -33 89 -33z" />
    <glyph glyph-name="q" unicode="q" 
d="M377 -185v233q-49 -58 -134 -58q-83 0 -135.5 59t-52.5 174q0 117 54 175.5t134 58.5q52 0 91 -21t58 -49v60h119v-632h-134zM288 101q54 0 89 33v178q-35 33 -89 33q-94 0 -94 -122t94 -122z" />
    <glyph glyph-name="r" unicode="r" 
d="M89 0v101h105v245h-105v101h224v-97q47 107 148 107q56 0 88 -25v-132q-46 29 -95 29q-71 0 -126 -57v-171h183v-101h-422z" />
    <glyph glyph-name="s" unicode="s" 
d="M294 -10q-231 2 -235 150h137q5 -55 108 -55q98 0 98 41q0 6 -2 11t-7 9t-10.5 7t-15.5 6t-18 5t-21.5 4t-23.5 3.5t-26.5 4t-28.5 4.5q-40 6 -66 13.5t-55.5 22t-44.5 39.5t-15 61q0 71 61 106t167 35q210 0 219 -142h-137q-7 47 -94 47q-78 0 -78 -36q0 -21 28.5 -29.5
t111.5 -19.5q3 -1 5 -1t4.5 -0.5t4.5 -0.5q39 -5 66.5 -12.5t56 -22.5t43.5 -41t15 -62q0 -78 -68 -113t-179 -34z" />
    <glyph glyph-name="t" unicode="t" 
d="M361 -10q-92 0 -136.5 47.5t-44.5 160.5v148h-139v101h139v209h134v-209h221v-101h-221v-143q0 -57 16.5 -79.5t64.5 -22.5q54 0 119 26v-105q-70 -32 -153 -32z" />
    <glyph glyph-name="u" unicode="u" 
d="M247 -10q-68 0 -112.5 42t-44.5 138v277h134v-253q0 -49 15.5 -70.5t54.5 -21.5q50 0 82 32v313h134v-447h-119v60q-47 -70 -144 -70z" />
    <glyph glyph-name="v" unicode="v" 
d="M231 0l-202 447h153l75 -184l45 -134l46 133l76 185h147l-203 -447h-137z" />
    <glyph glyph-name="w" unicode="w" 
d="M98 0l-78 447h125l37 -344l51 260h138l51 -260l37 344h121l-78 -447h-151l-51 241l-51 -241h-151z" />
    <glyph glyph-name="x" unicode="x" 
d="M22 0l201 229l-191 218h167l107 -131l100 131h161l-187 -219l199 -228h-167l-114 140l-107 -140h-169z" />
    <glyph glyph-name="y" unicode="y" 
d="M55 -190v109q73 0 112.5 22t61.5 70l-200 436h153l76 -185l45 -131l45 131l76 185h147l-185 -410q-40 -88 -78 -134t-98 -69.5t-155 -23.5z" />
    <glyph glyph-name="z" unicode="z" 
d="M77 0v93l259 253h-254v101h435v-92l-259 -254h265v-101h-446z" />
    <glyph glyph-name="braceleft" unicode="{" 
d="M433 -185q-117 0 -174.5 31.5t-57.5 119.5q0 12 2 36l5 72q2 24 2 35q0 42 -25 60t-90 18v96q64 0 89.5 18.5t25.5 60.5q0 11 -2 35l-5 72q-2 24 -2 36q0 88 57.5 119.5t174.5 31.5h83v-104h-89q-57 0 -81 -17t-24 -54q0 -13 1 -25l4 -68q2 -26 2 -35q0 -45 -24 -77.5
t-62 -40.5q38 -8 62 -40t24 -77q0 -9 -2 -35l-4 -68q-1 -12 -1 -25q0 -37 24 -54t81 -17h89v-104h-83z" />
    <glyph glyph-name="bar" unicode="|" 
d="M241 -185v841h118v-841h-118z" />
    <glyph glyph-name="braceright" unicode="}" 
d="M84 -185v104h89q57 0 81 17t24 54q0 13 -1 25l-4 68q-2 26 -2 35q0 45 24 77.5t62 40.5q-38 8 -62 40t-24 77q0 9 2 35l4 68q1 12 1 25q0 37 -24 54t-81 17h-89v104h83q117 0 174.5 -31.5t57.5 -119.5q0 -12 -2 -36l-5 -72q-2 -24 -2 -35q0 -42 25 -60t90 -18v-96
q-64 0 -89.5 -18.5t-25.5 -60.5q0 -11 2 -35l5 -72q2 -24 2 -36q0 -88 -57.5 -119.5t-174.5 -31.5h-83z" />
    <glyph glyph-name="asciitilde" unicode="~" 
d="M121 140l-61 26q10 32 25.5 61.5t47 57.5t68.5 28q31 0 116 -31q65 -24 90 -24q41 0 72 55l61 -26q-10 -32 -25.5 -61.5t-47 -57.5t-68.5 -28q-33 0 -113 30q-69 25 -93 25q-41 0 -72 -55z" />
    <glyph glyph-name="uni00A0" unicode="&#xa0;" 
 />
    <glyph glyph-name="exclamdown" unicode="&#xa1;" 
d="M227 -132v175l48 187h50l48 -187v-175h-146zM227 303v144h146v-144h-146z" />
    <glyph glyph-name="cent" unicode="&#xa2;" 
d="M243 -91v152q-83 13 -135 68t-52 162q0 106 51.5 160.5t135.5 67.5v153h115v-152q77 -12 126.5 -57.5t54.5 -132.5h-136q-7 85 -100 85q-108 0 -108 -124t109 -124q92 0 99 84h136q-5 -85 -55 -131.5t-126 -58.5v-152h-115z" />
    <glyph glyph-name="sterling" unicode="&#xa3;" 
d="M77 0v106q16 2 31.5 7t34 14.5t29.5 27t11 39.5q0 8 -3 29l-3 21h-100v99h87q-3 24 -3 45q0 60 24.5 99t77 59.5t113.5 28t155 9.5v-113q-45 -2 -69.5 -3t-56 -5t-47.5 -10.5t-32 -17t-22 -27t-6 -38.5q0 -17 2 -27h165v-99h-150l4 -25q3 -17 3 -29q0 -56 -62 -77h282
v-113h-465z" />
    <glyph glyph-name="currency" unicode="&#xa4;" 
d="M137 45l-81 78l76 76q-18 39 -18 90t18 90l-76 76l81 78l74 -75q41 18 89 18t89 -18l74 75l81 -78l-76 -76q18 -39 18 -90t-18 -90l76 -76l-81 -78l-74 75q-41 -18 -89 -18t-89 18zM300 205q34 0 53.5 22.5t19.5 61.5t-19.5 61.5t-53.5 22.5t-53.5 -22.5t-19.5 -61.5
t19.5 -61.5t53.5 -22.5z" />
    <glyph glyph-name="yen" unicode="&#xa5;" 
d="M69 0v103h161v113h-161v102h105l-158 261h166l65 -117l54 -123l61 123l66 117h155l-159 -261h107v-102h-162v-113h162v-103h-462z" />
    <glyph glyph-name="brokenbar" unicode="&#xa6;" 
d="M241 -185v343h118v-343h-118zM241 312v344h118v-344h-118z" />
    <glyph glyph-name="section" unicode="&#xa7;" 
d="M283 -155q-99 0 -151 40.5t-52 119.5h117q0 -66 89 -66q83 0 83 50q0 36 -62 62l-138 59q-113 48 -113 133q0 70 79 117q-30 38 -30 86q0 66 55 105t151 39t146.5 -41t50.5 -119h-117q0 66 -82 66q-35 0 -56.5 -12.5t-21.5 -37.5q0 -36 62 -62l138 -59q113 -48 113 -133
q0 -69 -79 -117q30 -38 30 -86q0 -66 -56.5 -105t-155.5 -39zM382 134l14 -6q22 23 22 48q0 18 -10 31.5t-22 20t-37 17.5l-132 57l-14 6q-21 -22 -21 -49q0 -18 10 -31.5t22 -20t37 -17.5z" />
    <glyph glyph-name="dieresis" unicode="&#xa8;" 
d="M120 536v131h131v-131h-131zM349 536v131h131v-131h-131z" />
    <glyph glyph-name="copyright" unicode="&#xa9;" 
d="M299 123q-135 0 -135 154q0 158 139 158q121 0 126 -126h-80q-3 57 -49 57q-32 0 -43.5 -21.5t-11.5 -65.5t11.5 -65.5t44.5 -21.5q24 0 35 13.5t13 42.5h80q-6 -125 -130 -125zM300 21q-124 0 -186 73.5t-62 184.5q0 110 62 184t186 74t186 -73.5t62 -184.5
q0 -110 -62 -184t-186 -74zM300 83q92 0 135.5 55t43.5 141t-43.5 141t-135.5 55t-135.5 -55t-43.5 -141t43.5 -141t135.5 -55z" />
    <glyph glyph-name="ordfeminine" unicode="&#xaa;" 
d="M247 216q-53 0 -87 26t-34 78q0 56 40 80.5t101 24.5q54 0 85 -13v28q0 30 -11.5 46t-42.5 16q-56 0 -56 -47h-104q0 68 44 101.5t120 33.5q161 0 161 -141v-128q0 -18 19 -18q11 0 20 3v-73q-28 -17 -69 -17q-32 0 -47.5 15.5t-15.5 40.5v3q-44 -59 -123 -59zM282 292
q47 0 70 26v36q-25 5 -55 5q-59 0 -59 -34q0 -33 44 -33zM138 84v92h340v-92h-340z" />
    <glyph glyph-name="guillemotleft" unicode="&#xab;" 
d="M198 47l-150 186l150 186h118l-132 -186l132 -186h-118zM434 47l-150 186l150 186h118l-132 -186l132 -186h-118z" />
    <glyph glyph-name="logicalnot" unicode="&#xac;" 
d="M355 15v152h-237v116h365v-268h-128z" />
    <glyph glyph-name="uni00AD" unicode="&#xad;" 
d="M144 231v117h312v-117h-312z" />
    <glyph glyph-name="registered" unicode="&#xae;" 
d="M193 258v301h100q59 0 96.5 -24.5t37.5 -76.5q0 -56 -53 -84q38 -39 38 -116h-83q0 57 -26 98h-31v-98h-79zM300 150q-124 0 -186 73.5t-62 184.5q0 110 62 184t186 74t186 -73.5t62 -184.5q0 -110 -62 -184t-186 -74zM300 212q92 0 135.5 55t43.5 141t-43.5 141
t-135.5 55t-135.5 -55t-43.5 -141t43.5 -141t135.5 -55zM272 493v-74h21q53 0 53 37t-53 37h-21z" />
    <glyph glyph-name="macron" unicode="&#xaf;" 
d="M127 555v101h346v-101h-346z" />
    <glyph glyph-name="degree" unicode="&#xb0;" 
d="M300 231q-75 0 -126.5 50.5t-51.5 129.5t51.5 129t126.5 50t126.5 -50t51.5 -129t-51.5 -129.5t-126.5 -50.5zM300 323q36 0 58.5 24t22.5 64q0 39 -22.5 63t-58.5 24t-58.5 -24t-22.5 -63q0 -40 22.5 -64t58.5 -24z" />
    <glyph glyph-name="plusminus" unicode="&#xb1;" 
d="M236 132v166h-161v116h161v165h128v-165h161v-116h-161v-166h-128zM75 0v103h450v-103h-450z" />
    <glyph glyph-name="twosuperior" unicode="&#xb2;" 
d="M188 284v23q0 69 64 109l39 25q18 11 26.5 17t16.5 16t8 20q0 29 -43 29q-49 0 -52 -46h-74q1 50 36 78.5t93 28.5q51 0 85 -23t34 -64q0 -28 -15.5 -48.5t-49.5 -42.5l-41 -26q-31 -19 -34 -33h144v-63h-237z" />
    <glyph glyph-name="threesuperior" unicode="&#xb3;" 
d="M305 279q-63 0 -97.5 27t-36.5 74h74q6 -41 56 -41q51 0 51 32t-54 32h-20v60h19q49 0 49 29q0 31 -44 31q-22 0 -35 -11.5t-15 -29.5h-74q2 47 36 74.5t91 27.5q55 0 87.5 -24.5t32.5 -64.5q0 -41 -46 -63q53 -15 53 -68q0 -40 -38 -62.5t-89 -22.5z" />
    <glyph glyph-name="acute" unicode="&#xb4;" 
d="M189 505l78 204h144l-143 -204h-79z" />
    <glyph glyph-name="mu" unicode="&#xb5;" 
d="M90 -185v632h134v-339h33q44 0 72.5 12t38.5 25v302h134v-333q0 -13 5 -17.5t19 -4.5q15 0 35 4v-86q-40 -20 -93 -20q-77 0 -77 63v19q-49 -72 -150 -72h-17v-185h-134z" />
    <glyph glyph-name="paragraph" unicode="&#xb6;" 
d="M244 -185v373q-80 0 -138.5 48t-58.5 148q0 54 18.5 93.5t50 61t66.5 31t75 9.5h86v-764h-99zM244 282v204q-45 0 -69.5 -23t-24.5 -79t24.5 -79t69.5 -23zM428 -185v764h99v-764h-99z" />
    <glyph glyph-name="periodcentered" unicode="&#xb7;" 
d="M210 205v180h180v-180h-180z" />
    <glyph glyph-name="cedilla" unicode="&#xb8;" 
d="M296 -195q-68 0 -101 21l10 51q28 -11 55 -11q33 0 33 18q0 25 -77 39l17 77h61l-9 -39q120 -25 120 -88q0 -31 -28 -49.5t-81 -18.5z" />
    <glyph glyph-name="onesuperior" unicode="&#xb9;" 
d="M191 284v63h77v153q-21 -24 -70 -24h-13v66h26q58 0 77 37h57v-232h62v-63h-216z" />
    <glyph glyph-name="ordmasculine" unicode="&#xba;" 
d="M300 216q-79 0 -132.5 44t-53.5 143q0 100 54 143.5t132 43.5q79 0 132.5 -44t53.5 -143q0 -100 -54 -143.5t-132 -43.5zM300 310q69 0 69 93t-69 93t-69 -93t69 -93zM138 84v92h324v-92h-324z" />
    <glyph glyph-name="guillemotright" unicode="&#xbb;" 
d="M284 47l132 186l-132 186h118l150 -186l-150 -186h-118zM48 47l132 186l-132 186h118l150 -186l-150 -186h-118z" />
    <glyph glyph-name="onequarter" unicode="&#xbc;" 
d="M473 0v64h-159v47l164 184h62v-175h53v-56h-53v-64h-67zM393 120h80v89zM62 0l157 232h49v-50l-122 -182h-84zM332 347v50l122 182h84l-157 -232h-49zM41 284v63h77v153q-21 -24 -70 -24h-13v66h26q58 0 77 37h57v-232h62v-63h-216z" />
    <glyph glyph-name="onehalf" unicode="&#xbd;" 
d="M62 0l157 232h49v-50l-122 -182h-84zM332 347v50l122 182h84l-157 -232h-49zM338 0v23q0 69 64 109l39 25q18 11 26.5 17t16.5 16t8 20q0 29 -43 29q-49 0 -52 -46h-74q1 50 36 78.5t93 28.5q51 0 85 -23t34 -64q0 -28 -15.5 -48.5t-49.5 -42.5l-41 -26q-31 -19 -34 -33
h144v-63h-237zM41 284v63h77v153q-21 -24 -70 -24h-13v66h26q58 0 77 37h57v-232h62v-63h-216z" />
    <glyph glyph-name="threequarters" unicode="&#xbe;" 
d="M155 279q-63 0 -97.5 27t-36.5 74h74q6 -41 56 -41q51 0 51 32t-54 32h-20v60h19q49 0 49 29q0 31 -44 31q-22 0 -35 -11.5t-15 -29.5h-74q2 47 36 74.5t91 27.5q55 0 87.5 -24.5t32.5 -64.5q0 -41 -46 -63q53 -15 53 -68q0 -40 -38 -62.5t-89 -22.5zM473 0v64h-159v47
l164 184h62v-175h53v-56h-53v-64h-67zM393 120h80v89zM62 0l157 232h49v-50l-122 -182h-84zM332 347v50l122 182h84l-157 -232h-49z" />
    <glyph glyph-name="questiondown" unicode="&#xbf;" 
d="M301 -143q-101 0 -160 42t-59 117q0 69 54 118.5t173 113.5l46 -59q-79 -51 -106 -84t-27 -66q0 -73 85 -73q40 0 64 16t24 61h132q0 -93 -58.5 -139.5t-167.5 -46.5zM231 303v144h146v-144h-146z" />
    <glyph glyph-name="Agrave" unicode="&#xc0;" 
d="M295 616l-143 204h144l78 -204h-79zM25 0l202 579h145l203 -579h-147l-38 118h-183l-37 -118h-145zM249 259l-9 -33h115l-8 29l-50 180z" />
    <glyph glyph-name="Aacute" unicode="&#xc1;" 
d="M226 616l78 204h144l-143 -204h-79zM25 0l202 579h145l203 -579h-147l-38 118h-183l-37 -118h-145zM249 259l-9 -33h115l-8 29l-50 180z" />
    <glyph glyph-name="Acircumflex" unicode="&#xc2;" 
d="M114 616l130 204h112l130 -204h-86l-100 104l-100 -104h-86zM25 0l202 579h145l203 -579h-147l-38 118h-183l-37 -118h-145zM249 259l-9 -33h115l-8 29l-50 180z" />
    <glyph glyph-name="Atilde" unicode="&#xc3;" 
d="M154 629l-58 27q45 137 132 137q34 0 85 -32q42 -27 63 -27q39 0 70 59l58 -27q-45 -137 -132 -137q-35 0 -76 26q-52 33 -72 33q-39 0 -70 -59zM25 0l202 579h145l203 -579h-147l-38 118h-183l-37 -118h-145zM249 259l-9 -33h115l-8 29l-50 180z" />
    <glyph glyph-name="Adieresis" unicode="&#xc4;" 
d="M121 647v131h131v-131h-131zM350 647v131h131v-131h-131zM25 0l202 579h145l203 -579h-147l-38 118h-183l-37 -118h-145zM249 259l-9 -33h115l-8 29l-50 180z" />
    <glyph glyph-name="Aring" unicode="&#xc5;" 
d="M300 603q-59 0 -97.5 37t-38.5 94t38.5 94t97.5 37t97.5 -37t38.5 -94t-38.5 -94t-97.5 -37zM300 671q28 0 45.5 17.5t17.5 45.5t-17.5 45.5t-45.5 17.5t-45.5 -17.5t-17.5 -45.5t17.5 -45.5t45.5 -17.5zM25 0l202 579h145l203 -579h-147l-38 118h-183l-37 -118h-145z
M249 259l-9 -33h115l-8 29l-50 180z" />
    <glyph glyph-name="AE" unicode="&#xc6;" 
d="M2 0l81 579h481v-116h-163v-112h132v-116h-132v-119h163v-116h-301v235h-94l-33 -235h-134zM199 463l-16 -112h80v112h-64z" />
    <glyph glyph-name="Ccedilla" unicode="&#xc7;" 
d="M313 -195q-68 0 -101 21l10 51q28 -11 55 -11q33 0 33 18q0 25 -77 39l15 71q-202 29 -202 291q0 305 267 305q228 0 239 -232h-142q-4 59 -29 86t-76 27q-68 0 -92 -44.5t-24 -136.5q0 -93 24 -137t94 -44q52 0 75.5 26.5t27.5 85.5h142q-15 -230 -244 -231l-6 -29
q120 -25 120 -88q0 -31 -28 -49.5t-81 -18.5z" />
    <glyph glyph-name="Egrave" unicode="&#xc8;" 
d="M301 616l-143 204h144l78 -204h-79zM90 0v579h431v-116h-292v-110h246v-116h-246v-121h292v-116h-431z" />
    <glyph glyph-name="Eacute" unicode="&#xc9;" 
d="M232 616l78 204h144l-143 -204h-79zM90 0v579h431v-116h-292v-110h246v-116h-246v-121h292v-116h-431z" />
    <glyph glyph-name="Ecircumflex" unicode="&#xca;" 
d="M120 616l130 204h112l130 -204h-86l-100 104l-100 -104h-86zM90 0v579h431v-116h-292v-110h246v-116h-246v-121h292v-116h-431z" />
    <glyph glyph-name="Edieresis" unicode="&#xcb;" 
d="M127 647v131h131v-131h-131zM356 647v131h131v-131h-131zM90 0v579h431v-116h-292v-110h246v-116h-246v-121h292v-116h-431z" />
    <glyph glyph-name="Igrave" unicode="&#xcc;" 
d="M295 616l-143 204h144l78 -204h-79zM89 0v116h141v347h-141v116h422v-116h-142v-347h142v-116h-422z" />
    <glyph glyph-name="Iacute" unicode="&#xcd;" 
d="M226 616l78 204h144l-143 -204h-79zM89 0v116h141v347h-141v116h422v-116h-142v-347h142v-116h-422z" />
    <glyph glyph-name="Icircumflex" unicode="&#xce;" 
d="M114 616l130 204h112l130 -204h-86l-100 104l-100 -104h-86zM89 0v116h141v347h-141v116h422v-116h-142v-347h142v-116h-422z" />
    <glyph glyph-name="Idieresis" unicode="&#xcf;" 
d="M121 647v131h131v-131h-131zM350 647v131h131v-131h-131zM89 0v116h141v347h-141v116h422v-116h-142v-347h142v-116h-422z" />
    <glyph glyph-name="Eth" unicode="&#xd0;" 
d="M90 0v238h-50v101h50v240h191q142 0 207.5 -70.5t65.5 -213.5q0 -295 -273 -295h-191zM229 238v-122h52q75 0 102.5 41t27.5 133t-27.5 132.5t-102.5 40.5h-52v-124h88v-101h-88z" />
    <glyph glyph-name="Ntilde" unicode="&#xd1;" 
d="M154 629l-58 27q45 137 132 137q34 0 85 -32q42 -27 63 -27q39 0 70 59l58 -27q-45 -137 -132 -137q-35 0 -76 26q-52 33 -72 33q-39 0 -70 -59zM90 0v579h170l147 -445l-16 196v249h119v-579h-170l-147 445l16 -196v-249h-119z" />
    <glyph glyph-name="Ograve" unicode="&#xd2;" 
d="M295 616l-143 204h144l78 -204h-79zM297 -10q-126 0 -188.5 77t-62.5 220q0 144 63 223.5t193 79.5q128 0 190 -77.5t62 -218.5q0 -142 -63.5 -223t-193.5 -81zM300 109q66 0 88.5 46t22.5 135q0 90 -22.5 135.5t-88.5 45.5t-88.5 -45.5t-22.5 -135.5q0 -89 22.5 -135
t88.5 -46z" />
    <glyph glyph-name="Oacute" unicode="&#xd3;" 
d="M226 616l78 204h144l-143 -204h-79zM297 -10q-126 0 -188.5 77t-62.5 220q0 144 63 223.5t193 79.5q128 0 190 -77.5t62 -218.5q0 -142 -63.5 -223t-193.5 -81zM300 109q66 0 88.5 46t22.5 135q0 90 -22.5 135.5t-88.5 45.5t-88.5 -45.5t-22.5 -135.5q0 -89 22.5 -135
t88.5 -46z" />
    <glyph glyph-name="Ocircumflex" unicode="&#xd4;" 
d="M114 616l130 204h112l130 -204h-86l-100 104l-100 -104h-86zM297 -10q-126 0 -188.5 77t-62.5 220q0 144 63 223.5t193 79.5q128 0 190 -77.5t62 -218.5q0 -142 -63.5 -223t-193.5 -81zM300 109q66 0 88.5 46t22.5 135q0 90 -22.5 135.5t-88.5 45.5t-88.5 -45.5
t-22.5 -135.5q0 -89 22.5 -135t88.5 -46z" />
    <glyph glyph-name="Otilde" unicode="&#xd5;" 
d="M154 629l-58 27q45 137 132 137q34 0 85 -32q42 -27 63 -27q39 0 70 59l58 -27q-45 -137 -132 -137q-35 0 -76 26q-52 33 -72 33q-39 0 -70 -59zM297 -10q-126 0 -188.5 77t-62.5 220q0 144 63 223.5t193 79.5q128 0 190 -77.5t62 -218.5q0 -142 -63.5 -223t-193.5 -81z
M300 109q66 0 88.5 46t22.5 135q0 90 -22.5 135.5t-88.5 45.5t-88.5 -45.5t-22.5 -135.5q0 -89 22.5 -135t88.5 -46z" />
    <glyph glyph-name="Odieresis" unicode="&#xd6;" 
d="M121 647v131h131v-131h-131zM350 647v131h131v-131h-131zM297 -10q-126 0 -188.5 77t-62.5 220q0 144 63 223.5t193 79.5q128 0 190 -77.5t62 -218.5q0 -142 -63.5 -223t-193.5 -81zM300 109q66 0 88.5 46t22.5 135q0 90 -22.5 135.5t-88.5 45.5t-88.5 -45.5
t-22.5 -135.5q0 -89 22.5 -135t88.5 -46z" />
    <glyph glyph-name="multiply" unicode="&#xd7;" 
d="M147 -10l-81 82l151 151l-151 153l82 81l151 -152l153 152l81 -82l-152 -152l153 -151l-82 -82l-153 152z" />
    <glyph glyph-name="Oslash" unicode="&#xd8;" 
d="M297 -10q-101 0 -163 51l-36 -41h-94l83 97q-41 72 -41 190q0 144 63 223.5t193 79.5q101 0 164 -52l36 41h94l-84 -97q42 -74 42 -188q0 -142 -63.5 -223t-193.5 -81zM300 109q66 0 88.5 46t22.5 135q0 41 -4 69l-187 -217q27 -33 80 -33zM192 219l188 218
q-26 34 -80 34q-66 0 -88.5 -45.5t-22.5 -135.5q0 -49 3 -71z" />
    <glyph glyph-name="Ugrave" unicode="&#xd9;" 
d="M295 616l-143 204h144l78 -204h-79zM299 -10q-222 0 -222 228v361h140v-361q0 -60 20 -84.5t63 -24.5t63 24.5t20 84.5v361h140v-361q0 -228 -224 -228z" />
    <glyph glyph-name="Uacute" unicode="&#xda;" 
d="M226 616l78 204h144l-143 -204h-79zM299 -10q-222 0 -222 228v361h140v-361q0 -60 20 -84.5t63 -24.5t63 24.5t20 84.5v361h140v-361q0 -228 -224 -228z" />
    <glyph glyph-name="Ucircumflex" unicode="&#xdb;" 
d="M114 616l130 204h112l130 -204h-86l-100 104l-100 -104h-86zM299 -10q-222 0 -222 228v361h140v-361q0 -60 20 -84.5t63 -24.5t63 24.5t20 84.5v361h140v-361q0 -228 -224 -228z" />
    <glyph glyph-name="Udieresis" unicode="&#xdc;" 
d="M121 647v131h131v-131h-131zM350 647v131h131v-131h-131zM299 -10q-222 0 -222 228v361h140v-361q0 -60 20 -84.5t63 -24.5t63 24.5t20 84.5v361h140v-361q0 -228 -224 -228z" />
    <glyph glyph-name="Yacute" unicode="&#xdd;" 
d="M225 616l78 204h144l-143 -204h-79zM230 0v226l-214 353h166l65 -117l54 -124l61 124l66 117h155l-214 -352v-227h-139z" />
    <glyph glyph-name="Thorn" unicode="&#xde;" 
d="M90 0v579h139v-88h72q114 0 183 -47.5t69 -151.5q0 -102 -70.5 -150.5t-181.5 -48.5h-72v-93h-139zM229 377v-170h72q110 0 110 85t-110 85h-72z" />
    <glyph glyph-name="germandbls" unicode="&#xdf;" 
d="M371 -10q-61 0 -101 18v107q34 -16 75 -16q69 0 69 47q0 40 -45 70.5t-99 49.5v73q58 22 87.5 58t29.5 78q0 36 -21.5 58.5t-61.5 22.5q-86 0 -86 -123v-433h-133v428q0 110 55.5 174t168.5 64q101 0 158.5 -49t57.5 -126q0 -36 -13.5 -68t-35.5 -54t-40.5 -35.5
t-38.5 -23.5q60 -22 107.5 -69t47.5 -114q0 -63 -51 -100t-130 -37z" />
    <glyph glyph-name="agrave" unicode="&#xe0;" 
d="M301 505l-143 204h144l78 -204h-79zM222 -10q-71 0 -116.5 32.5t-45.5 96.5q0 48 28.5 78.5t69 41.5t93.5 11q67 0 118 -14v34q0 41 -16.5 62.5t-66.5 21.5q-86 0 -86 -64h-125q0 85 60 126t159 41q208 0 208 -176v-167q0 -23 24 -23q15 0 35 5v-86q-40 -20 -93 -20
q-78 0 -78 64v9q-58 -73 -168 -73zM258 82q36 0 67 10.5t44 22.5v46q-28 6 -87 6q-88 0 -88 -44q0 -41 64 -41z" />
    <glyph glyph-name="aacute" unicode="&#xe1;" 
d="M232 505l78 204h144l-143 -204h-79zM222 -10q-71 0 -116.5 32.5t-45.5 96.5q0 48 28.5 78.5t69 41.5t93.5 11q67 0 118 -14v34q0 41 -16.5 62.5t-66.5 21.5q-86 0 -86 -64h-125q0 85 60 126t159 41q208 0 208 -176v-167q0 -23 24 -23q15 0 35 5v-86q-40 -20 -93 -20
q-78 0 -78 64v9q-58 -73 -168 -73zM258 82q36 0 67 10.5t44 22.5v46q-28 6 -87 6q-88 0 -88 -44q0 -41 64 -41z" />
    <glyph glyph-name="acircumflex" unicode="&#xe2;" 
d="M120 505l130 204h112l130 -204h-86l-100 104l-100 -104h-86zM222 -10q-71 0 -116.5 32.5t-45.5 96.5q0 48 28.5 78.5t69 41.5t93.5 11q67 0 118 -14v34q0 41 -16.5 62.5t-66.5 21.5q-86 0 -86 -64h-125q0 85 60 126t159 41q208 0 208 -176v-167q0 -23 24 -23q15 0 35 5
v-86q-40 -20 -93 -20q-78 0 -78 64v9q-58 -73 -168 -73zM258 82q36 0 67 10.5t44 22.5v46q-28 6 -87 6q-88 0 -88 -44q0 -41 64 -41z" />
    <glyph glyph-name="atilde" unicode="&#xe3;" 
d="M160 518l-58 27q45 137 132 137q34 0 85 -32q42 -27 63 -27q39 0 70 59l58 -27q-45 -137 -132 -137q-35 0 -76 26q-52 33 -72 33q-39 0 -70 -59zM222 -10q-71 0 -116.5 32.5t-45.5 96.5q0 48 28.5 78.5t69 41.5t93.5 11q67 0 118 -14v34q0 41 -16.5 62.5t-66.5 21.5
q-86 0 -86 -64h-125q0 85 60 126t159 41q208 0 208 -176v-167q0 -23 24 -23q15 0 35 5v-86q-40 -20 -93 -20q-78 0 -78 64v9q-58 -73 -168 -73zM258 82q36 0 67 10.5t44 22.5v46q-28 6 -87 6q-88 0 -88 -44q0 -41 64 -41z" />
    <glyph glyph-name="adieresis" unicode="&#xe4;" 
d="M127 536v131h131v-131h-131zM356 536v131h131v-131h-131zM222 -10q-71 0 -116.5 32.5t-45.5 96.5q0 48 28.5 78.5t69 41.5t93.5 11q67 0 118 -14v34q0 41 -16.5 62.5t-66.5 21.5q-86 0 -86 -64h-125q0 85 60 126t159 41q208 0 208 -176v-167q0 -23 24 -23q15 0 35 5v-86
q-40 -20 -93 -20q-78 0 -78 64v9q-58 -73 -168 -73zM258 82q36 0 67 10.5t44 22.5v46q-28 6 -87 6q-88 0 -88 -44q0 -41 64 -41z" />
    <glyph glyph-name="aring" unicode="&#xe5;" 
d="M306 492q-59 0 -97.5 37t-38.5 94t38.5 94t97.5 37t97.5 -37t38.5 -94t-38.5 -94t-97.5 -37zM306 560q28 0 45.5 17t17.5 46t-17.5 46t-45.5 17t-45.5 -17t-17.5 -46t17.5 -46t45.5 -17zM222 -10q-71 0 -116.5 32.5t-45.5 96.5q0 48 28.5 78.5t69 41.5t93.5 11
q67 0 118 -14v34q0 41 -16.5 62.5t-66.5 21.5q-86 0 -86 -64h-125q0 85 60 126t159 41q208 0 208 -176v-167q0 -23 24 -23q15 0 35 5v-86q-40 -20 -93 -20q-78 0 -78 64v9q-58 -73 -168 -73zM258 82q36 0 67 10.5t44 22.5v46q-28 6 -87 6q-88 0 -88 -44q0 -41 64 -41z" />
    <glyph glyph-name="ae" unicode="&#xe6;" 
d="M160 -10q-61 0 -101.5 31.5t-40.5 95.5q0 66 43 95t106 29q41 0 83 -11v42q0 80 -59 80q-26 0 -40.5 -17t-14.5 -45h-112q0 75 45 121t118 46q83 0 118 -61q34 61 117 61q81 0 120.5 -61.5t39.5 -170.5v-18h-223q1 -65 16 -94t45 -29q47 0 50 56h112q-5 -71 -46 -110.5
t-113 -39.5q-84 0 -128 55q-53 -55 -135 -55zM193 76q39 0 75 20q-13 31 -17 67q-21 3 -43 3q-37 0 -55 -10t-18 -35q0 -45 58 -45zM360 272h113q-4 49 -17.5 71t-38.5 21q-26 1 -39.5 -20.5t-17.5 -71.5z" />
    <glyph glyph-name="ccedilla" unicode="&#xe7;" 
d="M314 -195q-68 0 -101 21l10 51q28 -11 55 -11q33 0 33 18q0 25 -77 39l16 71q-86 11 -140 66t-54 164q0 65 21 112.5t57.5 72.5t77.5 36.5t90 11.5q98 0 164.5 -45.5t72.5 -148.5h-136q-7 85 -100 85q-108 0 -108 -124t109 -124q92 0 99 84h136q-6 -99 -70.5 -145
t-158.5 -49l-7 -29q120 -25 120 -88q0 -31 -28 -49.5t-81 -18.5z" />
    <glyph glyph-name="egrave" unicode="&#xe8;" 
d="M295 505l-143 204h144l78 -204h-79zM307 -10q-112 0 -180 56t-68 175q0 65 21 112.5t57 73.5t77.5 38t89.5 12q49 0 90 -12.5t75 -38.5t53 -72.5t19 -109.5v-23h-346q0 -110 113 -110q38 0 63.5 12.5t29.5 36.5h138q-17 -79 -80 -114.5t-152 -35.5zM197 282h206
q-18 74 -103 74t-103 -74z" />
    <glyph glyph-name="eacute" unicode="&#xe9;" 
d="M226 505l78 204h144l-143 -204h-79zM307 -10q-112 0 -180 56t-68 175q0 65 21 112.5t57 73.5t77.5 38t89.5 12q49 0 90 -12.5t75 -38.5t53 -72.5t19 -109.5v-23h-346q0 -110 113 -110q38 0 63.5 12.5t29.5 36.5h138q-17 -79 -80 -114.5t-152 -35.5zM197 282h206
q-18 74 -103 74t-103 -74z" />
    <glyph glyph-name="ecircumflex" unicode="&#xea;" 
d="M114 505l130 204h112l130 -204h-86l-100 104l-100 -104h-86zM307 -10q-112 0 -180 56t-68 175q0 65 21 112.5t57 73.5t77.5 38t89.5 12q49 0 90 -12.5t75 -38.5t53 -72.5t19 -109.5v-23h-346q0 -110 113 -110q38 0 63.5 12.5t29.5 36.5h138q-17 -79 -80 -114.5
t-152 -35.5zM197 282h206q-18 74 -103 74t-103 -74z" />
    <glyph glyph-name="edieresis" unicode="&#xeb;" 
d="M121 536v131h131v-131h-131zM350 536v131h131v-131h-131zM307 -10q-112 0 -180 56t-68 175q0 65 21 112.5t57 73.5t77.5 38t89.5 12q49 0 90 -12.5t75 -38.5t53 -72.5t19 -109.5v-23h-346q0 -110 113 -110q38 0 63.5 12.5t29.5 36.5h138q-17 -79 -80 -114.5t-152 -35.5z
M197 282h206q-18 74 -103 74t-103 -74z" />
    <glyph glyph-name="igrave" unicode="&#xec;" 
d="M300 511l-143 204h144l78 -204h-79zM89 0v101h151v245h-151v101h285v-346h137v-101h-422z" />
    <glyph glyph-name="iacute" unicode="&#xed;" 
d="M231 511l78 204h144l-143 -204h-79zM89 0v101h151v245h-151v101h285v-346h137v-101h-422z" />
    <glyph glyph-name="icircumflex" unicode="&#xee;" 
d="M119 511l130 204h112l130 -204h-86l-100 104l-100 -104h-86zM89 0v101h151v245h-151v101h285v-346h137v-101h-422z" />
    <glyph glyph-name="idieresis" unicode="&#xef;" 
d="M126 542v131h131v-131h-131zM355 542v131h131v-131h-131zM89 0v101h151v245h-151v101h285v-346h137v-101h-422z" />
    <glyph glyph-name="eth" unicode="&#xf0;" 
d="M297 -10q-35 0 -67.5 7t-64.5 23.5t-56 41t-38.5 63t-14.5 86.5q0 101 58.5 159.5t144.5 58.5q46 0 72 -14l-42 75l-124 -31v102l74 18l-43 77h147l24 -45l123 31v-102l-75 -19l88 -161q41 -78 41 -155q0 -106 -74 -160.5t-173 -54.5zM300 100q106 0 106 112
q0 57 -28 84.5t-78 27.5t-78 -27.5t-28 -84.5q0 -112 106 -112z" />
    <glyph glyph-name="ntilde" unicode="&#xf1;" 
d="M154 518l-58 27q45 137 132 137q34 0 85 -32q42 -27 63 -27q39 0 70 59l58 -27q-45 -137 -132 -137q-35 0 -76 26q-52 33 -72 33q-39 0 -70 -59zM90 0v447h119v-60q47 70 144 70q68 0 112.5 -42t44.5 -138v-277h-134v253q0 49 -15.5 70.5t-54.5 21.5q-50 0 -82 -32v-313
h-134z" />
    <glyph glyph-name="ograve" unicode="&#xf2;" 
d="M295 505l-143 204h144l78 -204h-79zM297 -10q-47 0 -87.5 11.5t-76.5 37t-56.5 72.5t-20.5 111q0 66 21.5 113.5t58.5 73t78.5 37t88.5 11.5t88 -11.5t76.5 -37t56 -72t20.5 -110.5q0 -53 -14.5 -94.5t-38.5 -67.5t-57 -43t-66.5 -24t-70.5 -7zM300 100q105 0 105 124
t-105 124t-105 -124t105 -124z" />
    <glyph glyph-name="oacute" unicode="&#xf3;" 
d="M226 505l78 204h144l-143 -204h-79zM297 -10q-47 0 -87.5 11.5t-76.5 37t-56.5 72.5t-20.5 111q0 66 21.5 113.5t58.5 73t78.5 37t88.5 11.5t88 -11.5t76.5 -37t56 -72t20.5 -110.5q0 -53 -14.5 -94.5t-38.5 -67.5t-57 -43t-66.5 -24t-70.5 -7zM300 100q105 0 105 124
t-105 124t-105 -124t105 -124z" />
    <glyph glyph-name="ocircumflex" unicode="&#xf4;" 
d="M114 505l130 204h112l130 -204h-86l-100 104l-100 -104h-86zM297 -10q-47 0 -87.5 11.5t-76.5 37t-56.5 72.5t-20.5 111q0 66 21.5 113.5t58.5 73t78.5 37t88.5 11.5t88 -11.5t76.5 -37t56 -72t20.5 -110.5q0 -53 -14.5 -94.5t-38.5 -67.5t-57 -43t-66.5 -24t-70.5 -7z
M300 100q105 0 105 124t-105 124t-105 -124t105 -124z" />
    <glyph glyph-name="otilde" unicode="&#xf5;" 
d="M154 518l-58 27q45 137 132 137q34 0 85 -32q42 -27 63 -27q39 0 70 59l58 -27q-45 -137 -132 -137q-35 0 -76 26q-52 33 -72 33q-39 0 -70 -59zM297 -10q-47 0 -87.5 11.5t-76.5 37t-56.5 72.5t-20.5 111q0 66 21.5 113.5t58.5 73t78.5 37t88.5 11.5t88 -11.5t76.5 -37
t56 -72t20.5 -110.5q0 -53 -14.5 -94.5t-38.5 -67.5t-57 -43t-66.5 -24t-70.5 -7zM300 100q105 0 105 124t-105 124t-105 -124t105 -124z" />
    <glyph glyph-name="odieresis" unicode="&#xf6;" 
d="M121 536v131h131v-131h-131zM350 536v131h131v-131h-131zM297 -10q-47 0 -87.5 11.5t-76.5 37t-56.5 72.5t-20.5 111q0 66 21.5 113.5t58.5 73t78.5 37t88.5 11.5t88 -11.5t76.5 -37t56 -72t20.5 -110.5q0 -53 -14.5 -94.5t-38.5 -67.5t-57 -43t-66.5 -24t-70.5 -7z
M300 100q105 0 105 124t-105 124t-105 -124t105 -124z" />
    <glyph glyph-name="divide" unicode="&#xf7;" 
d="M210 0v161h180v-161h-180zM120 220v71h360v-71h-360zM210 347v160h180v-160h-180z" />
    <glyph glyph-name="oslash" unicode="&#xf8;" 
d="M297 -10q-94 0 -154 41l-34 -31h-101l86 79q-38 55 -38 143q0 66 21.5 113.5t58.5 73t78.5 37t88.5 11.5q93 0 155 -42l34 32h100l-86 -80q38 -56 38 -141q0 -53 -14.5 -94.5t-38.5 -67.5t-57 -43t-66.5 -24t-70.5 -7zM300 100q105 0 105 124q0 23 -5 46l-165 -153
q24 -17 65 -17zM199 176l166 154q-25 18 -65 18q-105 0 -105 -124q0 -29 4 -48z" />
    <glyph glyph-name="ugrave" unicode="&#xf9;" 
d="M294 505l-143 204h144l78 -204h-79zM247 -10q-68 0 -112.5 42t-44.5 138v277h134v-253q0 -49 15.5 -70.5t54.5 -21.5q50 0 82 32v313h134v-447h-119v60q-47 -70 -144 -70z" />
    <glyph glyph-name="uacute" unicode="&#xfa;" 
d="M225 505l78 204h144l-143 -204h-79zM247 -10q-68 0 -112.5 42t-44.5 138v277h134v-253q0 -49 15.5 -70.5t54.5 -21.5q50 0 82 32v313h134v-447h-119v60q-47 -70 -144 -70z" />
    <glyph glyph-name="ucircumflex" unicode="&#xfb;" 
d="M113 505l130 204h112l130 -204h-86l-100 104l-100 -104h-86zM247 -10q-68 0 -112.5 42t-44.5 138v277h134v-253q0 -49 15.5 -70.5t54.5 -21.5q50 0 82 32v313h134v-447h-119v60q-47 -70 -144 -70z" />
    <glyph glyph-name="udieresis" unicode="&#xfc;" 
d="M120 536v131h131v-131h-131zM349 536v131h131v-131h-131zM247 -10q-68 0 -112.5 42t-44.5 138v277h134v-253q0 -49 15.5 -70.5t54.5 -21.5q50 0 82 32v313h134v-447h-119v60q-47 -70 -144 -70z" />
    <glyph glyph-name="yacute" unicode="&#xfd;" 
d="M225 505l78 204h144l-143 -204h-79zM55 -190v109q73 0 112.5 22t61.5 70l-200 436h153l76 -185l45 -131l45 131l76 185h147l-185 -410q-40 -88 -78 -134t-98 -69.5t-155 -23.5z" />
    <glyph glyph-name="thorn" unicode="&#xfe;" 
d="M89 -185v841h134v-256q17 20 51 38.5t83 18.5q84 0 136 -56.5t52 -176.5q0 -119 -54 -176.5t-134 -57.5q-49 0 -83 18.5t-51 38.5v-232h-134zM312 102q94 0 94 122t-94 122q-54 0 -89 -33v-178q35 -33 89 -33z" />
    <glyph glyph-name="ydieresis" unicode="&#xff;" 
d="M120 536v131h131v-131h-131zM349 536v131h131v-131h-131zM55 -190v109q73 0 112.5 22t61.5 70l-200 436h153l76 -185l45 -131l45 131l76 185h147l-185 -410q-40 -88 -78 -134t-98 -69.5t-155 -23.5z" />
    <glyph glyph-name="Amacron" unicode="&#x100;" 
d="M127 666v101h346v-101h-346zM25 0l202 579h145l203 -579h-147l-38 118h-183l-37 -118h-145zM249 259l-9 -33h115l-8 29l-50 180z" />
    <glyph glyph-name="amacron" unicode="&#x101;" 
d="M133 555v101h346v-101h-346zM222 -10q-71 0 -116.5 32.5t-45.5 96.5q0 48 28.5 78.5t69 41.5t93.5 11q67 0 118 -14v34q0 41 -16.5 62.5t-66.5 21.5q-86 0 -86 -64h-125q0 85 60 126t159 41q208 0 208 -176v-167q0 -23 24 -23q15 0 35 5v-86q-40 -20 -93 -20
q-78 0 -78 64v9q-58 -73 -168 -73zM258 82q36 0 67 10.5t44 22.5v46q-28 6 -87 6q-88 0 -88 -44q0 -41 64 -41z" />
    <glyph glyph-name="Abreve" unicode="&#x102;" 
d="M300 624q-45 0 -83.5 16t-62.5 40t-37.5 45t-18.5 36l49 41q20 -27 59 -51.5t94 -24.5t94 24.5t59 51.5l49 -41q-5 -15 -18.5 -36t-37.5 -45t-62.5 -40t-83.5 -16zM25 0l202 579h145l203 -579h-147l-38 118h-183l-37 -118h-145zM249 259l-9 -33h115l-8 29l-50 180z" />
    <glyph glyph-name="abreve" unicode="&#x103;" 
d="M306 513q-45 0 -83.5 16t-62.5 40t-37.5 45t-18.5 36l49 41q20 -27 59 -51.5t94 -24.5t94 24.5t59 51.5l49 -41q-5 -15 -18.5 -36t-37.5 -45t-62.5 -40t-83.5 -16zM222 -10q-71 0 -116.5 32.5t-45.5 96.5q0 48 28.5 78.5t69 41.5t93.5 11q67 0 118 -14v34
q0 41 -16.5 62.5t-66.5 21.5q-86 0 -86 -64h-125q0 85 60 126t159 41q208 0 208 -176v-167q0 -23 24 -23q15 0 35 5v-86q-40 -20 -93 -20q-78 0 -78 64v9q-58 -73 -168 -73zM258 82q36 0 67 10.5t44 22.5v46q-28 6 -87 6q-88 0 -88 -44q0 -41 64 -41z" />
    <glyph glyph-name="Aogonek" unicode="&#x104;" 
d="M473 -195q-50 0 -78 18t-28 48q0 20 12 39t35.5 36t42 28t48.5 26h-77l-38 118h-183l-37 -118h-145l202 579h145l203 -579q-55 -44 -75.5 -66t-20.5 -40q0 -26 36 -26q25 0 48 9l11 -52q-42 -20 -101 -20zM249 259l-9 -33h115l-8 29l-50 180z" />
    <glyph glyph-name="aogonek" unicode="&#x105;" 
d="M460 -195q-50 0 -78 18t-28 48q0 60 105 119q-69 0 -69 64v9q-58 -73 -168 -73q-71 0 -116.5 32.5t-45.5 96.5q0 48 28.5 78.5t69 41.5t93.5 11q67 0 118 -14v34q0 41 -16.5 62.5t-66.5 21.5q-86 0 -86 -64h-125q0 85 60 126t159 41q208 0 208 -176v-167q0 -22 24 -22
q19 0 35 4v-86q-95 -77 -95 -116q0 -26 36 -26q26 0 48 9l11 -52q-43 -20 -101 -20zM258 82q36 0 67 10.5t44 22.5v46q-28 6 -87 6q-88 0 -88 -44q0 -41 64 -41z" />
    <glyph glyph-name="Cacute" unicode="&#x106;" 
d="M226 616l78 204h144l-143 -204h-79zM306 -10q-260 0 -260 295q0 305 267 305q228 0 239 -232h-142q-4 59 -29 86t-76 27q-68 0 -92 -44.5t-24 -136.5q0 -93 24 -137t94 -44q52 0 75.5 26.5t27.5 85.5h142q-15 -231 -246 -231z" />
    <glyph glyph-name="cacute" unicode="&#x107;" 
d="M227 505l78 204h144l-143 -204h-79zM300 -10q-48 0 -89 11.5t-77 37t-57 73t-21 112.5t21 112.5t57.5 72.5t77.5 36.5t90 11.5q98 0 164.5 -45.5t72.5 -148.5h-136q-7 85 -100 85q-108 0 -108 -124t109 -124q92 0 99 84h136q-6 -102 -74 -148t-165 -46z" />
    <glyph glyph-name="Ccircumflex" unicode="&#x108;" 
d="M114 616l130 204h112l130 -204h-86l-100 104l-100 -104h-86zM306 -10q-260 0 -260 295q0 305 267 305q228 0 239 -232h-142q-4 59 -29 86t-76 27q-68 0 -92 -44.5t-24 -136.5q0 -93 24 -137t94 -44q52 0 75.5 26.5t27.5 85.5h142q-15 -231 -246 -231z" />
    <glyph glyph-name="ccircumflex" unicode="&#x109;" 
d="M115 505l130 204h112l130 -204h-86l-100 104l-100 -104h-86zM300 -10q-48 0 -89 11.5t-77 37t-57 73t-21 112.5t21 112.5t57.5 72.5t77.5 36.5t90 11.5q98 0 164.5 -45.5t72.5 -148.5h-136q-7 85 -100 85q-108 0 -108 -124t109 -124q92 0 99 84h136q-6 -102 -74 -148
t-165 -46z" />
    <glyph glyph-name="Cdotaccent" unicode="&#x10a;" 
d="M235 647v131h131v-131h-131zM306 -10q-260 0 -260 295q0 305 267 305q228 0 239 -232h-142q-4 59 -29 86t-76 27q-68 0 -92 -44.5t-24 -136.5q0 -93 24 -137t94 -44q52 0 75.5 26.5t27.5 85.5h142q-15 -231 -246 -231z" />
    <glyph glyph-name="cdotaccent" unicode="&#x10b;" 
d="M236 536v131h131v-131h-131zM300 -10q-48 0 -89 11.5t-77 37t-57 73t-21 112.5t21 112.5t57.5 72.5t77.5 36.5t90 11.5q98 0 164.5 -45.5t72.5 -148.5h-136q-7 85 -100 85q-108 0 -108 -124t109 -124q92 0 99 84h136q-6 -102 -74 -148t-165 -46z" />
    <glyph glyph-name="Ccaron" unicode="&#x10c;" 
d="M244 616l-130 204h86l100 -104l100 104h86l-130 -204h-112zM306 -10q-260 0 -260 295q0 305 267 305q228 0 239 -232h-142q-4 59 -29 86t-76 27q-68 0 -92 -44.5t-24 -136.5q0 -93 24 -137t94 -44q52 0 75.5 26.5t27.5 85.5h142q-15 -231 -246 -231z" />
    <glyph glyph-name="ccaron" unicode="&#x10d;" 
d="M245 505l-130 204h86l100 -104l100 104h86l-130 -204h-112zM300 -10q-48 0 -89 11.5t-77 37t-57 73t-21 112.5t21 112.5t57.5 72.5t77.5 36.5t90 11.5q98 0 164.5 -45.5t72.5 -148.5h-136q-7 85 -100 85q-108 0 -108 -124t109 -124q92 0 99 84h136q-6 -102 -74 -148
t-165 -46z" />
    <glyph glyph-name="Dcaron" unicode="&#x10e;" 
d="M244 616l-130 204h86l100 -104l100 104h86l-130 -204h-112zM90 0v579h191q142 0 207.5 -70.5t65.5 -213.5q0 -295 -273 -295h-191zM229 463v-347h52q75 0 102.5 41t27.5 133t-27.5 132.5t-102.5 40.5h-52z" />
    <glyph glyph-name="dcaron" unicode="&#x10f;" 
d="M229 -10q-82 0 -128 59t-46 170q0 115 49 176.5t131 61.5q70 0 116 -46v245h134v-656h-119v60q-54 -70 -137 -70zM278 102q42 0 73 26v195q-25 23 -69 23q-49 0 -68.5 -32t-19.5 -91q0 -121 84 -121zM553 435q-34 0 -34 36q0 9 3 33l17 152h129l-74 -193q-10 -28 -41 -28
z" />
    <glyph glyph-name="Dcroat" unicode="&#x110;" 
d="M90 0v238h-50v101h50v240h191q142 0 207.5 -70.5t65.5 -213.5q0 -295 -273 -295h-191zM229 238v-122h52q75 0 102.5 41t27.5 133t-27.5 132.5t-102.5 40.5h-52v-124h88v-101h-88z" />
    <glyph glyph-name="dcroat" unicode="&#x111;" 
d="M243 -10q-83 0 -135.5 59t-52.5 174q0 117 54 175.5t134 58.5q85 0 134 -58v97h-94v97h94v63h134v-63h49v-97h-49v-496h-119v60q-19 -28 -58 -49t-91 -21zM288 102q54 0 89 33v178q-35 33 -89 33q-94 0 -94 -122t94 -122z" />
    <glyph glyph-name="Emacron" unicode="&#x112;" 
d="M133 666v101h346v-101h-346zM90 0v579h431v-116h-292v-110h246v-116h-246v-121h292v-116h-431z" />
    <glyph glyph-name="emacron" unicode="&#x113;" 
d="M127 555v101h346v-101h-346zM307 -10q-112 0 -180 56t-68 175q0 65 21 112.5t57 73.5t77.5 38t89.5 12q49 0 90 -12.5t75 -38.5t53 -72.5t19 -109.5v-23h-346q0 -110 113 -110q38 0 63.5 12.5t29.5 36.5h138q-17 -79 -80 -114.5t-152 -35.5zM197 282h206q-18 74 -103 74
t-103 -74z" />
    <glyph glyph-name="Ebreve" unicode="&#x114;" 
d="M306 624q-45 0 -83.5 16t-62.5 40t-37.5 45t-18.5 36l49 41q20 -27 59 -51.5t94 -24.5t94 24.5t59 51.5l49 -41q-5 -15 -18.5 -36t-37.5 -45t-62.5 -40t-83.5 -16zM90 0v579h431v-116h-292v-110h246v-116h-246v-121h292v-116h-431z" />
    <glyph glyph-name="ebreve" unicode="&#x115;" 
d="M300 513q-45 0 -83.5 16t-62.5 40t-37.5 45t-18.5 36l49 41q20 -27 59 -51.5t94 -24.5t94 24.5t59 51.5l49 -41q-5 -15 -18.5 -36t-37.5 -45t-62.5 -40t-83.5 -16zM307 -10q-112 0 -180 56t-68 175q0 65 21 112.5t57 73.5t77.5 38t89.5 12q49 0 90 -12.5t75 -38.5
t53 -72.5t19 -109.5v-23h-346q0 -110 113 -110q38 0 63.5 12.5t29.5 36.5h138q-17 -79 -80 -114.5t-152 -35.5zM197 282h206q-18 74 -103 74t-103 -74z" />
    <glyph glyph-name="Edotaccent" unicode="&#x116;" 
d="M241 647v131h131v-131h-131zM90 0v579h431v-116h-292v-110h246v-116h-246v-121h292v-116h-431z" />
    <glyph glyph-name="edotaccent" unicode="&#x117;" 
d="M235 536v131h131v-131h-131zM307 -10q-112 0 -180 56t-68 175q0 65 21 112.5t57 73.5t77.5 38t89.5 12q49 0 90 -12.5t75 -38.5t53 -72.5t19 -109.5v-23h-346q0 -110 113 -110q38 0 63.5 12.5t29.5 36.5h138q-17 -79 -80 -114.5t-152 -35.5zM197 282h206q-18 74 -103 74
t-103 -74z" />
    <glyph glyph-name="Eogonek" unicode="&#x118;" 
d="M420 -195q-50 0 -78 18t-28 48q0 20 12 39t35.5 36t42 28t48.5 26h-362v579h431v-116h-292v-110h246v-116h-246v-121h292v-116q-54 -45 -74.5 -66.5t-20.5 -39.5q0 -26 36 -26q26 0 48 9l11 -52q-43 -20 -101 -20z" />
    <glyph glyph-name="eogonek" unicode="&#x119;" 
d="M327 -195q-50 0 -78 18t-28 48q0 61 116 121q-12 -2 -31 -2q-112 0 -179.5 56t-67.5 175q0 65 21 112.5t57 73.5t77.5 38t89.5 12q49 0 90 -12.5t75 -38.5t53 -72.5t19 -109.5v-23h-346q0 -110 113 -110q38 0 63.5 12.5t29.5 36.5h138q-15 -70 -72 -109
q-134 -91 -134 -137q0 -26 36 -26q25 0 48 9l11 -52q-43 -20 -101 -20zM197 282h206q-18 74 -103 74t-103 -74z" />
    <glyph glyph-name="Ecaron" unicode="&#x11a;" 
d="M250 616l-130 204h86l100 -104l100 104h86l-130 -204h-112zM90 0v579h431v-116h-292v-110h246v-116h-246v-121h292v-116h-431z" />
    <glyph glyph-name="ecaron" unicode="&#x11b;" 
d="M244 505l-130 204h86l100 -104l100 104h86l-130 -204h-112zM307 -10q-112 0 -180 56t-68 175q0 65 21 112.5t57 73.5t77.5 38t89.5 12q49 0 90 -12.5t75 -38.5t53 -72.5t19 -109.5v-23h-346q0 -110 113 -110q38 0 63.5 12.5t29.5 36.5h138q-17 -79 -80 -114.5t-152 -35.5
zM197 282h206q-18 74 -103 74t-103 -74z" />
    <glyph glyph-name="Gcircumflex" unicode="&#x11c;" 
d="M106 616l130 204h112l130 -204h-86l-100 104l-100 -104h-86zM257 -10q-108 0 -159.5 80.5t-51.5 214.5q0 305 260 305q111 0 166.5 -54t59.5 -149h-138q-6 41 -27 62.5t-66 21.5q-46 0 -71.5 -24.5t-33 -60.5t-7.5 -95q0 -94 23 -138t89 -44q56 0 95 32v80h-109v100h244
v-321h-120v60q-51 -70 -154 -70z" />
    <glyph glyph-name="gcircumflex" unicode="&#x11d;" 
d="M97 505l130 204h112l130 -204h-86l-100 104l-100 -104h-86zM279 -195q-208 0 -214 177h128q4 -37 23.5 -58.5t69.5 -21.5q56 0 73.5 26.5t17.5 75.5v69q-49 -56 -130 -56q-84 0 -138 56.5t-54 161.5q0 106 54.5 164t138.5 58q50 0 88 -20t56 -47v57h119v-454
q0 -188 -232 -188zM290 126q50 0 87 33v156q-37 33 -87 33q-96 0 -96 -111t96 -111z" />
    <glyph glyph-name="Gbreve" unicode="&#x11e;" 
d="M292 624q-45 0 -83.5 16t-62.5 40t-37.5 45t-18.5 36l49 41q20 -27 59 -51.5t94 -24.5t94 24.5t59 51.5l49 -41q-5 -15 -18.5 -36t-37.5 -45t-62.5 -40t-83.5 -16zM257 -10q-108 0 -159.5 80.5t-51.5 214.5q0 305 260 305q111 0 166.5 -54t59.5 -149h-138q-6 41 -27 62.5
t-66 21.5q-46 0 -71.5 -24.5t-33 -60.5t-7.5 -95q0 -94 23 -138t89 -44q56 0 95 32v80h-109v100h244v-321h-120v60q-51 -70 -154 -70z" />
    <glyph glyph-name="gbreve" unicode="&#x11f;" 
d="M283 513q-45 0 -83.5 16t-62.5 40t-37.5 45t-18.5 36l49 41q20 -27 59 -51.5t94 -24.5t94 24.5t59 51.5l49 -41q-5 -15 -18.5 -36t-37.5 -45t-62.5 -40t-83.5 -16zM279 -195q-208 0 -214 177h128q4 -37 23.5 -58.5t69.5 -21.5q56 0 73.5 26.5t17.5 75.5v69
q-49 -56 -130 -56q-84 0 -138 56.5t-54 161.5q0 106 54.5 164t138.5 58q50 0 88 -20t56 -47v57h119v-454q0 -188 -232 -188zM290 126q50 0 87 33v156q-37 33 -87 33q-96 0 -96 -111t96 -111z" />
    <glyph glyph-name="Gdotaccent" unicode="&#x120;" 
d="M227 647v131h131v-131h-131zM257 -10q-108 0 -159.5 80.5t-51.5 214.5q0 305 260 305q111 0 166.5 -54t59.5 -149h-138q-6 41 -27 62.5t-66 21.5q-46 0 -71.5 -24.5t-33 -60.5t-7.5 -95q0 -94 23 -138t89 -44q56 0 95 32v80h-109v100h244v-321h-120v60q-51 -70 -154 -70z
" />
    <glyph glyph-name="gdotaccent" unicode="&#x121;" 
d="M218 536v131h131v-131h-131zM279 -195q-208 0 -214 177h128q4 -37 23.5 -58.5t69.5 -21.5q56 0 73.5 26.5t17.5 75.5v69q-49 -56 -130 -56q-84 0 -138 56.5t-54 161.5q0 106 54.5 164t138.5 58q50 0 88 -20t56 -47v57h119v-454q0 -188 -232 -188zM290 126q50 0 87 33v156
q-37 33 -87 33q-96 0 -96 -111t96 -111z" />
    <glyph glyph-name="Gcommaaccent" unicode="&#x122;" 
d="M243 -265q-34 0 -34 36q0 9 3 33l17 152h129l-74 -193q-10 -28 -41 -28zM257 -10q-108 0 -159.5 80.5t-51.5 214.5q0 305 260 305q111 0 166.5 -54t59.5 -149h-138q-6 41 -27 62.5t-66 21.5q-46 0 -71.5 -24.5t-33 -60.5t-7.5 -95q0 -94 23 -138t89 -44q56 0 95 32v80
h-109v100h244v-321h-120v60q-51 -70 -154 -70z" />
    <glyph glyph-name="gcommaaccent" unicode="&#x123;" 
d="M208 509l74 193q10 28 41 28q34 0 34 -36q0 -9 -3 -33l-17 -152h-129zM279 -195q-208 0 -214 177h128q4 -37 23.5 -58.5t69.5 -21.5q56 0 73.5 26.5t17.5 75.5v69q-49 -56 -130 -56q-84 0 -138 56.5t-54 161.5q0 106 54.5 164t138.5 58q50 0 88 -20t56 -47v57h119v-454
q0 -188 -232 -188zM290 126q50 0 87 33v156q-37 33 -87 33q-96 0 -96 -111t96 -111z" />
    <glyph glyph-name="Hcircumflex" unicode="&#x124;" 
d="M114 616l130 204h112l130 -204h-86l-100 104l-100 -104h-86zM90 0v579h139v-226h142v226h139v-579h-139v237h-142v-237h-139z" />
    <glyph glyph-name="hcircumflex" unicode="&#x125;" 
d="M-28 656l130 204h112l130 -204h-86l-100 104l-100 -104h-86zM90 0v656h134v-258q49 59 132 59q154 0 154 -180v-277h-134v253q0 49 -15.5 70.5t-54.5 21.5q-53 0 -82 -32v-313h-134z" />
    <glyph glyph-name="Hbar" unicode="&#x126;" 
d="M90 0v423h-46v91h46v65h139v-65h142v65h139v-65h46v-91h-46v-423h-139v237h-142v-237h-139zM229 423v-70h142v70h-142z" />
    <glyph glyph-name="hbar" unicode="&#x127;" 
d="M90 0v496h-50v97h50v63h134v-63h93v-97h-93v-98q49 59 132 59q154 0 154 -180v-277h-134v253q0 49 -15.5 70.5t-54.5 21.5q-53 0 -82 -32v-313h-134z" />
    <glyph glyph-name="Itilde" unicode="&#x128;" 
d="M154 629l-58 27q45 137 132 137q34 0 85 -32q42 -27 63 -27q39 0 70 59l58 -27q-45 -137 -132 -137q-35 0 -76 26q-52 33 -72 33q-39 0 -70 -59zM89 0v116h141v347h-141v116h422v-116h-142v-347h142v-116h-422z" />
    <glyph glyph-name="itilde" unicode="&#x129;" 
d="M159 524l-58 27q45 137 132 137q34 0 85 -32q42 -27 63 -27q39 0 70 59l58 -27q-45 -137 -132 -137q-35 0 -76 26q-52 33 -72 33q-39 0 -70 -59zM89 0v101h151v245h-151v101h285v-346h137v-101h-422z" />
    <glyph glyph-name="Imacron" unicode="&#x12a;" 
d="M127 666v101h346v-101h-346zM89 0v116h141v347h-141v116h422v-116h-142v-347h142v-116h-422z" />
    <glyph glyph-name="imacron" unicode="&#x12b;" 
d="M132 561v101h346v-101h-346zM89 0v101h151v245h-151v101h285v-346h137v-101h-422z" />
    <glyph glyph-name="Ibreve" unicode="&#x12c;" 
d="M300 624q-45 0 -83.5 16t-62.5 40t-37.5 45t-18.5 36l49 41q20 -27 59 -51.5t94 -24.5t94 24.5t59 51.5l49 -41q-5 -15 -18.5 -36t-37.5 -45t-62.5 -40t-83.5 -16zM89 0v116h141v347h-141v116h422v-116h-142v-347h142v-116h-422z" />
    <glyph glyph-name="ibreve" unicode="&#x12d;" 
d="M305 519q-45 0 -83.5 16t-62.5 40t-37.5 45t-18.5 36l49 41q20 -27 59 -51.5t94 -24.5t94 24.5t59 51.5l49 -41q-5 -15 -18.5 -36t-37.5 -45t-62.5 -40t-83.5 -16zM89 0v101h151v245h-151v101h285v-346h137v-101h-422z" />
    <glyph glyph-name="Iogonek" unicode="&#x12e;" 
d="M293 -195q-50 0 -78 18t-28 48q0 20 12 39t35.5 36t42 28t48.5 26h-236v116h141v347h-141v116h422v-116h-142v-347h142v-116h-117q-54 -45 -74.5 -66.5t-20.5 -39.5q0 -26 36 -26q25 0 48 9l11 -52q-43 -20 -101 -20z" />
    <glyph glyph-name="iogonek" unicode="&#x12f;" 
d="M285 -195q-50 0 -78 18t-28 48q0 20 12 39t35.5 36t42 28t48.5 26h-228v101h151v245h-151v101h285v-346h137v-101h-125q-54 -45 -74.5 -66.5t-20.5 -39.5q0 -26 36 -26q25 0 48 9l11 -52q-43 -20 -101 -20zM228 518v138h158v-138h-158z" />
    <glyph glyph-name="Idotaccent" unicode="&#x130;" 
d="M235 647v131h131v-131h-131zM89 0v116h141v347h-141v116h422v-116h-142v-347h142v-116h-422z" />
    <glyph glyph-name="dotlessi" unicode="&#x131;" 
d="M89 0v101h151v245h-151v101h285v-346h137v-101h-422z" />
    <glyph glyph-name="IJ" unicode="&#x132;" 
d="M299 -10q-222 0 -222 228v7h140v-7q0 -60 20 -84.5t63 -24.5t63 24.5t20 84.5v361h140v-361q0 -228 -224 -228zM77 318v261h140v-261h-140z" />
    <glyph glyph-name="ij" unicode="&#x133;" 
d="M197 -190v100q94 0 136.5 37.5t42.5 130.5v369h134v-381q0 -74 -23 -125.5t-67.5 -79t-98 -39.5t-124.5 -12zM90 0v447h134v-447h-134zM78 518v138h158v-138h-158zM364 518v138h158v-138h-158z" />
    <glyph glyph-name="Jcircumflex" unicode="&#x134;" 
d="M265 616l130 204h112l130 -204h-86l-100 104l-100 -104h-86zM290 -10q-114 0 -172.5 59.5t-58.5 158.5q0 40 4 56h139q-3 -16 -3 -47q0 -108 91 -108q92 0 92 116v354h139v-354q0 -113 -58.5 -174t-172.5 -61z" />
    <glyph glyph-name="jcircumflex" unicode="&#x135;" 
d="M176 505l130 204h112l130 -204h-86l-100 104l-100 -104h-86zM115 -190v100q94 0 136.5 37.5t42.5 130.5v268h-172v101h306v-376q0 -76 -23 -128.5t-67.5 -80.5t-98 -40t-124.5 -12z" />
    <glyph glyph-name="Kcommaaccent" unicode="&#x136;" 
d="M283 -265q-34 0 -34 36q0 9 3 33l17 152h129l-74 -193q-10 -28 -41 -28zM90 0v579h139v-218l180 218h167l-203 -227l213 -352h-166l-142 248l-49 -53v-195h-139z" />
    <glyph glyph-name="kcommaaccent" unicode="&#x137;" 
d="M280 -265q-34 0 -34 36q0 9 3 33l17 152h129l-74 -193q-10 -28 -41 -28zM90 0v656h134v-353l164 144h179l-189 -161l201 -286h-162l-136 212l-57 -45v-167h-134z" />
    <glyph glyph-name="kgreenlandic" unicode="&#x138;" 
d="M90 0v447h134v-144l164 144h179l-189 -161l201 -286h-162l-136 212l-57 -45v-167h-134z" />
    <glyph glyph-name="Lacute" unicode="&#x139;" 
d="M85 616l78 204h144l-143 -204h-79zM90 0v579h139v-463h297v-116h-436z" />
    <glyph glyph-name="lacute" unicode="&#x13a;" 
d="M227 684l78 204h144l-143 -204h-79zM89 0v101h144v453h-144v102h278v-555h144v-101h-422z" />
    <glyph glyph-name="Lcommaaccent" unicode="&#x13b;" 
d="M268 -265q-34 0 -34 36q0 9 3 33l17 152h129l-74 -193q-10 -28 -41 -28zM90 0v579h139v-463h297v-116h-436z" />
    <glyph glyph-name="lcommaaccent" unicode="&#x13c;" 
d="M257 -265q-34 0 -34 36q0 9 3 33l17 152h129l-74 -193q-10 -28 -41 -28zM89 0v101h144v453h-144v102h278v-555h144v-101h-422z" />
    <glyph glyph-name="Lcaron" unicode="&#x13d;" 
d="M493 579l-74 -193q-10 -28 -41 -28q-34 0 -34 36q0 9 3 33l17 152h129zM90 0v579h139v-463h297v-116h-436z" />
    <glyph glyph-name="lcaron" unicode="&#x13e;" 
d="M575 656l-74 -193q-10 -28 -41 -28q-34 0 -34 36q0 9 3 33l17 152h129zM89 0v101h144v453h-144v102h278v-555h144v-101h-422z" />
    <glyph glyph-name="Ldot" unicode="&#x13f;" 
d="M90 0v579h139v-463h297v-116h-436zM369 234v162h162v-162h-162z" />
    <glyph glyph-name="ldot" unicode="&#x140;" 
d="M89 0v101h144v453h-144v102h278v-555h144v-101h-422zM447 206v162h162v-162h-162z" />
    <glyph glyph-name="Lslash" unicode="&#x141;" 
d="M90 0v242l-60 -15v103l60 15v234h139v-200l127 32v-102l-127 -32v-161h297v-116h-436z" />
    <glyph glyph-name="lslash" unicode="&#x142;" 
d="M89 0v101h144v149l-94 -23v103l94 23v201h-144v102h278v-270l98 25v-102l-98 -25v-183h144v-101h-422z" />
    <glyph glyph-name="Nacute" unicode="&#x143;" 
d="M226 616l78 204h144l-143 -204h-79zM90 0v579h170l147 -445l-16 196v249h119v-579h-170l-147 445l16 -196v-249h-119z" />
    <glyph glyph-name="nacute" unicode="&#x144;" 
d="M226 505l78 204h144l-143 -204h-79zM90 0v447h119v-60q47 70 144 70q68 0 112.5 -42t44.5 -138v-277h-134v253q0 49 -15.5 70.5t-54.5 21.5q-50 0 -82 -32v-313h-134z" />
    <glyph glyph-name="Ncommaaccent" unicode="&#x145;" 
d="M257 -265q-34 0 -34 36q0 9 3 33l17 152h129l-74 -193q-10 -28 -41 -28zM90 0v579h170l147 -445l-16 196v249h119v-579h-170l-147 445l16 -196v-249h-119z" />
    <glyph glyph-name="ncommaaccent" unicode="&#x146;" 
d="M257 -265q-34 0 -34 36q0 9 3 33l17 152h129l-74 -193q-10 -28 -41 -28zM90 0v447h119v-60q47 70 144 70q68 0 112.5 -42t44.5 -138v-277h-134v253q0 49 -15.5 70.5t-54.5 21.5q-50 0 -82 -32v-313h-134z" />
    <glyph glyph-name="Ncaron" unicode="&#x147;" 
d="M244 616l-130 204h86l100 -104l100 104h86l-130 -204h-112zM90 0v579h170l147 -445l-16 196v249h119v-579h-170l-147 445l16 -196v-249h-119z" />
    <glyph glyph-name="ncaron" unicode="&#x148;" 
d="M244 505l-130 204h86l100 -104l100 104h86l-130 -204h-112zM90 0v447h119v-60q47 70 144 70q68 0 112.5 -42t44.5 -138v-277h-134v253q0 49 -15.5 70.5t-54.5 21.5q-50 0 -82 -32v-313h-134z" />
    <glyph glyph-name="napostrophe" unicode="&#x149;" 
d="M73 449q-32 0 -32 34q0 9 3 31l16 142h120l-69 -181q-10 -26 -38 -26zM90 0v447h119v-60q47 70 144 70q68 0 112.5 -42t44.5 -138v-277h-134v253q0 49 -15.5 70.5t-54.5 21.5q-50 0 -82 -32v-313h-134z" />
    <glyph glyph-name="Eng" unicode="&#x14a;" 
d="M219 -190v100q82 0 117.5 20.5t43.5 69.5h-40l-147 445l16 -196v-249h-119v579h170l147 -445l-16 196v249h119v-517q0 -76 -19.5 -127t-60 -77.5t-90 -37t-121.5 -10.5z" />
    <glyph glyph-name="eng" unicode="&#x14b;" 
d="M230 -190v100q83 0 114.5 34t31.5 114v195q0 49 -15.5 70.5t-54.5 21.5q-50 0 -82 -32v-313h-134v447h119v-60q47 70 144 70q68 0 112.5 -42t44.5 -138v-225q0 -74 -21 -123t-61.5 -74.5t-87 -35t-110.5 -9.5z" />
    <glyph glyph-name="Omacron" unicode="&#x14c;" 
d="M127 666v101h346v-101h-346zM297 -10q-126 0 -188.5 77t-62.5 220q0 144 63 223.5t193 79.5q128 0 190 -77.5t62 -218.5q0 -142 -63.5 -223t-193.5 -81zM300 109q66 0 88.5 46t22.5 135q0 90 -22.5 135.5t-88.5 45.5t-88.5 -45.5t-22.5 -135.5q0 -89 22.5 -135t88.5 -46z
" />
    <glyph glyph-name="omacron" unicode="&#x14d;" 
d="M127 555v101h346v-101h-346zM297 -10q-47 0 -87.5 11.5t-76.5 37t-56.5 72.5t-20.5 111q0 66 21.5 113.5t58.5 73t78.5 37t88.5 11.5t88 -11.5t76.5 -37t56 -72t20.5 -110.5q0 -53 -14.5 -94.5t-38.5 -67.5t-57 -43t-66.5 -24t-70.5 -7zM300 100q105 0 105 124t-105 124
t-105 -124t105 -124z" />
    <glyph glyph-name="Obreve" unicode="&#x14e;" 
d="M300 624q-45 0 -83.5 16t-62.5 40t-37.5 45t-18.5 36l49 41q20 -27 59 -51.5t94 -24.5t94 24.5t59 51.5l49 -41q-5 -15 -18.5 -36t-37.5 -45t-62.5 -40t-83.5 -16zM297 -10q-126 0 -188.5 77t-62.5 220q0 144 63 223.5t193 79.5q128 0 190 -77.5t62 -218.5
q0 -142 -63.5 -223t-193.5 -81zM300 109q66 0 88.5 46t22.5 135q0 90 -22.5 135.5t-88.5 45.5t-88.5 -45.5t-22.5 -135.5q0 -89 22.5 -135t88.5 -46z" />
    <glyph glyph-name="obreve" unicode="&#x14f;" 
d="M300 513q-45 0 -83.5 16t-62.5 40t-37.5 45t-18.5 36l49 41q20 -27 59 -51.5t94 -24.5t94 24.5t59 51.5l49 -41q-5 -15 -18.5 -36t-37.5 -45t-62.5 -40t-83.5 -16zM297 -10q-47 0 -87.5 11.5t-76.5 37t-56.5 72.5t-20.5 111q0 66 21.5 113.5t58.5 73t78.5 37t88.5 11.5
t88 -11.5t76.5 -37t56 -72t20.5 -110.5q0 -53 -14.5 -94.5t-38.5 -67.5t-57 -43t-66.5 -24t-70.5 -7zM300 100q105 0 105 124t-105 124t-105 -124t105 -124z" />
    <glyph glyph-name="Ohungarumlaut" unicode="&#x150;" 
d="M134 616l80 204h142l-145 -204h-77zM359 616l79 204h142l-144 -204h-77zM297 -10q-126 0 -188.5 77t-62.5 220q0 144 63 223.5t193 79.5q128 0 190 -77.5t62 -218.5q0 -142 -63.5 -223t-193.5 -81zM300 109q66 0 88.5 46t22.5 135q0 90 -22.5 135.5t-88.5 45.5
t-88.5 -45.5t-22.5 -135.5q0 -89 22.5 -135t88.5 -46z" />
    <glyph glyph-name="ohungarumlaut" unicode="&#x151;" 
d="M134 505l80 204h142l-145 -204h-77zM359 505l79 204h142l-144 -204h-77zM297 -10q-47 0 -87.5 11.5t-76.5 37t-56.5 72.5t-20.5 111q0 66 21.5 113.5t58.5 73t78.5 37t88.5 11.5t88 -11.5t76.5 -37t56 -72t20.5 -110.5q0 -53 -14.5 -94.5t-38.5 -67.5t-57 -43t-66.5 -24
t-70.5 -7zM300 100q105 0 105 124t-105 124t-105 -124t105 -124z" />
    <glyph glyph-name="OE" unicode="&#x152;" 
d="M226 -10q-63 0 -107 24t-66 68t-31.5 94t-9.5 114q0 50 5.5 91.5t20 81.5t37.5 67t61.5 43.5t89.5 16.5q41 0 77 -11h278v-116h-165v-110h134v-116h-134v-121h165v-116h-281q-37 -10 -74 -10zM239 106q24 0 39 7v352q-18 8 -39 8q-52 0 -70 -43.5t-18 -139.5t18 -140
t70 -44z" />
    <glyph glyph-name="oe" unicode="&#x153;" 
d="M179 -10q-80 0 -121 60.5t-41 173.5q0 112 42 172.5t124 60.5q76 0 117 -58q45 58 124 58q81 0 120.5 -61t39.5 -171v-18h-223q1 -65 16 -94t45 -29q47 0 50 56h112q-5 -71 -46 -110.5t-111 -39.5q-83 0 -128 58q-42 -58 -120 -58zM191 84q52 0 52 140q0 139 -52 139
t-52 -139q0 -140 52 -140zM362 272h113q-4 49 -17.5 70.5t-38.5 21.5q-26 0 -39.5 -21.5t-17.5 -70.5z" />
    <glyph glyph-name="Racute" unicode="&#x154;" 
d="M237 616l78 204h144l-143 -204h-79zM90 0v579h189q112 0 183.5 -47t71.5 -145q0 -119 -111 -168l154 -219h-167l-119 191h-62v-191h-139zM229 465v-164h50q112 0 112 82t-112 82h-50z" />
    <glyph glyph-name="racute" unicode="&#x155;" 
d="M245 505l78 204h144l-143 -204h-79zM89 0v101h105v245h-105v101h224v-97q47 107 148 107q56 0 88 -25v-132q-46 29 -95 29q-71 0 -126 -57v-171h183v-101h-422z" />
    <glyph glyph-name="Rcommaaccent" unicode="&#x156;" 
d="M277 -265q-34 0 -34 36q0 9 3 33l17 152h129l-74 -193q-10 -28 -41 -28zM90 0v579h189q112 0 183.5 -47t71.5 -145q0 -119 -111 -168l154 -219h-167l-119 191h-62v-191h-139zM229 465v-164h50q112 0 112 82t-112 82h-50z" />
    <glyph glyph-name="rcommaaccent" unicode="&#x157;" 
d="M221 -265q-34 0 -34 36q0 9 3 33l17 152h129l-74 -193q-10 -28 -41 -28zM89 0v101h105v245h-105v101h224v-97q47 107 148 107q56 0 88 -25v-132q-46 29 -95 29q-71 0 -126 -57v-171h183v-101h-422z" />
    <glyph glyph-name="Rcaron" unicode="&#x158;" 
d="M255 616l-130 204h86l100 -104l100 104h86l-130 -204h-112zM90 0v579h189q112 0 183.5 -47t71.5 -145q0 -119 -111 -168l154 -219h-167l-119 191h-62v-191h-139zM229 465v-164h50q112 0 112 82t-112 82h-50z" />
    <glyph glyph-name="rcaron" unicode="&#x159;" 
d="M263 505l-130 204h86l100 -104l100 104h86l-130 -204h-112zM89 0v101h105v245h-105v101h224v-97q47 107 148 107q56 0 88 -25v-132q-46 29 -95 29q-71 0 -126 -57v-171h183v-101h-422z" />
    <glyph glyph-name="Sacute" unicode="&#x15a;" 
d="M226 616l78 204h144l-143 -204h-79zM295 -10q-113 0 -173 49.5t-60 141.5h131q4 -42 29.5 -61t78.5 -19q98 0 98 57q0 22 -16.5 34t-55.5 25l-124 41q-128 43 -128 158q0 83 63.5 128.5t164.5 45.5q103 0 162.5 -48.5t61.5 -139.5h-132q-4 38 -25 57t-69 19
q-42 0 -64.5 -14t-22.5 -39q0 -35 55 -53l129 -44q67 -23 103.5 -59t36.5 -100q0 -88 -67.5 -133.5t-175.5 -45.5z" />
    <glyph glyph-name="sacute" unicode="&#x15b;" 
d="M226 505l78 204h144l-143 -204h-79zM294 -10q-231 2 -235 150h137q5 -55 108 -55q98 0 98 41q0 6 -2 11t-7 9t-10.5 7t-15.5 6t-18 5t-21.5 4t-23.5 3.5t-26.5 4t-28.5 4.5q-40 6 -66 13.5t-55.5 22t-44.5 39.5t-15 61q0 71 61 106t167 35q210 0 219 -142h-137
q-7 47 -94 47q-78 0 -78 -36q0 -21 28.5 -29.5t111.5 -19.5q3 -1 5 -1t4.5 -0.5t4.5 -0.5q39 -5 66.5 -12.5t56 -22.5t43.5 -41t15 -62q0 -78 -68 -113t-179 -34z" />
    <glyph glyph-name="Scircumflex" unicode="&#x15c;" 
d="M114 616l130 204h112l130 -204h-86l-100 104l-100 -104h-86zM295 -10q-113 0 -173 49.5t-60 141.5h131q4 -42 29.5 -61t78.5 -19q98 0 98 57q0 22 -16.5 34t-55.5 25l-124 41q-128 43 -128 158q0 83 63.5 128.5t164.5 45.5q103 0 162.5 -48.5t61.5 -139.5h-132
q-4 38 -25 57t-69 19q-42 0 -64.5 -14t-22.5 -39q0 -35 55 -53l129 -44q67 -23 103.5 -59t36.5 -100q0 -88 -67.5 -133.5t-175.5 -45.5z" />
    <glyph glyph-name="scircumflex" unicode="&#x15d;" 
d="M114 505l130 204h112l130 -204h-86l-100 104l-100 -104h-86zM294 -10q-231 2 -235 150h137q5 -55 108 -55q98 0 98 41q0 6 -2 11t-7 9t-10.5 7t-15.5 6t-18 5t-21.5 4t-23.5 3.5t-26.5 4t-28.5 4.5q-40 6 -66 13.5t-55.5 22t-44.5 39.5t-15 61q0 71 61 106t167 35
q210 0 219 -142h-137q-7 47 -94 47q-78 0 -78 -36q0 -21 28.5 -29.5t111.5 -19.5q3 -1 5 -1t4.5 -0.5t4.5 -0.5q39 -5 66.5 -12.5t56 -22.5t43.5 -41t15 -62q0 -78 -68 -113t-179 -34z" />
    <glyph glyph-name="Scedilla" unicode="&#x15e;" 
d="M314 -195q-68 0 -101 21l10 51q28 -11 55 -11q33 0 33 18q0 25 -77 39l15 69q-91 10 -139 58.5t-48 130.5h131q4 -42 29.5 -61t78.5 -19q98 0 98 57q0 22 -16.5 34t-55.5 25l-124 41q-128 43 -128 158q0 83 63.5 128.5t164.5 45.5q103 0 162.5 -48.5t61.5 -139.5h-132
q-4 38 -25 57t-69 19q-42 0 -64.5 -14t-22.5 -39q0 -35 55 -53l129 -44q67 -23 103.5 -59t36.5 -100q0 -85 -63.5 -130.5t-165.5 -48.5l-6 -29q120 -25 120 -88q0 -31 -28 -49.5t-81 -18.5z" />
    <glyph glyph-name="scedilla" unicode="&#x15f;" 
d="M314 -195q-68 0 -101 21l10 51q28 -11 55 -11q33 0 33 18q0 25 -77 39l15 69q-187 14 -190 148h137q5 -55 108 -55q98 0 98 41q0 6 -2 11t-7 9t-10.5 7t-15.5 6t-18 5t-21.5 4t-23.5 3.5t-26.5 4t-28.5 4.5q-40 6 -66 13.5t-55.5 22t-44.5 39.5t-15 61q0 71 61 106
t167 35q210 0 219 -142h-137q-7 47 -94 47q-78 0 -78 -36q0 -21 28.5 -29.5t111.5 -19.5q3 -1 5 -1t4.5 -0.5t4.5 -0.5q39 -5 66.5 -12.5t56 -22.5t43.5 -41t15 -62q0 -75 -64 -110t-168 -37l-6 -29q120 -25 120 -88q0 -31 -28 -49.5t-81 -18.5z" />
    <glyph glyph-name="Scaron" unicode="&#x160;" 
d="M244 616l-130 204h86l100 -104l100 104h86l-130 -204h-112zM295 -10q-113 0 -173 49.5t-60 141.5h131q4 -42 29.5 -61t78.5 -19q98 0 98 57q0 22 -16.5 34t-55.5 25l-124 41q-128 43 -128 158q0 83 63.5 128.5t164.5 45.5q103 0 162.5 -48.5t61.5 -139.5h-132
q-4 38 -25 57t-69 19q-42 0 -64.5 -14t-22.5 -39q0 -35 55 -53l129 -44q67 -23 103.5 -59t36.5 -100q0 -88 -67.5 -133.5t-175.5 -45.5z" />
    <glyph glyph-name="scaron" unicode="&#x161;" 
d="M244 505l-130 204h86l100 -104l100 104h86l-130 -204h-112zM294 -10q-231 2 -235 150h137q5 -55 108 -55q98 0 98 41q0 6 -2 11t-7 9t-10.5 7t-15.5 6t-18 5t-21.5 4t-23.5 3.5t-26.5 4t-28.5 4.5q-40 6 -66 13.5t-55.5 22t-44.5 39.5t-15 61q0 71 61 106t167 35
q210 0 219 -142h-137q-7 47 -94 47q-78 0 -78 -36q0 -21 28.5 -29.5t111.5 -19.5q3 -1 5 -1t4.5 -0.5t4.5 -0.5q39 -5 66.5 -12.5t56 -22.5t43.5 -41t15 -62q0 -78 -68 -113t-179 -34z" />
    <glyph glyph-name="Tcommaaccent" unicode="&#x162;" 
d="M257 -265q-34 0 -34 36q0 9 3 33l17 152h129l-74 -193q-10 -28 -41 -28zM230 0v463h-187v116h514v-116h-188v-463h-139z" />
    <glyph glyph-name="tcommaaccent" unicode="&#x163;" 
d="M301 -265q-34 0 -34 36q0 9 3 33l17 152h129l-74 -193q-10 -28 -41 -28zM361 -10q-92 0 -136.5 47.5t-44.5 160.5v148h-139v101h139v209h134v-209h221v-101h-221v-143q0 -57 16.5 -79.5t64.5 -22.5q54 0 119 26v-105q-70 -32 -153 -32z" />
    <glyph glyph-name="Tcaron" unicode="&#x164;" 
d="M243 616l-130 204h86l100 -104l100 104h86l-130 -204h-112zM230 0v463h-187v116h514v-116h-188v-463h-139z" />
    <glyph glyph-name="tcaron" unicode="&#x165;" 
d="M361 -10q-92 0 -136.5 47.5t-44.5 160.5v76h-139v101h139v281h134v-281h221v-101h-221v-71q0 -57 16.5 -79.5t64.5 -22.5q54 0 119 26v-105q-70 -32 -153 -32zM418 435q-34 0 -34 36q0 9 3 33l17 152h129l-74 -193q-10 -28 -41 -28z" />
    <glyph glyph-name="Tbar" unicode="&#x166;" 
d="M230 0v226h-119v97h119v140h-187v116h514v-116h-188v-140h120v-97h-120v-226h-139z" />
    <glyph glyph-name="tbar" unicode="&#x167;" 
d="M361 -10q-92 0 -136.5 47.5t-44.5 160.5v1h-80v86h80v61h-139v101h139v209h134v-209h221v-101h-221v-61h131v-86h-131v-1q0 -54 16.5 -75.5t64.5 -21.5q54 0 119 26v-105q-70 -32 -153 -32z" />
    <glyph glyph-name="Utilde" unicode="&#x168;" 
d="M154 629l-58 27q45 137 132 137q34 0 85 -32q42 -27 63 -27q39 0 70 59l58 -27q-45 -137 -132 -137q-35 0 -76 26q-52 33 -72 33q-39 0 -70 -59zM299 -10q-222 0 -222 228v361h140v-361q0 -60 20 -84.5t63 -24.5t63 24.5t20 84.5v361h140v-361q0 -228 -224 -228z" />
    <glyph glyph-name="utilde" unicode="&#x169;" 
d="M153 518l-58 27q45 137 132 137q34 0 85 -32q42 -27 63 -27q39 0 70 59l58 -27q-45 -137 -132 -137q-35 0 -76 26q-52 33 -72 33q-39 0 -70 -59zM247 -10q-68 0 -112.5 42t-44.5 138v277h134v-253q0 -49 15.5 -70.5t54.5 -21.5q50 0 82 32v313h134v-447h-119v60
q-47 -70 -144 -70z" />
    <glyph glyph-name="Umacron" unicode="&#x16a;" 
d="M127 666v101h346v-101h-346zM299 -10q-222 0 -222 228v361h140v-361q0 -60 20 -84.5t63 -24.5t63 24.5t20 84.5v361h140v-361q0 -228 -224 -228z" />
    <glyph glyph-name="umacron" unicode="&#x16b;" 
d="M126 555v101h346v-101h-346zM247 -10q-68 0 -112.5 42t-44.5 138v277h134v-253q0 -49 15.5 -70.5t54.5 -21.5q50 0 82 32v313h134v-447h-119v60q-47 -70 -144 -70z" />
    <glyph glyph-name="Ubreve" unicode="&#x16c;" 
d="M300 624q-45 0 -83.5 16t-62.5 40t-37.5 45t-18.5 36l49 41q20 -27 59 -51.5t94 -24.5t94 24.5t59 51.5l49 -41q-5 -15 -18.5 -36t-37.5 -45t-62.5 -40t-83.5 -16zM299 -10q-222 0 -222 228v361h140v-361q0 -60 20 -84.5t63 -24.5t63 24.5t20 84.5v361h140v-361
q0 -228 -224 -228z" />
    <glyph glyph-name="ubreve" unicode="&#x16d;" 
d="M299 513q-45 0 -83.5 16t-62.5 40t-37.5 45t-18.5 36l49 41q20 -27 59 -51.5t94 -24.5t94 24.5t59 51.5l49 -41q-5 -15 -18.5 -36t-37.5 -45t-62.5 -40t-83.5 -16zM247 -10q-68 0 -112.5 42t-44.5 138v277h134v-253q0 -49 15.5 -70.5t54.5 -21.5q50 0 82 32v313h134v-447
h-119v60q-47 -70 -144 -70z" />
    <glyph glyph-name="Uring" unicode="&#x16e;" 
d="M300 603q-59 0 -97.5 37t-38.5 94t38.5 94t97.5 37t97.5 -37t38.5 -94t-38.5 -94t-97.5 -37zM300 671q28 0 45.5 17.5t17.5 45.5t-17.5 45.5t-45.5 17.5t-45.5 -17.5t-17.5 -45.5t17.5 -45.5t45.5 -17.5zM299 -10q-222 0 -222 228v361h140v-361q0 -60 20 -84.5t63 -24.5
t63 24.5t20 84.5v361h140v-361q0 -228 -224 -228z" />
    <glyph glyph-name="uring" unicode="&#x16f;" 
d="M299 492q-59 0 -97.5 37t-38.5 94t38.5 94t97.5 37t97.5 -37t38.5 -94t-38.5 -94t-97.5 -37zM299 560q29 0 46 17t17 46t-17 46t-46 17t-46 -17t-17 -46t17 -46t46 -17zM247 -10q-68 0 -112.5 42t-44.5 138v277h134v-253q0 -49 15.5 -70.5t54.5 -21.5q50 0 82 32v313h134
v-447h-119v60q-47 -70 -144 -70z" />
    <glyph glyph-name="Uhungarumlaut" unicode="&#x170;" 
d="M134 616l80 204h142l-145 -204h-77zM359 616l79 204h142l-144 -204h-77zM299 -10q-222 0 -222 228v361h140v-361q0 -60 20 -84.5t63 -24.5t63 24.5t20 84.5v361h140v-361q0 -228 -224 -228z" />
    <glyph glyph-name="uhungarumlaut" unicode="&#x171;" 
d="M133 505l80 204h142l-145 -204h-77zM358 505l79 204h142l-144 -204h-77zM247 -10q-68 0 -112.5 42t-44.5 138v277h134v-253q0 -49 15.5 -70.5t54.5 -21.5q50 0 82 32v313h134v-447h-119v60q-47 -70 -144 -70z" />
    <glyph glyph-name="Uogonek" unicode="&#x172;" 
d="M310 -195q-50 0 -78 18t-28 48q0 35 32 63.5t86 56.5q-7 -1 -22 -1q-223 0 -223 228v361h140v-361q0 -60 20 -84.5t63 -24.5t63 24.5t20 84.5v361h140v-361q0 -125 -69 -182q-104 -88 -121 -108q-17 -19 -17 -34q0 -26 36 -26q26 0 48 9l11 -52q-43 -20 -101 -20z" />
    <glyph glyph-name="uogonek" unicode="&#x173;" 
d="M247 -10q-68 0 -112.5 42t-44.5 138v277h134v-253q0 -49 15.5 -70.5t54.5 -21.5q50 0 82 32v313h134v-447q-55 -45 -75.5 -66.5t-20.5 -39.5q0 -26 36 -26q26 0 48 9l11 -52q-43 -20 -101 -20q-50 0 -78 18t-28 48q0 20 12 39t35.5 36t42 28t48.5 26l-33 62
q-56 -72 -160 -72z" />
    <glyph glyph-name="Wcircumflex" unicode="&#x174;" 
d="M114 616l130 204h112l130 -204h-86l-100 104l-100 -104h-86zM85 0l-64 579h135l20 -269l8 -180l65 269h106l64 -268l9 179l20 269h131l-64 -579h-156l-59 228l-59 -228h-156z" />
    <glyph glyph-name="wcircumflex" unicode="&#x175;" 
d="M114 505l130 204h112l130 -204h-86l-100 104l-100 -104h-86zM98 0l-78 447h125l37 -344l51 260h138l51 -260l37 344h121l-78 -447h-151l-51 241l-51 -241h-151z" />
    <glyph glyph-name="Ycircumflex" unicode="&#x176;" 
d="M113 616l130 204h112l130 -204h-86l-100 104l-100 -104h-86zM230 0v226l-214 353h166l65 -117l54 -124l61 124l66 117h155l-214 -352v-227h-139z" />
    <glyph glyph-name="ycircumflex" unicode="&#x177;" 
d="M113 505l130 204h112l130 -204h-86l-100 104l-100 -104h-86zM55 -190v109q73 0 112.5 22t61.5 70l-200 436h153l76 -185l45 -131l45 131l76 185h147l-185 -410q-40 -88 -78 -134t-98 -69.5t-155 -23.5z" />
    <glyph glyph-name="Ydieresis" unicode="&#x178;" 
d="M120 647v131h131v-131h-131zM349 647v131h131v-131h-131zM230 0v226l-214 353h166l65 -117l54 -124l61 124l66 117h155l-214 -352v-227h-139z" />
    <glyph glyph-name="Zacute" unicode="&#x179;" 
d="M227 616l78 204h144l-143 -204h-79zM63 0v94l284 369h-279v116h460v-94l-284 -369h293v-116h-474z" />
    <glyph glyph-name="zacute" unicode="&#x17a;" 
d="M226 505l78 204h144l-143 -204h-79zM77 0v93l259 253h-254v101h435v-92l-259 -254h265v-101h-446z" />
    <glyph glyph-name="Zdotaccent" unicode="&#x17b;" 
d="M236 647v131h131v-131h-131zM63 0v94l284 369h-279v116h460v-94l-284 -369h293v-116h-474z" />
    <glyph glyph-name="zdotaccent" unicode="&#x17c;" 
d="M235 536v131h131v-131h-131zM77 0v93l259 253h-254v101h435v-92l-259 -254h265v-101h-446z" />
    <glyph glyph-name="Zcaron" unicode="&#x17d;" 
d="M245 616l-130 204h86l100 -104l100 104h86l-130 -204h-112zM63 0v94l284 369h-279v116h460v-94l-284 -369h293v-116h-474z" />
    <glyph glyph-name="zcaron" unicode="&#x17e;" 
d="M244 505l-130 204h86l100 -104l100 104h86l-130 -204h-112zM77 0v93l259 253h-254v101h435v-92l-259 -254h265v-101h-446z" />
    <glyph glyph-name="uni0180" unicode="&#x180;" 
d="M357 -10q-52 0 -91 21t-58 49v-60h-119v496h-50v97h50v63h134v-63h93v-97h-93v-97q49 58 134 58q83 0 135.5 -59t52.5 -174q0 -117 -54 -175.5t-134 -58.5zM312 102q94 0 94 122t-94 122q-54 0 -89 -33v-178q35 -33 89 -33z" />
    <glyph glyph-name="uni018F" unicode="&#x18f;" 
d="M297 -10q-126 0 -188.5 77t-62.5 220v34h368q-3 78 -30 116.5t-92 38.5q-95 0 -112 -80h-134q15 96 81.5 145t168.5 49q129 0 193.5 -77.5t64.5 -219.5q0 -141 -63.5 -222t-193.5 -81zM297 101q58 0 83.5 32t31.5 92h-228q6 -63 31.5 -93.5t81.5 -30.5z" />
    <glyph glyph-name="florin" unicode="&#x192;" 
d="M66 -190v102q164 0 164 124v203h-148v101h148v18q0 62 26 108t70.5 71t96 36.5t111.5 11.5v-102q-165 0 -165 -125v-18h157v-101h-157v-203q0 -62 -25.5 -107.5t-70 -70.5t-96 -36.5t-111.5 -11.5z" />
    <glyph glyph-name="Ohorn" unicode="&#x1a0;" 
d="M297 -10q-126 0 -188.5 77t-62.5 220q0 144 63 223.5t193 79.5q92 0 153 -44q38 14 38 74q0 27 -5 60h97q5 -25 5 -62q0 -102 -84 -125q48 -75 48 -199q0 -142 -63.5 -223t-193.5 -81zM300 109q66 0 88.5 46t22.5 135q0 90 -22.5 135.5t-88.5 45.5t-88.5 -45.5
t-22.5 -135.5q0 -89 22.5 -135t88.5 -46z" />
    <glyph glyph-name="ohorn" unicode="&#x1a1;" 
d="M297 -10q-47 0 -87.5 11.5t-76.5 37t-56.5 72.5t-20.5 111q0 66 21.5 113.5t58.5 73t78.5 37t88.5 11.5q105 0 168 -51q22 18 22 66q0 27 -5 60h97q5 -25 5 -62q0 -95 -73 -121q27 -51 27 -123q0 -53 -14.5 -94.5t-38.5 -67.5t-57 -43t-66.5 -24t-70.5 -7zM300 100
q105 0 105 124t-105 124t-105 -124t105 -124z" />
    <glyph glyph-name="Uhorn" unicode="&#x1af;" 
d="M299 -10q-222 0 -222 228v361h140v-361q0 -60 20 -84.5t63 -24.5t63 24.5t20 84.5v361h51q38 0 53.5 19t15.5 59q0 27 -5 60h97q5 -25 5 -62q0 -98 -77 -123v-314q0 -228 -224 -228z" />
    <glyph glyph-name="uhorn" unicode="&#x1b0;" 
d="M376 447h55q38 0 53.5 19t15.5 59q0 27 -5 60h97q5 -25 5 -62q0 -104 -87 -126v-397h-119v60q-47 -70 -144 -70q-68 0 -112.5 42t-44.5 138v277h134v-253q0 -49 15.5 -70.5t54.5 -21.5q50 0 82 32v313z" />
    <glyph glyph-name="uni01CD" unicode="&#x1cd;" 
d="M244 616l-130 204h86l100 -104l100 104h86l-130 -204h-112zM25 0l202 579h145l203 -579h-147l-38 118h-183l-37 -118h-145zM249 259l-9 -33h115l-8 29l-50 180z" />
    <glyph glyph-name="uni01CE" unicode="&#x1ce;" 
d="M250 505l-130 204h86l100 -104l100 104h86l-130 -204h-112zM222 -10q-71 0 -116.5 32.5t-45.5 96.5q0 48 28.5 78.5t69 41.5t93.5 11q67 0 118 -14v34q0 41 -16.5 62.5t-66.5 21.5q-86 0 -86 -64h-125q0 85 60 126t159 41q208 0 208 -176v-167q0 -23 24 -23q15 0 35 5
v-86q-40 -20 -93 -20q-78 0 -78 64v9q-58 -73 -168 -73zM258 82q36 0 67 10.5t44 22.5v46q-28 6 -87 6q-88 0 -88 -44q0 -41 64 -41z" />
    <glyph glyph-name="uni01CF" unicode="&#x1cf;" 
d="M244 616l-130 204h86l100 -104l100 104h86l-130 -204h-112zM89 0v116h141v347h-141v116h422v-116h-142v-347h142v-116h-422z" />
    <glyph glyph-name="uni01D0" unicode="&#x1d0;" 
d="M249 511l-130 204h86l100 -104l100 104h86l-130 -204h-112zM89 0v101h151v245h-151v101h285v-346h137v-101h-422z" />
    <glyph glyph-name="uni01D1" unicode="&#x1d1;" 
d="M244 616l-130 204h86l100 -104l100 104h86l-130 -204h-112zM297 -10q-126 0 -188.5 77t-62.5 220q0 144 63 223.5t193 79.5q128 0 190 -77.5t62 -218.5q0 -142 -63.5 -223t-193.5 -81zM300 109q66 0 88.5 46t22.5 135q0 90 -22.5 135.5t-88.5 45.5t-88.5 -45.5
t-22.5 -135.5q0 -89 22.5 -135t88.5 -46z" />
    <glyph glyph-name="uni01D2" unicode="&#x1d2;" 
d="M244 505l-130 204h86l100 -104l100 104h86l-130 -204h-112zM297 -10q-47 0 -87.5 11.5t-76.5 37t-56.5 72.5t-20.5 111q0 66 21.5 113.5t58.5 73t78.5 37t88.5 11.5t88 -11.5t76.5 -37t56 -72t20.5 -110.5q0 -53 -14.5 -94.5t-38.5 -67.5t-57 -43t-66.5 -24t-70.5 -7z
M300 100q105 0 105 124t-105 124t-105 -124t105 -124z" />
    <glyph glyph-name="uni01D3" unicode="&#x1d3;" 
d="M244 616l-130 204h86l100 -104l100 104h86l-130 -204h-112zM299 -10q-222 0 -222 228v361h140v-361q0 -60 20 -84.5t63 -24.5t63 24.5t20 84.5v361h140v-361q0 -228 -224 -228z" />
    <glyph glyph-name="uni01D4" unicode="&#x1d4;" 
d="M243 505l-130 204h86l100 -104l100 104h86l-130 -204h-112zM247 -10q-68 0 -112.5 42t-44.5 138v277h134v-253q0 -49 15.5 -70.5t54.5 -21.5q50 0 82 32v313h134v-447h-119v60q-47 -70 -144 -70z" />
    <glyph glyph-name="uni01D5" unicode="&#x1d5;" 
d="M122 624v98h127v-98h-127zM351 624v98h127v-98h-127zM127 781v85h346v-85h-346zM299 -10q-222 0 -222 228v361h140v-361q0 -60 20 -84.5t63 -24.5t63 24.5t20 84.5v361h140v-361q0 -228 -224 -228z" />
    <glyph glyph-name="uni01D6" unicode="&#x1d6;" 
d="M121 541v128h127v-128h-127zM350 541v128h127v-128h-127zM126 739v94h346v-94h-346zM247 -10q-68 0 -112.5 42t-44.5 138v277h134v-253q0 -49 15.5 -70.5t54.5 -21.5q50 0 82 32v313h134v-447h-119v60q-47 -70 -144 -70z" />
    <glyph glyph-name="uni01D7" unicode="&#x1d7;" 
d="M122 624v98h127v-98h-127zM351 624v98h127v-98h-127zM267 743l48 142h137l-119 -142h-66zM299 -10q-222 0 -222 228v361h140v-361q0 -60 20 -84.5t63 -24.5t63 24.5t20 84.5v361h140v-361q0 -228 -224 -228z" />
    <glyph glyph-name="uni01D8" unicode="&#x1d8;" 
d="M121 541v128h127v-128h-127zM350 541v128h127v-128h-127zM262 702l67 182h140l-133 -182h-74zM247 -10q-68 0 -112.5 42t-44.5 138v277h134v-253q0 -49 15.5 -70.5t54.5 -21.5q50 0 82 32v313h134v-447h-119v60q-47 -70 -144 -70z" />
    <glyph glyph-name="uni01D9" unicode="&#x1d9;" 
d="M122 624v98h127v-98h-127zM351 624v98h127v-98h-127zM253 743l-120 142h82l85 -70l85 70h82l-120 -142h-94zM299 -10q-222 0 -222 228v361h140v-361q0 -60 20 -84.5t63 -24.5t63 24.5t20 84.5v361h140v-361q0 -228 -224 -228z" />
    <glyph glyph-name="uni01DA" unicode="&#x1da;" 
d="M121 541v128h127v-128h-127zM350 541v128h127v-128h-127zM247 700l-134 184h86l100 -96l100 96h86l-134 -184h-104zM247 -10q-68 0 -112.5 42t-44.5 138v277h134v-253q0 -49 15.5 -70.5t54.5 -21.5q50 0 82 32v313h134v-447h-119v60q-47 -70 -144 -70z" />
    <glyph glyph-name="uni01DB" unicode="&#x1db;" 
d="M478 722v-98h-127v98h127zM249 722v-98h-127v98h127zM285 885l49 -142h-67l-119 142h137zM299 -10q-222 0 -222 228v361h140v-361q0 -60 20 -84.5t63 -24.5t63 24.5t20 84.5v361h140v-361q0 -228 -224 -228z" />
    <glyph glyph-name="uni01DC" unicode="&#x1dc;" 
d="M121 541v128h127v-128h-127zM350 541v128h127v-128h-127zM269 884l67 -182h-74l-133 182h140zM247 -10q-68 0 -112.5 42t-44.5 138v277h134v-253q0 -49 15.5 -70.5t54.5 -21.5q50 0 82 32v313h134v-447h-119v60q-47 -70 -144 -70z" />
    <glyph glyph-name="uni01E6" unicode="&#x1e6;" 
d="M236 616l-130 204h86l100 -104l100 104h86l-130 -204h-112zM257 -10q-108 0 -159.5 80.5t-51.5 214.5q0 305 260 305q111 0 166.5 -54t59.5 -149h-138q-6 41 -27 62.5t-66 21.5q-46 0 -71.5 -24.5t-33 -60.5t-7.5 -95q0 -94 23 -138t89 -44q56 0 95 32v80h-109v100h244
v-321h-120v60q-51 -70 -154 -70z" />
    <glyph glyph-name="uni01E7" unicode="&#x1e7;" 
d="M227 505l-130 204h86l100 -104l100 104h86l-130 -204h-112zM279 -195q-208 0 -214 177h128q4 -37 23.5 -58.5t69.5 -21.5q56 0 73.5 26.5t17.5 75.5v69q-49 -56 -130 -56q-84 0 -138 56.5t-54 161.5q0 106 54.5 164t138.5 58q50 0 88 -20t56 -47v57h119v-454
q0 -188 -232 -188zM290 126q50 0 87 33v156q-37 33 -87 33q-96 0 -96 -111t96 -111z" />
    <glyph glyph-name="uni01EA" unicode="&#x1ea;" 
d="M313 -195q-50 0 -78 18t-28 48q0 35 34 64t92 59q-15 -4 -39 -4q-124 0 -186 77.5t-62 219.5q0 144 63 223.5t193 79.5q252 0 252 -308q0 -91 -28 -151.5t-107 -125.5q-58 -48 -79 -70t-21 -41q0 -26 36 -26q25 0 48 9l11 -52q-42 -20 -101 -20zM300 109q66 0 88.5 46
t22.5 135q0 90 -22.5 135.5t-88.5 45.5t-88.5 -45.5t-22.5 -135.5q0 -89 22.5 -135t88.5 -46z" />
    <glyph glyph-name="uni01EB" unicode="&#x1eb;" 
d="M300 100q105 0 105 124t-105 124t-105 -124t105 -124zM207 -129q0 19 11.5 37t33.5 34.5t40.5 27.5t46.5 25q-16 -5 -45 -5q-45 0 -85 11.5t-75.5 37t-56.5 72.5t-21 111q0 66 21.5 113.5t58.5 73t78.5 37t88.5 11.5t87.5 -11.5t76.5 -36.5t56.5 -72.5t20.5 -112.5
q0 -72 -25 -117.5t-73 -84.5q-10 -8 -32 -24.5t-35 -27t-29 -25t-23.5 -27.5t-7.5 -24q0 -26 36 -26q25 0 48 9l11 -52q-42 -20 -101 -20q-50 0 -78 18t-28 48z" />
    <glyph glyph-name="uni01F8" unicode="&#x1f8;" 
d="M295 616l-143 204h144l78 -204h-79zM90 0v579h170l147 -445l-16 196v249h119v-579h-170l-147 445l16 -196v-249h-119z" />
    <glyph glyph-name="uni01F9" unicode="&#x1f9;" 
d="M295 505l-143 204h144l78 -204h-79zM90 0v447h119v-60q47 70 144 70q68 0 112.5 -42t44.5 -138v-277h-134v253q0 49 -15.5 70.5t-54.5 21.5q-50 0 -82 -32v-313h-134z" />
    <glyph glyph-name="AEacute" unicode="&#x1fc;" 
d="M243 616l78 204h144l-143 -204h-79zM2 0l81 579h481v-116h-163v-112h132v-116h-132v-119h163v-116h-301v235h-94l-33 -235h-134zM199 463l-16 -112h80v112h-64z" />
    <glyph glyph-name="aeacute" unicode="&#x1fd;" 
d="M233 505l78 204h144l-143 -204h-79zM160 -10q-61 0 -101.5 31.5t-40.5 95.5q0 66 43 95t106 29q41 0 83 -11v42q0 80 -59 80q-26 0 -40.5 -17t-14.5 -45h-112q0 75 45 121t118 46q83 0 118 -61q34 61 117 61q81 0 120.5 -61.5t39.5 -170.5v-18h-223q1 -65 16 -94t45 -29
q47 0 50 56h112q-5 -71 -46 -110.5t-113 -39.5q-84 0 -128 55q-53 -55 -135 -55zM193 76q39 0 75 20q-13 31 -17 67q-21 3 -43 3q-37 0 -55 -10t-18 -35q0 -45 58 -45zM360 272h113q-4 49 -17.5 71t-38.5 21q-26 1 -39.5 -20.5t-17.5 -71.5z" />
    <glyph glyph-name="Oslashacute" unicode="&#x1fe;" 
d="M226 616l78 204h144l-143 -204h-79zM297 -10q-101 0 -163 51l-36 -41h-94l83 97q-41 72 -41 190q0 144 63 223.5t193 79.5q101 0 164 -52l36 41h94l-84 -97q42 -74 42 -188q0 -142 -63.5 -223t-193.5 -81zM300 109q66 0 88.5 46t22.5 135q0 41 -4 69l-187 -217
q27 -33 80 -33zM192 219l188 218q-26 34 -80 34q-66 0 -88.5 -45.5t-22.5 -135.5q0 -49 3 -71z" />
    <glyph glyph-name="oslashacute" unicode="&#x1ff;" 
d="M226 505l78 204h144l-143 -204h-79zM297 -10q-94 0 -154 41l-34 -31h-101l86 79q-38 55 -38 143q0 66 21.5 113.5t58.5 73t78.5 37t88.5 11.5q93 0 155 -42l34 32h100l-86 -80q38 -56 38 -141q0 -53 -14.5 -94.5t-38.5 -67.5t-57 -43t-66.5 -24t-70.5 -7zM300 100
q105 0 105 124q0 23 -5 46l-165 -153q24 -17 65 -17zM199 176l166 154q-25 18 -65 18q-105 0 -105 -124q0 -29 4 -48z" />
    <glyph glyph-name="Scommaaccent" unicode="&#x218;" 
d="M258 -265q-34 0 -34 36q0 9 3 33l17 152h129l-74 -193q-10 -28 -41 -28zM295 -10q-113 0 -173 49.5t-60 141.5h131q4 -42 29.5 -61t78.5 -19q98 0 98 57q0 22 -16.5 34t-55.5 25l-124 41q-128 43 -128 158q0 83 63.5 128.5t164.5 45.5q103 0 162.5 -48.5t61.5 -139.5
h-132q-4 38 -25 57t-69 19q-42 0 -64.5 -14t-22.5 -39q0 -35 55 -53l129 -44q67 -23 103.5 -59t36.5 -100q0 -88 -67.5 -133.5t-175.5 -45.5z" />
    <glyph glyph-name="scommaaccent" unicode="&#x219;" 
d="M258 -265q-34 0 -34 36q0 9 3 33l17 152h129l-74 -193q-10 -28 -41 -28zM294 -10q-231 2 -235 150h137q5 -55 108 -55q98 0 98 41q0 6 -2 11t-7 9t-10.5 7t-15.5 6t-18 5t-21.5 4t-23.5 3.5t-26.5 4t-28.5 4.5q-40 6 -66 13.5t-55.5 22t-44.5 39.5t-15 61q0 71 61 106
t167 35q210 0 219 -142h-137q-7 47 -94 47q-78 0 -78 -36q0 -21 28.5 -29.5t111.5 -19.5q3 -1 5 -1t4.5 -0.5t4.5 -0.5q39 -5 66.5 -12.5t56 -22.5t43.5 -41t15 -62q0 -78 -68 -113t-179 -34z" />
    <glyph glyph-name="uni021A" unicode="&#x21a;" 
d="M257 -265q-34 0 -34 36q0 9 3 33l17 152h129l-74 -193q-10 -28 -41 -28zM230 0v463h-187v116h514v-116h-188v-463h-139z" />
    <glyph glyph-name="uni021B" unicode="&#x21b;" 
d="M301 -265q-34 0 -34 36q0 9 3 33l17 152h129l-74 -193q-10 -28 -41 -28zM361 -10q-92 0 -136.5 47.5t-44.5 160.5v148h-139v101h139v209h134v-209h221v-101h-221v-143q0 -57 16.5 -79.5t64.5 -22.5q54 0 119 26v-105q-70 -32 -153 -32z" />
    <glyph glyph-name="uni0226" unicode="&#x226;" 
d="M235 647v131h131v-131h-131zM25 0l202 579h145l203 -579h-147l-38 118h-183l-37 -118h-145zM249 259l-9 -33h115l-8 29l-50 180z" />
    <glyph glyph-name="uni0227" unicode="&#x227;" 
d="M241 536v131h131v-131h-131zM222 -10q-71 0 -116.5 32.5t-45.5 96.5q0 48 28.5 78.5t69 41.5t93.5 11q67 0 118 -14v34q0 41 -16.5 62.5t-66.5 21.5q-86 0 -86 -64h-125q0 85 60 126t159 41q208 0 208 -176v-167q0 -23 24 -23q15 0 35 5v-86q-40 -20 -93 -20
q-78 0 -78 64v9q-58 -73 -168 -73zM258 82q36 0 67 10.5t44 22.5v46q-28 6 -87 6q-88 0 -88 -44q0 -41 64 -41z" />
    <glyph glyph-name="uni022E" unicode="&#x22e;" 
d="M235 647v131h131v-131h-131zM297 -10q-126 0 -188.5 77t-62.5 220q0 144 63 223.5t193 79.5q128 0 190 -77.5t62 -218.5q0 -142 -63.5 -223t-193.5 -81zM300 109q66 0 88.5 46t22.5 135q0 90 -22.5 135.5t-88.5 45.5t-88.5 -45.5t-22.5 -135.5q0 -89 22.5 -135t88.5 -46z
" />
    <glyph glyph-name="uni022F" unicode="&#x22f;" 
d="M235 536v131h131v-131h-131zM297 -10q-47 0 -87.5 11.5t-76.5 37t-56.5 72.5t-20.5 111q0 66 21.5 113.5t58.5 73t78.5 37t88.5 11.5t88 -11.5t76.5 -37t56 -72t20.5 -110.5q0 -53 -14.5 -94.5t-38.5 -67.5t-57 -43t-66.5 -24t-70.5 -7zM300 100q105 0 105 124t-105 124
t-105 -124t105 -124z" />
    <glyph glyph-name="uni0237" unicode="&#x237;" 
d="M115 -190v100q94 0 136.5 37.5t42.5 130.5v268h-172v101h306v-376q0 -76 -23 -128.5t-67.5 -80.5t-98 -40t-124.5 -12z" />
    <glyph glyph-name="uni0243" unicode="&#x243;" 
d="M90 0v129h-50v99h50v351h217q107 0 167 -43.5t60 -118.5q0 -82 -77 -119q97 -39 97 -129q0 -75 -62.5 -122t-166.5 -47h-235zM229 242v-129h84q97 0 97 65q0 64 -98 64h-83zM229 467v-121h63q55 0 76.5 15.5t21.5 43.5q0 62 -96 62h-65z" />
    <glyph glyph-name="uni0259" unicode="&#x259;" 
d="M298 -10q-49 0 -90 12.5t-75 38.5t-53 72.5t-19 109.5v23h346q0 110 -113 110q-38 0 -63.5 -12.5t-29.5 -36.5h-138q17 79 80 114.5t152 35.5q112 0 180 -56t68 -175q0 -65 -21 -112.5t-57 -73.5t-77.5 -38t-89.5 -12zM302 91q85 0 103 74h-206q18 -74 103 -74z" />
    <glyph glyph-name="uni02BB" unicode="&#x2bb;" 
d="M225 509l74 193q10 28 41 28q34 0 34 -36q0 -9 -3 -33l-17 -152h-129z" />
    <glyph glyph-name="uni02BC" unicode="&#x2bc;" 
d="M367 656l-74 -193q-10 -28 -41 -28q-34 0 -34 36q0 9 3 33l17 152h129z" />
    <glyph glyph-name="circumflex" unicode="&#x2c6;" 
d="M114 505l130 204h112l130 -204h-86l-100 104l-100 -104h-86z" />
    <glyph glyph-name="caron" unicode="&#x2c7;" 
d="M244 505l-130 204h86l100 -104l100 104h86l-130 -204h-112z" />
    <glyph glyph-name="breve" unicode="&#x2d8;" 
d="M300 513q-45 0 -83.5 16t-62.5 40t-37.5 45t-18.5 36l49 41q20 -27 59 -51.5t94 -24.5t94 24.5t59 51.5l49 -41q-5 -15 -18.5 -36t-37.5 -45t-62.5 -40t-83.5 -16z" />
    <glyph glyph-name="dotaccent" unicode="&#x2d9;" 
d="M235 536v131h131v-131h-131z" />
    <glyph glyph-name="ring" unicode="&#x2da;" 
d="M300 492q-59 0 -97.5 37t-38.5 94t38.5 94t97.5 37t97.5 -37t38.5 -94t-38.5 -94t-97.5 -37zM300 560q28 0 45.5 17t17.5 46t-17.5 46t-45.5 17t-45.5 -17t-17.5 -46t17.5 -46t45.5 -17z" />
    <glyph glyph-name="ogonek" unicode="&#x2db;" 
d="M302 -195q-50 0 -78 18t-28 48q0 20 12 39t35.5 36t42 28t48.5 26h69q-54 -45 -74.5 -66.5t-20.5 -39.5q0 -26 36 -26q26 0 48 9l11 -52q-43 -20 -101 -20z" />
    <glyph glyph-name="tilde" unicode="&#x2dc;" 
d="M154 518l-58 27q45 137 132 137q34 0 85 -32q42 -27 63 -27q39 0 70 59l58 -27q-45 -137 -132 -137q-35 0 -76 26q-52 33 -72 33q-39 0 -70 -59z" />
    <glyph glyph-name="hungarumlaut" unicode="&#x2dd;" 
d="M77 505l80 204h142l-145 -204h-77zM302 505l79 204h142l-144 -204h-77z" />
    <glyph glyph-name="uni0300" unicode="&#x300;" horiz-adv-x="0" 
d="M-5 505l-143 204h144l78 -204h-79z" />
    <glyph glyph-name="uni0301" unicode="&#x301;" horiz-adv-x="0" 
d="M-74 505l78 204h144l-143 -204h-79z" />
    <glyph glyph-name="uni0302" unicode="&#x302;" horiz-adv-x="0" 
d="M-186 505l130 204h112l130 -204h-86l-100 104l-100 -104h-86z" />
    <glyph glyph-name="uni0303" unicode="&#x303;" horiz-adv-x="0" 
d="M-146 518l-58 27q45 137 132 137q34 0 85 -32q42 -27 63 -27q39 0 70 59l58 -27q-45 -137 -132 -137q-35 0 -76 26q-52 33 -72 33q-39 0 -70 -59z" />
    <glyph glyph-name="uni0304" unicode="&#x304;" horiz-adv-x="0" 
d="M-173 555v101h346v-101h-346z" />
    <glyph glyph-name="uni0306" unicode="&#x306;" horiz-adv-x="0" 
d="M0 513q-45 0 -83.5 16t-62.5 40t-37.5 45t-18.5 36l49 41q20 -27 59 -51.5t94 -24.5t94 24.5t59 51.5l49 -41q-5 -15 -18.5 -36t-37.5 -45t-62.5 -40t-83.5 -16z" />
    <glyph glyph-name="uni0307" unicode="&#x307;" horiz-adv-x="0" 
d="M-65 536v131h131v-131h-131z" />
    <glyph glyph-name="uni0308" unicode="&#x308;" horiz-adv-x="0" 
d="M-180 536v131h131v-131h-131zM49 536v131h131v-131h-131z" />
    <glyph glyph-name="uni0309" unicode="&#x309;" horiz-adv-x="0" 
d="M-10 498l-31 43q71 47 71 86t-40 39q-44 0 -44 -43h-77q0 56 33.5 84t91.5 28q55 0 87.5 -23.5t32.5 -68.5q0 -43 -29.5 -75t-94.5 -70z" />
    <glyph glyph-name="uni030A" unicode="&#x30a;" horiz-adv-x="0" 
d="M0 492q-59 0 -97.5 37t-38.5 94t38.5 94t97.5 37t97.5 -37t38.5 -94t-38.5 -94t-97.5 -37zM0 560q28 0 45.5 17t17.5 46t-17.5 46t-45.5 17t-45.5 -17t-17.5 -46t17.5 -46t45.5 -17z" />
    <glyph glyph-name="uni030B" unicode="&#x30b;" horiz-adv-x="0" 
d="M-166 505l80 204h142l-145 -204h-77zM59 505l79 204h142l-144 -204h-77z" />
    <glyph glyph-name="uni030C" unicode="&#x30c;" horiz-adv-x="0" 
d="M-56 505l-130 204h86l100 -104l100 104h86l-130 -204h-112z" />
    <glyph glyph-name="uni030D" unicode="&#x30d;" horiz-adv-x="0" 
d="M-49 505v204h98v-204h-98z" />
    <glyph glyph-name="uni030E" unicode="&#x30e;" horiz-adv-x="0" 
d="M38 505v204h98v-204h-98zM-136 505v204h98v-204h-98z" />
    <glyph glyph-name="uni030F" unicode="&#x30f;" horiz-adv-x="0" 
d="M86 709l80 -204h-77l-145 204h142zM-138 709l79 -204h-77l-144 204h142z" />
    <glyph glyph-name="uni0312" unicode="&#x312;" horiz-adv-x="0" 
d="M-75 509l74 193q10 28 41 28q34 0 34 -36q0 -9 -3 -33l-17 -152h-129z" />
    <glyph glyph-name="uni0313" unicode="&#x313;" horiz-adv-x="0" 
d="M106 730l-74 -193q-10 -28 -41 -28q-34 0 -34 36q0 9 3 33l17 152h129z" />
    <glyph glyph-name="uni0315" unicode="&#x315;" horiz-adv-x="0" 
d="M67 656l-74 -193q-10 -28 -41 -28q-34 0 -34 36q0 9 3 33l17 152h129z" />
    <glyph glyph-name="uni031B" unicode="&#x31b;" horiz-adv-x="0" 
d="M-83 389v58q38 0 53.5 19t15.5 59q0 27 -5 60h97q5 -25 5 -62q0 -75 -40.5 -104.5t-125.5 -29.5z" />
    <glyph glyph-name="uni0323" unicode="&#x323;" horiz-adv-x="0" 
d="M-65 -191v131h131v-131h-131z" />
    <glyph glyph-name="uni0324" unicode="&#x324;" horiz-adv-x="0" 
d="M-180 -191v131h131v-131h-131zM49 -191v131h131v-131h-131z" />
    <glyph glyph-name="uni0326" unicode="&#x326;" horiz-adv-x="0" 
d="M-42 -265q-34 0 -34 36q0 9 3 33l17 152h129l-74 -193q-10 -28 -41 -28z" />
    <glyph glyph-name="uni0327" unicode="&#x327;" horiz-adv-x="0" 
d="M15 -195q-68 0 -101 21l10 51q28 -11 55 -11q33 0 33 18q0 25 -77 39l17 77h61l-9 -39q120 -25 120 -88q0 -31 -28 -49.5t-81 -18.5z" />
    <glyph glyph-name="uni0328" unicode="&#x328;" horiz-adv-x="0" 
d="M-57 -195q-50 0 -78 18t-28 48q0 20 12 39t35.5 36t42 28t48.5 26h69q-54 -45 -74.5 -66.5t-20.5 -39.5q0 -26 36 -26q26 0 48 9l11 -52q-42 -20 -101 -20z" />
    <glyph glyph-name="uni032E" unicode="&#x32e;" horiz-adv-x="0" 
d="M0 -204q-44 0 -82.5 15t-62 36.5t-37 40.5t-17.5 32l49 43q52 -66 150 -66t150 66l49 -43q-4 -13 -17.5 -32t-37 -40.5t-62 -36.5t-82.5 -15z" />
    <glyph glyph-name="uni0331" unicode="&#x331;" horiz-adv-x="0" 
d="M-173 -175v101h346v-101h-346z" />
    <glyph glyph-name="uni0340" unicode="&#x340;" horiz-adv-x="0" 
d="M-5 505l-143 204h144l78 -204h-79z" />
    <glyph glyph-name="uni0341" unicode="&#x341;" horiz-adv-x="0" 
d="M-74 505l78 204h144l-143 -204h-79z" />
    <glyph glyph-name="uni0342" unicode="&#x342;" horiz-adv-x="0" 
d="M-146 518l-58 27q45 137 132 137q34 0 85 -32q42 -27 63 -27q39 0 70 59l58 -27q-45 -137 -132 -137q-35 0 -76 26q-52 33 -72 33q-39 0 -70 -59z" />
    <glyph glyph-name="uni0343" unicode="&#x343;" horiz-adv-x="0" 
d="M106 730l-74 -193q-10 -28 -41 -28q-34 0 -34 36q0 9 3 33l17 152h129z" />
    <glyph glyph-name="tonos" unicode="&#x384;" 
d="M273 505l-45 204h144l-45 -204h-54z" />
    <glyph glyph-name="dieresistonos" unicode="&#x385;" 
d="M89 541v121h121v-121h-121zM277 505l-40 204h124l-40 -204h-44zM390 541v121h121v-121h-121z" />
    <glyph glyph-name="Alphatonos" unicode="&#x386;" 
d="M45 375l-45 204h144l-45 -204h-54zM50 0l202 579h145l203 -579h-147l-38 118h-183l-37 -118h-145zM274 259l-9 -33h115l-8 29l-50 180z" />
    <glyph glyph-name="Epsilontonos" unicode="&#x388;" 
d="M214 0v579h331v-116h-192v-110h146v-116h-146v-121h192v-116h-331zM45 375l-45 204h144l-45 -204h-54z" />
    <glyph glyph-name="Etatonos" unicode="&#x389;" 
d="M206 0v579h116v-233h109v233h116v-579h-116v244h-109v-244h-116zM45 375l-45 204h136l-45 -204h-46z" />
    <glyph glyph-name="Iotatonos" unicode="&#x38a;" 
d="M184 0v116h117v347h-117v116h374v-116h-118v-347h118v-116h-374zM45 375l-45 204h144l-45 -204h-54z" />
    <glyph glyph-name="Omicrontonos" unicode="&#x38c;" 
d="M372 -10q-215 0 -215 300q0 142 53 221t162 79q215 0 215 -301q0 -142 -53 -220.5t-162 -78.5zM372 103q43 0 60 48t17 138t-17 139t-60 49t-60 -48.5t-17 -138.5t17 -138.5t60 -48.5zM45 375l-45 204h136l-45 -204h-46z" />
    <glyph glyph-name="Upsilontonos" unicode="&#x38e;" 
d="M309 0v226l-164 353h140l57 -130l36 -111l35 111l58 130h129l-164 -352v-227h-127zM45 375l-45 204h136l-45 -204h-46z" />
    <glyph glyph-name="Omegatonos" unicode="&#x38f;" 
d="M146 0v98h96q-42 48 -65.5 102.5t-23.5 135.5q0 115 54 184.5t162 69.5q110 0 163 -68t53 -186q0 -81 -23.5 -135.5t-65.5 -102.5h96v-98h-195v87q50 107 50 240q0 150 -78 150t-78 -150q0 -133 50 -240v-87h-195zM45 375l-45 204h136l-45 -204h-46z" />
    <glyph glyph-name="iotadieresistonos" unicode="&#x390;" 
d="M82 526v121h121v-121h-121zM270 490l-40 204h124l-40 -204h-44zM383 526v121h121v-121h-121zM409 -10q-93 0 -138 47.5t-45 160.5v148h-151v101h285v-244q0 -56 16 -79t64 -23q52 0 94 18v-107q-50 -22 -125 -22z" />
    <glyph glyph-name="Alpha" unicode="&#x391;" 
d="M25 0l202 579h145l203 -579h-147l-38 118h-183l-37 -118h-145zM249 259l-9 -33h115l-8 29l-50 180z" />
    <glyph glyph-name="Beta" unicode="&#x392;" 
d="M90 0v579h217q107 0 167 -43.5t60 -118.5q0 -82 -77 -119q97 -39 97 -129q0 -75 -62.5 -122t-166.5 -47h-235zM229 242v-129h84q97 0 97 65q0 64 -98 64h-83zM229 467v-121h63q55 0 76.5 15.5t21.5 43.5q0 62 -96 62h-65z" />
    <glyph glyph-name="Gamma" unicode="&#x393;" 
d="M90 0v579h436v-116h-297v-463h-139z" />
    <glyph glyph-name="uni0394" unicode="&#x394;" 
d="M43 0v94l184 485h146l184 -485v-94h-514zM238 256l-50 -148h218l-50 148l-59 185z" />
    <glyph glyph-name="Epsilon" unicode="&#x395;" 
d="M90 0v579h431v-116h-292v-110h246v-116h-246v-121h292v-116h-431z" />
    <glyph glyph-name="Zeta" unicode="&#x396;" 
d="M63 0v94l284 369h-279v116h460v-94l-284 -369h293v-116h-474z" />
    <glyph glyph-name="Eta" unicode="&#x397;" 
d="M90 0v579h139v-226h142v226h139v-579h-139v237h-142v-237h-139z" />
    <glyph glyph-name="Theta" unicode="&#x398;" 
d="M297 -10q-126 0 -188.5 77t-62.5 220q0 144 63 223.5t193 79.5q128 0 190 -77.5t62 -218.5q0 -142 -63.5 -223t-193.5 -81zM300 109q66 0 88.5 46t22.5 135q0 90 -22.5 135.5t-88.5 45.5t-88.5 -45.5t-22.5 -135.5q0 -89 22.5 -135t88.5 -46zM214 244v92h172v-92h-172z
" />
    <glyph glyph-name="Iota" unicode="&#x399;" 
d="M89 0v116h141v347h-141v116h422v-116h-142v-347h142v-116h-422z" />
    <glyph glyph-name="Kappa" unicode="&#x39a;" 
d="M90 0v579h139v-218l180 218h167l-203 -227l213 -352h-166l-142 248l-49 -53v-195h-139z" />
    <glyph glyph-name="Lambda" unicode="&#x39b;" 
d="M19 0l214 579h134l214 -579h-156l-87 268l-42 154l-42 -153l-86 -269h-149z" />
    <glyph glyph-name="Mu" unicode="&#x39c;" 
d="M61 0v579h165l44 -145l33 -127l32 127l44 145h160v-579h-122v255l18 195l-90 -298h-90l-90 298l18 -195v-255h-122z" />
    <glyph glyph-name="Nu" unicode="&#x39d;" 
d="M90 0v579h170l147 -445l-16 196v249h119v-579h-170l-147 445l16 -196v-249h-119z" />
    <glyph glyph-name="Xi" unicode="&#x39e;" 
d="M79 0v116h442v-116h-442zM125 237v116h350v-116h-350zM79 463v116h442v-116h-442z" />
    <glyph glyph-name="Omicron" unicode="&#x39f;" 
d="M297 -10q-126 0 -188.5 77t-62.5 220q0 144 63 223.5t193 79.5q128 0 190 -77.5t62 -218.5q0 -142 -63.5 -223t-193.5 -81zM300 109q66 0 88.5 46t22.5 135q0 90 -22.5 135.5t-88.5 45.5t-88.5 -45.5t-22.5 -135.5q0 -89 22.5 -135t88.5 -46z" />
    <glyph glyph-name="Pi" unicode="&#x3a0;" 
d="M90 0v579h420v-579h-140v463h-140v-463h-140z" />
    <glyph glyph-name="Rho" unicode="&#x3a1;" 
d="M90 0v579h211q111 0 181.5 -48.5t70.5 -150.5t-70.5 -151t-181.5 -49h-72v-180h-139zM229 465v-170h72q110 0 110 85t-110 85h-72z" />
    <glyph glyph-name="Sigma" unicode="&#x3a3;" 
d="M74 0v94l210 195l-210 196v94h456v-116h-264l155 -136v-73l-155 -138h264v-116h-456z" />
    <glyph glyph-name="Tau" unicode="&#x3a4;" 
d="M230 0v463h-187v116h514v-116h-188v-463h-139z" />
    <glyph glyph-name="Upsilon" unicode="&#x3a5;" 
d="M230 0v226l-214 353h166l65 -117l54 -124l61 124l66 117h155l-214 -352v-227h-139z" />
    <glyph glyph-name="Phi" unicode="&#x3a6;" 
d="M240 0v47q-104 6 -168 72t-64 171q0 103 64.5 170t167.5 73v46h120v-46q104 -6 168 -72t64 -171q0 -103 -64.5 -170t-167.5 -73v-47h-120zM240 155v270q-49 -3 -75 -43t-26 -92t26 -92t75 -43zM360 155q49 3 75 43t26 92t-26 92t-75 43v-270z" />
    <glyph glyph-name="Chi" unicode="&#x3a7;" 
d="M22 0l197 296l-184 283h166l75 -128l28 -56l28 56l76 128h157l-184 -275l197 -304h-166l-84 145l-31 55l-31 -55l-87 -145h-157z" />
    <glyph glyph-name="Psi" unicode="&#x3a8;" 
d="M237 0v158q-57 0 -104.5 19t-82 68.5t-34.5 124.5v209h126v-199q0 -53 25.5 -81t69.5 -28v308h126v-308q44 0 69.5 28t25.5 81v199h126v-209q0 -57 -20 -99.5t-53.5 -66t-70.5 -35t-77 -11.5v-158h-126z" />
    <glyph glyph-name="uni03A9" unicode="&#x3a9;" 
d="M35 0v102h111q-40 30 -70 89.5t-30 142.5q0 117 66 186.5t188 69.5q124 0 189 -66t65 -187q0 -84 -29 -143.5t-71 -91.5h111v-102h-226v90q73 102 73 229q0 153 -112 153t-112 -153q0 -127 73 -229v-90h-226z" />
    <glyph glyph-name="Iotadieresis" unicode="&#x3aa;" 
d="M121 647v131h131v-131h-131zM350 647v131h131v-131h-131zM89 0v116h141v347h-141v116h422v-116h-142v-347h142v-116h-422z" />
    <glyph glyph-name="Upsilondieresis" unicode="&#x3ab;" 
d="M120 647v131h131v-131h-131zM349 647v131h131v-131h-131zM230 0v226l-214 353h166l65 -117l54 -124l61 124l66 117h155l-214 -352v-227h-139z" />
    <glyph glyph-name="alphatonos" unicode="&#x3ac;" 
d="M240 490l-45 204h144l-45 -204h-54zM236 -10q-82 0 -131.5 59t-49.5 173q0 117 51 176t131 59q53 0 93.5 -24t62.5 -61v75h118v-333q0 -13 5 -17.5t19 -4.5q15 0 35 4v-86q-40 -20 -94 -20q-83 0 -83 76v9q-53 -85 -157 -85zM280 102q30 0 56 16t41 39v134q-15 23 -41 39
t-56 16q-44 0 -65 -34t-21 -88t21 -88t65 -34z" />
    <glyph glyph-name="epsilontonos" unicode="&#x3ad;" 
d="M276 490l-45 204h144l-45 -204h-54zM302 -10q-111 0 -174 37t-63 103q0 35 21 62.5t56 41.5q-61 27 -61 91q0 66 61.5 99t161.5 33q211 0 225 -152h-127q-7 51 -101 51q-86 0 -86 -41q0 -43 88 -43h44v-84h-44q-100 0 -100 -47q0 -50 100 -50q45 0 73 13.5t31 37.5h127
q-3 -55 -37 -90t-82.5 -48.5t-112.5 -13.5z" />
    <glyph glyph-name="etatonos" unicode="&#x3ae;" 
d="M273 505l-45 204h144l-45 -204h-54zM376 -185v438q0 49 -15.5 70.5t-54.5 21.5q-50 0 -82 -32v-313h-134v447h119v-60q47 70 144 70q68 0 112.5 -42t44.5 -138v-462h-134z" />
    <glyph glyph-name="iotatonos" unicode="&#x3af;" 
d="M266 490l-45 204h144l-45 -204h-54zM409 -10q-93 0 -138 47.5t-45 160.5v148h-151v101h285v-244q0 -56 16 -79t64 -23q52 0 94 18v-107q-50 -22 -125 -22z" />
    <glyph glyph-name="upsilondieresistonos" unicode="&#x3b0;" 
d="M89 541v121h121v-121h-121zM277 505l-40 204h124l-40 -204h-44zM390 541v121h121v-121h-121zM300 -10q-104 0 -157 44.5t-53 146.5v266h134v-253q0 -49 16.5 -70t59.5 -21t59.5 21t16.5 70v253h134v-262q0 -102 -53.5 -148.5t-156.5 -46.5z" />
    <glyph glyph-name="alpha" unicode="&#x3b1;" 
d="M236 -10q-82 0 -131.5 59t-49.5 173q0 117 51 176t131 59q53 0 93.5 -24t62.5 -61v75h118v-333q0 -13 5 -17.5t19 -4.5q15 0 35 4v-86q-40 -20 -94 -20q-83 0 -83 76v9q-53 -85 -157 -85zM280 102q30 0 56 16t41 39v134q-15 23 -41 39t-56 16q-44 0 -65 -34t-21 -88
t21 -88t65 -34z" />
    <glyph glyph-name="beta" unicode="&#x3b2;" 
d="M85 -185v620q0 112 57.5 171.5t164.5 59.5q103 0 162 -51.5t59 -129.5q0 -114 -122 -165q146 -44 146 -161q0 -74 -56.5 -121.5t-149.5 -47.5q-77 0 -127 31v-206h-134zM219 438v-319q45 -19 100 -19q95 0 95 67q0 39 -31.5 65.5t-104.5 44.5v76q114 39 114 123
q0 81 -82 81q-47 0 -69 -28.5t-22 -90.5z" />
    <glyph glyph-name="gamma" unicode="&#x3b3;" 
d="M232 -185v182l-203 450h153l75 -184l45 -134l46 133l76 185h147l-205 -450v-182h-134z" />
    <glyph glyph-name="delta" unicode="&#x3b4;" 
d="M300 -10q-47 0 -88.5 12t-77.5 37t-57 69.5t-21 103.5q0 97 52.5 152.5t127.5 55.5q54 0 90 -22l2 3l-82 52l-136 111v92h390v-101h-219l142 -116q121 -99 121 -226q0 -112 -71 -167.5t-173 -55.5zM300 100q106 0 106 112t-107 112q-105 0 -105 -112t106 -112z" />
    <glyph glyph-name="epsilon" unicode="&#x3b5;" 
d="M302 -10q-111 0 -174 37t-63 103q0 35 21 62.5t56 41.5q-61 27 -61 91q0 66 61.5 99t161.5 33q211 0 225 -152h-127q-7 51 -101 51q-86 0 -86 -41q0 -43 88 -43h44v-84h-44q-100 0 -100 -47q0 -50 100 -50q45 0 73 13.5t31 37.5h127q-3 -55 -37 -90t-82.5 -48.5
t-112.5 -13.5z" />
    <glyph glyph-name="zeta" unicode="&#x3b6;" 
d="M426 -195l-71 56q48 42 48 78q0 27 -22.5 41.5t-77.5 31.5q-98 30 -134 53q-80 50 -80 145q0 74 47.5 134t153.5 136l105 75h-285v101h452v-92l-196 -166q-74 -62 -106 -100t-32 -79q0 -20 7.5 -35t25 -26t32 -17t42.5 -15l9 -3q8 -3 34 -11.5t34 -11.5t28.5 -11t28 -13
t22.5 -14t20.5 -17.5t13 -20t10 -25.5t2.5 -30q0 -101 -111 -164z" />
    <glyph glyph-name="eta" unicode="&#x3b7;" 
d="M376 -185v438q0 49 -15.5 70.5t-54.5 21.5q-50 0 -82 -32v-313h-134v447h119v-60q47 70 144 70q68 0 112.5 -42t44.5 -138v-462h-134z" />
    <glyph glyph-name="theta" unicode="&#x3b8;" 
d="M300 -10q-49 0 -87 11t-71 37t-51 76t-18 122v181q0 249 227 249q49 0 87 -11t71 -37t51 -76t18 -122v-181q0 -249 -227 -249zM300 100q51 0 72.5 34t21.5 110v34h-189v-34q0 -76 21.5 -110t73.5 -34zM205 412v-34h189v34q0 76 -21.5 110t-72.5 34q-52 0 -73.5 -34
t-21.5 -110z" />
    <glyph glyph-name="iota" unicode="&#x3b9;" 
d="M409 -10q-93 0 -138 47.5t-45 160.5v148h-151v101h285v-244q0 -56 16 -79t64 -23q52 0 94 18v-107q-50 -22 -125 -22z" />
    <glyph glyph-name="kappa" unicode="&#x3ba;" 
d="M90 0v447h134v-144l164 144h179l-189 -161l201 -286h-162l-136 212l-57 -45v-167h-134z" />
    <glyph glyph-name="lambda" unicode="&#x3bb;" 
d="M29 0l200 404l-25 50q-28 55 -68 80.5t-121 25.5v101q126 0 191 -33t114 -129l251 -499h-152l-72 161l-48 125l-48 -125l-73 -161h-149z" />
    <glyph glyph-name="uni03BC" unicode="&#x3bc;" 
d="M90 -185v632h134v-339h33q44 0 72.5 12t38.5 25v302h134v-333q0 -13 5 -17.5t19 -4.5q15 0 35 4v-86q-40 -20 -93 -20q-77 0 -77 63v19q-49 -72 -150 -72h-17v-185h-134z" />
    <glyph glyph-name="nu" unicode="&#x3bd;" 
d="M231 0l-202 447h153l75 -184l45 -134l46 133l76 185h147l-203 -447h-137z" />
    <glyph glyph-name="xi" unicode="&#x3be;" 
d="M419 -195l-71 56q48 42 48 78q0 27 -22.5 41.5t-77.5 31.5q-97 30 -130 49q-84 48 -84 139q0 114 119 157q-48 17 -77.5 52.5t-29.5 87.5q0 72 58 120.5t166 48.5q99 0 160.5 -45t69.5 -136h-127q-14 75 -101 75q-91 0 -91 -66q0 -82 150 -82h57v-100h-59q-74 0 -115 -25
t-41 -70q0 -17 7 -30t14.5 -21t27 -17.5t30 -13l37.5 -12.5q8 -3 34 -11.5t34 -11.5t28.5 -11t28 -13t22.5 -14t20.5 -17.5t13 -20t10 -25.5t2.5 -30q0 -101 -111 -164z" />
    <glyph glyph-name="omicron" unicode="&#x3bf;" 
d="M297 -10q-47 0 -87.5 11.5t-76.5 37t-56.5 72.5t-20.5 111q0 66 21.5 113.5t58.5 73t78.5 37t88.5 11.5t88 -11.5t76.5 -37t56 -72t20.5 -110.5q0 -53 -14.5 -94.5t-38.5 -67.5t-57 -43t-66.5 -24t-70.5 -7zM300 100q105 0 105 124t-105 124t-105 -124t105 -124z" />
    <glyph glyph-name="pi" unicode="&#x3c0;" 
d="M105 0v346h-50v101h490v-101h-50v-346h-134v346h-122v-346h-134z" />
    <glyph glyph-name="rho" unicode="&#x3c1;" 
d="M77 -185v384q0 124 57.5 191t176.5 67t179 -55.5t60 -172.5q0 -121 -58.5 -180t-142.5 -59q-45 0 -83 15t-55 33v-223h-134zM307 101q103 0 103 122q0 123 -99 123q-100 0 -100 -141v-74q43 -30 96 -30z" />
    <glyph glyph-name="sigma1" unicode="&#x3c2;" 
d="M398 -195l-71 56q48 42 48 78q0 25 -22 40.5t-78 32.5q-51 15 -85 30.5t-65.5 40t-47 62t-15.5 87.5q0 109 66 167t176 58q97 0 160.5 -50t65.5 -154h-134q-8 97 -96 97q-51 0 -76 -30.5t-25 -79.5q0 -50 27 -73t90 -44q103 -34 129 -49q64 -36 64 -105q0 -101 -111 -164
z" />
    <glyph glyph-name="sigma" unicode="&#x3c3;" 
d="M288 -10q-47 0 -88 11.5t-77 36.5t-56.5 71.5t-20.5 109.5q0 54 16 95t41 65.5t60.5 40.5t70.5 21.5t75 5.5h251v-103h-83q57 -49 57 -147q0 -101 -70.5 -154t-175.5 -53zM395 219q0 69 -33 125h-32q-76 0 -110.5 -28t-34.5 -96q0 -123 105 -123t105 122z" />
    <glyph glyph-name="tau" unicode="&#x3c4;" 
d="M361 -10q-92 0 -136.5 47.5t-44.5 160.5v148h-139v101h494v-101h-221v-143q0 -57 16.5 -79.5t64.5 -22.5q54 0 119 26v-105q-70 -32 -153 -32z" />
    <glyph glyph-name="upsilon" unicode="&#x3c5;" 
d="M300 -10q-104 0 -157 44.5t-53 146.5v266h134v-253q0 -49 16.5 -70t59.5 -21t59.5 21t16.5 70v253h134v-262q0 -102 -53.5 -148.5t-156.5 -46.5z" />
    <glyph glyph-name="phi" unicode="&#x3c6;" 
d="M236 -185v175q-41 3 -75.5 15t-67.5 37t-52.5 71.5t-19.5 111.5q0 57 14 119t39 103h131q-24 -32 -43.5 -93.5t-19.5 -124.5q0 -130 94 -136v130q0 133 45 183.5t121 50.5q175 0 175 -211q0 -70 -18.5 -120.5t-52 -78t-70 -41t-80.5 -16.5v-175h-120zM356 225v-132
q56 6 80.5 42.5t24.5 109.5q0 109 -55 109q-28 0 -39 -29t-11 -100z" />
    <glyph glyph-name="chi" unicode="&#x3c7;" 
d="M22 -185l205 324l-197 308h155l117 -202l117 202h149l-196 -310l207 -322h-159l-123 216l-123 -216h-152z" />
    <glyph glyph-name="psi" unicode="&#x3c8;" 
d="M240 -185v175q-90 0 -144.5 47t-54.5 144v266h121v-255q0 -50 19.5 -72t58.5 -22v349h120v-349q39 0 58.5 22t19.5 72v255h121v-266q0 -96 -55.5 -143.5t-143.5 -47.5v-175h-120z" />
    <glyph glyph-name="omega" unicode="&#x3c9;" 
d="M178 -10q-82 0 -119 63.5t-37 164.5q0 139 53 229h131q-24 -31 -43.5 -98.5t-19.5 -140.5q0 -112 51 -112q24 0 35 28t11 95v115h120v-115q0 -67 11 -95t35 -28q51 0 51 112q0 73 -19.5 140.5t-43.5 98.5h131q53 -90 53 -229q0 -101 -37 -164.5t-119 -63.5q-88 0 -122 75
q-36 -75 -122 -75z" />
    <glyph glyph-name="iotadieresis" unicode="&#x3ca;" 
d="M114 521v131h131v-131h-131zM343 521v131h131v-131h-131zM409 -10q-93 0 -138 47.5t-45 160.5v148h-151v101h285v-244q0 -56 16 -79t64 -23q52 0 94 18v-107q-50 -22 -125 -22z" />
    <glyph glyph-name="upsilondieresis" unicode="&#x3cb;" 
d="M121 536v131h131v-131h-131zM350 536v131h131v-131h-131zM300 -10q-104 0 -157 44.5t-53 146.5v266h134v-253q0 -49 16.5 -70t59.5 -21t59.5 21t16.5 70v253h134v-262q0 -102 -53.5 -148.5t-156.5 -46.5z" />
    <glyph glyph-name="omicrontonos" unicode="&#x3cc;" 
d="M273 505l-45 204h144l-45 -204h-54zM297 -10q-47 0 -87.5 11.5t-76.5 37t-56.5 72.5t-20.5 111q0 66 21.5 113.5t58.5 73t78.5 37t88.5 11.5t88 -11.5t76.5 -37t56 -72t20.5 -110.5q0 -53 -14.5 -94.5t-38.5 -67.5t-57 -43t-66.5 -24t-70.5 -7zM300 100q105 0 105 124
t-105 124t-105 -124t105 -124z" />
    <glyph glyph-name="upsilontonos" unicode="&#x3cd;" 
d="M273 505l-45 204h144l-45 -204h-54zM300 -10q-104 0 -157 44.5t-53 146.5v266h134v-253q0 -49 16.5 -70t59.5 -21t59.5 21t16.5 70v253h134v-262q0 -102 -53.5 -148.5t-156.5 -46.5z" />
    <glyph glyph-name="omegatonos" unicode="&#x3ce;" 
d="M273 505l-45 204h144l-45 -204h-54zM178 -10q-82 0 -119 63.5t-37 164.5q0 139 53 229h131q-24 -31 -43.5 -98.5t-19.5 -140.5q0 -112 51 -112q24 0 35 28t11 95v115h120v-115q0 -67 11 -95t35 -28q51 0 51 112q0 73 -19.5 140.5t-43.5 98.5h131q53 -90 53 -229
q0 -101 -37 -164.5t-119 -63.5q-88 0 -122 75q-36 -75 -122 -75z" />
    <glyph glyph-name="uni0400" unicode="&#x400;" 
d="M301 616l-143 204h144l78 -204h-79zM90 0v579h431v-116h-292v-110h246v-116h-246v-121h292v-116h-431z" />
    <glyph glyph-name="uni0401" unicode="&#x401;" 
d="M127 647v131h131v-131h-131zM356 647v131h131v-131h-131zM90 0v579h431v-116h-292v-110h246v-116h-246v-121h292v-116h-431z" />
    <glyph glyph-name="uni0402" unicode="&#x402;" 
d="M343 -5q-18 0 -38 2v113q14 -2 25 -2q80 0 80 66q0 69 -97 69h-61v-243h-140v463h-101v116h372v-116h-131v-107h73q108 0 168.5 -47t60.5 -132t-57.5 -133.5t-153.5 -48.5z" />
    <glyph glyph-name="uni0403" unicode="&#x403;" 
d="M234 616l78 204h144l-143 -204h-79zM90 0v579h436v-116h-297v-463h-139z" />
    <glyph glyph-name="uni0404" unicode="&#x404;" 
d="M306 -10q-260 0 -260 295q0 305 267 305q228 0 239 -232h-142q-4 59 -29 86t-76 27q-60 0 -85 -34t-30 -103h164v-89h-164q5 -68 30.5 -102t86.5 -34q52 0 75.5 26.5t27.5 85.5h142q-15 -231 -246 -231z" />
    <glyph glyph-name="uni0405" unicode="&#x405;" 
d="M295 -10q-113 0 -173 49.5t-60 141.5h131q4 -42 29.5 -61t78.5 -19q98 0 98 57q0 22 -16.5 34t-55.5 25l-124 41q-128 43 -128 158q0 83 63.5 128.5t164.5 45.5q103 0 162.5 -48.5t61.5 -139.5h-132q-4 38 -25 57t-69 19q-42 0 -64.5 -14t-22.5 -39q0 -35 55 -53l129 -44
q67 -23 103.5 -59t36.5 -100q0 -88 -67.5 -133.5t-175.5 -45.5z" />
    <glyph glyph-name="uni0406" unicode="&#x406;" 
d="M89 0v116h141v347h-141v116h422v-116h-142v-347h142v-116h-422z" />
    <glyph glyph-name="uni0407" unicode="&#x407;" 
d="M121 647v131h131v-131h-131zM350 647v131h131v-131h-131zM89 0v116h141v347h-141v116h422v-116h-142v-347h142v-116h-422z" />
    <glyph glyph-name="uni0408" unicode="&#x408;" 
d="M290 -10q-114 0 -172.5 59.5t-58.5 158.5q0 40 4 56h139q-3 -16 -3 -47q0 -108 91 -108q92 0 92 116v354h139v-354q0 -113 -58.5 -174t-172.5 -61z" />
    <glyph glyph-name="uni0409" unicode="&#x409;" 
d="M0 -5v97q43 0 59.5 23t20.5 89l22 375h289v-223h4q95 0 150 -46.5t55 -131.5q0 -83 -57 -130.5t-148 -47.5h-123v470h-57l-17 -284q-6 -102 -48.5 -146.5t-149.5 -44.5zM391 253v-150h2q47 0 66.5 22.5t19.5 52.5t-19.5 52.5t-66.5 22.5h-2z" />
    <glyph glyph-name="uni040A" unicode="&#x40a;" 
d="M46 0v579h119v-223h93v223h119v-223h8q95 0 150 -46.5t55 -131.5q0 -83 -57 -130.5t-148 -47.5h-127v253h-93v-253h-119zM377 253v-150h6q47 0 66.5 22.5t19.5 52.5t-19.5 52.5t-66.5 22.5h-6z" />
    <glyph glyph-name="uni040B" unicode="&#x40b;" 
d="M147 0v463h-136v116h413v-116h-137v-113q41 12 88 12q186 0 186 -201v-161h-140v151q0 54 -15.5 73.5t-65.5 19.5q-30 0 -53 -6v-238h-140z" />
    <glyph glyph-name="uni040C" unicode="&#x40c;" 
d="M247 616l78 204h144l-143 -204h-79zM90 0v579h139v-218l180 218h167l-203 -227l213 -352h-166l-142 248l-49 -53v-195h-139z" />
    <glyph glyph-name="uni040D" unicode="&#x40d;" 
d="M295 616l-143 204h144l78 -204h-79zM90 0v579h119v-249l-16 -196l147 445h170v-579h-119v249l16 196l-147 -445h-170z" />
    <glyph glyph-name="uni040E" unicode="&#x40e;" 
d="M324 624q-45 0 -83.5 16t-62.5 40t-37.5 45t-18.5 36l49 41q20 -27 59 -51.5t94 -24.5t94 24.5t59 51.5l49 -41q-5 -15 -18.5 -36t-37.5 -45t-62.5 -40t-83.5 -16zM75 -5v112q63 0 105 22t71 79l-225 371h163l73 -132l62 -123l51 123l55 132h153l-198 -401
q-51 -102 -116.5 -142.5t-193.5 -40.5z" />
    <glyph glyph-name="uni040F" unicode="&#x40f;" 
d="M242 -147v147h-152v579h140v-463h140v463h140v-579h-152v-147h-116z" />
    <glyph glyph-name="uni0410" unicode="&#x410;" 
d="M25 0l202 579h145l203 -579h-147l-38 118h-183l-37 -118h-145zM249 259l-9 -33h115l-8 29l-50 180z" />
    <glyph glyph-name="uni0411" unicode="&#x411;" 
d="M90 0v579h436v-116h-297v-107h96q109 0 169 -46t60 -132q0 -84 -62 -131t-167 -47h-235zM229 243v-130h84q97 0 97 65t-97 65h-84z" />
    <glyph glyph-name="uni0412" unicode="&#x412;" 
d="M90 0v579h217q107 0 167 -43.5t60 -118.5q0 -82 -77 -119q97 -39 97 -129q0 -75 -62.5 -122t-166.5 -47h-235zM229 242v-129h84q97 0 97 65q0 64 -98 64h-83zM229 467v-121h63q55 0 76.5 15.5t21.5 43.5q0 62 -96 62h-65z" />
    <glyph glyph-name="uni0413" unicode="&#x413;" 
d="M90 0v579h436v-116h-297v-463h-139z" />
    <glyph glyph-name="uni0414" unicode="&#x414;" 
d="M15 -147v263q59 0 88 25t36 89l41 349h335v-463h85v-263h-116v147h-353v-147h-116zM231 116h144v347h-71l-27 -235q-9 -78 -46 -112z" />
    <glyph glyph-name="uni0415" unicode="&#x415;" 
d="M90 0v579h431v-116h-292v-110h246v-116h-246v-121h292v-116h-431z" />
    <glyph glyph-name="uni0416" unicode="&#x416;" 
d="M-5 0l124 356l-114 223h130l75 -175l33 -97v272h114v-272l33 97l75 175h130l-115 -223l125 -356h-129l-77 250l-42 -79v-171h-114v171l-43 79l-76 -250h-129z" />
    <glyph glyph-name="uni0417" unicode="&#x417;" 
d="M313 -10q-119 0 -183.5 53t-69.5 146h137q10 -89 109 -89q44 0 70.5 19.5t26.5 52.5q0 66 -103 66h-38v110h37q91 0 91 62q0 31 -22 50.5t-60 19.5q-43 0 -69 -24t-29 -67h-137q4 93 68.5 147t172.5 54q102 0 159 -47.5t57 -126.5q0 -84 -83 -124q45 -17 70.5 -52
t25.5 -82q0 -79 -67 -123.5t-163 -44.5z" />
    <glyph glyph-name="uni0418" unicode="&#x418;" 
d="M90 0v579h119v-249l-16 -196l147 445h170v-579h-119v249l16 196l-147 -445h-170z" />
    <glyph glyph-name="uni0419" unicode="&#x419;" 
d="M300 624q-45 0 -83.5 16t-62.5 40t-37.5 45t-18.5 36l49 41q20 -27 59 -51.5t94 -24.5t94 24.5t59 51.5l49 -41q-5 -15 -18.5 -36t-37.5 -45t-62.5 -40t-83.5 -16zM90 0v579h119v-249l-16 -196l147 445h170v-579h-119v249l16 196l-147 -445h-170z" />
    <glyph glyph-name="uni041A" unicode="&#x41a;" 
d="M90 0v579h139v-218l180 218h167l-203 -227l213 -352h-166l-142 248l-49 -53v-195h-139z" />
    <glyph glyph-name="uni041B" unicode="&#x41b;" 
d="M5 -5v112q60 0 87.5 24.5t36.5 98.5l41 349h345v-579h-140v463h-81l-29 -251q-14 -121 -71 -169t-189 -48z" />
    <glyph glyph-name="uni041C" unicode="&#x41c;" 
d="M61 0v579h165l44 -145l33 -127l32 127l44 145h160v-579h-122v255l18 195l-90 -298h-90l-90 298l18 -195v-255h-122z" />
    <glyph glyph-name="uni041D" unicode="&#x41d;" 
d="M90 0v579h139v-226h142v226h139v-579h-139v237h-142v-237h-139z" />
    <glyph glyph-name="uni041E" unicode="&#x41e;" 
d="M297 -10q-126 0 -188.5 77t-62.5 220q0 144 63 223.5t193 79.5q128 0 190 -77.5t62 -218.5q0 -142 -63.5 -223t-193.5 -81zM300 109q66 0 88.5 46t22.5 135q0 90 -22.5 135.5t-88.5 45.5t-88.5 -45.5t-22.5 -135.5q0 -89 22.5 -135t88.5 -46z" />
    <glyph glyph-name="uni041F" unicode="&#x41f;" 
d="M90 0v579h420v-579h-140v463h-140v-463h-140z" />
    <glyph glyph-name="uni0420" unicode="&#x420;" 
d="M90 0v579h211q111 0 181.5 -48.5t70.5 -150.5t-70.5 -151t-181.5 -49h-72v-180h-139zM229 465v-170h72q110 0 110 85t-110 85h-72z" />
    <glyph glyph-name="uni0421" unicode="&#x421;" 
d="M306 -10q-260 0 -260 295q0 305 267 305q228 0 239 -232h-142q-4 59 -29 86t-76 27q-68 0 -92 -44.5t-24 -136.5q0 -93 24 -137t94 -44q52 0 75.5 26.5t27.5 85.5h142q-15 -231 -246 -231z" />
    <glyph glyph-name="uni0422" unicode="&#x422;" 
d="M230 0v463h-187v116h514v-116h-188v-463h-139z" />
    <glyph glyph-name="uni0423" unicode="&#x423;" 
d="M75 -5v112q63 0 105 22t71 79l-225 371h163l73 -132l62 -123l51 123l55 132h153l-198 -401q-51 -102 -116.5 -142.5t-193.5 -40.5z" />
    <glyph glyph-name="uni0424" unicode="&#x424;" 
d="M240 0v87q-108 0 -170 50t-62 153q0 101 63 152t169 51v86h119v-86q108 0 170 -50t62 -153q0 -101 -63 -152t-169 -51v-87h-119zM240 191v198q-105 0 -105 -99t105 -99zM359 389v-198q105 0 105 99t-105 99z" />
    <glyph glyph-name="uni0425" unicode="&#x425;" 
d="M22 0l197 296l-184 283h166l75 -128l28 -56l28 56l76 128h157l-184 -275l197 -304h-166l-84 145l-31 55l-31 -55l-87 -145h-157z" />
    <glyph glyph-name="uni0426" unicode="&#x426;" 
d="M460 -147v147h-370v579h140v-463h140v463h140v-463h66v-263h-116z" />
    <glyph glyph-name="uni0427" unicode="&#x427;" 
d="M370 0v229q-50 -12 -104 -12q-84 0 -137 49.5t-53 161.5v151h140v-141q0 -60 19.5 -81.5t70.5 -21.5q34 0 64 6v238h140v-579h-140z" />
    <glyph glyph-name="uni0428" unicode="&#x428;" 
d="M46 0v579h119v-469h78v469h114v-469h78v469h119v-579h-508z" />
    <glyph glyph-name="uni0429" unicode="&#x429;" 
d="M484 -147v147h-438v579h119v-469h78v469h114v-469h78v469h119v-469h46v-257h-116z" />
    <glyph glyph-name="uni042A" unicode="&#x42a;" 
d="M170 0v463h-150v116h289v-223h26q109 0 169 -46t60 -132q0 -84 -62 -131t-167 -47h-165zM309 243v-130h14q97 0 97 65t-97 65h-14z" />
    <glyph glyph-name="uni042B" unicode="&#x42b;" 
d="M25 0v579h129v-223h24q109 0 169 -46t60 -132q0 -84 -62 -131t-167 -47h-153zM154 253v-150h12q56 0 81.5 18t25.5 57t-25.5 57t-81.5 18h-12zM446 0v579h129v-579h-129z" />
    <glyph glyph-name="uni042C" unicode="&#x42c;" 
d="M90 0v579h139v-223h96q109 0 169 -46t60 -132q0 -84 -62 -131t-167 -47h-235zM229 243v-130h84q97 0 97 65t-97 65h-84z" />
    <glyph glyph-name="uni042D" unicode="&#x42d;" 
d="M287 -10q-228 0 -239 232h142q4 -59 29 -86t76 -27q60 0 85 34t30 104h-164v89h163q-5 68 -30.5 101.5t-85.5 33.5q-52 0 -75.5 -26.5t-27.5 -85.5h-142q15 231 246 231q260 0 260 -295q0 -305 -267 -305z" />
    <glyph glyph-name="uni042E" unicode="&#x42e;" 
d="M402 -10q-88 0 -125.5 63.5t-42.5 186.5h-73v-240h-119v579h119v-239h73q6 121 44.5 185.5t123.5 64.5q96 0 132.5 -76t36.5 -224q0 -145 -38 -222.5t-131 -77.5zM402 96q30 0 41.5 48t11.5 146t-11.5 146t-41.5 48t-41.5 -48t-11.5 -146t11.5 -146t41.5 -48z" />
    <glyph glyph-name="uni042F" unicode="&#x42f;" 
d="M23 0l154 219q-111 48 -111 168q0 98 71.5 145t183.5 47h189v-579h-139v191h-62l-119 -191h-167zM321 301h50v164h-50q-112 0 -112 -82t112 -82z" />
    <glyph glyph-name="uni0430" unicode="&#x430;" 
d="M222 -10q-71 0 -116.5 32.5t-45.5 96.5q0 48 28.5 78.5t69 41.5t93.5 11q67 0 118 -14v34q0 41 -16.5 62.5t-66.5 21.5q-86 0 -86 -64h-125q0 85 60 126t159 41q208 0 208 -176v-167q0 -23 24 -23q15 0 35 5v-86q-40 -20 -93 -20q-78 0 -78 64v9q-58 -73 -168 -73z
M258 82q36 0 67 10.5t44 22.5v46q-28 6 -87 6q-88 0 -88 -44q0 -41 64 -41z" />
    <glyph glyph-name="uni0431" unicode="&#x431;" 
d="M294 -10q-111 0 -169 55q-69 68 -69 228q0 84 14 145t42 98.5t63 58t84 31.5l243 55v-117l-201 -45q-60 -14 -90 -40t-40 -74q57 62 158 62q41 0 76.5 -10.5t68 -35t51.5 -70t19 -108.5q0 -54 -14.5 -96t-38.5 -67t-57.5 -41.5t-67 -22.5t-72.5 -6zM300 100q53 0 79 27.5
t26 91.5t-26 91.5t-79 27.5t-79 -27.5t-26 -91.5t26 -91.5t79 -27.5z" />
    <glyph glyph-name="uni0432" unicode="&#x432;" 
d="M90 0v447h203q110 0 164.5 -34.5t54.5 -90.5q0 -59 -56 -90q76 -32 76 -104q0 -57 -54.5 -92.5t-166.5 -35.5h-221zM224 181v-82h84q85 0 85 41t-85 41h-84zM224 348v-76h65q49 0 66.5 9.5t17.5 28.5t-17.5 28.5t-66.5 9.5h-65z" />
    <glyph glyph-name="uni0433" unicode="&#x433;" 
d="M100 0v447h416v-102h-282v-345h-134z" />
    <glyph glyph-name="uni0434" unicode="&#x434;" 
d="M14 -133v234h10q54 0 79.5 23.5t34.5 94.5l27 228h345v-346h68v-234h-110v133h-344v-133h-110zM213 101h168v245h-101l-17 -137q-10 -77 -50 -108z" />
    <glyph glyph-name="uni0435" unicode="&#x435;" 
d="M307 -10q-112 0 -180 56t-68 175q0 65 21 112.5t57 73.5t77.5 38t89.5 12q49 0 90 -12.5t75 -38.5t53 -72.5t19 -109.5v-23h-346q0 -110 113 -110q38 0 63.5 12.5t29.5 36.5h138q-17 -79 -80 -114.5t-152 -35.5zM197 282h206q-18 74 -103 74t-103 -74z" />
    <glyph glyph-name="uni0436" unicode="&#x436;" 
d="M-5 0l123 272l-113 175h130l75 -134l35 -74v208h110v-208l35 74l75 134h130l-113 -175l123 -272h-122l-80 195l-48 -67v-128h-110v128l-49 67l-79 -195h-122z" />
    <glyph glyph-name="uni0437" unicode="&#x437;" 
d="M294 -10q-214 0 -228 152h127q6 -51 103 -51q101 0 101 50q0 47 -100 47h-44v84h44q88 0 88 43q0 41 -83 41q-97 0 -104 -51h-127q6 56 41.5 91.5t82 48t105.5 12.5q98 0 158.5 -34.5t60.5 -99.5q0 -29 -16.5 -53.5t-44.5 -37.5q33 -13 55 -40.5t22 -63.5
q0 -66 -66.5 -102t-174.5 -36z" />
    <glyph glyph-name="uni0438" unicode="&#x438;" 
d="M90 0v447h117v-182l-19 -156l162 338h160v-447h-117v182l19 156l-162 -338h-160z" />
    <glyph glyph-name="uni0439" unicode="&#x439;" 
d="M300 513q-45 0 -83.5 16t-62.5 40t-37.5 45t-18.5 36l49 41q20 -27 59 -51.5t94 -24.5t94 24.5t59 51.5l49 -41q-5 -15 -18.5 -36t-37.5 -45t-62.5 -40t-83.5 -16zM90 0v447h117v-182l-19 -156l162 338h160v-447h-117v182l19 156l-162 -338h-160z" />
    <glyph glyph-name="uni043A" unicode="&#x43a;" 
d="M90 0v447h134v-144l164 144h179l-189 -161l201 -286h-162l-136 212l-57 -45v-167h-134z" />
    <glyph glyph-name="uni043B" unicode="&#x43b;" 
d="M19 -5v107q58 0 84 23t35 94l27 228h345v-447h-134v346h-92l-17 -144q-14 -115 -67.5 -161t-180.5 -46z" />
    <glyph glyph-name="uni043C" unicode="&#x43c;" 
d="M50 0v447h155l59 -124l36 -94l36 94l59 124h155v-447h-114v182l21 156l-113 -244h-88l-113 244l21 -156v-182h-114z" />
    <glyph glyph-name="uni043D" unicode="&#x43d;" 
d="M90 0v447h134v-170h152v170h134v-447h-134v176h-152v-176h-134z" />
    <glyph glyph-name="uni043E" unicode="&#x43e;" 
d="M297 -10q-47 0 -87.5 11.5t-76.5 37t-56.5 72.5t-20.5 111q0 66 21.5 113.5t58.5 73t78.5 37t88.5 11.5t88 -11.5t76.5 -37t56 -72t20.5 -110.5q0 -53 -14.5 -94.5t-38.5 -67.5t-57 -43t-66.5 -24t-70.5 -7zM300 100q105 0 105 124t-105 124t-105 -124t105 -124z" />
    <glyph glyph-name="uni043F" unicode="&#x43f;" 
d="M90 0v447h420v-447h-134v346h-152v-346h-134z" />
    <glyph glyph-name="uni0440" unicode="&#x440;" 
d="M89 -185v632h119v-60q19 28 58 49t91 21q83 0 135.5 -59t52.5 -174q0 -117 -54 -175.5t-134 -58.5q-85 0 -134 58v-233h-134zM312 101q94 0 94 122t-94 122q-54 0 -89 -33v-178q35 -33 89 -33z" />
    <glyph glyph-name="uni0441" unicode="&#x441;" 
d="M300 -10q-48 0 -89 11.5t-77 37t-57 73t-21 112.5t21 112.5t57.5 72.5t77.5 36.5t90 11.5q98 0 164.5 -45.5t72.5 -148.5h-136q-7 85 -100 85q-108 0 -108 -124t109 -124q92 0 99 84h136q-6 -102 -74 -148t-165 -46z" />
    <glyph glyph-name="uni0442" unicode="&#x442;" 
d="M233 0v346h-166v101h465v-101h-166v-346h-133z" />
    <glyph glyph-name="uni0443" unicode="&#x443;" 
d="M55 -190v109q73 0 112.5 22t61.5 70l-200 436h153l76 -185l45 -131l45 131l76 185h147l-185 -410q-40 -88 -78 -134t-98 -69.5t-155 -23.5z" />
    <glyph glyph-name="uni0444" unicode="&#x444;" 
d="M244 -185v224q-39 -49 -95 -49q-66 0 -105 56t-39 177q0 120 40.5 177t104.5 57q56 0 94 -48v247h112v-248q39 49 95 49q66 0 105 -56t39 -177q0 -120 -40.5 -177t-104.5 -57q-56 0 -94 48v-223h-112zM191 94q37 0 53 32v194q-16 32 -53 32q-69 0 -69 -129t69 -129z
M409 95q69 0 69 129t-69 129q-37 0 -53 -32v-194q16 -32 53 -32z" />
    <glyph glyph-name="uni0445" unicode="&#x445;" 
d="M22 0l201 229l-191 218h167l107 -131l100 131h161l-187 -219l199 -228h-167l-114 140l-107 -140h-169z" />
    <glyph glyph-name="uni0446" unicode="&#x446;" 
d="M460 -133v133h-370v447h134v-346h152v346h134v-346h60v-234h-110z" />
    <glyph glyph-name="uni0447" unicode="&#x447;" 
d="M376 0v152q-57 -11 -101 -11q-88 0 -142.5 47.5t-54.5 154.5v104h134v-102q0 -58 22.5 -78.5t76.5 -20.5q39 0 65 5v196h134v-447h-134z" />
    <glyph glyph-name="uni0448" unicode="&#x448;" 
d="M44 0v447h115v-346h84v346h114v-346h84v346h115v-447h-512z" />
    <glyph glyph-name="uni0449" unicode="&#x449;" 
d="M496 -133v133h-452v447h115v-346h84v346h114v-346h84v346h115v-346h50v-234h-110z" />
    <glyph glyph-name="uni044A" unicode="&#x44a;" 
d="M204 0v346h-147v101h271v-173h25q94 0 141.5 -32t47.5 -105q0 -137 -189 -137h-149zM328 185v-96h22q64 0 64 48t-64 48h-22z" />
    <glyph glyph-name="uni044B" unicode="&#x44b;" 
d="M44 0v447h124v-173h25q94 0 141.5 -32t47.5 -105q0 -137 -189 -137h-149zM168 185v-96h22q64 0 64 48t-64 48h-22zM432 0v447h124v-447h-124z" />
    <glyph glyph-name="uni044C" unicode="&#x44c;" 
d="M90 0v447h134v-173h117q193 0 193 -137t-193 -137h-251zM224 177v-80h108q64 0 64 40t-64 40h-108z" />
    <glyph glyph-name="uni044D" unicode="&#x44d;" 
d="M295 -10q-44 0 -81.5 9t-71.5 29t-55.5 57t-25.5 89h134q10 -83 98 -83q97 0 111 93h-138v77h138q-14 94 -110 94q-91 0 -99 -82h-134q10 101 74.5 142.5t158.5 41.5q51 0 93 -11.5t79 -37t57.5 -72.5t20.5 -113q0 -65 -21 -112.5t-57.5 -72.5t-78.5 -36.5t-92 -11.5z
" />
    <glyph glyph-name="uni044E" unicode="&#x44e;" 
d="M399 -9q-86 0 -126 48t-47 140h-71v-179h-114v447h114v-179h71q15 189 173 189q96 0 135 -59.5t39 -173.5q0 -112 -40 -172.5t-134 -60.5zM399 84q32 0 46.5 33t14.5 107t-14.5 107t-46.5 33t-46.5 -33t-14.5 -107t14.5 -107t46.5 -33z" />
    <glyph glyph-name="uni044F" unicode="&#x44f;" 
d="M40 0l143 164q-101 44 -101 130q0 77 69 115t177 38h182v-447h-134v143h-63l-114 -143h-159zM328 239h48v108h-48q-108 0 -108 -54t108 -54z" />
    <glyph glyph-name="uni0450" unicode="&#x450;" 
d="M295 505l-143 204h144l78 -204h-79zM307 -10q-112 0 -180 56t-68 175q0 65 21 112.5t57 73.5t77.5 38t89.5 12q49 0 90 -12.5t75 -38.5t53 -72.5t19 -109.5v-23h-346q0 -110 113 -110q38 0 63.5 12.5t29.5 36.5h138q-17 -79 -80 -114.5t-152 -35.5zM197 282h206
q-18 74 -103 74t-103 -74z" />
    <glyph glyph-name="uni0451" unicode="&#x451;" 
d="M121 536v131h131v-131h-131zM350 536v131h131v-131h-131zM307 -10q-112 0 -180 56t-68 175q0 65 21 112.5t57 73.5t77.5 38t89.5 12q49 0 90 -12.5t75 -38.5t53 -72.5t19 -109.5v-23h-346q0 -110 113 -110q38 0 63.5 12.5t29.5 36.5h138q-17 -79 -80 -114.5t-152 -35.5z
M197 282h206q-18 74 -103 74t-103 -74z" />
    <glyph glyph-name="uni0452" unicode="&#x452;" 
d="M230 -190v100q83 0 114.5 34t31.5 114v195q0 49 -15.5 70.5t-54.5 21.5q-53 0 -82 -32v-313h-134v496h-50v97h50v63h134v-63h93v-97h-93v-98q49 59 132 59q154 0 154 -180v-225q0 -74 -21 -123t-61.5 -74.5t-87 -35t-110.5 -9.5z" />
    <glyph glyph-name="uni0453" unicode="&#x453;" 
d="M234 505l78 204h144l-143 -204h-79zM100 0v447h416v-102h-282v-345h-134z" />
    <glyph glyph-name="uni0454" unicode="&#x454;" 
d="M306 -10q-51 0 -93 11.5t-79 37t-57.5 72.5t-20.5 113q0 65 21 112.5t57.5 72.5t78.5 36.5t92 11.5q44 0 81.5 -9t71.5 -29t55.5 -57t25.5 -89h-134q-10 83 -98 83q-98 0 -112 -93h139v-77h-139q14 -94 111 -94q91 0 99 82h134q-10 -101 -74.5 -142.5t-158.5 -41.5z" />
    <glyph glyph-name="uni0455" unicode="&#x455;" 
d="M294 -10q-231 2 -235 150h137q5 -55 108 -55q98 0 98 41q0 6 -2 11t-7 9t-10.5 7t-15.5 6t-18 5t-21.5 4t-23.5 3.5t-26.5 4t-28.5 4.5q-40 6 -66 13.5t-55.5 22t-44.5 39.5t-15 61q0 71 61 106t167 35q210 0 219 -142h-137q-7 47 -94 47q-78 0 -78 -36q0 -21 28.5 -29.5
t111.5 -19.5q3 -1 5 -1t4.5 -0.5t4.5 -0.5q39 -5 66.5 -12.5t56 -22.5t43.5 -41t15 -62q0 -78 -68 -113t-179 -34z" />
    <glyph glyph-name="uni0456" unicode="&#x456;" 
d="M89 0v101h151v245h-151v101h285v-346h137v-101h-422zM228 518v138h158v-138h-158z" />
    <glyph glyph-name="uni0457" unicode="&#x457;" 
d="M126 542v131h131v-131h-131zM355 542v131h131v-131h-131zM89 0v101h151v245h-151v101h285v-346h137v-101h-422z" />
    <glyph glyph-name="uni0458" unicode="&#x458;" 
d="M115 -190v100q94 0 136.5 37.5t42.5 130.5v268h-172v101h306v-381q0 -74 -23 -125.5t-67.5 -79t-98 -39.5t-124.5 -12zM282 518v138h158v-138h-158z" />
    <glyph glyph-name="uni0459" unicode="&#x459;" 
d="M10 -5v100q35 0 52 20t21 73l22 259h287v-173h15q93 0 141 -32t48 -104q0 -138 -189 -138h-137v353h-53l-15 -175q-9 -101 -53 -142t-139 -41zM392 185v-96h13q64 0 64 48t-64 48h-13z" />
    <glyph glyph-name="uni045A" unicode="&#x45a;" 
d="M28 0v447h124v-173h102v173h124v-173h25q94 0 141.5 -32t47.5 -105q0 -137 -189 -137h-149v185h-102v-185h-124zM378 185v-96h22q64 0 64 48t-64 48h-22z" />
    <glyph glyph-name="uni045B" unicode="&#x45b;" 
d="M90 0v496h-50v97h50v63h134v-63h93v-97h-93v-98q49 59 132 59q154 0 154 -180v-277h-134v253q0 49 -15.5 70.5t-54.5 21.5q-53 0 -82 -32v-313h-134z" />
    <glyph glyph-name="uni045C" unicode="&#x45c;" 
d="M230 505l78 204h144l-143 -204h-79zM90 0v447h134v-144l164 144h179l-189 -161l201 -286h-162l-136 212l-57 -45v-167h-134z" />
    <glyph glyph-name="uni045D" unicode="&#x45d;" 
d="M295 505l-143 204h144l78 -204h-79zM90 0v447h117v-182l-19 -156l162 338h160v-447h-117v182l19 156l-162 -338h-160z" />
    <glyph glyph-name="uni045E" unicode="&#x45e;" 
d="M299 513q-45 0 -83.5 16t-62.5 40t-37.5 45t-18.5 36l49 41q20 -27 59 -51.5t94 -24.5t94 24.5t59 51.5l49 -41q-5 -15 -18.5 -36t-37.5 -45t-62.5 -40t-83.5 -16zM55 -190v109q73 0 112.5 22t61.5 70l-200 436h153l76 -185l45 -131l45 131l76 185h147l-185 -410
q-40 -88 -78 -134t-98 -69.5t-155 -23.5z" />
    <glyph glyph-name="uni045F" unicode="&#x45f;" 
d="M245 -133v133h-155v447h134v-346h152v346h134v-447h-155v-133h-110z" />
    <glyph glyph-name="uni0472" unicode="&#x472;" 
d="M300 109q58 0 82 36.5t28 106.5q-27 -39 -60 -39q-23 0 -61 24t-54 24q-24 0 -44 -20q5 -65 29 -98.5t80 -33.5zM365 310q24 0 45 21q-4 69 -28 104.5t-82 35.5q-61 0 -84.5 -39t-26.5 -114q27 40 61 40q23 0 61 -24t54 -24zM297 -10q-126 0 -188.5 77t-62.5 220
q0 144 63 223.5t193 79.5q128 0 190 -77.5t62 -218.5q0 -142 -63.5 -223t-193.5 -81z" />
    <glyph glyph-name="uni0473" unicode="&#x473;" 
d="M300 96q98 0 108 104q-25 -37 -58 -37q-23 0 -61 24t-54 24q-22 0 -42 -26q14 -89 107 -89zM365 238q21 0 41 24q-14 90 -106 90q-100 0 -108 -105q25 39 58 39q23 0 61 -24t54 -24zM297 -10q-47 0 -87.5 11.5t-76.5 37t-56.5 72.5t-20.5 111q0 66 21.5 113.5t58.5 73
t78.5 37t88.5 11.5t88 -11.5t76.5 -37t56 -72t20.5 -110.5q0 -53 -14.5 -94.5t-38.5 -67.5t-57 -43t-66.5 -24t-70.5 -7z" />
    <glyph glyph-name="uni0490" unicode="&#x490;" 
d="M90 0v579h320v147h116v-263h-297v-463h-139z" />
    <glyph glyph-name="uni0491" unicode="&#x491;" 
d="M100 0v447h306v133h110v-235h-282v-345h-134z" />
    <glyph glyph-name="uni0492" unicode="&#x492;" 
d="M107 0v227h-78v116h78v236h436v-116h-297v-120h209v-116h-209v-227h-139z" />
    <glyph glyph-name="uni0493" unicode="&#x493;" 
d="M127 0v153h-86v101h86v193h416v-102h-282v-91h184v-101h-184v-153h-134z" />
    <glyph glyph-name="uni0496" unicode="&#x496;" 
d="M494 -147v147h-18l-77 250l-42 -79v-171h-114v171l-43 79l-76 -250h-129l124 356l-114 223h130l75 -175l33 -97v272h114v-272l33 97l75 175h130l-115 -223l86 -246h44v-257h-116z" />
    <glyph glyph-name="uni0497" unicode="&#x497;" 
d="M495 -133v133h-12l-80 195l-48 -67v-128h-110v128l-49 67l-79 -195h-122l123 272l-113 175h130l75 -134l35 -74v208h110v-208l35 74l75 134h130l-113 -175l77 -171h46v-234h-110z" />
    <glyph glyph-name="uni0498" unicode="&#x498;" 
d="M250 -147v142q-89 13 -137.5 63.5t-52.5 130.5h137q10 -89 113 -89q42 0 67.5 19.5t25.5 52.5q0 66 -103 66h-38v110h37q91 0 91 62q0 31 -22 50.5t-60 19.5q-43 0 -69 -24t-29 -67h-137q4 93 68.5 147t172.5 54q102 0 159 -47.5t57 -126.5q0 -84 -83 -124
q45 -17 70.5 -52t25.5 -82q0 -68 -50 -110.5t-127 -53.5v-141h-116z" />
    <glyph glyph-name="uni0499" unicode="&#x499;" 
d="M248 -133v125q-170 14 -182 150h127q6 -51 103 -51q101 0 101 50q0 47 -100 47h-44v84h44q88 0 88 43q0 41 -83 41q-97 0 -104 -51h-127q6 56 41.5 91.5t82 48t105.5 12.5q98 0 158.5 -34.5t60.5 -99.5q0 -29 -16.5 -53.5t-44.5 -37.5q33 -13 55 -40.5t22 -63.5
q0 -56 -47.5 -90.5t-129.5 -43.5v-127h-110z" />
    <glyph glyph-name="uni049A" unicode="&#x49a;" 
d="M471 -147v147h-51l-142 248l-49 -53v-195h-139v579h139v-218l180 218h167l-203 -227l146 -242h68v-257h-116z" />
    <glyph glyph-name="uni049B" unicode="&#x49b;" 
d="M470 -133v133h-57l-134 211l-55 -44v-167h-134v447h134v-144l164 144h179l-186 -159l128 -187h71v-234h-110z" />
    <glyph glyph-name="uni049C" unicode="&#x49c;" 
d="M65 0v579h129v-226h40v84h65v-84h25l108 226h149l-143 -278l153 -301h-148l-113 237h-31v-87h-65v87h-40v-237h-129z" />
    <glyph glyph-name="uni049D" unicode="&#x49d;" 
d="M65 0v447h124v-169h33v61h59v-61h20l106 169h147l-143 -215l152 -232h-146l-111 177h-25v-63h-59v63h-33v-177h-124z" />
    <glyph glyph-name="uni04A0" unicode="&#x4a0;" 
d="M114 0v463h-114v116h253v-218l180 218h167l-203 -227l213 -352h-166l-142 248l-49 -53v-195h-139z" />
    <glyph glyph-name="uni04A1" unicode="&#x4a1;" 
d="M121 0v346h-121v101h255v-144l164 144h179l-186 -159l198 -288h-166l-134 211l-55 -44v-167h-134z" />
    <glyph glyph-name="uni04A2" unicode="&#x4a2;" 
d="M460 -147v147h-90v237h-140v-237h-140v579h140v-226h140v226h140v-469h66v-257h-116z" />
    <glyph glyph-name="uni04A3" unicode="&#x4a3;" 
d="M460 -133v133h-84v176h-152v-176h-134v447h134v-170h152v170h134v-346h60v-234h-110z" />
    <glyph glyph-name="uni04AA" unicode="&#x4aa;" 
d="M250 -147v141q-204 29 -204 291q0 305 267 305q228 0 239 -232h-142q-4 59 -29 86t-76 27q-68 0 -92 -44.5t-24 -136.5q0 -93 24 -137t94 -44q52 0 75.5 26.5t27.5 85.5h142q-14 -200 -186 -226v-142h-116z" />
    <glyph glyph-name="uni04AB" unicode="&#x4ab;" 
d="M249 -133v127q-85 11 -139 66t-54 164q0 65 21 112.5t57.5 72.5t77.5 36.5t90 11.5q98 0 164.5 -45.5t72.5 -148.5h-134q-7 87 -102 87q-110 0 -110 -126q0 -66 28 -96t83 -30q94 0 101 86h134q-5 -86 -54.5 -131.5t-125.5 -57.5v-128h-110z" />
    <glyph glyph-name="uni04AE" unicode="&#x4ae;" 
d="M230 0v226l-214 353h166l65 -117l54 -124l61 124l66 117h155l-214 -352v-227h-139z" />
    <glyph glyph-name="uni04AF" unicode="&#x4af;" 
d="M232 -185v182l-203 450h153l75 -184l45 -134l46 133l76 185h147l-205 -450v-182h-134z" />
    <glyph glyph-name="uni04B0" unicode="&#x4b0;" 
d="M230 0v96h-141v102h141v28l-214 353h166l65 -117l54 -124l61 124l66 117h155l-214 -352v-29h142v-102h-142v-96h-139z" />
    <glyph glyph-name="uni04B1" unicode="&#x4b1;" 
d="M232 -185v185h-152v101h105l-156 346h153l75 -184l45 -134l46 133l76 185h147l-158 -346h107v-101h-154v-185h-134z" />
    <glyph glyph-name="uni04B2" unicode="&#x4b2;" 
d="M462 -147v147h-50l-84 145l-31 55l-31 -55l-87 -145h-157l197 296l-184 283h166l75 -128l28 -56l28 56l76 128h157l-184 -275l125 -194h72v-257h-116z" />
    <glyph glyph-name="uni04B3" unicode="&#x4b3;" 
d="M469 -133v133h-57l-114 140l-107 -140h-169l201 229l-191 218h167l107 -131l100 131h161l-187 -219l111 -127h88v-234h-110z" />
    <glyph glyph-name="uni04B6" unicode="&#x4b6;" 
d="M460 -147v147h-90v229q-50 -12 -104 -12q-84 0 -137 49.5t-53 161.5v151h140v-141q0 -60 19.5 -81.5t70.5 -21.5q34 0 64 6v238h140v-469h66v-257h-116z" />
    <glyph glyph-name="uni04B7" unicode="&#x4b7;" 
d="M460 -133v133h-84v152q-57 -11 -101 -11q-88 0 -142.5 47.5t-54.5 154.5v104h134v-102q0 -58 22.5 -78.5t76.5 -20.5q39 0 65 5v196h134v-346h60v-234h-110z" />
    <glyph glyph-name="uni04B8" unicode="&#x4b8;" 
d="M374 0v230q-34 -8 -43 -9v-76h-65v72q-85 0 -139.5 49.5t-54.5 161.5v151h140v-141q0 -47 12.5 -70t41.5 -30v74h65v-76q15 1 43 5v238h140v-579h-140z" />
    <glyph glyph-name="uni04B9" unicode="&#x4b9;" 
d="M380 0v152q-29 -5 -52 -8v-76h-61v73q-86 2 -139.5 50t-53.5 152v104h134v-102q0 -44 14.5 -66t44.5 -29v73h61v-77q10 0 52 5v196h134v-447h-134z" />
    <glyph glyph-name="uni04BA" unicode="&#x4ba;" 
d="M90 0v579h140v-230q52 13 104 13q84 0 137 -49.5t53 -161.5v-151h-140v141q0 60 -19.5 81.5t-70.5 21.5q-31 0 -64 -7v-237h-140z" />
    <glyph glyph-name="uni04BB" unicode="&#x4bb;" 
d="M90 0v656h134v-258q49 59 132 59q154 0 154 -180v-277h-134v253q0 49 -15.5 70.5t-54.5 21.5q-53 0 -82 -32v-313h-134z" />
    <glyph glyph-name="uni04C1" unicode="&#x4c1;" 
d="M300 624q-45 0 -83.5 16t-62.5 40t-37.5 45t-18.5 36l49 41q20 -27 59 -51.5t94 -24.5t94 24.5t59 51.5l49 -41q-5 -15 -18.5 -36t-37.5 -45t-62.5 -40t-83.5 -16zM-5 0l124 356l-114 223h130l75 -175l33 -97v272h114v-272l33 97l75 175h130l-115 -223l125 -356h-129
l-77 250l-42 -79v-171h-114v171l-43 79l-76 -250h-129z" />
    <glyph glyph-name="uni04C2" unicode="&#x4c2;" 
d="M300 513q-45 0 -83.5 16t-62.5 40t-37.5 45t-18.5 36l49 41q20 -27 59 -51.5t94 -24.5t94 24.5t59 51.5l49 -41q-5 -15 -18.5 -36t-37.5 -45t-62.5 -40t-83.5 -16zM-5 0l123 272l-113 175h130l75 -134l35 -74v208h110v-208l35 74l75 134h130l-113 -175l123 -272h-122
l-80 195l-48 -67v-128h-110v128l-49 67l-79 -195h-122z" />
    <glyph glyph-name="uni04D8" unicode="&#x4d8;" 
d="M297 -10q-126 0 -188.5 77t-62.5 220v34h368q-3 78 -30 116.5t-92 38.5q-95 0 -112 -80h-134q15 96 81.5 145t168.5 49q129 0 193.5 -77.5t64.5 -219.5q0 -141 -63.5 -222t-193.5 -81zM297 101q58 0 83.5 32t31.5 92h-228q6 -63 31.5 -93.5t81.5 -30.5z" />
    <glyph glyph-name="uni04D9" unicode="&#x4d9;" 
d="M298 -10q-49 0 -90 12.5t-75 38.5t-53 72.5t-19 109.5v23h346q0 110 -113 110q-38 0 -63.5 -12.5t-29.5 -36.5h-138q17 79 80 114.5t152 35.5q112 0 180 -56t68 -175q0 -65 -21 -112.5t-57 -73.5t-77.5 -38t-89.5 -12zM302 91q85 0 103 74h-206q18 -74 103 -74z" />
    <glyph glyph-name="uni04E2" unicode="&#x4e2;" 
d="M127 666v101h346v-101h-346zM90 0v579h119v-249l-16 -196l147 445h170v-579h-119v249l16 196l-147 -445h-170z" />
    <glyph glyph-name="uni04E3" unicode="&#x4e3;" 
d="M127 555v101h346v-101h-346zM90 0v447h117v-182l-19 -156l162 338h160v-447h-117v182l19 156l-162 -338h-160z" />
    <glyph glyph-name="uni04E8" unicode="&#x4e8;" 
d="M297 -10q-126 0 -188.5 77t-62.5 220q0 144 63 223.5t193 79.5q128 0 190 -77.5t62 -218.5q0 -142 -63.5 -223t-193.5 -81zM300 109q56 0 80.5 34.5t28.5 100.5h-219q5 -66 29 -100.5t81 -34.5zM190 336h219q-4 66 -28.5 100.5t-80.5 34.5q-57 0 -81 -34.5t-29 -100.5z
" />
    <glyph glyph-name="uni04E9" unicode="&#x4e9;" 
d="M297 -10q-47 0 -87.5 11.5t-76.5 37t-56.5 72.5t-20.5 111q0 66 21.5 113.5t58.5 73t78.5 37t88.5 11.5t88 -11.5t76.5 -37t56 -72t20.5 -110.5q0 -53 -14.5 -94.5t-38.5 -67.5t-57 -43t-66.5 -24t-70.5 -7zM300 96q94 0 107 93h-214q13 -93 107 -93zM193 262h213
q-14 90 -106 90q-93 0 -107 -90z" />
    <glyph glyph-name="uni04EE" unicode="&#x4ee;" 
d="M151 666v101h346v-101h-346zM75 -5v112q63 0 105 22t71 79l-225 371h163l73 -132l62 -123l51 123l55 132h153l-198 -401q-51 -102 -116.5 -142.5t-193.5 -40.5z" />
    <glyph glyph-name="uni04EF" unicode="&#x4ef;" 
d="M126 555v101h346v-101h-346zM55 -190v109q73 0 112.5 22t61.5 70l-200 436h153l76 -185l45 -131l45 131l76 185h147l-185 -410q-40 -88 -78 -134t-98 -69.5t-155 -23.5z" />
    <glyph glyph-name="uni05B0" unicode="&#x5b0;" horiz-adv-x="0" 
d="M-40 -138v80h80v-80h-80zM-40 -258v80h80v-80h-80z" />
    <glyph glyph-name="uni05B1" unicode="&#x5b1;" horiz-adv-x="0" 
d="M-160 -138v80h80v-80h-80zM-40 -138v80h80v-80h-80zM80 -138v80h80v-80h-80zM-100 -258v80h80v-80h-80zM80 -258v80h80v-80h-80z" />
    <glyph glyph-name="uni05B2" unicode="&#x5b2;" horiz-adv-x="0" 
d="M73 -138v80h80v-80h-80zM-153 -134v73h186v-73h-186zM73 -258v80h80v-80h-80z" />
    <glyph glyph-name="uni05B3" unicode="&#x5b3;" horiz-adv-x="0" 
d="M73 -138v80h80v-80h-80zM-101 -230l12 96h-64v73h186v-73h-64l12 -96h-82zM73 -258v80h80v-80h-80z" />
    <glyph glyph-name="uni05B4" unicode="&#x5b4;" horiz-adv-x="0" 
d="M-40 -138v80h80v-80h-80z" />
    <glyph glyph-name="uni05B5" unicode="&#x5b5;" horiz-adv-x="0" 
d="M-100 -138v80h80v-80h-80zM20 -138v80h80v-80h-80z" />
    <glyph glyph-name="uni05B6" unicode="&#x5b6;" horiz-adv-x="0" 
d="M-100 -138v80h80v-80h-80zM20 -138v80h80v-80h-80zM-40 -258v80h80v-80h-80z" />
    <glyph glyph-name="uni05B7" unicode="&#x5b7;" horiz-adv-x="0" 
d="M-93 -134v73h186v-73h-186z" />
    <glyph glyph-name="uni05B8" unicode="&#x5b8;" horiz-adv-x="0" 
d="M-41 -230l12 96h-64v73h186v-73h-64l12 -96h-82z" />
    <glyph glyph-name="uni05B9" unicode="&#x5b9;" horiz-adv-x="0" 
d="M-40 579v80h80v-80h-80z" />
    <glyph glyph-name="uni05BA" unicode="&#x5ba;" horiz-adv-x="0" 
d="M-40 579v80h80v-80h-80z" />
    <glyph glyph-name="uni05BB" unicode="&#x5bb;" horiz-adv-x="0" 
d="M-160 -138v80h80v-80h-80zM-40 -198v80h80v-80h-80zM80 -258v80h80v-80h-80z" />
    <glyph glyph-name="uni05BC" unicode="&#x5bc;" horiz-adv-x="0" 
d="M-40 229v80h80v-80h-80z" />
    <glyph glyph-name="uni05BD" unicode="&#x5bd;" horiz-adv-x="0" 
d="M-35 -212v158h70v-158h-70z" />
    <glyph glyph-name="uni05BE" unicode="&#x5be;" 
d="M156 408v117h288v-117h-288z" />
    <glyph glyph-name="uni05BF" unicode="&#x5bf;" horiz-adv-x="0" 
d="M-93 579v73h186v-73h-186z" />
    <glyph glyph-name="uni05C0" unicode="&#x5c0;" 
d="M241 -185v841h118v-841h-118z" />
    <glyph glyph-name="uni05C1" unicode="&#x5c1;" horiz-adv-x="0" 
d="M-40 579v80h80v-80h-80z" />
    <glyph glyph-name="uni05C2" unicode="&#x5c2;" horiz-adv-x="0" 
d="M-40 579v80h80v-80h-80z" />
    <glyph glyph-name="uni05C3" unicode="&#x5c3;" 
d="M210 365v160h180v-160h-180zM210 0v161h180v-161h-180z" />
    <glyph glyph-name="uni05C7" unicode="&#x5c7;" horiz-adv-x="0" 
d="M-39 -199l10 65h-54v73h166v-73h-54l10 -65h-78z" />
    <glyph glyph-name="uni05D0" unicode="&#x5d0;" 
d="M57 0v171q0 140 100 191l-110 163h149l168 -247q45 35 45 107v140h134v-152q0 -139 -110 -196l120 -177h-149l-178 261q-35 -31 -35 -102v-159h-134z" />
    <glyph glyph-name="uni05D1" unicode="&#x5d1;" 
d="M74 0v101h259v208q0 63 -23.5 89t-90.5 26h-145v101h174q46 0 81 -8t68.5 -28.5t51.5 -63t18 -105.5v-219h87v-101h-480z" />
    <glyph glyph-name="uni05D2" unicode="&#x5d2;" 
d="M44 0l65 128q43 85 101 122.5t144 37.5l-4 34q-7 56 -23.5 79t-64.5 23q-51 0 -93 -18v105q50 24 126 24q90 0 133 -46t58 -162l42 -327h-136l-24 186q-55 0 -85.5 -27t-57.5 -80l-40 -79h-141z" />
    <glyph glyph-name="uni05D3" unicode="&#x5d3;" 
d="M313 0v424h-258v101h478v-101h-86v-424h-134z" />
    <glyph glyph-name="uni05D4" unicode="&#x5d4;" 
d="M389 0v309q0 63 -23.5 89t-90.5 26h-198v101h227q46 0 81 -8t68.5 -28.5t51.5 -63t18 -105.5v-320h-134zM77 0v290h134v-290h-134z" />
    <glyph glyph-name="uni05D5" unicode="&#x5d5;" 
d="M287 0v424h-151v101h285v-525h-134z" />
    <glyph glyph-name="uni05D6" unicode="&#x5d6;" 
d="M310 0l-72 184q-22 57 -22 107q0 71 43 133h-177v101h436v-101h-126q-42 -62 -42 -125q0 -50 25 -112l73 -187h-138z" />
    <glyph glyph-name="uni05D7" unicode="&#x5d7;" 
d="M62 0v525h257q46 0 81 -8t68.5 -28.5t51.5 -63t18 -105.5v-320h-134v309q0 63 -23.5 89t-90.5 26h-94v-424h-134z" />
    <glyph glyph-name="uni05D8" unicode="&#x5d8;" 
d="M40 261v264h134v-262q0 -162 126 -162t126 162v39q0 68 -16 95t-63 27q-49 0 -91 -18v105q50 24 123 24q92 0 136.5 -52t44.5 -176v-46q0 -75 -21.5 -130t-59 -84.5t-82 -43t-97.5 -13.5t-97.5 13.5t-82 43t-59 84.5t-21.5 130z" />
    <glyph glyph-name="uni05D9" unicode="&#x5d9;" 
d="M165 158v99q81 0 128 34t47 99v34h-215v101h349v-145q0 -102 -81.5 -162t-227.5 -60z" />
    <glyph glyph-name="uni05DA" unicode="&#x5da;" 
d="M400 -185v448q0 85 -35.5 123t-109.5 38h-199v101h218q260 0 260 -248v-462h-134z" />
    <glyph glyph-name="uni05DB" unicode="&#x5db;" 
d="M78 0v101h170q74 0 109.5 38t35.5 124q0 85 -35.5 123t-109.5 38h-170v101h173q45 0 84.5 -7.5t76 -26.5t63 -48t42 -74.5t15.5 -103.5q0 -74 -23.5 -127.5t-64.5 -82.5t-89 -42t-104 -13h-173z" />
    <glyph glyph-name="uni05DC" unicode="&#x5dc;" 
d="M214 -8v103q178 0 178 168v161h-328v232h129v-131h333v-268q0 -74 -25.5 -127t-71 -82.5t-98.5 -42.5t-117 -13z" />
    <glyph glyph-name="uni05DD" unicode="&#x5dd;" 
d="M62 0v525h257q46 0 81 -8t68.5 -28.5t51.5 -63t18 -105.5v-320h-476zM196 101h208v208q0 63 -23.5 89t-90.5 26h-94v-323z" />
    <glyph glyph-name="uni05DE" unicode="&#x5de;" 
d="M43 0l52 380l-39 145h122l20 -75q20 36 63.5 60.5t107.5 24.5q177 0 177 -215v-320h-259v101h125v212q0 56 -20.5 82.5t-64.5 26.5q-69 0 -105 -64l-49 -358h-130z" />
    <glyph glyph-name="uni05DF" unicode="&#x5df;" 
d="M287 -185v609h-151v101h285v-710h-134z" />
    <glyph glyph-name="uni05E0" unicode="&#x5e0;" 
d="M98 0v101h251v221q0 56 -16 79t-64 23q-52 0 -94 -18v105q50 24 126 24q93 0 137.5 -47.5t44.5 -160.5v-327h-385z" />
    <glyph glyph-name="uni05E1" unicode="&#x5e1;" 
d="M300 101q125 0 125 162t-125 162t-125 -162t125 -162zM297 -10q-51 0 -95 13.5t-82.5 43t-61 84.5t-22.5 130q0 76 23.5 132t63.5 85.5t84.5 43t95.5 13.5t95 -13.5t83 -43t61 -84t22 -129.5q0 -76 -23.5 -132t-63.5 -86t-84.5 -43.5t-95.5 -13.5z" />
    <glyph glyph-name="uni05E2" unicode="&#x5e2;" 
d="M31 0v101h124l-94 424h132l89 -417q47 11 73.5 44.5t37.5 94.5l50 278h134l-56 -307q-40 -218 -284 -218h-206z" />
    <glyph glyph-name="uni05E3" unicode="&#x5e3;" 
d="M414 -185v448q0 88 -35.5 127.5t-109.5 39.5h-78l-13 -86q-3 -21 -3 -31q0 -57 88 -60v-99q-210 0 -210 145q0 19 3 41l26 185h206q260 0 260 -248v-462h-134z" />
    <glyph glyph-name="uni05E4" unicode="&#x5e4;" 
d="M87 0v101h180q75 0 110 38.5t35 125.5t-35.5 126t-109.5 39h-74l-7 -46q-3 -21 -3 -31q0 -57 84 -60v-99q-206 0 -206 145q0 19 3 41l20 145h186q57 0 104.5 -13t89 -41.5t64.5 -81t23 -125.5t-23.5 -126.5t-64.5 -82.5t-89 -42t-104 -13h-183z" />
    <glyph glyph-name="uni05E5" unicode="&#x5e5;" 
d="M209 -185l-153 710h133l65 -300l37 9q61 15 85 46t24 77v168h134v-184q0 -52 -13 -88t-43.5 -60t-67 -38.5t-96.5 -28.5l-37 -9l65 -302h-133z" />
    <glyph glyph-name="uni05E6" unicode="&#x5e6;" 
d="M43 0v101h317l-63 73l-262 351h157l168 -226q61 31 61 138v88h134v-100q0 -169 -127 -219l88 -117v-89h-473z" />
    <glyph glyph-name="uni05E7" unicode="&#x5e7;" 
d="M102 -185v475h134v-475h-134zM284 0l156 424h-339v101h479v-93l-159 -432h-137z" />
    <glyph glyph-name="uni05E8" unicode="&#x5e8;" 
d="M386 0v309q0 63 -23.5 89t-90.5 26h-213v101h242q46 0 81 -8t68.5 -28.5t51.5 -63t18 -105.5v-320h-134z" />
    <glyph glyph-name="uni05E9" unicode="&#x5e9;" 
d="M44 211v314h115v-245v-14q45 9 64.5 39t19.5 89v131h114v-156q0 -87 -55.5 -134t-137.5 -58q21 -85 136 -85q141 0 141 138v295h115v-314q0 -112 -73.5 -166.5t-182.5 -54.5t-182.5 54.5t-73.5 166.5z" />
    <glyph glyph-name="uni05EA" unicode="&#x5ea;" 
d="M43 0v101h65v178q0 85 25 145h-90v101h287q46 0 81 -8t68.5 -28.5t51.5 -63t18 -105.5v-320h-134v309q0 63 -23.5 89t-90.5 26h-38q-21 -52 -21 -155v-269h-199z" />
    <glyph glyph-name="uni05F0" unicode="&#x5f0;" 
d="M117 0v424h-64v101h198v-525h-134zM369 0v424h-64v101h198v-525h-134z" />
    <glyph glyph-name="uni05F1" unicode="&#x5f1;" 
d="M406 0v424h-64v101h198v-525h-134zM74 181v99q80 13 80 106v38h-95v101h229v-145q0 -92 -54 -142.5t-160 -56.5z" />
    <glyph glyph-name="uni05F2" unicode="&#x5f2;" 
d="M67 181v99q80 13 80 106v38h-95v101h229v-145q0 -92 -54 -142.5t-160 -56.5zM334 181v99q80 13 80 106v38h-95v101h229v-145q0 -92 -54 -142.5t-160 -56.5z" />
    <glyph glyph-name="uni05F3" unicode="&#x5f3;" 
d="M215 340l52 239h177l-142 -252q-7 -13 -11.5 -20t-16.5 -15t-26 -8q-36 0 -36 34q0 10 3 22z" />
    <glyph glyph-name="uni05F4" unicode="&#x5f4;" 
d="M334 340l52 239h177l-142 -252q-7 -13 -11.5 -20t-16.5 -15t-26 -8q-36 0 -36 34q0 10 3 22zM90 340l52 239h177l-142 -252q-7 -13 -11.5 -20t-16.5 -15t-26 -8q-36 0 -36 34q0 10 3 22z" />
    <glyph glyph-name="uni0E3F" unicode="&#xe3f;" 
d="M90 0v579h152v93h115v-96q84 -10 130.5 -52t46.5 -107q0 -82 -77 -119q97 -39 97 -129q0 -69 -53.5 -115t-143.5 -53v-92h-115v91h-152zM229 242v-129h84q97 0 97 65q0 64 -98 64h-83zM229 467v-121h63q55 0 76.5 15.5t21.5 43.5q0 62 -96 62h-65z" />
    <glyph glyph-name="uni1E04" unicode="&#x1e04;" 
d="M237 -191v131h131v-131h-131zM90 0v579h217q107 0 167 -43.5t60 -118.5q0 -82 -77 -119q97 -39 97 -129q0 -75 -62.5 -122t-166.5 -47h-235zM229 242v-129h84q97 0 97 65q0 64 -98 64h-83zM229 467v-121h63q55 0 76.5 15.5t21.5 43.5q0 62 -96 62h-65z" />
    <glyph glyph-name="uni1E05" unicode="&#x1e05;" 
d="M249 -191v131h131v-131h-131zM357 -10q-52 0 -91 21t-58 49v-60h-119v656h134v-257q49 58 134 58q83 0 135.5 -59t52.5 -174q0 -117 -54 -175.5t-134 -58.5zM312 102q94 0 94 122t-94 122q-54 0 -89 -33v-178q35 -33 89 -33z" />
    <glyph glyph-name="uni1E0C" unicode="&#x1e0c;" 
d="M235 -191v131h131v-131h-131zM90 0v579h191q142 0 207.5 -70.5t65.5 -213.5q0 -295 -273 -295h-191zM229 463v-347h52q75 0 102.5 41t27.5 133t-27.5 132.5t-102.5 40.5h-52z" />
    <glyph glyph-name="uni1E0D" unicode="&#x1e0d;" 
d="M235 -191v131h131v-131h-131zM243 -10q-83 0 -135.5 59t-52.5 174q0 117 54 175.5t134 58.5q85 0 134 -58v257h134v-656h-119v60q-19 -28 -58 -49t-91 -21zM288 102q54 0 89 33v178q-35 33 -89 33q-94 0 -94 -122t94 -122z" />
    <glyph glyph-name="uni1E0E" unicode="&#x1e0e;" 
d="M127 -175v101h346v-101h-346zM90 0v579h191q142 0 207.5 -70.5t65.5 -213.5q0 -295 -273 -295h-191zM229 463v-347h52q75 0 102.5 41t27.5 133t-27.5 132.5t-102.5 40.5h-52z" />
    <glyph glyph-name="uni1E0F" unicode="&#x1e0f;" 
d="M127 -175v101h346v-101h-346zM243 -10q-83 0 -135.5 59t-52.5 174q0 117 54 175.5t134 58.5q85 0 134 -58v257h134v-656h-119v60q-19 -28 -58 -49t-91 -21zM288 102q54 0 89 33v178q-35 33 -89 33q-94 0 -94 -122t94 -122z" />
    <glyph glyph-name="uni1E20" unicode="&#x1e20;" 
d="M119 666v101h346v-101h-346zM257 -10q-108 0 -159.5 80.5t-51.5 214.5q0 305 260 305q111 0 166.5 -54t59.5 -149h-138q-6 41 -27 62.5t-66 21.5q-46 0 -71.5 -24.5t-33 -60.5t-7.5 -95q0 -94 23 -138t89 -44q56 0 95 32v80h-109v100h244v-321h-120v60q-51 -70 -154 -70z
" />
    <glyph glyph-name="uni1E21" unicode="&#x1e21;" 
d="M110 555v101h346v-101h-346zM279 -195q-208 0 -214 177h128q4 -37 23.5 -58.5t69.5 -21.5q56 0 73.5 26.5t17.5 75.5v69q-49 -56 -130 -56q-84 0 -138 56.5t-54 161.5q0 106 54.5 164t138.5 58q50 0 88 -20t56 -47v57h119v-454q0 -188 -232 -188zM290 126q50 0 87 33v156
q-37 33 -87 33q-96 0 -96 -111t96 -111z" />
    <glyph glyph-name="uni1E24" unicode="&#x1e24;" 
d="M235 -191v131h131v-131h-131zM90 0v579h139v-226h142v226h139v-579h-139v237h-142v-237h-139z" />
    <glyph glyph-name="uni1E25" unicode="&#x1e25;" 
d="M235 -191v131h131v-131h-131zM90 0v656h134v-258q49 59 132 59q154 0 154 -180v-277h-134v253q0 49 -15.5 70.5t-54.5 21.5q-53 0 -82 -32v-313h-134z" />
    <glyph glyph-name="uni1E2A" unicode="&#x1e2a;" 
d="M300 -204q-44 0 -82.5 15t-62 36.5t-37 40.5t-17.5 32l49 43q52 -66 150 -66t150 66l49 -43q-4 -13 -17.5 -32t-37 -40.5t-62 -36.5t-82.5 -15zM90 0v579h139v-226h142v226h139v-579h-139v237h-142v-237h-139z" />
    <glyph glyph-name="uni1E2B" unicode="&#x1e2b;" 
d="M300 -204q-44 0 -82.5 15t-62 36.5t-37 40.5t-17.5 32l49 43q52 -66 150 -66t150 66l49 -43q-4 -13 -17.5 -32t-37 -40.5t-62 -36.5t-82.5 -15zM90 0v656h134v-258q49 59 132 59q154 0 154 -180v-277h-134v253q0 49 -15.5 70.5t-54.5 21.5q-53 0 -82 -32v-313h-134z" />
    <glyph glyph-name="uni1E32" unicode="&#x1e32;" 
d="M260 -191v131h131v-131h-131zM90 0v579h139v-218l180 218h167l-203 -227l213 -352h-166l-142 248l-49 -53v-195h-139z" />
    <glyph glyph-name="uni1E33" unicode="&#x1e33;" 
d="M257 -191v131h131v-131h-131zM90 0v656h134v-353l164 144h179l-189 -161l201 -286h-162l-136 212l-57 -45v-167h-134z" />
    <glyph glyph-name="uni1E36" unicode="&#x1e36;" 
d="M245 -191v131h131v-131h-131zM90 0v579h139v-463h297v-116h-436z" />
    <glyph glyph-name="uni1E37" unicode="&#x1e37;" 
d="M234 -191v131h131v-131h-131zM89 0v101h144v453h-144v102h278v-555h144v-101h-422z" />
    <glyph glyph-name="uni1E38" unicode="&#x1e38;" 
d="M245 -191v131h131v-131h-131zM-14 666v101h346v-101h-346zM90 0v579h139v-463h297v-116h-436z" />
    <glyph glyph-name="uni1E39" unicode="&#x1e39;" 
d="M234 -191v131h131v-131h-131zM128 734v101h346v-101h-346zM89 0v101h144v453h-144v102h278v-555h144v-101h-422z" />
    <glyph glyph-name="uni1E3A" unicode="&#x1e3a;" 
d="M137 -175v101h346v-101h-346zM90 0v579h139v-463h297v-116h-436z" />
    <glyph glyph-name="uni1E3B" unicode="&#x1e3b;" 
d="M126 -175v101h346v-101h-346zM89 0v101h144v453h-144v102h278v-555h144v-101h-422z" />
    <glyph glyph-name="uni1E3E" unicode="&#x1e3e;" 
d="M226 616l78 204h144l-143 -204h-79zM61 0v579h165l44 -145l33 -127l32 127l44 145h160v-579h-122v255l18 195l-90 -298h-90l-90 298l18 -195v-255h-122z" />
    <glyph glyph-name="uni1E3F" unicode="&#x1e3f;" 
d="M226 505l78 204h144l-143 -204h-79zM44 0v447h100v-61q40 71 112 71q71 0 91 -65q40 65 108 65q101 0 101 -151v-306h-115v292q0 62 -33 62q-17 0 -31 -10.5t-20 -21.5v-322h-114v292q0 62 -33 62q-17 0 -31 -10.5t-20 -21.5v-322h-115z" />
    <glyph glyph-name="uni1E40" unicode="&#x1e40;" 
d="M235 647v131h131v-131h-131zM61 0v579h165l44 -145l33 -127l32 127l44 145h160v-579h-122v255l18 195l-90 -298h-90l-90 298l18 -195v-255h-122z" />
    <glyph glyph-name="uni1E41" unicode="&#x1e41;" 
d="M235 536v131h131v-131h-131zM44 0v447h100v-61q40 71 112 71q71 0 91 -65q40 65 108 65q101 0 101 -151v-306h-115v292q0 62 -33 62q-17 0 -31 -10.5t-20 -21.5v-322h-114v292q0 62 -33 62q-17 0 -31 -10.5t-20 -21.5v-322h-115z" />
    <glyph glyph-name="uni1E42" unicode="&#x1e42;" 
d="M235 -191v131h131v-131h-131zM61 0v579h165l44 -145l33 -127l32 127l44 145h160v-579h-122v255l18 195l-90 -298h-90l-90 298l18 -195v-255h-122z" />
    <glyph glyph-name="uni1E43" unicode="&#x1e43;" 
d="M235 -191v131h131v-131h-131zM44 0v447h100v-61q40 71 112 71q71 0 91 -65q40 65 108 65q101 0 101 -151v-306h-115v292q0 62 -33 62q-17 0 -31 -10.5t-20 -21.5v-322h-114v292q0 62 -33 62q-17 0 -31 -10.5t-20 -21.5v-322h-115z" />
    <glyph glyph-name="uni1E44" unicode="&#x1e44;" 
d="M235 647v131h131v-131h-131zM90 0v579h170l147 -445l-16 196v249h119v-579h-170l-147 445l16 -196v-249h-119z" />
    <glyph glyph-name="uni1E45" unicode="&#x1e45;" 
d="M235 536v131h131v-131h-131zM90 0v447h119v-60q47 70 144 70q68 0 112.5 -42t44.5 -138v-277h-134v253q0 49 -15.5 70.5t-54.5 21.5q-50 0 -82 -32v-313h-134z" />
    <glyph glyph-name="uni1E46" unicode="&#x1e46;" 
d="M234 -191v131h131v-131h-131zM90 0v579h170l147 -445l-16 196v249h119v-579h-170l-147 445l16 -196v-249h-119z" />
    <glyph glyph-name="uni1E47" unicode="&#x1e47;" 
d="M234 -191v131h131v-131h-131zM90 0v447h119v-60q47 70 144 70q68 0 112.5 -42t44.5 -138v-277h-134v253q0 49 -15.5 70.5t-54.5 21.5q-50 0 -82 -32v-313h-134z" />
    <glyph glyph-name="uni1E48" unicode="&#x1e48;" 
d="M126 -175v101h346v-101h-346zM90 0v579h170l147 -445l-16 196v249h119v-579h-170l-147 445l16 -196v-249h-119z" />
    <glyph glyph-name="uni1E49" unicode="&#x1e49;" 
d="M126 -175v101h346v-101h-346zM90 0v447h119v-60q47 70 144 70q68 0 112.5 -42t44.5 -138v-277h-134v253q0 49 -15.5 70.5t-54.5 21.5q-50 0 -82 -32v-313h-134z" />
    <glyph glyph-name="uni1E56" unicode="&#x1e56;" 
d="M233 647v131h131v-131h-131zM90 0v579h211q111 0 181.5 -48.5t70.5 -150.5t-70.5 -151t-181.5 -49h-72v-180h-139zM229 465v-170h72q110 0 110 85t-110 85h-72z" />
    <glyph glyph-name="uni1E57" unicode="&#x1e57;" 
d="M235 536v131h131v-131h-131zM89 -185v632h119v-60q19 28 58 49t91 21q83 0 135.5 -59t52.5 -174q0 -117 -54 -175.5t-134 -58.5q-85 0 -134 58v-233h-134zM312 101q94 0 94 122t-94 122q-54 0 -89 -33v-178q35 -33 89 -33z" />
    <glyph glyph-name="uni1E58" unicode="&#x1e58;" 
d="M246 647v131h131v-131h-131zM90 0v579h189q112 0 183.5 -47t71.5 -145q0 -119 -111 -168l154 -219h-167l-119 191h-62v-191h-139zM229 465v-164h50q112 0 112 82t-112 82h-50z" />
    <glyph glyph-name="uni1E59" unicode="&#x1e59;" 
d="M254 536v131h131v-131h-131zM89 0v101h105v245h-105v101h224v-97q47 107 148 107q56 0 88 -25v-132q-46 29 -95 29q-71 0 -126 -57v-171h183v-101h-422z" />
    <glyph glyph-name="uni1E5A" unicode="&#x1e5a;" 
d="M254 -191v131h131v-131h-131zM90 0v579h189q112 0 183.5 -47t71.5 -145q0 -119 -111 -168l154 -219h-167l-119 191h-62v-191h-139zM229 465v-164h50q112 0 112 82t-112 82h-50z" />
    <glyph glyph-name="uni1E5B" unicode="&#x1e5b;" 
d="M198 -191v131h131v-131h-131zM89 0v101h105v245h-105v101h224v-97q47 107 148 107q56 0 88 -25v-132q-46 29 -95 29q-71 0 -126 -57v-171h183v-101h-422z" />
    <glyph glyph-name="uni1E5C" unicode="&#x1e5c;" 
d="M254 -191v131h131v-131h-131zM138 666v101h346v-101h-346zM90 0v579h189q112 0 183.5 -47t71.5 -145q0 -119 -111 -168l154 -219h-167l-119 191h-62v-191h-139zM229 465v-164h50q112 0 112 82t-112 82h-50z" />
    <glyph glyph-name="uni1E5D" unicode="&#x1e5d;" 
d="M198 -191v131h131v-131h-131zM146 555v101h346v-101h-346zM89 0v101h105v245h-105v101h224v-97q47 107 148 107q56 0 88 -25v-132q-46 29 -95 29q-71 0 -126 -57v-171h183v-101h-422z" />
    <glyph glyph-name="uni1E5E" unicode="&#x1e5e;" 
d="M146 -175v101h346v-101h-346zM90 0v579h189q112 0 183.5 -47t71.5 -145q0 -119 -111 -168l154 -219h-167l-119 191h-62v-191h-139zM229 465v-164h50q112 0 112 82t-112 82h-50z" />
    <glyph glyph-name="uni1E5F" unicode="&#x1e5f;" 
d="M127 -175v101h346v-101h-346zM89 0v101h105v245h-105v101h224v-97q47 107 148 107q56 0 88 -25v-132q-46 29 -95 29q-71 0 -126 -57v-171h183v-101h-422z" />
    <glyph glyph-name="uni1E60" unicode="&#x1e60;" 
d="M235 647v131h131v-131h-131zM295 -10q-113 0 -173 49.5t-60 141.5h131q4 -42 29.5 -61t78.5 -19q98 0 98 57q0 22 -16.5 34t-55.5 25l-124 41q-128 43 -128 158q0 83 63.5 128.5t164.5 45.5q103 0 162.5 -48.5t61.5 -139.5h-132q-4 38 -25 57t-69 19q-42 0 -64.5 -14
t-22.5 -39q0 -35 55 -53l129 -44q67 -23 103.5 -59t36.5 -100q0 -88 -67.5 -133.5t-175.5 -45.5z" />
    <glyph glyph-name="uni1E61" unicode="&#x1e61;" 
d="M235 536v131h131v-131h-131zM294 -10q-231 2 -235 150h137q5 -55 108 -55q98 0 98 41q0 6 -2 11t-7 9t-10.5 7t-15.5 6t-18 5t-21.5 4t-23.5 3.5t-26.5 4t-28.5 4.5q-40 6 -66 13.5t-55.5 22t-44.5 39.5t-15 61q0 71 61 106t167 35q210 0 219 -142h-137q-7 47 -94 47
q-78 0 -78 -36q0 -21 28.5 -29.5t111.5 -19.5q3 -1 5 -1t4.5 -0.5t4.5 -0.5q39 -5 66.5 -12.5t56 -22.5t43.5 -41t15 -62q0 -78 -68 -113t-179 -34z" />
    <glyph glyph-name="uni1E62" unicode="&#x1e62;" 
d="M235 -191v131h131v-131h-131zM295 -10q-113 0 -173 49.5t-60 141.5h131q4 -42 29.5 -61t78.5 -19q98 0 98 57q0 22 -16.5 34t-55.5 25l-124 41q-128 43 -128 158q0 83 63.5 128.5t164.5 45.5q103 0 162.5 -48.5t61.5 -139.5h-132q-4 38 -25 57t-69 19q-42 0 -64.5 -14
t-22.5 -39q0 -35 55 -53l129 -44q67 -23 103.5 -59t36.5 -100q0 -88 -67.5 -133.5t-175.5 -45.5z" />
    <glyph glyph-name="uni1E63" unicode="&#x1e63;" 
d="M235 -191v131h131v-131h-131zM294 -10q-231 2 -235 150h137q5 -55 108 -55q98 0 98 41q0 6 -2 11t-7 9t-10.5 7t-15.5 6t-18 5t-21.5 4t-23.5 3.5t-26.5 4t-28.5 4.5q-40 6 -66 13.5t-55.5 22t-44.5 39.5t-15 61q0 71 61 106t167 35q210 0 219 -142h-137q-7 47 -94 47
q-78 0 -78 -36q0 -21 28.5 -29.5t111.5 -19.5q3 -1 5 -1t4.5 -0.5t4.5 -0.5q39 -5 66.5 -12.5t56 -22.5t43.5 -41t15 -62q0 -78 -68 -113t-179 -34z" />
    <glyph glyph-name="uni1E6C" unicode="&#x1e6c;" 
d="M234 -191v131h131v-131h-131zM230 0v463h-187v116h514v-116h-188v-463h-139z" />
    <glyph glyph-name="uni1E6D" unicode="&#x1e6d;" 
d="M278 -191v131h131v-131h-131zM361 -10q-92 0 -136.5 47.5t-44.5 160.5v148h-139v101h139v209h134v-209h221v-101h-221v-143q0 -57 16.5 -79.5t64.5 -22.5q54 0 119 26v-105q-70 -32 -153 -32z" />
    <glyph glyph-name="uni1E6E" unicode="&#x1e6e;" 
d="M126 -175v101h346v-101h-346zM230 0v463h-187v116h514v-116h-188v-463h-139z" />
    <glyph glyph-name="uni1E6F" unicode="&#x1e6f;" 
d="M170 -175v101h346v-101h-346zM361 -10q-92 0 -136.5 47.5t-44.5 160.5v148h-139v101h139v209h134v-209h221v-101h-221v-143q0 -57 16.5 -79.5t64.5 -22.5q54 0 119 26v-105q-70 -32 -153 -32z" />
    <glyph glyph-name="uni1E7E" unicode="&#x1e7e;" 
d="M235 -191v131h131v-131h-131zM233 0l-214 579h156l87 -268l42 -154l42 153l86 269h149l-214 -579h-134z" />
    <glyph glyph-name="uni1E7F" unicode="&#x1e7f;" 
d="M237 -191v131h131v-131h-131zM231 0l-202 447h153l75 -184l45 -134l46 133l76 185h147l-203 -447h-137z" />
    <glyph glyph-name="Wgrave" unicode="&#x1e80;" 
d="M295 616l-143 204h144l78 -204h-79zM85 0l-64 579h135l20 -269l8 -180l65 269h106l64 -268l9 179l20 269h131l-64 -579h-156l-59 228l-59 -228h-156z" />
    <glyph glyph-name="wgrave" unicode="&#x1e81;" 
d="M295 505l-143 204h144l78 -204h-79zM98 0l-78 447h125l37 -344l51 260h138l51 -260l37 344h121l-78 -447h-151l-51 241l-51 -241h-151z" />
    <glyph glyph-name="Wacute" unicode="&#x1e82;" 
d="M226 616l78 204h144l-143 -204h-79zM85 0l-64 579h135l20 -269l8 -180l65 269h106l64 -268l9 179l20 269h131l-64 -579h-156l-59 228l-59 -228h-156z" />
    <glyph glyph-name="wacute" unicode="&#x1e83;" 
d="M226 505l78 204h144l-143 -204h-79zM98 0l-78 447h125l37 -344l51 260h138l51 -260l37 344h121l-78 -447h-151l-51 241l-51 -241h-151z" />
    <glyph glyph-name="Wdieresis" unicode="&#x1e84;" 
d="M121 647v131h131v-131h-131zM350 647v131h131v-131h-131zM85 0l-64 579h135l20 -269l8 -180l65 269h106l64 -268l9 179l20 269h131l-64 -579h-156l-59 228l-59 -228h-156z" />
    <glyph glyph-name="wdieresis" unicode="&#x1e85;" 
d="M121 536v131h131v-131h-131zM350 536v131h131v-131h-131zM98 0l-78 447h125l37 -344l51 260h138l51 -260l37 344h121l-78 -447h-151l-51 241l-51 -241h-151z" />
    <glyph glyph-name="uni1E86" unicode="&#x1e86;" 
d="M235 647v131h131v-131h-131zM85 0l-64 579h135l20 -269l8 -180l65 269h106l64 -268l9 179l20 269h131l-64 -579h-156l-59 228l-59 -228h-156z" />
    <glyph glyph-name="uni1E87" unicode="&#x1e87;" 
d="M235 536v131h131v-131h-131zM98 0l-78 447h125l37 -344l51 260h138l51 -260l37 344h121l-78 -447h-151l-51 241l-51 -241h-151z" />
    <glyph glyph-name="uni1E88" unicode="&#x1e88;" 
d="M235 -191v131h131v-131h-131zM85 0l-64 579h135l20 -269l8 -180l65 269h106l64 -268l9 179l20 269h131l-64 -579h-156l-59 228l-59 -228h-156z" />
    <glyph glyph-name="uni1E89" unicode="&#x1e89;" 
d="M235 -191v131h131v-131h-131zM98 0l-78 447h125l37 -344l51 260h138l51 -260l37 344h121l-78 -447h-151l-51 241l-51 -241h-151z" />
    <glyph glyph-name="uni1E8A" unicode="&#x1e8a;" 
d="M235 647v131h131v-131h-131zM22 0l197 296l-184 283h166l75 -128l28 -56l28 56l76 128h157l-184 -275l197 -304h-166l-84 145l-31 55l-31 -55l-87 -145h-157z" />
    <glyph glyph-name="uni1E8B" unicode="&#x1e8b;" 
d="M235 536v131h131v-131h-131zM22 0l201 229l-191 218h167l107 -131l100 131h161l-187 -219l199 -228h-167l-114 140l-107 -140h-169z" />
    <glyph glyph-name="uni1E8E" unicode="&#x1e8e;" 
d="M234 647v131h131v-131h-131zM230 0v226l-214 353h166l65 -117l54 -124l61 124l66 117h155l-214 -352v-227h-139z" />
    <glyph glyph-name="uni1E8F" unicode="&#x1e8f;" 
d="M234 536v131h131v-131h-131zM55 -190v109q73 0 112.5 22t61.5 70l-200 436h153l76 -185l45 -131l45 131l76 185h147l-185 -410q-40 -88 -78 -134t-98 -69.5t-155 -23.5z" />
    <glyph glyph-name="uni1E92" unicode="&#x1e92;" 
d="M235 -191v131h131v-131h-131zM63 0v94l284 369h-279v116h460v-94l-284 -369h293v-116h-474z" />
    <glyph glyph-name="uni1E93" unicode="&#x1e93;" 
d="M235 -191v131h131v-131h-131zM77 0v93l259 253h-254v101h435v-92l-259 -254h265v-101h-446z" />
    <glyph glyph-name="uni1E97" unicode="&#x1e97;" 
d="M69 715v131h131v-131h-131zM298 715v131h131v-131h-131zM361 -10q-92 0 -136.5 47.5t-44.5 160.5v148h-139v101h139v209h134v-209h221v-101h-221v-143q0 -57 16.5 -79.5t64.5 -22.5q54 0 119 26v-105q-70 -32 -153 -32z" />
    <glyph glyph-name="uni1E9E" unicode="&#x1e9e;" 
d="M274 334l107 133h-152v-467h-139v579h437v-106l-121 -150q67 -20 109 -62.5t42 -110.5q0 -72 -48.5 -116t-132.5 -44q-68 0 -102 20v108q36 -18 75 -18q31 0 50 14t19 42q0 43 -42.5 68.5t-101.5 35.5v74z" />
    <glyph glyph-name="uni1EA0" unicode="&#x1ea0;" 
d="M235 -191v131h131v-131h-131zM25 0l202 579h145l203 -579h-147l-38 118h-183l-37 -118h-145zM249 259l-9 -33h115l-8 29l-50 180z" />
    <glyph glyph-name="uni1EA1" unicode="&#x1ea1;" 
d="M245 -191v131h131v-131h-131zM222 -10q-71 0 -116.5 32.5t-45.5 96.5q0 48 28.5 78.5t69 41.5t93.5 11q67 0 118 -14v34q0 41 -16.5 62.5t-66.5 21.5q-86 0 -86 -64h-125q0 85 60 126t159 41q208 0 208 -176v-167q0 -23 24 -23q15 0 35 5v-86q-40 -20 -93 -20
q-78 0 -78 64v9q-58 -73 -168 -73zM258 82q36 0 67 10.5t44 22.5v46q-28 6 -87 6q-88 0 -88 -44q0 -41 64 -41z" />
    <glyph glyph-name="uni1EA2" unicode="&#x1ea2;" 
d="M290 609l-31 43q71 47 71 86t-40 39q-44 0 -44 -43h-77q0 56 33.5 84t91.5 28q55 0 87.5 -23.5t32.5 -68.5q0 -43 -29.5 -75t-94.5 -70zM25 0l202 579h145l203 -579h-147l-38 118h-183l-37 -118h-145zM249 259l-9 -33h115l-8 29l-50 180z" />
    <glyph glyph-name="uni1EA3" unicode="&#x1ea3;" 
d="M296 498l-31 43q71 47 71 86t-40 39q-44 0 -44 -43h-77q0 56 33.5 84t91.5 28q55 0 87.5 -23.5t32.5 -68.5q0 -43 -29.5 -75t-94.5 -70zM222 -10q-71 0 -116.5 32.5t-45.5 96.5q0 48 28.5 78.5t69 41.5t93.5 11q67 0 118 -14v34q0 41 -16.5 62.5t-66.5 21.5
q-86 0 -86 -64h-125q0 85 60 126t159 41q208 0 208 -176v-167q0 -23 24 -23q15 0 35 5v-86q-40 -20 -93 -20q-78 0 -78 64v9q-58 -73 -168 -73zM258 82q36 0 67 10.5t44 22.5v46q-28 6 -87 6q-88 0 -88 -44q0 -41 64 -41z" />
    <glyph glyph-name="uni1EA4" unicode="&#x1ea4;" 
d="M356 789l123 -165h-86l-93 82l-93 -82h-86l123 165h112zM434 726l33 159h113l-81 -159h-65zM25 0l202 579h145l203 -579h-147l-38 118h-183l-37 -118h-145zM249 259l-9 -33h115l-8 29l-50 180z" />
    <glyph glyph-name="uni1EA5" unicode="&#x1ea5;" 
d="M120 505l130 201h112l130 -201h-86l-100 104l-100 -104h-86zM419 684l47 200h122l-96 -200h-73zM222 -10q-71 0 -116.5 32.5t-45.5 96.5q0 48 28.5 78.5t69 41.5t93.5 11q67 0 118 -14v34q0 41 -16.5 62.5t-66.5 21.5q-86 0 -86 -64h-125q0 85 60 126t159 41
q208 0 208 -176v-167q0 -23 24 -23q15 0 35 5v-86q-40 -20 -93 -20q-78 0 -78 64v9q-58 -73 -168 -73zM258 82q36 0 67 10.5t44 22.5v46q-28 6 -87 6q-88 0 -88 -44q0 -41 64 -41z" />
    <glyph glyph-name="uni1EA6" unicode="&#x1ea6;" 
d="M121 624l123 165h112l123 -165h-86l-93 82l-93 -82h-86zM133 885l33 -159h-65l-81 159h113zM25 0l202 579h145l203 -579h-147l-38 118h-183l-37 -118h-145zM249 259l-9 -33h115l-8 29l-50 180z" />
    <glyph glyph-name="uni1EA7" unicode="&#x1ea7;" 
d="M120 505l130 201h112l130 -201h-86l-100 104l-100 -104h-86zM120 684l-96 200h122l47 -200h-73zM222 -10q-71 0 -116.5 32.5t-45.5 96.5q0 48 28.5 78.5t69 41.5t93.5 11q67 0 118 -14v34q0 41 -16.5 62.5t-66.5 21.5q-86 0 -86 -64h-125q0 85 60 126t159 41
q208 0 208 -176v-167q0 -23 24 -23q15 0 35 5v-86q-40 -20 -93 -20q-78 0 -78 64v9q-58 -73 -168 -73zM258 82q36 0 67 10.5t44 22.5v46q-28 6 -87 6q-88 0 -88 -44q0 -41 64 -41z" />
    <glyph glyph-name="uni1EA8" unicode="&#x1ea8;" 
d="M343 770l131 -146h-81l-93 63l-93 -63h-81l131 146h86zM469 683l-36 35q43 27 57 44t14 33q0 36 -41 36q-42 0 -42 -39h-70q0 49 30 74t85 25q51 0 82 -21t31 -61q0 -37 -27 -67t-83 -59zM25 0l202 579h145l203 -579h-147l-38 118h-183l-37 -118h-145zM249 259l-9 -33
h115l-8 29l-50 180z" />
    <glyph glyph-name="uni1EA9" unicode="&#x1ea9;" 
d="M120 505l130 201h112l130 -201h-86l-100 104l-100 -104h-86zM455 652l-31 43q71 47 71 86t-40 39q-44 0 -44 -43h-77q0 56 33.5 84t91.5 28q55 0 87.5 -23.5t32.5 -68.5q0 -43 -29.5 -75t-94.5 -70zM222 -10q-71 0 -116.5 32.5t-45.5 96.5q0 48 28.5 78.5t69 41.5
t93.5 11q67 0 118 -14v34q0 41 -16.5 62.5t-66.5 21.5q-86 0 -86 -64h-125q0 85 60 126t159 41q208 0 208 -176v-167q0 -23 24 -23q15 0 35 5v-86q-40 -20 -93 -20q-78 0 -78 64v9q-58 -73 -168 -73zM258 82q36 0 67 10.5t44 22.5v46q-28 6 -87 6q-88 0 -88 -44
q0 -41 64 -41z" />
    <glyph glyph-name="uni1EAA" unicode="&#x1eaa;" 
d="M163 777l-39 27q42 87 118 87q30 0 70 -21q34 -19 54 -19q43 0 71 40l39 -27q-42 -87 -118 -87q-32 0 -66 19q-40 21 -58 21q-43 0 -71 -40zM345 757l129 -133h-81l-93 60l-93 -60h-81l129 133h90zM25 0l202 579h145l203 -579h-147l-38 118h-183l-37 -118h-145zM249 259
l-9 -33h115l-8 29l-50 180z" />
    <glyph glyph-name="uni1EAB" unicode="&#x1eab;" 
d="M120 505l133 191h106l133 -191h-86l-100 97l-100 -97h-86zM160 728l-56 27q15 51 46.5 91t82.5 40q36 0 82 -32q47 -33 66 -33q37 0 71 65l56 -27q-15 -51 -46.5 -91t-82.5 -40q-34 0 -77 29q-4 3 -14.5 10l-15 10t-12.5 7.5t-15 6.5t-14 2q-37 0 -71 -65zM222 -10
q-71 0 -116.5 32.5t-45.5 96.5q0 48 28.5 78.5t69 41.5t93.5 11q67 0 118 -14v34q0 41 -16.5 62.5t-66.5 21.5q-86 0 -86 -64h-125q0 85 60 126t159 41q208 0 208 -176v-167q0 -23 24 -23q15 0 35 5v-86q-40 -20 -93 -20q-78 0 -78 64v9q-58 -73 -168 -73zM258 82
q36 0 67 10.5t44 22.5v46q-28 6 -87 6q-88 0 -88 -44q0 -41 64 -41z" />
    <glyph glyph-name="uni1EAC" unicode="&#x1eac;" 
d="M235 -191v131h131v-131h-131zM114 616l130 204h112l130 -204h-86l-100 104l-100 -104h-86zM25 0l202 579h145l203 -579h-147l-38 118h-183l-37 -118h-145zM249 259l-9 -33h115l-8 29l-50 180z" />
    <glyph glyph-name="uni1EAD" unicode="&#x1ead;" 
d="M245 -191v131h131v-131h-131zM120 505l130 204h112l130 -204h-86l-100 104l-100 -104h-86zM222 -10q-71 0 -116.5 32.5t-45.5 96.5q0 48 28.5 78.5t69 41.5t93.5 11q67 0 118 -14v34q0 41 -16.5 62.5t-66.5 21.5q-86 0 -86 -64h-125q0 85 60 126t159 41q208 0 208 -176
v-167q0 -23 24 -23q15 0 35 5v-86q-40 -20 -93 -20q-78 0 -78 64v9q-58 -73 -168 -73zM258 82q36 0 67 10.5t44 22.5v46q-28 6 -87 6q-88 0 -88 -44q0 -41 64 -41z" />
    <glyph glyph-name="uni1EAE" unicode="&#x1eae;" 
d="M300 622q-82 0 -135.5 44.5t-63.5 81.5l48 37q53 -77 151 -77t151 77l48 -37q-10 -37 -63.5 -81.5t-135.5 -44.5zM260 749l43 136h136l-113 -136h-66zM25 0l202 579h145l203 -579h-147l-38 118h-183l-37 -118h-145zM249 259l-9 -33h115l-8 29l-50 180z" />
    <glyph glyph-name="uni1EAF" unicode="&#x1eaf;" 
d="M306 514q-45 0 -83.5 16t-62.5 39.5t-38 44.5t-18 37l49 41q19 -27 58.5 -51.5t94.5 -24.5t94.5 24.5t58.5 51.5l49 -41q-4 -16 -18 -37t-38 -44.5t-62.5 -39.5t-83.5 -16zM269 702l68 182h140l-133 -182h-75zM222 -10q-71 0 -116.5 32.5t-45.5 96.5q0 48 28.5 78.5
t69 41.5t93.5 11q67 0 118 -14v34q0 41 -16.5 62.5t-66.5 21.5q-86 0 -86 -64h-125q0 85 60 126t159 41q208 0 208 -176v-167q0 -23 24 -23q15 0 35 5v-86q-40 -20 -93 -20q-78 0 -78 64v9q-58 -73 -168 -73zM258 82q36 0 67 10.5t44 22.5v46q-28 6 -87 6q-88 0 -88 -44
q0 -41 64 -41z" />
    <glyph glyph-name="uni1EB0" unicode="&#x1eb0;" 
d="M300 622q-82 0 -135.5 44.5t-63.5 81.5l48 37q53 -77 151 -77t151 77l48 -37q-10 -37 -63.5 -81.5t-135.5 -44.5zM297 885l43 -136h-66l-113 136h136zM25 0l202 579h145l203 -579h-147l-38 118h-183l-37 -118h-145zM249 259l-9 -33h115l-8 29l-50 180z" />
    <glyph glyph-name="uni1EB1" unicode="&#x1eb1;" 
d="M306 514q-45 0 -83.5 16t-62.5 39.5t-38 44.5t-18 37l49 41q19 -27 58.5 -51.5t94.5 -24.5t94.5 24.5t58.5 51.5l49 -41q-4 -16 -18 -37t-38 -44.5t-62.5 -39.5t-83.5 -16zM269 702l-133 182h140l68 -182h-75zM222 -10q-71 0 -116.5 32.5t-45.5 96.5q0 48 28.5 78.5
t69 41.5t93.5 11q67 0 118 -14v34q0 41 -16.5 62.5t-66.5 21.5q-86 0 -86 -64h-125q0 85 60 126t159 41q208 0 208 -176v-167q0 -23 24 -23q15 0 35 5v-86q-40 -20 -93 -20q-78 0 -78 64v9q-58 -73 -168 -73zM258 82q36 0 67 10.5t44 22.5v46q-28 6 -87 6q-88 0 -88 -44
q0 -41 64 -41z" />
    <glyph glyph-name="uni1EB2" unicode="&#x1eb2;" 
d="M300 622q-44 0 -81.5 14t-60 35.5t-35 39.5t-17.5 32l52 33q54 -78 142 -78t142 78l52 -33q-5 -14 -17.5 -32t-35 -39.5t-60 -35.5t-81.5 -14zM290 725l-5 37q54 8 54 40t-41 32q-42 0 -42 -40h-70q0 48 30.5 72.5t85.5 24.5q51 0 81.5 -20t30.5 -56q0 -38 -33.5 -62.5
t-90.5 -27.5zM25 0l202 579h145l203 -579h-147l-38 118h-183l-37 -118h-145zM249 259l-9 -33h115l-8 29l-50 180z" />
    <glyph glyph-name="uni1EB3" unicode="&#x1eb3;" 
d="M306 514q-45 0 -83.5 16t-62.5 39.5t-38 44.5t-18 37l49 41q19 -27 58.5 -51.5t94.5 -24.5t94.5 24.5t58.5 51.5l49 -41q-4 -16 -18 -37t-38 -44.5t-62.5 -39.5t-83.5 -16zM297 659l-29 43q70 44 70 79q0 38 -41 38q-43 0 -43 -42h-77q0 56 33.5 84t91.5 28
q54 0 86.5 -23.5t32.5 -68.5q0 -41 -30.5 -74t-93.5 -64zM222 -10q-71 0 -116.5 32.5t-45.5 96.5q0 48 28.5 78.5t69 41.5t93.5 11q67 0 118 -14v34q0 41 -16.5 62.5t-66.5 21.5q-86 0 -86 -64h-125q0 85 60 126t159 41q208 0 208 -176v-167q0 -23 24 -23q15 0 35 5v-86
q-40 -20 -93 -20q-78 0 -78 64v9q-58 -73 -168 -73zM258 82q36 0 67 10.5t44 22.5v46q-28 6 -87 6q-88 0 -88 -44q0 -41 64 -41z" />
    <glyph glyph-name="uni1EB4" unicode="&#x1eb4;" 
d="M300 622q-56 0 -100.5 23.5t-63 46t-28.5 43.5l41 32q53 -62 151 -62t151 62l41 -32q-10 -21 -28.5 -43.5t-63 -46t-100.5 -23.5zM163 777l-39 27q42 87 118 87q31 0 71 -22q34 -18 53 -18q43 0 71 40l39 -27q-42 -87 -118 -87q-29 0 -69 21q-34 19 -55 19q-43 0 -71 -40
zM25 0l202 579h145l203 -579h-147l-38 118h-183l-37 -118h-145zM249 259l-9 -33h115l-8 29l-50 180z" />
    <glyph glyph-name="uni1EB5" unicode="&#x1eb5;" 
d="M306 514q-45 0 -83.5 16t-62.5 39.5t-38 44.5t-18 37l49 41q19 -27 58.5 -51.5t94.5 -24.5t94.5 24.5t58.5 51.5l49 -41q-4 -16 -18 -37t-38 -44.5t-62.5 -39.5t-83.5 -16zM160 728l-56 27q15 51 46.5 91t82.5 40q36 0 82 -32q47 -33 66 -33q37 0 71 65l56 -27
q-15 -51 -46.5 -91t-82.5 -40q-36 0 -83 33q-46 32 -65 32q-37 0 -71 -65zM222 -10q-71 0 -116.5 32.5t-45.5 96.5q0 48 28.5 78.5t69 41.5t93.5 11q67 0 118 -14v34q0 41 -16.5 62.5t-66.5 21.5q-86 0 -86 -64h-125q0 85 60 126t159 41q208 0 208 -176v-167q0 -23 24 -23
q15 0 35 5v-86q-40 -20 -93 -20q-78 0 -78 64v9q-58 -73 -168 -73zM258 82q36 0 67 10.5t44 22.5v46q-28 6 -87 6q-88 0 -88 -44q0 -41 64 -41z" />
    <glyph glyph-name="uni1EB6" unicode="&#x1eb6;" 
d="M235 -191v131h131v-131h-131zM300 624q-45 0 -83.5 16t-62.5 40t-37.5 45t-18.5 36l49 41q20 -27 59 -51.5t94 -24.5t94 24.5t59 51.5l49 -41q-5 -15 -18.5 -36t-37.5 -45t-62.5 -40t-83.5 -16zM25 0l202 579h145l203 -579h-147l-38 118h-183l-37 -118h-145zM249 259
l-9 -33h115l-8 29l-50 180z" />
    <glyph glyph-name="uni1EB7" unicode="&#x1eb7;" 
d="M245 -191v131h131v-131h-131zM306 513q-45 0 -83.5 16t-62.5 40t-37.5 45t-18.5 36l49 41q20 -27 59 -51.5t94 -24.5t94 24.5t59 51.5l49 -41q-5 -15 -18.5 -36t-37.5 -45t-62.5 -40t-83.5 -16zM222 -10q-71 0 -116.5 32.5t-45.5 96.5q0 48 28.5 78.5t69 41.5t93.5 11
q67 0 118 -14v34q0 41 -16.5 62.5t-66.5 21.5q-86 0 -86 -64h-125q0 85 60 126t159 41q208 0 208 -176v-167q0 -23 24 -23q15 0 35 5v-86q-40 -20 -93 -20q-78 0 -78 64v9q-58 -73 -168 -73zM258 82q36 0 67 10.5t44 22.5v46q-28 6 -87 6q-88 0 -88 -44q0 -41 64 -41z" />
    <glyph glyph-name="uni1EB8" unicode="&#x1eb8;" 
d="M241 -191v131h131v-131h-131zM90 0v579h431v-116h-292v-110h246v-116h-246v-121h292v-116h-431z" />
    <glyph glyph-name="uni1EB9" unicode="&#x1eb9;" 
d="M235 -191v131h131v-131h-131zM307 -10q-112 0 -180 56t-68 175q0 65 21 112.5t57 73.5t77.5 38t89.5 12q49 0 90 -12.5t75 -38.5t53 -72.5t19 -109.5v-23h-346q0 -110 113 -110q38 0 63.5 12.5t29.5 36.5h138q-17 -79 -80 -114.5t-152 -35.5zM197 282h206q-18 74 -103 74
t-103 -74z" />
    <glyph glyph-name="uni1EBA" unicode="&#x1eba;" 
d="M296 609l-31 43q71 47 71 86t-40 39q-44 0 -44 -43h-77q0 56 33.5 84t91.5 28q55 0 87.5 -23.5t32.5 -68.5q0 -43 -29.5 -75t-94.5 -70zM90 0v579h431v-116h-292v-110h246v-116h-246v-121h292v-116h-431z" />
    <glyph glyph-name="uni1EBB" unicode="&#x1ebb;" 
d="M290 498l-31 43q71 47 71 86t-40 39q-44 0 -44 -43h-77q0 56 33.5 84t91.5 28q55 0 87.5 -23.5t32.5 -68.5q0 -43 -29.5 -75t-94.5 -70zM307 -10q-112 0 -180 56t-68 175q0 65 21 112.5t57 73.5t77.5 38t89.5 12q49 0 90 -12.5t75 -38.5t53 -72.5t19 -109.5v-23h-346
q0 -110 113 -110q38 0 63.5 12.5t29.5 36.5h138q-17 -79 -80 -114.5t-152 -35.5zM197 282h206q-18 74 -103 74t-103 -74z" />
    <glyph glyph-name="uni1EBC" unicode="&#x1ebc;" 
d="M160 629l-58 27q45 137 132 137q34 0 85 -32q42 -27 63 -27q39 0 70 59l58 -27q-45 -137 -132 -137q-35 0 -76 26q-52 33 -72 33q-39 0 -70 -59zM90 0v579h431v-116h-292v-110h246v-116h-246v-121h292v-116h-431z" />
    <glyph glyph-name="uni1EBD" unicode="&#x1ebd;" 
d="M154 518l-58 27q45 137 132 137q34 0 85 -32q42 -27 63 -27q39 0 70 59l58 -27q-45 -137 -132 -137q-35 0 -76 26q-52 33 -72 33q-39 0 -70 -59zM307 -10q-112 0 -180 56t-68 175q0 65 21 112.5t57 73.5t77.5 38t89.5 12q49 0 90 -12.5t75 -38.5t53 -72.5t19 -109.5v-23
h-346q0 -110 113 -110q38 0 63.5 12.5t29.5 36.5h138q-17 -79 -80 -114.5t-152 -35.5zM197 282h206q-18 74 -103 74t-103 -74z" />
    <glyph glyph-name="uni1EBE" unicode="&#x1ebe;" 
d="M362 789l123 -165h-86l-93 82l-93 -82h-86l123 165h112zM440 726l33 159h113l-81 -159h-65zM90 0v579h431v-116h-292v-110h246v-116h-246v-121h292v-116h-431z" />
    <glyph glyph-name="uni1EBF" unicode="&#x1ebf;" 
d="M114 505l130 201h112l130 -201h-86l-100 104l-100 -104h-86zM413 684l47 200h122l-96 -200h-73zM307 -10q-112 0 -180 56t-68 175q0 65 21 112.5t57 73.5t77.5 38t89.5 12q49 0 90 -12.5t75 -38.5t53 -72.5t19 -109.5v-23h-346q0 -110 113 -110q38 0 63.5 12.5t29.5 36.5
h138q-17 -79 -80 -114.5t-152 -35.5zM197 282h206q-18 74 -103 74t-103 -74z" />
    <glyph glyph-name="uni1EC0" unicode="&#x1ec0;" 
d="M127 624l123 165h112l123 -165h-86l-93 82l-93 -82h-86zM139 885l33 -159h-65l-81 159h113zM90 0v579h431v-116h-292v-110h246v-116h-246v-121h292v-116h-431z" />
    <glyph glyph-name="uni1EC1" unicode="&#x1ec1;" 
d="M114 505l130 201h112l130 -201h-86l-100 104l-100 -104h-86zM114 684l-96 200h122l47 -200h-73zM307 -10q-112 0 -180 56t-68 175q0 65 21 112.5t57 73.5t77.5 38t89.5 12q49 0 90 -12.5t75 -38.5t53 -72.5t19 -109.5v-23h-346q0 -110 113 -110q38 0 63.5 12.5t29.5 36.5
h138q-17 -79 -80 -114.5t-152 -35.5zM197 282h206q-18 74 -103 74t-103 -74z" />
    <glyph glyph-name="uni1EC2" unicode="&#x1ec2;" 
d="M349 770l131 -146h-81l-93 63l-93 -63h-81l131 146h86zM475 683l-36 35q43 27 57 44t14 33q0 36 -41 36q-42 0 -42 -39h-70q0 49 30 74t85 25q51 0 82 -21t31 -61q0 -37 -27 -67t-83 -59zM90 0v579h431v-116h-292v-110h246v-116h-246v-121h292v-116h-431z" />
    <glyph glyph-name="uni1EC3" unicode="&#x1ec3;" 
d="M114 505l130 201h112l130 -201h-86l-100 104l-100 -104h-86zM449 652l-31 43q71 47 71 86t-40 39q-44 0 -44 -43h-77q0 56 33.5 84t91.5 28q55 0 87.5 -23.5t32.5 -68.5q0 -43 -29.5 -75t-94.5 -70zM307 -10q-112 0 -180 56t-68 175q0 65 21 112.5t57 73.5t77.5 38
t89.5 12q49 0 90 -12.5t75 -38.5t53 -72.5t19 -109.5v-23h-346q0 -110 113 -110q38 0 63.5 12.5t29.5 36.5h138q-17 -79 -80 -114.5t-152 -35.5zM197 282h206q-18 74 -103 74t-103 -74z" />
    <glyph glyph-name="uni1EC4" unicode="&#x1ec4;" 
d="M169 777l-39 27q42 87 118 87q30 0 70 -21q34 -19 54 -19q43 0 71 40l39 -27q-42 -87 -118 -87q-32 0 -66 19q-40 21 -58 21q-43 0 -71 -40zM351 757l129 -133h-81l-93 60l-93 -60h-81l129 133h90zM90 0v579h431v-116h-292v-110h246v-116h-246v-121h292v-116h-431z" />
    <glyph glyph-name="uni1EC5" unicode="&#x1ec5;" 
d="M114 505l133 191h106l133 -191h-86l-100 97l-100 -97h-86zM154 728l-56 27q15 51 46.5 91t82.5 40q36 0 82 -32q47 -33 66 -33q37 0 71 65l56 -27q-15 -51 -46.5 -91t-82.5 -40q-34 0 -77 29q-4 3 -14.5 10l-15 10t-12.5 7.5t-15 6.5t-14 2q-37 0 -71 -65zM307 -10
q-112 0 -180 56t-68 175q0 65 21 112.5t57 73.5t77.5 38t89.5 12q49 0 90 -12.5t75 -38.5t53 -72.5t19 -109.5v-23h-346q0 -110 113 -110q38 0 63.5 12.5t29.5 36.5h138q-17 -79 -80 -114.5t-152 -35.5zM197 282h206q-18 74 -103 74t-103 -74z" />
    <glyph glyph-name="uni1EC6" unicode="&#x1ec6;" 
d="M241 -191v131h131v-131h-131zM120 616l130 204h112l130 -204h-86l-100 104l-100 -104h-86zM90 0v579h431v-116h-292v-110h246v-116h-246v-121h292v-116h-431z" />
    <glyph glyph-name="uni1EC7" unicode="&#x1ec7;" 
d="M235 -191v131h131v-131h-131zM114 505l130 204h112l130 -204h-86l-100 104l-100 -104h-86zM307 -10q-112 0 -180 56t-68 175q0 65 21 112.5t57 73.5t77.5 38t89.5 12q49 0 90 -12.5t75 -38.5t53 -72.5t19 -109.5v-23h-346q0 -110 113 -110q38 0 63.5 12.5t29.5 36.5h138
q-17 -79 -80 -114.5t-152 -35.5zM197 282h206q-18 74 -103 74t-103 -74z" />
    <glyph glyph-name="uni1EC8" unicode="&#x1ec8;" 
d="M290 609l-31 43q71 47 71 86t-40 39q-44 0 -44 -43h-77q0 56 33.5 84t91.5 28q55 0 87.5 -23.5t32.5 -68.5q0 -43 -29.5 -75t-94.5 -70zM89 0v116h141v347h-141v116h422v-116h-142v-347h142v-116h-422z" />
    <glyph glyph-name="uni1EC9" unicode="&#x1ec9;" 
d="M295 504l-31 43q71 47 71 86t-40 39q-44 0 -44 -43h-77q0 56 33.5 84t91.5 28q55 0 87.5 -23.5t32.5 -68.5q0 -43 -29.5 -75t-94.5 -70zM89 0v101h151v245h-151v101h285v-346h137v-101h-422z" />
    <glyph glyph-name="uni1ECA" unicode="&#x1eca;" 
d="M235 -191v131h131v-131h-131zM89 0v116h141v347h-141v116h422v-116h-142v-347h142v-116h-422z" />
    <glyph glyph-name="uni1ECB" unicode="&#x1ecb;" 
d="M242 -191v131h131v-131h-131zM89 0v101h151v245h-151v101h285v-346h137v-101h-422zM228 518v138h158v-138h-158z" />
    <glyph glyph-name="uni1ECC" unicode="&#x1ecc;" 
d="M235 -191v131h131v-131h-131zM297 -10q-126 0 -188.5 77t-62.5 220q0 144 63 223.5t193 79.5q128 0 190 -77.5t62 -218.5q0 -142 -63.5 -223t-193.5 -81zM300 109q66 0 88.5 46t22.5 135q0 90 -22.5 135.5t-88.5 45.5t-88.5 -45.5t-22.5 -135.5q0 -89 22.5 -135t88.5 -46
z" />
    <glyph glyph-name="uni1ECD" unicode="&#x1ecd;" 
d="M235 -191v131h131v-131h-131zM297 -10q-47 0 -87.5 11.5t-76.5 37t-56.5 72.5t-20.5 111q0 66 21.5 113.5t58.5 73t78.5 37t88.5 11.5t88 -11.5t76.5 -37t56 -72t20.5 -110.5q0 -53 -14.5 -94.5t-38.5 -67.5t-57 -43t-66.5 -24t-70.5 -7zM300 100q105 0 105 124t-105 124
t-105 -124t105 -124z" />
    <glyph glyph-name="uni1ECE" unicode="&#x1ece;" 
d="M290 609l-31 43q71 47 71 86t-40 39q-44 0 -44 -43h-77q0 56 33.5 84t91.5 28q55 0 87.5 -23.5t32.5 -68.5q0 -43 -29.5 -75t-94.5 -70zM297 -10q-126 0 -188.5 77t-62.5 220q0 144 63 223.5t193 79.5q128 0 190 -77.5t62 -218.5q0 -142 -63.5 -223t-193.5 -81zM300 109
q66 0 88.5 46t22.5 135q0 90 -22.5 135.5t-88.5 45.5t-88.5 -45.5t-22.5 -135.5q0 -89 22.5 -135t88.5 -46z" />
    <glyph glyph-name="uni1ECF" unicode="&#x1ecf;" 
d="M290 498l-31 43q71 47 71 86t-40 39q-44 0 -44 -43h-77q0 56 33.5 84t91.5 28q55 0 87.5 -23.5t32.5 -68.5q0 -43 -29.5 -75t-94.5 -70zM297 -10q-47 0 -87.5 11.5t-76.5 37t-56.5 72.5t-20.5 111q0 66 21.5 113.5t58.5 73t78.5 37t88.5 11.5t88 -11.5t76.5 -37t56 -72
t20.5 -110.5q0 -53 -14.5 -94.5t-38.5 -67.5t-57 -43t-66.5 -24t-70.5 -7zM300 100q105 0 105 124t-105 124t-105 -124t105 -124z" />
    <glyph glyph-name="uni1ED0" unicode="&#x1ed0;" 
d="M356 789l123 -165h-86l-93 82l-93 -82h-86l123 165h112zM434 726l33 159h113l-81 -159h-65zM297 -10q-126 0 -188.5 77t-62.5 220q0 144 63 223.5t193 79.5q128 0 190 -77.5t62 -218.5q0 -142 -63.5 -223t-193.5 -81zM300 109q66 0 88.5 46t22.5 135q0 90 -22.5 135.5
t-88.5 45.5t-88.5 -45.5t-22.5 -135.5q0 -89 22.5 -135t88.5 -46z" />
    <glyph glyph-name="uni1ED1" unicode="&#x1ed1;" 
d="M114 505l130 201h112l130 -201h-86l-100 104l-100 -104h-86zM413 684l47 200h122l-96 -200h-73zM297 -10q-47 0 -87.5 11.5t-76.5 37t-56.5 72.5t-20.5 111q0 66 21.5 113.5t58.5 73t78.5 37t88.5 11.5t88 -11.5t76.5 -37t56 -72t20.5 -110.5q0 -53 -14.5 -94.5
t-38.5 -67.5t-57 -43t-66.5 -24t-70.5 -7zM300 100q105 0 105 124t-105 124t-105 -124t105 -124z" />
    <glyph glyph-name="uni1ED2" unicode="&#x1ed2;" 
d="M121 624l123 165h112l123 -165h-86l-93 82l-93 -82h-86zM133 885l33 -159h-65l-81 159h113zM297 -10q-126 0 -188.5 77t-62.5 220q0 144 63 223.5t193 79.5q128 0 190 -77.5t62 -218.5q0 -142 -63.5 -223t-193.5 -81zM300 109q66 0 88.5 46t22.5 135q0 90 -22.5 135.5
t-88.5 45.5t-88.5 -45.5t-22.5 -135.5q0 -89 22.5 -135t88.5 -46z" />
    <glyph glyph-name="uni1ED3" unicode="&#x1ed3;" 
d="M114 505l130 201h112l130 -201h-86l-100 104l-100 -104h-86zM114 684l-96 200h122l47 -200h-73zM297 -10q-47 0 -87.5 11.5t-76.5 37t-56.5 72.5t-20.5 111q0 66 21.5 113.5t58.5 73t78.5 37t88.5 11.5t88 -11.5t76.5 -37t56 -72t20.5 -110.5q0 -53 -14.5 -94.5
t-38.5 -67.5t-57 -43t-66.5 -24t-70.5 -7zM300 100q105 0 105 124t-105 124t-105 -124t105 -124z" />
    <glyph glyph-name="uni1ED4" unicode="&#x1ed4;" 
d="M343 770l131 -146h-81l-93 63l-93 -63h-81l131 146h86zM469 683l-36 35q43 27 57 44t14 33q0 36 -41 36q-42 0 -42 -39h-70q0 49 30 74t85 25q51 0 82 -21t31 -61q0 -37 -27 -67t-83 -59zM297 -10q-126 0 -188.5 77t-62.5 220q0 144 63 223.5t193 79.5q128 0 190 -77.5
t62 -218.5q0 -142 -63.5 -223t-193.5 -81zM300 109q66 0 88.5 46t22.5 135q0 90 -22.5 135.5t-88.5 45.5t-88.5 -45.5t-22.5 -135.5q0 -89 22.5 -135t88.5 -46z" />
    <glyph glyph-name="uni1ED5" unicode="&#x1ed5;" 
d="M114 505l130 201h112l130 -201h-86l-100 104l-100 -104h-86zM449 652l-31 43q71 47 71 86t-40 39q-44 0 -44 -43h-77q0 56 33.5 84t91.5 28q55 0 87.5 -23.5t32.5 -68.5q0 -43 -29.5 -75t-94.5 -70zM297 -10q-47 0 -87.5 11.5t-76.5 37t-56.5 72.5t-20.5 111
q0 66 21.5 113.5t58.5 73t78.5 37t88.5 11.5t88 -11.5t76.5 -37t56 -72t20.5 -110.5q0 -53 -14.5 -94.5t-38.5 -67.5t-57 -43t-66.5 -24t-70.5 -7zM300 100q105 0 105 124t-105 124t-105 -124t105 -124z" />
    <glyph glyph-name="uni1ED6" unicode="&#x1ed6;" 
d="M163 777l-39 27q42 87 118 87q30 0 70 -21q34 -19 54 -19q43 0 71 40l39 -27q-42 -87 -118 -87q-32 0 -66 19q-40 21 -58 21q-43 0 -71 -40zM345 757l129 -133h-81l-93 60l-93 -60h-81l129 133h90zM297 -10q-126 0 -188.5 77t-62.5 220q0 144 63 223.5t193 79.5
q128 0 190 -77.5t62 -218.5q0 -142 -63.5 -223t-193.5 -81zM300 109q66 0 88.5 46t22.5 135q0 90 -22.5 135.5t-88.5 45.5t-88.5 -45.5t-22.5 -135.5q0 -89 22.5 -135t88.5 -46z" />
    <glyph glyph-name="uni1ED7" unicode="&#x1ed7;" 
d="M114 505l133 191h106l133 -191h-86l-100 97l-100 -97h-86zM154 728l-56 27q15 51 46.5 91t82.5 40q36 0 82 -32q47 -33 66 -33q37 0 71 65l56 -27q-15 -51 -46.5 -91t-82.5 -40q-34 0 -77 29q-4 3 -14.5 10l-15 10t-12.5 7.5t-15 6.5t-14 2q-37 0 -71 -65zM297 -10
q-47 0 -87.5 11.5t-76.5 37t-56.5 72.5t-20.5 111q0 66 21.5 113.5t58.5 73t78.5 37t88.5 11.5t88 -11.5t76.5 -37t56 -72t20.5 -110.5q0 -53 -14.5 -94.5t-38.5 -67.5t-57 -43t-66.5 -24t-70.5 -7zM300 100q105 0 105 124t-105 124t-105 -124t105 -124z" />
    <glyph glyph-name="uni1ED8" unicode="&#x1ed8;" 
d="M235 -191v131h131v-131h-131zM114 616l130 204h112l130 -204h-86l-100 104l-100 -104h-86zM297 -10q-126 0 -188.5 77t-62.5 220q0 144 63 223.5t193 79.5q128 0 190 -77.5t62 -218.5q0 -142 -63.5 -223t-193.5 -81zM300 109q66 0 88.5 46t22.5 135q0 90 -22.5 135.5
t-88.5 45.5t-88.5 -45.5t-22.5 -135.5q0 -89 22.5 -135t88.5 -46z" />
    <glyph glyph-name="uni1ED9" unicode="&#x1ed9;" 
d="M235 -191v131h131v-131h-131zM114 505l130 204h112l130 -204h-86l-100 104l-100 -104h-86zM297 -10q-47 0 -87.5 11.5t-76.5 37t-56.5 72.5t-20.5 111q0 66 21.5 113.5t58.5 73t78.5 37t88.5 11.5t88 -11.5t76.5 -37t56 -72t20.5 -110.5q0 -53 -14.5 -94.5t-38.5 -67.5
t-57 -43t-66.5 -24t-70.5 -7zM300 100q105 0 105 124t-105 124t-105 -124t105 -124z" />
    <glyph glyph-name="uni1EDA" unicode="&#x1eda;" 
d="M226 616l78 204h144l-143 -204h-79zM297 -10q-126 0 -188.5 77t-62.5 220q0 144 63 223.5t193 79.5q92 0 153 -44q38 14 38 74q0 27 -5 60h97q5 -25 5 -62q0 -102 -84 -125q48 -75 48 -199q0 -142 -63.5 -223t-193.5 -81zM300 109q66 0 88.5 46t22.5 135
q0 90 -22.5 135.5t-88.5 45.5t-88.5 -45.5t-22.5 -135.5q0 -89 22.5 -135t88.5 -46z" />
    <glyph glyph-name="uni1EDB" unicode="&#x1edb;" 
d="M226 505l78 204h144l-143 -204h-79zM297 -10q-47 0 -87.5 11.5t-76.5 37t-56.5 72.5t-20.5 111q0 66 21.5 113.5t58.5 73t78.5 37t88.5 11.5q105 0 168 -51q22 18 22 66q0 27 -5 60h97q5 -25 5 -62q0 -95 -73 -121q27 -51 27 -123q0 -53 -14.5 -94.5t-38.5 -67.5t-57 -43
t-66.5 -24t-70.5 -7zM300 100q105 0 105 124t-105 124t-105 -124t105 -124z" />
    <glyph glyph-name="uni1EDC" unicode="&#x1edc;" 
d="M295 616l-143 204h144l78 -204h-79zM297 -10q-126 0 -188.5 77t-62.5 220q0 144 63 223.5t193 79.5q92 0 153 -44q38 14 38 74q0 27 -5 60h97q5 -25 5 -62q0 -102 -84 -125q48 -75 48 -199q0 -142 -63.5 -223t-193.5 -81zM300 109q66 0 88.5 46t22.5 135
q0 90 -22.5 135.5t-88.5 45.5t-88.5 -45.5t-22.5 -135.5q0 -89 22.5 -135t88.5 -46z" />
    <glyph glyph-name="uni1EDD" unicode="&#x1edd;" 
d="M295 505l-143 204h144l78 -204h-79zM297 -10q-47 0 -87.5 11.5t-76.5 37t-56.5 72.5t-20.5 111q0 66 21.5 113.5t58.5 73t78.5 37t88.5 11.5q105 0 168 -51q22 18 22 66q0 27 -5 60h97q5 -25 5 -62q0 -95 -73 -121q27 -51 27 -123q0 -53 -14.5 -94.5t-38.5 -67.5t-57 -43
t-66.5 -24t-70.5 -7zM300 100q105 0 105 124t-105 124t-105 -124t105 -124z" />
    <glyph glyph-name="uni1EDE" unicode="&#x1ede;" 
d="M290 609l-31 43q71 47 71 86t-40 39q-44 0 -44 -43h-77q0 56 33.5 84t91.5 28q55 0 87.5 -23.5t32.5 -68.5q0 -43 -29.5 -75t-94.5 -70zM297 -10q-126 0 -188.5 77t-62.5 220q0 144 63 223.5t193 79.5q92 0 153 -44q38 14 38 74q0 27 -5 60h97q5 -25 5 -62
q0 -102 -84 -125q48 -75 48 -199q0 -142 -63.5 -223t-193.5 -81zM300 109q66 0 88.5 46t22.5 135q0 90 -22.5 135.5t-88.5 45.5t-88.5 -45.5t-22.5 -135.5q0 -89 22.5 -135t88.5 -46z" />
    <glyph glyph-name="uni1EDF" unicode="&#x1edf;" 
d="M290 498l-31 43q71 47 71 86t-40 39q-44 0 -44 -43h-77q0 56 33.5 84t91.5 28q55 0 87.5 -23.5t32.5 -68.5q0 -43 -29.5 -75t-94.5 -70zM297 -10q-47 0 -87.5 11.5t-76.5 37t-56.5 72.5t-20.5 111q0 66 21.5 113.5t58.5 73t78.5 37t88.5 11.5q105 0 168 -51q22 18 22 66
q0 27 -5 60h97q5 -25 5 -62q0 -95 -73 -121q27 -51 27 -123q0 -53 -14.5 -94.5t-38.5 -67.5t-57 -43t-66.5 -24t-70.5 -7zM300 100q105 0 105 124t-105 124t-105 -124t105 -124z" />
    <glyph glyph-name="uni1EE0" unicode="&#x1ee0;" 
d="M174 630l-57 22q13 50 44 94.5t76 44.5q32 0 73 -33q37 -29 54 -29q14 0 27.5 12.5t19 21.5t15.5 28l57 -22q-13 -51 -44.5 -95t-76.5 -44q-31 0 -69 30q-40 32 -57 32q-14 0 -27.5 -12.5t-19 -21.5t-15.5 -28zM297 -10q-126 0 -188.5 77t-62.5 220q0 144 63 223.5
t193 79.5q92 0 153 -44q38 14 38 74q0 27 -5 60h97q5 -25 5 -62q0 -102 -84 -125q48 -75 48 -199q0 -142 -63.5 -223t-193.5 -81zM300 109q66 0 88.5 46t22.5 135q0 90 -22.5 135.5t-88.5 45.5t-88.5 -45.5t-22.5 -135.5q0 -89 22.5 -135t88.5 -46z" />
    <glyph glyph-name="uni1EE1" unicode="&#x1ee1;" 
d="M174 519l-57 22q13 50 44 94.5t76 44.5q32 0 73 -33q37 -29 54 -29q14 0 27.5 12.5t19 21.5t15.5 28l57 -22q-13 -51 -44.5 -95t-76.5 -44q-31 0 -69 30q-40 32 -57 32q-14 0 -27.5 -12.5t-19 -21.5t-15.5 -28zM297 -10q-47 0 -87.5 11.5t-76.5 37t-56.5 72.5t-20.5 111
q0 66 21.5 113.5t58.5 73t78.5 37t88.5 11.5q105 0 168 -51q22 18 22 66q0 27 -5 60h97q5 -25 5 -62q0 -95 -73 -121q27 -51 27 -123q0 -53 -14.5 -94.5t-38.5 -67.5t-57 -43t-66.5 -24t-70.5 -7zM300 100q105 0 105 124t-105 124t-105 -124t105 -124z" />
    <glyph glyph-name="uni1EE2" unicode="&#x1ee2;" 
d="M235 -191v131h131v-131h-131zM297 -10q-126 0 -188.5 77t-62.5 220q0 144 63 223.5t193 79.5q92 0 153 -44q38 14 38 74q0 27 -5 60h97q5 -25 5 -62q0 -102 -84 -125q48 -75 48 -199q0 -142 -63.5 -223t-193.5 -81zM300 109q66 0 88.5 46t22.5 135q0 90 -22.5 135.5
t-88.5 45.5t-88.5 -45.5t-22.5 -135.5q0 -89 22.5 -135t88.5 -46z" />
    <glyph glyph-name="uni1EE3" unicode="&#x1ee3;" 
d="M235 -191v131h131v-131h-131zM297 -10q-47 0 -87.5 11.5t-76.5 37t-56.5 72.5t-20.5 111q0 66 21.5 113.5t58.5 73t78.5 37t88.5 11.5q105 0 168 -51q22 18 22 66q0 27 -5 60h97q5 -25 5 -62q0 -95 -73 -121q27 -51 27 -123q0 -53 -14.5 -94.5t-38.5 -67.5t-57 -43
t-66.5 -24t-70.5 -7zM300 100q105 0 105 124t-105 124t-105 -124t105 -124z" />
    <glyph glyph-name="uni1EE4" unicode="&#x1ee4;" 
d="M235 -191v131h131v-131h-131zM299 -10q-222 0 -222 228v361h140v-361q0 -60 20 -84.5t63 -24.5t63 24.5t20 84.5v361h140v-361q0 -228 -224 -228z" />
    <glyph glyph-name="uni1EE5" unicode="&#x1ee5;" 
d="M234 -191v131h131v-131h-131zM247 -10q-68 0 -112.5 42t-44.5 138v277h134v-253q0 -49 15.5 -70.5t54.5 -21.5q50 0 82 32v313h134v-447h-119v60q-47 -70 -144 -70z" />
    <glyph glyph-name="uni1EE6" unicode="&#x1ee6;" 
d="M290 609l-31 43q71 47 71 86t-40 39q-44 0 -44 -43h-77q0 56 33.5 84t91.5 28q55 0 87.5 -23.5t32.5 -68.5q0 -43 -29.5 -75t-94.5 -70zM299 -10q-222 0 -222 228v361h140v-361q0 -60 20 -84.5t63 -24.5t63 24.5t20 84.5v361h140v-361q0 -228 -224 -228z" />
    <glyph glyph-name="uni1EE7" unicode="&#x1ee7;" 
d="M289 498l-31 43q71 47 71 86t-40 39q-44 0 -44 -43h-77q0 56 33.5 84t91.5 28q55 0 87.5 -23.5t32.5 -68.5q0 -43 -29.5 -75t-94.5 -70zM247 -10q-68 0 -112.5 42t-44.5 138v277h134v-253q0 -49 15.5 -70.5t54.5 -21.5q50 0 82 32v313h134v-447h-119v60q-47 -70 -144 -70
z" />
    <glyph glyph-name="uni1EE8" unicode="&#x1ee8;" 
d="M226 616l78 204h144l-143 -204h-79zM299 -10q-222 0 -222 228v361h140v-361q0 -60 20 -84.5t63 -24.5t63 24.5t20 84.5v361h51q38 0 53.5 19t15.5 59q0 27 -5 60h97q5 -25 5 -62q0 -98 -77 -123v-314q0 -228 -224 -228z" />
    <glyph glyph-name="uni1EE9" unicode="&#x1ee9;" 
d="M226 505l78 204h144l-143 -204h-79zM376 447h55q38 0 53.5 19t15.5 59q0 27 -5 60h97q5 -25 5 -62q0 -104 -87 -126v-397h-119v60q-47 -70 -144 -70q-68 0 -112.5 42t-44.5 138v277h134v-253q0 -49 15.5 -70.5t54.5 -21.5q50 0 82 32v313z" />
    <glyph glyph-name="uni1EEA" unicode="&#x1eea;" 
d="M295 616l-143 204h144l78 -204h-79zM299 -10q-222 0 -222 228v361h140v-361q0 -60 20 -84.5t63 -24.5t63 24.5t20 84.5v361h51q38 0 53.5 19t15.5 59q0 27 -5 60h97q5 -25 5 -62q0 -98 -77 -123v-314q0 -228 -224 -228z" />
    <glyph glyph-name="uni1EEB" unicode="&#x1eeb;" 
d="M295 505l-143 204h144l78 -204h-79zM376 447h55q38 0 53.5 19t15.5 59q0 27 -5 60h97q5 -25 5 -62q0 -104 -87 -126v-397h-119v60q-47 -70 -144 -70q-68 0 -112.5 42t-44.5 138v277h134v-253q0 -49 15.5 -70.5t54.5 -21.5q50 0 82 32v313z" />
    <glyph glyph-name="uni1EEC" unicode="&#x1eec;" 
d="M290 609l-31 43q71 47 71 86t-40 39q-44 0 -44 -43h-77q0 56 33.5 84t91.5 28q55 0 87.5 -23.5t32.5 -68.5q0 -43 -29.5 -75t-94.5 -70zM299 -10q-222 0 -222 228v361h140v-361q0 -60 20 -84.5t63 -24.5t63 24.5t20 84.5v361h51q38 0 53.5 19t15.5 59q0 27 -5 60h97
q5 -25 5 -62q0 -98 -77 -123v-314q0 -228 -224 -228z" />
    <glyph glyph-name="uni1EED" unicode="&#x1eed;" 
d="M290 498l-31 43q71 47 71 86t-40 39q-44 0 -44 -43h-77q0 56 33.5 84t91.5 28q55 0 87.5 -23.5t32.5 -68.5q0 -43 -29.5 -75t-94.5 -70zM376 447h55q38 0 53.5 19t15.5 59q0 27 -5 60h97q5 -25 5 -62q0 -104 -87 -126v-397h-119v60q-47 -70 -144 -70q-68 0 -112.5 42
t-44.5 138v277h134v-253q0 -49 15.5 -70.5t54.5 -21.5q50 0 82 32v313z" />
    <glyph glyph-name="uni1EEE" unicode="&#x1eee;" 
d="M174 630l-57 22q13 50 44 94.5t76 44.5q32 0 73 -33q37 -29 54 -29q14 0 27.5 12.5t19 21.5t15.5 28l57 -22q-13 -51 -44.5 -95t-76.5 -44q-31 0 -69 30q-40 32 -57 32q-14 0 -27.5 -12.5t-19 -21.5t-15.5 -28zM299 -10q-222 0 -222 228v361h140v-361q0 -60 20 -84.5
t63 -24.5t63 24.5t20 84.5v361h51q38 0 53.5 19t15.5 59q0 27 -5 60h97q5 -25 5 -62q0 -98 -77 -123v-314q0 -228 -224 -228z" />
    <glyph glyph-name="uni1EEF" unicode="&#x1eef;" 
d="M174 519l-57 22q13 50 44 94.5t76 44.5q32 0 73 -33q37 -29 54 -29q14 0 27.5 12.5t19 21.5t15.5 28l57 -22q-13 -51 -44.5 -95t-76.5 -44q-31 0 -69 30q-40 32 -57 32q-14 0 -27.5 -12.5t-19 -21.5t-15.5 -28zM376 447h55q38 0 53.5 19t15.5 59q0 27 -5 60h97
q5 -25 5 -62q0 -104 -87 -126v-397h-119v60q-47 -70 -144 -70q-68 0 -112.5 42t-44.5 138v277h134v-253q0 -49 15.5 -70.5t54.5 -21.5q50 0 82 32v313z" />
    <glyph glyph-name="uni1EF0" unicode="&#x1ef0;" 
d="M235 -191v131h131v-131h-131zM299 -10q-222 0 -222 228v361h140v-361q0 -60 20 -84.5t63 -24.5t63 24.5t20 84.5v361h51q38 0 53.5 19t15.5 59q0 27 -5 60h97q5 -25 5 -62q0 -98 -77 -123v-314q0 -228 -224 -228z" />
    <glyph glyph-name="uni1EF1" unicode="&#x1ef1;" 
d="M235 -191v131h131v-131h-131zM376 447h55q38 0 53.5 19t15.5 59q0 27 -5 60h97q5 -25 5 -62q0 -104 -87 -126v-397h-119v60q-47 -70 -144 -70q-68 0 -112.5 42t-44.5 138v277h134v-253q0 -49 15.5 -70.5t54.5 -21.5q50 0 82 32v313z" />
    <glyph glyph-name="Ygrave" unicode="&#x1ef2;" 
d="M294 616l-143 204h144l78 -204h-79zM230 0v226l-214 353h166l65 -117l54 -124l61 124l66 117h155l-214 -352v-227h-139z" />
    <glyph glyph-name="ygrave" unicode="&#x1ef3;" 
d="M294 505l-143 204h144l78 -204h-79zM55 -190v109q73 0 112.5 22t61.5 70l-200 436h153l76 -185l45 -131l45 131l76 185h147l-185 -410q-40 -88 -78 -134t-98 -69.5t-155 -23.5z" />
    <glyph glyph-name="uni1EF4" unicode="&#x1ef4;" 
d="M235 -191v131h131v-131h-131zM230 0v226l-214 353h166l65 -117l54 -124l61 124l66 117h155l-214 -352v-227h-139z" />
    <glyph glyph-name="uni1EF5" unicode="&#x1ef5;" 
d="M367 -207v131h131v-131h-131zM55 -190v109q73 0 112.5 22t61.5 70l-200 436h153l76 -185l45 -131l45 131l76 185h147l-185 -410q-40 -88 -78 -134t-98 -69.5t-155 -23.5z" />
    <glyph glyph-name="uni1EF6" unicode="&#x1ef6;" 
d="M289 609l-31 43q71 47 71 86t-40 39q-44 0 -44 -43h-77q0 56 33.5 84t91.5 28q55 0 87.5 -23.5t32.5 -68.5q0 -43 -29.5 -75t-94.5 -70zM230 0v226l-214 353h166l65 -117l54 -124l61 124l66 117h155l-214 -352v-227h-139z" />
    <glyph glyph-name="uni1EF7" unicode="&#x1ef7;" 
d="M289 498l-31 43q71 47 71 86t-40 39q-44 0 -44 -43h-77q0 56 33.5 84t91.5 28q55 0 87.5 -23.5t32.5 -68.5q0 -43 -29.5 -75t-94.5 -70zM55 -190v109q73 0 112.5 22t61.5 70l-200 436h153l76 -185l45 -131l45 131l76 185h147l-185 -410q-40 -88 -78 -134t-98 -69.5
t-155 -23.5z" />
    <glyph glyph-name="uni1EF8" unicode="&#x1ef8;" 
d="M153 629l-58 27q45 137 132 137q34 0 85 -32q42 -27 63 -27q39 0 70 59l58 -27q-45 -137 -132 -137q-35 0 -76 26q-52 33 -72 33q-39 0 -70 -59zM230 0v226l-214 353h166l65 -117l54 -124l61 124l66 117h155l-214 -352v-227h-139z" />
    <glyph glyph-name="uni1EF9" unicode="&#x1ef9;" 
d="M153 518l-58 27q45 137 132 137q34 0 85 -32q42 -27 63 -27q39 0 70 59l58 -27q-45 -137 -132 -137q-35 0 -76 26q-52 33 -72 33q-39 0 -70 -59zM55 -190v109q73 0 112.5 22t61.5 70l-200 436h153l76 -185l45 -131l45 131l76 185h147l-185 -410q-40 -88 -78 -134
t-98 -69.5t-155 -23.5z" />
    <glyph glyph-name="endash" unicode="&#x2013;" 
d="M100 168v116h400v-116h-400z" />
    <glyph glyph-name="emdash" unicode="&#x2014;" 
d="M0 168v116h600v-116h-600z" />
    <glyph glyph-name="quoteleft" unicode="&#x2018;" 
d="M142 298l168 299q7 13 11.5 19.5t16 13.5t25.5 7q36 0 36 -34q0 -10 -3 -22l-62 -283h-192z" />
    <glyph glyph-name="quoteright" unicode="&#x2019;" 
d="M237 284q-36 0 -36 34q0 10 3 22l62 283h192l-168 -299q-7 -13 -11.5 -19.5t-16 -13.5t-25.5 -7z" />
    <glyph glyph-name="quotesinglbase" unicode="&#x201a;" 
d="M200 -159q-36 0 -36 34q0 10 3 22l62 283h192l-168 -299q-7 -13 -11.5 -19.5t-16 -13.5t-25.5 -7z" />
    <glyph glyph-name="quotedblleft" unicode="&#x201c;" 
d="M32 298l168 299q7 13 11.5 19.5t16 13.5t25.5 7q36 0 36 -34q0 -10 -3 -22l-62 -283h-192zM276 298l168 299q7 13 11.5 19.5t16 13.5t25.5 7q36 0 36 -34q0 -10 -3 -22l-62 -283h-192z" />
    <glyph glyph-name="quotedblright" unicode="&#x201d;" 
d="M103 284q-36 0 -36 34q0 10 3 22l62 283h192l-168 -299q-7 -13 -11.5 -19.5t-16 -13.5t-25.5 -7zM347 284q-36 0 -36 34q0 10 3 22l62 283h192l-168 -299q-7 -13 -11.5 -19.5t-16 -13.5t-25.5 -7z" />
    <glyph glyph-name="quotedblbase" unicode="&#x201e;" 
d="M336 -159q-36 0 -36 34q0 10 3 22l62 283h192l-168 -299q-7 -13 -11.5 -19.5t-16 -13.5t-25.5 -7zM91 -159q-36 0 -36 34q0 10 3 22l62 283h192l-168 -299q-7 -13 -11.5 -19.5t-16 -13.5t-25.5 -7z" />
    <glyph glyph-name="dagger" unicode="&#x2020;" 
d="M248 174v265h-136v90h136v127h104v-127h136v-90h-136v-265h-104z" />
    </font>
</defs>
</svg>
