<?xml version="1.0" standalone="no"?>
<!DOCTYPE svg PUBLIC "-//W3C//DTD SVG 1.1//EN" "http://www.w3.org/Graphics/SVG/1.1/DTD/svg11.dtd" >
<svg xmlns="http://www.w3.org/2000/svg" xmlns:xlink="http://www.w3.org/1999/xlink" version="1.1">
<metadata>
Created by FontForge 20170924 at Wed Oct 26 11:35:43 2016
 By patjennings,,,
copyright missing
</metadata>
<defs>
<font id="TiemposText-BoldItalic" horiz-adv-x="600" >
  <font-face 
    font-family="TiemposText-BoldItalic"
    font-weight="400"
    font-style="italic"
    font-stretch="normal"
    units-per-em="1000"
    panose-1="0 0 5 0 0 0 0 0 0 0"
    ascent="800"
    descent="-200"
    x-height="559"
    cap-height="702"
    bbox="-358 -250 1331 1061"
    underline-thickness="30"
    underline-position="-155"
    slope="-12"
    unicode-range="U+000D-FB04"
  />
<missing-glyph horiz-adv-x="960" 
 />
    <glyph glyph-name="ff" unicode="ff" horiz-adv-x="717" 
d="M364 13l88 469h-140l-50 -235q-53 -248 -134 -350q-83 -104 -182 -104q-57 0 -92 22t-35 59q0 34 22.5 54.5t56.5 24.5h28q2 -51 11 -82q10 -34 32 -34q24 0 36 38q14 49 28 127l90 480h-75l12 53l82 20q33 99 101 151t165 52q88 0 148 -50q67 62 174 62q65 0 106 -21.5
t41 -67.5q0 -53 -54 -70h-62q15 109 -35 109q-30 0 -51 -42q-22 -43 -26 -131h124l-13 -65h-119l-48 -224q-53 -247 -134 -356q-73 -98 -182 -98q-46 0 -72 21t-26 56q0 32 20 53t53 25h22q2 -55 4 -79q3 -32 22 -32q24 0 36 38q14 49 28 127zM417 708q-37 0 -64 -36
q-28 -36 -33 -125h147q13 39 27 73q-19 88 -77 88z" />
    <glyph glyph-name="fi" unicode="fi" horiz-adv-x="707" 
d="M123 482h-75l12 53l82 20q72 215 292 215q70 0 117.5 -22t47.5 -67q0 -49 -54 -66h-92q15 105 -40 105q-34 0 -61 -42q-28 -43 -32 -131h239l68 12h38l-103 -409q-8 -30 -8 -41q0 -15 14 -15t34 20q21 21 46 53l31 -27q-51 -75 -99 -112.5t-102 -37.5q-46 0 -75 27
t-29 67q0 32 13 86l76 312h-151l-50 -235q-53 -247 -134 -356q-73 -98 -182 -98q-57 0 -92 22t-35 59q0 34 22.5 54.5t56.5 24.5h28q2 -51 11 -82q10 -34 32 -34q24 0 36 38q14 49 28 127z" />
    <glyph glyph-name="fl" unicode="fl" horiz-adv-x="706" 
d="M123 482h-75l12 53l82 20q33 103 103 159t170 56q73 0 122 -37l141 28h35l-150 -611q-7 -27 -7 -41q0 -15 14 -15q13 0 33 20q21 21 46 53l31 -27q-51 -75 -99 -112.5t-102 -37.5q-46 0 -75 27t-29 67q0 32 13 86l108 454q-17 96 -79 96q-37 0 -64 -42q-28 -42 -33 -131
h90l-13 -65h-85l-50 -235q-53 -247 -134 -356q-73 -98 -182 -98q-57 0 -92 22t-35 59q0 34 22.5 54.5t56.5 24.5h28q2 -51 11 -82q10 -34 32 -34q24 0 36 38q14 49 28 127z" />
    <glyph glyph-name="ffi" unicode="ffi" horiz-adv-x="1036" 
d="M364 13l88 469h-140l-50 -235q-53 -248 -134 -350q-83 -104 -182 -104q-57 0 -92 22t-35 59q0 34 22.5 54.5t56.5 24.5h28q2 -51 11 -82q10 -34 32 -34q24 0 36 38q14 49 28 127l90 480h-75l12 53l82 20q33 99 101 151t165 52q43 0 85.5 -15t69.5 -41q76 68 200 68
q70 0 117.5 -22t47.5 -67q0 -49 -54 -66h-92q15 105 -40 105q-34 0 -61 -42q-28 -43 -32 -131h239l68 12h38l-103 -409q-8 -30 -8 -41q0 -15 14 -15t34 20q21 21 46 53l31 -27q-51 -75 -99 -112.5t-102 -37.5q-46 0 -75 27t-29 67q0 32 13 86l76 312h-151l-48 -224
q-53 -247 -134 -356q-73 -98 -182 -98q-46 0 -72 21t-26 56q0 32 20 53t53 25h22q2 -55 4 -79q3 -32 22 -32q24 0 36 38q14 49 28 127zM417 708q-37 0 -63 -36q-26 -35 -34 -125h148q6 20 27 67q-17 94 -78 94z" />
    <glyph glyph-name="ffl" unicode="ffl" horiz-adv-x="1035" 
d="M739 547l-13 -65h-85l-48 -224q-53 -247 -134 -356q-73 -98 -182 -98q-46 0 -72 21t-26 56q0 32 20 53t53 25h22q2 -55 4 -79q3 -32 22 -32q24 0 36 38q14 49 28 127l88 469h-140l-50 -235q-53 -248 -134 -350q-83 -104 -182 -104q-57 0 -92 22t-35 59q0 34 22.5 54.5
t56.5 24.5h28q2 -51 11 -82q10 -34 32 -34q24 0 36 38q14 49 28 127l90 480h-75l12 53l82 20q33 99 101 151t165 52q92 0 154 -55q73 67 182 67q73 0 122 -37l141 28h35l-150 -611q-7 -27 -7 -41q0 -15 14 -15q13 0 33 20q21 21 46 53l31 -27q-51 -75 -99 -112.5t-102 -37.5
q-46 0 -75 27t-29 67q0 32 13 86l108 454q-17 96 -79 96q-37 0 -64 -42q-28 -42 -33 -131h90zM320 547h148q4 14 13 35q2 6 7 17t7 16q-17 93 -78 93q-37 0 -64 -36q-28 -36 -33 -125z" />
    <glyph glyph-name="f_b" unicode="fb" horiz-adv-x="1000" 
d="M123 482h-75l12 53l82 20q33 103 103 159t170 56q73 0 122 -37l141 28h35l-75 -303l-57 -157h7q48 103 102 169q75 89 151 89q67 0 100 -46t33 -130q0 -70 -26 -140t-73 -126q-108 -127 -275 -127q-83 0 -143 39.5t-78 111.5l117 483q-17 96 -79 96q-37 0 -64 -42
q-28 -42 -33 -131h90l-13 -65h-85l-50 -235q-53 -247 -134 -356q-73 -98 -182 -98q-57 0 -92 22t-35 59q0 34 22.5 54.5t56.5 24.5h28q2 -51 11 -82q10 -34 32 -34q24 0 36 38q14 49 28 127zM749 438q-49 0 -112 -104q-62 -103 -91 -230q2 -26 18.5 -42t40.5 -16
q75 0 134 111q54 100 54 208q0 73 -44 73z" />
    <glyph glyph-name="f_f_b" unicode="ffb" horiz-adv-x="1329" 
d="M739 547l-13 -65h-85l-48 -224q-53 -247 -134 -356q-73 -98 -182 -98q-46 0 -72 21t-26 56q0 32 20 53t53 25h22q2 -55 4 -79q3 -32 22 -32q24 0 36 38q14 49 28 127l88 469h-140l-50 -235q-53 -248 -134 -350q-83 -104 -182 -104q-57 0 -92 22t-35 59q0 34 22.5 54.5
t56.5 24.5h28q2 -51 11 -82q10 -34 32 -34q24 0 36 38q14 49 28 127l90 480h-75l12 53l82 20q33 99 101 151t165 52q92 0 154 -55q73 67 182 67q73 0 122 -37l141 28h35l-75 -303l-57 -157h7q48 103 102 169q75 89 151 89q67 0 100 -46t33 -130q0 -70 -26 -140t-73 -126
q-108 -127 -275 -127q-83 0 -143 39.5t-78 111.5l117 483q-17 96 -79 96q-37 0 -64 -42q-28 -42 -33 -131h90zM320 547h148q4 14 13 35q2 6 7 17t7 16q-17 93 -78 93q-37 0 -64 -36q-28 -36 -33 -125zM1078 438q-49 0 -112 -104q-62 -103 -91 -230q2 -26 18.5 -42t40.5 -16
q75 0 134 111q54 100 54 208q0 73 -44 73z" />
    <glyph glyph-name="f_f_h" unicode="ffh" horiz-adv-x="1353" 
d="M739 547l-13 -65h-85l-48 -224q-53 -247 -134 -356q-73 -98 -182 -98q-46 0 -72 21t-26 56q0 32 20 53t53 25h22q2 -55 4 -79q3 -32 22 -32q24 0 36 38q14 49 28 127l88 469h-140l-50 -235q-53 -248 -134 -350q-83 -104 -182 -104q-57 0 -92 22t-35 59q0 34 22.5 54.5
t56.5 24.5h28q2 -51 11 -82q10 -34 32 -34q24 0 36 38q14 49 28 127l90 480h-75l12 53l82 20q33 99 101 151t165 52q92 0 154 -55q73 67 182 67q73 0 122 -37l141 28h35l-74 -302l-52 -160h7q152 260 287 260q41 0 63.5 -24t22.5 -64q0 -18 -6 -44l-75 -277q-9 -34 -9 -41
q0 -15 14 -15q13 0 33 20q19 18 47 53l31 -27q-53 -75 -101 -112.5t-100 -37.5q-47 0 -76.5 27t-29.5 67q0 35 14 86l64 220q5 22 5 33q0 18 -17 18q-14 0 -40 -24q-60 -55 -113 -164q-26 -50 -44 -118l-35 -135h-182l149 624q-17 96 -79 96q-37 0 -64 -42q-28 -42 -33 -131
h90zM320 547h148q4 14 13 35q2 6 7 17t7 16q-17 93 -78 93q-37 0 -64 -36q-28 -36 -33 -125z" />
    <glyph glyph-name="f_f_idieresis" unicode="ff&#xef;" horiz-adv-x="1036" 
d="M33 2l90 480h-75l12 53l82 20q33 99 101 151t165 52q85 0 144 -46q69 66 184 66q69 0 118.5 -23t49.5 -70q0 -59 -54 -76h-102q6 43 6 81t-28 38q-30 0 -51 -46q-22 -48 -26 -135h239l68 12h38l-103 -409q-8 -30 -8 -41q0 -15 14 -15t34 20q21 21 46 53l31 -27
q-51 -75 -99 -112.5t-102 -37.5q-46 0 -75 27t-29 67q0 32 13 86l76 312h-151l-48 -224q-53 -247 -134 -356q-73 -98 -182 -98q-46 0 -72 21t-26 56q0 32 20 53t53 25h22q2 -55 4 -79q3 -32 22 -32q24 0 36 38q14 49 28 127l88 469h-140l-50 -235q-53 -248 -134 -350
q-83 -104 -182 -104q-57 0 -92 22t-35 59q0 34 22.5 54.5t56.5 24.5h28q2 -51 11 -82q10 -34 32 -34q24 0 36 38q14 49 28 127zM1124 696q0 -38 -25.5 -66t-66.5 -28q-38 0 -62 24.5t-24 58.5q0 38 25.5 65.5t66.5 27.5q39 0 62.5 -24t23.5 -58zM320 547h147q6 23 26 77
q-19 84 -76 84q-37 0 -63 -36q-26 -35 -34 -125z" />
    <glyph glyph-name="f_f_j" unicode="ffj" horiz-adv-x="997" 
d="M364 13l88 469h-140l-50 -235q-53 -248 -134 -350q-83 -104 -182 -104q-57 0 -92 22t-35 59q0 34 22.5 54.5t56.5 24.5h28q2 -51 11 -82q10 -34 32 -34q24 0 36 38q14 49 28 127l90 480h-75l12 53l82 20q33 99 101 151t165 52q43 0 85.5 -15t69.5 -41q76 68 200 68
q70 0 117.5 -22t47.5 -67q0 -49 -54 -66h-92q15 105 -40 105q-34 0 -61 -42q-28 -43 -32 -131h239l68 12h38l-113 -449q-77 -306 -281 -306q-46 0 -72 21t-26 56q0 32 20 53t53 25h22q2 -55 4 -79q3 -32 22 -32q24 0 33 38q13 54 29 128l107 468h-151l-48 -224
q-53 -247 -134 -356q-73 -98 -182 -98q-46 0 -72 21t-26 56q0 32 20 53t53 25h22q2 -55 4 -79q3 -32 22 -32q24 0 36 38q14 49 28 127zM417 708q-37 0 -63 -36q-26 -35 -34 -125h148q6 20 27 67q-17 94 -78 94z" />
    <glyph glyph-name="f_f_k" unicode="ffk" horiz-adv-x="1317" 
d="M739 547l-13 -65h-85l-48 -224q-53 -247 -134 -356q-73 -98 -182 -98q-46 0 -72 21t-26 56q0 32 20 53t53 25h22q2 -55 4 -79q3 -32 22 -32q24 0 36 38q14 49 28 127l88 469h-140l-50 -235q-53 -248 -134 -350q-83 -104 -182 -104q-57 0 -92 22t-35 59q0 34 22.5 54.5
t56.5 24.5h28q2 -51 11 -82q10 -34 32 -34q24 0 36 38q14 49 28 127l90 480h-75l12 53l82 20q33 99 101 151t165 52q92 0 154 -55q73 67 182 67q73 0 122 -37l141 28h35l-185 -761h-182l150 624q-17 96 -79 96q-37 0 -64 -42q-28 -42 -33 -131h90zM320 547h148q4 14 13 35
q2 6 7 17t7 16q-17 93 -78 93q-37 0 -64 -36q-28 -36 -33 -125zM1098 387l-11 -14l70 -186q22 -66 47 -66q14 0 28 9q13 8 36 38l28 -27q-51 -82 -92 -116.5t-90 -34.5q-40 0 -65.5 25t-44.5 77l-65 179l153 186q49 58 78.5 80t61.5 22q38 0 58.5 -23t20.5 -55
q0 -68 -74 -93h-22q0 58 -37 58q-34 0 -80 -59z" />
    <glyph glyph-name="f_h" unicode="fh" horiz-adv-x="1024" 
d="M123 482h-75l12 53l82 20q33 103 103 159t170 56q73 0 122 -37l141 28h35l-74 -302l-52 -160h7q152 260 287 260q41 0 63.5 -24t22.5 -64q0 -18 -6 -44l-75 -277q-9 -34 -9 -41q0 -15 14 -15q13 0 33 20q19 18 47 53l31 -27q-53 -75 -101 -112.5t-100 -37.5
q-47 0 -76.5 27t-29.5 67q0 35 14 86l64 220q5 22 5 33q0 18 -17 18q-15 0 -40 -24q-60 -55 -113 -164q-26 -50 -44 -118l-35 -135h-182l149 624q-17 96 -79 96q-37 0 -64 -42q-28 -42 -33 -131h90l-13 -65h-85l-50 -235q-53 -247 -134 -356q-73 -98 -182 -98q-57 0 -92 22
t-35 59q0 34 22.5 54.5t56.5 24.5h28q2 -51 11 -82q10 -34 32 -34q24 0 36 38q14 49 28 127z" />
    <glyph glyph-name="f_idieresis" unicode="f&#xef;" horiz-adv-x="707" 
d="M123 482h-75l12 53l80 20q30 109 92.5 166t174.5 57q69 0 118.5 -23t49.5 -70q0 -59 -54 -76h-102q6 43 6 81t-28 38q-30 0 -51 -46q-22 -48 -26 -135h239l68 12h38l-103 -409q-8 -30 -8 -41q0 -15 14 -15t34 20q21 21 46 53l31 -27q-51 -75 -99 -112.5t-102 -37.5
q-46 0 -75 27t-29 67q0 32 13 86l76 312h-151l-50 -235q-53 -247 -134 -356q-73 -98 -182 -98q-57 0 -92 22t-35 59q0 34 22.5 54.5t56.5 24.5h28q2 -51 11 -82q10 -34 32 -34q24 0 36 38q14 49 28 127zM703 602q-38 0 -62 24.5t-24 58.5q0 38 25.5 65.5t66.5 27.5
q39 0 62.5 -24t23.5 -58q0 -38 -25.5 -66t-66.5 -28z" />
    <glyph glyph-name="f_j" unicode="fj" horiz-adv-x="668" 
d="M33 2l90 480h-75l12 53l82 20q72 215 292 215q70 0 117.5 -22t47.5 -67q0 -49 -54 -66h-92q15 105 -40 105q-34 0 -61 -42q-28 -43 -32 -131h239l68 12h38l-113 -449q-77 -306 -281 -306q-46 0 -72 21t-26 56q0 32 20 53t53 25h22q2 -55 4 -79q3 -32 22 -32q24 0 33 38
q13 54 29 128l107 468h-151l-50 -235q-53 -247 -134 -356q-73 -98 -182 -98q-57 0 -92 22t-35 59q0 34 22.5 54.5t56.5 24.5h28q2 -51 11 -82q10 -34 32 -34q24 0 36 38q14 49 28 127z" />
    <glyph glyph-name="f_k" unicode="fk" horiz-adv-x="988" 
d="M123 482h-75l12 53l82 20q33 103 103 159t170 56q73 0 122 -37l141 28h35l-185 -761h-182l150 624q-17 96 -79 96q-37 0 -64 -42q-28 -42 -33 -131h90l-13 -65h-85l-50 -235q-53 -247 -134 -356q-73 -98 -182 -98q-57 0 -92 22t-35 59q0 34 22.5 54.5t56.5 24.5h28
q2 -51 11 -82q10 -34 32 -34q24 0 36 38q14 49 28 127zM769 387l-11 -14l70 -186q22 -66 47 -66q15 0 28 9q13 8 36 38l28 -27q-51 -82 -92 -116.5t-90 -34.5q-40 0 -65.5 25t-44.5 77l-65 179l153 186q49 58 78.5 80t61.5 22q37 0 58 -23t21 -55q0 -68 -74 -93h-22
q0 58 -37 58q-34 0 -80 -59z" />
    <glyph glyph-name=".notdef" horiz-adv-x="960" 
 />
    <glyph glyph-name=".null" horiz-adv-x="0" 
 />
    <glyph glyph-name="uni000D" unicode="&#xd;" horiz-adv-x="200" 
 />
    <glyph glyph-name="NULL" horiz-adv-x="0" 
 />
    <glyph glyph-name="NULL" horiz-adv-x="0" 
 />
    <glyph glyph-name="space" unicode=" " horiz-adv-x="200" 
 />
    <glyph glyph-name="exclam" unicode="!" horiz-adv-x="334" 
d="M169 702h206l-177 -463h-87zM33 93q0 43 29.5 73.5t70.5 30.5q42 0 71 -30.5t29 -73.5q0 -42 -29 -72t-71 -30q-41 0 -70.5 30t-29.5 72z" />
    <glyph glyph-name="quotedbl" unicode="&#x22;" horiz-adv-x="463" 
d="M254 595l-86 -148h-36l4 148q1 42 2 60t6.5 43t17.5 40q28 32 72 32q36 0 53 -19.5t17 -46.5q0 -31 -17 -57q-22 -34 -33 -52zM471 595l-86 -148h-36l4 148q1 42 2 60t6.5 43t17.5 40q28 32 72 32q36 0 53 -19.5t17 -46.5q0 -31 -17 -57q-22 -34 -33 -52z" />
    <glyph glyph-name="numbersign" unicode="#" horiz-adv-x="589" 
d="M532 280v-71h-131l-79 -219l-72 26l70 193h-122l-79 -219l-72 26l70 193h-77v71h102l52 142h-105v71h130l80 219l72 -26l-70 -193h121l80 219l72 -26l-70 -193h77v-71h-103l-51 -142h105zM397 422h-122l-51 -142h121z" />
    <glyph glyph-name="dollar" unicode="$" horiz-adv-x="588" 
d="M248 -113h-55l22 106q-66 6 -119.5 32.5t-79.5 59.5l27 156h91q5 -148 95 -180l43 205q-4 2 -7 4q-88 43 -129.5 94.5t-41.5 122.5q0 104 75.5 164.5t194.5 60.5l22 102h54l-22 -105q102 -12 170 -72l-30 -147h-79q-15 120 -76 147l-40 -193h2q0 -1 1 -1
q96 -47 140 -94.5t44 -123.5q0 -112 -86 -175q-80 -58 -195 -60zM254 558q0 -29 14 -49t46 -39l37 177q-45 0 -71 -25t-26 -64zM380 150q0 56 -59 90l-39 -186q44 1 71 26t27 70z" />
    <glyph glyph-name="percent" unicode="%" horiz-adv-x="930" 
d="M209 -19h-76l606 741h78zM235 335q-67 0 -112 37t-45 104q0 109 75 177q67 59 154 59q67 0 112 -37t45 -104q0 -110 -75 -176q-66 -60 -154 -60zM301 664q-37 0 -67 -64t-30 -149q0 -68 37 -68t67 64t30 149q0 68 -37 68zM714 368q67 0 112 -37t45 -104q0 -110 -75 -176
q-66 -60 -154 -60q-67 0 -112 37t-45 104q0 109 75 177q67 59 154 59zM648 39q37 0 67 64t30 149q0 68 -37 68t-67 -64t-30 -149q0 -68 37 -68z" />
    <glyph glyph-name="ampersand" unicode="&#x26;" horiz-adv-x="768" 
d="M23 177q0 80 56 133t154 79q-34 64 -34 125q0 86 66.5 142t176.5 56q92 0 144 -38.5t52 -102.5q0 -118 -197 -179l115 -178q28 46 28 91q0 28 -39 28l12 67h216l-12 -67q-53 0 -76 -14.5t-42 -57.5q-25 -54 -57 -95l30 -45q19 -29 38.5 -40.5t52.5 -11.5l-12 -69h-196
q-21 15 -52 46q-101 -56 -209 -56q-94 0 -154.5 49t-60.5 138zM357 578q0 -55 52 -136l4 -6q79 40 79 136q0 39 -17.5 60.5t-50.5 21.5q-31 0 -49 -21t-18 -55zM348 80q33 0 63 13q-13 17 -20 32l-133 221q-55 -37 -55 -122q0 -61 38 -102.5t107 -41.5z" />
    <glyph glyph-name="quotesingle" unicode="'" horiz-adv-x="246" 
d="M254 595l-86 -148h-36l4 148q1 42 2 60t6.5 43t17.5 40q28 32 72 32q36 0 53 -19.5t17 -46.5q0 -31 -17 -57q-22 -34 -33 -52z" />
    <glyph glyph-name="parenleft" unicode="(" horiz-adv-x="388" 
d="M66 204q0 159 90 313q82 143 222 253h103q-142 -124 -216 -308q-58 -145 -58 -281q0 -205 85 -322h-96q-62 65 -96 157t-34 188z" />
    <glyph glyph-name="parenright" unicode=")" horiz-adv-x="388" 
d="M359 425q0 -158 -89 -313q-84 -144 -223 -253h-103q144 126 217 309q57 141 57 280q0 205 -85 322h96q62 -65 96 -157t34 -188z" />
    <glyph glyph-name="asterisk" unicode="*" horiz-adv-x="500" 
d="M508 449l-84 -80l-92 146l-14 -172l-111 33l80 151l-155 -73l-27 113l171 6l-141 98l84 81l92 -147l13 172l112 -33l-81 -151l156 73l27 -113l-171 -6z" />
    <glyph glyph-name="plus" unicode="+" horiz-adv-x="603" 
d="M282 411l39 183h93l-39 -183h184l-20 -93h-183l-39 -184h-93l39 184h-184l21 93h182z" />
    <glyph glyph-name="comma" unicode="," horiz-adv-x="310" 
d="M136 15h-35q-73 15 -73 86q0 40 26 66t72 26q49 0 79 -32.5t30 -88.5q0 -84 -69 -145q-73 -66 -183 -66v61q137 8 153 93z" />
    <glyph glyph-name="hyphen" unicode="-" horiz-adv-x="360" 
d="M331 363l-25 -116h-260l25 116h260z" />
    <glyph glyph-name="period" unicode="." horiz-adv-x="310" 
d="M23 97q0 47 31 77.5t76 30.5q46 0 77 -30.5t31 -77.5t-31 -77t-77 -30q-45 0 -76 30t-31 77z" />
    <glyph glyph-name="slash" unicode="/" horiz-adv-x="442" 
d="M418 770h109l-471 -911h-108z" />
    <glyph glyph-name="zero" unicode="0" horiz-adv-x="681" 
d="M293 -10q-105 0 -174.5 75t-69.5 200q0 173 99 304q109 143 278 143q107 0 175.5 -74.5t68.5 -200.5q0 -173 -99 -303q-108 -144 -278 -144zM303 63q40 0 74.5 47.5t57.5 124.5q45 147 45 284q0 62 -14.5 91t-49.5 29q-77 0 -131 -172q-46 -146 -46 -284q0 -62 14.5 -91
t49.5 -29z" />
    <glyph glyph-name="one" unicode="1" horiz-adv-x="469" 
d="M377 711h62l-118 -551q-6 -24 -6 -44q0 -30 20 -39q18 -8 79 -10l-13 -67h-408l14 67q67 1 90 14t33 57l80 376h-123l13 62l45 7q72 12 123 41t109 87z" />
    <glyph glyph-name="two" unicode="2" horiz-adv-x="555" 
d="M164 144h133q68 0 92 14q23 12 73 81h58l-81 -239h-487l12 56q231 182 315 275q79 86 79 156q0 90 -88 90q-76 0 -150 -76l-33 46q43 72 113 118.5t158 46.5q94 0 143.5 -46.5t49.5 -127.5q0 -102 -117 -206q-70 -61 -270 -188z" />
    <glyph glyph-name="three" unicode="3" horiz-adv-x="549" 
d="M177 314l-6 49q92 33 133 60q62 41 62 95q0 30 -19.5 48t-54.5 18q-66 0 -130 -64l-35 45q45 66 112 106.5t145 40.5q80 0 124.5 -38t44.5 -102q0 -75 -72 -126q-58 -41 -141 -57q73 -4 125.5 -52t52.5 -115q0 -114 -89 -175q-83 -57 -209 -57q-99 0 -159.5 42.5
t-60.5 106.5q0 67 61 90h102q-11 -33 -11 -62q0 -48 19 -82t63 -34q49 0 76 37t27 103q0 57 -32 92.5t-80 35.5q-22 0 -48 -5z" />
    <glyph glyph-name="four" unicode="4" horiz-adv-x="656" 
d="M308 136l9 45h-317l15 63l450 458h145l-92 -444h117l-17 -77h-117l-8 -41q-1 -3 -1.5 -8.5t-0.5 -8.5q-2 -14 -2 -16q0 -22 14.5 -30.5t53.5 -9.5l-13 -67h-346l14 67q51 2 69.5 15.5t26.5 53.5zM392 537l-278 -279h219z" />
    <glyph glyph-name="five" unicode="5" horiz-adv-x="546" 
d="M220 702h354l-47 -166h-302l-25 -72q146 -5 222 -54q91 -58 91 -177q0 -112 -80 -177.5t-203 -65.5q-102 0 -163 38.5t-61 103.5q0 32 16.5 56.5t45.5 32.5h97q-9 -38 -9 -51q0 -50 29 -81.5t76 -31.5q102 0 102 113q0 71 -74.5 104t-200.5 34z" />
    <glyph glyph-name="six" unicode="6" horiz-adv-x="623" 
d="M577 712l15 -46q-259 -91 -332 -268q69 63 156 63q86 0 138 -52.5t52 -141.5q0 -117 -86.5 -197t-214.5 -80q-113 0 -186.5 69.5t-73.5 194.5q0 175 155 304q146 123 377 154zM327 381q-42 0 -82 -25q-16 -66 -16 -124q0 -78 23.5 -125.5t69.5 -47.5q48 0 80.5 57.5
t32.5 135.5q0 55 -27 92t-81 37z" />
    <glyph glyph-name="seven" unicode="7" horiz-adv-x="536" 
d="M45 0l405 534h-229q-34 0 -58.5 -19.5t-52.5 -68.5h-59l99 256h473l-10 -45l-432 -657h-136z" />
    <glyph glyph-name="eight" unicode="8" horiz-adv-x="603" 
d="M600 553q0 -65 -49 -103t-124 -48l13 -6q123 -63 123 -180q0 -101 -83 -164q-83 -62 -204 -62q-117 0 -189 48t-72 127q0 69 53.5 110t129.5 44l-9 7q-35 23 -59 65.5t-24 91.5q0 101 77 165t197 64q102 0 161 -44.5t59 -114.5zM319 465l70 -41q83 52 83 129
q0 42 -26.5 67t-75.5 25q-47 0 -78.5 -26.5t-31.5 -68.5q0 -50 59 -85zM328 247l-94 53q-83 -50 -83 -124q0 -57 35 -88t96 -31q52 0 86.5 27.5t34.5 69.5q0 32 -16.5 51t-58.5 42z" />
    <glyph glyph-name="nine" unicode="9" horiz-adv-x="623" 
d="M85 -10l-15 46q258 90 331 267q-72 -62 -155 -62q-86 0 -138 52.5t-52 141.5q0 117 86.5 197t214.5 80q113 0 186.5 -69.5t73.5 -194.5q0 -174 -154 -304q-147 -123 -378 -154zM335 321q41 0 81 25q17 57 17 124q0 78 -23.5 125.5t-69.5 47.5q-48 0 -80.5 -57.5
t-32.5 -135.5q0 -55 27 -92t81 -37z" />
    <glyph glyph-name="colon" unicode=":" horiz-adv-x="310" 
d="M87 397q0 47 31 77.5t76 30.5q46 0 77 -30.5t31 -77.5t-31 -77t-77 -30q-45 0 -76 30t-31 77zM23 97q0 47 31 77.5t76 30.5q46 0 77 -30.5t31 -77.5t-31 -77t-77 -30q-45 0 -76 30t-31 77z" />
    <glyph glyph-name="semicolon" unicode=";" horiz-adv-x="310" 
d="M87 397q0 47 31 77.5t76 30.5q46 0 77 -30.5t31 -77.5t-31 -77t-77 -30q-45 0 -76 30t-31 77zM136 15h-35q-73 15 -73 86q0 40 26 66t72 26q49 0 79 -32.5t30 -88.5q0 -84 -69 -145q-73 -66 -183 -66v61q137 8 153 93z" />
    <glyph glyph-name="less" unicode="&#x3c;" horiz-adv-x="462" 
d="M370 148l-292 209l2 10l381 210l-22 -112l-206 -107l159 -106z" />
    <glyph glyph-name="equal" unicode="=" horiz-adv-x="615" 
d="M566 406h-460l20 88h460zM532 237h-460l19 88h459z" />
    <glyph glyph-name="greater" unicode="&#x3e;" horiz-adv-x="462" 
d="M139 577l294 -210l-2 -10l-383 -209l24 112l205 106l-161 107z" />
    <glyph glyph-name="question" unicode="?" horiz-adv-x="478" 
d="M280 463q47 27 68.5 52.5t21.5 68.5q0 28 -15.5 46t-45.5 18q-39 0 -59 -29t-20 -69q0 -23 5 -45h-110q-29 27 -29 59q0 65 64 106.5t157 41.5q95 0 148.5 -45t53.5 -120q0 -111 -137 -182q-34 -18 -48.5 -26.5t-35.5 -24t-29 -30t-8 -32.5q0 -9 2 -19h-47q-51 40 -51 90
q0 39 27 71.5t88 68.5zM107 93q0 43 29 73.5t71 30.5t71 -30.5t29 -73.5q0 -42 -29 -72t-71 -30t-71 30t-29 72z" />
    <glyph glyph-name="at" unicode="@" horiz-adv-x="918" 
d="M619 77q-70 0 -97.5 45t-15.5 110h-5q-74 -155 -163 -155q-45 0 -75 35t-30 94q0 106 73 194q77 92 184 92q60 0 87 -40l80 30h56l-35 -94l-51 -179q-9 -29 -2 -51.5t28 -22.5q72 0 110 96q29 72 29 157q0 108 -72 178q-77 75 -200 75q-168 0 -276 -124
q-104 -120 -104 -296q0 -142 95 -221q86 -71 227 -71q82 0 143 16.5t132 52.5l15 -33q-124 -102 -309 -102q-168 0 -274 92q-113 98 -113 258q0 197 130 337q135 143 337 143q161 0 260 -91q90 -85 90 -212q0 -124 -63 -212q-71 -101 -191 -101zM405 172q34 0 76.5 71
t60.5 165q-13 34 -36 34q-53 0 -93 -75q-38 -68 -38 -145q0 -50 30 -50z" />
    <glyph glyph-name="A" unicode="A" horiz-adv-x="759" 
d="M462 151l-12 63h-255l-39 -63q-18 -30 -18 -49q0 -16 14 -25q13 -9 50 -10l-14 -67h-226l14 67q46 8 64 37l327 520l-18 79h190l128 -599q6 -31 51 -37l-13 -67h-334l14 67q44 2 63 12t19 33q0 17 -5 39zM437 282l-46 247l-154 -247h200z" />
    <glyph glyph-name="B" unicode="B" horiz-adv-x="715" 
d="M368 0h-383l14 67q51 2 69.5 15.5t26.5 53.5l90 428l3 16q1 6 1 15q0 22 -14.5 30.5t-53.5 9.5l13 67h357q227 0 227 -153q0 -85 -61.5 -132t-158.5 -54q85 -4 135 -42t50 -101q0 -108 -90 -166q-84 -54 -225 -54zM413 631h-25l-50 -236h34q74 0 114.5 37t40.5 110
q0 89 -114 89zM372 326h-48l-38 -183l-4 -21q-1 -5 -1 -13q0 -24 16 -33.5t50 -9.5h7q56 0 96 38.5t40 114.5q0 107 -118 107z" />
    <glyph glyph-name="C" unicode="C" horiz-adv-x="704" 
d="M367 -10q-150 0 -232 82q-78 76 -78 200q0 192 127 316t312 124q146 0 226 -77l-34 -159h-93q-4 84 -25 125t-76 41q-53 0 -97.5 -34.5t-75.5 -93.5q-63 -120 -63 -264q0 -185 121 -185q60 0 100 41.5t89 141.5h95l-43 -192q-109 -66 -253 -66z" />
    <glyph glyph-name="D" unicode="D" horiz-adv-x="791" 
d="M336 0h-351l14 67q51 2 69.5 15.5t26.5 53.5l90 428l3 16q1 6 1 15q0 22 -14.5 30.5t-53.5 9.5l13 67h308q159 0 250.5 -76t91.5 -212q0 -184 -125 -298q-126 -116 -323 -116zM427 631h-39l-100 -479q-6 -26 -6 -42q0 -22 13 -30.5t44 -8.5h11q115 0 180 129
q54 105 54 233q0 198 -157 198z" />
    <glyph glyph-name="E" unicode="E" horiz-adv-x="674" 
d="M570 0h-585l14 67q51 2 69.5 15.5t26.5 53.5l90 428l3 16q1 6 1 15q0 22 -14.5 30.5t-53.5 9.5l13 67h579l-41 -191h-71q-11 67 -32.5 94.5t-77.5 27.5h-103l-49 -236h74q33 0 52.5 17t36.5 62h64l-48 -229h-64q0 45 -11.5 62t-44.5 17h-74l-37 -177q-5 -22 -5 -35
q0 -26 16.5 -35.5t52.5 -9.5h23q52 0 92 29.5t99 107.5h79z" />
    <glyph glyph-name="F" unicode="F" horiz-adv-x="629" 
d="M376 0h-391l14 67q51 2 69.5 15.5t26.5 53.5l90 428l3 16q1 6 1 15q0 22 -14.5 30.5t-53.5 9.5l13 67h573l-41 -192h-76q-11 67 -32.5 95t-77.5 28h-91l-52 -244h64q34 0 53.5 17t35.5 61h65l-48 -228h-65q0 46 -11.5 62.5t-44.5 16.5h-64l-35 -171q-1 -3 -1.5 -8
t-0.5 -8q-2 -12 -2 -19q0 -32 24 -39q23 -8 81 -10z" />
    <glyph glyph-name="G" unicode="G" horiz-adv-x="764" 
d="M57 272q0 190 129 316q127 124 319 124q70 0 129.5 -21t94.5 -56l-34 -159h-93q-4 81 -28 123.5t-79 42.5q-53 0 -98 -34.5t-76 -93.5q-63 -120 -63 -264q0 -185 122 -185q41 0 77 17l31 125l3 16q1 5 1 14q0 20 -15.5 28t-53.5 9l15 70h332l-14 -70q-50 -1 -66.5 -13.5
t-25.5 -52.5l-33 -140q-110 -78 -264 -78q-148 0 -229 79.5t-81 202.5z" />
    <glyph glyph-name="H" unicode="H" horiz-adv-x="864" 
d="M825 566l-90 -428q-1 -3 -1.5 -8t-0.5 -8q-2 -12 -2 -15q0 -22 15 -30.5t54 -9.5l-14 -67h-350l13 67q51 2 70 15.5t27 53.5l39 190h-261l-39 -188q-1 -3 -1.5 -8t-0.5 -8q-2 -12 -2 -15q0 -22 14.5 -30.5t53.5 -9.5l-13 -67h-351l14 67q51 2 69.5 15.5t26.5 53.5l90 428
l3 16q1 6 1 15q0 22 -14.5 30.5t-53.5 9.5l13 67h350l-13 -67q-51 -2 -69.5 -15.5t-26.5 -53.5l-36 -169h261l35 167l3 16q1 6 1 15q0 22 -14.5 30.5t-53.5 9.5l14 67h350l-14 -67q-51 -2 -69.5 -15.5t-26.5 -53.5z" />
    <glyph glyph-name="I" unicode="I" horiz-adv-x="413" 
d="M375 566l-90 -428q-1 -3 -1.5 -8t-0.5 -8q-2 -12 -2 -15q0 -22 14.5 -30.5t53.5 -9.5l-13 -67h-351l14 67q51 2 69.5 15.5t26.5 53.5l90 428l3 16q1 6 1 15q0 22 -14.5 30.5t-53.5 9.5l13 67h350l-13 -67q-51 -2 -69.5 -15.5t-26.5 -53.5z" />
    <glyph glyph-name="J" unicode="J" horiz-adv-x="613" 
d="M319 192l78 372l3 16q1 6 1 15q0 22 -14.5 30.5t-53.5 9.5l13 67h351l-14 -67q-51 -2 -69.5 -15.5t-26.5 -53.5l-73 -342q-26 -121 -99.5 -177.5t-197.5 -56.5q-105 0 -161.5 40t-56.5 104q0 35 19 63t48 42h132q-24 -61 -24 -107q0 -29 13 -51.5t41 -22.5q64 0 91 134z
" />
    <glyph glyph-name="K" unicode="K" horiz-adv-x="783" 
d="M375 566l-90 -428q-1 -3 -1.5 -8t-0.5 -8q-2 -12 -2 -15q0 -22 14.5 -30.5t53.5 -9.5l-13 -67h-351l14 67q51 2 69.5 15.5t26.5 53.5l90 428l3 16q1 6 1 15q0 22 -14.5 30.5t-53.5 9.5l13 67h350l-13 -67q-51 -2 -69.5 -15.5t-26.5 -53.5zM727 590l-207 -175l125 -276
q19 -42 37.5 -57t54.5 -16l-13 -66h-209q-35 25 -74 120l-97 237l244 202q37 30 37 45q0 12 -11 21q-11 8 -43 10l14 67h263l-13 -67q-35 -1 -55 -9t-53 -36z" />
    <glyph glyph-name="L" unicode="L" horiz-adv-x="664" 
d="M375 566l-88 -418q-5 -22 -5 -36q0 -23 15 -32t49 -9h27q47 0 83 32q32 29 114 135h84l-88 -238h-581l14 67q51 2 69.5 15.5t26.5 53.5l90 428l3 16q1 6 1 15q0 22 -14.5 30.5t-53.5 9.5l13 67h350l-13 -67q-51 -2 -69.5 -15.5t-26.5 -53.5z" />
    <glyph glyph-name="M" unicode="M" horiz-adv-x="1002" 
d="M694 156l19 332l-278 -488h-70l-73 492l-115 -324q-13 -37 -13 -59q0 -23 20 -31q21 -10 64 -11l-13 -67h-270l15 67q42 2 62 15t33 46l159 434q8 40 -6 55.5t-62 17.5l14 67h269q0 -35 4 -68l49 -376l216 380q23 45 30 64h273l-14 -67q-50 -2 -70.5 -17.5t-29.5 -55.5
l-24 -434q-2 -36 12.5 -47.5t58.5 -13.5l-13 -67h-372l14 67q55 3 81.5 20.5t29.5 68.5z" />
    <glyph glyph-name="N" unicode="N" horiz-adv-x="785" 
d="M386 702l219 -409l56 271l3 16q1 6 1 15q0 22 -14.5 30.5t-53.5 9.5l13 67h249l-13 -67q-51 -2 -69.5 -15.5t-27.5 -53.5l-118 -566h-79l-292 507l-77 -369q-1 -3 -1.5 -8t-0.5 -8q-2 -12 -2 -15q0 -22 14.5 -30.5t53.5 -9.5l-14 -67h-248l14 67q51 2 69.5 15.5
t26.5 53.5l95 449q-15 29 -29 38t-41 12l14 67h252z" />
    <glyph glyph-name="O" unicode="O" horiz-adv-x="764" 
d="M350 -10q-135 0 -214 76.5t-79 208.5q0 82 29 161t82 139q120 137 296 137q135 0 214 -76.5t79 -208.5q0 -82 -29 -161t-82 -139q-120 -137 -296 -137zM354 61q89 0 149 139q52 121 52 259q0 89 -21.5 135.5t-73.5 46.5q-88 0 -148 -139q-53 -123 -53 -259
q0 -89 21.5 -135.5t73.5 -46.5z" />
    <glyph glyph-name="P" unicode="P" horiz-adv-x="684" 
d="M390 269h-78l-25 -122q-1 -3 -1.5 -8t-0.5 -8q-2 -12 -2 -19q0 -32 24 -39q23 -8 81 -10l-12 -63h-391l14 67q51 2 69.5 15.5t26.5 53.5l90 428l3 16q1 6 1 15q0 22 -14.5 30.5t-53.5 9.5l13 67h339q124 0 186 -47.5t62 -129.5q0 -124 -91 -190t-240 -66zM420 631h-32
l-63 -297h31q73 0 123 45t50 136q0 116 -109 116z" />
    <glyph glyph-name="Q" unicode="Q" horiz-adv-x="764" 
d="M327 -68l-32 62q-111 14 -174.5 89t-63.5 192q0 82 29 161t82 139q120 137 296 137q135 0 214 -76.5t79 -208.5q0 -144 -81 -261q-86 -126 -220 -162l54 -52q35 -34 60.5 -48.5t63.5 -14.5l-7 -34q-50 -33 -123 -33q-121 0 -177 110zM354 61q89 0 149 139q52 121 52 259
q0 89 -21.5 135.5t-73.5 46.5q-88 0 -148 -139q-53 -123 -53 -259q0 -89 21.5 -135.5t73.5 -46.5z" />
    <glyph glyph-name="R" unicode="R" horiz-adv-x="762" 
d="M364 290h-52l-32 -152q-1 -3 -1.5 -8t-0.5 -8q-2 -12 -2 -15q0 -22 14.5 -30.5t53.5 -9.5l-13 -67h-346l14 67q51 2 69.5 15.5t26.5 53.5l90 428l3 16q1 6 1 15q0 22 -14.5 30.5t-53.5 9.5l13 67h354q248 0 248 -183q0 -77 -57 -130.5t-138 -68.5l79 -179
q19 -45 37 -59.5t59 -14.5l-14 -67h-217q-35 35 -60 110zM422 631h-38l-59 -274h33q188 0 188 160q0 114 -124 114z" />
    <glyph glyph-name="S" unicode="S" horiz-adv-x="589" 
d="M265 -10q-82 0 -148.5 28t-96.5 67l27 156h91q3 -87 39.5 -137t101.5 -50q47 0 76 25t29 71q0 39 -24.5 64t-90.5 56q-88 43 -129.5 94.5t-41.5 122.5q0 104 76 164.5t195 60.5q140 0 223 -75l-30 -147h-79q-8 74 -35.5 115.5t-92.5 41.5q-45 0 -71 -25t-26 -64
q0 -37 25 -61t87 -54q96 -47 140 -94.5t44 -123.5q0 -113 -89 -178q-77 -57 -200 -57z" />
    <glyph glyph-name="T" unicode="T" horiz-adv-x="737" 
d="M81 467l65 235h651l-35 -235h-72q-14 91 -38.5 130t-81.5 39h-18l-103 -486q-1 -5 -2 -10.5t-2 -10t-1 -5.5q-1 -6 -1 -14q0 -23 18 -32.5t59 -10.5l-13 -67h-365l14 67q51 2 72 16t29 53l106 500h-19q-29 0 -51.5 -9t-47 -35.5t-40 -49t-49.5 -75.5h-75z" />
    <glyph glyph-name="U" unicode="U" horiz-adv-x="775" 
d="M598 275l62 289l3 16q1 6 1 15q0 22 -14.5 30.5t-53.5 9.5l13 67h249l-14 -67q-51 -2 -69.5 -15.5t-26.5 -53.5l-66 -320q-26 -127 -109.5 -191.5t-204.5 -64.5q-122 0 -193 57t-71 160q0 32 10 79l58 278l3 16q1 6 1 15q0 22 -14.5 30.5t-53.5 9.5l13 67h351l-14 -67
q-51 -2 -69.5 -15.5t-26.5 -53.5l-57 -269q-9 -45 -9 -72q0 -63 30.5 -97.5t86.5 -34.5q72 0 117.5 40t67.5 142z" />
    <glyph glyph-name="V" unicode="V" horiz-adv-x="734" 
d="M352 544l77 -307l196 314q19 31 19 52q0 16 -13 23t-49 9l14 67h234l-14 -67q-49 -8 -67 -37l-384 -602h-56l-165 602q-5 19 -15.5 26t-32.5 11l14 67h335l-13 -67q-48 -3 -66.5 -16t-18.5 -41q0 -15 5 -34z" />
    <glyph glyph-name="W" unicode="W" horiz-adv-x="1012" 
d="M717 530l33 -276l149 280q27 52 27 70q0 16 -12 23q-12 6 -49 8l14 67h229l-14 -67q-19 -3 -28 -5.5t-20.5 -10.5t-19.5 -21l-344 -602h-73l-56 387l-220 -387h-71l-118 602q-6 29 -48 37l14 67h322l-14 -67q-71 -6 -72 -60q0 -10 1 -15q1 -3 1.5 -9.5t0.5 -9.5l54 -294
l134 235l-14 116q-4 29 -42 37l14 67h315l-13 -67q-83 -2 -83 -66q0 -10 1 -16q1 -4 1.5 -11.5t0.5 -11.5z" />
    <glyph glyph-name="X" unicode="X" horiz-adv-x="738" 
d="M702 600l-212 -208l151 -290q15 -29 57 -35l-14 -67h-324l13 67q55 0 55 36q0 13 -12 41l-72 146l-139 -146q-31 -31 -31 -50q0 -13 10 -20t41 -7l-13 -67h-251l14 67q56 0 87 35l245 252l-131 246q-18 34 -50 35l14 67h330l-13 -67q-65 0 -65 -35q0 -17 14 -42l52 -102
l96 102q30 30 30 50q0 27 -46 27l14 67h248l-14 -67q-49 0 -84 -35z" />
    <glyph glyph-name="Y" unicode="Y" horiz-adv-x="692" 
d="M354 535l65 -195l148 196q36 47 36 65q0 33 -59 34l14 67h230l-14 -67q-43 -7 -67 -37l-263 -341l-26 -121l-2 -14q-1 -5 -1 -12q0 -24 17 -33t59 -10l-14 -67h-355l14 67q50 2 71 16t29 53l26 122l-118 340q-11 30 -48 37l14 67h324l-14 -67q-76 0 -76 -52q0 -21 10 -48
z" />
    <glyph glyph-name="Z" unicode="Z" horiz-adv-x="648" 
d="M703 654l-473 -583h114q61 0 96 28q31 25 112 133h80l-84 -232h-571l10 47l476 583h-117q-20 0 -36.5 -5.5t-27 -10t-26 -22t-21.5 -25t-25.5 -36t-26.5 -38.5h-69l45 209h555z" />
    <glyph glyph-name="bracketleft" unicode="[" horiz-adv-x="357" 
d="M298 658l-145 -681q-3 -13 -3 -24q0 -26 26 -32q24 -7 76 -10l-11 -52h-237l194 911h237l-11 -52q-68 -4 -93 -14t-33 -46z" />
    <glyph glyph-name="backslash" unicode="\" horiz-adv-x="442" 
d="M355 -141h-103l-85 911h103z" />
    <glyph glyph-name="bracketright" unicode="]" horiz-adv-x="357" 
d="M92 -29l144 681q3 13 3 24q0 26 -25 33q-25 6 -77 9l11 52h237l-193 -911h-237l11 52q68 4 93 14t33 46z" />
    <glyph glyph-name="asciicircum" unicode="^" horiz-adv-x="490" 
d="M92 480l206 290h120l84 -290h-112l-49 188l-127 -188h-122z" />
    <glyph glyph-name="underscore" unicode="_" horiz-adv-x="440" 
d="M372 -66l-21 -103h-399l20 103h400z" />
    <glyph glyph-name="grave" unicode="`" horiz-adv-x="500" 
d="M278 606l-125 160h181l35 -160h-91z" />
    <glyph glyph-name="a" unicode="a" horiz-adv-x="694" 
d="M482 505l105 54h71l-41 -141l-66 -268q-8 -30 -8 -41q0 -15 14 -15q13 0 33 20q21 21 46 53l32 -27q-53 -76 -100.5 -113t-101.5 -37q-46 0 -73 30t-27 78q0 22 8 48q14 45 19 64h-7q-46 -100 -89 -149q-64 -71 -136 -71q-60 0 -97.5 48t-37.5 128q0 69 24.5 139.5
t68.5 126.5q100 127 245 127q67 0 118 -54zM249 111q49 0 108 104q56 100 85 238q-7 18 -11 26t-14 14.5t-26 6.5q-76 0 -132 -110q-53 -101 -53 -208q0 -71 43 -71z" />
    <glyph glyph-name="b" unicode="b" horiz-adv-x="658" 
d="M37 141l122 500l-61 44l10 34l228 42h35l-75 -303l-57 -157h7q48 103 102 169q75 89 151 89q67 0 100 -46t33 -130q0 -70 -26 -140t-73 -126q-108 -127 -275 -127q-83 0 -143 39.5t-78 111.5zM407 438q-49 0 -112 -104q-62 -103 -91 -230q2 -26 18.5 -42t40.5 -16
q75 0 134 111q54 100 54 208q0 73 -44 73z" />
    <glyph glyph-name="c" unicode="c" horiz-adv-x="510" 
d="M353 499q-58 0 -103 -95q-44 -93 -44 -185q0 -57 22.5 -88.5t62.5 -31.5q77 0 144 77l27 -27q-44 -78 -106.5 -118.5t-133.5 -40.5q-91 0 -143.5 57.5t-52.5 149.5q0 140 96 249q100 113 247 113q64 0 104 -26t40 -78q0 -66 -64 -82h-58q14 126 -38 126z" />
    <glyph glyph-name="d" unicode="d" horiz-adv-x="700" 
d="M466 520l29 121l-61 44l10 34l224 42h35l-146 -611q-8 -30 -8 -41q0 -15 14 -15q13 0 33 20q18 18 47 53l31 -27q-53 -75 -101 -112.5t-100 -37.5q-47 0 -74 30t-27 77q0 27 7 49q1 3 6.5 26t9.5 39h-7q-44 -95 -90 -149q-63 -72 -137 -72q-60 0 -97.5 48t-37.5 128
q0 69 25 139.5t69 126.5q100 127 244 127q36 0 63.5 -11.5t38.5 -27.5zM249 111q25 0 55 28.5t58 76.5q62 107 90 251q-17 36 -59 36q-75 0 -133 -112q-54 -105 -54 -209q0 -71 43 -71z" />
    <glyph glyph-name="e" unicode="e" horiz-adv-x="530" 
d="M525 436q0 -77 -83 -125.5t-243 -77.5v-14q0 -58 26.5 -93.5t71.5 -35.5q44 0 79.5 20t75.5 66l28 -27q-45 -78 -115 -118.5t-142 -40.5q-91 0 -144 58t-53 150q0 138 101 249q104 112 248 112q70 0 110 -36t40 -87zM350 498q-49 0 -93 -72q-42 -69 -54 -154
q93 28 136.5 70.5t43.5 103.5q0 52 -33 52z" />
    <glyph glyph-name="f" unicode="f" horiz-adv-x="388" 
d="M123 482h-75l12 53l80 20q31 107 92 161t169 54q65 0 106 -21.5t41 -67.5q0 -53 -54 -70h-62q15 109 -35 109q-30 0 -50 -41q-21 -42 -27 -129h124l-13 -68h-119l-50 -235q-53 -247 -134 -356q-73 -98 -182 -98q-57 0 -92 22t-35 59q0 34 22.5 54.5t56.5 24.5h28
q2 -51 11 -82q10 -34 32 -34q24 0 36 38q14 49 28 127z" />
    <glyph glyph-name="g" unicode="g" horiz-adv-x="575" 
d="M332 559q60 0 105 -25l196 20l-23 -95h-43l-64 19q25 -36 25 -74q0 -92 -83 -146q-80 -52 -193 -52q-38 0 -66 7q-32 -13 -32 -34q0 -20 29 -28l175 -35q77 -15 115 -46t38 -90q0 -85 -87 -137q-85 -52 -214 -52q-108 0 -185 34q-88 39 -88 101q0 45 48 72q37 22 94 24
q-39 37 -39 82q0 76 115 119q-98 39 -98 147q0 85 83 138q80 51 192 51zM265 258q36 0 66 49t30 125q0 75 -42 75q-36 0 -66 -49.5t-30 -125.5q0 -74 42 -74zM305 -44l-202 42q-47 -16 -47 -59q0 -39 44.5 -64t110.5 -25q62 0 104.5 19.5t42.5 49.5q0 26 -53 37z" />
    <glyph glyph-name="h" unicode="h" horiz-adv-x="684" 
d="M373 761l-74 -302l-52 -160h7q152 260 287 260q41 0 63.5 -24t22.5 -64q0 -18 -6 -44l-75 -277q-9 -34 -9 -41q0 -15 14 -15q13 0 33 20q19 18 47 53l31 -27q-53 -75 -101 -112.5t-100 -37.5q-47 0 -76.5 27t-29.5 67q0 35 14 86l64 220q5 22 5 33q0 18 -17 18
q-15 0 -40 -24q-60 -55 -113 -164q-26 -50 -44 -118l-35 -135h-182l154 641l-61 44l10 34l228 42h35z" />
    <glyph glyph-name="i" unicode="i" horiz-adv-x="370" 
d="M261 594q-44 0 -70 25.5t-26 62.5q0 41 28.5 70t75.5 29q43 0 69.5 -25.5t26.5 -61.5q0 -41 -28.5 -70.5t-75.5 -29.5zM293 559h35l-103 -409q-8 -30 -8 -41q0 -15 14 -15t34 20q21 21 46 53l31 -27q-51 -75 -99 -112.5t-102 -37.5q-46 0 -75 27t-29 67q0 32 13 86
l66 269l-50 47l9 34z" />
    <glyph glyph-name="j" unicode="j" horiz-adv-x="340" 
d="M269 594q-43 0 -69.5 25.5t-26.5 62.5q0 41 28.5 70t75.5 29q44 0 70 -25t26 -62q0 -41 -28.5 -70.5t-75.5 -29.5zM24 -4l101 443l-51 47l10 34l218 39h35l-115 -456q-39 -151 -110.5 -230.5t-173.5 -79.5q-57 0 -92 22t-35 59q0 34 22.5 54.5t56.5 24.5h28q2 -50 10 -81
q8 -33 30 -33t35 37q10 31 31 120z" />
    <glyph glyph-name="k" unicode="k" horiz-adv-x="649" 
d="M339 761h35l-185 -761h-182l155 641l-61 44l10 34zM430 387l-11 -14l70 -186q22 -66 47 -66q14 0 28 9q13 8 36 38l28 -27q-51 -82 -92 -116.5t-90 -34.5q-40 0 -65.5 25t-44.5 77l-65 179l153 186q49 58 78.5 80t61.5 22q38 0 58.5 -23t20.5 -55q0 -68 -74 -93h-22
q0 58 -37 58q-34 0 -80 -59z" />
    <glyph glyph-name="l" unicode="l" horiz-adv-x="358" 
d="M40 170l117 471l-61 44l10 34l228 42h35l-154 -611q-7 -27 -7 -41q0 -15 14 -15q13 0 33 20q21 21 46 53l31 -27q-51 -75 -99 -112.5t-102 -37.5q-46 0 -75 27t-29 67q0 32 13 86z" />
    <glyph glyph-name="m" unicode="m" horiz-adv-x="1005" 
d="M577 300h7q145 259 278 259q41 0 63.5 -24t22.5 -64q0 -20 -6 -44l-75 -277q-9 -34 -9 -41q0 -15 14 -15q13 0 33 20q19 18 47 53l31 -27q-53 -75 -101 -112.5t-100 -37.5q-47 0 -76.5 27t-29.5 67q0 35 14 86l63 216q5 16 5 33q0 18 -17 18q-13 0 -39 -23
q-56 -52 -107 -158q-27 -57 -41 -115l-35 -141h-182l96 386q5 22 5 33q0 18 -17 18q-13 0 -39 -23q-58 -51 -111 -158q-27 -54 -42 -115l-35 -141h-181l109 439l-51 47l10 34l218 42h36l-27 -105l-56 -157h7q151 259 283 259q40 0 60.5 -25t20.5 -63q0 -40 -46 -171z" />
    <glyph glyph-name="n" unicode="n" horiz-adv-x="689" 
d="M299 562h36l-27 -105l-56 -158h7q152 260 287 260q41 0 63.5 -24t22.5 -64q0 -18 -6 -44l-75 -277q-9 -34 -9 -41q0 -15 14 -15q13 0 33 20q18 18 47 53l31 -27q-53 -75 -101 -112.5t-100 -37.5q-47 0 -76.5 27t-29.5 67q0 35 14 86l64 220q5 22 5 33q0 18 -17 18
q-14 0 -40 -24q-60 -55 -113 -164q-26 -50 -44 -118l-35 -135h-181l109 439l-51 47l10 34z" />
    <glyph glyph-name="o" unicode="o" horiz-adv-x="608" 
d="M250 -10q-98 0 -160 62.5t-62 167.5q0 143 91 240q94 99 239 99q98 0 160 -62.5t62 -167.5q0 -143 -91 -239q-93 -100 -239 -100zM255 53q64 0 109 122q39 105 39 209q0 112 -50 112q-64 0 -109 -121q-39 -106 -39 -210q0 -112 50 -112z" />
    <glyph glyph-name="p" unicode="p" horiz-adv-x="663" 
d="M301 457l-57 -157h7q47 104 103 170q75 89 150 89q67 0 100 -46t33 -130q0 -69 -25 -139.5t-69 -126.5q-102 -127 -246 -127q-34 0 -59.5 14.5t-36.5 34.5l-25 -105l-3 -17q-2 -10 -2 -14q1 -19 13 -25.5t41 -9.5l-16 -65h-306l15 65q36 4 51 14.5t23 42.5l123 514
l-52 47l10 34l217 42h35zM412 438q-51 0 -111 -103q-63 -108 -88 -242q11 -24 22 -35.5t33 -11.5q75 0 134 111q54 100 54 207q0 74 -44 74z" />
    <glyph glyph-name="q" unicode="q" horiz-adv-x="675" 
d="M366 559q72 0 119 -54l104 54h71l-40 -141l-112 -484l-3 -17q-2 -10 -2 -14q1 -19 13 -25.5t41 -9.5l-15 -65h-307l16 65q36 4 51 14.5t23 42.5l36 156l37 130h-7q-44 -96 -91 -149q-63 -72 -137 -72q-60 0 -98.5 48t-38.5 128q0 147 95 266q102 127 245 127zM251 111
q50 0 109 104q58 105 84 238q-8 47 -50 47q-76 0 -134 -110q-54 -103 -54 -208q0 -71 45 -71z" />
    <glyph glyph-name="r" unicode="r" horiz-adv-x="523" 
d="M296 414l-64 -178h7q110 211 141 256q25 37 48 52t52 15q35 0 54 -22.5t19 -58.5q0 -42 -28 -77.5t-61 -50.5h-22q0 36 -28 36q-53 0 -112 -101q-58 -101 -105 -285h-182l109 439l-50 47l10 34l216 42h35z" />
    <glyph glyph-name="s" unicode="s" horiz-adv-x="482" 
d="M214 45q27 0 42 14t15 38q0 7 -2.5 14.5t-9 16t-11.5 14t-17.5 16t-18 15t-21.5 17t-21 16.5q-101 79 -101 152q0 90 63.5 145.5t165.5 55.5q65 0 109.5 -29t44.5 -77q0 -21 -15.5 -37t-40.5 -23h-34q-7 48 -33 79t-62 31q-60 0 -60 -47q0 -25 34 -52q113 -92 146 -130
q33 -39 33 -86q0 -88 -66 -143t-164 -55q-83 0 -138.5 33.5t-55.5 82.5q0 29 17.5 49t45.5 29h30q21 -139 125 -139z" />
    <glyph glyph-name="t" unicode="t" horiz-adv-x="433" 
d="M425 482h-117l-76 -308q-8 -38 -8 -51q0 -29 23 -29t51 24q25 20 73 71l31 -27q-63 -87 -121.5 -129.5t-126.5 -42.5q-54 0 -83.5 32.5t-29.5 78.5q0 35 10 76l75 305h-73l13 49q57 10 120 50t110 94h60l-31 -125h117z" />
    <glyph glyph-name="u" unicode="u" horiz-adv-x="701" 
d="M407 243h-7q-138 -253 -265 -253q-49 0 -73.5 26t-24.5 72q0 26 8 60l70 291l-50 47l10 34l217 39h35l-100 -395q-4 -17 -4 -30q0 -23 17 -23q16 0 45 27q59 58 114 170q28 60 40 111l31 120l183 10l-100 -399q-8 -30 -8 -41q0 -15 14 -15t34 20q21 21 46 53l31 -27
q-52 -76 -98.5 -113t-100.5 -37q-47 0 -72.5 29.5t-25.5 78.5q0 38 34 145z" />
    <glyph glyph-name="v" unicode="v" horiz-adv-x="563" 
d="M126 -5l-47 450l-61 41l10 34l190 39h35l28 -399l76 87q75 88 75 144q0 36 -23.5 57t-62.5 21l1 19q17 30 49 50.5t72 20.5q45 0 68 -27.5t23 -70.5q0 -51 -38.5 -108t-105.5 -127l-222 -231h-67z" />
    <glyph glyph-name="w" unicode="w" horiz-adv-x="837" 
d="M399 320l-13 125l-61 41l10 34l176 39h35l28 -399l74 87q58 66 58 144q0 36 -23.5 57t-62.5 21l1 19q17 30 49 50.5t72 20.5q45 0 68 -29t23 -72q0 -89 -127 -231l-209 -232h-65l-26 255l-212 -255h-63l-52 450l-61 41l10 34l185 39h35l34 -384z" />
    <glyph glyph-name="x" unicode="x" horiz-adv-x="595" 
d="M161 162l50 76l-80 212l-59 36l10 34l175 39h35l57 -174l43 70q64 104 134 104q39 0 61 -23t22 -53q0 -70 -78 -95h-24q0 58 -30 58q-18 0 -32.5 -12.5t-36.5 -46.5l-40 -61l48 -143q11 -35 20.5 -50.5t25.5 -15.5q27 0 72 51l29 -27q-55 -81 -99 -116t-92 -35
q-39 0 -62.5 25.5t-42.5 76.5l-35 91l-55 -89q-64 -104 -139 -104q-35 0 -56 22t-21 52q0 71 77 97h24q0 -58 31 -58q18 0 33.5 13.5t34.5 45.5z" />
    <glyph glyph-name="y" unicode="y" horiz-adv-x="569" 
d="M363 58q-112 -144 -193.5 -204t-159.5 -60q-50 0 -83.5 23.5t-33.5 67.5q0 27 17 48.5t46 31.5h32q0 -48 18 -73t60 -25q59 0 130 70l-117 508l-61 41l10 34l185 39h35l85 -457l3 3q102 140 102 272q0 45 -23 68.5t-64 23.5l1 19q44 71 121 71q45 0 68.5 -30.5
t23.5 -73.5q0 -83 -53 -178.5t-149 -218.5z" />
    <glyph glyph-name="z" unicode="z" horiz-adv-x="543" 
d="M2 87l359 315h-186q-24 0 -35.5 -6.5t-24.5 -27.5l-27 -41l-34 9l89 247h35q6 -37 22 -37h366v-33l-366 -329l84 -25q38 -12 72 -12q42 0 67 13.5t59 64.5l34 -11q-46 -120 -94 -174.5t-116 -54.5q-64 0 -141 44l-88 50l-49 -83q-55 0 -55 37q0 28 29 54z" />
    <glyph glyph-name="braceleft" unicode="{" horiz-adv-x="393" 
d="M63 297l7 36q88 16 105 100l44 209q28 128 252 128l-9 -41q-42 -4 -74 -28t-41 -70l-44 -204q-11 -50 -35.5 -73.5t-78.5 -38.5q38 -12 54.5 -28.5t16.5 -46.5q0 -15 -25 -132q-26 -114 -26 -134q0 -63 77 -73l-9 -42q-104 0 -152 27q-49 27 -49 75q0 24 26 134
q25 115 25 132q0 56 -64 70z" />
    <glyph glyph-name="bar" unicode="|" horiz-adv-x="302" 
d="M213 770h102l-193 -911h-102z" />
    <glyph glyph-name="braceright" unicode="}" horiz-adv-x="393" 
d="M362 332l-7 -36q-88 -16 -105 -100l-44 -209q-28 -128 -252 -128l9 41q42 4 74 28t41 70l44 204q11 50 35.5 73.5t78.5 38.5q-38 12 -54.5 28.5t-16.5 46.5q0 19 26 133q25 117 25 133q0 63 -77 73l9 42q104 0 153 -27q48 -27 48 -75q0 -19 -25 -134q-26 -110 -26 -132
q0 -56 64 -70z" />
    <glyph glyph-name="asciitilde" unicode="~" horiz-adv-x="582" 
d="M494 447l62 -19q-49 -184 -172 -184q-29 0 -83 32q-58 31 -76 31q-50 0 -89 -62l-62 19q49 184 172 184q26 0 84 -31q54 -32 75 -32q50 0 89 62z" />
    <glyph glyph-name="uni00A0" unicode="&#xa0;" horiz-adv-x="200" 
 />
    <glyph glyph-name="exclamdown" unicode="&#xa1;" horiz-adv-x="334" 
d="M316 457q0 -43 -29.5 -73.5t-70.5 -30.5q-42 0 -71 30.5t-29 73.5q0 42 29 72t71 30q41 0 70.5 -30t29.5 -72zM180 -152h-206l177 463h87z" />
    <glyph glyph-name="cent" unicode="&#xa2;" horiz-adv-x="553" 
d="M270 -117h-57l22 108q-92 5 -145.5 62.5t-53.5 148.5q0 131 86 234q92 110 232 123l25 118h57l-25 -117q63 -3 102 -29t39 -75q0 -64 -65 -82h-53q14 109 -35 128l-87 -417h2q81 0 161 92l29 -27q-79 -137 -211 -157zM207 230q0 -93 51 -129l84 400q-62 -18 -100 -106
q-35 -81 -35 -165z" />
    <glyph glyph-name="sterling" unicode="&#xa3;" horiz-adv-x="722" 
d="M228 334h-102l13 58h105l12 43q74 277 320 277q74 0 121.5 -28t47.5 -78q0 -76 -77 -99h-97q27 51 27 96q0 50 -40 50q-43 0 -70 -84l-59 -177h139l-14 -58h-145l-50 -150q37 -17 56 -24.5t52 -15.5t65 -8q61 0 61 53q0 26 -27 45l22 27q37 -7 67 -34.5t30 -74.5
q0 -77 -52 -119.5t-129 -42.5q-120 0 -212 92q-76 -92 -193 -92q-55 0 -86.5 31t-31.5 78q0 59 40.5 96t96.5 37q36 0 78 -14zM102 54q51 0 75 90q-36 19 -62 19t-43.5 -15t-17.5 -42q0 -22 12.5 -37t35.5 -15z" />
    <glyph glyph-name="currency" unicode="&#xa4;" horiz-adv-x="577" 
d="M291 163q-70 0 -121 41l-79 -70l-38 44l79 72q-24 43 -24 94q0 79 48 136l-62 70l46 41l61 -69q55 35 118 35q67 0 114 -37l82 73l39 -44l-81 -72q29 -44 29 -101q0 -81 -51 -140l63 -68l-47 -41l-61 69q-52 -33 -115 -33zM297 243q49 0 84.5 36.5t35.5 89.5q0 48 -29 78
t-74 30q-49 0 -84.5 -36.5t-35.5 -89.5q0 -48 29 -78t74 -30z" />
    <glyph glyph-name="yen" unicode="&#xa5;" horiz-adv-x="680" 
d="M218 331h-125l12 57h92l-74 210q-6 18 -17 25.5t-32 11.5l14 67h333l-13 -67q-77 0 -77 -52q0 -10 10 -48l60 -195l143 196q36 45 36 65q0 33 -59 34l13 67h230l-13 -67q-43 -7 -67 -37l-159 -210h99l-12 -57h-130l-52 -68h167l-13 -56h-169l-15 -71l-2 -14q-1 -5 -1 -12
q0 -24 17 -33t59 -10l-14 -67h-355l14 67q50 2 71 16t29 53l15 71h-168l13 56h164z" />
    <glyph glyph-name="brokenbar" unicode="&#xa6;" horiz-adv-x="302" 
d="M213 770h102l-80 -376h-102zM100 235h102l-80 -376h-102z" />
    <glyph glyph-name="section" unicode="&#xa7;" horiz-adv-x="518" 
d="M127 -202q-60 0 -97.5 28t-37.5 76q0 56 69 80h88q-10 -19 -10 -48q0 -33 12 -54.5t35 -21.5q52 0 52 81q0 13 -1.5 26t-6.5 28t-8 24.5t-12 27.5t-12.5 25.5t-15 29t-14.5 27.5q-70 134 -70 241q0 134 83 234q91 110 237 110q60 0 97.5 -28t37.5 -76q0 -56 -69 -80h-88
q10 19 10 48q0 33 -12 54.5t-35 21.5q-52 0 -52 -81q0 -13 1.5 -26t6.5 -28t8 -24.5t12 -27.5t12.5 -25.5t15 -29t14.5 -27.5q70 -134 70 -241q0 -135 -82 -234q-91 -110 -238 -110zM251 606q-39 -40 -61.5 -103.5t-22.5 -134.5q0 -86 69 -222q24 -47 34.5 -70t22 -61
t11.5 -68q0 -24 -10 -43q39 40 61.5 103.5t22.5 134.5q0 87 -68 223q-24 48 -34.5 69.5t-22.5 60t-12 68.5q0 24 10 43z" />
    <glyph glyph-name="dieresis" unicode="&#xa8;" horiz-adv-x="500" 
d="M138 603q-39 0 -63 24.5t-24 58.5q0 38 26 65.5t67 27.5q39 0 62.5 -24t23.5 -58q0 -38 -25.5 -66t-66.5 -28zM357 603q-38 0 -62 24.5t-24 58.5q0 38 25.5 65.5t66.5 27.5q39 0 62.5 -24t23.5 -58q0 -38 -25.5 -66t-66.5 -28z" />
    <glyph glyph-name="copyright" unicode="&#xa9;" horiz-adv-x="796" 
d="M399 -10q-148 0 -242 96t-94 239q0 162 110 275q109 112 271 112q148 0 242 -96t94 -239q0 -161 -110 -274t-271 -113zM399 30q143 0 241 101q96 101 96 246q0 127 -82 211t-210 84q-145 0 -240 -100q-97 -100 -97 -247q0 -127 82 -211t210 -84zM399 141
q-87 0 -134.5 46.5t-47.5 118.5q0 111 74.5 184.5t182.5 73.5q83 0 133 -45l-20 -93h-65q-2 33 -5 50t-13.5 28.5t-30.5 11.5q-53 0 -89 -71q-34 -68 -34 -152q0 -101 56 -101q34 0 52 20t48 81h66l-25 -113q-65 -39 -148 -39z" />
    <glyph glyph-name="ordfeminine" unicode="&#xaa;" horiz-adv-x="531" 
d="M408 685l86 39h51l-29 -101l-48 -188l-3 -17q-2 -10 -2 -12q0 -11 10 -11t24 14q13 12 32 38l26 -23q-38 -55 -74.5 -82t-80.5 -27q-32 0 -54 22t-22 56q0 17 6 34q7 19 14 46h-5q-33 -71 -71 -114.5t-91 -43.5q-43 0 -70 34.5t-27 92.5q0 106 67 191q72 91 176 91
q46 0 85 -39zM248 410q34 0 73 71q41 73 58 164q-8 33 -35 33q-46 0 -86 -75q-39 -71 -39 -143q0 -50 29 -50z" />
    <glyph glyph-name="guillemotleft" unicode="&#xab;" horiz-adv-x="564" 
d="M167 71l-137 200l2 10l222 200h88l-157 -205l59 -205h-77zM393 71l-137 200l2 10l222 200h88l-157 -205l59 -205h-77z" />
    <glyph glyph-name="registered" unicode="&#xae;" horiz-adv-x="555" 
d="M316 257q-93 0 -153.5 60.5t-60.5 151.5q0 102 70 172.5t172 70.5q93 0 153.5 -60.5t60.5 -151.5q0 -102 -70 -172.5t-172 -70.5zM316 291q90 0 148 59.5t58 149.5q0 78 -49 128t-129 50q-90 0 -148 -59.5t-58 -149.5q0 -78 49 -128t129 -50zM241 585l4 23h115
q44 0 65 -17.5t21 -47.5q0 -29 -20.5 -47t-46.5 -26l32 -56q7 -19 27 -21l-6 -23h-60q-14 8 -23 31l-29 64h-13l-10 -45q-2 -8 -2 -14q0 -13 21 -13l-6 -23h-116l6 23q17 0 22.5 5t7.5 20l31 141q2 10 2 13q0 12 -22 13zM337 580h-5l-19 -89h5q24 0 41 13t17 41q0 35 -39 35
z" />
    <glyph glyph-name="macron" unicode="&#xaf;" horiz-adv-x="500" 
d="M393 626h-308l23 101h308z" />
    <glyph glyph-name="degree" unicode="&#xb0;" horiz-adv-x="376" 
d="M214 391q-60 0 -98.5 38t-38.5 95q0 78 51 133t126 55q60 0 98.5 -38t38.5 -95q0 -78 -51 -133t-126 -55zM219 456q41 0 67.5 34t26.5 84q0 32 -16 52.5t-47 20.5q-41 0 -68 -34t-27 -84q0 -32 16.5 -52.5t47.5 -20.5z" />
    <glyph glyph-name="plusminus" unicode="&#xb1;" horiz-adv-x="603" 
d="M302 487l29 134h92l-29 -134h179l-19 -92h-179l-29 -136h-92l29 136h-178l20 92h177zM492 116h-446l20 93h447z" />
    <glyph glyph-name="uni00B2" unicode="&#xb2;" horiz-adv-x="451" 
d="M216 395h110q29 0 43 8t45 42h41l-46 -158h-363l9 47q159 115 211 170q43 45 43 86q0 58 -57 58t-106 -56l-27 35q73 121 209 121q58 0 95.5 -29t37.5 -83q0 -72 -74 -136q-53 -46 -171 -105z" />
    <glyph glyph-name="uni00B3" unicode="&#xb3;" horiz-adv-x="432" 
d="M323 537q47 -6 78 -35t31 -70q0 -79 -68 -119q-57 -35 -152 -35q-63 0 -107.5 26.5t-44.5 65.5q0 46 45 62h87q-13 -27 -13 -54q0 -25 13 -40t35 -15q27 0 45 25.5t18 66.5q0 73 -59 73q-8 0 -24 -2l-4 30q56 21 79 41.5t23 49.5q0 17 -12 29.5t-34 12.5q-46 0 -94 -48
l-31 25q27 52 78.5 85t110.5 33q58 0 91 -24t33 -71q0 -45 -34.5 -75t-89.5 -37z" />
    <glyph glyph-name="acute" unicode="&#xb4;" horiz-adv-x="500" 
d="M103 606l96 160h197l-195 -160h-98z" />
    <glyph glyph-name="paragraph" unicode="&#xb6;" horiz-adv-x="669" 
d="M307 -197h-74l83 391q-106 0 -168 58.5t-62 153.5q0 122 94 208q96 88 244 88h316l-15 -69q-61 0 -84 -14t-33 -59l-161 -757h-74l178 840h-66zM327 249l85 398q-62 -10 -109 -87q-45 -74 -45 -161q0 -62 17 -103.5t52 -46.5z" />
    <glyph glyph-name="periodcentered" unicode="&#xb7;" horiz-adv-x="315" 
d="M56 305q0 47 31 77.5t76 30.5q46 0 77 -30.5t31 -77.5t-31 -77t-77 -30q-45 0 -76 30t-31 77z" />
    <glyph glyph-name="cedilla" unicode="&#xb8;" horiz-adv-x="500" 
d="M122 -233l-11 49q55 0 88 10q34 9 34 29q0 34 -76 36l58 117h50l-27 -52q86 -7 86 -78q0 -52 -63 -83q-56 -28 -139 -28z" />
    <glyph glyph-name="uni00B9" unicode="&#xb9;" horiz-adv-x="391" 
d="M334 748h50l-77 -363q-1 -2 -1 -5t-1 -5q-1 -3 -1 -9q0 -15 15 -20q19 -6 52 -7l-11 -52h-296l11 52q53 3 65 9.5t19 36.5l47 218h-75l10 48l29 6q58 12 91.5 31.5t72.5 59.5z" />
    <glyph glyph-name="ordmasculine" unicode="&#xba;" horiz-adv-x="446" 
d="M234 314q-71 0 -117.5 45.5t-46.5 121.5q0 103 66 172t176 69q71 0 117.5 -45.5t46.5 -121.5q0 -103 -66 -172t-176 -69zM241 363q44 0 74 86q26 72 26 148t-36 76q-43 0 -74 -85q-26 -73 -26 -149t36 -76z" />
    <glyph glyph-name="guillemotright" unicode="&#xbb;" horiz-adv-x="564" 
d="M167 481l136 -200l-2 -10l-221 -200h-89l157 205l-59 205h78zM393 481l136 -200l-2 -10l-221 -200h-89l157 205l-59 205h78z" />
    <glyph glyph-name="onequarter" unicode="&#xbc;" horiz-adv-x="979" 
d="M334 748h50l-77 -363q-1 -2 -1 -5t-1 -5q-1 -3 -1 -9q0 -15 15 -20q19 -6 52 -7l-11 -52h-296l11 52q53 3 65 9.5t19 36.5l47 218h-75l10 48l29 6q58 12 91.5 31.5t72.5 59.5zM270 0h-76l606 741h77zM813 47l-25 -118h-147l25 118h-212l11 48l288 294h133l-60 -285h88
l-13 -57h-88zM717 285l-177 -181h139z" />
    <glyph glyph-name="onehalf" unicode="&#xbd;" horiz-adv-x="977" 
d="M334 748h50l-77 -363q-1 -2 -1 -5t-1 -5q-1 -3 -1 -9q0 -15 15 -20q19 -6 52 -7l-11 -52h-296l11 52q53 3 65 9.5t19 36.5l47 218h-75l10 48l29 6q58 12 91.5 31.5t72.5 59.5zM270 0h-76l606 741h77zM672 37h110q29 0 43 8t45 42h41l-46 -158h-363l9 47q159 115 211 170
q43 45 43 86q0 58 -57 58t-106 -56l-27 35q73 121 209 121q58 0 95.5 -29t37.5 -83q0 -72 -74 -136q-53 -46 -171 -105z" />
    <glyph glyph-name="threequarters" unicode="&#xbe;" horiz-adv-x="990" 
d="M323 537q47 -6 78 -35t31 -70q0 -79 -68 -119q-57 -35 -152 -35q-63 0 -107.5 26.5t-44.5 65.5q0 46 45 62h87q-13 -27 -13 -54q0 -25 13 -40t35 -15q27 0 45 25.5t18 66.5q0 73 -59 73q-8 0 -24 -2l-4 30q56 21 79 41.5t23 49.5q0 17 -12 29.5t-34 12.5q-46 0 -94 -48
l-31 25q27 52 78.5 85t110.5 33q58 0 91 -24t33 -71q0 -45 -34.5 -75t-89.5 -37zM281 0h-76l606 741h77zM824 47l-25 -118h-147l25 118h-212l11 48l288 294h133l-60 -285h88l-13 -57h-88zM728 285l-177 -181h139z" />
    <glyph glyph-name="questiondown" unicode="&#xbf;" horiz-adv-x="478" 
d="M412 457q0 -43 -29 -73.5t-71 -30.5t-71 30.5t-29 73.5q0 42 29 72t71 30t71 -30t29 -72zM239 87q-47 -27 -68.5 -52.5t-21.5 -68.5q0 -28 15.5 -46t45.5 -18q39 0 59 29t20 69q0 23 -5 45h110q29 -27 29 -59q0 -65 -64 -106.5t-157 -41.5q-95 0 -148.5 45t-53.5 120
q0 111 137 182q34 18 48.5 26.5t35.5 24t29 30t8 32.5q0 9 -2 19h47q51 -40 51 -90q0 -39 -27 -71.5t-88 -68.5z" />
    <glyph glyph-name="Agrave" unicode="&#xc0;" horiz-adv-x="759" 
d="M426 751l-125 158h181l35 -158h-91zM462 151l-12 63h-255l-39 -63q-18 -30 -18 -49q0 -16 14 -25q13 -9 50 -10l-14 -67h-226l14 67q46 8 64 37l327 520l-18 79h190l128 -599q6 -31 51 -37l-13 -67h-334l14 67q44 2 63 12t19 33q0 17 -5 39zM437 282l-46 247l-154 -247
h200z" />
    <glyph glyph-name="Aacute" unicode="&#xc1;" horiz-adv-x="759" 
d="M404 751l96 158h197l-194 -158h-99zM462 151l-12 63h-255l-39 -63q-18 -30 -18 -49q0 -16 14 -25q13 -9 50 -10l-14 -67h-226l14 67q46 8 64 37l327 520l-18 79h190l128 -599q6 -31 51 -37l-13 -67h-334l14 67q44 2 63 12t19 33q0 17 -5 39zM437 282l-46 247l-154 -247
h200z" />
    <glyph glyph-name="Acircumflex" unicode="&#xc2;" horiz-adv-x="759" 
d="M428 918h136l92 -169h-89l-88 80l-134 -80h-101zM462 151l-12 63h-255l-39 -63q-18 -30 -18 -49q0 -16 14 -25q13 -9 50 -10l-14 -67h-226l14 67q46 8 64 37l327 520l-18 79h190l128 -599q6 -31 51 -37l-13 -67h-334l14 67q44 2 63 12t19 33q0 17 -5 39zM437 282l-46 247
l-154 -247h200z" />
    <glyph glyph-name="Atilde" unicode="&#xc3;" horiz-adv-x="759" 
d="M624 900l58 -12q-46 -91 -77 -121q-32 -29 -74 -29q-26 0 -70 32q-45 31 -62 31q-14 0 -27 -9t-20 -17.5t-21 -28.5l-59 11q49 94 78 122t73 28q30 0 73 -31q42 -32 59 -32q32 0 69 56zM462 151l-12 63h-255l-39 -63q-18 -30 -18 -49q0 -16 14 -25q13 -9 50 -10l-14 -67
h-226l14 67q46 8 64 37l327 520l-18 79h190l128 -599q6 -31 51 -37l-13 -67h-334l14 67q44 2 63 12t19 33q0 17 -5 39zM437 282l-46 247l-154 -247h200z" />
    <glyph glyph-name="Adieresis" unicode="&#xc4;" horiz-adv-x="759" 
d="M366 743q-39 0 -63 24.5t-24 58.5q0 38 26 65.5t67 27.5q39 0 62.5 -24t23.5 -58q0 -38 -25.5 -66t-66.5 -28zM585 743q-38 0 -62 24.5t-24 58.5q0 38 25.5 65.5t66.5 27.5q39 0 62.5 -24t23.5 -58q0 -38 -25.5 -66t-66.5 -28zM462 151l-12 63h-255l-39 -63
q-18 -30 -18 -49q0 -16 14 -25q13 -9 50 -10l-14 -67h-226l14 67q46 8 64 37l327 520l-18 79h190l128 -599q6 -31 51 -37l-13 -67h-334l14 67q44 2 63 12t19 33q0 17 -5 39zM437 282l-46 247l-154 -247h200z" />
    <glyph glyph-name="Aring" unicode="&#xc5;" horiz-adv-x="759" 
d="M471 739q-45 0 -74.5 26.5t-29.5 66.5q0 46 36.5 77.5t86.5 31.5q45 0 74.5 -26.5t29.5 -66.5q0 -46 -36.5 -77.5t-86.5 -31.5zM476 796q24 0 37.5 14.5t13.5 34.5q0 18 -11 28.5t-31 10.5q-24 0 -37.5 -14t-13.5 -34q0 -18 11 -29t31 -11zM462 151l-12 63h-255l-39 -63
q-18 -30 -18 -49q0 -16 14 -25q13 -9 50 -10l-14 -67h-226l14 67q46 8 64 37l327 520l-18 79h190l128 -599q6 -31 51 -37l-13 -67h-334l14 67q44 2 63 12t19 33q0 17 -5 39zM437 282l-46 247l-154 -247h200z" />
    <glyph glyph-name="AE" unicode="&#xc6;" horiz-adv-x="1042" 
d="M40 104l422 502q-6 18 -19.5 23.5t-47.5 5.5l13 67h673l-41 -191h-71q-11 67 -32.5 94.5t-77.5 27.5h-103l-49 -236h74q33 0 52.5 17t36.5 62h64l-48 -229h-64q0 45 -11.5 62t-44.5 17h-74l-37 -177q-5 -22 -5 -35q0 -26 16.5 -35.5t52.5 -9.5h23q52 0 92 29.5t99 107.5
h79l-74 -206h-585l14 67q51 2 69.5 15.5t26.5 53.5l22 108h-234l-71 -83q-29 -33 -29 -59q0 -16 14 -25q13 -9 50 -10l-14 -67h-239l14 67q40 7 64 37zM500 312l61 291l-251 -291h190z" />
    <glyph glyph-name="Ccedilla" unicode="&#xc7;" horiz-adv-x="704" 
d="M209 -233l-11 49q55 0 88 10q34 9 34 29q0 34 -76 36l51 105q-115 18 -176.5 93.5t-61.5 182.5q0 192 127 316t312 124q146 0 226 -77l-34 -159h-93q-4 84 -25 125t-76 41q-53 0 -97.5 -34.5t-75.5 -93.5q-63 -120 -63 -264q0 -185 121 -185q60 0 100 41.5t89 141.5h95
l-43 -192q-109 -66 -253 -66h-12q-8 0 -12 1l-18 -35q86 -7 86 -78q0 -52 -63 -83q-56 -28 -139 -28z" />
    <glyph glyph-name="Egrave" unicode="&#xc8;" horiz-adv-x="674" 
d="M403 751l-125 158h181l35 -158h-91zM570 0h-585l14 67q51 2 69.5 15.5t26.5 53.5l90 428l3 16q1 6 1 15q0 22 -14.5 30.5t-53.5 9.5l13 67h579l-41 -191h-71q-11 67 -32.5 94.5t-77.5 27.5h-103l-49 -236h74q33 0 52.5 17t36.5 62h64l-48 -229h-64q0 45 -11.5 62
t-44.5 17h-74l-37 -177q-5 -22 -5 -35q0 -26 16.5 -35.5t52.5 -9.5h23q52 0 92 29.5t99 107.5h79z" />
    <glyph glyph-name="Eacute" unicode="&#xc9;" horiz-adv-x="674" 
d="M380 751l96 158h197l-194 -158h-99zM570 0h-585l14 67q51 2 69.5 15.5t26.5 53.5l90 428l3 16q1 6 1 15q0 22 -14.5 30.5t-53.5 9.5l13 67h579l-41 -191h-71q-11 67 -32.5 94.5t-77.5 27.5h-103l-49 -236h74q33 0 52.5 17t36.5 62h64l-48 -229h-64q0 45 -11.5 62
t-44.5 17h-74l-37 -177q-5 -22 -5 -35q0 -26 16.5 -35.5t52.5 -9.5h23q52 0 92 29.5t99 107.5h79z" />
    <glyph glyph-name="Ecircumflex" unicode="&#xca;" horiz-adv-x="674" 
d="M405 918h136l92 -169h-89l-88 80l-134 -80h-101zM570 0h-585l14 67q51 2 69.5 15.5t26.5 53.5l90 428l3 16q1 6 1 15q0 22 -14.5 30.5t-53.5 9.5l13 67h579l-41 -191h-71q-11 67 -32.5 94.5t-77.5 27.5h-103l-49 -236h74q33 0 52.5 17t36.5 62h64l-48 -229h-64
q0 45 -11.5 62t-44.5 17h-74l-37 -177q-5 -22 -5 -35q0 -26 16.5 -35.5t52.5 -9.5h23q52 0 92 29.5t99 107.5h79z" />
    <glyph glyph-name="Edieresis" unicode="&#xcb;" horiz-adv-x="674" 
d="M343 743q-39 0 -63 24.5t-24 58.5q0 38 26 65.5t67 27.5q39 0 62.5 -24t23.5 -58q0 -38 -25.5 -66t-66.5 -28zM562 743q-38 0 -62 24.5t-24 58.5q0 38 25.5 65.5t66.5 27.5q39 0 62.5 -24t23.5 -58q0 -38 -25.5 -66t-66.5 -28zM570 0h-585l14 67q51 2 69.5 15.5
t26.5 53.5l90 428l3 16q1 6 1 15q0 22 -14.5 30.5t-53.5 9.5l13 67h579l-41 -191h-71q-11 67 -32.5 94.5t-77.5 27.5h-103l-49 -236h74q33 0 52.5 17t36.5 62h64l-48 -229h-64q0 45 -11.5 62t-44.5 17h-74l-37 -177q-5 -22 -5 -35q0 -26 16.5 -35.5t52.5 -9.5h23
q52 0 92 29.5t99 107.5h79z" />
    <glyph glyph-name="Igrave" unicode="&#xcc;" horiz-adv-x="413" 
d="M284 751l-125 158h181l35 -158h-91zM375 566l-90 -428q-1 -3 -1.5 -8t-0.5 -8q-2 -12 -2 -15q0 -22 14.5 -30.5t53.5 -9.5l-13 -67h-351l14 67q51 2 69.5 15.5t26.5 53.5l90 428l3 16q1 6 1 15q0 22 -14.5 30.5t-53.5 9.5l13 67h350l-13 -67q-51 -2 -69.5 -15.5
t-26.5 -53.5z" />
    <glyph glyph-name="Iacute" unicode="&#xcd;" horiz-adv-x="413" 
d="M261 751l96 158h197l-194 -158h-99zM375 566l-90 -428q-1 -3 -1.5 -8t-0.5 -8q-2 -12 -2 -15q0 -22 14.5 -30.5t53.5 -9.5l-13 -67h-351l14 67q51 2 69.5 15.5t26.5 53.5l90 428l3 16q1 6 1 15q0 22 -14.5 30.5t-53.5 9.5l13 67h350l-13 -67q-51 -2 -69.5 -15.5
t-26.5 -53.5z" />
    <glyph glyph-name="Icircumflex" unicode="&#xce;" horiz-adv-x="413" 
d="M286 918h136l92 -169h-89l-88 80l-134 -80h-101zM375 566l-90 -428q-1 -3 -1.5 -8t-0.5 -8q-2 -12 -2 -15q0 -22 14.5 -30.5t53.5 -9.5l-13 -67h-351l14 67q51 2 69.5 15.5t26.5 53.5l90 428l3 16q1 6 1 15q0 22 -14.5 30.5t-53.5 9.5l13 67h350l-13 -67
q-51 -2 -69.5 -15.5t-26.5 -53.5z" />
    <glyph glyph-name="Idieresis" unicode="&#xcf;" horiz-adv-x="413" 
d="M224 743q-39 0 -63 24.5t-24 58.5q0 38 26 65.5t67 27.5q39 0 62.5 -24t23.5 -58q0 -38 -25.5 -66t-66.5 -28zM443 743q-38 0 -62 24.5t-24 58.5q0 38 25.5 65.5t66.5 27.5q39 0 62.5 -24t23.5 -58q0 -38 -25.5 -66t-66.5 -28zM375 566l-90 -428q-1 -3 -1.5 -8t-0.5 -8
q-2 -12 -2 -15q0 -22 14.5 -30.5t53.5 -9.5l-13 -67h-351l14 67q51 2 69.5 15.5t26.5 53.5l90 428l3 16q1 6 1 15q0 22 -14.5 30.5t-53.5 9.5l13 67h350l-13 -67q-51 -2 -69.5 -15.5t-26.5 -53.5z" />
    <glyph glyph-name="Eth" unicode="&#xd0;" horiz-adv-x="801" 
d="M145 327h-86l15 71h86l35 166l3 16q1 6 1 15q0 22 -14.5 30.5t-53.5 9.5l13 67h308q159 0 250.5 -76t91.5 -212q0 -184 -125 -298q-126 -116 -323 -116h-351l14 67q51 2 69.5 15.5t26.5 53.5zM437 631h-39l-49 -233h123l-15 -71h-123l-36 -175q-6 -26 -6 -42
q0 -22 13 -30.5t44 -8.5h11q115 0 180 129q54 105 54 233q0 198 -157 198z" />
    <glyph glyph-name="Ntilde" unicode="&#xd1;" horiz-adv-x="785" 
d="M676 900l58 -12q-46 -91 -77 -121q-32 -29 -74 -29q-26 0 -70 32q-45 31 -62 31q-14 0 -27 -9t-20 -17.5t-21 -28.5l-59 11q49 94 78 122t73 28q30 0 73 -31q42 -32 59 -32q32 0 69 56zM386 702l219 -409l56 271l3 16q1 6 1 15q0 22 -14.5 30.5t-53.5 9.5l13 67h249
l-13 -67q-51 -2 -69.5 -15.5t-27.5 -53.5l-118 -566h-79l-292 507l-77 -369q-1 -3 -1.5 -8t-0.5 -8q-2 -12 -2 -15q0 -22 14.5 -30.5t53.5 -9.5l-14 -67h-248l14 67q51 2 69.5 15.5t26.5 53.5l95 449q-15 29 -29 38t-41 12l14 67h252z" />
    <glyph glyph-name="Ograve" unicode="&#xd2;" horiz-adv-x="764" 
d="M453 751l-125 158h181l35 -158h-91zM350 -10q-135 0 -214 76.5t-79 208.5q0 82 29 161t82 139q120 137 296 137q135 0 214 -76.5t79 -208.5q0 -82 -29 -161t-82 -139q-120 -137 -296 -137zM354 61q89 0 149 139q52 121 52 259q0 89 -21.5 135.5t-73.5 46.5
q-88 0 -148 -139q-53 -123 -53 -259q0 -89 21.5 -135.5t73.5 -46.5z" />
    <glyph glyph-name="Oacute" unicode="&#xd3;" horiz-adv-x="764" 
d="M430 751l96 158h197l-194 -158h-99zM350 -10q-135 0 -214 76.5t-79 208.5q0 82 29 161t82 139q120 137 296 137q135 0 214 -76.5t79 -208.5q0 -82 -29 -161t-82 -139q-120 -137 -296 -137zM354 61q89 0 149 139q52 121 52 259q0 89 -21.5 135.5t-73.5 46.5
q-88 0 -148 -139q-53 -123 -53 -259q0 -89 21.5 -135.5t73.5 -46.5z" />
    <glyph glyph-name="Ocircumflex" unicode="&#xd4;" horiz-adv-x="764" 
d="M455 918h136l92 -169h-89l-88 80l-134 -80h-101zM350 -10q-135 0 -214 76.5t-79 208.5q0 82 29 161t82 139q120 137 296 137q135 0 214 -76.5t79 -208.5q0 -82 -29 -161t-82 -139q-120 -137 -296 -137zM354 61q89 0 149 139q52 121 52 259q0 89 -21.5 135.5t-73.5 46.5
q-88 0 -148 -139q-53 -123 -53 -259q0 -89 21.5 -135.5t73.5 -46.5z" />
    <glyph glyph-name="Otilde" unicode="&#xd5;" horiz-adv-x="764" 
d="M650 900l58 -12q-46 -91 -77 -121q-32 -29 -74 -29q-26 0 -70 32q-45 31 -62 31q-14 0 -27 -9t-20 -17.5t-21 -28.5l-59 11q49 94 78 122t73 28q30 0 73 -31q42 -32 59 -32q32 0 69 56zM350 -10q-135 0 -214 76.5t-79 208.5q0 82 29 161t82 139q120 137 296 137
q135 0 214 -76.5t79 -208.5q0 -82 -29 -161t-82 -139q-120 -137 -296 -137zM354 61q89 0 149 139q52 121 52 259q0 89 -21.5 135.5t-73.5 46.5q-88 0 -148 -139q-53 -123 -53 -259q0 -89 21.5 -135.5t73.5 -46.5z" />
    <glyph glyph-name="Odieresis" unicode="&#xd6;" horiz-adv-x="764" 
d="M393 743q-39 0 -63 24.5t-24 58.5q0 38 26 65.5t67 27.5q39 0 62.5 -24t23.5 -58q0 -38 -25.5 -66t-66.5 -28zM612 743q-38 0 -62 24.5t-24 58.5q0 38 25.5 65.5t66.5 27.5q39 0 62.5 -24t23.5 -58q0 -38 -25.5 -66t-66.5 -28zM350 -10q-135 0 -214 76.5t-79 208.5
q0 82 29 161t82 139q120 137 296 137q135 0 214 -76.5t79 -208.5q0 -82 -29 -161t-82 -139q-120 -137 -296 -137zM354 61q89 0 149 139q52 121 52 259q0 89 -21.5 135.5t-73.5 46.5q-88 0 -148 -139q-53 -123 -53 -259q0 -89 21.5 -135.5t73.5 -46.5z" />
    <glyph glyph-name="multiply" unicode="&#xd7;" horiz-adv-x="526" 
d="M63 232l160 133l-106 133l75 62l103 -134l161 134l53 -65l-162 -134l104 -132l-72 -60l-106 132l-159 -132z" />
    <glyph glyph-name="Oslash" unicode="&#xd8;" horiz-adv-x="764" 
d="M628 772l54 -30l-46 -74q121 -76 121 -241q0 -82 -29 -161t-82 -139q-120 -137 -296 -137q-64 0 -117 18l-56 -93l-54 30l54 89q-57 36 -88.5 98t-31.5 143q0 82 29 161t82 139q120 137 296 137q66 0 116 -18zM460 641q-46 0 -85 -37.5t-67 -100.5q-56 -123 -56 -253
q0 -55 5 -86l273 447q-24 30 -70 30zM557 537l-273 -447q23 -29 70 -29q46 0 85 38t68 101q55 123 55 254q0 43 -5 83z" />
    <glyph glyph-name="Ugrave" unicode="&#xd9;" horiz-adv-x="775" 
d="M508 751l-125 158h181l35 -158h-91zM598 275l62 289l3 16q1 6 1 15q0 22 -14.5 30.5t-53.5 9.5l13 67h249l-14 -67q-51 -2 -69.5 -15.5t-26.5 -53.5l-66 -320q-26 -127 -109.5 -191.5t-204.5 -64.5q-122 0 -193 57t-71 160q0 32 10 79l58 278l3 16q1 6 1 15
q0 22 -14.5 30.5t-53.5 9.5l13 67h351l-14 -67q-51 -2 -69.5 -15.5t-26.5 -53.5l-57 -269q-9 -45 -9 -72q0 -63 30.5 -97.5t86.5 -34.5q72 0 117.5 40t67.5 142z" />
    <glyph glyph-name="Uacute" unicode="&#xda;" horiz-adv-x="775" 
d="M485 751l96 158h197l-194 -158h-99zM598 275l62 289l3 16q1 6 1 15q0 22 -14.5 30.5t-53.5 9.5l13 67h249l-14 -67q-51 -2 -69.5 -15.5t-26.5 -53.5l-66 -320q-26 -127 -109.5 -191.5t-204.5 -64.5q-122 0 -193 57t-71 160q0 32 10 79l58 278l3 16q1 6 1 15
q0 22 -14.5 30.5t-53.5 9.5l13 67h351l-14 -67q-51 -2 -69.5 -15.5t-26.5 -53.5l-57 -269q-9 -45 -9 -72q0 -63 30.5 -97.5t86.5 -34.5q72 0 117.5 40t67.5 142z" />
    <glyph glyph-name="Ucircumflex" unicode="&#xdb;" horiz-adv-x="775" 
d="M510 918h136l92 -169h-89l-88 80l-134 -80h-101zM598 275l62 289l3 16q1 6 1 15q0 22 -14.5 30.5t-53.5 9.5l13 67h249l-14 -67q-51 -2 -69.5 -15.5t-26.5 -53.5l-66 -320q-26 -127 -109.5 -191.5t-204.5 -64.5q-122 0 -193 57t-71 160q0 32 10 79l58 278l3 16q1 6 1 15
q0 22 -14.5 30.5t-53.5 9.5l13 67h351l-14 -67q-51 -2 -69.5 -15.5t-26.5 -53.5l-57 -269q-9 -45 -9 -72q0 -63 30.5 -97.5t86.5 -34.5q72 0 117.5 40t67.5 142z" />
    <glyph glyph-name="Udieresis" unicode="&#xdc;" horiz-adv-x="775" 
d="M448 743q-39 0 -63 24.5t-24 58.5q0 38 26 65.5t67 27.5q39 0 62.5 -24t23.5 -58q0 -38 -25.5 -66t-66.5 -28zM667 743q-38 0 -62 24.5t-24 58.5q0 38 25.5 65.5t66.5 27.5q39 0 62.5 -24t23.5 -58q0 -38 -25.5 -66t-66.5 -28zM598 275l62 289l3 16q1 6 1 15
q0 22 -14.5 30.5t-53.5 9.5l13 67h249l-14 -67q-51 -2 -69.5 -15.5t-26.5 -53.5l-66 -320q-26 -127 -109.5 -191.5t-204.5 -64.5q-122 0 -193 57t-71 160q0 32 10 79l58 278l3 16q1 6 1 15q0 22 -14.5 30.5t-53.5 9.5l13 67h351l-14 -67q-51 -2 -69.5 -15.5t-26.5 -53.5
l-57 -269q-9 -45 -9 -72q0 -63 30.5 -97.5t86.5 -34.5q72 0 117.5 40t67.5 142z" />
    <glyph glyph-name="Yacute" unicode="&#xdd;" horiz-adv-x="692" 
d="M447 751l96 158h197l-194 -158h-99zM354 535l65 -195l148 196q36 47 36 65q0 33 -59 34l14 67h230l-14 -67q-43 -7 -67 -37l-263 -341l-26 -121l-2 -14q-1 -5 -1 -12q0 -24 17 -33t59 -10l-14 -67h-355l14 67q50 2 71 16t29 53l26 122l-118 340q-11 30 -48 37l14 67h324
l-14 -67q-76 0 -76 -52q0 -21 10 -48z" />
    <glyph glyph-name="Thorn" unicode="&#xde;" horiz-adv-x="684" 
d="M374 566l-2 -11h71q124 0 186 -47.5t62 -129.5q0 -226 -325 -226h-78l-1 -5q-1 -3 -1.5 -8t-0.5 -8q-2 -12 -2 -19q0 -32 24 -39q23 -8 81 -10l-12 -63h-391l14 67q51 2 69.5 15.5t26.5 53.5l90 428l3 16q1 6 1 15q0 22 -14.5 30.5t-53.5 9.5l13 67h350l-13 -67
q-51 -2 -70.5 -16t-26.5 -53zM380 484h-22l-57 -267h31q167 0 167 151q0 116 -119 116z" />
    <glyph glyph-name="germandbls" unicode="&#xdf;" horiz-adv-x="709" 
d="M123 482h-75l16 67h77q36 105 116.5 163t200.5 58q87 0 139 -34t52 -97q0 -45 -26 -75t-78 -55l-8 -4t-8 -3.5t-7.5 -3.5t-7.5 -4.5t-6 -4t-5.5 -4.5t-4 -5t-3.5 -6t-2 -7t-1 -8q0 -22 29 -49q95 -90 128 -135q29 -41 29 -87q0 -88 -63.5 -143t-159.5 -55
q-78 0 -121.5 32.5t-43.5 83.5q0 28 17 48.5t44 29.5h28q13 -144 99 -144q26 0 40.5 14.5t14.5 38.5q0 25 -26 54q-84 91 -115 139q-27 40 -27 88q0 73 84 143q70 59 70 125q0 78 -68 78q-49 0 -75.5 -29.5t-38.5 -86.5l-75 -357q-52 -250 -133 -352q-79 -102 -183 -102
q-57 0 -92 22t-35 59q0 34 22.5 54.5t56.5 24.5h28q2 -51 11 -82q10 -34 32 -34q24 0 36 38q14 49 28 127z" />
    <glyph glyph-name="agrave" unicode="&#xe0;" horiz-adv-x="694" 
d="M386 606l-125 160h181l35 -160h-91zM482 505l105 54h71l-41 -141l-66 -268q-8 -30 -8 -41q0 -15 14 -15q13 0 33 20q21 21 46 53l32 -27q-53 -76 -100.5 -113t-101.5 -37q-46 0 -73 30t-27 78q0 22 8 48q14 45 19 64h-7q-46 -100 -89 -149q-64 -71 -136 -71
q-60 0 -97.5 48t-37.5 128q0 69 24.5 139.5t68.5 126.5q100 127 245 127q67 0 118 -54zM249 111q49 0 108 104q56 100 85 238q-7 18 -11 26t-14 14.5t-26 6.5q-76 0 -132 -110q-53 -101 -53 -208q0 -71 43 -71z" />
    <glyph glyph-name="aacute" unicode="&#xe1;" horiz-adv-x="694" 
d="M365 606l96 160h197l-195 -160h-98zM482 505l105 54h71l-41 -141l-66 -268q-8 -30 -8 -41q0 -15 14 -15q13 0 33 20q21 21 46 53l32 -27q-53 -76 -100.5 -113t-101.5 -37q-46 0 -73 30t-27 78q0 22 8 48q14 45 19 64h-7q-46 -100 -89 -149q-64 -71 -136 -71
q-60 0 -97.5 48t-37.5 128q0 69 24.5 139.5t68.5 126.5q100 127 245 127q67 0 118 -54zM249 111q49 0 108 104q56 100 85 238q-7 18 -11 26t-14 14.5t-26 6.5q-76 0 -132 -110q-53 -101 -53 -208q0 -71 43 -71z" />
    <glyph glyph-name="acircumflex" unicode="&#xe2;" horiz-adv-x="694" 
d="M392 766h136l92 -169h-89l-88 80l-134 -80h-101zM482 505l105 54h71l-41 -141l-66 -268q-8 -30 -8 -41q0 -15 14 -15q13 0 33 20q21 21 46 53l32 -27q-53 -76 -100.5 -113t-101.5 -37q-46 0 -73 30t-27 78q0 22 8 48q14 45 19 64h-7q-46 -100 -89 -149q-64 -71 -136 -71
q-60 0 -97.5 48t-37.5 128q0 69 24.5 139.5t68.5 126.5q100 127 245 127q67 0 118 -54zM249 111q49 0 108 104q56 100 85 238q-7 18 -11 26t-14 14.5t-26 6.5q-76 0 -132 -110q-53 -101 -53 -208q0 -71 43 -71z" />
    <glyph glyph-name="atilde" unicode="&#xe3;" horiz-adv-x="694" 
d="M586 771l58 -11q-46 -91 -77 -121q-32 -29 -74 -29q-26 0 -70 32q-45 31 -62 31q-14 0 -26.5 -8.5t-20.5 -18.5t-21 -29l-59 12q49 94 78 122t73 28q30 0 73 -31q42 -32 59 -32q32 0 69 55zM482 505l105 54h71l-41 -141l-66 -268q-8 -30 -8 -41q0 -15 14 -15q13 0 33 20
q21 21 46 53l32 -27q-53 -76 -100.5 -113t-101.5 -37q-46 0 -73 30t-27 78q0 22 8 48q14 45 19 64h-7q-46 -100 -89 -149q-64 -71 -136 -71q-60 0 -97.5 48t-37.5 128q0 69 24.5 139.5t68.5 126.5q100 127 245 127q67 0 118 -54zM249 111q49 0 108 104q56 100 85 238
q-7 18 -11 26t-14 14.5t-26 6.5q-76 0 -132 -110q-53 -101 -53 -208q0 -71 43 -71z" />
    <glyph glyph-name="adieresis" unicode="&#xe4;" horiz-adv-x="694" 
d="M327 603q-39 0 -63 24.5t-24 58.5q0 38 26 65.5t67 27.5q39 0 62.5 -24t23.5 -58q0 -38 -25.5 -66t-66.5 -28zM546 603q-38 0 -62 24.5t-24 58.5q0 38 25.5 65.5t66.5 27.5q39 0 62.5 -24t23.5 -58q0 -38 -25.5 -66t-66.5 -28zM482 505l105 54h71l-41 -141l-66 -268
q-8 -30 -8 -41q0 -15 14 -15q13 0 33 20q21 21 46 53l32 -27q-53 -76 -100.5 -113t-101.5 -37q-46 0 -73 30t-27 78q0 22 8 48q14 45 19 64h-7q-46 -100 -89 -149q-64 -71 -136 -71q-60 0 -97.5 48t-37.5 128q0 69 24.5 139.5t68.5 126.5q100 127 245 127q67 0 118 -54z
M249 111q49 0 108 104q56 100 85 238q-7 18 -11 26t-14 14.5t-26 6.5q-76 0 -132 -110q-53 -101 -53 -208q0 -71 43 -71z" />
    <glyph glyph-name="aring" unicode="&#xe5;" horiz-adv-x="694" 
d="M431 597q-45 0 -74.5 26.5t-29.5 66.5q0 46 36.5 77.5t86.5 31.5q45 0 74.5 -26.5t29.5 -66.5q0 -46 -36.5 -77.5t-86.5 -31.5zM436 654q24 0 37.5 14.5t13.5 34.5q0 18 -11 28.5t-31 10.5q-24 0 -37.5 -14t-13.5 -34q0 -18 11 -29t31 -11zM482 505l105 54h71l-41 -141
l-66 -268q-8 -30 -8 -41q0 -15 14 -15q13 0 33 20q21 21 46 53l32 -27q-53 -76 -100.5 -113t-101.5 -37q-46 0 -73 30t-27 78q0 22 8 48q14 45 19 64h-7q-46 -100 -89 -149q-64 -71 -136 -71q-60 0 -97.5 48t-37.5 128q0 69 24.5 139.5t68.5 126.5q100 127 245 127
q67 0 118 -54zM249 111q49 0 108 104q56 100 85 238q-7 18 -11 26t-14 14.5t-26 6.5q-76 0 -132 -110q-53 -101 -53 -208q0 -71 43 -71z" />
    <glyph glyph-name="ae" unicode="&#xe6;" horiz-adv-x="865" 
d="M357 559q94 0 145 -75q95 75 208 75q70 0 110 -36t40 -87q0 -77 -83 -125.5t-243 -77.5v-14q0 -58 26.5 -93.5t71.5 -35.5q44 0 79.5 20t75.5 66l28 -27q-45 -78 -115 -118.5t-142 -40.5q-82 0 -133.5 47.5t-61.5 125.5q-92 -173 -202 -173q-60 0 -97.5 48t-37.5 128
q0 145 92 266q44 58 106.5 92.5t132.5 34.5zM249 111q24 0 54.5 30.5t58.5 82.5q8 127 103 226q-26 54 -73 54q-75 0 -133 -112q-53 -103 -53 -210q0 -71 43 -71zM685 498q-49 0 -93 -72q-42 -69 -54 -154q93 28 136.5 70.5t43.5 103.5q0 52 -33 52z" />
    <glyph glyph-name="ccedilla" unicode="&#xe7;" horiz-adv-x="510" 
d="M76 -233l-11 49q55 0 88 10q34 9 34 29q0 34 -76 36l52 106q-65 17 -101 70.5t-36 129.5q0 140 96 249q100 113 247 113q64 0 104 -26t40 -78q0 -66 -64 -82h-58q14 126 -38 126q-58 0 -103 -95q-44 -93 -44 -185q0 -57 22.5 -88.5t62.5 -31.5q77 0 144 77l27 -27
q-44 -78 -106.5 -118.5t-133.5 -40.5h-13l-17 -34q86 -7 86 -78q0 -52 -63 -83q-56 -28 -139 -28z" />
    <glyph glyph-name="egrave" unicode="&#xe8;" horiz-adv-x="530" 
d="M322 606l-125 160h181l35 -160h-91zM525 436q0 -77 -83 -125.5t-243 -77.5v-14q0 -58 26.5 -93.5t71.5 -35.5q44 0 79.5 20t75.5 66l28 -27q-45 -78 -115 -118.5t-142 -40.5q-91 0 -144 58t-53 150q0 138 101 249q104 112 248 112q70 0 110 -36t40 -87zM350 498
q-49 0 -93 -72q-42 -69 -54 -154q93 28 136.5 70.5t43.5 103.5q0 52 -33 52z" />
    <glyph glyph-name="eacute" unicode="&#xe9;" horiz-adv-x="530" 
d="M301 606l96 160h197l-195 -160h-98zM525 436q0 -77 -83 -125.5t-243 -77.5v-14q0 -58 26.5 -93.5t71.5 -35.5q44 0 79.5 20t75.5 66l28 -27q-45 -78 -115 -118.5t-142 -40.5q-91 0 -144 58t-53 150q0 138 101 249q104 112 248 112q70 0 110 -36t40 -87zM350 498
q-49 0 -93 -72q-42 -69 -54 -154q93 28 136.5 70.5t43.5 103.5q0 52 -33 52z" />
    <glyph glyph-name="ecircumflex" unicode="&#xea;" horiz-adv-x="530" 
d="M328 766h136l92 -169h-89l-88 80l-134 -80h-101zM525 436q0 -77 -83 -125.5t-243 -77.5v-14q0 -58 26.5 -93.5t71.5 -35.5q44 0 79.5 20t75.5 66l28 -27q-45 -78 -115 -118.5t-142 -40.5q-91 0 -144 58t-53 150q0 138 101 249q104 112 248 112q70 0 110 -36t40 -87z
M350 498q-49 0 -93 -72q-42 -69 -54 -154q93 28 136.5 70.5t43.5 103.5q0 52 -33 52z" />
    <glyph glyph-name="edieresis" unicode="&#xeb;" horiz-adv-x="530" 
d="M263 603q-39 0 -63 24.5t-24 58.5q0 38 26 65.5t67 27.5q39 0 62.5 -24t23.5 -58q0 -38 -25.5 -66t-66.5 -28zM482 603q-38 0 -62 24.5t-24 58.5q0 38 25.5 65.5t66.5 27.5q39 0 62.5 -24t23.5 -58q0 -38 -25.5 -66t-66.5 -28zM525 436q0 -77 -83 -125.5t-243 -77.5v-14
q0 -58 26.5 -93.5t71.5 -35.5q44 0 79.5 20t75.5 66l28 -27q-45 -78 -115 -118.5t-142 -40.5q-91 0 -144 58t-53 150q0 138 101 249q104 112 248 112q70 0 110 -36t40 -87zM350 498q-49 0 -93 -72q-42 -69 -54 -154q93 28 136.5 70.5t43.5 103.5q0 52 -33 52z" />
    <glyph glyph-name="igrave" unicode="&#xec;" horiz-adv-x="370" 
d="M216 606l-125 160h181l35 -160h-91zM293 559h35l-103 -409q-8 -30 -8 -41q0 -15 14 -15t34 20q21 21 46 53l31 -27q-51 -75 -99 -112.5t-102 -37.5q-46 0 -75 27t-29 67q0 32 13 86l66 269l-50 47l9 34z" />
    <glyph glyph-name="iacute" unicode="&#xed;" horiz-adv-x="370" 
d="M185 606l96 160h197l-195 -160h-98zM293 559h35l-103 -409q-8 -30 -8 -41q0 -15 14 -15t34 20q21 21 46 53l31 -27q-51 -75 -99 -112.5t-102 -37.5q-46 0 -75 27t-29 67q0 32 13 86l66 269l-50 47l9 34z" />
    <glyph glyph-name="icircumflex" unicode="&#xee;" horiz-adv-x="370" 
d="M222 766h136l92 -169h-89l-88 80l-134 -80h-101zM293 559h35l-103 -409q-8 -30 -8 -41q0 -15 14 -15t34 20q21 21 46 53l31 -27q-51 -75 -99 -112.5t-102 -37.5q-46 0 -75 27t-29 67q0 32 13 86l66 269l-50 47l9 34z" />
    <glyph glyph-name="idieresis" unicode="&#xef;" horiz-adv-x="370" 
d="M157 603q-39 0 -63 24.5t-24 58.5q0 38 26 65.5t67 27.5q39 0 62.5 -24t23.5 -58q0 -38 -25.5 -66t-66.5 -28zM376 603q-38 0 -62 24.5t-24 58.5q0 38 25.5 65.5t66.5 27.5q39 0 62.5 -24t23.5 -58q0 -38 -25.5 -66t-66.5 -28zM293 559h35l-103 -409q-8 -30 -8 -41
q0 -15 14 -15t34 20q21 21 46 53l31 -27q-51 -75 -99 -112.5t-102 -37.5q-46 0 -75 27t-29 67q0 32 13 86l66 269l-50 47l9 34z" />
    <glyph glyph-name="eth" unicode="&#xf0;" horiz-adv-x="606" 
d="M337 632l-160 -62l-19 44l142 55q-40 31 -115 66l30 41q106 -22 180 -70l116 45l19 -44l-89 -35q71 -60 105.5 -143.5t34.5 -172.5q0 -161 -91 -261q-94 -105 -240 -105q-98 0 -160 62.5t-62 167.5q0 141 90.5 233t230.5 92q2 0 35 -3q-12 48 -47 90zM403 384q0 50 -6 92
q-13 6 -40 6q-66 0 -112 -114q-40 -100 -40 -203q0 -112 50 -112q64 0 109 122q39 105 39 209z" />
    <glyph glyph-name="ntilde" unicode="&#xf1;" horiz-adv-x="689" 
d="M587 771l58 -11q-46 -91 -77 -121q-32 -29 -74 -29q-26 0 -70 32q-45 31 -62 31q-14 0 -26.5 -8.5t-20.5 -18.5t-21 -29l-59 12q49 94 78 122t73 28q30 0 73 -31q42 -32 59 -32q32 0 69 55zM299 562h36l-27 -105l-56 -158h7q152 260 287 260q41 0 63.5 -24t22.5 -64
q0 -18 -6 -44l-75 -277q-9 -34 -9 -41q0 -15 14 -15q13 0 33 20q18 18 47 53l31 -27q-53 -75 -101 -112.5t-100 -37.5q-47 0 -76.5 27t-29.5 67q0 35 14 86l64 220q5 22 5 33q0 18 -17 18q-14 0 -40 -24q-60 -55 -113 -164q-26 -50 -44 -118l-35 -135h-181l109 439l-51 47
l10 34z" />
    <glyph glyph-name="ograve" unicode="&#xf2;" horiz-adv-x="608" 
d="M339 606l-125 160h181l35 -160h-91zM250 -10q-98 0 -160 62.5t-62 167.5q0 143 91 240q94 99 239 99q98 0 160 -62.5t62 -167.5q0 -143 -91 -239q-93 -100 -239 -100zM255 53q64 0 109 122q39 105 39 209q0 112 -50 112q-64 0 -109 -121q-39 -106 -39 -210
q0 -112 50 -112z" />
    <glyph glyph-name="oacute" unicode="&#xf3;" horiz-adv-x="608" 
d="M318 606l96 160h197l-195 -160h-98zM250 -10q-98 0 -160 62.5t-62 167.5q0 143 91 240q94 99 239 99q98 0 160 -62.5t62 -167.5q0 -143 -91 -239q-93 -100 -239 -100zM255 53q64 0 109 122q39 105 39 209q0 112 -50 112q-64 0 -109 -121q-39 -106 -39 -210
q0 -112 50 -112z" />
    <glyph glyph-name="ocircumflex" unicode="&#xf4;" horiz-adv-x="608" 
d="M345 766h136l92 -169h-89l-88 80l-134 -80h-101zM250 -10q-98 0 -160 62.5t-62 167.5q0 143 91 240q94 99 239 99q98 0 160 -62.5t62 -167.5q0 -143 -91 -239q-93 -100 -239 -100zM255 53q64 0 109 122q39 105 39 209q0 112 -50 112q-64 0 -109 -121q-39 -106 -39 -210
q0 -112 50 -112z" />
    <glyph glyph-name="otilde" unicode="&#xf5;" horiz-adv-x="608" 
d="M539 771l58 -11q-46 -91 -77 -121q-32 -29 -74 -29q-26 0 -70 32q-45 31 -62 31q-14 0 -26.5 -8.5t-20.5 -18.5t-21 -29l-59 12q49 94 78 122t73 28q30 0 73 -31q42 -32 59 -32q32 0 69 55zM250 -10q-98 0 -160 62.5t-62 167.5q0 143 91 240q94 99 239 99q98 0 160 -62.5
t62 -167.5q0 -143 -91 -239q-93 -100 -239 -100zM255 53q64 0 109 122q39 105 39 209q0 112 -50 112q-64 0 -109 -121q-39 -106 -39 -210q0 -112 50 -112z" />
    <glyph glyph-name="odieresis" unicode="&#xf6;" horiz-adv-x="608" 
d="M275 603q-39 0 -63 24.5t-24 58.5q0 38 26 65.5t67 27.5q39 0 62.5 -24t23.5 -58q0 -38 -25.5 -66t-66.5 -28zM494 603q-38 0 -62 24.5t-24 58.5q0 38 25.5 65.5t66.5 27.5q39 0 62.5 -24t23.5 -58q0 -38 -25.5 -66t-66.5 -28zM250 -10q-98 0 -160 62.5t-62 167.5
q0 143 91 240q94 99 239 99q98 0 160 -62.5t62 -167.5q0 -143 -91 -239q-93 -100 -239 -100zM255 53q64 0 109 122q39 105 39 209q0 112 -50 112q-64 0 -109 -121q-39 -106 -39 -210q0 -112 50 -112z" />
    <glyph glyph-name="divide" unicode="&#xf7;" horiz-adv-x="603" 
d="M289 550q0 29 20.5 49.5t48.5 20.5q30 0 51 -20.5t21 -49.5t-21 -50.5t-51 -21.5q-28 0 -48.5 21.5t-20.5 50.5zM540 318h-460l20 93h459zM210 179q0 30 20.5 50t48.5 20q30 0 50.5 -20t20.5 -50t-20.5 -50.5t-50.5 -20.5q-28 0 -48.5 20.5t-20.5 50.5z" />
    <glyph glyph-name="oslash" unicode="&#xf8;" horiz-adv-x="622" 
d="M516 619l43 -28l-52 -77q85 -64 85 -185q0 -144 -93 -239q-97 -100 -242 -100q-49 0 -95 18l-68 -100l-43 28l66 97q-87 64 -87 187q0 144 93 240q97 99 242 99q55 0 97 -19zM197 165v-14l214 314q-15 31 -54 31q-64 0 -115 -121q-45 -109 -45 -210zM425 384v10
l-212 -311q17 -30 52 -30q65 0 115 122q45 108 45 209z" />
    <glyph glyph-name="ugrave" unicode="&#xf9;" horiz-adv-x="701" 
d="M378 606l-125 160h181l35 -160h-91zM407 243h-7q-138 -253 -265 -253q-49 0 -73.5 26t-24.5 72q0 26 8 60l70 291l-50 47l10 34l217 39h35l-100 -395q-4 -17 -4 -30q0 -23 17 -23q16 0 45 27q59 58 114 170q28 60 40 111l31 120l183 10l-100 -399q-8 -30 -8 -41
q0 -15 14 -15t34 20q21 21 46 53l31 -27q-52 -76 -98.5 -113t-100.5 -37q-47 0 -72.5 29.5t-25.5 78.5q0 38 34 145z" />
    <glyph glyph-name="uacute" unicode="&#xfa;" horiz-adv-x="701" 
d="M357 606l96 160h197l-195 -160h-98zM407 243h-7q-138 -253 -265 -253q-49 0 -73.5 26t-24.5 72q0 26 8 60l70 291l-50 47l10 34l217 39h35l-100 -395q-4 -17 -4 -30q0 -23 17 -23q16 0 45 27q59 58 114 170q28 60 40 111l31 120l183 10l-100 -399q-8 -30 -8 -41
q0 -15 14 -15t34 20q21 21 46 53l31 -27q-52 -76 -98.5 -113t-100.5 -37q-47 0 -72.5 29.5t-25.5 78.5q0 38 34 145z" />
    <glyph glyph-name="ucircumflex" unicode="&#xfb;" horiz-adv-x="701" 
d="M384 766h136l92 -169h-89l-88 80l-134 -80h-101zM407 243h-7q-138 -253 -265 -253q-49 0 -73.5 26t-24.5 72q0 26 8 60l70 291l-50 47l10 34l217 39h35l-100 -395q-4 -17 -4 -30q0 -23 17 -23q16 0 45 27q59 58 114 170q28 60 40 111l31 120l183 10l-100 -399
q-8 -30 -8 -41q0 -15 14 -15t34 20q21 21 46 53l31 -27q-52 -76 -98.5 -113t-100.5 -37q-47 0 -72.5 29.5t-25.5 78.5q0 38 34 145z" />
    <glyph glyph-name="udieresis" unicode="&#xfc;" horiz-adv-x="701" 
d="M319 603q-39 0 -63 24.5t-24 58.5q0 38 26 65.5t67 27.5q39 0 62.5 -24t23.5 -58q0 -38 -25.5 -66t-66.5 -28zM538 603q-38 0 -62 24.5t-24 58.5q0 38 25.5 65.5t66.5 27.5q39 0 62.5 -24t23.5 -58q0 -38 -25.5 -66t-66.5 -28zM407 243h-7q-138 -253 -265 -253
q-49 0 -73.5 26t-24.5 72q0 26 8 60l70 291l-50 47l10 34l217 39h35l-100 -395q-4 -17 -4 -30q0 -23 17 -23q16 0 45 27q59 58 114 170q28 60 40 111l31 120l183 10l-100 -399q-8 -30 -8 -41q0 -15 14 -15t34 20q21 21 46 53l31 -27q-52 -76 -98.5 -113t-100.5 -37
q-47 0 -72.5 29.5t-25.5 78.5q0 38 34 145z" />
    <glyph glyph-name="yacute" unicode="&#xfd;" horiz-adv-x="569" 
d="M293 606l96 160h197l-195 -160h-98zM363 58q-112 -144 -193.5 -204t-159.5 -60q-50 0 -83.5 23.5t-33.5 67.5q0 27 17 48.5t46 31.5h32q0 -48 18 -73t60 -25q59 0 130 70l-117 508l-61 41l10 34l185 39h35l85 -457l3 3q102 140 102 272q0 45 -23 68.5t-64 23.5l1 19
q44 71 121 71q45 0 68.5 -30.5t23.5 -73.5q0 -83 -53 -178.5t-149 -218.5z" />
    <glyph glyph-name="thorn" unicode="&#xfe;" horiz-adv-x="658" 
d="M-13 -75l172 716l-61 44l10 34l228 42h35l-75 -303l-57 -157h7q48 103 102 169q75 89 151 89q67 0 100 -46t33 -130q0 -69 -25 -139.5t-69 -126.5q-102 -127 -246 -127q-34 0 -60 15.5t-37 35.5l-24 -107l-3 -17q-2 -10 -2 -14q1 -19 13 -25.5t41 -9.5l-16 -65h-306
l15 65q36 4 51 14.5t23 42.5zM204 104q23 -58 59 -58q37 0 72 30.5t62 81.5q54 100 54 207q0 73 -44 73q-49 0 -112 -104q-62 -103 -91 -230z" />
    <glyph glyph-name="ydieresis" unicode="&#xff;" horiz-adv-x="569" 
d="M255 603q-39 0 -63 24.5t-24 58.5q0 38 26 65.5t67 27.5q39 0 62.5 -24t23.5 -58q0 -38 -25.5 -66t-66.5 -28zM474 603q-38 0 -62 24.5t-24 58.5q0 38 25.5 65.5t66.5 27.5q39 0 62.5 -24t23.5 -58q0 -38 -25.5 -66t-66.5 -28zM363 58q-112 -144 -193.5 -204t-159.5 -60
q-50 0 -83.5 23.5t-33.5 67.5q0 27 17 48.5t46 31.5h32q0 -48 18 -73t60 -25q59 0 130 70l-117 508l-61 41l10 34l185 39h35l85 -457l3 3q102 140 102 272q0 45 -23 68.5t-64 23.5l1 19q44 71 121 71q45 0 68.5 -30.5t23.5 -73.5q0 -83 -53 -178.5t-149 -218.5z" />
    <glyph glyph-name="Amacron" unicode="&#x100;" horiz-adv-x="759" 
d="M621 758h-318l24 106h318zM462 151l-12 63h-255l-39 -63q-18 -30 -18 -49q0 -16 14 -25q13 -9 50 -10l-14 -67h-226l14 67q46 8 64 37l327 520l-18 79h190l128 -599q6 -31 51 -37l-13 -67h-334l14 67q44 2 63 12t19 33q0 17 -5 39zM437 282l-46 247l-154 -247h200z" />
    <glyph glyph-name="amacron" unicode="&#x101;" horiz-adv-x="694" 
d="M578 626h-308l23 101h308zM482 505l105 54h71l-41 -141l-66 -268q-8 -30 -8 -41q0 -15 14 -15q13 0 33 20q21 21 46 53l32 -27q-53 -76 -100.5 -113t-101.5 -37q-46 0 -73 30t-27 78q0 22 8 48q14 45 19 64h-7q-46 -100 -89 -149q-64 -71 -136 -71q-60 0 -97.5 48
t-37.5 128q0 69 24.5 139.5t68.5 126.5q100 127 245 127q67 0 118 -54zM249 111q49 0 108 104q56 100 85 238q-7 18 -11 26t-14 14.5t-26 6.5q-76 0 -132 -110q-53 -101 -53 -208q0 -71 43 -71z" />
    <glyph glyph-name="Abreve" unicode="&#x102;" horiz-adv-x="759" 
d="M462 746q-59 0 -93 30.5t-34 81.5q0 29 11 58h66q-1 -3 -1 -7v-7q0 -64 71 -64q73 0 105 78h74q-20 -80 -72.5 -125t-126.5 -45zM462 151l-12 63h-255l-39 -63q-18 -30 -18 -49q0 -16 14 -25q13 -9 50 -10l-14 -67h-226l14 67q46 8 64 37l327 520l-18 79h190l128 -599
q6 -31 51 -37l-13 -67h-334l14 67q44 2 63 12t19 33q0 17 -5 39zM437 282l-46 247l-154 -247h200z" />
    <glyph glyph-name="abreve" unicode="&#x103;" horiz-adv-x="694" 
d="M418 603q-59 0 -93 30.5t-34 81.5q0 29 11 58h66q-1 -3 -1 -7v-7q0 -64 71 -64q73 0 105 78h74q-20 -80 -72.5 -125t-126.5 -45zM482 505l105 54h71l-41 -141l-66 -268q-8 -30 -8 -41q0 -15 14 -15q13 0 33 20q21 21 46 53l32 -27q-53 -76 -100.5 -113t-101.5 -37
q-46 0 -73 30t-27 78q0 22 8 48q14 45 19 64h-7q-46 -100 -89 -149q-64 -71 -136 -71q-60 0 -97.5 48t-37.5 128q0 69 24.5 139.5t68.5 126.5q100 127 245 127q67 0 118 -54zM249 111q49 0 108 104q56 100 85 238q-7 18 -11 26t-14 14.5t-26 6.5q-76 0 -132 -110
q-53 -101 -53 -208q0 -71 43 -71z" />
    <glyph glyph-name="Aogonek" unicode="&#x104;" horiz-adv-x="759" 
d="M462 151l-12 63h-255l-39 -63q-18 -30 -18 -49q0 -16 14 -25q13 -9 50 -10l-14 -67h-226l14 67q46 8 64 37l327 520l-18 79h190l128 -599q6 -31 51 -37l-13 -67h-290q-80 -51 -80 -99q0 -39 39 -39q29 0 72 25l16 -28q-80 -75 -155 -75q-37 0 -61.5 19.5t-24.5 52.5
q0 27 11.5 50t38.5 45t45 33.5t58 34.5q57 33 75 51t18 42q0 17 -5 39zM437 282l-46 247l-154 -247h200z" />
    <glyph glyph-name="aogonek" unicode="&#x105;" horiz-adv-x="694" 
d="M482 505l105 54h71l-41 -141l-65 -263q-8 -30 -8 -41q0 -15 14 -15q13 0 33 17q18 16 45 51l32 -27q-72 -90 -166 -162q-24 -19 -33.5 -27t-18 -21.5t-8.5 -28.5q0 -39 39 -39q29 0 72 25l16 -28q-80 -75 -155 -75q-37 0 -61.5 20t-24.5 53q0 83 106 141q-68 19 -68 100
q0 22 8 48q14 45 19 64h-7q-46 -100 -89 -149q-64 -71 -136 -71q-60 0 -97.5 48t-37.5 128q0 69 24.5 139.5t68.5 126.5q100 127 245 127q67 0 118 -54zM249 111q49 0 108 104q56 100 85 238q-7 18 -11 26t-14 14.5t-26 6.5q-76 0 -132 -110q-53 -101 -53 -208q0 -71 43 -71
z" />
    <glyph glyph-name="Cacute" unicode="&#x106;" horiz-adv-x="704" 
d="M460 751l96 158h197l-194 -158h-99zM367 -10q-150 0 -232 82q-78 76 -78 200q0 192 127 316t312 124q146 0 226 -77l-34 -159h-93q-4 84 -25 125t-76 41q-53 0 -97.5 -34.5t-75.5 -93.5q-63 -120 -63 -264q0 -185 121 -185q60 0 100 41.5t89 141.5h95l-43 -192
q-109 -66 -253 -66z" />
    <glyph glyph-name="cacute" unicode="&#x107;" horiz-adv-x="510" 
d="M313 606l96 160h197l-195 -160h-98zM353 499q-58 0 -103 -95q-44 -93 -44 -185q0 -57 22.5 -88.5t62.5 -31.5q77 0 144 77l27 -27q-44 -78 -106.5 -118.5t-133.5 -40.5q-91 0 -143.5 57.5t-52.5 149.5q0 140 96 249q100 113 247 113q64 0 104 -26t40 -78q0 -66 -64 -82
h-58q14 126 -38 126z" />
    <glyph glyph-name="Ccircumflex" unicode="&#x108;" horiz-adv-x="704" 
d="M485 918h136l92 -169h-89l-88 80l-134 -80h-101zM367 -10q-150 0 -232 82q-78 76 -78 200q0 192 127 316t312 124q146 0 226 -77l-34 -159h-93q-4 84 -25 125t-76 41q-53 0 -97.5 -34.5t-75.5 -93.5q-63 -120 -63 -264q0 -185 121 -185q60 0 100 41.5t89 141.5h95
l-43 -192q-109 -66 -253 -66z" />
    <glyph glyph-name="ccircumflex" unicode="&#x109;" horiz-adv-x="510" 
d="M340 766h136l92 -169h-89l-88 80l-134 -80h-101zM353 499q-58 0 -103 -95q-44 -93 -44 -185q0 -57 22.5 -88.5t62.5 -31.5q77 0 144 77l27 -27q-44 -78 -106.5 -118.5t-133.5 -40.5q-91 0 -143.5 57.5t-52.5 149.5q0 140 96 249q100 113 247 113q64 0 104 -26t40 -78
q0 -66 -64 -82h-58q14 126 -38 126z" />
    <glyph glyph-name="Cdotaccent" unicode="&#x10a;" horiz-adv-x="704" 
d="M532 744q-44 0 -70 25.5t-26 62.5q0 41 28.5 70t75.5 29q43 0 69.5 -25.5t26.5 -61.5q0 -41 -28.5 -70.5t-75.5 -29.5zM367 -10q-150 0 -232 82q-78 76 -78 200q0 192 127 316t312 124q146 0 226 -77l-34 -159h-93q-4 84 -25 125t-76 41q-53 0 -97.5 -34.5t-75.5 -93.5
q-63 -120 -63 -264q0 -185 121 -185q60 0 100 41.5t89 141.5h95l-43 -192q-109 -66 -253 -66z" />
    <glyph glyph-name="cdotaccent" unicode="&#x10b;" horiz-adv-x="510" 
d="M383 599q-44 0 -70 25.5t-26 62.5q0 41 28.5 70t75.5 29q43 0 69.5 -25.5t26.5 -61.5q0 -41 -28.5 -70.5t-75.5 -29.5zM353 499q-58 0 -103 -95q-44 -93 -44 -185q0 -57 22.5 -88.5t62.5 -31.5q77 0 144 77l27 -27q-44 -78 -106.5 -118.5t-133.5 -40.5q-91 0 -143.5 57.5
t-52.5 149.5q0 140 96 249q100 113 247 113q64 0 104 -26t40 -78q0 -66 -64 -82h-58q14 126 -38 126z" />
    <glyph glyph-name="Ccaron" unicode="&#x10c;" horiz-adv-x="704" 
d="M585 752h-136l-92 169h89l88 -80l134 80h101zM367 -10q-150 0 -232 82q-78 76 -78 200q0 192 127 316t312 124q146 0 226 -77l-34 -159h-93q-4 84 -25 125t-76 41q-53 0 -97.5 -34.5t-75.5 -93.5q-63 -120 -63 -264q0 -185 121 -185q60 0 100 41.5t89 141.5h95l-43 -192
q-109 -66 -253 -66z" />
    <glyph glyph-name="ccaron" unicode="&#x10d;" horiz-adv-x="510" 
d="M438 606h-136l-92 169h89l88 -80l134 80h101zM353 499q-58 0 -103 -95q-44 -93 -44 -185q0 -57 22.5 -88.5t62.5 -31.5q77 0 144 77l27 -27q-44 -78 -106.5 -118.5t-133.5 -40.5q-91 0 -143.5 57.5t-52.5 149.5q0 140 96 249q100 113 247 113q64 0 104 -26t40 -78
q0 -66 -64 -82h-58q14 126 -38 126z" />
    <glyph glyph-name="Dcaron" unicode="&#x10e;" horiz-adv-x="791" 
d="M536 752h-136l-92 169h89l88 -80l134 80h101zM336 0h-351l14 67q51 2 69.5 15.5t26.5 53.5l90 428l3 16q1 6 1 15q0 22 -14.5 30.5t-53.5 9.5l13 67h308q159 0 250.5 -76t91.5 -212q0 -184 -125 -298q-126 -116 -323 -116zM427 631h-39l-100 -479q-6 -26 -6 -42
q0 -22 13 -30.5t44 -8.5h11q115 0 180 129q54 105 54 233q0 198 -157 198z" />
    <glyph glyph-name="dcaron" unicode="&#x10f;" horiz-adv-x="708" 
d="M773 766h158l-133 -205h-76zM466 520l29 121l-61 44l10 34l224 42h35l-146 -611q-8 -30 -8 -41q0 -15 14 -15q13 0 33 20q18 18 47 53l31 -27q-53 -75 -101 -112.5t-100 -37.5q-47 0 -74 30t-27 77q0 27 7 49q1 3 6.5 26t9.5 39h-7q-44 -95 -90 -149q-63 -72 -137 -72
q-60 0 -97.5 48t-37.5 128q0 69 25 139.5t69 126.5q100 127 244 127q36 0 63.5 -11.5t38.5 -27.5zM249 111q25 0 55 28.5t58 76.5q62 107 90 251q-17 36 -59 36q-75 0 -133 -112q-54 -105 -54 -209q0 -71 43 -71z" />
    <glyph glyph-name="Dcroat" unicode="&#x110;" horiz-adv-x="801" 
d="M145 327h-86l15 71h86l35 166l3 16q1 6 1 15q0 22 -14.5 30.5t-53.5 9.5l13 67h308q159 0 250.5 -76t91.5 -212q0 -184 -125 -298q-126 -116 -323 -116h-351l14 67q51 2 69.5 15.5t26.5 53.5zM437 631h-39l-49 -233h123l-15 -71h-123l-36 -175q-6 -26 -6 -42
q0 -22 13 -30.5t44 -8.5h11q115 0 180 129q54 105 54 233q0 198 -157 198z" />
    <glyph glyph-name="dcroat" unicode="&#x111;" horiz-adv-x="706" 
d="M736 628l-13 -51h-64l-102 -427q-8 -30 -8 -41q0 -15 14 -15q13 0 33 20q18 18 47 53l31 -27q-53 -75 -101 -112.5t-100 -37.5q-47 0 -74 30t-27 77q0 27 7 49q1 3 6.5 26t9.5 39h-7q-44 -95 -90 -149q-63 -72 -137 -72q-60 0 -97.5 48t-37.5 128q0 146 91 253
q96 113 240 113q36 0 63.5 -11.5t38.5 -27.5l20 84h-123l13 51h123l13 53h-72l14 47l221 33h35l-32 -133h65zM249 111q50 0 111 99q59 99 85 230q-17 36 -59 36q-75 0 -129 -98q-51 -91 -51 -196q0 -71 43 -71z" />
    <glyph glyph-name="Emacron" unicode="&#x112;" horiz-adv-x="674" 
d="M598 758h-318l24 106h318zM570 0h-585l14 67q51 2 69.5 15.5t26.5 53.5l90 428l3 16q1 6 1 15q0 22 -14.5 30.5t-53.5 9.5l13 67h579l-41 -191h-71q-11 67 -32.5 94.5t-77.5 27.5h-103l-49 -236h74q33 0 52.5 17t36.5 62h64l-48 -229h-64q0 45 -11.5 62t-44.5 17h-74
l-37 -177q-5 -22 -5 -35q0 -26 16.5 -35.5t52.5 -9.5h23q52 0 92 29.5t99 107.5h79z" />
    <glyph glyph-name="emacron" unicode="&#x113;" horiz-adv-x="530" 
d="M514 626h-308l23 101h308zM525 436q0 -77 -83 -125.5t-243 -77.5v-14q0 -58 26.5 -93.5t71.5 -35.5q44 0 79.5 20t75.5 66l28 -27q-45 -78 -115 -118.5t-142 -40.5q-91 0 -144 58t-53 150q0 138 101 249q104 112 248 112q70 0 110 -36t40 -87zM350 498q-49 0 -93 -72
q-42 -69 -54 -154q93 28 136.5 70.5t43.5 103.5q0 52 -33 52z" />
    <glyph glyph-name="Ebreve" unicode="&#x114;" horiz-adv-x="674" 
d="M439 746q-59 0 -93 30.5t-34 81.5q0 29 11 58h66q-1 -3 -1 -7v-7q0 -64 71 -64q73 0 105 78h74q-20 -80 -72.5 -125t-126.5 -45zM570 0h-585l14 67q51 2 69.5 15.5t26.5 53.5l90 428l3 16q1 6 1 15q0 22 -14.5 30.5t-53.5 9.5l13 67h579l-41 -191h-71q-11 67 -32.5 94.5
t-77.5 27.5h-103l-49 -236h74q33 0 52.5 17t36.5 62h64l-48 -229h-64q0 45 -11.5 62t-44.5 17h-74l-37 -177q-5 -22 -5 -35q0 -26 16.5 -35.5t52.5 -9.5h23q52 0 92 29.5t99 107.5h79z" />
    <glyph glyph-name="ebreve" unicode="&#x115;" horiz-adv-x="530" 
d="M354 603q-59 0 -93 30.5t-34 81.5q0 29 11 58h66q-1 -3 -1 -7v-7q0 -64 71 -64q73 0 105 78h74q-20 -80 -72.5 -125t-126.5 -45zM525 436q0 -77 -83 -125.5t-243 -77.5v-14q0 -58 26.5 -93.5t71.5 -35.5q44 0 79.5 20t75.5 66l28 -27q-45 -78 -115 -118.5t-142 -40.5
q-91 0 -144 58t-53 150q0 138 101 249q104 112 248 112q70 0 110 -36t40 -87zM350 498q-49 0 -93 -72q-42 -69 -54 -154q93 28 136.5 70.5t43.5 103.5q0 52 -33 52z" />
    <glyph glyph-name="Edotaccent" unicode="&#x116;" horiz-adv-x="674" 
d="M452 744q-44 0 -70 25.5t-26 62.5q0 41 28.5 70t75.5 29q43 0 69.5 -25.5t26.5 -61.5q0 -41 -28.5 -70.5t-75.5 -29.5zM570 0h-585l14 67q51 2 69.5 15.5t26.5 53.5l90 428l3 16q1 6 1 15q0 22 -14.5 30.5t-53.5 9.5l13 67h579l-41 -191h-71q-11 67 -32.5 94.5
t-77.5 27.5h-103l-49 -236h74q33 0 52.5 17t36.5 62h64l-48 -229h-64q0 45 -11.5 62t-44.5 17h-74l-37 -177q-5 -22 -5 -35q0 -26 16.5 -35.5t52.5 -9.5h23q52 0 92 29.5t99 107.5h79z" />
    <glyph glyph-name="edotaccent" unicode="&#x117;" horiz-adv-x="530" 
d="M371 599q-44 0 -70 25.5t-26 62.5q0 41 28.5 70t75.5 29q43 0 69.5 -25.5t26.5 -61.5q0 -41 -28.5 -70.5t-75.5 -29.5zM525 436q0 -77 -83 -125.5t-243 -77.5v-14q0 -58 26.5 -93.5t71.5 -35.5q44 0 79.5 20t75.5 66l28 -27q-45 -78 -115 -118.5t-142 -40.5
q-91 0 -144 58t-53 150q0 138 101 249q104 112 248 112q70 0 110 -36t40 -87zM350 498q-49 0 -93 -72q-42 -69 -54 -154q93 28 136.5 70.5t43.5 103.5q0 52 -33 52z" />
    <glyph glyph-name="Eogonek" unicode="&#x118;" horiz-adv-x="674" 
d="M391 0h-406l14 67q51 2 69.5 15.5t26.5 53.5l90 428l3 16q1 6 1 15q0 22 -14.5 30.5t-53.5 9.5l13 67h579l-41 -191h-71q-11 67 -32.5 94.5t-77.5 27.5h-103l-49 -236h74q33 0 52.5 17t36.5 62h64l-48 -229h-64q0 45 -11.5 62t-44.5 17h-74l-37 -177q-5 -22 -5 -35
q0 -26 16.5 -35.5t52.5 -9.5h23q52 0 92 29.5t99 107.5h79l-74 -206h-107q-77 -49 -77 -99q0 -39 39 -39q29 0 72 25l16 -28q-80 -75 -155 -75q-37 0 -61.5 19.5t-24.5 52.5q0 80 119 144z" />
    <glyph glyph-name="eogonek" unicode="&#x119;" horiz-adv-x="530" 
d="M205 -216q-37 0 -61.5 19.5t-24.5 52.5q0 76 100 134q-90 1 -141.5 58.5t-51.5 149.5q0 138 101 249q104 112 248 112q70 0 110 -36t40 -87q0 -77 -83 -125.5t-243 -77.5v-14q0 -58 26.5 -93.5t71.5 -35.5q44 0 79.5 20t75.5 66l28 -27q-55 -94 -148 -136
q-99 -55 -99 -112q0 -39 39 -39q29 0 72 25l16 -28q-80 -75 -155 -75zM383 446q0 52 -33 52q-49 0 -93 -72q-42 -69 -54 -154q93 28 136.5 70.5t43.5 103.5z" />
    <glyph glyph-name="Ecaron" unicode="&#x11a;" horiz-adv-x="674" 
d="M505 752h-136l-92 169h89l88 -80l134 80h101zM570 0h-585l14 67q51 2 69.5 15.5t26.5 53.5l90 428l3 16q1 6 1 15q0 22 -14.5 30.5t-53.5 9.5l13 67h579l-41 -191h-71q-11 67 -32.5 94.5t-77.5 27.5h-103l-49 -236h74q33 0 52.5 17t36.5 62h64l-48 -229h-64
q0 45 -11.5 62t-44.5 17h-74l-37 -177q-5 -22 -5 -35q0 -26 16.5 -35.5t52.5 -9.5h23q52 0 92 29.5t99 107.5h79z" />
    <glyph glyph-name="ecaron" unicode="&#x11b;" horiz-adv-x="530" 
d="M426 606h-136l-92 169h89l88 -80l134 80h101zM525 436q0 -77 -83 -125.5t-243 -77.5v-14q0 -58 26.5 -93.5t71.5 -35.5q44 0 79.5 20t75.5 66l28 -27q-45 -78 -115 -118.5t-142 -40.5q-91 0 -144 58t-53 150q0 138 101 249q104 112 248 112q70 0 110 -36t40 -87zM350 498
q-49 0 -93 -72q-42 -69 -54 -154q93 28 136.5 70.5t43.5 103.5q0 52 -33 52z" />
    <glyph glyph-name="Gcircumflex" unicode="&#x11c;" horiz-adv-x="764" 
d="M477 918h136l92 -169h-89l-88 80l-134 -80h-101zM57 272q0 190 129 316q127 124 319 124q70 0 129.5 -21t94.5 -56l-34 -159h-93q-4 81 -28 123.5t-79 42.5q-53 0 -98 -34.5t-76 -93.5q-63 -120 -63 -264q0 -185 122 -185q41 0 77 17l31 125l3 16q1 5 1 14q0 20 -15.5 28
t-53.5 9l15 70h332l-14 -70q-50 -1 -66.5 -13.5t-25.5 -52.5l-33 -140q-110 -78 -264 -78q-148 0 -229 79.5t-81 202.5z" />
    <glyph glyph-name="gcircumflex" unicode="&#x11d;" horiz-adv-x="575" 
d="M347 766h136l92 -169h-89l-88 80l-134 -80h-101zM332 559q60 0 105 -25l196 20l-23 -95h-43l-64 19q25 -36 25 -74q0 -92 -83 -146q-80 -52 -193 -52q-38 0 -66 7q-32 -13 -32 -34q0 -20 29 -28l175 -35q77 -15 115 -46t38 -90q0 -85 -87 -137q-85 -52 -214 -52
q-108 0 -185 34q-88 39 -88 101q0 45 48 72q37 22 94 24q-39 37 -39 82q0 76 115 119q-98 39 -98 147q0 85 83 138q80 51 192 51zM265 258q36 0 66 49t30 125q0 75 -42 75q-36 0 -66 -49.5t-30 -125.5q0 -74 42 -74zM305 -44l-202 42q-47 -16 -47 -59q0 -39 44.5 -64
t110.5 -25q62 0 104.5 19.5t42.5 49.5q0 26 -53 37z" />
    <glyph glyph-name="Gbreve" unicode="&#x11e;" horiz-adv-x="764" 
d="M511 746q-59 0 -93 30.5t-34 81.5q0 29 11 58h66q-1 -3 -1 -7v-7q0 -64 71 -64q73 0 105 78h74q-20 -80 -72.5 -125t-126.5 -45zM57 272q0 190 129 316q127 124 319 124q70 0 129.5 -21t94.5 -56l-34 -159h-93q-4 81 -28 123.5t-79 42.5q-53 0 -98 -34.5t-76 -93.5
q-63 -120 -63 -264q0 -185 122 -185q41 0 77 17l31 125l3 16q1 5 1 14q0 20 -15.5 28t-53.5 9l15 70h332l-14 -70q-50 -1 -66.5 -13.5t-25.5 -52.5l-33 -140q-110 -78 -264 -78q-148 0 -229 79.5t-81 202.5z" />
    <glyph glyph-name="gbreve" unicode="&#x11f;" horiz-adv-x="575" 
d="M373 603q-59 0 -93 30.5t-34 81.5q0 29 11 58h66q-1 -3 -1 -7v-7q0 -64 71 -64q73 0 105 78h74q-20 -80 -72.5 -125t-126.5 -45zM332 559q60 0 105 -25l196 20l-23 -95h-43l-64 19q25 -36 25 -74q0 -92 -83 -146q-80 -52 -193 -52q-38 0 -66 7q-32 -13 -32 -34
q0 -20 29 -28l175 -35q77 -15 115 -46t38 -90q0 -85 -87 -137q-85 -52 -214 -52q-108 0 -185 34q-88 39 -88 101q0 45 48 72q37 22 94 24q-39 37 -39 82q0 76 115 119q-98 39 -98 147q0 85 83 138q80 51 192 51zM265 258q36 0 66 49t30 125q0 75 -42 75q-36 0 -66 -49.5
t-30 -125.5q0 -74 42 -74zM305 -44l-202 42q-47 -16 -47 -59q0 -39 44.5 -64t110.5 -25q62 0 104.5 19.5t42.5 49.5q0 26 -53 37z" />
    <glyph glyph-name="Gdotaccent" unicode="&#x120;" horiz-adv-x="764" 
d="M524 744q-44 0 -70 25.5t-26 62.5q0 41 28.5 70t75.5 29q43 0 69.5 -25.5t26.5 -61.5q0 -41 -28.5 -70.5t-75.5 -29.5zM57 272q0 190 129 316q127 124 319 124q70 0 129.5 -21t94.5 -56l-34 -159h-93q-4 81 -28 123.5t-79 42.5q-53 0 -98 -34.5t-76 -93.5
q-63 -120 -63 -264q0 -185 122 -185q41 0 77 17l31 125l3 16q1 5 1 14q0 20 -15.5 28t-53.5 9l15 70h332l-14 -70q-50 -1 -66.5 -13.5t-25.5 -52.5l-33 -140q-110 -78 -264 -78q-148 0 -229 79.5t-81 202.5z" />
    <glyph glyph-name="gdotaccent" unicode="&#x121;" horiz-adv-x="575" 
d="M390 599q-44 0 -70 25.5t-26 62.5q0 41 28.5 70t75.5 29q43 0 69.5 -25.5t26.5 -61.5q0 -41 -28.5 -70.5t-75.5 -29.5zM332 559q60 0 105 -25l196 20l-23 -95h-43l-64 19q25 -36 25 -74q0 -92 -83 -146q-80 -52 -193 -52q-38 0 -66 7q-32 -13 -32 -34q0 -20 29 -28
l175 -35q77 -15 115 -46t38 -90q0 -85 -87 -137q-85 -52 -214 -52q-108 0 -185 34q-88 39 -88 101q0 45 48 72q37 22 94 24q-39 37 -39 82q0 76 115 119q-98 39 -98 147q0 85 83 138q80 51 192 51zM265 258q36 0 66 49t30 125q0 75 -42 75q-36 0 -66 -49.5t-30 -125.5
q0 -74 42 -74zM305 -44l-202 42q-47 -16 -47 -59q0 -39 44.5 -64t110.5 -25q62 0 104.5 19.5t42.5 49.5q0 26 -53 37z" />
    <glyph glyph-name="Gcommaaccent" unicode="&#x122;" horiz-adv-x="764" 
d="M57 272q0 190 129 316q127 124 319 124q70 0 129.5 -21t94.5 -56l-34 -159h-93q-4 81 -28 123.5t-79 42.5q-53 0 -98 -34.5t-76 -93.5q-63 -120 -63 -264q0 -185 122 -185q41 0 77 17l31 125l3 16q1 5 1 14q0 20 -15.5 28t-53.5 9l15 70h332l-14 -70q-50 -1 -66.5 -13.5
t-25.5 -52.5l-33 -140q-110 -78 -264 -78q-148 0 -229 79.5t-81 202.5zM337 -158h-61q-41 11 -41 50q0 32 25 54t69 22q41 0 63.5 -22t22.5 -59q0 -61 -46 -99t-144 -38v45q49 0 78.5 13t33.5 34z" />
    <glyph glyph-name="gcommaaccent" unicode="&#x123;" horiz-adv-x="575" 
d="M379 720h61q41 -11 41 -50q0 -32 -25 -54t-69 -22q-41 0 -63.5 22t-22.5 59q0 61 46 99t144 38v-45q-49 0 -78.5 -13t-33.5 -34zM332 559q60 0 105 -25l196 20l-23 -95h-43l-64 19q25 -36 25 -74q0 -92 -83 -146q-80 -52 -193 -52q-38 0 -66 7q-32 -13 -32 -34
q0 -20 29 -28l175 -35q77 -15 115 -46t38 -90q0 -85 -87 -137q-85 -52 -214 -52q-108 0 -185 34q-88 39 -88 101q0 45 48 72q37 22 94 24q-39 37 -39 82q0 76 115 119q-98 39 -98 147q0 85 83 138q80 51 192 51zM265 258q36 0 66 49t30 125q0 75 -42 75q-36 0 -66 -49.5
t-30 -125.5q0 -74 42 -74zM305 -44l-202 42q-47 -16 -47 -59q0 -39 44.5 -64t110.5 -25q62 0 104.5 19.5t42.5 49.5q0 26 -53 37z" />
    <glyph glyph-name="Hcircumflex" unicode="&#x124;" horiz-adv-x="864" 
d="M512 918h136l92 -169h-89l-88 80l-134 -80h-101zM825 566l-90 -428q-1 -3 -1.5 -8t-0.5 -8q-2 -12 -2 -15q0 -22 15 -30.5t54 -9.5l-14 -67h-350l13 67q51 2 70 15.5t27 53.5l39 190h-261l-39 -188q-1 -3 -1.5 -8t-0.5 -8q-2 -12 -2 -15q0 -22 14.5 -30.5t53.5 -9.5
l-13 -67h-351l14 67q51 2 69.5 15.5t26.5 53.5l90 428l3 16q1 6 1 15q0 22 -14.5 30.5t-53.5 9.5l13 67h350l-13 -67q-51 -2 -69.5 -15.5t-26.5 -53.5l-36 -169h261l35 167l3 16q1 6 1 15q0 22 -14.5 30.5t-53.5 9.5l14 67h350l-14 -67q-51 -2 -69.5 -15.5t-26.5 -53.5z" />
    <glyph glyph-name="hcircumflex" unicode="&#x125;" horiz-adv-x="684" 
d="M409 956h136l92 -169h-89l-88 80l-134 -80h-101zM373 761l-74 -302l-52 -160h7q152 260 287 260q41 0 63.5 -24t22.5 -64q0 -18 -6 -44l-75 -277q-9 -34 -9 -41q0 -15 14 -15q13 0 33 20q19 18 47 53l31 -27q-53 -75 -101 -112.5t-100 -37.5q-47 0 -76.5 27t-29.5 67
q0 35 14 86l64 220q5 22 5 33q0 18 -17 18q-15 0 -40 -24q-60 -55 -113 -164q-26 -50 -44 -118l-35 -135h-182l154 641l-61 44l10 34l228 42h35z" />
    <glyph glyph-name="Hbar" unicode="&#x126;" horiz-adv-x="894" 
d="M181 449h-79l15 71h79l9 44l3 16q1 6 1 15q0 22 -14.5 30.5t-53.5 9.5l13 67h350l-13 -67q-51 -2 -69.5 -15.5t-26.5 -53.5l-10 -46h261l9 44l3 16q1 6 1 15q0 22 -14.5 30.5t-53.5 9.5l14 67h350l-14 -67q-51 -2 -69.5 -15.5t-26.5 -53.5l-10 -46h87l-15 -71h-87
l-65 -311q-1 -3 -1.5 -8t-0.5 -8q-2 -12 -2 -15q0 -22 15 -30.5t54 -9.5l-14 -67h-350l13 67q51 2 70 15.5t27 53.5l31 151h-261l-31 -149q-1 -3 -1.5 -8t-0.5 -8q-2 -12 -2 -15q0 -22 14.5 -30.5t53.5 -9.5l-13 -67h-351l14 67q51 2 69.5 15.5t26.5 53.5zM631 449h-261
l-19 -91h261z" />
    <glyph glyph-name="hbar" unicode="&#x127;" horiz-adv-x="689" 
d="M333 577l-29 -118l-52 -160h7q152 260 287 260q41 0 63.5 -24t22.5 -64q0 -18 -6 -44l-75 -277q-9 -34 -9 -41q0 -15 14 -15q13 0 33 20q18 18 47 53l31 -27q-53 -75 -101 -112.5t-100 -37.5q-47 0 -76.5 27t-29.5 67q0 35 14 86l64 220q5 22 5 33q0 18 -17 18
q-14 0 -40 -24q-60 -55 -113 -164q-26 -50 -44 -118l-35 -135h-182l138 577h-69l13 51h68l13 53h-71l14 47l225 33h35l-33 -133h116l-13 -51h-115z" />
    <glyph glyph-name="Itilde" unicode="&#x128;" horiz-adv-x="413" 
d="M481 900l58 -12q-46 -91 -77 -121q-32 -29 -74 -29q-26 0 -70 32q-45 31 -62 31q-14 0 -27 -9t-20 -17.5t-21 -28.5l-59 11q49 94 78 122t73 28q30 0 73 -31q42 -32 59 -32q32 0 69 56zM375 566l-90 -428q-1 -3 -1.5 -8t-0.5 -8q-2 -12 -2 -15q0 -22 14.5 -30.5
t53.5 -9.5l-13 -67h-351l14 67q51 2 69.5 15.5t26.5 53.5l90 428l3 16q1 6 1 15q0 22 -14.5 30.5t-53.5 9.5l13 67h350l-13 -67q-51 -2 -69.5 -15.5t-26.5 -53.5z" />
    <glyph glyph-name="itilde" unicode="&#x129;" horiz-adv-x="370" 
d="M392 771l58 -11q-45 -90 -76 -121q-29 -29 -66 -29q-27 0 -59 32q-35 31 -52 31q-14 0 -26.5 -8.5t-20.5 -18.5t-21 -29l-59 12q48 93 77 122q28 28 66 28q28 0 61 -31q32 -32 49 -32q32 0 69 55zM293 559h35l-103 -409q-8 -30 -8 -41q0 -15 14 -15t34 20q21 21 46 53
l31 -27q-51 -75 -99 -112.5t-102 -37.5q-46 0 -75 27t-29 67q0 32 13 86l66 269l-50 47l9 34z" />
    <glyph glyph-name="Imacron" unicode="&#x12a;" horiz-adv-x="413" 
d="M479 758h-318l24 106h318zM375 566l-90 -428q-1 -3 -1.5 -8t-0.5 -8q-2 -12 -2 -15q0 -22 14.5 -30.5t53.5 -9.5l-13 -67h-351l14 67q51 2 69.5 15.5t26.5 53.5l90 428l3 16q1 6 1 15q0 22 -14.5 30.5t-53.5 9.5l13 67h350l-13 -67q-51 -2 -69.5 -15.5t-26.5 -53.5z" />
    <glyph glyph-name="imacron" unicode="&#x12b;" horiz-adv-x="370" 
d="M394 626h-278l23 101h278zM293 559h35l-103 -409q-8 -30 -8 -41q0 -15 14 -15t34 20q21 21 46 53l31 -27q-51 -75 -99 -112.5t-102 -37.5q-46 0 -75 27t-29 67q0 32 13 86l66 269l-50 47l9 34z" />
    <glyph glyph-name="Ibreve" unicode="&#x12c;" horiz-adv-x="413" 
d="M320 746q-59 0 -93 30.5t-34 81.5q0 29 11 58h66q-1 -3 -1 -7v-7q0 -64 71 -64q73 0 105 78h74q-20 -80 -72.5 -125t-126.5 -45zM375 566l-90 -428q-1 -3 -1.5 -8t-0.5 -8q-2 -12 -2 -15q0 -22 14.5 -30.5t53.5 -9.5l-13 -67h-351l14 67q51 2 69.5 15.5t26.5 53.5l90 428
l3 16q1 6 1 15q0 22 -14.5 30.5t-53.5 9.5l13 67h350l-13 -67q-51 -2 -69.5 -15.5t-26.5 -53.5z" />
    <glyph glyph-name="ibreve" unicode="&#x12d;" horiz-adv-x="370" 
d="M248 603q-59 0 -93 30.5t-34 81.5q0 29 11 58h66q-1 -3 -1 -7v-7q0 -64 71 -64q73 0 105 78h74q-20 -80 -72.5 -125t-126.5 -45zM293 559h35l-103 -409q-8 -30 -8 -41q0 -15 14 -15t34 20q21 21 46 53l31 -27q-51 -75 -99 -112.5t-102 -37.5q-46 0 -75 27t-29 67
q0 32 13 86l66 269l-50 47l9 34z" />
    <glyph glyph-name="Iogonek" unicode="&#x12e;" horiz-adv-x="413" 
d="M375 566l-90 -428q-1 -3 -1.5 -8t-0.5 -8q-2 -12 -2 -15q0 -22 14.5 -30.5t53.5 -9.5l-13 -67h-123q-78 -50 -78 -99q0 -39 39 -39q29 0 72 25l16 -28q-80 -75 -155 -75q-37 0 -61.5 19.5t-24.5 52.5q0 80 119 144h-155l14 67q51 2 69.5 15.5t26.5 53.5l90 428l3 16
q1 6 1 15q0 22 -14.5 30.5t-53.5 9.5l13 67h350l-13 -67q-51 -2 -69.5 -15.5t-26.5 -53.5z" />
    <glyph glyph-name="iogonek" unicode="&#x12f;" horiz-adv-x="370" 
d="M261 594q-44 0 -70 25.5t-26 62.5q0 41 28.5 70t75.5 29q43 0 69.5 -25.5t26.5 -61.5q0 -41 -28.5 -70.5t-75.5 -29.5zM37 84q0 32 13 86l66 269l-50 47l9 34l218 39h35l-102 -404q-8 -30 -8 -41q0 -15 14 -15q13 0 33 17q18 16 45 51l32 -27q-72 -90 -166 -162
q-24 -19 -33.5 -27t-18 -21.5t-8.5 -28.5q0 -39 39 -39q29 0 72 25l16 -28q-80 -75 -155 -75q-37 0 -61.5 20t-24.5 53q0 83 106 141q-71 19 -71 86z" />
    <glyph glyph-name="Idotaccent" unicode="&#x130;" horiz-adv-x="413" 
d="M333 744q-44 0 -70 25.5t-26 62.5q0 41 28.5 70t75.5 29q43 0 69.5 -25.5t26.5 -61.5q0 -41 -28.5 -70.5t-75.5 -29.5zM375 566l-90 -428q-1 -3 -1.5 -8t-0.5 -8q-2 -12 -2 -15q0 -22 14.5 -30.5t53.5 -9.5l-13 -67h-351l14 67q51 2 69.5 15.5t26.5 53.5l90 428l3 16
q1 6 1 15q0 22 -14.5 30.5t-53.5 9.5l13 67h350l-13 -67q-51 -2 -69.5 -15.5t-26.5 -53.5z" />
    <glyph glyph-name="dotlessi" unicode="&#x131;" horiz-adv-x="370" 
d="M293 559h35l-103 -409q-8 -30 -8 -41q0 -15 14 -15t34 20q21 21 46 53l31 -27q-51 -75 -99 -112.5t-102 -37.5q-46 0 -75 27t-29 67q0 32 13 86l66 269l-50 47l9 34z" />
    <glyph glyph-name="IJ" unicode="&#x132;" horiz-adv-x="1026" 
d="M375 566l-90 -428q-1 -3 -1.5 -8t-0.5 -8q-2 -12 -2 -15q0 -22 14.5 -30.5t53.5 -9.5l-13 -67h-351l14 67q51 2 69.5 15.5t26.5 53.5l90 428l3 16q1 6 1 15q0 22 -14.5 30.5t-53.5 9.5l13 67h350l-13 -67q-51 -2 -69.5 -15.5t-26.5 -53.5zM733 192l78 372l3 16q1 6 1 15
q0 22 -14.5 30.5t-53.5 9.5l13 67h351l-14 -67q-51 -2 -69.5 -15.5t-26.5 -53.5l-73 -342q-26 -121 -99.5 -177.5t-197.5 -56.5q-105 0 -161.5 40t-56.5 104q0 35 19 63t48 42h132q-24 -61 -24 -107q0 -29 13 -51.5t41 -22.5q64 0 91 134z" />
    <glyph glyph-name="ij" unicode="&#x133;" horiz-adv-x="710" 
d="M261 594q-44 0 -70 25.5t-26 62.5q0 41 28.5 70t75.5 29q43 0 69.5 -25.5t26.5 -61.5q0 -41 -28.5 -70.5t-75.5 -29.5zM639 594q-43 0 -69.5 25.5t-26.5 62.5q0 41 28.5 70t75.5 29q44 0 70 -25t26 -62q0 -41 -28.5 -70.5t-75.5 -29.5zM293 559h35l-103 -409
q-8 -30 -8 -41q0 -15 14 -15t34 20q21 21 46 53l31 -27q-51 -75 -99 -112.5t-102 -37.5q-46 0 -75 27t-29 67q0 32 13 86l66 269l-50 47l9 34zM394 -4l101 443l-51 47l10 34l218 39h35l-115 -456q-39 -151 -110.5 -230.5t-173.5 -79.5q-57 0 -92 22t-35 59q0 34 22.5 54.5
t56.5 24.5h28q2 -50 10 -81q8 -33 30 -33t35 37q10 31 31 120z" />
    <glyph glyph-name="Jcircumflex" unicode="&#x134;" horiz-adv-x="613" 
d="M501 918h136l92 -169h-89l-88 80l-134 -80h-101zM319 192l78 372l3 16q1 6 1 15q0 22 -14.5 30.5t-53.5 9.5l13 67h351l-14 -67q-51 -2 -69.5 -15.5t-26.5 -53.5l-73 -342q-26 -121 -99.5 -177.5t-197.5 -56.5q-105 0 -161.5 40t-56.5 104q0 35 19 63t48 42h132
q-24 -61 -24 -107q0 -29 13 -51.5t41 -22.5q64 0 91 134z" />
    <glyph glyph-name="jcircumflex" unicode="&#x135;" horiz-adv-x="340" 
d="M212 766h136l92 -169h-89l-88 80l-134 -80h-101zM24 -4l101 443l-51 47l10 34l218 39h35l-115 -456q-39 -151 -110.5 -230.5t-173.5 -79.5q-57 0 -92 22t-35 59q0 34 22.5 54.5t56.5 24.5h28q2 -50 10 -81q8 -33 30 -33t35 37q10 31 31 120z" />
    <glyph glyph-name="Kcommaaccent" unicode="&#x136;" horiz-adv-x="783" 
d="M375 566l-90 -428q-1 -3 -1.5 -8t-0.5 -8q-2 -12 -2 -15q0 -22 14.5 -30.5t53.5 -9.5l-13 -67h-351l14 67q51 2 69.5 15.5t26.5 53.5l90 428l3 16q1 6 1 15q0 22 -14.5 30.5t-53.5 9.5l13 67h350l-13 -67q-51 -2 -69.5 -15.5t-26.5 -53.5zM727 590l-207 -175l125 -276
q19 -42 37.5 -57t54.5 -16l-13 -66h-209q-35 25 -74 120l-97 237l244 202q37 30 37 45q0 12 -11 21q-11 8 -43 10l14 67h263l-13 -67q-35 -1 -55 -9t-53 -36zM377 -158h-61q-41 11 -41 50q0 32 25 54t69 22q41 0 63.5 -22t22.5 -59q0 -61 -46 -99t-144 -38v45q49 0 78.5 13
t33.5 34z" />
    <glyph glyph-name="kcommaaccent" unicode="&#x137;" horiz-adv-x="649" 
d="M339 761h35l-185 -761h-182l155 641l-61 44l10 34zM430 387l-11 -14l70 -186q22 -66 47 -66q14 0 28 9q13 8 36 38l28 -27q-51 -82 -92 -116.5t-90 -34.5q-40 0 -65.5 25t-44.5 77l-65 179l153 186q49 58 78.5 80t61.5 22q38 0 58.5 -23t20.5 -55q0 -68 -74 -93h-22
q0 58 -37 58q-34 0 -80 -59zM246 -158h-61q-41 11 -41 50q0 32 25 54t69 22q41 0 63.5 -22t22.5 -59q0 -61 -46 -99t-144 -38v45q49 0 78.5 13t33.5 34z" />
    <glyph glyph-name="kgreenlandic" unicode="&#x138;" horiz-adv-x="659" 
d="M300 562h35l-140 -562h-182l109 439l-51 47l10 34zM440 387l-11 -14l70 -186q22 -66 47 -66q14 0 28 9q13 8 36 38l28 -27q-51 -82 -92 -116.5t-90 -34.5q-40 0 -65.5 25t-44.5 77l-65 179l153 186q49 58 78.5 80t61.5 22q38 0 58.5 -23t20.5 -55q0 -68 -74 -93h-22
q0 58 -37 58q-34 0 -80 -59z" />
    <glyph glyph-name="Lacute" unicode="&#x139;" horiz-adv-x="664" 
d="M276 751l96 158h197l-194 -158h-99zM375 566l-88 -418q-5 -22 -5 -36q0 -23 15 -32t49 -9h27q47 0 83 32q32 29 114 135h84l-88 -238h-581l14 67q51 2 69.5 15.5t26.5 53.5l90 428l3 16q1 6 1 15q0 22 -14.5 30.5t-53.5 9.5l13 67h350l-13 -67q-51 -2 -69.5 -15.5
t-26.5 -53.5z" />
    <glyph glyph-name="lacute" unicode="&#x13a;" horiz-adv-x="358" 
d="M240 793l96 158h197l-194 -158h-99zM40 170l117 471l-61 44l10 34l228 42h35l-154 -611q-7 -27 -7 -41q0 -15 14 -15q13 0 33 20q21 21 46 53l31 -27q-51 -75 -99 -112.5t-102 -37.5q-46 0 -75 27t-29 67q0 32 13 86z" />
    <glyph glyph-name="Lcommaaccent" unicode="&#x13b;" horiz-adv-x="664" 
d="M375 566l-88 -418q-5 -22 -5 -36q0 -23 15 -32t49 -9h27q47 0 83 32q32 29 114 135h84l-88 -238h-581l14 67q51 2 69.5 15.5t26.5 53.5l90 428l3 16q1 6 1 15q0 22 -14.5 30.5t-53.5 9.5l13 67h350l-13 -67q-51 -2 -69.5 -15.5t-26.5 -53.5zM293 -158h-61q-41 11 -41 50
q0 32 25 54t69 22q41 0 63.5 -22t22.5 -59q0 -61 -46 -99t-144 -38v45q49 0 78.5 13t33.5 34z" />
    <glyph glyph-name="lcommaaccent" unicode="&#x13c;" horiz-adv-x="358" 
d="M40 170l117 471l-61 44l10 34l228 42h35l-154 -611q-7 -27 -7 -41q0 -15 14 -15q13 0 33 20q21 21 46 53l31 -27q-51 -75 -99 -112.5t-102 -37.5q-46 0 -75 27t-29 67q0 32 13 86zM103 -158h-61q-41 11 -41 50q0 32 25 54t69 22q41 0 63.5 -22t22.5 -59q0 -61 -46 -99
t-144 -38v45q49 0 78.5 13t33.5 34z" />
    <glyph glyph-name="Lcaron" unicode="&#x13d;" horiz-adv-x="664" 
d="M563 706h158l-133 -205h-76zM375 566l-88 -418q-5 -22 -5 -36q0 -23 15 -32t49 -9h27q47 0 83 32q32 29 114 135h84l-88 -238h-581l14 67q51 2 69.5 15.5t26.5 53.5l90 428l3 16q1 6 1 15q0 22 -14.5 30.5t-53.5 9.5l13 67h350l-13 -67q-51 -2 -69.5 -15.5t-26.5 -53.5z
" />
    <glyph glyph-name="lcaron" unicode="&#x13e;" horiz-adv-x="367" 
d="M437 766h158l-133 -205h-76zM40 170l117 471l-61 44l10 34l228 42h35l-154 -611q-7 -27 -7 -41q0 -15 14 -15q13 0 33 20q21 21 46 53l31 -27q-51 -75 -99 -112.5t-102 -37.5q-46 0 -75 27t-29 67q0 32 13 86z" />
    <glyph glyph-name="Ldot" unicode="&#x13f;" horiz-adv-x="664" 
d="M375 566l-88 -418q-5 -22 -5 -36q0 -23 15 -32t49 -9h27q47 0 83 32q32 29 114 135h84l-88 -238h-581l14 67q51 2 69.5 15.5t26.5 53.5l90 428l3 16q1 6 1 15q0 22 -14.5 30.5t-53.5 9.5l13 67h350l-13 -67q-51 -2 -69.5 -15.5t-26.5 -53.5zM570 311q-44 0 -70 25.5
t-26 62.5q0 41 28.5 70t75.5 29q43 0 69.5 -25.5t26.5 -61.5q0 -41 -28.5 -70.5t-75.5 -29.5z" />
    <glyph glyph-name="ldot" unicode="&#x140;" horiz-adv-x="527" 
d="M40 170l117 471l-61 44l10 34l228 42h35l-154 -611q-7 -27 -7 -41q0 -15 14 -15q13 0 33 20q21 21 46 53l31 -27q-51 -75 -99 -112.5t-102 -37.5q-46 0 -75 27t-29 67q0 32 13 86zM437 287q-44 0 -70 25.5t-26 62.5q0 41 28.5 70t75.5 29q43 0 69.5 -25.5t26.5 -61.5
q0 -41 -28.5 -70.5t-75.5 -29.5z" />
    <glyph glyph-name="Lslash" unicode="&#x141;" horiz-adv-x="684" 
d="M395 566l-29 -136l133 47l-16 -75l-133 -47l-43 -207q-5 -22 -5 -36q0 -23 15 -32t49 -9h27q47 0 83 32q32 29 114 135h84l-88 -238h-581l14 67q51 2 69.5 15.5t26.5 53.5l33 158l-88 -31l16 75l88 31l41 195l3 16q1 6 1 15q0 22 -14.5 30.5t-53.5 9.5l13 67h350l-13 -67
q-51 -2 -69.5 -15.5t-26.5 -53.5z" />
    <glyph glyph-name="lslash" unicode="&#x142;" horiz-adv-x="385" 
d="M119 435l51 206l-61 44l10 34l228 42h35l-64 -254l105 49l-18 -69l-105 -49l-72 -288q-7 -27 -7 -41q0 -15 14 -15q13 0 33 20q21 21 46 53l31 -27q-51 -75 -99 -112.5t-102 -37.5q-46 0 -75 27t-29 67q0 32 13 86l49 196l-87 -40l18 69z" />
    <glyph glyph-name="Nacute" unicode="&#x143;" horiz-adv-x="785" 
d="M449 751l96 158h197l-194 -158h-99zM386 702l219 -409l56 271l3 16q1 6 1 15q0 22 -14.5 30.5t-53.5 9.5l13 67h249l-13 -67q-51 -2 -69.5 -15.5t-27.5 -53.5l-118 -566h-79l-292 507l-77 -369q-1 -3 -1.5 -8t-0.5 -8q-2 -12 -2 -15q0 -22 14.5 -30.5t53.5 -9.5l-14 -67
h-248l14 67q51 2 69.5 15.5t26.5 53.5l95 449q-15 29 -29 38t-41 12l14 67h252z" />
    <glyph glyph-name="nacute" unicode="&#x144;" horiz-adv-x="689" 
d="M365 606l96 160h197l-195 -160h-98zM299 562h36l-27 -105l-56 -158h7q152 260 287 260q41 0 63.5 -24t22.5 -64q0 -18 -6 -44l-75 -277q-9 -34 -9 -41q0 -15 14 -15q13 0 33 20q18 18 47 53l31 -27q-53 -75 -101 -112.5t-100 -37.5q-47 0 -76.5 27t-29.5 67q0 35 14 86
l64 220q5 22 5 33q0 18 -17 18q-14 0 -40 -24q-60 -55 -113 -164q-26 -50 -44 -118l-35 -135h-181l109 439l-51 47l10 34z" />
    <glyph glyph-name="Ncommaaccent" unicode="&#x145;" horiz-adv-x="785" 
d="M386 702l219 -409l56 271l3 16q1 6 1 15q0 22 -14.5 30.5t-53.5 9.5l13 67h249l-13 -67q-51 -2 -69.5 -15.5t-27.5 -53.5l-118 -566h-79l-292 507l-77 -369q-1 -3 -1.5 -8t-0.5 -8q-2 -12 -2 -15q0 -22 14.5 -30.5t53.5 -9.5l-14 -67h-248l14 67q51 2 69.5 15.5
t26.5 53.5l95 449q-15 29 -29 38t-41 12l14 67h252zM354 -158h-61q-41 11 -41 50q0 32 25 54t69 22q41 0 63.5 -22t22.5 -59q0 -61 -46 -99t-144 -38v45q49 0 78.5 13t33.5 34z" />
    <glyph glyph-name="ncommaaccent" unicode="&#x146;" horiz-adv-x="689" 
d="M299 562h36l-27 -105l-56 -158h7q152 260 287 260q41 0 63.5 -24t22.5 -64q0 -18 -6 -44l-75 -277q-9 -34 -9 -41q0 -15 14 -15q13 0 33 20q18 18 47 53l31 -27q-53 -75 -101 -112.5t-100 -37.5q-47 0 -76.5 27t-29.5 67q0 35 14 86l64 220q5 22 5 33q0 18 -17 18
q-14 0 -40 -24q-60 -55 -113 -164q-26 -50 -44 -118l-35 -135h-181l109 439l-51 47l10 34zM280 -158h-61q-41 11 -41 50q0 32 25 54t69 22q41 0 63.5 -22t22.5 -59q0 -61 -46 -99t-144 -38v45q49 0 78.5 13t33.5 34z" />
    <glyph glyph-name="Ncaron" unicode="&#x147;" horiz-adv-x="785" 
d="M574 752h-136l-92 169h89l88 -80l134 80h101zM386 702l219 -409l56 271l3 16q1 6 1 15q0 22 -14.5 30.5t-53.5 9.5l13 67h249l-13 -67q-51 -2 -69.5 -15.5t-27.5 -53.5l-118 -566h-79l-292 507l-77 -369q-1 -3 -1.5 -8t-0.5 -8q-2 -12 -2 -15q0 -22 14.5 -30.5t53.5 -9.5
l-14 -67h-248l14 67q51 2 69.5 15.5t26.5 53.5l95 449q-15 29 -29 38t-41 12l14 67h252z" />
    <glyph glyph-name="ncaron" unicode="&#x148;" horiz-adv-x="689" 
d="M491 606h-136l-92 169h89l88 -80l134 80h101zM299 562h36l-27 -105l-56 -158h7q152 260 287 260q41 0 63.5 -24t22.5 -64q0 -18 -6 -44l-75 -277q-9 -34 -9 -41q0 -15 14 -15q13 0 33 20q18 18 47 53l31 -27q-53 -75 -101 -112.5t-100 -37.5q-47 0 -76.5 27t-29.5 67
q0 35 14 86l64 220q5 22 5 33q0 18 -17 18q-14 0 -40 -24q-60 -55 -113 -164q-26 -50 -44 -118l-35 -135h-181l109 439l-51 47l10 34z" />
    <glyph glyph-name="Eng" unicode="&#x14a;" horiz-adv-x="785" 
d="M749 566l-96 -463q-31 -151 -100.5 -230.5t-172.5 -79.5q-57 0 -92 22t-35 59q0 34 22.5 54.5t56.5 24.5h28q2 -50 10 -81q8 -33 30 -33t42 32q20 31 42 132l17 74l-241 430l-77 -369q-1 -3 -1.5 -8t-0.5 -8q-2 -12 -2 -15q0 -22 14.5 -30.5t53.5 -9.5l-14 -67h-248
l14 67q51 2 69.5 15.5t26.5 53.5l95 449q-15 29 -29 38t-41 12l14 67h252l219 -409l56 271l3 16q1 6 1 15q0 22 -14.5 30.5t-53.5 9.5l13 67h249l-13 -67q-51 -2 -70 -15.5t-27 -53.5z" />
    <glyph glyph-name="eng" unicode="&#x14b;" horiz-adv-x="662" 
d="M343 -4l95 394q5 22 5 33q0 18 -17 18q-14 0 -40 -24q-60 -55 -113 -164q-26 -50 -44 -118l-35 -135h-181l109 439l-51 47l10 34l218 42h36l-27 -105l-56 -158h7q152 260 287 260q41 0 63.5 -24t22.5 -64q0 -18 -6 -44l-85 -324q-82 -310 -284 -310q-57 0 -92 22t-35 59
q0 34 22.5 54.5t56.5 24.5h28q1 -48 9 -81t29 -33q22 0 35 37q14 36 33 120z" />
    <glyph glyph-name="Omacron" unicode="&#x14c;" horiz-adv-x="764" 
d="M648 758h-318l24 106h318zM350 -10q-135 0 -214 76.5t-79 208.5q0 82 29 161t82 139q120 137 296 137q135 0 214 -76.5t79 -208.5q0 -82 -29 -161t-82 -139q-120 -137 -296 -137zM354 61q89 0 149 139q52 121 52 259q0 89 -21.5 135.5t-73.5 46.5q-88 0 -148 -139
q-53 -123 -53 -259q0 -89 21.5 -135.5t73.5 -46.5z" />
    <glyph glyph-name="omacron" unicode="&#x14d;" horiz-adv-x="608" 
d="M531 626h-308l23 101h308zM250 -10q-98 0 -160 62.5t-62 167.5q0 143 91 240q94 99 239 99q98 0 160 -62.5t62 -167.5q0 -143 -91 -239q-93 -100 -239 -100zM255 53q64 0 109 122q39 105 39 209q0 112 -50 112q-64 0 -109 -121q-39 -106 -39 -210q0 -112 50 -112z" />
    <glyph glyph-name="Obreve" unicode="&#x14e;" horiz-adv-x="764" 
d="M489 746q-59 0 -93 30.5t-34 81.5q0 29 11 58h66q-1 -3 -1 -7v-7q0 -64 71 -64q73 0 105 78h74q-20 -80 -72.5 -125t-126.5 -45zM350 -10q-135 0 -214 76.5t-79 208.5q0 82 29 161t82 139q120 137 296 137q135 0 214 -76.5t79 -208.5q0 -82 -29 -161t-82 -139
q-120 -137 -296 -137zM354 61q89 0 149 139q52 121 52 259q0 89 -21.5 135.5t-73.5 46.5q-88 0 -148 -139q-53 -123 -53 -259q0 -89 21.5 -135.5t73.5 -46.5z" />
    <glyph glyph-name="obreve" unicode="&#x14f;" horiz-adv-x="608" 
d="M371 603q-59 0 -93 30.5t-34 81.5q0 29 11 58h66q-1 -3 -1 -7v-7q0 -64 71 -64q73 0 105 78h74q-20 -80 -72.5 -125t-126.5 -45zM250 -10q-98 0 -160 62.5t-62 167.5q0 143 91 240q94 99 239 99q98 0 160 -62.5t62 -167.5q0 -143 -91 -239q-93 -100 -239 -100zM255 53
q64 0 109 122q39 105 39 209q0 112 -50 112q-64 0 -109 -121q-39 -106 -39 -210q0 -112 50 -112z" />
    <glyph glyph-name="Ohungarumlaut" unicode="&#x150;" horiz-adv-x="764" 
d="M322 751l95 158h171l-178 -158h-88zM532 751l95 158h177l-184 -158h-88zM350 -10q-135 0 -214 76.5t-79 208.5q0 82 29 161t82 139q120 137 296 137q135 0 214 -76.5t79 -208.5q0 -82 -29 -161t-82 -139q-120 -137 -296 -137zM354 61q89 0 149 139q52 121 52 259
q0 89 -21.5 135.5t-73.5 46.5q-88 0 -148 -139q-53 -123 -53 -259q0 -89 21.5 -135.5t73.5 -46.5z" />
    <glyph glyph-name="ohungarumlaut" unicode="&#x151;" horiz-adv-x="608" 
d="M210 606l96 160h171l-179 -160h-88zM420 606l96 160h177l-185 -160h-88zM250 -10q-98 0 -160 62.5t-62 167.5q0 143 91 240q94 99 239 99q98 0 160 -62.5t62 -167.5q0 -143 -91 -239q-93 -100 -239 -100zM255 53q64 0 109 122q39 105 39 209q0 112 -50 112
q-64 0 -109 -121q-39 -106 -39 -210q0 -112 50 -112z" />
    <glyph glyph-name="OE" unicode="&#x152;" horiz-adv-x="1047" 
d="M516 702h570l-41 -191h-71q-11 67 -32.5 94.5t-77.5 27.5h-103l-49 -236h74q33 0 52.5 17t36.5 62h64l-48 -229h-64q0 45 -11.5 62t-44.5 17h-74l-37 -177q-5 -22 -5 -35q0 -26 16.5 -35.5t52.5 -9.5h23q52 0 92 29.5t99 107.5h79l-74 -206h-544q-159 0 -250.5 76
t-91.5 212q0 183 127 299q128 115 332 115zM454 71l118 562h-61q-127 0 -198 -129q-56 -102 -56 -235q0 -198 157 -198h40z" />
    <glyph glyph-name="oe" unicode="&#x153;" horiz-adv-x="899" 
d="M358 559q108 0 168 -91q98 91 218 91q70 0 110 -36t40 -87q0 -77 -83 -125.5t-243 -77.5v-14q0 -58 26.5 -93.5t71.5 -35.5q44 0 79.5 20t75.5 66l28 -27q-45 -78 -115 -118.5t-142 -40.5q-94 0 -143 76q-87 -76 -199 -76q-98 0 -160 62.5t-62 167.5q0 143 91 240
q94 99 239 99zM719 498q-49 0 -93 -72q-42 -69 -54 -154q93 28 136.5 70.5t43.5 103.5q0 52 -33 52zM255 53q64 0 109 122q39 105 39 209q0 112 -50 112q-64 0 -109 -121q-39 -106 -39 -210q0 -112 50 -112z" />
    <glyph glyph-name="Racute" unicode="&#x154;" horiz-adv-x="762" 
d="M387 751l96 158h197l-194 -158h-99zM364 290h-52l-32 -152q-1 -3 -1.5 -8t-0.5 -8q-2 -12 -2 -15q0 -22 14.5 -30.5t53.5 -9.5l-13 -67h-346l14 67q51 2 69.5 15.5t26.5 53.5l90 428l3 16q1 6 1 15q0 22 -14.5 30.5t-53.5 9.5l13 67h354q248 0 248 -183q0 -77 -57 -130.5
t-138 -68.5l79 -179q19 -45 37 -59.5t59 -14.5l-14 -67h-217q-35 35 -60 110zM422 631h-38l-59 -274h33q188 0 188 160q0 114 -124 114z" />
    <glyph glyph-name="racute" unicode="&#x155;" horiz-adv-x="523" 
d="M296 606l96 160h197l-195 -160h-98zM296 414l-64 -178h7q110 211 141 256q25 37 48 52t52 15q35 0 54 -22.5t19 -58.5q0 -42 -28 -77.5t-61 -50.5h-22q0 36 -28 36q-53 0 -112 -101q-58 -101 -105 -285h-182l109 439l-50 47l10 34l216 42h35z" />
    <glyph glyph-name="Rcommaaccent" unicode="&#x156;" horiz-adv-x="762" 
d="M364 290h-52l-32 -152q-1 -3 -1.5 -8t-0.5 -8q-2 -12 -2 -15q0 -22 14.5 -30.5t53.5 -9.5l-13 -67h-346l14 67q51 2 69.5 15.5t26.5 53.5l90 428l3 16q1 6 1 15q0 22 -14.5 30.5t-53.5 9.5l13 67h354q248 0 248 -183q0 -77 -57 -130.5t-138 -68.5l79 -179
q19 -45 37 -59.5t59 -14.5l-14 -67h-217q-35 35 -60 110zM422 631h-38l-59 -274h33q188 0 188 160q0 114 -124 114zM357 -158h-61q-41 11 -41 50q0 32 25 54t69 22q41 0 63.5 -22t22.5 -59q0 -61 -46 -99t-144 -38v45q49 0 78.5 13t33.5 34z" />
    <glyph glyph-name="rcommaaccent" unicode="&#x157;" horiz-adv-x="523" 
d="M296 414l-64 -178h7q110 211 141 256q25 37 48 52t52 15q35 0 54 -22.5t19 -58.5q0 -42 -28 -77.5t-61 -50.5h-22q0 36 -28 36q-53 0 -112 -101q-58 -101 -105 -285h-182l109 439l-50 47l10 34l216 42h35zM101 -158h-61q-41 11 -41 50q0 32 25 54t69 22q41 0 63.5 -22
t22.5 -59q0 -61 -46 -99t-144 -38v45q49 0 78.5 13t33.5 34z" />
    <glyph glyph-name="Rcaron" unicode="&#x158;" horiz-adv-x="762" 
d="M512 752h-136l-92 169h89l88 -80l134 80h101zM364 290h-52l-32 -152q-1 -3 -1.5 -8t-0.5 -8q-2 -12 -2 -15q0 -22 14.5 -30.5t53.5 -9.5l-13 -67h-346l14 67q51 2 69.5 15.5t26.5 53.5l90 428l3 16q1 6 1 15q0 22 -14.5 30.5t-53.5 9.5l13 67h354q248 0 248 -183
q0 -77 -57 -130.5t-138 -68.5l79 -179q19 -45 37 -59.5t59 -14.5l-14 -67h-217q-35 35 -60 110zM422 631h-38l-59 -274h33q188 0 188 160q0 114 -124 114z" />
    <glyph glyph-name="rcaron" unicode="&#x159;" horiz-adv-x="523" 
d="M421 606h-136l-92 169h89l88 -80l134 80h101zM296 414l-64 -178h7q110 211 141 256q25 37 48 52t52 15q35 0 54 -22.5t19 -58.5q0 -42 -28 -77.5t-61 -50.5h-22q0 36 -28 36q-53 0 -112 -101q-58 -101 -105 -285h-182l109 439l-50 47l10 34l216 42h35z" />
    <glyph glyph-name="Sacute" unicode="&#x15a;" horiz-adv-x="589" 
d="M347 751l96 158h197l-194 -158h-99zM265 -10q-82 0 -148.5 28t-96.5 67l27 156h91q3 -87 39.5 -137t101.5 -50q47 0 76 25t29 71q0 39 -24.5 64t-90.5 56q-88 43 -129.5 94.5t-41.5 122.5q0 104 76 164.5t195 60.5q140 0 223 -75l-30 -147h-79q-8 74 -35.5 115.5
t-92.5 41.5q-45 0 -71 -25t-26 -64q0 -37 25 -61t87 -54q96 -47 140 -94.5t44 -123.5q0 -113 -89 -178q-77 -57 -200 -57z" />
    <glyph glyph-name="sacute" unicode="&#x15b;" horiz-adv-x="482" 
d="M258 606l96 160h197l-195 -160h-98zM214 45q27 0 42 14t15 38q0 7 -2.5 14.5t-9 16t-11.5 14t-17.5 16t-18 15t-21.5 17t-21 16.5q-101 79 -101 152q0 90 63.5 145.5t165.5 55.5q65 0 109.5 -29t44.5 -77q0 -21 -15.5 -37t-40.5 -23h-34q-7 48 -33 79t-62 31
q-60 0 -60 -47q0 -25 34 -52q113 -92 146 -130q33 -39 33 -86q0 -88 -66 -143t-164 -55q-83 0 -138.5 33.5t-55.5 82.5q0 29 17.5 49t45.5 29h30q21 -139 125 -139z" />
    <glyph glyph-name="Scircumflex" unicode="&#x15c;" horiz-adv-x="589" 
d="M372 918h136l92 -169h-89l-88 80l-134 -80h-101zM265 -10q-82 0 -148.5 28t-96.5 67l27 156h91q3 -87 39.5 -137t101.5 -50q47 0 76 25t29 71q0 39 -24.5 64t-90.5 56q-88 43 -129.5 94.5t-41.5 122.5q0 104 76 164.5t195 60.5q140 0 223 -75l-30 -147h-79
q-8 74 -35.5 115.5t-92.5 41.5q-45 0 -71 -25t-26 -64q0 -37 25 -61t87 -54q96 -47 140 -94.5t44 -123.5q0 -113 -89 -178q-77 -57 -200 -57z" />
    <glyph glyph-name="scircumflex" unicode="&#x15d;" horiz-adv-x="482" 
d="M285 766h136l92 -169h-89l-88 80l-134 -80h-101zM214 45q27 0 42 14t15 38q0 7 -2.5 14.5t-9 16t-11.5 14t-17.5 16t-18 15t-21.5 17t-21 16.5q-101 79 -101 152q0 90 63.5 145.5t165.5 55.5q65 0 109.5 -29t44.5 -77q0 -21 -15.5 -37t-40.5 -23h-34q-7 48 -33 79t-62 31
q-60 0 -60 -47q0 -25 34 -52q113 -92 146 -130q33 -39 33 -86q0 -88 -66 -143t-164 -55q-83 0 -138.5 33.5t-55.5 82.5q0 29 17.5 49t45.5 29h30q21 -139 125 -139z" />
    <glyph glyph-name="Scedilla" unicode="&#x15e;" horiz-adv-x="589" 
d="M126 -233l-11 49q55 0 88 10q34 9 34 29q0 34 -76 36l50 103q-64 8 -115 33.5t-76 57.5l27 156h91q3 -87 39.5 -137t101.5 -50q47 0 76 25t29 71q0 39 -24.5 64t-90.5 56q-88 43 -129.5 94.5t-41.5 122.5q0 104 76 164.5t195 60.5q140 0 223 -75l-30 -147h-79
q-8 74 -35.5 115.5t-92.5 41.5q-45 0 -71 -25t-26 -64q0 -37 25 -61t87 -54q96 -47 140 -94.5t44 -123.5q0 -113 -89 -178q-77 -57 -200 -57h-6l-17 -34q86 -7 86 -78q0 -52 -63 -83q-56 -28 -139 -28z" />
    <glyph glyph-name="scedilla" unicode="&#x15f;" horiz-adv-x="482" 
d="M43 -233l-11 49q55 0 88 10q34 9 34 29q0 34 -76 36l51 105q-60 10 -96.5 40t-36.5 70q0 29 17.5 49t45.5 29h30q21 -139 125 -139q27 0 42 14t15 38q0 7 -2.5 14.5t-9 16t-11.5 14t-17.5 16t-18 15t-21.5 17t-21 16.5q-101 79 -101 152q0 90 63.5 145.5t165.5 55.5
q65 0 109.5 -29t44.5 -77q0 -21 -15.5 -37t-40.5 -23h-34q-7 48 -33 79t-62 31q-60 0 -60 -47q0 -25 34 -52q113 -92 146 -130q33 -39 33 -86q0 -88 -66 -143t-164 -55q-5 0 -7 1h-6l-18 -35q86 -7 86 -78q0 -52 -63 -83q-56 -28 -139 -28z" />
    <glyph glyph-name="Scaron" unicode="&#x160;" horiz-adv-x="589" 
d="M472 752h-136l-92 169h89l88 -80l134 80h101zM265 -10q-82 0 -148.5 28t-96.5 67l27 156h91q3 -87 39.5 -137t101.5 -50q47 0 76 25t29 71q0 39 -24.5 64t-90.5 56q-88 43 -129.5 94.5t-41.5 122.5q0 104 76 164.5t195 60.5q140 0 223 -75l-30 -147h-79
q-8 74 -35.5 115.5t-92.5 41.5q-45 0 -71 -25t-26 -64q0 -37 25 -61t87 -54q96 -47 140 -94.5t44 -123.5q0 -113 -89 -178q-77 -57 -200 -57z" />
    <glyph glyph-name="scaron" unicode="&#x161;" horiz-adv-x="482" 
d="M383 606h-136l-92 169h89l88 -80l134 80h101zM214 45q27 0 42 14t15 38q0 7 -2.5 14.5t-9 16t-11.5 14t-17.5 16t-18 15t-21.5 17t-21 16.5q-101 79 -101 152q0 90 63.5 145.5t165.5 55.5q65 0 109.5 -29t44.5 -77q0 -21 -15.5 -37t-40.5 -23h-34q-7 48 -33 79t-62 31
q-60 0 -60 -47q0 -25 34 -52q113 -92 146 -130q33 -39 33 -86q0 -88 -66 -143t-164 -55q-83 0 -138.5 33.5t-55.5 82.5q0 29 17.5 49t45.5 29h30q21 -139 125 -139z" />
    <glyph glyph-name="uni0162" unicode="&#x162;" horiz-adv-x="737" 
d="M210 -233l-11 49q55 0 88 10q34 9 34 29q0 34 -76 36l54 109h-157l14 67q51 2 72 16t29 53l106 500h-19q-29 0 -51.5 -9t-47 -35.5t-40 -49t-49.5 -75.5h-75l65 235h651l-35 -235h-72q-14 91 -38.5 130t-81.5 39h-18l-103 -486q-1 -5 -2 -10.5t-2 -10t-1 -5.5
q-1 -6 -1 -14q0 -23 18 -32.5t59 -10.5l-13 -67h-158l-23 -44q86 -7 86 -78q0 -52 -63 -83q-56 -28 -139 -28z" />
    <glyph glyph-name="uni0163" unicode="&#x163;" horiz-adv-x="433" 
d="M37 -233l-11 49q55 0 88 10q34 9 34 29q0 34 -76 36l50 102q-35 7 -58 36.5t-23 71.5q0 35 10 76l75 305h-73l13 49q57 10 120 50t110 94h60l-31 -125h117l-17 -68h-117l-76 -308q-8 -38 -8 -51q0 -29 23 -29t51 24q25 20 73 71l31 -27q-61 -83 -115.5 -124.5
t-115.5 -46.5l-18 -35q86 -7 86 -78q0 -52 -63 -83q-56 -28 -139 -28z" />
    <glyph glyph-name="Tcaron" unicode="&#x164;" horiz-adv-x="737" 
d="M549 752h-136l-92 169h89l88 -80l134 80h101zM81 467l65 235h651l-35 -235h-72q-14 91 -38.5 130t-81.5 39h-18l-103 -486q-1 -5 -2 -10.5t-2 -10t-1 -5.5q-1 -6 -1 -14q0 -23 18 -32.5t59 -10.5l-13 -67h-365l14 67q51 2 72 16t29 53l106 500h-19q-29 0 -51.5 -9
t-47 -35.5t-40 -49t-49.5 -75.5h-75z" />
    <glyph glyph-name="tcaron" unicode="&#x165;" horiz-adv-x="433" 
d="M441 824h158l-133 -205h-76zM425 482h-117l-76 -308q-8 -38 -8 -51q0 -29 23 -29t51 24q25 20 73 71l31 -27q-63 -87 -121.5 -129.5t-126.5 -42.5q-54 0 -83.5 32.5t-29.5 78.5q0 35 10 76l75 305h-73l13 49q57 10 120 50t110 94h60l-31 -125h117z" />
    <glyph glyph-name="Tbar" unicode="&#x166;" horiz-adv-x="737" 
d="M81 467l65 235h651l-35 -235h-72q-14 91 -38.5 130t-81.5 39h-18l-50 -235h105l-16 -71h-104l-38 -180q-1 -5 -2 -10.5t-2 -10t-1 -5.5q-1 -6 -1 -14q0 -23 18 -32.5t59 -10.5l-13 -67h-365l14 67q51 2 72 16t29 53l41 194h-101l16 71h100l50 235h-19q-29 0 -51.5 -9
t-47 -35.5t-40 -49t-49.5 -75.5h-75z" />
    <glyph glyph-name="tbar" unicode="&#x167;" horiz-adv-x="461" 
d="M439 482h-117l-25 -102h127l-15 -66h-129l-34 -140q-8 -38 -8 -51q0 -29 23 -29t51 24q25 20 73 71l31 -27q-63 -87 -121.5 -129.5t-126.5 -42.5q-54 0 -83.5 32.5t-29.5 78.5q0 35 10 76l33 137h-60l16 66h61l25 102h-73l13 49q57 10 120 50t110 94h60l-31 -125h117z
" />
    <glyph glyph-name="Utilde" unicode="&#x168;" horiz-adv-x="775" 
d="M705 900l58 -12q-46 -91 -77 -121q-32 -29 -74 -29q-26 0 -70 32q-45 31 -62 31q-14 0 -27 -9t-20 -17.5t-21 -28.5l-59 11q49 94 78 122t73 28q30 0 73 -31q42 -32 59 -32q32 0 69 56zM598 275l62 289l3 16q1 6 1 15q0 22 -14.5 30.5t-53.5 9.5l13 67h249l-14 -67
q-51 -2 -69.5 -15.5t-26.5 -53.5l-66 -320q-26 -127 -109.5 -191.5t-204.5 -64.5q-122 0 -193 57t-71 160q0 32 10 79l58 278l3 16q1 6 1 15q0 22 -14.5 30.5t-53.5 9.5l13 67h351l-14 -67q-51 -2 -69.5 -15.5t-26.5 -53.5l-57 -269q-9 -45 -9 -72q0 -63 30.5 -97.5
t86.5 -34.5q72 0 117.5 40t67.5 142z" />
    <glyph glyph-name="utilde" unicode="&#x169;" horiz-adv-x="701" 
d="M578 771l58 -11q-46 -91 -77 -121q-32 -29 -74 -29q-26 0 -70 32q-45 31 -62 31q-14 0 -26.5 -8.5t-20.5 -18.5t-21 -29l-59 12q49 94 78 122t73 28q30 0 73 -31q42 -32 59 -32q32 0 69 55zM407 243h-7q-138 -253 -265 -253q-49 0 -73.5 26t-24.5 72q0 26 8 60l70 291
l-50 47l10 34l217 39h35l-100 -395q-4 -17 -4 -30q0 -23 17 -23q16 0 45 27q59 58 114 170q28 60 40 111l31 120l183 10l-100 -399q-8 -30 -8 -41q0 -15 14 -15t34 20q21 21 46 53l31 -27q-52 -76 -98.5 -113t-100.5 -37q-47 0 -72.5 29.5t-25.5 78.5q0 38 34 145z" />
    <glyph glyph-name="Umacron" unicode="&#x16a;" horiz-adv-x="775" 
d="M703 758h-318l24 106h318zM598 275l62 289l3 16q1 6 1 15q0 22 -14.5 30.5t-53.5 9.5l13 67h249l-14 -67q-51 -2 -69.5 -15.5t-26.5 -53.5l-66 -320q-26 -127 -109.5 -191.5t-204.5 -64.5q-122 0 -193 57t-71 160q0 32 10 79l58 278l3 16q1 6 1 15q0 22 -14.5 30.5
t-53.5 9.5l13 67h351l-14 -67q-51 -2 -69.5 -15.5t-26.5 -53.5l-57 -269q-9 -45 -9 -72q0 -63 30.5 -97.5t86.5 -34.5q72 0 117.5 40t67.5 142z" />
    <glyph glyph-name="umacron" unicode="&#x16b;" horiz-adv-x="701" 
d="M570 626h-308l23 101h308zM407 243h-7q-138 -253 -265 -253q-49 0 -73.5 26t-24.5 72q0 26 8 60l70 291l-50 47l10 34l217 39h35l-100 -395q-4 -17 -4 -30q0 -23 17 -23q16 0 45 27q59 58 114 170q28 60 40 111l31 120l183 10l-100 -399q-8 -30 -8 -41q0 -15 14 -15
t34 20q21 21 46 53l31 -27q-52 -76 -98.5 -113t-100.5 -37q-47 0 -72.5 29.5t-25.5 78.5q0 38 34 145z" />
    <glyph glyph-name="Ubreve" unicode="&#x16c;" horiz-adv-x="775" 
d="M544 746q-59 0 -93 30.5t-34 81.5q0 29 11 58h66q-1 -3 -1 -7v-7q0 -64 71 -64q73 0 105 78h74q-20 -80 -72.5 -125t-126.5 -45zM598 275l62 289l3 16q1 6 1 15q0 22 -14.5 30.5t-53.5 9.5l13 67h249l-14 -67q-51 -2 -69.5 -15.5t-26.5 -53.5l-66 -320
q-26 -127 -109.5 -191.5t-204.5 -64.5q-122 0 -193 57t-71 160q0 32 10 79l58 278l3 16q1 6 1 15q0 22 -14.5 30.5t-53.5 9.5l13 67h351l-14 -67q-51 -2 -69.5 -15.5t-26.5 -53.5l-57 -269q-9 -45 -9 -72q0 -63 30.5 -97.5t86.5 -34.5q72 0 117.5 40t67.5 142z" />
    <glyph glyph-name="ubreve" unicode="&#x16d;" horiz-adv-x="701" 
d="M410 603q-59 0 -93 30.5t-34 81.5q0 29 11 58h66q-1 -3 -1 -7v-7q0 -64 71 -64q73 0 105 78h74q-20 -80 -72.5 -125t-126.5 -45zM407 243h-7q-138 -253 -265 -253q-49 0 -73.5 26t-24.5 72q0 26 8 60l70 291l-50 47l10 34l217 39h35l-100 -395q-4 -17 -4 -30
q0 -23 17 -23q16 0 45 27q59 58 114 170q28 60 40 111l31 120l183 10l-100 -399q-8 -30 -8 -41q0 -15 14 -15t34 20q21 21 46 53l31 -27q-52 -76 -98.5 -113t-100.5 -37q-47 0 -72.5 29.5t-25.5 78.5q0 38 34 145z" />
    <glyph glyph-name="Uring" unicode="&#x16e;" horiz-adv-x="775" 
d="M553 739q-45 0 -74.5 26.5t-29.5 66.5q0 46 36.5 77.5t86.5 31.5q45 0 74.5 -26.5t29.5 -66.5q0 -46 -36.5 -77.5t-86.5 -31.5zM558 796q24 0 37.5 14.5t13.5 34.5q0 18 -11 28.5t-31 10.5q-24 0 -37.5 -14t-13.5 -34q0 -18 11 -29t31 -11zM598 275l62 289l3 16q1 6 1 15
q0 22 -14.5 30.5t-53.5 9.5l13 67h249l-14 -67q-51 -2 -69.5 -15.5t-26.5 -53.5l-66 -320q-26 -127 -109.5 -191.5t-204.5 -64.5q-122 0 -193 57t-71 160q0 32 10 79l58 278l3 16q1 6 1 15q0 22 -14.5 30.5t-53.5 9.5l13 67h351l-14 -67q-51 -2 -69.5 -15.5t-26.5 -53.5
l-57 -269q-9 -45 -9 -72q0 -63 30.5 -97.5t86.5 -34.5q72 0 117.5 40t67.5 142z" />
    <glyph glyph-name="uring" unicode="&#x16f;" horiz-adv-x="701" 
d="M423 597q-45 0 -74.5 26.5t-29.5 66.5q0 46 36.5 77.5t86.5 31.5q45 0 74.5 -26.5t29.5 -66.5q0 -46 -36.5 -77.5t-86.5 -31.5zM428 654q24 0 37.5 14.5t13.5 34.5q0 18 -11 28.5t-31 10.5q-24 0 -37.5 -14t-13.5 -34q0 -18 11 -29t31 -11zM407 243h-7
q-138 -253 -265 -253q-49 0 -73.5 26t-24.5 72q0 26 8 60l70 291l-50 47l10 34l217 39h35l-100 -395q-4 -17 -4 -30q0 -23 17 -23q16 0 45 27q59 58 114 170q28 60 40 111l31 120l183 10l-100 -399q-8 -30 -8 -41q0 -15 14 -15t34 20q21 21 46 53l31 -27q-52 -76 -98.5 -113
t-100.5 -37q-47 0 -72.5 29.5t-25.5 78.5q0 38 34 145z" />
    <glyph glyph-name="Uhungarumlaut" unicode="&#x170;" horiz-adv-x="775" 
d="M377 751l95 158h171l-178 -158h-88zM587 751l95 158h177l-184 -158h-88zM598 275l62 289l3 16q1 6 1 15q0 22 -14.5 30.5t-53.5 9.5l13 67h249l-14 -67q-51 -2 -69.5 -15.5t-26.5 -53.5l-66 -320q-26 -127 -109.5 -191.5t-204.5 -64.5q-122 0 -193 57t-71 160q0 32 10 79
l58 278l3 16q1 6 1 15q0 22 -14.5 30.5t-53.5 9.5l13 67h351l-14 -67q-51 -2 -69.5 -15.5t-26.5 -53.5l-57 -269q-9 -45 -9 -72q0 -63 30.5 -97.5t86.5 -34.5q72 0 117.5 40t67.5 142z" />
    <glyph glyph-name="uhungarumlaut" unicode="&#x171;" horiz-adv-x="701" 
d="M249 606l96 160h171l-179 -160h-88zM459 606l96 160h177l-185 -160h-88zM407 243h-7q-138 -253 -265 -253q-49 0 -73.5 26t-24.5 72q0 26 8 60l70 291l-50 47l10 34l217 39h35l-100 -395q-4 -17 -4 -30q0 -23 17 -23q16 0 45 27q59 58 114 170q28 60 40 111l31 120
l183 10l-100 -399q-8 -30 -8 -41q0 -15 14 -15t34 20q21 21 46 53l31 -27q-52 -76 -98.5 -113t-100.5 -37q-47 0 -72.5 29.5t-25.5 78.5q0 38 34 145z" />
    <glyph glyph-name="Uogonek" unicode="&#x172;" horiz-adv-x="775" 
d="M598 275l62 289l3 16q1 6 1 15q0 22 -14.5 30.5t-53.5 9.5l13 67h249l-14 -67q-51 -2 -69.5 -15.5t-26.5 -53.5l-66 -320q-21 -97 -76 -159t-135 -84q-83 -52 -83 -102q0 -39 39 -39q29 0 72 25l16 -28q-80 -75 -155 -75q-37 0 -61.5 19.5t-24.5 52.5q0 76 100 134h-6
q-122 0 -193 57t-71 160q0 32 10 79l58 278l3 16q1 6 1 15q0 22 -14.5 30.5t-53.5 9.5l13 67h351l-14 -67q-51 -2 -69.5 -15.5t-26.5 -53.5l-57 -269q-9 -45 -9 -72q0 -63 30.5 -97.5t86.5 -34.5q72 0 117.5 40t67.5 142z" />
    <glyph glyph-name="uogonek" unicode="&#x173;" horiz-adv-x="701" 
d="M470 539l183 10l-99 -394q-8 -30 -8 -41q0 -15 14 -15q13 0 33 17q18 16 45 51l32 -27q-72 -90 -166 -162q-24 -19 -33.5 -27t-18 -21.5t-8.5 -28.5q0 -39 39 -39q29 0 72 25l16 -28q-80 -75 -155 -75q-37 0 -61.5 20t-24.5 53q0 83 106 141q-63 17 -63 100q0 38 34 145
h-7q-138 -253 -265 -253q-49 0 -73.5 26t-24.5 72q0 26 8 60l70 291l-50 47l10 34l217 39h35l-100 -395q-4 -17 -4 -30q0 -23 17 -23q16 0 45 27q59 58 114 170q28 60 40 111z" />
    <glyph glyph-name="Wcircumflex" unicode="&#x174;" horiz-adv-x="1012" 
d="M610 918h136l92 -169h-89l-88 80l-134 -80h-101zM717 530l33 -276l149 280q27 52 27 70q0 16 -12 23q-12 6 -49 8l14 67h229l-14 -67q-19 -3 -28 -5.5t-20.5 -10.5t-19.5 -21l-344 -602h-73l-56 387l-220 -387h-71l-118 602q-6 29 -48 37l14 67h322l-14 -67
q-71 -6 -72 -60q0 -10 1 -15q1 -3 1.5 -9.5t0.5 -9.5l54 -294l134 235l-14 116q-4 29 -42 37l14 67h315l-13 -67q-83 -2 -83 -66q0 -10 1 -16q1 -4 1.5 -11.5t0.5 -11.5z" />
    <glyph glyph-name="wcircumflex" unicode="&#x175;" horiz-adv-x="837" 
d="M465 766h136l92 -169h-89l-88 80l-134 -80h-101zM399 320l-13 125l-61 41l10 34l176 39h35l28 -399l74 87q58 66 58 144q0 36 -23.5 57t-62.5 21l1 19q17 30 49 50.5t72 20.5q45 0 68 -29t23 -72q0 -89 -127 -231l-209 -232h-65l-26 255l-212 -255h-63l-52 450l-61 41
l10 34l185 39h35l34 -384z" />
    <glyph glyph-name="Ycircumflex" unicode="&#x176;" horiz-adv-x="692" 
d="M462 918h136l92 -169h-89l-88 80l-134 -80h-101zM354 535l65 -195l148 196q36 47 36 65q0 33 -59 34l14 67h230l-14 -67q-43 -7 -67 -37l-263 -341l-26 -121l-2 -14q-1 -5 -1 -12q0 -24 17 -33t59 -10l-14 -67h-355l14 67q50 2 71 16t29 53l26 122l-118 340
q-11 30 -48 37l14 67h324l-14 -67q-76 0 -76 -52q0 -21 10 -48z" />
    <glyph glyph-name="ycircumflex" unicode="&#x177;" horiz-adv-x="569" 
d="M321 766h136l92 -169h-89l-88 80l-134 -80h-101zM363 58q-112 -144 -193.5 -204t-159.5 -60q-50 0 -83.5 23.5t-33.5 67.5q0 27 17 48.5t46 31.5h32q0 -48 18 -73t60 -25q59 0 130 70l-117 508l-61 41l10 34l185 39h35l85 -457l3 3q102 140 102 272q0 45 -23 68.5
t-64 23.5l1 19q44 71 121 71q45 0 68.5 -30.5t23.5 -73.5q0 -83 -53 -178.5t-149 -218.5z" />
    <glyph glyph-name="Ydieresis" unicode="&#x178;" horiz-adv-x="692" 
d="M400 743q-39 0 -63 24.5t-24 58.5q0 38 26 65.5t67 27.5q39 0 62.5 -24t23.5 -58q0 -38 -25.5 -66t-66.5 -28zM619 743q-38 0 -62 24.5t-24 58.5q0 38 25.5 65.5t66.5 27.5q39 0 62.5 -24t23.5 -58q0 -38 -25.5 -66t-66.5 -28zM354 535l65 -195l148 196q36 47 36 65
q0 33 -59 34l14 67h230l-14 -67q-43 -7 -67 -37l-263 -341l-26 -121l-2 -14q-1 -5 -1 -12q0 -24 17 -33t59 -10l-14 -67h-355l14 67q50 2 71 16t29 53l26 122l-118 340q-11 30 -48 37l14 67h324l-14 -67q-76 0 -76 -52q0 -21 10 -48z" />
    <glyph glyph-name="Zacute" unicode="&#x179;" horiz-adv-x="648" 
d="M372 751l96 158h197l-194 -158h-99zM703 654l-473 -583h114q61 0 96 28q31 25 112 133h80l-84 -232h-571l10 47l476 583h-117q-20 0 -36.5 -5.5t-27 -10t-26 -22t-21.5 -25t-25.5 -36t-26.5 -38.5h-69l45 209h555z" />
    <glyph glyph-name="zacute" unicode="&#x17a;" horiz-adv-x="543" 
d="M291 606l96 160h197l-195 -160h-98zM2 87l359 315h-186q-24 0 -35.5 -6.5t-24.5 -27.5l-27 -41l-34 9l89 247h35q6 -37 22 -37h366v-33l-366 -329l84 -25q38 -12 72 -12q42 0 67 13.5t59 64.5l34 -11q-46 -120 -94 -174.5t-116 -54.5q-64 0 -141 44l-88 50l-49 -83
q-55 0 -55 37q0 28 29 54z" />
    <glyph glyph-name="Zdotaccent" unicode="&#x17b;" horiz-adv-x="648" 
d="M444 744q-44 0 -70 25.5t-26 62.5q0 41 28.5 70t75.5 29q43 0 69.5 -25.5t26.5 -61.5q0 -41 -28.5 -70.5t-75.5 -29.5zM703 654l-473 -583h114q61 0 96 28q31 25 112 133h80l-84 -232h-571l10 47l476 583h-117q-20 0 -36.5 -5.5t-27 -10t-26 -22t-21.5 -25t-25.5 -36
t-26.5 -38.5h-69l45 209h555z" />
    <glyph glyph-name="zdotaccent" unicode="&#x17c;" horiz-adv-x="543" 
d="M361 599q-44 0 -70 25.5t-26 62.5q0 41 28.5 70t75.5 29q43 0 69.5 -25.5t26.5 -61.5q0 -41 -28.5 -70.5t-75.5 -29.5zM2 87l359 315h-186q-24 0 -35.5 -6.5t-24.5 -27.5l-27 -41l-34 9l89 247h35q6 -37 22 -37h366v-33l-366 -329l84 -25q38 -12 72 -12q42 0 67 13.5
t59 64.5l34 -11q-46 -120 -94 -174.5t-116 -54.5q-64 0 -141 44l-88 50l-49 -83q-55 0 -55 37q0 28 29 54z" />
    <glyph glyph-name="Zcaron" unicode="&#x17d;" horiz-adv-x="648" 
d="M497 752h-136l-92 169h89l88 -80l134 80h101zM703 654l-473 -583h114q61 0 96 28q31 25 112 133h80l-84 -232h-571l10 47l476 583h-117q-20 0 -36.5 -5.5t-27 -10t-26 -22t-21.5 -25t-25.5 -36t-26.5 -38.5h-69l45 209h555z" />
    <glyph glyph-name="zcaron" unicode="&#x17e;" horiz-adv-x="543" 
d="M416 606h-136l-92 169h89l88 -80l134 80h101zM2 87l359 315h-186q-24 0 -35.5 -6.5t-24.5 -27.5l-27 -41l-34 9l89 247h35q6 -37 22 -37h366v-33l-366 -329l84 -25q38 -12 72 -12q42 0 67 13.5t59 64.5l34 -11q-46 -120 -94 -174.5t-116 -54.5q-64 0 -141 44l-88 50
l-49 -83q-55 0 -55 37q0 28 29 54z" />
    <glyph glyph-name="florin" unicode="&#x192;" horiz-adv-x="523" 
d="M147 290h-94l15 61h93l10 45q36 164 98 240t185 76q66 0 108.5 -21.5t42.5 -67.5q0 -55 -54 -69h-62q7 47 -1.5 78t-36.5 31q-36 0 -46 -60l-55 -252h110l-11 -61h-113l-32 -148q-41 -184 -103 -263t-186 -79q-66 0 -108.5 21t-42.5 67q0 53 54 70h62q-15 -109 38 -109
q36 0 46 60z" />
    <glyph glyph-name="Aringacute" unicode="&#x1fa;" horiz-adv-x="759" 
d="M477 941l72 120h197l-170 -120h-99zM474 734q-50 0 -81 22t-31 59q0 42 39 70.5t93 28.5q51 0 81.5 -21.5t30.5 -58.5q0 -42 -39 -71t-93 -29zM479 786q26 0 40.5 12.5t14.5 31.5q0 32 -45 32q-26 0 -40.5 -12.5t-14.5 -30.5q0 -33 45 -33zM462 151l-12 63h-255l-39 -63
q-18 -30 -18 -49q0 -16 14 -25q13 -9 50 -10l-14 -67h-226l14 67q46 8 64 37l327 520l-18 79h190l128 -599q6 -31 51 -37l-13 -67h-334l14 67q44 2 63 12t19 33q0 17 -5 39zM437 282l-46 247l-154 -247h200z" />
    <glyph glyph-name="aringacute" unicode="&#x1fb;" horiz-adv-x="694" 
d="M434 788l72 120h197l-170 -120h-99zM431 581q-50 0 -81 22t-31 59q0 42 39 70.5t93 28.5q51 0 81.5 -21.5t30.5 -58.5q0 -42 -39 -71t-93 -29zM436 633q26 0 40.5 12.5t14.5 31.5q0 32 -45 32q-26 0 -40.5 -12.5t-14.5 -30.5q0 -33 45 -33zM482 505l105 54h71l-41 -141
l-66 -268q-8 -30 -8 -41q0 -15 14 -15q13 0 33 20q21 21 46 53l32 -27q-53 -76 -100.5 -113t-101.5 -37q-46 0 -73 30t-27 78q0 22 8 48q14 45 19 64h-7q-46 -100 -89 -149q-64 -71 -136 -71q-60 0 -97.5 48t-37.5 128q0 69 24.5 139.5t68.5 126.5q100 127 245 127
q67 0 118 -54zM249 111q49 0 108 104q56 100 85 238q-7 18 -11 26t-14 14.5t-26 6.5q-76 0 -132 -110q-53 -101 -53 -208q0 -71 43 -71z" />
    <glyph glyph-name="AEacute" unicode="&#x1fc;" horiz-adv-x="1042" 
d="M672 751l96 158h197l-194 -158h-99zM40 104l422 502q-6 18 -19.5 23.5t-47.5 5.5l13 67h673l-41 -191h-71q-11 67 -32.5 94.5t-77.5 27.5h-103l-49 -236h74q33 0 52.5 17t36.5 62h64l-48 -229h-64q0 45 -11.5 62t-44.5 17h-74l-37 -177q-5 -22 -5 -35q0 -26 16.5 -35.5
t52.5 -9.5h23q52 0 92 29.5t99 107.5h79l-74 -206h-585l14 67q51 2 69.5 15.5t26.5 53.5l22 108h-234l-71 -83q-29 -33 -29 -59q0 -16 14 -25q13 -9 50 -10l-14 -67h-239l14 67q40 7 64 37zM500 312l61 291l-251 -291h190z" />
    <glyph glyph-name="aeacute" unicode="&#x1fd;" horiz-adv-x="865" 
d="M457 606l96 160h197l-195 -160h-98zM357 559q94 0 145 -75q95 75 208 75q70 0 110 -36t40 -87q0 -77 -83 -125.5t-243 -77.5v-14q0 -58 26.5 -93.5t71.5 -35.5q44 0 79.5 20t75.5 66l28 -27q-45 -78 -115 -118.5t-142 -40.5q-82 0 -133.5 47.5t-61.5 125.5
q-92 -173 -202 -173q-60 0 -97.5 48t-37.5 128q0 145 92 266q44 58 106.5 92.5t132.5 34.5zM249 111q24 0 54.5 30.5t58.5 82.5q8 127 103 226q-26 54 -73 54q-75 0 -133 -112q-53 -103 -53 -210q0 -71 43 -71zM685 498q-49 0 -93 -72q-42 -69 -54 -154q93 28 136.5 70.5
t43.5 103.5q0 52 -33 52z" />
    <glyph glyph-name="Oslashacute" unicode="&#x1fe;" horiz-adv-x="764" 
d="M436 751l96 158h197l-194 -158h-99zM628 772l54 -30l-46 -74q121 -76 121 -241q0 -82 -29 -161t-82 -139q-120 -137 -296 -137q-64 0 -117 18l-56 -93l-54 30l54 89q-57 36 -88.5 98t-31.5 143q0 82 29 161t82 139q120 137 296 137q66 0 116 -18zM460 641
q-46 0 -85 -37.5t-67 -100.5q-56 -123 -56 -253q0 -55 5 -86l273 447q-24 30 -70 30zM557 537l-273 -447q23 -29 70 -29q46 0 85 38t68 101q55 123 55 254q0 43 -5 83z" />
    <glyph glyph-name="oslashacute" unicode="&#x1ff;" horiz-adv-x="622" 
d="M327 606l96 160h197l-195 -160h-98zM516 619l43 -28l-52 -77q85 -64 85 -185q0 -144 -93 -239q-97 -100 -242 -100q-49 0 -95 18l-68 -100l-43 28l66 97q-87 64 -87 187q0 144 93 240q97 99 242 99q55 0 97 -19zM197 165v-14l214 314q-15 31 -54 31q-64 0 -115 -121
q-45 -109 -45 -210zM425 384v10l-212 -311q17 -30 52 -30q65 0 115 122q45 108 45 209z" />
    <glyph glyph-name="Scommaaccent" unicode="&#x218;" horiz-adv-x="589" 
d="M265 -10q-82 0 -148.5 28t-96.5 67l27 156h91q3 -87 39.5 -137t101.5 -50q47 0 76 25t29 71q0 39 -24.5 64t-90.5 56q-88 43 -129.5 94.5t-41.5 122.5q0 104 76 164.5t195 60.5q140 0 223 -75l-30 -147h-79q-8 74 -35.5 115.5t-92.5 41.5q-45 0 -71 -25t-26 -64
q0 -37 25 -61t87 -54q96 -47 140 -94.5t44 -123.5q0 -113 -89 -178q-77 -57 -200 -57zM232 -158h-61q-41 11 -41 50q0 32 25 54t69 22q41 0 63.5 -22t22.5 -59q0 -61 -46 -99t-144 -38v45q49 0 78.5 13t33.5 34z" />
    <glyph glyph-name="scommaaccent" unicode="&#x219;" horiz-adv-x="482" 
d="M214 45q27 0 42 14t15 38q0 7 -2.5 14.5t-9 16t-11.5 14t-17.5 16t-18 15t-21.5 17t-21 16.5q-101 79 -101 152q0 90 63.5 145.5t165.5 55.5q65 0 109.5 -29t44.5 -77q0 -21 -15.5 -37t-40.5 -23h-34q-7 48 -33 79t-62 31q-60 0 -60 -47q0 -25 34 -52q113 -92 146 -130
q33 -39 33 -86q0 -88 -66 -143t-164 -55q-83 0 -138.5 33.5t-55.5 82.5q0 29 17.5 49t45.5 29h30q21 -139 125 -139zM173 -158h-61q-41 11 -41 50q0 32 25 54t69 22q41 0 63.5 -22t22.5 -59q0 -61 -46 -99t-144 -38v45q49 0 78.5 13t33.5 34z" />
    <glyph glyph-name="uni021A" unicode="&#x21a;" horiz-adv-x="737" 
d="M81 467l65 235h651l-35 -235h-72q-14 91 -38.5 130t-81.5 39h-18l-103 -486q-1 -5 -2 -10.5t-2 -10t-1 -5.5q-1 -6 -1 -14q0 -23 18 -32.5t59 -10.5l-13 -67h-365l14 67q51 2 72 16t29 53l106 500h-19q-29 0 -51.5 -9t-47 -35.5t-40 -49t-49.5 -75.5h-75zM309 -158h-61
q-41 11 -41 50q0 32 25 54t69 22q41 0 63.5 -22t22.5 -59q0 -61 -46 -99t-144 -38v45q49 0 78.5 13t33.5 34z" />
    <glyph glyph-name="uni021B" unicode="&#x21b;" horiz-adv-x="433" 
d="M425 482h-117l-76 -308q-8 -38 -8 -51q0 -29 23 -29t51 24q25 20 73 71l31 -27q-63 -87 -121.5 -129.5t-126.5 -42.5q-54 0 -83.5 32.5t-29.5 78.5q0 35 10 76l75 305h-73l13 49q57 10 120 50t110 94h60l-31 -125h117zM157 -158h-61q-41 11 -41 50q0 32 25 54t69 22
q41 0 63.5 -22t22.5 -59q0 -61 -46 -99t-144 -38v45q49 0 78.5 13t33.5 34z" />
    <glyph glyph-name="uni0237" unicode="&#x237;" horiz-adv-x="340" 
d="M24 -4l101 443l-51 47l10 34l218 39h35l-115 -456q-39 -151 -110.5 -230.5t-173.5 -79.5q-57 0 -92 22t-35 59q0 34 22.5 54.5t56.5 24.5h28q2 -50 10 -81q8 -33 30 -33t35 37q10 31 31 120z" />
    <glyph glyph-name="circumflex" unicode="&#x2c6;" horiz-adv-x="500" 
d="M199 766h136l92 -169h-89l-88 80l-134 -80h-101z" />
    <glyph glyph-name="caron" unicode="&#x2c7;" horiz-adv-x="500" 
d="M273 606h-136l-92 169h89l88 -80l134 80h101z" />
    <glyph glyph-name="breve" unicode="&#x2d8;" horiz-adv-x="500" 
d="M244 603q-59 0 -93 30.5t-34 81.5q0 29 11 58h66q-1 -3 -1 -7v-7q0 -64 71 -64q73 0 105 78h74q-20 -80 -72.5 -125t-126.5 -45z" />
    <glyph glyph-name="dotaccent" unicode="&#x2d9;" horiz-adv-x="500" 
d="M261 599q-44 0 -70 25.5t-26 62.5q0 41 28.5 70t75.5 29q43 0 69.5 -25.5t26.5 -61.5q0 -41 -28.5 -70.5t-75.5 -29.5z" />
    <glyph glyph-name="ring" unicode="&#x2da;" horiz-adv-x="500" 
d="M251 597q-45 0 -74.5 26.5t-29.5 66.5q0 46 36.5 77.5t86.5 31.5q45 0 74.5 -26.5t29.5 -66.5q0 -46 -36.5 -77.5t-86.5 -31.5zM256 654q24 0 37.5 14.5t13.5 34.5q0 18 -11 28.5t-31 10.5q-24 0 -37.5 -14t-13.5 -34q0 -18 11 -29t31 -11z" />
    <glyph glyph-name="ogonek" unicode="&#x2db;" horiz-adv-x="500" 
d="M340 43l9 -24q-109 -62 -109 -118q0 -39 39 -39q29 0 72 25l16 -28q-80 -75 -155 -75q-37 0 -61.5 19.5t-24.5 52.5q0 64 69 113q46 33 145 74z" />
    <glyph glyph-name="tilde" unicode="&#x2dc;" horiz-adv-x="500" 
d="M397 771l58 -11q-46 -91 -77 -121q-32 -29 -74 -29q-26 0 -70 32q-45 31 -62 31q-14 0 -26.5 -8.5t-20.5 -18.5t-21 -29l-59 12q49 94 78 122t73 28q30 0 73 -31q42 -32 59 -32q32 0 69 55z" />
    <glyph glyph-name="hungarumlaut" unicode="&#x2dd;" horiz-adv-x="500" 
d="M13 606l96 160h171l-179 -160h-88zM223 606l96 160h177l-185 -160h-88z" />
    <glyph glyph-name="uni03A9" unicode="&#x3a9;" horiz-adv-x="756" 
d="M465 639q-91 0 -148 -132q-44 -102 -44 -216q0 -107 40 -201l-19 -90h-271l17 198h41q21 -61 39.5 -74.5t83.5 -13.5h53q-66 21 -113 91.5t-47 162.5q0 143 114 247q111 101 264 101q121 0 187.5 -70t66.5 -179q0 -124 -83 -222q-80 -92 -205 -131h53q66 0 91 14
q10 6 21.5 17.5t20 21.5t28.5 35h41l-67 -198h-271l19 90q76 90 125 201t49 214q0 62 -21.5 98t-64.5 36z" />
    <glyph glyph-name="uni03BC" unicode="&#x3bc;" horiz-adv-x="701" 
d="M173 -6l-34 -181l-179 -10l155 636l-50 47l10 34l217 39h35l-100 -395q-4 -17 -4 -30q0 -23 17 -23q16 0 45 27q59 58 114 170q28 60 40 111l31 120l183 10l-100 -399q-8 -30 -8 -41q0 -15 14 -15t34 20q21 21 46 53l31 -27q-52 -76 -98.5 -113t-100.5 -37
q-47 0 -72.5 29.5t-25.5 78.5q0 38 34 145h-7q-117 -213 -227 -249z" />
    <glyph glyph-name="pi" unicode="&#x3c0;" horiz-adv-x="690" 
d="M442 422h-123q-28 -136 -59 -238q-24 -78 -70 -184h-191l9 47q49 62 74.5 99t59.5 112.5t53 163.5h-108l27 128h590l-44 -128h-80q-60 -240 -60 -291q0 -16 9 -26t24 -10q21 0 43 6l-2 -51q-76 -60 -152 -60q-47 0 -74 24.5t-27 68.5q0 82 101 339z" />
    <glyph glyph-name="Wgrave" unicode="&#x1e80;" horiz-adv-x="1012" 
d="M608 751l-125 158h181l35 -158h-91zM717 530l33 -276l149 280q27 52 27 70q0 16 -12 23q-12 6 -49 8l14 67h229l-14 -67q-19 -3 -28 -5.5t-20.5 -10.5t-19.5 -21l-344 -602h-73l-56 387l-220 -387h-71l-118 602q-6 29 -48 37l14 67h322l-14 -67q-71 -6 -72 -60
q0 -10 1 -15q1 -3 1.5 -9.5t0.5 -9.5l54 -294l134 235l-14 116q-4 29 -42 37l14 67h315l-13 -67q-83 -2 -83 -66q0 -10 1 -16q1 -4 1.5 -11.5t0.5 -11.5z" />
    <glyph glyph-name="wgrave" unicode="&#x1e81;" horiz-adv-x="837" 
d="M459 606l-125 160h181l35 -160h-91zM399 320l-13 125l-61 41l10 34l176 39h35l28 -399l74 87q58 66 58 144q0 36 -23.5 57t-62.5 21l1 19q17 30 49 50.5t72 20.5q45 0 68 -29t23 -72q0 -89 -127 -231l-209 -232h-65l-26 255l-212 -255h-63l-52 450l-61 41l10 34l185 39
h35l34 -384z" />
    <glyph glyph-name="Wacute" unicode="&#x1e82;" horiz-adv-x="1012" 
d="M586 751l96 158h197l-194 -158h-99zM717 530l33 -276l149 280q27 52 27 70q0 16 -12 23q-12 6 -49 8l14 67h229l-14 -67q-19 -3 -28 -5.5t-20.5 -10.5t-19.5 -21l-344 -602h-73l-56 387l-220 -387h-71l-118 602q-6 29 -48 37l14 67h322l-14 -67q-71 -6 -72 -60
q0 -10 1 -15q1 -3 1.5 -9.5t0.5 -9.5l54 -294l134 235l-14 116q-4 29 -42 37l14 67h315l-13 -67q-83 -2 -83 -66q0 -10 1 -16q1 -4 1.5 -11.5t0.5 -11.5z" />
    <glyph glyph-name="wacute" unicode="&#x1e83;" horiz-adv-x="837" 
d="M438 606l96 160h197l-195 -160h-98zM399 320l-13 125l-61 41l10 34l176 39h35l28 -399l74 87q58 66 58 144q0 36 -23.5 57t-62.5 21l1 19q17 30 49 50.5t72 20.5q45 0 68 -29t23 -72q0 -89 -127 -231l-209 -232h-65l-26 255l-212 -255h-63l-52 450l-61 41l10 34l185 39
h35l34 -384z" />
    <glyph glyph-name="Wdieresis" unicode="&#x1e84;" horiz-adv-x="1012" 
d="M548 743q-39 0 -63 24.5t-24 58.5q0 38 26 65.5t67 27.5q39 0 62.5 -24t23.5 -58q0 -38 -25.5 -66t-66.5 -28zM767 743q-38 0 -62 24.5t-24 58.5q0 38 25.5 65.5t66.5 27.5q39 0 62.5 -24t23.5 -58q0 -38 -25.5 -66t-66.5 -28zM717 530l33 -276l149 280q27 52 27 70
q0 16 -12 23q-12 6 -49 8l14 67h229l-14 -67q-19 -3 -28 -5.5t-20.5 -10.5t-19.5 -21l-344 -602h-73l-56 387l-220 -387h-71l-118 602q-6 29 -48 37l14 67h322l-14 -67q-71 -6 -72 -60q0 -10 1 -15q1 -3 1.5 -9.5t0.5 -9.5l54 -294l134 235l-14 116q-4 29 -42 37l14 67h315
l-13 -67q-83 -2 -83 -66q0 -10 1 -16q1 -4 1.5 -11.5t0.5 -11.5z" />
    <glyph glyph-name="wdieresis" unicode="&#x1e85;" horiz-adv-x="837" 
d="M400 603q-39 0 -63 24.5t-24 58.5q0 38 26 65.5t67 27.5q39 0 62.5 -24t23.5 -58q0 -38 -25.5 -66t-66.5 -28zM619 603q-38 0 -62 24.5t-24 58.5q0 38 25.5 65.5t66.5 27.5q39 0 62.5 -24t23.5 -58q0 -38 -25.5 -66t-66.5 -28zM399 320l-13 125l-61 41l10 34l176 39h35
l28 -399l74 87q58 66 58 144q0 36 -23.5 57t-62.5 21l1 19q17 30 49 50.5t72 20.5q45 0 68 -29t23 -72q0 -89 -127 -231l-209 -232h-65l-26 255l-212 -255h-63l-52 450l-61 41l10 34l185 39h35l34 -384z" />
    <glyph glyph-name="Ygrave" unicode="&#x1ef2;" horiz-adv-x="692" 
d="M470 751l-125 158h181l35 -158h-91zM354 535l65 -195l148 196q36 47 36 65q0 33 -59 34l14 67h230l-14 -67q-43 -7 -67 -37l-263 -341l-26 -121l-2 -14q-1 -5 -1 -12q0 -24 17 -33t59 -10l-14 -67h-355l14 67q50 2 71 16t29 53l26 122l-118 340q-11 30 -48 37l14 67h324
l-14 -67q-76 0 -76 -52q0 -21 10 -48z" />
    <glyph glyph-name="ygrave" unicode="&#x1ef3;" horiz-adv-x="569" 
d="M314 606l-125 160h181l35 -160h-91zM363 58q-112 -144 -193.5 -204t-159.5 -60q-50 0 -83.5 23.5t-33.5 67.5q0 27 17 48.5t46 31.5h32q0 -48 18 -73t60 -25q59 0 130 70l-117 508l-61 41l10 34l185 39h35l85 -457l3 3q102 140 102 272q0 45 -23 68.5t-64 23.5l1 19
q44 71 121 71q45 0 68.5 -30.5t23.5 -73.5q0 -83 -53 -178.5t-149 -218.5z" />
    <glyph glyph-name="endash" unicode="&#x2013;" horiz-adv-x="580" 
d="M551 348l-18 -86h-487l18 86h487z" />
    <glyph glyph-name="emdash" unicode="&#x2014;" horiz-adv-x="1000" 
d="M971 348l-18 -86h-907l18 86h907z" />
    <glyph glyph-name="quoteleft" unicode="&#x2018;" horiz-adv-x="324" 
d="M221 636h37q73 -15 73 -86q0 -40 -26 -66t-72 -26q-49 0 -79 32.5t-30 88.5q0 81 65 136t175 55v-59q-132 -15 -143 -75z" />
    <glyph glyph-name="quoteright" unicode="&#x2019;" horiz-adv-x="324" 
d="M259 592h-37q-73 15 -73 86q0 40 26 66t72 26q49 0 79 -32.5t30 -88.5q0 -81 -65 -136t-175 -55v59q132 15 143 75z" />
    <glyph glyph-name="quotesinglbase" unicode="&#x201a;" horiz-adv-x="324" 
d="M144 9h-37q-73 15 -73 86q0 40 26 66t72 26q49 0 79 -32.5t30 -88.5q0 -81 -65 -136t-175 -55v59q132 15 143 75z" />
    <glyph glyph-name="quotedblleft" unicode="&#x201c;" horiz-adv-x="588" 
d="M221 636h37q73 -15 73 -86q0 -40 -26 -66t-72 -26q-49 0 -79 32.5t-30 88.5q0 81 65 136t175 55v-59q-132 -15 -143 -75zM485 636h37q73 -15 73 -86q0 -40 -26 -66t-72 -26q-49 0 -79 32.5t-30 88.5q0 81 65 136t175 55v-59q-132 -15 -143 -75z" />
    <glyph glyph-name="quotedblright" unicode="&#x201d;" horiz-adv-x="588" 
d="M259 592h-37q-73 15 -73 86q0 40 26 66t72 26q49 0 79 -32.5t30 -88.5q0 -81 -65 -136t-175 -55v59q132 15 143 75zM523 592h-37q-73 15 -73 86q0 40 26 66t72 26q49 0 79 -32.5t30 -88.5q0 -81 -65 -136t-175 -55v59q132 15 143 75z" />
    <glyph glyph-name="quotedblbase" unicode="&#x201e;" horiz-adv-x="588" 
d="M144 9h-37q-73 15 -73 86q0 40 26 66t72 26q49 0 79 -32.5t30 -88.5q0 -81 -65 -136t-175 -55v59q132 15 143 75zM409 9h-37q-73 15 -73 86q0 40 26 66t72 26q49 0 79 -32.5t30 -88.5q0 -81 -65 -136t-175 -55v59q132 15 143 75z" />
    <glyph glyph-name="dagger" unicode="&#x2020;" horiz-adv-x="502" 
d="M96 504l21 101l170 -22l16 175h105l-61 -175l182 22l-21 -101l-173 21l-41 -303h-105l87 303z" />
    <glyph glyph-name="daggerdbl" unicode="&#x2021;" horiz-adv-x="502" 
d="M259 428l27 124l-181 -21l22 101l170 -22l10 148h105l-55 -148l182 22l-22 -101l-172 21l-27 -124l182 21l-22 -101l-172 22l-8 -148h-105l53 148l-180 -22l22 101z" />
    <glyph glyph-name="bullet" unicode="&#x2022;" horiz-adv-x="422" 
d="M54 309q0 68 47.5 116.5t113.5 48.5t113.5 -48.5t47.5 -116.5q0 -66 -47.5 -115t-113.5 -49t-113.5 49t-47.5 115z" />
    <glyph glyph-name="ellipsis" unicode="&#x2026;" horiz-adv-x="930" 
d="M23 97q0 47 31 77.5t76 30.5q46 0 77 -30.5t31 -77.5t-31 -77t-77 -30q-45 0 -76 30t-31 77zM333 97q0 47 31 77.5t76 30.5q46 0 77 -30.5t31 -77.5t-31 -77t-77 -30q-45 0 -76 30t-31 77zM643 97q0 47 31 77.5t76 30.5q46 0 77 -30.5t31 -77.5t-31 -77t-77 -30
q-45 0 -76 30t-31 77z" />
    <glyph glyph-name="perthousand" unicode="&#x2030;" horiz-adv-x="1349" 
d="M209 -19h-76l606 741h78zM235 335q-67 0 -112 37t-45 104q0 109 75 177q67 59 154 59q67 0 112 -37t45 -104q0 -110 -75 -176q-66 -60 -154 -60zM301 664q-37 0 -67 -64t-30 -149q0 -68 37 -68t67 64t30 149q0 68 -37 68zM714 368q67 0 112 -37t45 -104q0 -110 -75 -176
q-66 -60 -154 -60q-67 0 -112 37t-45 104q0 109 75 177q67 59 154 59zM1133 368q67 0 112 -37t45 -104q0 -110 -75 -176q-66 -60 -154 -60q-67 0 -112 37t-45 104q0 109 75 177q67 59 154 59zM648 39q37 0 67 64t30 149q0 68 -37 68t-67 -64t-30 -149q0 -68 37 -68zM1067 39
q37 0 67 64t30 149q0 68 -37 68t-67 -64t-30 -149q0 -68 37 -68z" />
    <glyph glyph-name="guilsinglleft" unicode="&#x2039;" horiz-adv-x="338" 
d="M167 71l-137 200l2 10l222 200h88l-157 -205l59 -205h-77z" />
    <glyph glyph-name="guilsinglright" unicode="&#x203a;" horiz-adv-x="338" 
d="M167 481l136 -200l-2 -10l-221 -200h-89l157 205l-59 205h78z" />
    <glyph glyph-name="fraction" unicode="&#x2044;" horiz-adv-x="283" 
d="M-74 0h-86l682 780h86z" />
    <glyph glyph-name="Euro" unicode="&#x20ac;" horiz-adv-x="718" 
d="M126 383h-75l13 57h80q49 126 155.5 199t231.5 73q127 0 206 -74l-32 -154h-82q-4 83 -23.5 119t-70.5 36q-65 0 -116.5 -56t-80.5 -143h216l-21 -57h-211l-6 -32q-2 -12 -4 -32h199l-21 -58h-182v-7q0 -190 106 -190q58 0 96 41t79 137h90l-39 -179q-114 -73 -243 -73
q-133 0 -206.5 70t-73.5 192v9h-87l13 58h78q1 22 11 64z" />
    <glyph glyph-name="uni2117" unicode="&#x2117;" horiz-adv-x="796" 
d="M399 -10q-148 0 -242 96t-94 239q0 162 110 275q109 112 271 112q148 0 242 -96t94 -239q0 -161 -110 -274t-271 -113zM399 30q143 0 241 101q96 101 96 246q0 127 -82 211t-210 84q-145 0 -240 -100q-97 -100 -97 -247q0 -127 82 -211t210 -84zM443 304h-48l-15 -67
q-2 -10 -2 -16q0 -12 11 -17q8 -3 39 -5l-10 -45h-216l10 45q27 1 36 8t14 30l53 233q0 2 0.5 5.5t1.5 5.5q1 3 1 8q0 10 -7 13q-6 2 -29 4l10 45h202q141 0 141 -109q0 -58 -54.5 -98t-137.5 -40zM455 503h-15l-35 -156h15q100 0 100 94q0 62 -65 62z" />
    <glyph glyph-name="trademark" unicode="&#x2122;" horiz-adv-x="957" 
d="M129 582l33 120h327l-20 -120h-36q-4 20 -7 29.5t-7.5 22t-10 17.5t-14 9t-20.5 4h-8l-51 -236q-2 -10 -2 -13q0 -12 9 -16.5t29 -5.5l-7 -34h-183l7 34q25 1 35 8t14 27l51 236h-7q-28 0 -46 -17.5t-50 -64.5h-36zM676 663l22 -162l83 161q14 27 15 40h165l-17 -38
q-25 0 -35.5 -8t-14.5 -28l-12 -203q-1 -18 6.5 -24.5t28.5 -7.5l-7 -34h-187l7 34q27 1 39 8t16 25q2 10 4 37l7 140l-130 -244h-39l-32 244l-51 -140q-1 -3 -3.5 -11.5t-4.5 -13.5q-5 -15 -5 -23q0 -11 8 -16t34 -6l-7 -34h-140l7 34q22 1 32.5 7.5t17.5 24.5l74 203
q0 14 -1.5 20t-8.5 11t-22 5l8 38h143q-1 -5 -1 -17q0 -15 1 -22z" />
    <glyph glyph-name="uni2153" unicode="&#x2153;" horiz-adv-x="971" 
d="M334 748h50l-77 -363q-1 -2 -1 -5t-1 -5q-1 -3 -1 -9q0 -15 15 -20q19 -6 52 -7l-11 -52h-296l11 52q53 3 65 9.5t19 36.5l47 218h-75l10 48l29 6q58 12 91.5 31.5t72.5 59.5zM270 0h-76l606 741h77zM777 182q47 -6 78 -35t31 -70q0 -79 -68 -119q-57 -35 -152 -35
q-63 0 -107.5 26.5t-44.5 65.5q0 46 45 62h87q-13 -27 -13 -54q0 -25 13 -40t35 -15q27 0 45 25.5t18 66.5q0 73 -59 73q-8 0 -24 -2l-4 30q56 21 79 41.5t23 49.5q0 17 -12 29.5t-34 12.5q-46 0 -94 -48l-31 25q27 52 78.5 85t110.5 33q58 0 91 -24t33 -71q0 -45 -34.5 -75
t-89.5 -37z" />
    <glyph glyph-name="uni2154" unicode="&#x2154;" horiz-adv-x="1026" 
d="M216 395h110q29 0 43 8t45 42h41l-46 -158h-363l9 47q159 115 211 170q43 45 43 86q0 58 -57 58t-106 -56l-27 35q73 121 209 121q58 0 95.5 -29t37.5 -83q0 -72 -74 -136q-53 -46 -171 -105zM325 0h-76l606 741h77zM832 182q47 -6 78 -35t31 -70q0 -79 -68 -119
q-57 -35 -152 -35q-63 0 -107.5 26.5t-44.5 65.5q0 46 45 62h87q-13 -27 -13 -54q0 -25 13 -40t35 -15q27 0 45 25.5t18 66.5q0 73 -59 73q-8 0 -24 -2l-4 30q56 21 79 41.5t23 49.5q0 17 -12 29.5t-34 12.5q-46 0 -94 -48l-31 25q27 52 78.5 85t110.5 33q58 0 91 -24
t33 -71q0 -45 -34.5 -75t-89.5 -37z" />
    <glyph glyph-name="uni215B" unicode="&#x215b;" horiz-adv-x="1023" 
d="M334 748h50l-77 -363q-1 -2 -1 -5t-1 -5q-1 -3 -1 -9q0 -15 15 -20q19 -6 52 -7l-11 -52h-296l11 52q53 3 65 9.5t19 36.5l47 218h-75l10 48l29 6q58 12 91.5 31.5t72.5 59.5zM270 0h-76l606 741h77zM953 283q0 -39 -33 -63.5t-86 -28.5q94 -44 94 -118t-57.5 -112
t-143.5 -38q-72 0 -127 34.5t-55 86.5q0 40 32.5 64t85.5 26q-66 38 -66 107t54 109.5t133 40.5q77 0 123 -30t46 -78zM756 228l52 -23q42 33 42 76q0 26 -18 42.5t-53 16.5q-28 0 -45.5 -15t-17.5 -40q0 -39 40 -57zM766 80l-82 40q-36 -34 -36 -69t24 -56t62 -21
q33 0 54 16t21 41q0 29 -43 49z" />
    <glyph glyph-name="uni215C" unicode="&#x215c;" horiz-adv-x="1035" 
d="M323 537q47 -6 78 -35t31 -70q0 -79 -68 -119q-57 -35 -152 -35q-63 0 -107.5 26.5t-44.5 65.5q0 46 45 62h87q-13 -27 -13 -54q0 -25 13 -40t35 -15q27 0 45 25.5t18 66.5q0 73 -59 73q-8 0 -24 -2l-4 30q56 21 79 41.5t23 49.5q0 17 -12 29.5t-34 12.5q-46 0 -94 -48
l-31 25q27 52 78.5 85t110.5 33q58 0 91 -24t33 -71q0 -45 -34.5 -75t-89.5 -37zM281 0h-76l606 741h77zM965 283q0 -39 -33 -63.5t-86 -28.5q94 -44 94 -118t-57.5 -112t-143.5 -38q-72 0 -127 34.5t-55 86.5q0 40 32.5 64t85.5 26q-66 38 -66 107t54 109.5t133 40.5
q77 0 123 -30t46 -78zM768 228l52 -23q42 33 42 76q0 26 -18 42.5t-53 16.5q-28 0 -45.5 -15t-17.5 -40q0 -39 40 -57zM778 80l-82 40q-36 -34 -36 -69t24 -56t62 -21q33 0 54 16t21 41q0 29 -43 49z" />
    <glyph glyph-name="uni215D" unicode="&#x215d;" horiz-adv-x="1022" 
d="M269 0h-76l606 741h77zM217 736h239l-39 -122h-203l-15 -40q107 0 164 -30.5t57 -102.5q0 -71 -56 -117.5t-142 -46.5q-73 0 -112.5 23.5t-39.5 60.5q0 23 13.5 39t31.5 23h75q-10 -24 -10 -45q0 -24 13.5 -38.5t37.5 -14.5q32 0 51 19t19 50q0 40 -46 59q-45 19 -139 19
zM952 283q0 -39 -33 -63.5t-86 -28.5q94 -44 94 -118t-57.5 -112t-143.5 -38q-72 0 -127 34.5t-55 86.5q0 40 32.5 64t85.5 26q-66 38 -66 107t54 109.5t133 40.5q77 0 123 -30t46 -78zM755 228l52 -23q42 33 42 76q0 26 -18 42.5t-53 16.5q-28 0 -45.5 -15t-17.5 -40
q0 -39 40 -57zM765 80l-82 40q-36 -34 -36 -69t24 -56t62 -21q33 0 54 16t21 41q0 29 -43 49z" />
    <glyph glyph-name="uni215E" unicode="&#x215e;" horiz-adv-x="944" 
d="M191 0h-76l606 741h77zM116 287l251 317h-142q-43 0 -76 -61h-49l74 193h337l-7 -34l-287 -415h-101zM874 283q0 -39 -33 -63.5t-86 -28.5q94 -44 94 -118t-57.5 -112t-143.5 -38q-72 0 -127 34.5t-55 86.5q0 40 32.5 64t85.5 26q-66 38 -66 107t54 109.5t133 40.5
q77 0 123 -30t46 -78zM677 228l52 -23q42 33 42 76q0 26 -18 42.5t-53 16.5q-28 0 -45.5 -15t-17.5 -40q0 -39 40 -57zM687 80l-82 40q-36 -34 -36 -69t24 -56t62 -21q33 0 54 16t21 41q0 29 -43 49z" />
    <glyph glyph-name="partialdiff" unicode="&#x2202;" horiz-adv-x="608" 
d="M349 545q2 0 35 -3q-20 68 -67 111.5t-132 81.5l30 41q191 -39 286 -166q80 -109 80 -254q0 -161 -91 -261q-94 -105 -240 -105q-98 0 -160 62.5t-62 167.5q0 141 90.5 233t230.5 92zM403 384q0 50 -6 92q-13 6 -40 6q-66 0 -112 -114q-40 -100 -40 -203q0 -112 50 -112
q64 0 109 122q39 105 39 209z" />
    <glyph glyph-name="uni2206" unicode="&#x2206;" horiz-adv-x="682" 
d="M629 51l-10 -51h-642l10 51l434 651h47zM433 68l-92 402l-266 -402h358z" />
    <glyph glyph-name="product" unicode="&#x220f;" horiz-adv-x="832" 
d="M101 633l15 69h782l-15 -69q-50 -2 -67.5 -15t-25.5 -53l-133 -625q-4 -16 -4 -30q0 -21 15 -29t53 -9l-14 -69h-346l14 69q50 2 68 15t26 53l148 699h-248l-148 -699q-4 -16 -4 -30q0 -21 15 -29t53 -9l-14 -69h-345l14 69q50 2 67.5 15t25.5 53l133 625l3 16q1 5 1 13
q0 22 -15 30t-54 9z" />
    <glyph glyph-name="summation" unicode="&#x2211;" horiz-adv-x="645" 
d="M407 312l-326 -358h186q69 0 108 15.5t91 78.5h74l-95 -245h-547l13 65l351 391l-177 368l16 75h555l-41 -192h-87q-14 73 -38.5 101t-89.5 28h-111l127 -286z" />
    <glyph glyph-name="minus" unicode="&#x2212;" horiz-adv-x="603" 
d="M540 318h-460l21 93h460z" />
    <glyph glyph-name="radical" unicode="&#x221a;" horiz-adv-x="615" 
d="M326 550l27 -295l275 457h77l-431 -712h-78l-53 433q-4 30 -14 42t-34 15l-25 3l12 57h244z" />
    <glyph glyph-name="infinity" unicode="&#x221e;" horiz-adv-x="760" 
d="M413 251l-24 35l-34 -35q-70 -75 -156 -75q-63 0 -104.5 40t-41.5 109q0 85 55.5 140.5t132.5 55.5q88 0 139 -74l24 -35l34 35q70 75 156 75q63 0 104.5 -40t41.5 -109q0 -85 -55.5 -140.5t-132.5 -55.5q-88 0 -139 74zM296 304l47 45l-28 38q-37 48 -80 48
q-38 0 -65 -28t-27 -75q0 -31 19.5 -50t46.5 -19q43 0 87 41zM497 394l-47 -45l28 -38q37 -48 80 -48q38 0 65 28t27 75q0 31 -19.5 50t-46.5 19q-43 0 -87 -41z" />
    <glyph glyph-name="integral" unicode="&#x222b;" horiz-adv-x="457" 
d="M324 487l-83 -401q-29 -142 -91 -213t-186 -71q-58 0 -93.5 21.5t-35.5 67.5q0 53 54 70h62q-5 -38 -7 -76q-2 -33 24 -33q31 0 44 43q10 32 32 132l83 401q30 143 91.5 213.5t185.5 70.5q58 0 93.5 -21.5t35.5 -67.5q0 -53 -54 -70h-62q5 38 7 76q2 33 -24 33
q-30 0 -43 -43t-33 -132z" />
    <glyph glyph-name="approxequal" unicode="&#x2248;" horiz-adv-x="615" 
d="M101 379l20 91q75 41 131 41q57 0 102 -20q43 -20 100 -20q65 0 135 41l-20 -90q-74 -42 -134 -42q-61 0 -101 21q-42 20 -100 20q-59 0 -133 -42zM69 223l17 89q77 42 133 42q57 0 102 -20q43 -20 100 -20q63 0 135 41l-19 -89q-70 -42 -135 -42q-58 0 -100 20
q-43 20 -100 20q-61 0 -133 -41z" />
    <glyph glyph-name="notequal" unicode="&#x2260;" horiz-adv-x="615" 
d="M323 407h-217l19 86h274l92 103h84l-92 -103h102l-19 -86h-159l-73 -83h214l-16 -86h-274l-92 -104h-86l92 104h-100l18 86h159z" />
    <glyph glyph-name="lessequal" unicode="&#x2264;" horiz-adv-x="482" 
d="M394 220l-300 185l2 11l378 185l-22 -109l-185 -86l149 -85zM367 93h-338l20 93h338z" />
    <glyph glyph-name="greaterequal" unicode="&#x2265;" horiz-adv-x="482" 
d="M155 601l298 -185l-2 -11l-376 -185l23 110l182 86l-147 82zM66 186h339l-20 -93h-337z" />
    <glyph glyph-name="lozenge" unicode="&#x25ca;" horiz-adv-x="571" 
d="M184 0l-132 351l281 351h98l132 -351l-281 -351h-98zM255 106l189 245l-85 246l-190 -246z" />
    <glyph glyph-name="uniF6C3" unicode="&#xf6c3;" horiz-adv-x="0" 
d="M-246 -158h-61q-41 11 -41 50q0 32 25 54t69 22q41 0 63.5 -22t22.5 -59q0 -61 -46 -99t-144 -38v45q49 0 78.5 13t33.5 34z" />
    <glyph glyph-name="i.loclTRK" horiz-adv-x="370" 
d="M265 599q-44 0 -70 25.5t-26 62.5q0 41 28.5 70t75.5 29q43 0 69.5 -25.5t26.5 -61.5q0 -41 -28.5 -70.5t-75.5 -29.5zM293 559h35l-103 -409q-8 -30 -8 -41q0 -15 14 -15t34 20q21 21 46 53l31 -27q-51 -75 -99 -112.5t-102 -37.5q-46 0 -75 27t-29 67q0 32 13 86
l66 269l-50 47l9 34z" />
    <glyph glyph-name="A.sc" horiz-adv-x="687" 
d="M405 138l-9 44h-221l-29 -44q-15 -24 -15 -43q0 -14 10 -21q11 -8 43 -9l-14 -65h-201l14 65q41 8 56 32l285 438l-17 77h177l113 -515q6 -26 45 -32l-14 -65h-301l14 65q38 1 54 11q15 8 15 25q0 15 -5 37zM384 246l-38 198l-129 -198h167z" />
    <glyph glyph-name="Aacute.sc" horiz-adv-x="687" 
d="M358 656l96 160h197l-195 -160h-98zM405 138l-9 44h-221l-29 -44q-15 -24 -15 -43q0 -14 10 -21q11 -8 43 -9l-14 -65h-201l14 65q41 8 56 32l285 438l-17 77h177l113 -515q6 -26 45 -32l-14 -65h-301l14 65q38 1 54 11q15 8 15 25q0 15 -5 37zM384 246l-38 198
l-129 -198h167z" />
    <glyph glyph-name="Abreve.sc" horiz-adv-x="687" 
d="M411 653q-59 0 -93 30.5t-34 81.5q0 29 11 58h66q-1 -3 -1 -7v-7q0 -64 71 -64q73 0 105 78h74q-20 -80 -72.5 -125t-126.5 -45zM405 138l-9 44h-221l-29 -44q-15 -24 -15 -43q0 -14 10 -21q11 -8 43 -9l-14 -65h-201l14 65q41 8 56 32l285 438l-17 77h177l113 -515
q6 -26 45 -32l-14 -65h-301l14 65q38 1 54 11q15 8 15 25q0 15 -5 37zM384 246l-38 198l-129 -198h167z" />
    <glyph glyph-name="Acircumflex.sc" horiz-adv-x="687" 
d="M385 816h136l92 -169h-89l-88 80l-134 -80h-101zM405 138l-9 44h-221l-29 -44q-15 -24 -15 -43q0 -14 10 -21q11 -8 43 -9l-14 -65h-201l14 65q41 8 56 32l285 438l-17 77h177l113 -515q6 -26 45 -32l-14 -65h-301l14 65q38 1 54 11q15 8 15 25q0 15 -5 37zM384 246
l-38 198l-129 -198h167z" />
    <glyph glyph-name="Adieresis.sc" horiz-adv-x="687" 
d="M320 653q-39 0 -63 24.5t-24 58.5q0 38 26 65.5t67 27.5q39 0 62.5 -24t23.5 -58q0 -38 -25.5 -66t-66.5 -28zM539 653q-38 0 -62 24.5t-24 58.5q0 38 25.5 65.5t66.5 27.5q39 0 62.5 -24t23.5 -58q0 -38 -25.5 -66t-66.5 -28zM405 138l-9 44h-221l-29 -44
q-15 -24 -15 -43q0 -14 10 -21q11 -8 43 -9l-14 -65h-201l14 65q41 8 56 32l285 438l-17 77h177l113 -515q6 -26 45 -32l-14 -65h-301l14 65q38 1 54 11q15 8 15 25q0 15 -5 37zM384 246l-38 198l-129 -198h167z" />
    <glyph glyph-name="Agrave.sc" horiz-adv-x="687" 
d="M379 656l-125 160h181l35 -160h-91zM405 138l-9 44h-221l-29 -44q-15 -24 -15 -43q0 -14 10 -21q11 -8 43 -9l-14 -65h-201l14 65q41 8 56 32l285 438l-17 77h177l113 -515q6 -26 45 -32l-14 -65h-301l14 65q38 1 54 11q15 8 15 25q0 15 -5 37zM384 246l-38 198
l-129 -198h167z" />
    <glyph glyph-name="Amacron.sc" horiz-adv-x="687" 
d="M572 676h-308l23 101h308zM405 138l-9 44h-221l-29 -44q-15 -24 -15 -43q0 -14 10 -21q11 -8 43 -9l-14 -65h-201l14 65q41 8 56 32l285 438l-17 77h177l113 -515q6 -26 45 -32l-14 -65h-301l14 65q38 1 54 11q15 8 15 25q0 15 -5 37zM384 246l-38 198l-129 -198h167z
" />
    <glyph glyph-name="Aogonek.sc" horiz-adv-x="687" 
d="M405 138l-9 44h-221l-29 -44q-15 -24 -15 -43q0 -14 10 -21q11 -8 43 -9l-14 -65h-201l14 65q41 8 56 32l285 438l-17 77h177l113 -515q6 -26 45 -32l-14 -65h-281q-77 -42 -77 -99q0 -39 39 -39q29 0 72 25l16 -28q-80 -75 -155 -75q-37 0 -61.5 19.5t-24.5 52.5
q0 57 42.5 96t121.5 78q48 22 70 39q20 15 20 32q0 15 -5 37zM384 246l-38 198l-129 -198h167z" />
    <glyph glyph-name="Aring.sc" horiz-adv-x="687" 
d="M424 647q-45 0 -74.5 26.5t-29.5 66.5q0 46 36.5 77.5t86.5 31.5q45 0 74.5 -26.5t29.5 -66.5q0 -46 -36.5 -77.5t-86.5 -31.5zM429 704q24 0 37.5 14.5t13.5 34.5q0 18 -11 28.5t-31 10.5q-24 0 -37.5 -14t-13.5 -34q0 -18 11 -29t31 -11zM405 138l-9 44h-221l-29 -44
q-15 -24 -15 -43q0 -14 10 -21q11 -8 43 -9l-14 -65h-201l14 65q41 8 56 32l285 438l-17 77h177l113 -515q6 -26 45 -32l-14 -65h-301l14 65q38 1 54 11q15 8 15 25q0 15 -5 37zM384 246l-38 198l-129 -198h167z" />
    <glyph glyph-name="Aringacute.sc" horiz-adv-x="687" 
d="M419 849l72 120h197l-170 -120h-99zM416 642q-50 0 -81 22t-31 59q0 42 39 70.5t93 28.5q51 0 81.5 -21.5t30.5 -58.5q0 -42 -39 -71t-93 -29zM421 694q26 0 40.5 12.5t14.5 31.5q0 32 -45 32q-26 0 -40.5 -12.5t-14.5 -30.5q0 -33 45 -33zM405 138l-9 44h-221l-29 -44
q-15 -24 -15 -43q0 -14 10 -21q11 -8 43 -9l-14 -65h-201l14 65q41 8 56 32l285 438l-17 77h177l113 -515q6 -26 45 -32l-14 -65h-301l14 65q38 1 54 11q15 8 15 25q0 15 -5 37zM384 246l-38 198l-129 -198h167z" />
    <glyph glyph-name="Atilde.sc" horiz-adv-x="687" 
d="M580 821l58 -11q-46 -91 -77 -121q-32 -29 -74 -29q-26 0 -70 32q-45 31 -62 31q-14 0 -26.5 -8.5t-20.5 -18.5t-21 -29l-59 12q49 94 78 122t73 28q30 0 73 -31q42 -32 59 -32q32 0 69 55zM405 138l-9 44h-221l-29 -44q-15 -24 -15 -43q0 -14 10 -21q11 -8 43 -9
l-14 -65h-201l14 65q41 8 56 32l285 438l-17 77h177l113 -515q6 -26 45 -32l-14 -65h-301l14 65q38 1 54 11q15 8 15 25q0 15 -5 37zM384 246l-38 198l-129 -198h167z" />
    <glyph glyph-name="AE.sc" horiz-adv-x="938" 
d="M39 97l358 420q-4 16 -15.5 21t-40.5 5l13 65h610l-38 -172h-70q-10 58 -29 82t-69 24h-75l-42 -194h50q30 0 47 13.5t32 51.5h62l-43 -199h-62q0 38 -10.5 52t-39.5 14h-50l-32 -146q0 -3 -0.5 -8t-1.5 -8q-2 -10 -2 -14q0 -22 14 -30t43 -8h11q43 0 78 26t88 93h79
l-67 -185h-523l13 65q45 2 60 13.5t22 45.5l18 85h-206l-53 -60q-27 -30 -27 -54q0 -14 10 -21q11 -8 42 -9l-13 -65h-211l14 65q36 8 56 32zM441 274l53 244l-216 -244h163z" />
    <glyph glyph-name="AEacute.sc" horiz-adv-x="938" 
d="M589 656l96 160h197l-195 -160h-98zM39 97l358 420q-4 16 -15.5 21t-40.5 5l13 65h610l-38 -172h-70q-10 58 -29 82t-69 24h-75l-42 -194h50q30 0 47 13.5t32 51.5h62l-43 -199h-62q0 38 -10.5 52t-39.5 14h-50l-32 -146q0 -3 -0.5 -8t-1.5 -8q-2 -10 -2 -14
q0 -22 14 -30t43 -8h11q43 0 78 26t88 93h79l-67 -185h-523l13 65q45 2 60 13.5t22 45.5l18 85h-206l-53 -60q-27 -30 -27 -54q0 -14 10 -21q11 -8 42 -9l-13 -65h-211l14 65q36 8 56 32zM441 274l53 244l-216 -244h163z" />
    <glyph glyph-name="B.sc" horiz-adv-x="652" 
d="M106 543l14 65h326q101 0 152.5 -34.5t51.5 -98.5q0 -74 -54 -113.5t-142 -46.5q76 -3 120.5 -36.5t44.5 -90.5q0 -92 -79 -140t-205 -48h-348l14 65q45 2 59.5 13t21.5 46l78 362l3 14q1 4 1 11q0 17 -12.5 24t-45.5 8zM370 540h-14l-43 -194h26q62 0 94.5 30.5
t32.5 87.5q0 42 -24.5 59t-71.5 17zM337 280h-38l-32 -150l-4 -20q-1 -4 -1 -10q0 -38 45 -38h17q42 0 75.5 33t33.5 97q0 88 -96 88z" />
    <glyph glyph-name="C.sc" horiz-adv-x="641" 
d="M329 -10q-134 0 -210 74q-70 68 -70 173q0 167 113 275q111 106 278 106q132 0 203 -71l-31 -140h-93q-2 38 -5 59t-11 43.5t-23.5 32.5t-40.5 10q-87 0 -143 -113q-51 -102 -51 -229q0 -148 96 -148q50 0 82 35t79 123h93l-37 -172q-96 -58 -229 -58z" />
    <glyph glyph-name="Cacute.sc" horiz-adv-x="641" 
d="M405 656l96 160h197l-195 -160h-98zM329 -10q-134 0 -210 74q-70 68 -70 173q0 167 113 275q111 106 278 106q132 0 203 -71l-31 -140h-93q-2 38 -5 59t-11 43.5t-23.5 32.5t-40.5 10q-87 0 -143 -113q-51 -102 -51 -229q0 -148 96 -148q50 0 82 35t79 123h93l-37 -172
q-96 -58 -229 -58z" />
    <glyph glyph-name="Ccaron.sc" horiz-adv-x="641" 
d="M530 656h-136l-92 169h89l88 -80l134 80h101zM329 -10q-134 0 -210 74q-70 68 -70 173q0 167 113 275q111 106 278 106q132 0 203 -71l-31 -140h-93q-2 38 -5 59t-11 43.5t-23.5 32.5t-40.5 10q-87 0 -143 -113q-51 -102 -51 -229q0 -148 96 -148q50 0 82 35t79 123h93
l-37 -172q-96 -58 -229 -58z" />
    <glyph glyph-name="Ccedilla.sc" horiz-adv-x="641" 
d="M203 -233l-11 49q55 0 88 10q34 9 34 29q0 34 -76 36l50 101q-115 11 -177 80t-62 165q0 167 113 275q111 106 278 106q132 0 203 -71l-31 -140h-93q-2 38 -5 59t-11 43.5t-23.5 32.5t-40.5 10q-87 0 -143 -113q-51 -102 -51 -229q0 -148 96 -148q50 0 82 35t79 123h93
l-37 -172q-93 -56 -222 -58l-17 -34q86 -7 86 -78q0 -52 -63 -83q-56 -28 -139 -28z" />
    <glyph glyph-name="Ccircumflex.sc" horiz-adv-x="641" 
d="M433 816h136l92 -169h-89l-88 80l-134 -80h-101zM329 -10q-134 0 -210 74q-70 68 -70 173q0 167 113 275q111 106 278 106q132 0 203 -71l-31 -140h-93q-2 38 -5 59t-11 43.5t-23.5 32.5t-40.5 10q-87 0 -143 -113q-51 -102 -51 -229q0 -148 96 -148q50 0 82 35t79 123
h93l-37 -172q-96 -58 -229 -58z" />
    <glyph glyph-name="Cdotaccent.sc" horiz-adv-x="641" 
d="M475 649q-44 0 -70 25.5t-26 62.5q0 41 28.5 70t75.5 29q43 0 69.5 -25.5t26.5 -61.5q0 -41 -28.5 -70.5t-75.5 -29.5zM329 -10q-134 0 -210 74q-70 68 -70 173q0 167 113 275q111 106 278 106q132 0 203 -71l-31 -140h-93q-2 38 -5 59t-11 43.5t-23.5 32.5t-40.5 10
q-87 0 -143 -113q-51 -102 -51 -229q0 -148 96 -148q50 0 82 35t79 123h93l-37 -172q-96 -58 -229 -58z" />
    <glyph glyph-name="D.sc" horiz-adv-x="721" 
d="M106 543l14 65h279q141 0 224.5 -64.5t83.5 -184.5q0 -158 -111 -259q-110 -100 -288 -100h-321l14 65q45 2 59.5 13t21.5 46l78 362l3 14q1 4 1 11q0 17 -12.5 24t-45.5 8zM385 540h-29l-87 -404q-5 -25 -5 -37q0 -31 42 -31h15q99 0 152 119q39 91 39 193
q0 160 -127 160z" />
    <glyph glyph-name="Eth.sc" horiz-adv-x="721" 
d="M106 543l14 65h279q141 0 224.5 -64.5t83.5 -184.5q0 -158 -111 -259q-110 -100 -288 -100h-321l14 65q45 2 59.5 13t21.5 46l33 154h-67l15 71h67l30 137l3 14q1 4 1 11q0 17 -12.5 24t-45.5 8zM385 540h-29l-41 -191h105l-15 -71h-106l-30 -142q-5 -25 -5 -37
q0 -31 42 -31h15q99 0 152 119q39 91 39 193q0 160 -127 160z" />
    <glyph glyph-name="Dcaron.sc" horiz-adv-x="721" 
d="M491 656h-136l-92 169h89l88 -80l134 80h101zM106 543l14 65h279q141 0 224.5 -64.5t83.5 -184.5q0 -158 -111 -259q-110 -100 -288 -100h-321l14 65q45 2 59.5 13t21.5 46l78 362l3 14q1 4 1 11q0 17 -12.5 24t-45.5 8zM385 540h-29l-87 -404q-5 -25 -5 -37
q0 -31 42 -31h15q99 0 152 119q39 91 39 193q0 160 -127 160z" />
    <glyph glyph-name="Dcroat.sc" horiz-adv-x="721" 
d="M106 543l14 65h279q141 0 224.5 -64.5t83.5 -184.5q0 -158 -111 -259q-110 -100 -288 -100h-321l14 65q45 2 59.5 13t21.5 46l33 154h-67l15 71h67l30 137l3 14q1 4 1 11q0 17 -12.5 24t-45.5 8zM385 540h-29l-41 -191h105l-15 -71h-106l-30 -142q-5 -25 -5 -37
q0 -31 42 -31h15q99 0 152 119q39 91 39 193q0 160 -127 160z" />
    <glyph glyph-name="E.sc" horiz-adv-x="611" 
d="M510 0h-523l14 65q45 2 59.5 13t21.5 46l78 362l3 14q1 4 1 11q0 17 -12.5 24t-45.5 8l14 65h517l-37 -172h-71q-10 58 -29 82t-69 24h-75l-42 -194h51q29 0 46 13.5t32 51.5h62l-43 -199h-62q0 38 -10.5 52t-39.5 14h-51l-31 -146q0 -3 -0.5 -8t-1.5 -8q-2 -10 -2 -14
q0 -22 14 -30t44 -8h11q42 0 77 26.5t88 92.5h79z" />
    <glyph glyph-name="Eacute.sc" horiz-adv-x="611" 
d="M327 656l96 160h197l-195 -160h-98zM510 0h-523l14 65q45 2 59.5 13t21.5 46l78 362l3 14q1 4 1 11q0 17 -12.5 24t-45.5 8l14 65h517l-37 -172h-71q-10 58 -29 82t-69 24h-75l-42 -194h51q29 0 46 13.5t32 51.5h62l-43 -199h-62q0 38 -10.5 52t-39.5 14h-51l-31 -146
q0 -3 -0.5 -8t-1.5 -8q-2 -10 -2 -14q0 -22 14 -30t44 -8h11q42 0 77 26.5t88 92.5h79z" />
    <glyph glyph-name="Ebreve.sc" horiz-adv-x="611" 
d="M380 653q-59 0 -93 30.5t-34 81.5q0 29 11 58h66q-1 -3 -1 -7v-7q0 -64 71 -64q73 0 105 78h74q-20 -80 -72.5 -125t-126.5 -45zM510 0h-523l14 65q45 2 59.5 13t21.5 46l78 362l3 14q1 4 1 11q0 17 -12.5 24t-45.5 8l14 65h517l-37 -172h-71q-10 58 -29 82t-69 24h-75
l-42 -194h51q29 0 46 13.5t32 51.5h62l-43 -199h-62q0 38 -10.5 52t-39.5 14h-51l-31 -146q0 -3 -0.5 -8t-1.5 -8q-2 -10 -2 -14q0 -22 14 -30t44 -8h11q42 0 77 26.5t88 92.5h79z" />
    <glyph glyph-name="Ecaron.sc" horiz-adv-x="611" 
d="M452 656h-136l-92 169h89l88 -80l134 80h101zM510 0h-523l14 65q45 2 59.5 13t21.5 46l78 362l3 14q1 4 1 11q0 17 -12.5 24t-45.5 8l14 65h517l-37 -172h-71q-10 58 -29 82t-69 24h-75l-42 -194h51q29 0 46 13.5t32 51.5h62l-43 -199h-62q0 38 -10.5 52t-39.5 14h-51
l-31 -146q0 -3 -0.5 -8t-1.5 -8q-2 -10 -2 -14q0 -22 14 -30t44 -8h11q42 0 77 26.5t88 92.5h79z" />
    <glyph glyph-name="Ecircumflex.sc" horiz-adv-x="611" 
d="M354 816h136l92 -169h-89l-88 80l-134 -80h-101zM510 0h-523l14 65q45 2 59.5 13t21.5 46l78 362l3 14q1 4 1 11q0 17 -12.5 24t-45.5 8l14 65h517l-37 -172h-71q-10 58 -29 82t-69 24h-75l-42 -194h51q29 0 46 13.5t32 51.5h62l-43 -199h-62q0 38 -10.5 52t-39.5 14h-51
l-31 -146q0 -3 -0.5 -8t-1.5 -8q-2 -10 -2 -14q0 -22 14 -30t44 -8h11q42 0 77 26.5t88 92.5h79z" />
    <glyph glyph-name="Edieresis.sc" horiz-adv-x="611" 
d="M289 653q-39 0 -63 24.5t-24 58.5q0 38 26 65.5t67 27.5q39 0 62.5 -24t23.5 -58q0 -38 -25.5 -66t-66.5 -28zM508 653q-38 0 -62 24.5t-24 58.5q0 38 25.5 65.5t66.5 27.5q39 0 62.5 -24t23.5 -58q0 -38 -25.5 -66t-66.5 -28zM510 0h-523l14 65q45 2 59.5 13t21.5 46
l78 362l3 14q1 4 1 11q0 17 -12.5 24t-45.5 8l14 65h517l-37 -172h-71q-10 58 -29 82t-69 24h-75l-42 -194h51q29 0 46 13.5t32 51.5h62l-43 -199h-62q0 38 -10.5 52t-39.5 14h-51l-31 -146q0 -3 -0.5 -8t-1.5 -8q-2 -10 -2 -14q0 -22 14 -30t44 -8h11q42 0 77 26.5t88 92.5
h79z" />
    <glyph glyph-name="Edotaccent.sc" horiz-adv-x="611" 
d="M397 649q-44 0 -70 25.5t-26 62.5q0 41 28.5 70t75.5 29q43 0 69.5 -25.5t26.5 -61.5q0 -41 -28.5 -70.5t-75.5 -29.5zM510 0h-523l14 65q45 2 59.5 13t21.5 46l78 362l3 14q1 4 1 11q0 17 -12.5 24t-45.5 8l14 65h517l-37 -172h-71q-10 58 -29 82t-69 24h-75l-42 -194
h51q29 0 46 13.5t32 51.5h62l-43 -199h-62q0 38 -10.5 52t-39.5 14h-51l-31 -146q0 -3 -0.5 -8t-1.5 -8q-2 -10 -2 -14q0 -22 14 -30t44 -8h11q42 0 77 26.5t88 92.5h79z" />
    <glyph glyph-name="Egrave.sc" horiz-adv-x="611" 
d="M348 656l-125 160h181l35 -160h-91zM510 0h-523l14 65q45 2 59.5 13t21.5 46l78 362l3 14q1 4 1 11q0 17 -12.5 24t-45.5 8l14 65h517l-37 -172h-71q-10 58 -29 82t-69 24h-75l-42 -194h51q29 0 46 13.5t32 51.5h62l-43 -199h-62q0 38 -10.5 52t-39.5 14h-51l-31 -146
q0 -3 -0.5 -8t-1.5 -8q-2 -10 -2 -14q0 -22 14 -30t44 -8h11q42 0 77 26.5t88 92.5h79z" />
    <glyph glyph-name="Emacron.sc" horiz-adv-x="611" 
d="M541 676h-308l23 101h308zM510 0h-523l14 65q45 2 59.5 13t21.5 46l78 362l3 14q1 4 1 11q0 17 -12.5 24t-45.5 8l14 65h517l-37 -172h-71q-10 58 -29 82t-69 24h-75l-42 -194h51q29 0 46 13.5t32 51.5h62l-43 -199h-62q0 38 -10.5 52t-39.5 14h-51l-31 -146
q0 -3 -0.5 -8t-1.5 -8q-2 -10 -2 -14q0 -22 14 -30t44 -8h11q42 0 77 26.5t88 92.5h79z" />
    <glyph glyph-name="Eogonek.sc" horiz-adv-x="611" 
d="M356 0h-369l14 65q45 2 59.5 13t21.5 46l78 362l3 14q1 4 1 11q0 17 -12.5 24t-45.5 8l14 65h517l-37 -172h-71q-10 58 -29 82t-69 24h-75l-42 -194h51q29 0 46 13.5t32 51.5h62l-43 -199h-62q0 38 -10.5 52t-39.5 14h-51l-31 -146q0 -3 -0.5 -8t-1.5 -8q-2 -10 -2 -14
q0 -22 14 -30t44 -8h11q42 0 77 26.5t88 92.5h79l-67 -185h-82q-77 -49 -77 -99q0 -39 39 -39q29 0 72 25l16 -28q-80 -75 -155 -75q-37 0 -61.5 19.5t-24.5 52.5q0 80 119 144z" />
    <glyph glyph-name="F.sc" horiz-adv-x="573" 
d="M106 543l14 65h515l-37 -171h-76q-9 57 -28 81t-70 24h-67l-44 -200h44q31 0 47.5 13.5t30.5 51.5h63l-42 -198h-64q0 40 -10 53t-40 13h-43l-31 -144q-3 -24 -3 -29q0 -24 20 -32q19 -7 71 -9l-11 -61h-358l14 65q45 2 59.5 13t21.5 46l78 362l3 14q1 4 1 11
q0 17 -12.5 24t-45.5 8z" />
    <glyph glyph-name="G.sc" horiz-adv-x="694" 
d="M49 236q0 168 114 276q112 106 286 106q64 0 117 -19.5t84 -51.5l-31 -140h-93q-4 72 -22 108.5t-64 36.5q-88 0 -144 -113q-51 -100 -51 -228q0 -149 95 -149q28 0 57 9l28 108q0 3 1 8t1.5 9t0.5 7q0 16 -13 22q-13 5 -45 6l15 69h303l-14 -69q-44 -1 -58 -11.5
t-21 -43.5l-28 -116q-97 -70 -240 -70q-133 0 -209 74q-69 68 -69 172z" />
    <glyph glyph-name="Gbreve.sc" horiz-adv-x="694" 
d="M451 653q-59 0 -93 30.5t-34 81.5q0 29 11 58h66q-1 -3 -1 -7v-7q0 -64 71 -64q73 0 105 78h74q-20 -80 -72.5 -125t-126.5 -45zM49 236q0 168 114 276q112 106 286 106q64 0 117 -19.5t84 -51.5l-31 -140h-93q-4 72 -22 108.5t-64 36.5q-88 0 -144 -113
q-51 -100 -51 -228q0 -149 95 -149q28 0 57 9l28 108q0 3 1 8t1.5 9t0.5 7q0 16 -13 22q-13 5 -45 6l15 69h303l-14 -69q-44 -1 -58 -11.5t-21 -43.5l-28 -116q-97 -70 -240 -70q-133 0 -209 74q-69 68 -69 172z" />
    <glyph glyph-name="Gcircumflex.sc" horiz-adv-x="694" 
d="M426 816h136l92 -169h-89l-88 80l-134 -80h-101zM49 236q0 168 114 276q112 106 286 106q64 0 117 -19.5t84 -51.5l-31 -140h-93q-4 72 -22 108.5t-64 36.5q-88 0 -144 -113q-51 -100 -51 -228q0 -149 95 -149q28 0 57 9l28 108q0 3 1 8t1.5 9t0.5 7q0 16 -13 22
q-13 5 -45 6l15 69h303l-14 -69q-44 -1 -58 -11.5t-21 -43.5l-28 -116q-97 -70 -240 -70q-133 0 -209 74q-69 68 -69 172z" />
    <glyph glyph-name="Gcommaaccent.sc" horiz-adv-x="694" 
d="M49 236q0 168 114 276q112 106 286 106q64 0 117 -19.5t84 -51.5l-31 -140h-93q-4 72 -22 108.5t-64 36.5q-88 0 -144 -113q-51 -100 -51 -228q0 -149 95 -149q28 0 57 9l28 108q0 3 1 8t1.5 9t0.5 7q0 16 -13 22q-13 5 -45 6l15 69h303l-14 -69q-44 -1 -58 -11.5
t-21 -43.5l-28 -116q-97 -70 -240 -70q-133 0 -209 74q-69 68 -69 172zM302 -158h-61q-41 11 -41 50q0 32 25 54t69 22q41 0 63.5 -22t22.5 -59q0 -61 -46 -99t-144 -38v45q49 0 78.5 13t33.5 34z" />
    <glyph glyph-name="Gdotaccent.sc" horiz-adv-x="694" 
d="M468 649q-44 0 -70 25.5t-26 62.5q0 41 28.5 70t75.5 29q43 0 69.5 -25.5t26.5 -61.5q0 -41 -28.5 -70.5t-75.5 -29.5zM49 236q0 168 114 276q112 106 286 106q64 0 117 -19.5t84 -51.5l-31 -140h-93q-4 72 -22 108.5t-64 36.5q-88 0 -144 -113q-51 -100 -51 -228
q0 -149 95 -149q28 0 57 9l28 108q0 3 1 8t1.5 9t0.5 7q0 16 -13 22q-13 5 -45 6l15 69h303l-14 -69q-44 -1 -58 -11.5t-21 -43.5l-28 -116q-97 -70 -240 -70q-133 0 -209 74q-69 68 -69 172z" />
    <glyph glyph-name="H.sc" horiz-adv-x="782" 
d="M480 124l33 156h-212l-34 -158q0 -2 -0.5 -6.5t-1.5 -6.5q-2 -10 -2 -12q0 -17 12.5 -24t45.5 -8l-14 -65h-320l14 65q45 2 59.5 13t21.5 46l78 362l3 14q1 4 1 11q0 17 -12.5 24t-45.5 8l14 65h320l-14 -65q-45 -2 -59.5 -13t-21.5 -46l-30 -136h213l30 138l3 14
q1 4 1 11q0 17 -12.5 24t-45.5 8l14 65h320l-14 -65q-45 -2 -59.5 -13t-21.5 -46l-78 -362q0 -2 -0.5 -6.5t-1.5 -6.5q-2 -10 -2 -12q0 -17 12.5 -24t45.5 -8l-14 -65h-320l14 65q45 2 59.5 13t21.5 46z" />
    <glyph glyph-name="Hbar.sc" horiz-adv-x="782" 
d="M480 124l25 115h-213l-25 -117q0 -2 -0.5 -6.5t-1.5 -6.5q-2 -10 -2 -12q0 -17 12.5 -24t45.5 -8l-14 -65h-320l14 65q45 2 59.5 13t21.5 46l55 256h-65l15 71h65l8 35l3 14q1 4 1 11q0 17 -12.5 24t-45.5 8l14 65h320l-14 -65q-45 -2 -59.5 -13t-21.5 -46l-7 -33h212
l8 35l3 14q1 4 1 11q0 17 -12.5 24t-45.5 8l14 65h320l-14 -65q-45 -2 -59.5 -13t-21.5 -46l-7 -33h70l-15 -71h-71l-55 -258q0 -2 -0.5 -6.5t-1.5 -6.5q-2 -10 -2 -12q0 -17 12.5 -24t45.5 -8l-14 -65h-320l14 65q45 2 59.5 13t21.5 46zM535 380h-213l-16 -73h213z" />
    <glyph glyph-name="Hcircumflex.sc" horiz-adv-x="782" 
d="M458 816h136l92 -169h-89l-88 80l-134 -80h-101zM480 124l33 156h-212l-34 -158q0 -2 -0.5 -6.5t-1.5 -6.5q-2 -10 -2 -12q0 -17 12.5 -24t45.5 -8l-14 -65h-320l14 65q45 2 59.5 13t21.5 46l78 362l3 14q1 4 1 11q0 17 -12.5 24t-45.5 8l14 65h320l-14 -65
q-45 -2 -59.5 -13t-21.5 -46l-30 -136h213l30 138l3 14q1 4 1 11q0 17 -12.5 24t-45.5 8l14 65h320l-14 -65q-45 -2 -59.5 -13t-21.5 -46l-78 -362q0 -2 -0.5 -6.5t-1.5 -6.5q-2 -10 -2 -12q0 -17 12.5 -24t45.5 -8l-14 -65h-320l14 65q45 2 59.5 13t21.5 46z" />
    <glyph glyph-name="I.sc" horiz-adv-x="384" 
d="M82 124l78 362l3 14q1 4 1 11q0 17 -12.5 24t-45.5 8l14 65h320l-14 -65q-45 -2 -59.5 -13t-21.5 -46l-78 -362q0 -2 -0.5 -6.5t-1.5 -6.5q-2 -10 -2 -12q0 -17 12.5 -24t45.5 -8l-14 -65h-320l14 65q45 2 59.5 13t21.5 46z" />
    <glyph glyph-name="IJ.sc" horiz-adv-x="926" 
d="M82 124l78 362l3 14q1 4 1 11q0 17 -12.5 24t-45.5 8l14 65h320l-14 -65q-45 -2 -59.5 -13t-21.5 -46l-78 -362q0 -2 -0.5 -6.5t-1.5 -6.5q-2 -10 -2 -12q0 -17 12.5 -24t45.5 -8l-14 -65h-320l14 65q45 2 59.5 13t21.5 46zM641 171l68 315l3 14q1 4 1 11q0 17 -12.5 24
t-45.5 8l14 65h320l-14 -65q-45 -2 -59.5 -13t-21.5 -46l-62 -281q-25 -109 -92.5 -160.5t-181.5 -51.5q-98 0 -151 36.5t-53 95.5q0 33 18.5 59.5t45.5 39.5h128q-23 -59 -23 -103q0 -23 10.5 -42.5t34.5 -19.5q50 0 73 114z" />
    <glyph glyph-name="Iacute.sc" horiz-adv-x="384" 
d="M232 656l96 160h197l-195 -160h-98zM82 124l78 362l3 14q1 4 1 11q0 17 -12.5 24t-45.5 8l14 65h320l-14 -65q-45 -2 -59.5 -13t-21.5 -46l-78 -362q0 -2 -0.5 -6.5t-1.5 -6.5q-2 -10 -2 -12q0 -17 12.5 -24t45.5 -8l-14 -65h-320l14 65q45 2 59.5 13t21.5 46z" />
    <glyph glyph-name="Ibreve.sc" horiz-adv-x="384" 
d="M285 653q-59 0 -93 30.5t-34 81.5q0 29 11 58h66q-1 -3 -1 -7v-7q0 -64 71 -64q73 0 105 78h74q-20 -80 -72.5 -125t-126.5 -45zM82 124l78 362l3 14q1 4 1 11q0 17 -12.5 24t-45.5 8l14 65h320l-14 -65q-45 -2 -59.5 -13t-21.5 -46l-78 -362q0 -2 -0.5 -6.5t-1.5 -6.5
q-2 -10 -2 -12q0 -17 12.5 -24t45.5 -8l-14 -65h-320l14 65q45 2 59.5 13t21.5 46z" />
    <glyph glyph-name="Icircumflex.sc" horiz-adv-x="384" 
d="M259 816h136l92 -169h-89l-88 80l-134 -80h-101zM82 124l78 362l3 14q1 4 1 11q0 17 -12.5 24t-45.5 8l14 65h320l-14 -65q-45 -2 -59.5 -13t-21.5 -46l-78 -362q0 -2 -0.5 -6.5t-1.5 -6.5q-2 -10 -2 -12q0 -17 12.5 -24t45.5 -8l-14 -65h-320l14 65q45 2 59.5 13
t21.5 46z" />
    <glyph glyph-name="Idieresis.sc" horiz-adv-x="384" 
d="M194 653q-39 0 -63 24.5t-24 58.5q0 38 26 65.5t67 27.5q39 0 62.5 -24t23.5 -58q0 -38 -25.5 -66t-66.5 -28zM413 653q-38 0 -62 24.5t-24 58.5q0 38 25.5 65.5t66.5 27.5q39 0 62.5 -24t23.5 -58q0 -38 -25.5 -66t-66.5 -28zM82 124l78 362l3 14q1 4 1 11
q0 17 -12.5 24t-45.5 8l14 65h320l-14 -65q-45 -2 -59.5 -13t-21.5 -46l-78 -362q0 -2 -0.5 -6.5t-1.5 -6.5q-2 -10 -2 -12q0 -17 12.5 -24t45.5 -8l-14 -65h-320l14 65q45 2 59.5 13t21.5 46z" />
    <glyph glyph-name="Idotaccent.sc" horiz-adv-x="384" 
d="M302 649q-44 0 -70 25.5t-26 62.5q0 41 28.5 70t75.5 29q43 0 69.5 -25.5t26.5 -61.5q0 -41 -28.5 -70.5t-75.5 -29.5zM82 124l78 362l3 14q1 4 1 11q0 17 -12.5 24t-45.5 8l14 65h320l-14 -65q-45 -2 -59.5 -13t-21.5 -46l-78 -362q0 -2 -0.5 -6.5t-1.5 -6.5
q-2 -10 -2 -12q0 -17 12.5 -24t45.5 -8l-14 -65h-320l14 65q45 2 59.5 13t21.5 46z" />
    <glyph glyph-name="Igrave.sc" horiz-adv-x="384" 
d="M253 656l-125 160h181l35 -160h-91zM82 124l78 362l3 14q1 4 1 11q0 17 -12.5 24t-45.5 8l14 65h320l-14 -65q-45 -2 -59.5 -13t-21.5 -46l-78 -362q0 -2 -0.5 -6.5t-1.5 -6.5q-2 -10 -2 -12q0 -17 12.5 -24t45.5 -8l-14 -65h-320l14 65q45 2 59.5 13t21.5 46z" />
    <glyph glyph-name="Imacron.sc" horiz-adv-x="384" 
d="M446 676h-308l23 101h308zM82 124l78 362l3 14q1 4 1 11q0 17 -12.5 24t-45.5 8l14 65h320l-14 -65q-45 -2 -59.5 -13t-21.5 -46l-78 -362q0 -2 -0.5 -6.5t-1.5 -6.5q-2 -10 -2 -12q0 -17 12.5 -24t45.5 -8l-14 -65h-320l14 65q45 2 59.5 13t21.5 46z" />
    <glyph glyph-name="Iogonek.sc" horiz-adv-x="384" 
d="M82 124l78 362l3 14q1 4 1 11q0 17 -12.5 24t-45.5 8l14 65h320l-14 -65q-45 -2 -59.5 -13t-21.5 -46l-78 -362q0 -2 -0.5 -6.5t-1.5 -6.5q-2 -10 -2 -12q0 -17 12.5 -24t45.5 -8l-14 -65h-106q-77 -49 -77 -99q0 -39 39 -39q29 0 72 25l16 -28q-80 -75 -155 -75
q-37 0 -61.5 19.5t-24.5 52.5q0 80 119 144h-142l14 65q45 2 59.5 13t21.5 46z" />
    <glyph glyph-name="Itilde.sc" horiz-adv-x="384" 
d="M454 821l58 -11q-46 -91 -77 -121q-32 -29 -74 -29q-26 0 -70 32q-45 31 -62 31q-14 0 -26.5 -8.5t-20.5 -18.5t-21 -29l-59 12q49 94 78 122t73 28q30 0 73 -31q42 -32 59 -32q32 0 69 55zM82 124l78 362l3 14q1 4 1 11q0 17 -12.5 24t-45.5 8l14 65h320l-14 -65
q-45 -2 -59.5 -13t-21.5 -46l-78 -362q0 -2 -0.5 -6.5t-1.5 -6.5q-2 -10 -2 -12q0 -17 12.5 -24t45.5 -8l-14 -65h-320l14 65q45 2 59.5 13t21.5 46z" />
    <glyph glyph-name="J.sc" horiz-adv-x="576" 
d="M291 171l68 315l3 14q1 4 1 11q0 17 -12.5 24t-45.5 8l14 65h320l-14 -65q-45 -2 -59.5 -13t-21.5 -46l-62 -281q-25 -109 -92.5 -160.5t-181.5 -51.5q-98 0 -151 36.5t-53 95.5q0 33 18.5 59.5t45.5 39.5h128q-23 -59 -23 -103q0 -23 10.5 -42.5t34.5 -19.5q50 0 73 114
z" />
    <glyph glyph-name="Jcircumflex.sc" horiz-adv-x="576" 
d="M462 816h136l92 -169h-89l-88 80l-134 -80h-101zM291 171l68 315l3 14q1 4 1 11q0 17 -12.5 24t-45.5 8l14 65h320l-14 -65q-45 -2 -59.5 -13t-21.5 -46l-62 -281q-25 -109 -92.5 -160.5t-181.5 -51.5q-98 0 -151 36.5t-53 95.5q0 33 18.5 59.5t45.5 39.5h128
q-23 -59 -23 -103q0 -23 10.5 -42.5t34.5 -19.5q50 0 73 114z" />
    <glyph glyph-name="K.sc" horiz-adv-x="719" 
d="M82 124l78 362l3 14q1 4 1 11q0 17 -12.5 24t-45.5 8l14 65h320l-14 -65q-45 -2 -59.5 -13t-21.5 -46l-78 -362q0 -2 -0.5 -6.5t-1.5 -6.5q-2 -10 -2 -12q0 -17 12.5 -24t45.5 -8l-14 -65h-320l14 65q45 2 59.5 13t21.5 46zM659 505l-168 -143l100 -236q15 -36 31 -48
t46 -13l-14 -65h-197q-30 20 -62 104l-76 205l201 165q2 2 8 6.5t8 6.5t6.5 6t6 7t4 6.5t3.5 7.5t1 8q0 10 -9 15q-11 5 -38 6l14 65h241l-14 -65q-31 -1 -47 -7.5t-45 -30.5z" />
    <glyph glyph-name="Kcommaaccent.sc" horiz-adv-x="719" 
d="M82 124l78 362l3 14q1 4 1 11q0 17 -12.5 24t-45.5 8l14 65h320l-14 -65q-45 -2 -59.5 -13t-21.5 -46l-78 -362q0 -2 -0.5 -6.5t-1.5 -6.5q-2 -10 -2 -12q0 -17 12.5 -24t45.5 -8l-14 -65h-320l14 65q45 2 59.5 13t21.5 46zM659 505l-168 -143l100 -236q15 -36 31 -48
t46 -13l-14 -65h-197q-30 20 -62 104l-76 205l201 165q2 2 8 6.5t8 6.5t6.5 6t6 7t4 6.5t3.5 7.5t1 8q0 10 -9 15q-11 5 -38 6l14 65h241l-14 -65q-31 -1 -47 -7.5t-45 -30.5zM321 -158h-61q-41 11 -41 50q0 32 25 54t69 22q41 0 63.5 -22t22.5 -59q0 -61 -46 -99t-144 -38
v45q49 0 78.5 13t33.5 34z" />
    <glyph glyph-name="L.sc" horiz-adv-x="609" 
d="M511 0h-524l14 65q45 2 59.5 13t21.5 46l78 362l3 14q1 4 1 11q0 17 -12.5 24t-45.5 8l14 65h320l-14 -65q-45 -2 -59.5 -13t-21.5 -46l-73 -340q-6 -26 -6 -42q0 -34 50 -34h20q38 0 69 26q30 26 104 123h83z" />
    <glyph glyph-name="Lacute.sc" horiz-adv-x="609" 
d="M236 656l96 160h197l-195 -160h-98zM511 0h-524l14 65q45 2 59.5 13t21.5 46l78 362l3 14q1 4 1 11q0 17 -12.5 24t-45.5 8l14 65h320l-14 -65q-45 -2 -59.5 -13t-21.5 -46l-73 -340q-6 -26 -6 -42q0 -34 50 -34h20q38 0 69 26q30 26 104 123h83z" />
    <glyph glyph-name="Lcaron.sc" horiz-adv-x="609" 
d="M511 0h-524l14 65q45 2 59.5 13t21.5 46l78 362l3 14q1 4 1 11q0 17 -12.5 24t-45.5 8l14 65h320l-14 -65q-45 -2 -59.5 -13t-21.5 -46l-73 -340q-6 -26 -6 -42q0 -34 50 -34h20q38 0 69 26q30 26 104 123h83zM497 608h158l-133 -205h-76z" />
    <glyph glyph-name="Lcommaaccent.sc" horiz-adv-x="609" 
d="M511 0h-524l14 65q45 2 59.5 13t21.5 46l78 362l3 14q1 4 1 11q0 17 -12.5 24t-45.5 8l14 65h320l-14 -65q-45 -2 -59.5 -13t-21.5 -46l-73 -340q-6 -26 -6 -42q0 -34 50 -34h20q38 0 69 26q30 26 104 123h83zM259 -158h-61q-41 11 -41 50q0 32 25 54t69 22
q41 0 63.5 -22t22.5 -59q0 -61 -46 -99t-144 -38v45q49 0 78.5 13t33.5 34z" />
    <glyph glyph-name="Ldot.sc" horiz-adv-x="609" 
d="M511 0h-524l14 65q45 2 59.5 13t21.5 46l78 362l3 14q1 4 1 11q0 17 -12.5 24t-45.5 8l14 65h320l-14 -65q-45 -2 -59.5 -13t-21.5 -46l-73 -340q-6 -26 -6 -42q0 -34 50 -34h20q38 0 69 26q30 26 104 123h83zM504 275q-44 0 -70 25.5t-26 62.5q0 41 28.5 70t75.5 29
q43 0 69.5 -25.5t26.5 -61.5q0 -41 -28.5 -70.5t-75.5 -29.5z" />
    <glyph glyph-name="Lslash.sc" horiz-adv-x="609" 
d="M511 0h-524l14 65q45 2 59.5 13t21.5 46l22 104l-72 -25l16 70l71 25l41 188l3 14q1 4 1 11q0 17 -12.5 24t-45.5 8l14 65h320l-14 -65q-45 -2 -59.5 -13t-21.5 -46l-27 -126l116 42l-16 -70l-115 -41l-31 -145q-6 -26 -6 -42q0 -34 50 -34h20q38 0 69 26q30 26 104 123
h83z" />
    <glyph glyph-name="M.sc" horiz-adv-x="890" 
d="M601 142l21 267l-244 -409h-59l-54 410l-100 -254q-13 -32 -13 -56q0 -18 18 -26q16 -8 57 -9l-14 -65h-244l14 65q38 2 56 13t29 40l142 358q5 37 -6 51t-53 16l14 65h245q0 -39 3 -62l34 -297l180 301q18 31 27 58h249l-14 -65q-45 -2 -62.5 -15t-25.5 -48l-25 -362
q-2 -31 12 -41t53 -12l-14 -65h-337l14 65q49 3 71.5 18t25.5 59z" />
    <glyph glyph-name="N.sc" horiz-adv-x="706" 
d="M343 608l195 -347l47 225l2 14q1 4 1 11q0 18 -11.5 24.5t-44.5 7.5l13 65h217l-13 -65q-45 -2 -60 -13.5t-22 -45.5l-104 -484h-76l-257 431l-66 -309q0 -2 -0.5 -6.5t-1.5 -6.5q-1 -5 -1 -12q0 -18 11.5 -24.5t44.5 -7.5l-13 -65h-217l13 65q45 2 60 13.5t22 45.5
l82 377q-12 23 -24 31t-34 11l13 65h224z" />
    <glyph glyph-name="Nacute.sc" horiz-adv-x="706" 
d="M393 656l96 160h197l-195 -160h-98zM343 608l195 -347l47 225l2 14q1 4 1 11q0 18 -11.5 24.5t-44.5 7.5l13 65h217l-13 -65q-45 -2 -60 -13.5t-22 -45.5l-104 -484h-76l-257 431l-66 -309q0 -2 -0.5 -6.5t-1.5 -6.5q-1 -5 -1 -12q0 -18 11.5 -24.5t44.5 -7.5l-13 -65
h-217l13 65q45 2 60 13.5t22 45.5l82 377q-12 23 -24 31t-34 11l13 65h224z" />
    <glyph glyph-name="Ncaron.sc" horiz-adv-x="706" 
d="M518 656h-136l-92 169h89l88 -80l134 80h101zM343 608l195 -347l47 225l2 14q1 4 1 11q0 18 -11.5 24.5t-44.5 7.5l13 65h217l-13 -65q-45 -2 -60 -13.5t-22 -45.5l-104 -484h-76l-257 431l-66 -309q0 -2 -0.5 -6.5t-1.5 -6.5q-1 -5 -1 -12q0 -18 11.5 -24.5t44.5 -7.5
l-13 -65h-217l13 65q45 2 60 13.5t22 45.5l82 377q-12 23 -24 31t-34 11l13 65h224z" />
    <glyph glyph-name="Ncommaaccent.sc" horiz-adv-x="706" 
d="M343 608l195 -347l47 225l2 14q1 4 1 11q0 18 -11.5 24.5t-44.5 7.5l13 65h217l-13 -65q-45 -2 -60 -13.5t-22 -45.5l-104 -484h-76l-257 431l-66 -309q0 -2 -0.5 -6.5t-1.5 -6.5q-1 -5 -1 -12q0 -18 11.5 -24.5t44.5 -7.5l-13 -65h-217l13 65q45 2 60 13.5t22 45.5
l82 377q-12 23 -24 31t-34 11l13 65h224zM296 -158h-61q-41 11 -41 50q0 32 25 54t69 22q41 0 63.5 -22t22.5 -59q0 -61 -46 -99t-144 -38v45q49 0 78.5 13t33.5 34z" />
    <glyph glyph-name="Eng.sc" horiz-adv-x="706" 
d="M667 484l-84 -393q-27 -134 -91.5 -202t-159.5 -68q-54 0 -86.5 20.5t-32.5 54.5q0 32 21 51t53 22h28q-2 -44 6 -76q6 -32 26 -32q19 0 37 27q16 26 39 123l15 68l-208 354l-66 -311q-3 -15 -3 -25q0 -18 11.5 -24.5t44.5 -7.5l-13 -65h-217l13 65q45 2 60 13.5t22 45.5
l82 377q-12 23 -24 31t-34 11l13 65h223l196 -347l46 225q4 20 4 25q0 17 -12 24t-45 8l13 65h218l-13 -65q-45 -2 -60 -13.5t-22 -45.5z" />
    <glyph glyph-name="Ntilde.sc" horiz-adv-x="706" 
d="M615 821l58 -11q-46 -91 -77 -121q-32 -29 -74 -29q-26 0 -70 32q-45 31 -62 31q-14 0 -26.5 -8.5t-20.5 -18.5t-21 -29l-59 12q49 94 78 122t73 28q30 0 73 -31q42 -32 59 -32q32 0 69 55zM343 608l195 -347l47 225l2 14q1 4 1 11q0 18 -11.5 24.5t-44.5 7.5l13 65h217
l-13 -65q-45 -2 -60 -13.5t-22 -45.5l-104 -484h-76l-257 431l-66 -309q0 -2 -0.5 -6.5t-1.5 -6.5q-1 -5 -1 -12q0 -18 11.5 -24.5t44.5 -7.5l-13 -65h-217l13 65q45 2 60 13.5t22 45.5l82 377q-12 23 -24 31t-34 11l13 65h224z" />
    <glyph glyph-name="O.sc" horiz-adv-x="694" 
d="M680 360q0 -146 -99 -254q-106 -116 -267 -116q-119 0 -192 70.5t-73 187.5q0 146 99 254q106 116 267 116q119 0 192 -70.5t73 -187.5zM247 188q0 -65 13.5 -98t52.5 -33q74 0 125 129q44 115 44 234q0 65 -13.5 98t-52.5 33q-38 0 -70 -35.5t-54 -93.5
q-45 -113 -45 -234z" />
    <glyph glyph-name="Oacute.sc" horiz-adv-x="694" 
d="M385 656l96 160h197l-195 -160h-98zM680 360q0 -146 -99 -254q-106 -116 -267 -116q-119 0 -192 70.5t-73 187.5q0 146 99 254q106 116 267 116q119 0 192 -70.5t73 -187.5zM247 188q0 -65 13.5 -98t52.5 -33q74 0 125 129q44 115 44 234q0 65 -13.5 98t-52.5 33
q-38 0 -70 -35.5t-54 -93.5q-45 -113 -45 -234z" />
    <glyph glyph-name="Obreve.sc" horiz-adv-x="694" 
d="M438 653q-59 0 -93 30.5t-34 81.5q0 29 11 58h66q-1 -3 -1 -7v-7q0 -64 71 -64q73 0 105 78h74q-20 -80 -72.5 -125t-126.5 -45zM680 360q0 -146 -99 -254q-106 -116 -267 -116q-119 0 -192 70.5t-73 187.5q0 146 99 254q106 116 267 116q119 0 192 -70.5t73 -187.5z
M247 188q0 -65 13.5 -98t52.5 -33q74 0 125 129q44 115 44 234q0 65 -13.5 98t-52.5 33q-38 0 -70 -35.5t-54 -93.5q-45 -113 -45 -234z" />
    <glyph glyph-name="Ocircumflex.sc" horiz-adv-x="694" 
d="M412 816h136l92 -169h-89l-88 80l-134 -80h-101zM680 360q0 -146 -99 -254q-106 -116 -267 -116q-119 0 -192 70.5t-73 187.5q0 146 99 254q106 116 267 116q119 0 192 -70.5t73 -187.5zM247 188q0 -65 13.5 -98t52.5 -33q74 0 125 129q44 115 44 234q0 65 -13.5 98
t-52.5 33q-38 0 -70 -35.5t-54 -93.5q-45 -113 -45 -234z" />
    <glyph glyph-name="Odieresis.sc" horiz-adv-x="694" 
d="M347 653q-39 0 -63 24.5t-24 58.5q0 38 26 65.5t67 27.5q39 0 62.5 -24t23.5 -58q0 -38 -25.5 -66t-66.5 -28zM566 653q-38 0 -62 24.5t-24 58.5q0 38 25.5 65.5t66.5 27.5q39 0 62.5 -24t23.5 -58q0 -38 -25.5 -66t-66.5 -28zM680 360q0 -146 -99 -254
q-106 -116 -267 -116q-119 0 -192 70.5t-73 187.5q0 146 99 254q106 116 267 116q119 0 192 -70.5t73 -187.5zM247 188q0 -65 13.5 -98t52.5 -33q74 0 125 129q44 115 44 234q0 65 -13.5 98t-52.5 33q-38 0 -70 -35.5t-54 -93.5q-45 -113 -45 -234z" />
    <glyph glyph-name="Ograve.sc" horiz-adv-x="694" 
d="M406 656l-125 160h181l35 -160h-91zM680 360q0 -146 -99 -254q-106 -116 -267 -116q-119 0 -192 70.5t-73 187.5q0 146 99 254q106 116 267 116q119 0 192 -70.5t73 -187.5zM247 188q0 -65 13.5 -98t52.5 -33q74 0 125 129q44 115 44 234q0 65 -13.5 98t-52.5 33
q-38 0 -70 -35.5t-54 -93.5q-45 -113 -45 -234z" />
    <glyph glyph-name="Ohungarumlaut.sc" horiz-adv-x="694" 
d="M277 656l96 160h171l-179 -160h-88zM487 656l96 160h177l-185 -160h-88zM680 360q0 -146 -99 -254q-106 -116 -267 -116q-119 0 -192 70.5t-73 187.5q0 146 99 254q106 116 267 116q119 0 192 -70.5t73 -187.5zM247 188q0 -65 13.5 -98t52.5 -33q74 0 125 129
q44 115 44 234q0 65 -13.5 98t-52.5 33q-38 0 -70 -35.5t-54 -93.5q-45 -113 -45 -234z" />
    <glyph glyph-name="Omacron.sc" horiz-adv-x="694" 
d="M599 676h-308l23 101h308zM680 360q0 -146 -99 -254q-106 -116 -267 -116q-119 0 -192 70.5t-73 187.5q0 146 99 254q106 116 267 116q119 0 192 -70.5t73 -187.5zM247 188q0 -65 13.5 -98t52.5 -33q74 0 125 129q44 115 44 234q0 65 -13.5 98t-52.5 33q-38 0 -70 -35.5
t-54 -93.5q-45 -113 -45 -234z" />
    <glyph glyph-name="Oslash.sc" horiz-adv-x="694" 
d="M415 618q59 0 118 -22l53 78l54 -30l-54 -79q94 -72 94 -205q0 -146 -99 -254q-106 -116 -267 -116q-60 0 -108 18l-63 -93l-54 30l62 91q-102 69 -102 212q0 146 99 254q106 116 267 116zM416 551q-74 0 -127 -129q-47 -114 -47 -234v-19l232 341q-15 41 -58 41zM313 57
q38 0 71 35.5t57 93.5q46 110 46 233l-227 -332q17 -30 53 -30z" />
    <glyph glyph-name="Oslashacute.sc" horiz-adv-x="694" 
d="M385 656l96 160h197l-195 -160h-98zM415 618q59 0 118 -22l53 78l54 -30l-54 -79q94 -72 94 -205q0 -146 -99 -254q-106 -116 -267 -116q-60 0 -108 18l-63 -93l-54 30l62 91q-102 69 -102 212q0 146 99 254q106 116 267 116zM416 551q-74 0 -127 -129q-47 -114 -47 -234
v-19l232 341q-15 41 -58 41zM313 57q38 0 71 35.5t57 93.5q46 110 46 233l-227 -332q17 -30 53 -30z" />
    <glyph glyph-name="Otilde.sc" horiz-adv-x="694" 
d="M607 821l58 -11q-46 -91 -77 -121q-32 -29 -74 -29q-26 0 -70 32q-45 31 -62 31q-14 0 -26.5 -8.5t-20.5 -18.5t-21 -29l-59 12q49 94 78 122t73 28q30 0 73 -31q42 -32 59 -32q32 0 69 55zM680 360q0 -146 -99 -254q-106 -116 -267 -116q-119 0 -192 70.5t-73 187.5
q0 146 99 254q106 116 267 116q119 0 192 -70.5t73 -187.5zM247 188q0 -65 13.5 -98t52.5 -33q74 0 125 129q44 115 44 234q0 65 -13.5 98t-52.5 33q-38 0 -70 -35.5t-54 -93.5q-45 -113 -45 -234z" />
    <glyph glyph-name="OE.sc" horiz-adv-x="948" 
d="M460 608h514l-37 -172h-71q-9 57 -28.5 81.5t-68.5 24.5h-75l-42 -194h50q30 0 46.5 13.5t31.5 51.5h62l-42 -199h-62q0 38 -10.5 52t-39.5 14h-50l-32 -146q-5 -20 -5 -30q0 -22 14 -30t44 -8h11q43 0 78.5 26.5t86.5 92.5h79l-66 -185h-491q-141 0 -224.5 64.5
t-83.5 184.5q0 160 113.5 259.5t297.5 99.5zM407 68l102 474h-53q-112 0 -170 -120q-43 -89 -43 -194q0 -160 127 -160h37z" />
    <glyph glyph-name="P.sc" horiz-adv-x="623" 
d="M345 0h-358l14 65q45 2 59.5 13t21.5 46l78 362l3 14q1 4 1 11q0 17 -12.5 24t-45.5 8l14 65h303q113 0 168.5 -40t55.5 -111q0 -112 -81 -170.5t-215 -58.5h-63l-21 -97q-3 -24 -3 -29q0 -24 21 -32q19 -7 71 -9zM377 540h-21l-55 -251h20q60 0 102.5 39t42.5 117
q0 95 -89 95z" />
    <glyph glyph-name="Thorn.sc" horiz-adv-x="635" 
d="M344 484l-1 -3h59q113 0 168 -40.5t55 -112.5q0 -198 -289 -198h-68q-3 -24 -3 -28q0 -24 20 -32q19 -7 71 -9l-11 -61h-358l13 65q45 2 60 13.5t22 45.5l78 362q3 15 3 25q0 17 -11.5 24t-44.5 8l12 65h319l-12 -65q-45 -2 -60.5 -13.5t-21.5 -45.5zM340 414h-10
l-49 -223h19q139 0 139 126q0 50 -23.5 73.5t-75.5 23.5z" />
    <glyph glyph-name="Q.sc" horiz-adv-x="694" 
d="M680 360q0 -118 -70 -218q-72 -102 -192 -138l51 -44q31 -24 54.5 -35t54.5 -11l-6 -34q-49 -33 -118 -33q-112 0 -165 100l-25 47q-98 13 -156.5 81.5t-58.5 172.5q0 146 99 254q106 116 267 116q119 0 192 -70.5t73 -187.5zM247 188q0 -65 13.5 -98t52.5 -33
q74 0 125 129q44 115 44 234q0 65 -13.5 98t-52.5 33q-38 0 -70 -35.5t-54 -93.5q-45 -113 -45 -234z" />
    <glyph glyph-name="R.sc" horiz-adv-x="702" 
d="M106 543l14 65h326q226 0 226 -161q0 -63 -49 -109.5t-116 -60.5l63 -153q15 -36 30.5 -47.5t49.5 -11.5l-14 -65h-207q-30 28 -49 93l-45 152h-46l-27 -123q0 -2 -0.5 -6.5t-1.5 -6.5q-2 -10 -2 -12q0 -17 12.5 -24t45.5 -8l-14 -65h-315l14 65q45 2 59.5 13t21.5 46
l78 362l3 14q1 4 1 11q0 17 -12.5 24t-45.5 8zM383 540h-29l-51 -231h24q161 0 161 136q0 95 -105 95z" />
    <glyph glyph-name="Racute.sc" horiz-adv-x="702" 
d="M348 656l96 160h197l-195 -160h-98zM106 543l14 65h326q226 0 226 -161q0 -63 -49 -109.5t-116 -60.5l63 -153q15 -36 30.5 -47.5t49.5 -11.5l-14 -65h-207q-30 28 -49 93l-45 152h-46l-27 -123q0 -2 -0.5 -6.5t-1.5 -6.5q-2 -10 -2 -12q0 -17 12.5 -24t45.5 -8l-14 -65
h-315l14 65q45 2 59.5 13t21.5 46l78 362l3 14q1 4 1 11q0 17 -12.5 24t-45.5 8zM383 540h-29l-51 -231h24q161 0 161 136q0 95 -105 95z" />
    <glyph glyph-name="Rcaron.sc" horiz-adv-x="702" 
d="M473 656h-136l-92 169h89l88 -80l134 80h101zM106 543l14 65h326q226 0 226 -161q0 -63 -49 -109.5t-116 -60.5l63 -153q15 -36 30.5 -47.5t49.5 -11.5l-14 -65h-207q-30 28 -49 93l-45 152h-46l-27 -123q0 -2 -0.5 -6.5t-1.5 -6.5q-2 -10 -2 -12q0 -17 12.5 -24t45.5 -8
l-14 -65h-315l14 65q45 2 59.5 13t21.5 46l78 362l3 14q1 4 1 11q0 17 -12.5 24t-45.5 8zM383 540h-29l-51 -231h24q161 0 161 136q0 95 -105 95z" />
    <glyph glyph-name="Rcommaaccent.sc" horiz-adv-x="702" 
d="M106 543l14 65h326q226 0 226 -161q0 -63 -49 -109.5t-116 -60.5l63 -153q15 -36 30.5 -47.5t49.5 -11.5l-14 -65h-207q-30 28 -49 93l-45 152h-46l-27 -123q0 -2 -0.5 -6.5t-1.5 -6.5q-2 -10 -2 -12q0 -17 12.5 -24t45.5 -8l-14 -65h-315l14 65q45 2 59.5 13t21.5 46
l78 362l3 14q1 4 1 11q0 17 -12.5 24t-45.5 8zM383 540h-29l-51 -231h24q161 0 161 136q0 95 -105 95zM303 -158h-61q-41 11 -41 50q0 32 25 54t69 22q41 0 63.5 -22t22.5 -59q0 -61 -46 -99t-144 -38v45q49 0 78.5 13t33.5 34z" />
    <glyph glyph-name="S.sc" horiz-adv-x="540" 
d="M238 -10q-74 0 -134 25t-86 60l24 132h91q2 -72 32.5 -114t86.5 -42q40 0 63 19t23 54q0 31 -20.5 50.5t-76.5 44.5q-81 36 -119.5 83t-38.5 112q0 94 70.5 149t180.5 55q126 0 200 -66l-27 -128h-78q-4 30 -9.5 50.5t-17 41t-32.5 31t-51 10.5q-36 0 -58 -20t-22 -49
q0 -31 21 -49t78 -45q87 -40 126.5 -82t39.5 -111q0 -101 -81 -160q-71 -51 -185 -51z" />
    <glyph glyph-name="Sacute.sc" horiz-adv-x="540" 
d="M309 656l96 160h197l-195 -160h-98zM238 -10q-74 0 -134 25t-86 60l24 132h91q2 -72 32.5 -114t86.5 -42q40 0 63 19t23 54q0 31 -20.5 50.5t-76.5 44.5q-81 36 -119.5 83t-38.5 112q0 94 70.5 149t180.5 55q126 0 200 -66l-27 -128h-78q-4 30 -9.5 50.5t-17 41t-32.5 31
t-51 10.5q-36 0 -58 -20t-22 -49q0 -31 21 -49t78 -45q87 -40 126.5 -82t39.5 -111q0 -101 -81 -160q-71 -51 -185 -51z" />
    <glyph glyph-name="Scaron.sc" horiz-adv-x="540" 
d="M434 656h-136l-92 169h89l88 -80l134 80h101zM238 -10q-74 0 -134 25t-86 60l24 132h91q2 -72 32.5 -114t86.5 -42q40 0 63 19t23 54q0 31 -20.5 50.5t-76.5 44.5q-81 36 -119.5 83t-38.5 112q0 94 70.5 149t180.5 55q126 0 200 -66l-27 -128h-78q-4 30 -9.5 50.5t-17 41
t-32.5 31t-51 10.5q-36 0 -58 -20t-22 -49q0 -31 21 -49t78 -45q87 -40 126.5 -82t39.5 -111q0 -101 -81 -160q-71 -51 -185 -51z" />
    <glyph glyph-name="Scedilla.sc" horiz-adv-x="540" 
d="M106 -233l-11 49q55 0 88 10q34 9 34 29q0 34 -76 36l50 102q-58 6 -104.5 29.5t-68.5 52.5l24 132h91q2 -72 32.5 -114t86.5 -42q40 0 63 19t23 54q0 31 -20.5 50.5t-76.5 44.5q-81 36 -119.5 83t-38.5 112q0 94 70.5 149t180.5 55q126 0 200 -66l-27 -128h-78
q-4 30 -9.5 50.5t-17 41t-32.5 31t-51 10.5q-36 0 -58 -20t-22 -49q0 -31 21 -49t78 -45q87 -40 126.5 -82t39.5 -111q0 -103 -81 -159q-75 -52 -184 -52l-17 -34q86 -7 86 -78q0 -52 -63 -83q-56 -28 -139 -28z" />
    <glyph glyph-name="Scircumflex.sc" horiz-adv-x="540" 
d="M336 816h136l92 -169h-89l-88 80l-134 -80h-101zM238 -10q-74 0 -134 25t-86 60l24 132h91q2 -72 32.5 -114t86.5 -42q40 0 63 19t23 54q0 31 -20.5 50.5t-76.5 44.5q-81 36 -119.5 83t-38.5 112q0 94 70.5 149t180.5 55q126 0 200 -66l-27 -128h-78q-4 30 -9.5 50.5
t-17 41t-32.5 31t-51 10.5q-36 0 -58 -20t-22 -49q0 -31 21 -49t78 -45q87 -40 126.5 -82t39.5 -111q0 -101 -81 -160q-71 -51 -185 -51z" />
    <glyph glyph-name="Scommaaccent.sc" horiz-adv-x="540" 
d="M238 -10q-74 0 -134 25t-86 60l24 132h91q2 -72 32.5 -114t86.5 -42q40 0 63 19t23 54q0 31 -20.5 50.5t-76.5 44.5q-81 36 -119.5 83t-38.5 112q0 94 70.5 149t180.5 55q126 0 200 -66l-27 -128h-78q-4 30 -9.5 50.5t-17 41t-32.5 31t-51 10.5q-36 0 -58 -20t-22 -49
q0 -31 21 -49t78 -45q87 -40 126.5 -82t39.5 -111q0 -101 -81 -160q-71 -51 -185 -51zM212 -158h-61q-41 11 -41 50q0 32 25 54t69 22q41 0 63.5 -22t22.5 -59q0 -61 -46 -99t-144 -38v45q49 0 78.5 13t33.5 34z" />
    <glyph glyph-name="T.sc" horiz-adv-x="677" 
d="M514 545h-7l-92 -423q0 -2 -0.5 -6.5t-1.5 -6.5q-2 -10 -2 -12q0 -17 16 -24q18 -8 55 -8l-14 -65h-343l14 65q46 0 65 12.5t26 46.5l91 421h-8q-47 0 -78 -32t-83 -115h-78l58 210h590l-33 -210h-71q-11 74 -33.5 110.5t-70.5 36.5z" />
    <glyph glyph-name="Tbar.sc" horiz-adv-x="677" 
d="M514 545h-7l-45 -206h91l-15 -71h-91l-32 -146q0 -2 -0.5 -6.5t-1.5 -6.5q-2 -10 -2 -12q0 -17 16 -24q18 -8 55 -8l-14 -65h-343l14 65q46 0 65 12.5t26 46.5l31 144h-90l15 71h90l45 206h-8q-47 0 -78 -32t-83 -115h-78l58 210h590l-33 -210h-71q-11 74 -33.5 110.5
t-70.5 36.5z" />
    <glyph glyph-name="Tcaron.sc" horiz-adv-x="677" 
d="M504 656h-136l-92 169h89l88 -80l134 80h101zM514 545h-7l-92 -423q0 -2 -0.5 -6.5t-1.5 -6.5q-2 -10 -2 -12q0 -17 16 -24q18 -8 55 -8l-14 -65h-343l14 65q46 0 65 12.5t26 46.5l91 421h-8q-47 0 -78 -32t-83 -115h-78l58 210h590l-33 -210h-71q-11 74 -33.5 110.5
t-70.5 36.5z" />
    <glyph glyph-name="uni021A.sc" horiz-adv-x="677" 
d="M180 -233l-11 49q55 0 88 10q34 9 34 29q0 34 -76 36l54 109h-144l14 65q46 0 65 12.5t26 46.5l91 421h-8q-47 0 -78 -32t-83 -115h-78l58 210h590l-33 -210h-71q-11 74 -33.5 110.5t-70.5 36.5h-7l-92 -423q0 -2 -0.5 -6.5t-1.5 -6.5q-2 -10 -2 -12q0 -17 16 -24
q18 -8 55 -8l-14 -65h-149l-23 -44q86 -7 86 -78q0 -52 -63 -83q-56 -28 -139 -28z" />
    <glyph glyph-name="U.sc" horiz-adv-x="702" 
d="M537 246l51 240l2 14q1 4 1 11q0 18 -11.5 24.5t-44.5 7.5l13 65h217l-13 -65q-45 -2 -60 -13.5t-22 -45.5l-57 -266q-24 -112 -99 -170t-184 -58q-106 0 -171 57t-65 145q0 33 10 79l47 215l3 14q1 4 1 11q0 17 -12.5 24t-45.5 8l14 65h320l-14 -65q-45 -2 -59.5 -13
t-21.5 -46l-49 -219q-8 -34 -8 -65q0 -53 27.5 -81t76.5 -28q57 0 95.5 34t58.5 121z" />
    <glyph glyph-name="Uacute.sc" horiz-adv-x="702" 
d="M429 656l96 160h197l-195 -160h-98zM537 246l51 240l2 14q1 4 1 11q0 18 -11.5 24.5t-44.5 7.5l13 65h217l-13 -65q-45 -2 -60 -13.5t-22 -45.5l-57 -266q-24 -112 -99 -170t-184 -58q-106 0 -171 57t-65 145q0 33 10 79l47 215l3 14q1 4 1 11q0 17 -12.5 24t-45.5 8
l14 65h320l-14 -65q-45 -2 -59.5 -13t-21.5 -46l-49 -219q-8 -34 -8 -65q0 -53 27.5 -81t76.5 -28q57 0 95.5 34t58.5 121z" />
    <glyph glyph-name="Ubreve.sc" horiz-adv-x="702" 
d="M481 653q-59 0 -93 30.5t-34 81.5q0 29 11 58h66q-1 -3 -1 -7v-7q0 -64 71 -64q73 0 105 78h74q-20 -80 -72.5 -125t-126.5 -45zM537 246l51 240l2 14q1 4 1 11q0 18 -11.5 24.5t-44.5 7.5l13 65h217l-13 -65q-45 -2 -60 -13.5t-22 -45.5l-57 -266q-24 -112 -99 -170
t-184 -58q-106 0 -171 57t-65 145q0 33 10 79l47 215l3 14q1 4 1 11q0 17 -12.5 24t-45.5 8l14 65h320l-14 -65q-45 -2 -59.5 -13t-21.5 -46l-49 -219q-8 -34 -8 -65q0 -53 27.5 -81t76.5 -28q57 0 95.5 34t58.5 121z" />
    </font>
</defs>
</svg>
