<?xml version="1.0" standalone="no"?>
<!DOCTYPE svg PUBLIC "-//W3C//DTD SVG 1.1//EN" "http://www.w3.org/Graphics/SVG/1.1/DTD/svg11.dtd" >
<svg xmlns="http://www.w3.org/2000/svg" xmlns:xlink="http://www.w3.org/1999/xlink" version="1.1">
<metadata>
Created by FontForge 20170924 at Wed Oct 26 11:33:55 2016
 By patjennings,,,
copyright missing
</metadata>
<defs>
<font id="TiemposText-Bold" horiz-adv-x="600" >
  <font-face 
    font-family="TiemposText-Bold"
    font-weight="400"
    font-stretch="normal"
    units-per-em="1000"
    panose-1="0 0 5 0 0 0 0 0 0 0"
    ascent="800"
    descent="-200"
    x-height="550"
    cap-height="702"
    bbox="-347 -250 1382 1061"
    underline-thickness="30"
    underline-position="-155"
    unicode-range="U+000D-FB04"
  />
<missing-glyph horiz-adv-x="960" 
 />
    <glyph glyph-name="ff" unicode="ff" horiz-adv-x="762" 
d="M334 756q104 0 160 -54q64 68 186 68q158 0 158 -96q0 -40 -35 -64h-90v38q0 31 -7.5 47t-29.5 16q-47 0 -47 -71v-90h116v-75h-114v-353q0 -30 15.5 -39t63.5 -16v-67h-323v67q35 4 45.5 14t10.5 43v351h-157v-351q0 -33 10.5 -43t45.5 -14v-67h-305v67q36 4 48.5 14.5
t12.5 42.5v351h-76v62l76 18v6q0 91 74 146q67 49 162 49zM284 550h159v11q0 27 5 54q-16 31 -42 53t-55 22q-67 0 -67 -78v-62z" />
    <glyph glyph-name="fi" unicode="fi" horiz-adv-x="716" 
d="M342 67v-67h-305v67q36 4 48.5 14.5t12.5 42.5v351h-76v62l76 18v6q0 108 87 163q73 46 185 46q89 0 136 -25t47 -71q0 -40 -35 -64h-113v38q0 63 -49 63q-30 0 -51 -29.5t-21 -78.5v-53h268l39 14h40v-440q0 -32 12.5 -42.5t48.5 -14.5v-67h-305v67q35 4 45.5 14
t10.5 43v351h-157v-351q0 -33 10.5 -43t45.5 -14z" />
    <glyph glyph-name="fl" unicode="fl" horiz-adv-x="716" 
d="M98 124v351h-76v62l76 18v6q0 108 75 164q62 45 151 45t159 -36l115 27h33v-637q0 -32 12.5 -42.5t48.5 -14.5v-67h-305v67q35 4 45.5 14t10.5 43v514q-37 72 -92 72q-67 0 -67 -78v-82h96v-75h-94v-351q0 -33 10.5 -43t45.5 -14v-67h-305v67q36 4 48.5 14.5t12.5 42.5z
" />
    <glyph glyph-name="ffi" unicode="ffi" horiz-adv-x="1061" 
d="M334 756q106 0 164 -58q75 72 217 72q89 0 136 -25t47 -71q0 -40 -35 -64h-113v38q0 63 -49 63q-30 0 -51 -29.5t-21 -78.5v-53h268l39 14h40v-440q0 -32 12.5 -42.5t48.5 -14.5v-67h-305v67q35 4 45.5 14t10.5 43v351h-157v-351q0 -33 10.5 -43t45.5 -14v-67h-300v67
q35 4 45.5 14t10.5 43v351h-157v-351q0 -33 10.5 -43t45.5 -14v-67h-305v67q36 4 48.5 14.5t12.5 42.5v351h-76v62l76 18v6q0 91 74 146q67 49 162 49zM284 612v-62h159v11q0 29 6 53q-16 31 -42 53.5t-56 22.5q-67 0 -67 -78z" />
    <glyph glyph-name="ffl" unicode="ffl" horiz-adv-x="1061" 
d="M22 537l76 18v6q0 91 74 146q67 49 162 49q103 0 159 -53q62 67 176 67q89 0 159 -36l115 27h33v-637q0 -32 12.5 -42.5t48.5 -14.5v-67h-305v67q35 4 45.5 14t10.5 43v514q-37 72 -92 72q-67 0 -67 -78v-82h96v-75h-94v-351q0 -33 10.5 -43t45.5 -14v-67h-300v67
q35 4 45.5 14t10.5 43v351h-157v-351q0 -33 10.5 -43t45.5 -14v-67h-305v67q36 4 48.5 14.5t12.5 42.5v351h-76v62zM284 550h159v11q0 27 5 55q-16 30 -42 52t-55 22q-67 0 -67 -78v-62z" />
    <glyph glyph-name="f_b" unicode="fb" horiz-adv-x="1035" 
d="M442 58l1 580q-37 72 -92 72q-67 0 -67 -78v-82h96v-75h-94v-351q0 -33 10.5 -43t45.5 -14v-67h-305v67q36 4 48.5 14.5t12.5 42.5v351h-76v62l76 18v6q0 108 75 164q62 45 151 45t159 -36l115 27h33v-298q49 97 159 97q97 0 154.5 -67.5t57.5 -188.5q0 -143 -87 -230
q-84 -84 -215 -84q-169 0 -258 68zM701 59q52 0 80.5 52.5t28.5 138.5q0 91 -33.5 142.5t-88.5 51.5q-32 0 -57 -13v-274q0 -98 70 -98z" />
    <glyph glyph-name="f_f_b" unicode="ffb" horiz-adv-x="1380" 
d="M788 58v580q-37 72 -92 72q-67 0 -67 -78v-82h96v-75h-94v-351q0 -33 10.5 -43t45.5 -14v-67h-300v67q35 4 45.5 14t10.5 43v351h-157v-351q0 -33 10.5 -43t45.5 -14v-67h-305v67q36 4 48.5 14.5t12.5 42.5v351h-76v62l76 18v6q0 91 74 146q67 49 162 49q103 0 159 -53
q62 67 176 67q89 0 159 -36l115 27h33v-298q49 97 159 97q97 0 154.5 -67.5t57.5 -188.5q0 -143 -87 -230q-84 -84 -215 -84q-168 0 -257 68zM284 550h159v11q0 27 5 55q-16 30 -42 52t-55 22q-67 0 -67 -78v-62zM1046 59q52 0 80.5 52.5t28.5 138.5q0 91 -33.5 142.5
t-88.5 51.5q-32 0 -57 -13v-274q0 -98 70 -98z" />
    <glyph glyph-name="f_f_h" unicode="ffh" horiz-adv-x="1402" 
d="M788 124v514q-37 72 -92 72q-67 0 -67 -78v-82h96v-75h-94v-351q0 -33 10.5 -43t45.5 -14v-67h-300v67q35 4 45.5 14t10.5 43v351h-157v-351q0 -33 10.5 -43t45.5 -14v-67h-305v67q36 4 48.5 14.5t12.5 42.5v351h-76v62l76 18v6q0 91 74 146q67 49 162 49q103 0 159 -53
q62 67 176 67q89 0 159 -36l115 27h33v-306q92 105 193 105q74 0 113.5 -41t39.5 -123v-272q0 -32 12 -42.5t48 -14.5v-67h-304v67q35 4 45.5 14t10.5 43v254q0 32 -14 47.5t-48 15.5q-45 0 -96 -17v-300q0 -33 10.5 -43t45.5 -14v-67h-300v67q35 4 45.5 14t10.5 43z
M284 550h159v11q0 27 5 55q-16 30 -42 52t-55 22q-67 0 -67 -78v-62z" />
    <glyph glyph-name="f_f_idieresis" unicode="ff&#xef;" horiz-adv-x="1061" 
d="M903 691q0 36 26.5 62t61.5 26q38 0 64.5 -26t26.5 -62t-26.5 -62t-64.5 -26q-35 0 -61.5 26t-26.5 62zM334 756q99 0 156 -50q62 70 195 70q80 0 125 -25t45 -71q0 -45 -36 -70h-109v40q0 69 -37 69q-44 0 -44 -71v-98h268l39 14h40v-440q0 -32 12.5 -42.5t48.5 -14.5
v-67h-305v67q35 4 45.5 14t10.5 43v351h-157v-351q0 -33 10.5 -43t45.5 -14v-67h-300v67q35 4 45.5 14t10.5 43v351h-157v-351q0 -33 10.5 -43t45.5 -14v-67h-305v67q36 4 48.5 14.5t12.5 42.5v351h-76v62l76 18v6q0 91 74 146q67 49 162 49zM284 550h159v17q0 30 4 51
q-40 72 -96 72q-67 0 -67 -78v-62z" />
    <glyph glyph-name="f_f_j" unicode="ffj" horiz-adv-x="1037" 
d="M787 91v384h-156v-351q0 -33 10.5 -43t45.5 -14v-67h-300v67q35 4 45.5 14t10.5 43v351h-157v-351q0 -33 10.5 -43t45.5 -14v-67h-305v67q36 4 48.5 14.5t12.5 42.5v351h-76v62l76 18v6q0 91 74 146q67 49 162 49q106 0 164 -58q75 72 217 72q89 0 136 -25t47 -71
q0 -40 -35 -64h-113v38q0 63 -49 63q-30 0 -51 -29.5t-21 -78.5v-53h268l39 14h40v-430q0 -80 -18 -129t-54 -90q-72 -81 -155 -122l-36 34l41 69q22 36 27.5 79.5t5.5 115.5zM284 550h159v11q0 29 6 53q-16 31 -42 53.5t-56 22.5q-67 0 -67 -78v-62z" />
    <glyph glyph-name="f_f_k" unicode="ffk" horiz-adv-x="1368" 
d="M788 124v514q-37 72 -92 72q-67 0 -67 -78v-82h96v-75h-94v-351q0 -33 10.5 -43t45.5 -14v-67h-300v67q35 4 45.5 14t10.5 43v351h-157v-351q0 -33 10.5 -43t45.5 -14v-67h-305v67q36 4 48.5 14.5t12.5 42.5v351h-76v62l76 18v6q0 91 74 146q67 49 162 49q103 0 159 -53
q62 67 176 67q89 0 159 -36l115 27h33v-637q0 -32 12.5 -42.5t48.5 -14.5v-67h-305v67q35 4 45.5 14t10.5 43zM284 550h159v11q0 27 5 55q-16 30 -42 52t-55 22q-67 0 -67 -78v-62zM1166 0l-183 292l127 122l19 20q8 10 8 18q0 16 -14 22q-13 5 -49 10v66h264v-66
q-68 -16 -93 -41l-89 -88l202 -303v-52h-192z" />
    <glyph glyph-name="f_h" unicode="fh" horiz-adv-x="1057" 
d="M443 124v514q-37 72 -92 72q-67 0 -67 -78v-82h96v-75h-94v-351q0 -33 10.5 -43t45.5 -14v-67h-305v67q36 4 48.5 14.5t12.5 42.5v351h-76v62l76 18v6q0 108 75 164q62 45 151 45t159 -36l115 27h33v-306q92 105 193 105q74 0 113.5 -41t39.5 -123v-272q0 -32 12 -42.5
t48 -14.5v-67h-304v67q35 4 45.5 14t10.5 43v254q0 32 -14 47.5t-48 15.5q-45 0 -96 -17v-300q0 -33 10.5 -43t45.5 -14v-67h-300v67q35 4 45.5 14t10.5 43z" />
    <glyph glyph-name="f_idieresis" unicode="f&#xef;" horiz-adv-x="716" 
d="M558 691q0 36 26.5 62t61.5 26q38 0 64.5 -26t26.5 -62t-26.5 -62t-64.5 -26q-35 0 -61.5 26t-26.5 62zM22 537l76 18v12q0 110 74 164q62 45 168 45q80 0 125 -25t45 -71q0 -45 -36 -70h-109v40q0 69 -37 69q-44 0 -44 -71v-98h268l39 14h40v-440q0 -32 12.5 -42.5
t48.5 -14.5v-67h-305v67q35 4 45.5 14t10.5 43v351h-157v-351q0 -33 10.5 -43t45.5 -14v-67h-305v67q36 4 48.5 14.5t12.5 42.5v351h-76v62z" />
    <glyph glyph-name="f_j" unicode="fj" horiz-adv-x="692" 
d="M442 91v384h-156v-351q0 -33 10.5 -43t45.5 -14v-67h-305v67q36 4 48.5 14.5t12.5 42.5v351h-76v62l76 18v6q0 108 87 163q73 46 185 46q89 0 136 -25t47 -71q0 -40 -35 -64h-113v38q0 63 -49 63q-30 0 -51 -29.5t-21 -78.5v-53h268l39 14h40v-430q0 -80 -18 -129
t-54 -90q-72 -81 -155 -122l-36 34l41 69q22 36 27.5 79.5t5.5 115.5z" />
    <glyph glyph-name="f_k" unicode="fk" horiz-adv-x="1023" 
d="M443 124v514q-37 72 -92 72q-67 0 -67 -78v-82h96v-75h-94v-351q0 -33 10.5 -43t45.5 -14v-67h-305v67q36 4 48.5 14.5t12.5 42.5v351h-76v62l76 18v6q0 108 75 164q62 45 151 45t159 -36l115 27h33v-637q0 -32 12.5 -42.5t48.5 -14.5v-67h-305v67q35 4 45.5 14t10.5 43z
M821 0l-183 292l127 122l19 20q8 10 8 18q0 16 -14 22q-13 5 -49 10v66h264v-66q-68 -16 -93 -41l-89 -88l202 -303v-52h-192z" />
    <glyph glyph-name=".notdef" horiz-adv-x="960" 
 />
    <glyph glyph-name=".null" horiz-adv-x="0" 
 />
    <glyph glyph-name="uni000D" unicode="&#xd;" horiz-adv-x="190" 
 />
    <glyph glyph-name="NULL" horiz-adv-x="0" 
 />
    <glyph glyph-name="NULL" horiz-adv-x="0" 
 />
    <glyph glyph-name="space" unicode=" " horiz-adv-x="190" 
 />
    <glyph glyph-name="exclam" unicode="!" horiz-adv-x="336" 
d="M65 702h206l-59 -461h-88zM66 94q0 44 30 75t71 31q43 0 72.5 -31t29.5 -75q0 -42 -30 -72.5t-72 -30.5q-41 0 -71 30.5t-30 72.5z" />
    <glyph glyph-name="quotedbl" unicode="&#x22;" horiz-adv-x="467" 
d="M184 595l-43 -148h-36l-43 148q-22 76 -22 94q0 33 22 57t61 24t61 -24t22 -57q0 -18 -22 -94zM405 595l-43 -148h-36l-43 148q-22 76 -22 94q0 33 22 57t61 24t61 -24t22 -57q0 -18 -22 -94z" />
    <glyph glyph-name="numbersign" unicode="#" horiz-adv-x="589" 
d="M513 280v-71h-129l-70 -219l-72 26l62 193h-110l-70 -219l-72 26l62 193h-64v71h86l46 142h-106v71h129l70 219l72 -26l-62 -193h110l70 219l72 -26l-62 -193h64v-71h-87l-45 -142h106zM372 422h-110l-45 -142h109z" />
    <glyph glyph-name="dollar" unicode="$" horiz-adv-x="602" 
d="M240 -113h-55l20 110q-102 17 -158 60l-11 167h97q13 -114 85 -152l34 188l-15 5q-98 30 -146 82t-48 135q0 106 72 168t187 62h16q10 0 15 -1l19 103h55l-20 -109q81 -13 140 -53v-153h-82q-15 96 -71 130l-33 -183l36 -11q93 -30 141 -81t48 -137q0 -114 -80 -172
q-74 -55 -197 -55q-11 0 -16 1h-15zM191 562q0 -39 21.5 -61t67.5 -35l9 -3l33 183q-27 3 -33 3q-46 0 -72 -25.5t-26 -61.5zM314 242l-10 3l-34 -189q22 -2 35 -2q47 0 76.5 24.5t29.5 68.5q0 34 -21.5 57t-75.5 38z" />
    <glyph glyph-name="percent" unicode="%" horiz-adv-x="930" 
d="M278 -19h-76l448 741h78zM35 523q0 90 54.5 139.5t134.5 49.5q79 0 133.5 -50t54.5 -139t-54.5 -138.5t-133.5 -49.5q-80 0 -134.5 49.5t-54.5 138.5zM164 523q0 -63 16 -101.5t44 -38.5q27 0 43 39t16 101q0 61 -15 102q-16 39 -44 39q-29 0 -44.5 -38.5t-15.5 -102.5z
M895 179q0 -90 -54.5 -139.5t-134.5 -49.5q-79 0 -133.5 50t-54.5 139t54.5 138.5t133.5 49.5q80 0 134.5 -49.5t54.5 -138.5zM766 179q0 63 -16 101.5t-44 38.5q-27 0 -43 -39t-16 -101q0 -63 16 -101q15 -40 43 -40q29 0 44.5 38.5t15.5 102.5z" />
    <glyph glyph-name="ampersand" unicode="&#x26;" horiz-adv-x="752" 
d="M13 184q0 135 169 191q-60 79 -60 148q0 86 62 137.5t166 51.5q96 0 154 -41t58 -110q0 -108 -167 -162l152 -181q15 35 15 71q0 24 -10 34t-36 10v67h216v-67q-53 0 -73 -14.5t-30 -57.5q-10 -42 -40 -93l40 -47q25 -29 46.5 -40.5t54.5 -11.5v-69h-218q-11 7 -29 21
l-27 21q-90 -52 -191 -52q-110 0 -181 52.5t-71 141.5zM287 585q0 -59 72 -143l4 -5q50 40 50 130q0 35 -17 58t-46 23q-30 0 -46.5 -18t-16.5 -45zM346 80q30 0 63 11q-3 4 -9 11t-10.5 12.5t-8.5 10.5l-169 212q-27 -34 -27 -95q0 -72 44.5 -117t116.5 -45z" />
    <glyph glyph-name="quotesingle" unicode="'" horiz-adv-x="246" 
d="M184 595l-43 -148h-36l-43 148q-22 76 -22 94q0 33 22 57t61 24t61 -24t22 -57q0 -18 -22 -94z" />
    <glyph glyph-name="parenleft" unicode="(" horiz-adv-x="388" 
d="M60 314q0 124 57 248t155 208h96q-160 -170 -160 -456q0 -285 160 -455h-96q-98 84 -155 207.5t-57 247.5z" />
    <glyph glyph-name="parenright" unicode=")" horiz-adv-x="388" 
d="M328 314q0 -124 -57 -247.5t-155 -207.5h-96q160 170 160 455q0 286 -160 456h96q98 -84 155 -208t57 -248z" />
    <glyph glyph-name="asterisk" unicode="*" horiz-adv-x="500" 
d="M460 507l-58 -101l-129 115l35 -169h-116l34 168l-128 -114l-58 101l163 54l-163 54l58 101l129 -115l-35 169h116l-35 -168l129 114l58 -101l-163 -54z" />
    <glyph glyph-name="plus" unicode="+" horiz-adv-x="604" 
d="M255 411v183h93v-183h183v-93h-183v-184h-93v184h-183v93h183z" />
    <glyph glyph-name="comma" unicode="," horiz-adv-x="305" 
d="M170 11h-43q-67 14 -67 91q0 38 26 64.5t70 26.5q51 0 82 -33t31 -94q0 -92 -55 -147t-158 -58v62q52 4 83 26.5t31 61.5z" />
    <glyph glyph-name="hyphen" unicode="-" horiz-adv-x="360" 
d="M310 363v-116h-260v116h260z" />
    <glyph glyph-name="period" unicode="." horiz-adv-x="305" 
d="M45 97q0 47 31 77.5t76 30.5q46 0 77 -30.5t31 -77.5t-31 -77t-77 -30q-45 0 -76 30t-31 77z" />
    <glyph glyph-name="slash" unicode="/" horiz-adv-x="442" 
d="M297 770h107l-272 -891h-107z" />
    <glyph glyph-name="zero" unicode="0" horiz-adv-x="680" 
d="M340 712q136 0 219 -95.5t83 -265.5t-83 -265.5t-219 -95.5t-219 95.5t-83 265.5t83 265.5t219 95.5zM340 638q-54 0 -76 -73q-23 -75 -23 -214t23 -214q23 -74 76 -74q55 0 78 74q21 73 21 214t-21 214q-22 73 -78 73z" />
    <glyph glyph-name="one" unicode="1" horiz-adv-x="486" 
d="M295 711h57v-570q0 -44 22 -56t97 -16v-69h-422v69q82 5 100 16t18 56v369h-118v63l36 7q69 11 117 42.5t93 88.5z" />
    <glyph glyph-name="two" unicode="2" horiz-adv-x="572" 
d="M179 148h171q52 0 77 15.5t61 78.5h49l-22 -242h-515v57l199 190q110 103 110 211q0 55 -30 83.5t-83 28.5q-44 0 -74.5 -17t-62.5 -48l-37 41q94 166 265 166q101 0 160 -50.5t59 -141.5q0 -97 -96 -195q-74 -75 -231 -177z" />
    <glyph glyph-name="three" unicode="3" horiz-adv-x="582" 
d="M334 394q95 -4 152 -53t57 -134q0 -102 -88 -163q-80 -54 -195 -54q-112 0 -176 42.5t-64 104.5q0 29 14 49.5t33 29.5h110v-36q0 -127 100 -127q40 0 63 26.5t23 76.5q0 70 -40.5 113.5t-111.5 43.5h-21l-14 43q84 35 114 68q31 34 31 70q0 37 -23 59.5t-66 22.5
q-68 0 -140 -68l-40 36q40 76 106.5 122t158.5 46q82 0 133.5 -43.5t51.5 -114.5q0 -62 -48.5 -104t-119.5 -56z" />
    <glyph glyph-name="four" unicode="4" horiz-adv-x="653" 
d="M329 137v44h-322v64l344 457h153v-442h127v-79h-127v-44q0 -40 15 -53t65 -15v-69h-336v69q50 2 65.5 15.5t15.5 52.5zM329 552l-222 -292h222v292z" />
    <glyph glyph-name="five" unicode="5" horiz-adv-x="565" 
d="M136 702h351v-170h-320l-11 -67q173 -1 273 -61.5t100 -185.5q0 -108 -73 -167.5t-188 -59.5q-113 0 -177.5 41.5t-64.5 104.5q0 27 14 49t33 31h111v-28q0 -133 102 -133q44 0 68 25.5t24 65.5q0 70 -74 114q-74 42 -234 42z" />
    <glyph glyph-name="six" unicode="6" horiz-adv-x="633" 
d="M501 713l20 -56q-141 -18 -206 -83.5t-85 -179.5q73 73 172 73q85 0 143 -58.5t58 -158.5q0 -125 -84 -196q-76 -64 -188 -64q-131 0 -213.5 83.5t-82.5 222.5q0 180 116 294q125 123 350 123zM284 368q-24 0 -58 -10q0 -5 -0.5 -15.5t-1.5 -15.5q-1 -11 -1 -31
q0 -100 26 -160q32 -76 91 -76q44 0 70.5 38.5t26.5 104.5q0 71 -39.5 118t-113.5 47z" />
    <glyph glyph-name="seven" unicode="7" horiz-adv-x="540" 
d="M120 0l288 530h-237q-33 0 -54 -20.5t-38 -69.5h-60l44 262h486v-46l-291 -656h-138z" />
    <glyph glyph-name="eight" unicode="8" horiz-adv-x="616" 
d="M550 549q0 -57 -38 -92.5t-99 -45.5l14 -6q78 -34 115 -79.5t37 -115.5q0 -103 -74 -161.5t-196 -58.5q-127 0 -200.5 46t-73.5 128q0 60 39 96t104 49l-8 5q-52 22 -82.5 68.5t-30.5 109.5q0 103 68.5 161.5t182.5 58.5q111 0 176.5 -44t65.5 -119zM284 467l82 -35
q49 39 49 108q0 46 -29.5 75t-77.5 29q-47 0 -74 -24t-27 -62q0 -58 77 -91zM347 237l-131 52q-40 -32 -40 -102q0 -57 36.5 -93t96.5 -36q52 0 84.5 23.5t32.5 65.5q0 58 -79 90z" />
    <glyph glyph-name="nine" unicode="9" horiz-adv-x="633" 
d="M132 -11l-20 56q141 18 206 83.5t85 179.5q-73 -73 -172 -73q-85 0 -143 58.5t-58 158.5q0 125 84 196q76 64 188 64q131 0 213.5 -83.5t82.5 -222.5q0 -180 -116 -294q-125 -123 -350 -123zM349 334q24 0 58 10q1 5 1 16t1 16q1 10 1 30q0 99 -26 161q-32 75 -91 75
q-44 0 -70.5 -38.5t-26.5 -104.5q0 -71 39.5 -118t113.5 -47z" />
    <glyph glyph-name="colon" unicode=":" horiz-adv-x="305" 
d="M45 396q0 47 31 77.5t76 30.5q46 0 77 -30.5t31 -77.5t-31 -77t-77 -30q-45 0 -76 30t-31 77zM45 97q0 47 31 77.5t76 30.5q46 0 77 -30.5t31 -77.5t-31 -77t-77 -30q-45 0 -76 30t-31 77z" />
    <glyph glyph-name="semicolon" unicode=";" horiz-adv-x="305" 
d="M45 396q0 47 31 77.5t76 30.5q46 0 77 -30.5t31 -77.5t-31 -77t-77 -30q-45 0 -76 30t-31 77zM170 11h-43q-67 14 -67 91q0 38 26 64.5t70 26.5q51 0 82 -33t31 -94q0 -92 -55 -147t-158 -58v62q52 4 83 26.5t31 61.5z" />
    <glyph glyph-name="less" unicode="&#x3c;" horiz-adv-x="463" 
d="M391 147l-337 210v10l337 209v-108l-182 -105l182 -108v-108z" />
    <glyph glyph-name="equal" unicode="=" horiz-adv-x="615" 
d="M538 406h-460v87h460v-87zM538 236h-460v88h460v-88z" />
    <glyph glyph-name="greater" unicode="&#x3e;" horiz-adv-x="463" 
d="M72 576l337 -209v-10l-337 -210v108l181 108l-181 105v108z" />
    <glyph glyph-name="question" unicode="?" horiz-adv-x="480" 
d="M304 579q0 63 -61 63q-35 0 -51.5 -22.5t-16.5 -59.5v-53h-110q-39 18 -39 66q0 61 59 99.5t159 38.5q106 0 163 -42t57 -125q0 -58 -29 -98.5t-88 -74.5q-48 -26 -64.5 -50.5t-16.5 -55.5v-26h-54q-62 36 -62 103q0 71 61 117q59 45 74 66q19 26 19 54zM136 94
q0 44 29.5 75t71.5 31q43 0 72.5 -31t29.5 -75q0 -42 -30 -72.5t-72 -30.5t-71.5 30.5t-29.5 72.5z" />
    <glyph glyph-name="at" unicode="@" horiz-adv-x="907" 
d="M606 77q-70 0 -94.5 43t-12.5 109h-5q-73 -152 -169 -152q-45 0 -75 35t-30 94q0 106 73 194q77 92 184 92q60 0 87 -40l80 30h56l-35 -94l-51 -179q-9 -29 -2 -51.5t28 -22.5q55 0 95.5 62t40.5 172q0 115 -77 190q-84 82 -213 82q-161 0 -257 -109q-95 -107 -95 -281
q0 -156 102 -243q92 -79 241 -79q82 0 142.5 16.5t127.5 52.5l18 -33q-117 -102 -302 -102q-173 0 -290 101q-123 105 -123 282q0 192 123 320q122 127 313 127q168 0 274 -98q97 -92 97 -226q0 -145 -84 -225q-71 -67 -167 -67zM392 172q34 0 76.5 71t60.5 165
q-13 34 -36 34q-53 0 -93 -75q-38 -68 -38 -145q0 -50 30 -50z" />
    <glyph glyph-name="A" unicode="A" horiz-adv-x="758" 
d="M463 153l-24 60h-244l-23 -60q-9 -27 -9 -40q0 -24 13 -33t57 -11v-69h-226v69q24 4 36.5 11.5t20.5 25.5l205 517l-35 80h205l254 -597q8 -18 21 -25.5t37 -11.5v-69h-347v69q42 2 56 11t14 33q0 16 -11 40zM411 282l-96 240l-93 -240h189z" />
    <glyph glyph-name="B" unicode="B" horiz-adv-x="720" 
d="M415 0h-384v69q50 2 64.5 15t14.5 53v428q0 40 -14.5 53t-64.5 15v69h383q116 0 179.5 -45t63.5 -131q0 -70 -54 -112t-133 -51q99 -6 160.5 -50t61.5 -122q0 -191 -277 -191zM331 630h-23v-234h29q127 0 127 122q0 112 -133 112zM350 325h-42v-190q0 -39 16.5 -53.5
t56.5 -14.5h6q49 0 78 33.5t29 92.5q0 132 -144 132z" />
    <glyph glyph-name="C" unicode="C" horiz-adv-x="706" 
d="M416 68q60 0 94 42.5t62 138.5h97l-16 -193q-97 -66 -252 -66q-171 0 -269 96.5t-98 250.5q0 170 108 275q105 100 261 100q72 0 136 -20t104 -54v-163h-96q-20 81 -53.5 122.5t-92.5 41.5q-82 0 -120 -85q-33 -70 -33 -188q0 -136 43 -217t125 -81z" />
    <glyph glyph-name="D" unicode="D" horiz-adv-x="803" 
d="M31 633v69h325q196 0 304.5 -89t108.5 -251q0 -169 -101 -265.5t-276 -96.5h-361v69q50 2 64.5 15t14.5 53v428q0 40 -14.5 53t-64.5 15zM329 630h-21v-488q0 -42 15 -56t53 -14h9q172 0 172 279q0 130 -59.5 204.5t-168.5 74.5z" />
    <glyph glyph-name="E" unicode="E" horiz-adv-x="680" 
d="M520 476v-229h-66q-7 44 -23 61t-49 17h-74v-188q0 -38 19 -52.5t61 -14.5h25q49 0 82 29t84 109h76l-31 -208h-593v69q50 2 64.5 15t14.5 53v428q0 40 -14.5 53t-64.5 15v69h588v-192h-78q-26 67 -53 94.5t-83 27.5h-97v-234h74q33 0 49 17t23 61h66z" />
    <glyph glyph-name="F" unicode="F" horiz-adv-x="629" 
d="M424 64v-64h-393v69q50 2 64.5 15t14.5 53v428q0 40 -14.5 53t-64.5 15v69h575v-193h-78q-26 67 -53.5 95t-83.5 28h-83v-242h56q34 0 49.5 16.5t22.5 61.5h67v-229h-67q-7 45 -22.5 62t-49.5 17h-56v-186q0 -38 25 -51.5t91 -16.5z" />
    <glyph glyph-name="G" unicode="G" horiz-adv-x="766" 
d="M34 337q0 169 111 275q106 100 262 100q71 0 135.5 -20t104.5 -54v-163h-96q-22 81 -55.5 122.5t-90.5 41.5q-80 0 -123 -85q-37 -73 -37 -188q0 -297 176 -297q36 0 62 10v128q0 39 -14.5 52t-62.5 14v71h335v-71q-49 -1 -63 -13.5t-14 -52.5v-144q-101 -72 -270 -72
q-173 0 -269 98q-91 93 -91 248z" />
    <glyph glyph-name="H" unicode="H" horiz-adv-x="864" 
d="M556 137v188h-248v-188q0 -40 15 -53t64 -15v-69h-356v69q50 2 64.5 15t14.5 53v428q0 40 -14.5 53t-64.5 15v69h356v-69q-49 -2 -64 -15t-15 -53v-167h248v167q0 40 -15 53t-64 15v69h356v-69q-50 -2 -64.5 -15t-14.5 -53v-428q0 -40 14.5 -53t64.5 -15v-69h-356v69
q49 2 64 15t15 53z" />
    <glyph glyph-name="I" unicode="I" horiz-adv-x="418" 
d="M387 69v-69h-356v69q50 2 64.5 15t14.5 53v428q0 40 -14.5 53t-64.5 15v69h356v-69q-50 -2 -64.5 -15t-14.5 -53v-428q0 -40 14.5 -53t64.5 -15z" />
    <glyph glyph-name="J" unicode="J" horiz-adv-x="612" 
d="M514 565v-339q0 -236 -268 -236q-113 0 -175.5 39.5t-62.5 111.5q0 57 50 91h135v-51q0 -58 12.5 -90t46.5 -32q38 0 50 32.5t12 101.5v372q0 40 -14.5 53t-62.5 15v69h357v-69q-50 -2 -65 -15t-15 -53z" />
    <glyph glyph-name="K" unicode="K" horiz-adv-x="790" 
d="M110 137v428q0 40 -14.5 53t-64.5 15v69h356v-69q-48 -2 -62.5 -15t-14.5 -53v-428q0 -40 14.5 -53t62.5 -15v-69h-356v69q50 2 64.5 15t14.5 53zM677 596l-173 -170l181 -286q27 -42 48.5 -57t52.5 -15v-68h-226q-42 27 -88 105l-154 252l209 200q29 29 29 45
q0 12 -12 22q-12 9 -49 9v69h264v-69q-29 -1 -44 -8.5t-38 -28.5z" />
    <glyph glyph-name="L" unicode="L" horiz-adv-x="662" 
d="M310 565v-426q0 -39 17 -53t58 -14h25q46 0 73 31q21 25 87 138h82l-38 -241h-583v69q50 2 64.5 15t14.5 53v428q0 39 -14.5 52t-64.5 15v70h356v-70q-48 -2 -62.5 -15t-14.5 -52z" />
    <glyph glyph-name="M" unicode="M" horiz-adv-x="1005" 
d="M710 158l-47 326l-172 -484h-79l-182 485l-44 -327q-2 -16 -2 -25q0 -35 20.5 -48t74.5 -16v-69h-271v69q43 2 60.5 14.5t22.5 46.5l63 430q0 40 -17.5 55.5t-66.5 17.5v69h287q1 -22 16 -64l135 -363l127 363q16 45 17 64h282v-69q-48 -2 -65.5 -17.5t-17.5 -55.5
l62 -430q5 -35 22.5 -47t61.5 -14v-69h-380v69q55 3 75 16t20 48q0 9 -2 25z" />
    <glyph glyph-name="N" unicode="N" horiz-adv-x="778" 
d="M110 137v447q-21 28 -36 37t-43 12v69h272l289 -380v243q0 39 -19 52.5t-69 15.5v69h256v-69q-49 -2 -63.5 -15t-14.5 -53v-565h-81l-401 503v-366q0 -39 19 -52.5t69 -15.5v-69h-257v69q50 2 64.5 15t14.5 53z" />
    <glyph glyph-name="O" unicode="O" horiz-adv-x="766" 
d="M392 712q160 0 253 -103q87 -99 87 -244q0 -171 -102 -273q-100 -102 -256 -102q-161 0 -252 104q-88 97 -88 243q0 170 102 274q101 101 256 101zM395 64q65 0 98 80q29 70 29 191q0 141 -38 222t-113 81q-65 0 -98 -79q-29 -71 -29 -192q0 -141 38 -222t113 -81z" />
    <glyph glyph-name="P" unicode="P" horiz-adv-x="687" 
d="M387 268h-77v-131q0 -38 24 -51.5t90 -16.5v-69h-393v69q50 2 64.5 15t14.5 53v428q0 40 -14.5 53t-64.5 15v69h356q138 0 209.5 -60.5t71.5 -155.5q0 -105 -70 -161.5t-211 -56.5zM331 630h-21v-296h28q64 0 99 39t35 113q0 66 -38.5 105t-102.5 39z" />
    <glyph glyph-name="Q" unicode="Q" horiz-adv-x="766" 
d="M392 712q160 0 253 -103q87 -99 87 -244q0 -140 -70.5 -236t-186.5 -127l65 -50q41 -33 70 -47t66 -14v-35q-44 -34 -118 -34q-119 0 -202 111l-47 62q-128 19 -204 119q-71 93 -71 223q0 170 102 274q101 101 256 101zM395 64q65 0 98 80q29 70 29 191q0 141 -38 222
t-113 81q-65 0 -98 -79q-29 -71 -29 -192q0 -141 38 -222t113 -81z" />
    <glyph glyph-name="R" unicode="R" horiz-adv-x="762" 
d="M31 630v72h370q137 0 206.5 -54t69.5 -151q0 -63 -39 -109.5t-101 -64.5l114 -182q27 -42 48.5 -56.5t58.5 -15.5v-69h-229q-43 37 -83 110l-97 179h-42v-152q0 -40 14 -53t62 -15v-69h-352v69q50 2 64.5 15t14.5 53v428q0 40 -14.5 52.5t-64.5 12.5zM329 630h-22v-273
h20q79 0 116 34.5t37 106.5q0 65 -39.5 98.5t-111.5 33.5z" />
    <glyph glyph-name="S" unicode="S" horiz-adv-x="614" 
d="M295 -10q-73 0 -138 19t-104 48l-11 167h101q21 -86 60.5 -125.5t107.5 -39.5q48 0 77 22.5t29 65.5q0 36 -29 59q-28 21 -111 44q-120 32 -174 84.5t-54 147.5q0 106 72 168t187 62q143 0 225 -60v-153h-86q-25 72 -57 108.5t-95 36.5q-47 0 -72.5 -23t-25.5 -59
q0 -44 30.5 -66t110.5 -41q118 -30 176 -83.5t58 -154.5q0 -114 -80 -172q-74 -55 -197 -55z" />
    <glyph glyph-name="T" unicode="T" horiz-adv-x="714" 
d="M15 465l15 237h654l15 -237h-79q-42 104 -63 131q-30 39 -82 39h-20v-498q0 -39 17 -52.5t67 -15.5v-69h-366v69q51 2 68.5 15.5t17.5 52.5v498h-21q-28 0 -47 -7.5t-37.5 -36t-26 -45t-30.5 -72.5q-3 -6 -4 -9h-78z" />
    <glyph glyph-name="U" unicode="U" horiz-adv-x="775" 
d="M298 565v-297q0 -84 29.5 -128t101.5 -44q73 0 113 40.5t40 140.5v288q0 39 -19 52.5t-69 15.5v69h261v-69q-49 -2 -64 -15t-15 -53v-318q0 -127 -80 -194q-75 -63 -196 -63q-146 0 -224 65.5t-78 192.5v317q0 40 -14.5 53t-63.5 15v69h354v-69q-48 -2 -62 -15t-14 -53z
" />
    <glyph glyph-name="V" unicode="V" horiz-adv-x="735" 
d="M303 549l135 -290l116 290q10 30 10 40q0 23 -13.5 32.5t-56.5 11.5v69h234v-69q-24 -4 -37 -11t-21 -26l-256 -600h-58l-292 600q-9 19 -21 26t-36 11v69h357v-69q-43 -2 -57 -11.5t-14 -32.5q0 -14 10 -40z" />
    <glyph glyph-name="W" unicode="W" horiz-adv-x="1031" 
d="M675 527l81 -249l93 253q15 48 15 58q0 23 -13.5 32.5t-55.5 11.5v69h229v-69q-17 -3 -25.5 -5.5t-18.5 -10.5t-15 -21l-225 -600h-75l-138 385l-145 -385h-73l-245 600q-13 29 -57 37v69h338v-69q-32 -3 -45.5 -13t-13.5 -31q0 -17 13 -50l104 -268l84 221l-35 104
q-12 30 -50 37v69h328v-69q-43 -2 -56 -11.5t-13 -32.5q0 -7 3 -21q1 -12 11 -41z" />
    <glyph glyph-name="X" unicode="X" horiz-adv-x="754" 
d="M639 599l-169 -201l215 -295q22 -28 62 -34v-69h-341v69q26 0 36.5 7.5t10.5 25.5q0 14 -22 43l-98 133l-110 -133q-20 -24 -20 -43q0 -18 12 -25.5t43 -7.5v-69h-251v69q53 0 79 34l195 242l-186 254q-25 33 -56 34v69h348v-69q-55 0 -55 -32q0 -15 23 -44l68 -91l74 91
q21 26 21 44q0 32 -52 32v69h248v-69q-45 0 -75 -34z" />
    <glyph glyph-name="Y" unicode="Y" horiz-adv-x="711" 
d="M311 533l102 -190l104 190q24 43 24 61q0 38 -67 39v69h230v-69q-43 -8 -58 -37l-189 -340v-119q0 -39 17 -52.5t68 -15.5v-69h-366v69q50 2 67.5 15.5t17.5 52.5v120l-197 339q-11 18 -23 25.5t-34 11.5v69h346v-69q-38 -1 -51.5 -9.5t-13.5 -29.5q0 -17 23 -61z" />
    <glyph glyph-name="Z" unicode="Z" horiz-adv-x="649" 
d="M613 653l-356 -581h128q54 0 83 28q31 31 86 134h76l-35 -234h-573v48l359 581h-121q-20 0 -35.5 -5.5t-25 -10.5t-21 -22.5t-16 -24.5t-17.5 -35.5t-18 -38.5h-71v210h557v-49z" />
    <glyph glyph-name="bracketleft" unicode="[" horiz-adv-x="357" 
d="M209 658v-687q0 -36 22.5 -46t90.5 -14v-52h-237v911h237v-52q-68 -4 -90.5 -14t-22.5 -46z" />
    <glyph glyph-name="backslash" unicode="\" horiz-adv-x="442" 
d="M417 -121h-107l-272 891h107z" />
    <glyph glyph-name="bracketright" unicode="]" horiz-adv-x="357" 
d="M148 -29v687q0 36 -22.5 46t-90.5 14v52h237v-911h-237v52q68 4 90.5 14t22.5 46z" />
    <glyph glyph-name="asciicircum" unicode="^" horiz-adv-x="490" 
d="M40 480l145 290h120l145 -290h-117l-88 188l-88 -188h-117z" />
    <glyph glyph-name="underscore" unicode="_" horiz-adv-x="440" 
d="M420 -66v-103h-400v103h400z" />
    <glyph glyph-name="grave" unicode="`" horiz-adv-x="500" 
d="M277 606l-155 160h184l67 -160h-96z" />
    <glyph glyph-name="a" unicode="a" horiz-adv-x="591" 
d="M510 342v-31v-66q-1 -24 -1 -66v-32q0 -52 30 -52q23 0 42 6l9 -51q-26 -25 -66 -42.5t-80 -17.5q-84 0 -117 91q-63 -87 -158 -87q-64 0 -102.5 38t-38.5 103q0 60 35.5 91.5t99.5 53.5l161 56v62q0 56 -13 78.5t-43 22.5q-51 0 -51 -62q0 -38 9 -69l-120 -18
q-43 13 -43 70q0 69 60.5 104.5t161.5 35.5q114 0 169.5 -47.5t55.5 -170.5zM279 102q26 0 45 13v165l-59 -24q-49 -18 -49 -75q0 -36 16.5 -57.5t46.5 -21.5z" />
    <glyph glyph-name="b" unicode="b" horiz-adv-x="663" 
d="M70 58v568l-55 59v37l210 39h34v-298q49 97 159 97q97 0 154.5 -67.5t57.5 -188.5q0 -143 -87 -230q-84 -84 -215 -84q-169 0 -258 68zM329 59q52 0 80.5 52.5t28.5 138.5q0 91 -33.5 142.5t-88.5 51.5q-32 0 -57 -13v-274q0 -98 70 -98z" />
    <glyph glyph-name="c" unicode="c" horiz-adv-x="542" 
d="M203 332q0 -92 38 -146.5t109 -54.5q84 0 137 72l34 -23q-50 -190 -238 -190q-110 0 -180.5 72.5t-70.5 191.5q0 133 79 219.5t207 86.5q82 0 139 -38.5t57 -107.5q0 -63 -43 -78h-97v52q0 101 -68 101q-42 0 -72.5 -41.5t-30.5 -115.5z" />
    <glyph glyph-name="d" unicode="d" horiz-adv-x="676" 
d="M442 -10h-38v98q-53 -98 -166 -98q-92 0 -148.5 68t-56.5 188q0 143 79 225t203 82q62 0 89 -24v97l-55 59v37l211 39h32v-616q0 -53 38 -54h24v-69zM334 487q-52 0 -80.5 -51.5t-28.5 -135.5q0 -91 33 -143t90 -52q27 0 56 12v271q0 51 -16 75t-54 24z" />
    <glyph glyph-name="e" unicode="e" horiz-adv-x="561" 
d="M306 560q104 0 162 -65.5t58 -163.5v-39h-327q0 -72 42.5 -115.5t109.5 -43.5q93 0 144 68l33 -22q-19 -87 -80.5 -138t-155.5 -51q-113 0 -186.5 73t-73.5 194q0 133 81 221q77 82 193 82zM289 491q-75 0 -88 -139h164q-2 139 -76 139z" />
    <glyph glyph-name="f" unicode="f" horiz-adv-x="417" 
d="M400 475h-114v-353q0 -30 15.5 -39t63.5 -16v-67h-327v67q36 4 48 14.5t12 42.5v351h-76v62l76 18v6q0 110 72 164q60 45 165 45q158 0 158 -96q0 -40 -35 -64h-90v38q0 31 -7.5 47t-29.5 16q-47 0 -47 -71v-90h116v-75z" />
    <glyph glyph-name="g" unicode="g" horiz-adv-x="597" 
d="M286 197q-63 0 -108 15q-26 -31 -26 -47q0 -21 24 -21h241q87 0 131.5 -40t44.5 -109q0 -95 -84 -148.5t-226 -53.5q-124 0 -193 29.5t-69 87.5q0 34 27 55t62 27q-73 28 -73 104q0 39 26 69t81 60q-96 44 -96 144q0 88 69 139.5t178 51.5q51 0 101 -13l185 7v-92h-44
l-78 17v-6q70 -31 70 -102q0 -81 -68 -127.5t-175 -46.5zM293 254q54 0 54 108q0 63 -17 101.5t-50 38.5q-54 0 -54 -108q0 -60 17.5 -100t49.5 -40zM397 -33h-258q-7 -7 -7 -30q0 -83 154 -83q163 0 163 75q0 38 -52 38z" />
    <glyph glyph-name="h" unicode="h" horiz-adv-x="697" 
d="M239 761h32v-306q92 105 193 105q74 0 113.5 -41t39.5 -123v-272q0 -32 12 -42.5t48 -14.5v-67h-304v67q35 4 45.5 14t10.5 43v254q0 32 -14 47.5t-48 15.5q-45 0 -96 -17v-300q0 -33 10.5 -43t45.5 -14v-67h-305v67q36 4 48.5 14.5t12.5 42.5v502l-56 59v37z" />
    <glyph glyph-name="i" unicode="i" horiz-adv-x="366" 
d="M185 593q-47 0 -75 27.5t-28 67.5t28 67.5t75 27.5q46 0 74 -27.5t28 -67.5t-28 -67.5t-74 -27.5zM248 561h33v-437q0 -32 12.5 -42.5t48.5 -14.5v-67h-310v67q36 4 48.5 14.5t12.5 42.5v295l-56 60v31z" />
    <glyph glyph-name="j" unicode="j" horiz-adv-x="323" 
d="M166 593q-47 0 -75 27.5t-28 67.5t28 67.5t75 27.5q46 0 74 -27.5t28 -67.5t-28 -67.5t-74 -27.5zM229 561h33v-429q0 -80 -18 -129t-54 -90q-72 -81 -155 -122l-36 34l41 69q22 36 27.5 79.5t5.5 115.5v330l-55 60v31z" />
    <glyph glyph-name="k" unicode="k" horiz-adv-x="663" 
d="M239 761h32v-637q0 -32 12.5 -42.5t48.5 -14.5v-67h-310v67q36 4 48.5 14.5t12.5 42.5v502l-56 59v37zM461 0l-183 292l127 122l19 20q8 10 8 18q0 16 -14 22q-13 5 -49 10v66h264v-66q-68 -16 -93 -41l-89 -88l202 -303v-52h-192z" />
    <glyph glyph-name="l" unicode="l" horiz-adv-x="355" 
d="M237 761h33v-637q0 -32 12 -42.5t48 -14.5v-67h-308v67q36 4 48 14.5t12 42.5v502l-55 59v37z" />
    <glyph glyph-name="m" unicode="m" horiz-adv-x="1035" 
d="M1015 67v-67h-300v67q34 4 43 13.5t9 43.5v254q0 34 -14.5 48.5t-50.5 14.5q-29 0 -84 -17v-300q0 -33 9.5 -43t43.5 -14v-67h-294v67q34 4 43.5 14t9.5 43v254q0 34 -14.5 48.5t-50.5 14.5q-29 0 -84 -17v-300q0 -33 9.5 -43t43.5 -14v-67h-302v67q36 4 48.5 14.5
t12.5 42.5v291l-56 59v36l211 55h33v-110q27 31 47.5 50t58 37t78.5 18q52 0 92 -28t54 -82q100 110 199 110q145 0 145 -162v-274q0 -32 12 -42.5t48 -14.5z" />
    <glyph glyph-name="n" unicode="n" horiz-adv-x="706" 
d="M438 124v254q0 32 -13.5 47.5t-47.5 15.5q-45 0 -96 -17v-300q0 -33 10.5 -43t45.5 -14v-67h-305v67q36 4 48.5 14.5t12.5 42.5v291l-56 59v36l211 55h33v-110q92 105 193 105q152 0 152 -164v-272q0 -32 12 -42.5t48 -14.5v-67h-303v67q35 4 45 14t10 43z" />
    <glyph glyph-name="o" unicode="o" horiz-adv-x="637" 
d="M310 -10q-123 0 -200.5 79t-77.5 197q0 132 83 213t211 81q124 0 201.5 -78.5t77.5 -196.5q0 -133 -83.5 -214t-211.5 -81zM328 61q39 0 61 51t22 133q0 107 -27 176t-75 69q-40 0 -62 -51t-22 -134q0 -107 27.5 -175.5t75.5 -68.5z" />
    <glyph glyph-name="p" unicode="p" horiz-adv-x="679" 
d="M275 12v-85q0 -32 12 -42.5t48 -14.5v-67h-309v67q36 4 48.5 14.5t12.5 42.5v488l-56 59v36l211 55h33v-102q53 97 160 97q95 0 153 -68t58 -188q0 -144 -80 -229t-205 -85q-57 0 -86 22zM346 59q51 0 80 53t29 138q0 91 -33.5 142.5t-88.5 51.5q-33 0 -58 -13v-268
q0 -104 71 -104z" />
    <glyph glyph-name="q" unicode="q" horiz-adv-x="658" 
d="M315 560q106 0 167 -64l47 63h69l-6 -123v-509q0 -32 12.5 -42.5t48.5 -14.5v-67h-309v67q36 4 48 14.5t12 42.5v161q-53 -98 -166 -98q-92 0 -148.5 68t-56.5 188q0 144 79.5 229t202.5 85zM334 494q-52 0 -80.5 -54.5t-28.5 -139.5q0 -91 33 -143t90 -52q27 0 56 12
v278q0 51 -16 75t-54 24z" />
    <glyph glyph-name="r" unicode="r" horiz-adv-x="486" 
d="M247 565h34v-175q29 97 63.5 133.5t88.5 36.5q24 0 45 -12v-158h-24q-122 0 -173 -36v-232q0 -31 15.5 -39.5t64.5 -15.5v-67h-329v67q36 4 48.5 14.5t12.5 42.5v291l-56 59v36z" />
    <glyph glyph-name="s" unicode="s" horiz-adv-x="516" 
d="M254 -10q-122 0 -207 58l-6 121h86q25 -113 133 -113q38 0 61.5 15t23.5 42q0 29 -23 44q-25 14 -90 29q-98 22 -144.5 65.5t-46.5 119.5q0 90 59 139.5t159 49.5q110 0 181 -47v-110h-83q-24 91 -106 91q-33 0 -51.5 -16t-18.5 -41t20 -40q18 -15 89 -29
q191 -37 191 -183q0 -93 -60 -144t-167 -51z" />
    <glyph glyph-name="t" unicode="t" horiz-adv-x="422" 
d="M205 677h59v-127h133v-75h-133v-308q0 -69 62 -69q36 0 74 19l20 -51q-76 -76 -185 -76q-161 0 -161 159v326h-66v55q49 15 102.5 56t94.5 91z" />
    <glyph glyph-name="u" unicode="u" horiz-adv-x="687" 
d="M451 -10h-38v98q-78 -98 -188 -98q-69 0 -109 43t-40 127v231q0 51 -38 59l-15 5v57l207 48h35v-382q0 -76 61 -76q39 0 87 16v273q0 51 -38 59l-14 5v57l205 48h36v-415q0 -53 37 -54h24v-69z" />
    <glyph glyph-name="v" unicode="v" horiz-adv-x="621" 
d="M398 550h218v-66q-27 -10 -38.5 -17.5t-17.5 -22.5l-215 -448h-57l-227 448q-8 16 -19 23.5t-37 16.5v66h336v-66q-38 -4 -53 -11q-14 -8 -14 -25q0 -13 9 -32l85 -196l89 196q8 26 8 32q0 17 -14 25q-15 7 -53 11v66z" />
    <glyph glyph-name="w" unicode="w" horiz-adv-x="900" 
d="M610 415l64 -173l69 173q7 18 7 33q0 17 -11 24.5t-35 11.5v66h191v-66q-27 -10 -38.5 -17.5t-17.5 -22.5l-186 -448h-61l-130 315l-140 -315h-60l-201 448q-7 15 -18 23t-38 17v66h307v-66q-38 -7 -38 -33q0 -7 10 -37l70 -178l70 162l-18 46q-13 34 -44 40v66h286v-66
q-26 -4 -36 -11t-10 -23q0 -13 8 -35z" />
    <glyph glyph-name="x" unicode="x" horiz-adv-x="623" 
d="M72 107l138 171l-134 166q-23 29 -50 40v66h319v-66q-17 -2 -25.5 -4.5t-15 -8t-6.5 -15.5q0 -15 18 -36l50 -63l52 63q17 18 17 35q0 14 -9.5 19.5t-33.5 9.5v66h203v-66q-50 -26 -64 -43l-118 -144l146 -190q27 -36 59 -40v-67h-330v67q29 3 41.5 10t12.5 22
q0 12 -16 32l-71 89l-67 -88q-14 -16 -14 -33q0 -15 12 -21.5t40 -10.5v-67h-221v67q37 6 67 40z" />
    <glyph glyph-name="y" unicode="y" horiz-adv-x="622" 
d="M270 -12l5 10l-214 446q-7 15 -18 23t-38 17v66h336v-66q-38 -4 -53 -11t-15 -25q0 -4 2 -14q1 -8 9 -25l84 -204l86 205q8 16 9 24q2 10 2 14q0 18 -13 25q-15 7 -53 11v66h218v-66q-27 -9 -38 -17t-18 -23l-231 -517q-31 -70 -68.5 -102.5t-88.5 -32.5q-61 0 -86 39v95
h60q56 0 80 10.5t43 51.5z" />
    <glyph glyph-name="z" unicode="z" horiz-adv-x="575" 
d="M519 0h-493v47l280 435h-84q-41 0 -61 -30q-20 -32 -51 -109h-69v207h488v-50l-272 -431h77q47 0 71.5 26.5t66.5 112.5h70z" />
    <glyph glyph-name="braceleft" unicode="{" horiz-adv-x="393" 
d="M50 297v36q83 16 83 100v209q0 128 225 128v-41q-40 -4 -67.5 -28t-27.5 -70v-204q0 -50 -20 -73.5t-71 -38.5q51 -15 71 -38.5t20 -73.5v-204q0 -46 27.5 -70t67.5 -28v-42q-225 0 -225 128v210q0 84 -83 100z" />
    <glyph glyph-name="bar" unicode="|" horiz-adv-x="302" 
d="M100 770h102v-911h-102v911z" />
    <glyph glyph-name="braceright" unicode="}" horiz-adv-x="393" 
d="M343 333v-36q-83 -16 -83 -100v-210q0 -128 -225 -128v42q40 4 67.5 28t27.5 70v204q0 50 20 73.5t71 38.5q-51 15 -71 38.5t-20 73.5v204q0 46 -27.5 70t-67.5 28v41q225 0 225 -128v-209q0 -84 83 -100z" />
    <glyph glyph-name="asciitilde" unicode="~" horiz-adv-x="582" 
d="M470 447l62 -19q-49 -184 -172 -184q-29 0 -83 32q-58 31 -76 31q-50 0 -89 -62l-62 19q49 184 172 184q26 0 84 -31q54 -32 75 -32q50 0 89 62z" />
    <glyph glyph-name="uni00A0" unicode="&#xa0;" horiz-adv-x="190" 
 />
    <glyph glyph-name="exclamdown" unicode="&#xa1;" horiz-adv-x="336" 
d="M66 449q0 42 30 72.5t71 30.5q42 0 72 -30.5t30 -72.5q0 -44 -29.5 -75t-72.5 -31q-41 0 -71 31t-30 75zM124 302h88l59 -461h-206z" />
    <glyph glyph-name="cent" unicode="&#xa2;" horiz-adv-x="603" 
d="M274 -117h-58l21 116q-90 21 -144 89.5t-54 173.5q0 137 88 223q85 83 213 85l20 107h58l-20 -110q73 -10 116 -44t43 -94q0 -51 -49 -70h-77v44q0 77 -46 96l-66 -365q27 -8 54 -8q86 0 150 80l45 -23q-27 -95 -92 -144t-163 -49h-10q-7 0 -10 1zM267 163l62 344
q-54 -1 -88.5 -47.5t-34.5 -132.5q0 -112 61 -164z" />
    <glyph glyph-name="sterling" unicode="&#xa3;" horiz-adv-x="722" 
d="M205 334h-100v58h102l2 40q4 135 67 207.5t180 72.5q90 0 145.5 -31.5t55.5 -99.5q0 -28 -13.5 -48.5t-32.5 -27.5h-107v63q0 84 -48 84q-44 0 -51 -77l-16 -183h160v-58h-165l-3 -38q-7 -81 -25 -123q139 -37 199 -37q44 0 57.5 18t13.5 68l45 11q19 -36 19 -89
q0 -74 -42.5 -114t-123.5 -40q-112 0 -215 85q-27 -41 -75 -63t-105 -22q-54 0 -88 31.5t-34 82.5q0 53 34 84.5t86 31.5q39 0 74 -13zM130 47q31 0 48 24t18 67q-35 20 -69 20q-26 0 -39.5 -15t-13.5 -39q0 -27 15.5 -42t40.5 -15z" />
    <glyph glyph-name="currency" unicode="&#xa4;" horiz-adv-x="582" 
d="M101 115l-44 44l72 74q-35 52 -35 116q0 67 36 117l-73 73l45 44l73 -73q50 36 116 36t116 -36l73 72l44 -44l-72 -73q36 -53 36 -116q0 -62 -36 -117l73 -72l-45 -44l-73 72q-50 -36 -116 -36q-65 0 -117 36zM180 349q0 -50 32 -83.5t79 -33.5t79 33.5t32 83.5t-32 83.5
t-79 33.5t-79 -33.5t-32 -83.5z" />
    <glyph glyph-name="yen" unicode="&#xa5;" horiz-adv-x="711" 
d="M217 332h-115v58h82l-120 206q-11 18 -23 25.5t-34 11.5v69h346v-69q-38 -1 -51.5 -9.5t-13.5 -29.5q0 -17 23 -61l102 -191l104 191q24 43 24 61q0 38 -67 39v69h230v-69q-43 -8 -58 -37l-115 -206h92v-58h-124l-38 -68h162v-57h-166v-70q0 -39 17 -52.5t68 -15.5v-69
h-366v69q50 2 67.5 15.5t17.5 52.5v70h-159v57h155z" />
    <glyph glyph-name="brokenbar" unicode="&#xa6;" horiz-adv-x="302" 
d="M100 770h102v-376h-102v376zM100 235h102v-376h-102v376z" />
    <glyph glyph-name="section" unicode="&#xa7;" horiz-adv-x="531" 
d="M230 -203q-72 0 -118 31.5t-46 82.5q0 45 45 61h94v-36q0 -90 65 -90q29 0 43.5 19.5t14.5 46.5q0 43 -53 115q-23 31 -51 66t-54 72q-59 84 -91 156t-32 152q0 107 73 173t181 66q72 0 118 -31.5t46 -82.5q0 -45 -45 -61h-94v36q0 90 -65 90q-29 0 -43.5 -19.5
t-14.5 -46.5q0 -42 53 -114q28 -39 51 -67q29 -34 54 -72q60 -85 92 -156.5t32 -151.5q0 -107 -73.5 -173t-181.5 -66zM392 -92q29 45 29 128q0 110 -125 277q-62 80 -105 149q-52 84 -52 139q-29 -45 -29 -128q0 -110 125 -277q65 -84 105 -148q52 -84 52 -140z" />
    <glyph glyph-name="dieresis" unicode="&#xa8;" horiz-adv-x="500" 
d="M50 691q0 36 26 62t63 26t63.5 -26t26.5 -62t-26.5 -62t-63.5 -26t-63 26t-26 62zM270 691q0 36 26.5 62t61.5 26q38 0 64.5 -26t26.5 -62t-26.5 -62t-64.5 -26q-35 0 -61.5 26t-26.5 62z" />
    <glyph glyph-name="copyright" unicode="&#xa9;" horiz-adv-x="796" 
d="M40 351q0 152 101 255q103 106 257 106t258 -106q100 -103 100 -255t-100 -255q-104 -106 -258 -106t-257 106q-101 103 -101 255zM82 351q0 -135 89 -227q90 -95 227 -95q136 0 228 95q88 93 88 227q0 135 -88 228q-91 94 -228 94q-138 0 -227 -94q-89 -92 -89 -228z
M426 192q23 0 39.5 15.5t23.5 33t18 52.5h67l-9 -113q-59 -39 -148 -39q-100 0 -157.5 56.5t-57.5 146.5q0 99 62 159.5t154 60.5t141 -43v-96h-66q-23 91 -76 91q-25 0 -41.5 -12.5t-24.5 -36.5t-11 -50.5t-3 -63.5q0 -70 23 -115.5t66 -45.5z" />
    <glyph glyph-name="ordfeminine" unicode="&#xaa;" horiz-adv-x="478" 
d="M386 568v-37q-1 -15 -1 -43v-37q-1 -11 -1 -23q0 -38 24 -38q16 0 28 4l7 -36q-45 -43 -97 -43q-62 0 -91 63q-19 -27 -51.5 -43.5t-67.5 -16.5q-45 0 -73 27t-28 72q0 44 25 66.5t71 37.5l122 39v45q0 71 -40 71q-18 0 -28 -12t-10 -31q0 -26 7 -50l-94 -14
q-32 12 -32 52q0 49 45.5 75t120.5 26q84 0 124 -35t40 -119zM210 396q23 0 43 14v111l-40 -16q-46 -19 -46 -59q0 -24 12.5 -37t30.5 -13z" />
    <glyph glyph-name="guillemotleft" unicode="&#xab;" horiz-adv-x="564" 
d="M216 71l-181 200v10l181 200h87l-113 -205l113 -205h-87zM441 71l-181 200v10l181 200h87l-113 -205l113 -205h-87z" />
    <glyph glyph-name="registered" unicode="&#xae;" horiz-adv-x="555" 
d="M50 484q0 95 64.5 161.5t162.5 66.5t163 -66.5t65 -161.5q0 -94 -65 -160.5t-163 -66.5t-162.5 66.5t-64.5 160.5zM87 484q0 -79 55 -136t135 -57q82 0 136.5 57t54.5 136q0 80 -54.5 137t-136.5 57q-81 0 -135.5 -57.5t-54.5 -136.5zM164 585v23h115q51 0 75.5 -20
t24.5 -51q0 -50 -52 -67l45 -56q14 -20 29 -21v-23h-64q-12 6 -30 31l-42 64h-9v-47q0 -15 4.5 -20t19.5 -5v-23h-116v23q17 0 21.5 5t4.5 20v142q0 15 -4.5 19t-21.5 6zM262 580h-6v-89h6q45 0 45 45q0 44 -45 44z" />
    <glyph glyph-name="macron" unicode="&#xaf;" horiz-adv-x="500" 
d="M404 626h-308v101h308v-101z" />
    <glyph glyph-name="degree" unicode="&#xb0;" horiz-adv-x="376" 
d="M25 551q0 69 47 115t116 46t116 -46t47 -115t-47 -115t-116 -46t-116 46t-47 115zM99 551q0 -42 24 -68.5t65 -26.5t65 26.5t24 68.5t-24 68.5t-65 26.5t-65 -26.5t-24 -68.5z" />
    <glyph glyph-name="plusminus" unicode="&#xb1;" horiz-adv-x="604" 
d="M255 486v135h93v-135h178v-92h-178v-136h-93v136h-177v92h177zM526 115h-448v93h448v-93z" />
    <glyph glyph-name="uni00B2" unicode="&#xb2;" horiz-adv-x="451" 
d="M173 395h110q29 0 41 8t36 42h41l-13 -158h-363v47l126 110q47 40 68 70.5t21 67.5q0 31 -18 48.5t-51 17.5q-51 0 -96 -53l-34 35q26 50 78 84t120 34q64 0 104 -35t40 -96q0 -67 -66 -126q-43 -40 -144 -96z" />
    <glyph glyph-name="uni00B3" unicode="&#xb3;" horiz-adv-x="441" 
d="M261 537q60 -1 97.5 -32.5t37.5 -83.5q0 -69 -55.5 -106t-141.5 -37q-80 0 -122 27t-42 68q0 38 32 53h87v-25q0 -36 13.5 -57t37.5 -21q50 0 50 71q0 92 -81 92h-18l-10 30q47 18 65.5 36.5t18.5 43.5q0 21 -14.5 34.5t-40.5 13.5q-51 0 -84 -45l-36 25q23 52 71.5 86
t114.5 34q60 0 96 -28.5t36 -78.5q0 -41 -31 -67t-81 -33z" />
    <glyph glyph-name="acute" unicode="&#xb4;" horiz-adv-x="500" 
d="M126 606l68 160h184l-155 -160h-97z" />
    <glyph glyph-name="paragraph" unicode="&#xb6;" horiz-adv-x="669" 
d="M397 -197h-74v391q-129 0 -205 76q-73 71 -73 178t73 178q76 76 205 76h316v-69q-61 0 -81.5 -14t-20.5 -59v-757h-74v840h-66v-840zM323 249v398q-50 -6 -76.5 -63t-26.5 -136t26.5 -136t76.5 -63z" />
    <glyph glyph-name="periodcentered" unicode="&#xb7;" horiz-adv-x="315" 
d="M50 305q0 47 31 77.5t76 30.5q46 0 77 -30.5t31 -77.5t-31 -77t-77 -30q-45 0 -76 30t-31 77z" />
    <glyph glyph-name="cedilla" unicode="&#xb8;" horiz-adv-x="500" 
d="M148 -233l-11 49q55 0 85 10q30 9 30 29q0 34 -85 36l48 117h50l-19 -52q97 -8 97 -78q0 -52 -57.5 -81.5t-137.5 -29.5z" />
    <glyph glyph-name="uni00B9" unicode="&#xb9;" horiz-adv-x="391" 
d="M228 748h50v-363q0 -28 12.5 -35.5t60.5 -10.5v-52h-296v52q55 3 65 10t10 36v218h-75v48l28 6q56 12 85.5 32t59.5 59z" />
    <glyph glyph-name="ordmasculine" unicode="&#xba;" horiz-adv-x="477" 
d="M233 315q-92 0 -147.5 54.5t-55.5 141.5q0 95 59 152.5t156 57.5q92 0 147 -54t55 -142q0 -95 -59 -152.5t-155 -57.5zM245 365q29 0 44 37t15 99q0 81 -19 125q-19 45 -52 45q-29 0 -44.5 -37t-15.5 -99q0 -78 20 -124q19 -46 52 -46z" />
    <glyph glyph-name="guillemotright" unicode="&#xbb;" horiz-adv-x="564" 
d="M124 481l179 -200v-10l-179 -200h-89l114 205l-114 205h89zM350 481l179 -200v-10l-179 -200h-89l114 205l-114 205h89z" />
    <glyph glyph-name="onequarter" unicode="&#xbc;" horiz-adv-x="963" 
d="M225 748h50v-363q0 -28 12.5 -35.5t60.5 -10.5v-52h-296v52q55 3 65 10t10 36v218h-75v48l28 6q56 12 85.5 32t59.5 59zM303 0h-76l449 741h77zM825 47v-118h-147v118h-212v48l226 294h133v-285h88v-57h-88zM678 285l-139 -181h139v181z" />
    <glyph glyph-name="onehalf" unicode="&#xbd;" horiz-adv-x="955" 
d="M228 748h50v-363q0 -28 12.5 -35.5t60.5 -10.5v-52h-296v52q55 3 65 10t10 36v218h-75v48l28 6q56 12 85.5 32t59.5 59zM306 0h-76l449 741h77zM677 37h110q29 0 41 8t36 42h41l-13 -158h-363v47l126 110q47 40 68 70.5t21 67.5q0 31 -18 48.5t-51 17.5q-51 0 -96 -53
l-34 35q26 50 78 84t120 34q64 0 104 -35t40 -96q0 -67 -66 -126q-43 -40 -144 -96z" />
    <glyph glyph-name="threequarters" unicode="&#xbe;" horiz-adv-x="983" 
d="M261 537q60 -1 97.5 -32.5t37.5 -83.5q0 -69 -55.5 -106t-141.5 -37q-80 0 -122 27t-42 68q0 38 32 53h87v-25q0 -36 13.5 -57t37.5 -21q50 0 50 71q0 92 -81 92h-18l-10 30q47 18 65.5 36.5t18.5 43.5q0 21 -14.5 34.5t-40.5 13.5q-51 0 -84 -45l-36 25q23 52 71.5 86
t114.5 34q60 0 96 -28.5t36 -78.5q0 -41 -31 -67t-81 -33zM323 0h-76l449 741h77zM845 47v-118h-147v118h-212v48l226 294h133v-285h88v-57h-88zM698 285l-139 -181h139v181z" />
    <glyph glyph-name="questiondown" unicode="&#xbf;" horiz-adv-x="480" 
d="M354 448q0 -44 -29.5 -75t-71.5 -31q-43 0 -72.5 31t-29.5 75q0 42 30 72.5t72 30.5t71.5 -30.5t29.5 -72.5zM186 -37q0 -63 61 -63q35 0 51.5 22.5t16.5 59.5v53h110q39 -18 39 -66q0 -61 -59 -99.5t-159 -38.5q-106 0 -163 42t-57 125q0 58 29 98.5t88 74.5
q48 26 64.5 50.5t16.5 55.5v26h54q62 -36 62 -103q0 -71 -61 -117q-59 -45 -74 -66q-19 -25 -19 -54z" />
    <glyph glyph-name="Agrave" unicode="&#xc0;" horiz-adv-x="758" 
d="M317 751l-156 158h185l72 -158h-101zM463 153l-24 60h-244l-23 -60q-9 -27 -9 -40q0 -24 13 -33t57 -11v-69h-226v69q24 4 36.5 11.5t20.5 25.5l205 517l-35 80h205l254 -597q8 -18 21 -25.5t37 -11.5v-69h-347v69q42 2 56 11t14 33q0 16 -11 40zM411 282l-96 240
l-93 -240h189z" />
    <glyph glyph-name="Aacute" unicode="&#xc1;" horiz-adv-x="758" 
d="M297 751l72 158h185l-156 -158h-101zM463 153l-24 60h-244l-23 -60q-9 -27 -9 -40q0 -24 13 -33t57 -11v-69h-226v69q24 4 36.5 11.5t20.5 25.5l205 517l-35 80h205l254 -597q8 -18 21 -25.5t37 -11.5v-69h-347v69q42 2 56 11t14 33q0 16 -11 40zM411 282l-96 240
l-93 -240h189z" />
    <glyph glyph-name="Acircumflex" unicode="&#xc2;" horiz-adv-x="758" 
d="M285 918h136l138 -169h-95l-111 80l-111 -80h-95zM463 153l-24 60h-244l-23 -60q-9 -27 -9 -40q0 -24 13 -33t57 -11v-69h-226v69q24 4 36.5 11.5t20.5 25.5l205 517l-35 80h205l254 -597q8 -18 21 -25.5t37 -11.5v-69h-347v69q42 2 56 11t14 33q0 16 -11 40zM411 282
l-96 240l-93 -240h189z" />
    <glyph glyph-name="Atilde" unicode="&#xc3;" horiz-adv-x="758" 
d="M502 901l60 -12q-40 -94 -69 -121q-28 -28 -72 -28q-29 0 -75 30t-61 30q-14 0 -26.5 -9t-19.5 -18t-19 -28l-60 12q40 93 69 122q29 27 72 27q36 0 78 -30t58 -30q19 0 33.5 14t31.5 41zM463 153l-24 60h-244l-23 -60q-9 -27 -9 -40q0 -24 13 -33t57 -11v-69h-226v69
q24 4 36.5 11.5t20.5 25.5l205 517l-35 80h205l254 -597q8 -18 21 -25.5t37 -11.5v-69h-347v69q42 2 56 11t14 33q0 16 -11 40zM411 282l-96 240l-93 -240h189z" />
    <glyph glyph-name="Adieresis" unicode="&#xc4;" horiz-adv-x="758" 
d="M154 831q0 36 26 62t63 26t63.5 -26t26.5 -62t-26.5 -62t-63.5 -26t-63 26t-26 62zM374 831q0 36 26.5 62t61.5 26q38 0 64.5 -26t26.5 -62t-26.5 -62t-64.5 -26q-35 0 -61.5 26t-26.5 62zM463 153l-24 60h-244l-23 -60q-9 -27 -9 -40q0 -24 13 -33t57 -11v-69h-226v69
q24 4 36.5 11.5t20.5 25.5l205 517l-35 80h205l254 -597q8 -18 21 -25.5t37 -11.5v-69h-347v69q42 2 56 11t14 33q0 16 -11 40zM411 282l-96 240l-93 -240h189z" />
    <glyph glyph-name="Aring" unicode="&#xc5;" horiz-adv-x="758" 
d="M240 840q0 43 32 72t81 29t81 -29t32 -72t-32 -72t-81 -29t-81 29t-32 72zM399 840q0 19 -12.5 31.5t-33.5 12.5t-33.5 -12.5t-12.5 -31.5t12.5 -31.5t33.5 -12.5t33.5 12.5t12.5 31.5zM463 153l-24 60h-244l-23 -60q-9 -27 -9 -40q0 -24 13 -33t57 -11v-69h-226v69
q24 4 36.5 11.5t20.5 25.5l205 517l-35 80h205l254 -597q8 -18 21 -25.5t37 -11.5v-69h-347v69q42 2 56 11t14 33q0 16 -11 40zM411 282l-96 240l-93 -240h189z" />
    <glyph glyph-name="AE" unicode="&#xc6;" horiz-adv-x="1057" 
d="M64 106l331 487q-8 21 -26.5 29.5t-60.5 10.5v69h688v-192h-78q-26 67 -53 94.5t-83 27.5h-97v-234h74q33 0 49 17t23 61h66v-229h-66q-7 44 -23 61t-49 17h-74v-188q0 -38 19 -52.5t61 -14.5h25q49 0 82 29t84 109h76l-31 -208h-593v69q50 2 64.5 15t14.5 53v106h-233
l-48 -71q-24 -35 -24 -60q0 -24 14 -32.5t58 -10.5v-69h-247v69q20 4 32 11.5t25 25.5zM487 312v274l-186 -274h186z" />
    <glyph glyph-name="Ccedilla" unicode="&#xc7;" horiz-adv-x="706" 
d="M289 -233l-11 49q55 0 85 10q30 9 30 29q0 34 -85 36l41 102q-148 14 -231.5 107.5t-83.5 236.5q0 170 108 275q105 100 261 100q72 0 136 -20t104 -54v-163h-96q-20 81 -53.5 122.5t-92.5 41.5q-82 0 -120 -85q-33 -70 -33 -188q0 -136 43 -217t125 -81q60 0 94 42.5
t62 138.5h97l-16 -193q-97 -66 -254 -66l-12 -34q97 -8 97 -78q0 -52 -57.5 -81.5t-137.5 -29.5z" />
    <glyph glyph-name="Egrave" unicode="&#xc8;" horiz-adv-x="680" 
d="M315 751l-156 158h185l72 -158h-101zM520 476v-229h-66q-7 44 -23 61t-49 17h-74v-188q0 -38 19 -52.5t61 -14.5h25q49 0 82 29t84 109h76l-31 -208h-593v69q50 2 64.5 15t14.5 53v428q0 40 -14.5 53t-64.5 15v69h588v-192h-78q-26 67 -53 94.5t-83 27.5h-97v-234h74
q33 0 49 17t23 61h66z" />
    <glyph glyph-name="Eacute" unicode="&#xc9;" horiz-adv-x="680" 
d="M295 751l72 158h185l-156 -158h-101zM520 476v-229h-66q-7 44 -23 61t-49 17h-74v-188q0 -38 19 -52.5t61 -14.5h25q49 0 82 29t84 109h76l-31 -208h-593v69q50 2 64.5 15t14.5 53v428q0 40 -14.5 53t-64.5 15v69h588v-192h-78q-26 67 -53 94.5t-83 27.5h-97v-234h74
q33 0 49 17t23 61h66z" />
    <glyph glyph-name="Ecircumflex" unicode="&#xca;" horiz-adv-x="680" 
d="M283 918h136l138 -169h-95l-111 80l-111 -80h-95zM520 476v-229h-66q-7 44 -23 61t-49 17h-74v-188q0 -38 19 -52.5t61 -14.5h25q49 0 82 29t84 109h76l-31 -208h-593v69q50 2 64.5 15t14.5 53v428q0 40 -14.5 53t-64.5 15v69h588v-192h-78q-26 67 -53 94.5t-83 27.5h-97
v-234h74q33 0 49 17t23 61h66z" />
    <glyph glyph-name="Edieresis" unicode="&#xcb;" horiz-adv-x="680" 
d="M152 831q0 36 26 62t63 26t63.5 -26t26.5 -62t-26.5 -62t-63.5 -26t-63 26t-26 62zM372 831q0 36 26.5 62t61.5 26q38 0 64.5 -26t26.5 -62t-26.5 -62t-64.5 -26q-35 0 -61.5 26t-26.5 62zM520 476v-229h-66q-7 44 -23 61t-49 17h-74v-188q0 -38 19 -52.5t61 -14.5h25
q49 0 82 29t84 109h76l-31 -208h-593v69q50 2 64.5 15t14.5 53v428q0 40 -14.5 53t-64.5 15v69h588v-192h-78q-26 67 -53 94.5t-83 27.5h-97v-234h74q33 0 49 17t23 61h66z" />
    <glyph glyph-name="Igrave" unicode="&#xcc;" horiz-adv-x="418" 
d="M173 751l-156 158h185l72 -158h-101zM387 69v-69h-356v69q50 2 64.5 15t14.5 53v428q0 40 -14.5 53t-64.5 15v69h356v-69q-50 -2 -64.5 -15t-14.5 -53v-428q0 -40 14.5 -53t64.5 -15z" />
    <glyph glyph-name="Iacute" unicode="&#xcd;" horiz-adv-x="418" 
d="M153 751l72 158h185l-156 -158h-101zM387 69v-69h-356v69q50 2 64.5 15t14.5 53v428q0 40 -14.5 53t-64.5 15v69h356v-69q-50 -2 -64.5 -15t-14.5 -53v-428q0 -40 14.5 -53t64.5 -15z" />
    <glyph glyph-name="Icircumflex" unicode="&#xce;" horiz-adv-x="418" 
d="M141 918h136l138 -169h-95l-111 80l-111 -80h-95zM387 69v-69h-356v69q50 2 64.5 15t14.5 53v428q0 40 -14.5 53t-64.5 15v69h356v-69q-50 -2 -64.5 -15t-14.5 -53v-428q0 -40 14.5 -53t64.5 -15z" />
    <glyph glyph-name="Idieresis" unicode="&#xcf;" horiz-adv-x="418" 
d="M10 831q0 36 26 62t63 26t63.5 -26t26.5 -62t-26.5 -62t-63.5 -26t-63 26t-26 62zM230 831q0 36 26.5 62t61.5 26q38 0 64.5 -26t26.5 -62t-26.5 -62t-64.5 -26q-35 0 -61.5 26t-26.5 62zM387 69v-69h-356v69q50 2 64.5 15t14.5 53v428q0 40 -14.5 53t-64.5 15v69h356
v-69q-50 -2 -64.5 -15t-14.5 -53v-428q0 -40 14.5 -53t64.5 -15z" />
    <glyph glyph-name="Eth" unicode="&#xd0;" horiz-adv-x="810" 
d="M117 327h-79v71h79v167q0 40 -14.5 53t-64.5 15v69h325q196 0 304.5 -89t108.5 -251q0 -169 -101 -265.5t-276 -96.5h-361v69q50 2 64.5 15t14.5 53v190zM336 630h-21v-232h121v-71h-121v-185q0 -42 15 -56t53 -14h9q172 0 172 279q0 130 -59.5 204.5t-168.5 74.5z" />
    <glyph glyph-name="Ntilde" unicode="&#xd1;" horiz-adv-x="778" 
d="M541 901l60 -12q-40 -94 -69 -121q-28 -28 -72 -28q-29 0 -75 30t-61 30q-14 0 -26.5 -9t-19.5 -18t-19 -28l-60 12q40 93 69 122q28 27 72 27q36 0 78 -30t58 -30q19 0 33.5 14t31.5 41zM110 137v447q-21 28 -36 37t-43 12v69h272l289 -380v243q0 39 -19 52.5t-69 15.5
v69h256v-69q-49 -2 -63.5 -15t-14.5 -53v-565h-81l-401 503v-366q0 -39 19 -52.5t69 -15.5v-69h-257v69q50 2 64.5 15t14.5 53z" />
    <glyph glyph-name="Ograve" unicode="&#xd2;" horiz-adv-x="766" 
d="M355 751l-156 158h185l72 -158h-101zM392 712q160 0 253 -103q87 -99 87 -244q0 -171 -102 -273q-100 -102 -256 -102q-161 0 -252 104q-88 97 -88 243q0 170 102 274q101 101 256 101zM395 64q65 0 98 80q29 70 29 191q0 141 -38 222t-113 81q-65 0 -98 -79
q-29 -71 -29 -192q0 -141 38 -222t113 -81z" />
    <glyph glyph-name="Oacute" unicode="&#xd3;" horiz-adv-x="766" 
d="M335 751l72 158h185l-156 -158h-101zM392 712q160 0 253 -103q87 -99 87 -244q0 -171 -102 -273q-100 -102 -256 -102q-161 0 -252 104q-88 97 -88 243q0 170 102 274q101 101 256 101zM395 64q65 0 98 80q29 70 29 191q0 141 -38 222t-113 81q-65 0 -98 -79
q-29 -71 -29 -192q0 -141 38 -222t113 -81z" />
    <glyph glyph-name="Ocircumflex" unicode="&#xd4;" horiz-adv-x="766" 
d="M323 918h136l138 -169h-95l-111 80l-111 -80h-95zM392 712q160 0 253 -103q87 -99 87 -244q0 -171 -102 -273q-100 -102 -256 -102q-161 0 -252 104q-88 97 -88 243q0 170 102 274q101 101 256 101zM395 64q65 0 98 80q29 70 29 191q0 141 -38 222t-113 81q-65 0 -98 -79
q-29 -71 -29 -192q0 -141 38 -222t113 -81z" />
    <glyph glyph-name="Otilde" unicode="&#xd5;" horiz-adv-x="766" 
d="M532 901l60 -12q-40 -94 -69 -121q-28 -28 -72 -28q-29 0 -75 30t-61 30q-14 0 -26.5 -9t-19.5 -18t-19 -28l-60 12q40 93 69 122q29 27 72 27q36 0 78 -30t58 -30q19 0 33.5 14t31.5 41zM392 712q160 0 253 -103q87 -99 87 -244q0 -171 -102 -273q-100 -102 -256 -102
q-161 0 -252 104q-88 97 -88 243q0 170 102 274q101 101 256 101zM395 64q65 0 98 80q29 70 29 191q0 141 -38 222t-113 81q-65 0 -98 -79q-29 -71 -29 -192q0 -141 38 -222t113 -81z" />
    <glyph glyph-name="Odieresis" unicode="&#xd6;" horiz-adv-x="766" 
d="M192 831q0 36 26 62t63 26t63.5 -26t26.5 -62t-26.5 -62t-63.5 -26t-63 26t-26 62zM412 831q0 36 26.5 62t61.5 26q38 0 64.5 -26t26.5 -62t-26.5 -62t-64.5 -26q-35 0 -61.5 26t-26.5 62zM392 712q160 0 253 -103q87 -99 87 -244q0 -171 -102 -273q-100 -102 -256 -102
q-161 0 -252 104q-88 97 -88 243q0 170 102 274q101 101 256 101zM395 64q65 0 98 80q29 70 29 191q0 141 -38 222t-113 81q-65 0 -98 -79q-29 -71 -29 -192q0 -141 38 -222t113 -81z" />
    <glyph glyph-name="multiply" unicode="&#xd7;" horiz-adv-x="526" 
d="M66 229l133 132l-133 133l64 65l133 -135l132 135l65 -65l-134 -133l134 -132l-65 -65l-132 134l-133 -134z" />
    <glyph glyph-name="Oslash" unicode="&#xd8;" horiz-adv-x="770" 
d="M581 760l61 -32l-44 -77q65 -47 100.5 -122.5t35.5 -163.5q0 -171 -102 -273q-100 -102 -256 -102q-72 0 -139 25l-48 -84l-61 32l48 85q-68 46 -104 122.5t-36 166.5q0 170 102 274q101 101 256 101q76 0 144 -28zM242 367q0 -103 18 -171l218 384q-39 58 -105 58
q-65 0 -100 -79q-31 -72 -31 -192zM397 64q66 0 100 80q31 71 31 191q0 96 -17 164l-217 -382q37 -53 103 -53z" />
    <glyph glyph-name="Ugrave" unicode="&#xd9;" horiz-adv-x="775" 
d="M387 751l-156 158h185l72 -158h-101zM298 565v-297q0 -84 29.5 -128t101.5 -44q73 0 113 40.5t40 140.5v288q0 39 -19 52.5t-69 15.5v69h261v-69q-49 -2 -64 -15t-15 -53v-318q0 -127 -80 -194q-75 -63 -196 -63q-146 0 -224 65.5t-78 192.5v317q0 40 -14.5 53t-63.5 15
v69h354v-69q-48 -2 -62 -15t-14 -53z" />
    <glyph glyph-name="Uacute" unicode="&#xda;" horiz-adv-x="775" 
d="M367 751l72 158h185l-156 -158h-101zM298 565v-297q0 -84 29.5 -128t101.5 -44q73 0 113 40.5t40 140.5v288q0 39 -19 52.5t-69 15.5v69h261v-69q-49 -2 -64 -15t-15 -53v-318q0 -127 -80 -194q-75 -63 -196 -63q-146 0 -224 65.5t-78 192.5v317q0 40 -14.5 53t-63.5 15
v69h354v-69q-48 -2 -62 -15t-14 -53z" />
    <glyph glyph-name="Ucircumflex" unicode="&#xdb;" horiz-adv-x="775" 
d="M355 918h136l138 -169h-95l-111 80l-111 -80h-95zM298 565v-297q0 -84 29.5 -128t101.5 -44q73 0 113 40.5t40 140.5v288q0 39 -19 52.5t-69 15.5v69h261v-69q-49 -2 -64 -15t-15 -53v-318q0 -127 -80 -194q-75 -63 -196 -63q-146 0 -224 65.5t-78 192.5v317
q0 40 -14.5 53t-63.5 15v69h354v-69q-48 -2 -62 -15t-14 -53z" />
    <glyph glyph-name="Udieresis" unicode="&#xdc;" horiz-adv-x="775" 
d="M224 831q0 36 26 62t63 26t63.5 -26t26.5 -62t-26.5 -62t-63.5 -26t-63 26t-26 62zM444 831q0 36 26.5 62t61.5 26q38 0 64.5 -26t26.5 -62t-26.5 -62t-64.5 -26q-35 0 -61.5 26t-26.5 62zM298 565v-297q0 -84 29.5 -128t101.5 -44q73 0 113 40.5t40 140.5v288
q0 39 -19 52.5t-69 15.5v69h261v-69q-49 -2 -64 -15t-15 -53v-318q0 -127 -80 -194q-75 -63 -196 -63q-146 0 -224 65.5t-78 192.5v317q0 40 -14.5 53t-63.5 15v69h354v-69q-48 -2 -62 -15t-14 -53z" />
    <glyph glyph-name="Yacute" unicode="&#xdd;" horiz-adv-x="711" 
d="M331 751l72 158h185l-156 -158h-101zM311 533l102 -190l104 190q24 43 24 61q0 38 -67 39v69h230v-69q-43 -8 -58 -37l-189 -340v-119q0 -39 17 -52.5t68 -15.5v-69h-366v69q50 2 67.5 15.5t17.5 52.5v120l-197 339q-11 18 -23 25.5t-34 11.5v69h346v-69
q-38 -1 -51.5 -9.5t-13.5 -29.5q0 -17 23 -61z" />
    <glyph glyph-name="Thorn" unicode="&#xde;" horiz-adv-x="691" 
d="M308 565v-10h70q141 0 215.5 -54t74.5 -147q0 -202 -290 -202h-70v-15q0 -38 25 -51.5t91 -16.5v-69h-393v69q50 2 64.5 15t14.5 53v428q0 40 -14.5 53t-64.5 15v69h356v-69q-50 -2 -64.5 -15t-14.5 -53zM322 483h-14v-265h21q143 0 143 136q0 64 -41.5 96.5t-108.5 32.5
z" />
    <glyph glyph-name="germandbls" unicode="&#xdf;" horiz-adv-x="775" 
d="M511 452q0 -16 14 -30q13 -14 60 -39q79 -43 117.5 -87t38.5 -118q0 -87 -61 -137.5t-161 -50.5q-104 0 -169 60l-6 121h86q8 -56 32.5 -85.5t59.5 -29.5q29 0 46.5 15.5t17.5 40.5q0 29 -18.5 49t-74.5 54q-69 41 -100 77.5t-31 87.5q0 24 11.5 47t22.5 35t34 35
q32 30 49.5 58t17.5 66q0 41 -23.5 66.5t-66.5 25.5q-55 0 -88.5 -41t-33.5 -110v-562h-247v67q36 4 48 14.5t12 42.5v341h-76v62l76 18q21 115 112 175q79 50 190 50q98 0 166 -37q70 -39 70 -112q0 -57 -62 -103q-5 -3 -18.5 -12.5t-18 -13.5t-12.5 -11.5t-11 -14
t-3 -14.5z" />
    <glyph glyph-name="agrave" unicode="&#xe0;" horiz-adv-x="591" 
d="M260 606l-155 160h184l67 -160h-96zM510 342v-31v-66q-1 -24 -1 -66v-32q0 -52 30 -52q23 0 42 6l9 -51q-26 -25 -66 -42.5t-80 -17.5q-84 0 -117 91q-63 -87 -158 -87q-64 0 -102.5 38t-38.5 103q0 60 35.5 91.5t99.5 53.5l161 56v62q0 56 -13 78.5t-43 22.5
q-51 0 -51 -62q0 -38 9 -69l-120 -18q-43 13 -43 70q0 69 60.5 104.5t161.5 35.5q114 0 169.5 -47.5t55.5 -170.5zM279 102q26 0 45 13v165l-59 -24q-49 -18 -49 -75q0 -36 16.5 -57.5t46.5 -21.5z" />
    <glyph glyph-name="aacute" unicode="&#xe1;" horiz-adv-x="591" 
d="M228 606l68 160h184l-155 -160h-97zM510 342v-31v-66q-1 -24 -1 -66v-32q0 -52 30 -52q23 0 42 6l9 -51q-26 -25 -66 -42.5t-80 -17.5q-84 0 -117 91q-63 -87 -158 -87q-64 0 -102.5 38t-38.5 103q0 60 35.5 91.5t99.5 53.5l161 56v62q0 56 -13 78.5t-43 22.5
q-51 0 -51 -62q0 -38 9 -69l-120 -18q-43 13 -43 70q0 69 60.5 104.5t161.5 35.5q114 0 169.5 -47.5t55.5 -170.5zM279 102q26 0 45 13v165l-59 -24q-49 -18 -49 -75q0 -36 16.5 -57.5t46.5 -21.5z" />
    <glyph glyph-name="acircumflex" unicode="&#xe2;" horiz-adv-x="591" 
d="M225 766h136l138 -169h-95l-111 80l-111 -80h-95zM510 342v-31v-66q-1 -24 -1 -66v-32q0 -52 30 -52q23 0 42 6l9 -51q-26 -25 -66 -42.5t-80 -17.5q-84 0 -117 91q-63 -87 -158 -87q-64 0 -102.5 38t-38.5 103q0 60 35.5 91.5t99.5 53.5l161 56v62q0 56 -13 78.5
t-43 22.5q-51 0 -51 -62q0 -38 9 -69l-120 -18q-43 13 -43 70q0 69 60.5 104.5t161.5 35.5q114 0 169.5 -47.5t55.5 -170.5zM279 102q26 0 45 13v165l-59 -24q-49 -18 -49 -75q0 -36 16.5 -57.5t46.5 -21.5z" />
    <glyph glyph-name="atilde" unicode="&#xe3;" horiz-adv-x="591" 
d="M444 773l60 -12q-40 -94 -69 -121q-28 -28 -72 -28q-29 0 -75 30t-61 30q-14 0 -26.5 -9t-19.5 -18t-19 -28l-60 12q40 93 69 122q29 27 72 27q36 0 78 -30t58 -30q19 0 33.5 14t31.5 41zM510 342v-31v-66q-1 -24 -1 -66v-32q0 -52 30 -52q23 0 42 6l9 -51
q-26 -25 -66 -42.5t-80 -17.5q-84 0 -117 91q-63 -87 -158 -87q-64 0 -102.5 38t-38.5 103q0 60 35.5 91.5t99.5 53.5l161 56v62q0 56 -13 78.5t-43 22.5q-51 0 -51 -62q0 -38 9 -69l-120 -18q-43 13 -43 70q0 69 60.5 104.5t161.5 35.5q114 0 169.5 -47.5t55.5 -170.5z
M279 102q26 0 45 13v165l-59 -24q-49 -18 -49 -75q0 -36 16.5 -57.5t46.5 -21.5z" />
    <glyph glyph-name="adieresis" unicode="&#xe4;" horiz-adv-x="591" 
d="M94 691q0 36 26 62t63 26t63.5 -26t26.5 -62t-26.5 -62t-63.5 -26t-63 26t-26 62zM314 691q0 36 26.5 62t61.5 26q38 0 64.5 -26t26.5 -62t-26.5 -62t-64.5 -26q-35 0 -61.5 26t-26.5 62zM510 342v-31v-66q-1 -24 -1 -66v-32q0 -52 30 -52q23 0 42 6l9 -51
q-26 -25 -66 -42.5t-80 -17.5q-84 0 -117 91q-63 -87 -158 -87q-64 0 -102.5 38t-38.5 103q0 60 35.5 91.5t99.5 53.5l161 56v62q0 56 -13 78.5t-43 22.5q-51 0 -51 -62q0 -38 9 -69l-120 -18q-43 13 -43 70q0 69 60.5 104.5t161.5 35.5q114 0 169.5 -47.5t55.5 -170.5z
M279 102q26 0 45 13v165l-59 -24q-49 -18 -49 -75q0 -36 16.5 -57.5t46.5 -21.5z" />
    <glyph glyph-name="aring" unicode="&#xe5;" horiz-adv-x="591" 
d="M177 698q0 43 32 72t81 29t81 -29t32 -72t-32 -72t-81 -29t-81 29t-32 72zM336 698q0 19 -12.5 31.5t-33.5 12.5t-33.5 -12.5t-12.5 -31.5t12.5 -31.5t33.5 -12.5t33.5 12.5t12.5 31.5zM510 342v-31v-66q-1 -24 -1 -66v-32q0 -52 30 -52q23 0 42 6l9 -51
q-26 -25 -66 -42.5t-80 -17.5q-84 0 -117 91q-63 -87 -158 -87q-64 0 -102.5 38t-38.5 103q0 60 35.5 91.5t99.5 53.5l161 56v62q0 56 -13 78.5t-43 22.5q-51 0 -51 -62q0 -38 9 -69l-120 -18q-43 13 -43 70q0 69 60.5 104.5t161.5 35.5q114 0 169.5 -47.5t55.5 -170.5z
M279 102q26 0 45 13v165l-59 -24q-49 -18 -49 -75q0 -36 16.5 -57.5t46.5 -21.5z" />
    <glyph glyph-name="ae" unicode="&#xe6;" horiz-adv-x="858" 
d="M603 560q104 0 162 -65.5t58 -163.5v-39h-327q0 -72 42.5 -115.5t109.5 -43.5q93 0 144 68l33 -22q-19 -87 -80.5 -138t-155.5 -51q-70 0 -126 29t-89 83q-35 -54 -87.5 -81t-107.5 -27q-68 0 -109.5 40t-41.5 101t37.5 95t104.5 52l170 47l3 11q-1 82 -20 121
q-18 38 -55 38q-51 0 -51 -62q0 -38 9 -69l-120 -18q-43 13 -43 70q0 69 58.5 104.5t150.5 35.5q121 0 164 -60q73 60 167 60zM586 491q-75 0 -88 -139h164q-2 139 -76 139zM334 257v14l-67 -19q-51 -13 -51 -79q0 -29 17 -50t46 -21q42 0 80 27q-25 56 -25 128z" />
    <glyph glyph-name="ccedilla" unicode="&#xe7;" horiz-adv-x="542" 
d="M186 -233l-11 49q55 0 85 10q30 9 30 29q0 34 -85 36l41 101q-95 11 -154.5 82t-59.5 180q0 133 79 219.5t207 86.5q82 0 139 -38.5t57 -107.5q0 -63 -43 -78h-97v52q0 101 -68 101q-42 0 -72.5 -41.5t-30.5 -115.5q0 -92 38 -146.5t109 -54.5q84 0 137 72l34 -23
q-47 -183 -225 -189l-12 -35q97 -8 97 -78q0 -52 -57.5 -81.5t-137.5 -29.5z" />
    <glyph glyph-name="egrave" unicode="&#xe8;" horiz-adv-x="561" 
d="M261 606l-155 160h184l67 -160h-96zM306 560q104 0 162 -65.5t58 -163.5v-39h-327q0 -72 42.5 -115.5t109.5 -43.5q93 0 144 68l33 -22q-19 -87 -80.5 -138t-155.5 -51q-113 0 -186.5 73t-73.5 194q0 133 81 221q77 82 193 82zM289 491q-75 0 -88 -139h164
q-2 139 -76 139z" />
    <glyph glyph-name="eacute" unicode="&#xe9;" horiz-adv-x="561" 
d="M239 606l68 160h184l-155 -160h-97zM306 560q104 0 162 -65.5t58 -163.5v-39h-327q0 -72 42.5 -115.5t109.5 -43.5q93 0 144 68l33 -22q-19 -87 -80.5 -138t-155.5 -51q-113 0 -186.5 73t-73.5 194q0 133 81 221q77 82 193 82zM289 491q-75 0 -88 -139h164
q-2 139 -76 139z" />
    <glyph glyph-name="ecircumflex" unicode="&#xea;" horiz-adv-x="561" 
d="M232 766h136l138 -169h-95l-111 80l-111 -80h-95zM306 560q104 0 162 -65.5t58 -163.5v-39h-327q0 -72 42.5 -115.5t109.5 -43.5q93 0 144 68l33 -22q-19 -87 -80.5 -138t-155.5 -51q-113 0 -186.5 73t-73.5 194q0 133 81 221q77 82 193 82zM289 491q-75 0 -88 -139h164
q-2 139 -76 139z" />
    <glyph glyph-name="edieresis" unicode="&#xeb;" horiz-adv-x="561" 
d="M102 691q0 36 26 62t63 26t63.5 -26t26.5 -62t-26.5 -62t-63.5 -26t-63 26t-26 62zM322 691q0 36 26.5 62t61.5 26q38 0 64.5 -26t26.5 -62t-26.5 -62t-64.5 -26q-35 0 -61.5 26t-26.5 62zM306 560q104 0 162 -65.5t58 -163.5v-39h-327q0 -72 42.5 -115.5t109.5 -43.5
q93 0 144 68l33 -22q-19 -87 -80.5 -138t-155.5 -51q-113 0 -186.5 73t-73.5 194q0 133 81 221q77 82 193 82zM289 491q-75 0 -88 -139h164q-2 139 -76 139z" />
    <glyph glyph-name="igrave" unicode="&#xec;" horiz-adv-x="366" 
d="M144 606l-155 160h184l67 -160h-96zM248 561h33v-437q0 -32 12.5 -42.5t48.5 -14.5v-67h-310v67q36 4 48.5 14.5t12.5 42.5v295l-56 60v31z" />
    <glyph glyph-name="iacute" unicode="&#xed;" horiz-adv-x="366" 
d="M132 606l68 160h184l-155 -160h-97zM248 561h33v-437q0 -32 12.5 -42.5t48.5 -14.5v-67h-310v67q36 4 48.5 14.5t12.5 42.5v295l-56 60v31z" />
    <glyph glyph-name="icircumflex" unicode="&#xee;" horiz-adv-x="366" 
d="M119 766h136l138 -169h-95l-111 80l-111 -80h-95zM248 561h33v-437q0 -32 12.5 -42.5t48.5 -14.5v-67h-310v67q36 4 48.5 14.5t12.5 42.5v295l-56 60v31z" />
    <glyph glyph-name="idieresis" unicode="&#xef;" horiz-adv-x="366" 
d="M-12 691q0 36 26 62t63 26t63.5 -26t26.5 -62t-26.5 -62t-63.5 -26t-63 26t-26 62zM208 691q0 36 26.5 62t61.5 26q38 0 64.5 -26t26.5 -62t-26.5 -62t-64.5 -26q-35 0 -61.5 26t-26.5 62zM248 561h33v-437q0 -32 12.5 -42.5t48.5 -14.5v-67h-310v67q36 4 48.5 14.5
t12.5 42.5v295l-56 60v31z" />
    <glyph glyph-name="eth" unicode="&#xf0;" horiz-adv-x="629" 
d="M314 630l-155 -60l-19 44l131 51q-71 51 -153 70l22 41q138 -19 234 -71l119 46l19 -44l-87 -34q88 -63 130 -152.5t42 -188.5q0 -156 -75 -249t-212 -93q-123 0 -200.5 79t-77.5 197q0 127 79 201q75 70 179 70q70 0 114 -44q-25 72 -90 137zM328 61q39 0 61 51t22 133
q0 106 -27 171.5t-75 65.5q-40 0 -62 -47.5t-22 -129.5q0 -107 27.5 -175.5t75.5 -68.5z" />
    <glyph glyph-name="ntilde" unicode="&#xf1;" horiz-adv-x="706" 
d="M506 773l60 -12q-40 -94 -69 -121q-28 -28 -72 -28q-29 0 -75 30t-61 30q-14 0 -26.5 -9t-19.5 -18t-19 -28l-60 12q40 93 69 122q29 27 72 27q36 0 78 -30t58 -30q19 0 33.5 14t31.5 41zM438 124v254q0 32 -13.5 47.5t-47.5 15.5q-45 0 -96 -17v-300q0 -33 10.5 -43
t45.5 -14v-67h-305v67q36 4 48.5 14.5t12.5 42.5v291l-56 59v36l211 55h33v-110q92 105 193 105q152 0 152 -164v-272q0 -32 12 -42.5t48 -14.5v-67h-303v67q35 4 45 14t10 43z" />
    <glyph glyph-name="ograve" unicode="&#xf2;" horiz-adv-x="637" 
d="M281 606l-155 160h184l67 -160h-96zM310 -10q-123 0 -200.5 79t-77.5 197q0 132 83 213t211 81q124 0 201.5 -78.5t77.5 -196.5q0 -133 -83.5 -214t-211.5 -81zM328 61q39 0 61 51t22 133q0 107 -27 176t-75 69q-40 0 -62 -51t-22 -134q0 -107 27.5 -175.5t75.5 -68.5z
" />
    <glyph glyph-name="oacute" unicode="&#xf3;" horiz-adv-x="637" 
d="M269 606l68 160h184l-155 -160h-97zM310 -10q-123 0 -200.5 79t-77.5 197q0 132 83 213t211 81q124 0 201.5 -78.5t77.5 -196.5q0 -133 -83.5 -214t-211.5 -81zM328 61q39 0 61 51t22 133q0 107 -27 176t-75 69q-40 0 -62 -51t-22 -134q0 -107 27.5 -175.5t75.5 -68.5z
" />
    <glyph glyph-name="ocircumflex" unicode="&#xf4;" horiz-adv-x="637" 
d="M256 766h136l138 -169h-95l-111 80l-111 -80h-95zM310 -10q-123 0 -200.5 79t-77.5 197q0 132 83 213t211 81q124 0 201.5 -78.5t77.5 -196.5q0 -133 -83.5 -214t-211.5 -81zM328 61q39 0 61 51t22 133q0 107 -27 176t-75 69q-40 0 -62 -51t-22 -134q0 -107 27.5 -175.5
t75.5 -68.5z" />
    <glyph glyph-name="otilde" unicode="&#xf5;" horiz-adv-x="637" 
d="M465 773l60 -12q-40 -94 -69 -121q-28 -28 -72 -28q-29 0 -75 30t-61 30q-14 0 -26.5 -9t-19.5 -18t-19 -28l-60 12q40 93 69 122q28 27 72 27q36 0 78 -30t58 -30q19 0 33.5 14t31.5 41zM310 -10q-123 0 -200.5 79t-77.5 197q0 132 83 213t211 81q124 0 201.5 -78.5
t77.5 -196.5q0 -133 -83.5 -214t-211.5 -81zM328 61q39 0 61 51t22 133q0 107 -27 176t-75 69q-40 0 -62 -51t-22 -134q0 -107 27.5 -175.5t75.5 -68.5z" />
    <glyph glyph-name="odieresis" unicode="&#xf6;" horiz-adv-x="637" 
d="M125 691q0 36 26 62t63 26t63.5 -26t26.5 -62t-26.5 -62t-63.5 -26t-63 26t-26 62zM345 691q0 36 26.5 62t61.5 26q38 0 64.5 -26t26.5 -62t-26.5 -62t-64.5 -26q-35 0 -61.5 26t-26.5 62zM310 -10q-123 0 -200.5 79t-77.5 197q0 132 83 213t211 81q124 0 201.5 -78.5
t77.5 -196.5q0 -133 -83.5 -214t-211.5 -81zM328 61q39 0 61 51t22 133q0 107 -27 176t-75 69q-40 0 -62 -51t-22 -134q0 -107 27.5 -175.5t75.5 -68.5z" />
    <glyph glyph-name="divide" unicode="&#xf7;" horiz-adv-x="604" 
d="M231 550q0 29 20.5 49.5t48.5 20.5q30 0 51 -20.5t21 -49.5t-21 -50.5t-51 -21.5q-28 0 -48.5 21.5t-20.5 50.5zM531 318h-459v93h459v-93zM231 179q0 30 20.5 50t48.5 20q30 0 51 -20t21 -50t-21 -50.5t-51 -20.5q-28 0 -48.5 20.5t-20.5 50.5z" />
    <glyph glyph-name="oslash" unicode="&#xf8;" horiz-adv-x="637" 
d="M485 611l49 -26l-43 -73q54 -37 84 -96t30 -131q0 -133 -83.5 -214t-211.5 -81q-61 0 -117 22l-54 -90l-49 26l54 91q-53 37 -82.5 96t-29.5 131q0 132 83 213t211 81q57 0 116 -22zM220 305q0 -65 9 -124l155 260q-26 49 -75 49q-41 0 -65 -51.5t-24 -133.5zM328 61
q39 0 63.5 51.5t24.5 132.5q0 76 -10 126l-155 -261q26 -49 77 -49z" />
    <glyph glyph-name="ugrave" unicode="&#xf9;" horiz-adv-x="687" 
d="M309 606l-155 160h184l67 -160h-96zM451 -10h-38v98q-78 -98 -188 -98q-69 0 -109 43t-40 127v231q0 51 -38 59l-15 5v57l207 48h35v-382q0 -76 61 -76q39 0 87 16v273q0 51 -38 59l-14 5v57l205 48h36v-415q0 -53 37 -54h24v-69z" />
    <glyph glyph-name="uacute" unicode="&#xfa;" horiz-adv-x="687" 
d="M297 606l68 160h184l-155 -160h-97zM451 -10h-38v98q-78 -98 -188 -98q-69 0 -109 43t-40 127v231q0 51 -38 59l-15 5v57l207 48h35v-382q0 -76 61 -76q39 0 87 16v273q0 51 -38 59l-14 5v57l205 48h36v-415q0 -53 37 -54h24v-69z" />
    <glyph glyph-name="ucircumflex" unicode="&#xfb;" horiz-adv-x="687" 
d="M284 766h136l138 -169h-95l-111 80l-111 -80h-95zM451 -10h-38v98q-78 -98 -188 -98q-69 0 -109 43t-40 127v231q0 51 -38 59l-15 5v57l207 48h35v-382q0 -76 61 -76q39 0 87 16v273q0 51 -38 59l-14 5v57l205 48h36v-415q0 -53 37 -54h24v-69z" />
    <glyph glyph-name="udieresis" unicode="&#xfc;" horiz-adv-x="687" 
d="M143 691q0 36 26 62t63 26t63.5 -26t26.5 -62t-26.5 -62t-63.5 -26t-63 26t-26 62zM363 691q0 36 26.5 62t61.5 26q38 0 64.5 -26t26.5 -62t-26.5 -62t-64.5 -26q-35 0 -61.5 26t-26.5 62zM451 -10h-38v98q-78 -98 -188 -98q-69 0 -109 43t-40 127v231q0 51 -38 59l-15 5
v57l207 48h35v-382q0 -76 61 -76q39 0 87 16v273q0 51 -38 59l-14 5v57l205 48h36v-415q0 -53 37 -54h24v-69z" />
    <glyph glyph-name="yacute" unicode="&#xfd;" horiz-adv-x="622" 
d="M302 606l68 160h184l-155 -160h-97zM270 -12l5 10l-214 446q-7 15 -18 23t-38 17v66h336v-66q-38 -4 -53 -11t-15 -25q0 -4 2 -14q1 -8 9 -25l84 -204l86 205q8 16 9 24q2 10 2 14q0 18 -13 25q-15 7 -53 11v66h218v-66q-27 -9 -38 -17t-18 -23l-231 -517
q-31 -70 -68.5 -102.5t-88.5 -32.5q-61 0 -86 39v95h60q56 0 80 10.5t43 51.5z" />
    <glyph glyph-name="thorn" unicode="&#xfe;" horiz-adv-x="663" 
d="M70 -73v699l-55 59v37l210 39h34v-298q49 97 159 97q97 0 154.5 -67.5t57.5 -188.5q0 -143 -80.5 -228.5t-205.5 -85.5q-57 0 -86 22v-85q0 -32 12 -42.5t48 -14.5v-67h-309v67q36 4 48.5 14.5t12.5 42.5zM259 431v-268q0 -52 16 -78t54 -26q51 0 80 53t29 138
q0 91 -33.5 142.5t-88.5 51.5q-32 0 -57 -13z" />
    <glyph glyph-name="ydieresis" unicode="&#xff;" horiz-adv-x="622" 
d="M158 691q0 36 26 62t63 26t63.5 -26t26.5 -62t-26.5 -62t-63.5 -26t-63 26t-26 62zM378 691q0 36 26.5 62t61.5 26q38 0 64.5 -26t26.5 -62t-26.5 -62t-64.5 -26q-35 0 -61.5 26t-26.5 62zM270 -12l5 10l-214 446q-7 15 -18 23t-38 17v66h336v-66q-38 -4 -53 -11t-15 -25
q0 -4 2 -14q1 -8 9 -25l84 -204l86 205q8 16 9 24q2 10 2 14q0 18 -13 25q-15 7 -53 11v66h218v-66q-27 -9 -38 -17t-18 -23l-231 -517q-31 -70 -68.5 -102.5t-88.5 -32.5q-61 0 -86 39v95h60q56 0 80 10.5t43 51.5z" />
    <glyph glyph-name="Amacron" unicode="&#x100;" horiz-adv-x="758" 
d="M512 758h-318v106h318v-106zM463 153l-24 60h-244l-23 -60q-9 -27 -9 -40q0 -24 13 -33t57 -11v-69h-226v69q24 4 36.5 11.5t20.5 25.5l205 517l-35 80h205l254 -597q8 -18 21 -25.5t37 -11.5v-69h-347v69q42 2 56 11t14 33q0 16 -11 40zM411 282l-96 240l-93 -240h189z
" />
    <glyph glyph-name="amacron" unicode="&#x101;" horiz-adv-x="591" 
d="M446 626h-308v101h308v-101zM510 342v-31v-66q-1 -24 -1 -66v-32q0 -52 30 -52q23 0 42 6l9 -51q-26 -25 -66 -42.5t-80 -17.5q-84 0 -117 91q-63 -87 -158 -87q-64 0 -102.5 38t-38.5 103q0 60 35.5 91.5t99.5 53.5l161 56v62q0 56 -13 78.5t-43 22.5q-51 0 -51 -62
q0 -38 9 -69l-120 -18q-43 13 -43 70q0 69 60.5 104.5t161.5 35.5q114 0 169.5 -47.5t55.5 -170.5zM279 102q26 0 45 13v165l-59 -24q-49 -18 -49 -75q0 -36 16.5 -57.5t46.5 -21.5z" />
    <glyph glyph-name="Abreve" unicode="&#x102;" horiz-adv-x="758" 
d="M353 746q-75 0 -117 45.5t-42 124.5h70q12 -78 89 -78t89 78h70q0 -79 -42 -124.5t-117 -45.5zM463 153l-24 60h-244l-23 -60q-9 -27 -9 -40q0 -24 13 -33t57 -11v-69h-226v69q24 4 36.5 11.5t20.5 25.5l205 517l-35 80h205l254 -597q8 -18 21 -25.5t37 -11.5v-69h-347
v69q42 2 56 11t14 33q0 16 -11 40zM411 282l-96 240l-93 -240h189z" />
    <glyph glyph-name="abreve" unicode="&#x103;" horiz-adv-x="591" 
d="M286 603q-75 0 -117 45.5t-42 124.5h70q12 -78 89 -78t89 78h70q0 -79 -42 -124.5t-117 -45.5zM510 342v-31v-66q-1 -24 -1 -66v-32q0 -52 30 -52q23 0 42 6l9 -51q-26 -25 -66 -42.5t-80 -17.5q-84 0 -117 91q-63 -87 -158 -87q-64 0 -102.5 38t-38.5 103
q0 60 35.5 91.5t99.5 53.5l161 56v62q0 56 -13 78.5t-43 22.5q-51 0 -51 -62q0 -38 9 -69l-120 -18q-43 13 -43 70q0 69 60.5 104.5t161.5 35.5q114 0 169.5 -47.5t55.5 -170.5zM279 102q26 0 45 13v165l-59 -24q-49 -18 -49 -75q0 -36 16.5 -57.5t46.5 -21.5z" />
    <glyph glyph-name="Aogonek" unicode="&#x104;" horiz-adv-x="758" 
d="M463 153l-24 60h-244l-23 -60q-9 -27 -9 -40q0 -24 13 -33t57 -11v-69h-226v69q24 4 36.5 11.5t20.5 25.5l205 517l-35 80h205l254 -597q8 -18 21 -25.5t37 -11.5v-69h-313q-51 -30 -51 -77q0 -56 45 -56q36 0 70 20l19 -28q-35 -39 -66.5 -56t-72.5 -17t-71 28.5
t-30 76.5q0 85 125 148q39 19 53.5 35t14.5 39q0 16 -11 40zM411 282l-96 240l-93 -240h189z" />
    <glyph glyph-name="aogonek" unicode="&#x105;" horiz-adv-x="591" 
d="M510 342v-31v-66q-1 -24 -1 -66v-32q0 -52 30 -52q23 0 42 6l9 -51q-7 -4 -27 -15t-27.5 -15.5t-24 -15t-24 -16.5t-18.5 -17t-16 -19.5t-9 -20t-4 -23.5q0 -17 10.5 -29t32.5 -12q36 0 70 20l19 -28q-69 -75 -145 -75q-41 0 -68.5 23t-27.5 61q0 73 84 126
q-63 13 -88 87q-63 -87 -158 -87q-64 0 -102.5 38t-38.5 103q0 60 35.5 91.5t99.5 53.5l161 56v62q0 56 -13 78.5t-43 22.5q-51 0 -51 -62q0 -38 9 -69l-120 -18q-43 13 -43 70q0 69 60.5 104.5t161.5 35.5q114 0 169.5 -47.5t55.5 -170.5zM279 102q26 0 45 13v165l-59 -24
q-49 -18 -49 -75q0 -36 16.5 -57.5t46.5 -21.5z" />
    <glyph glyph-name="Cacute" unicode="&#x106;" horiz-adv-x="706" 
d="M337 751l72 158h185l-156 -158h-101zM416 68q60 0 94 42.5t62 138.5h97l-16 -193q-97 -66 -252 -66q-171 0 -269 96.5t-98 250.5q0 170 108 275q105 100 261 100q72 0 136 -20t104 -54v-163h-96q-20 81 -53.5 122.5t-92.5 41.5q-82 0 -120 -85q-33 -70 -33 -188
q0 -136 43 -217t125 -81z" />
    <glyph glyph-name="cacute" unicode="&#x107;" horiz-adv-x="542" 
d="M249 606l68 160h184l-155 -160h-97zM203 332q0 -92 38 -146.5t109 -54.5q84 0 137 72l34 -23q-50 -190 -238 -190q-110 0 -180.5 72.5t-70.5 191.5q0 133 79 219.5t207 86.5q82 0 139 -38.5t57 -107.5q0 -63 -43 -78h-97v52q0 101 -68 101q-42 0 -72.5 -41.5
t-30.5 -115.5z" />
    <glyph glyph-name="Ccircumflex" unicode="&#x108;" horiz-adv-x="706" 
d="M330 918h136l138 -169h-95l-111 80l-111 -80h-95zM416 68q60 0 94 42.5t62 138.5h97l-16 -193q-97 -66 -252 -66q-171 0 -269 96.5t-98 250.5q0 170 108 275q105 100 261 100q72 0 136 -20t104 -54v-163h-96q-20 81 -53.5 122.5t-92.5 41.5q-82 0 -120 -85
q-33 -70 -33 -188q0 -136 43 -217t125 -81z" />
    <glyph glyph-name="ccircumflex" unicode="&#x109;" horiz-adv-x="542" 
d="M234 766h136l138 -169h-95l-111 80l-111 -80h-95zM203 332q0 -92 38 -146.5t109 -54.5q84 0 137 72l34 -23q-50 -190 -238 -190q-110 0 -180.5 72.5t-70.5 191.5q0 133 79 219.5t207 86.5q82 0 139 -38.5t57 -107.5q0 -63 -43 -78h-97v52q0 101 -68 101
q-42 0 -72.5 -41.5t-30.5 -115.5z" />
    <glyph glyph-name="Cdotaccent" unicode="&#x10a;" horiz-adv-x="706" 
d="M399 743q-47 0 -75 27.5t-28 67.5t28 67.5t75 27.5q46 0 74 -27.5t28 -67.5t-28 -67.5t-74 -27.5zM416 68q60 0 94 42.5t62 138.5h97l-16 -193q-97 -66 -252 -66q-171 0 -269 96.5t-98 250.5q0 170 108 275q105 100 261 100q72 0 136 -20t104 -54v-163h-96
q-20 81 -53.5 122.5t-92.5 41.5q-82 0 -120 -85q-33 -70 -33 -188q0 -136 43 -217t125 -81z" />
    <glyph glyph-name="cdotaccent" unicode="&#x10b;" horiz-adv-x="542" 
d="M303 598q-47 0 -75 27.5t-28 67.5t28 67.5t75 27.5q46 0 74 -27.5t28 -67.5t-28 -67.5t-74 -27.5zM203 332q0 -92 38 -146.5t109 -54.5q84 0 137 72l34 -23q-50 -190 -238 -190q-110 0 -180.5 72.5t-70.5 191.5q0 133 79 219.5t207 86.5q82 0 139 -38.5t57 -107.5
q0 -63 -43 -78h-97v52q0 101 -68 101q-42 0 -72.5 -41.5t-30.5 -115.5z" />
    <glyph glyph-name="Ccaron" unicode="&#x10c;" horiz-adv-x="706" 
d="M509 921h95l-138 -169h-136l-138 169h95l111 -80zM416 68q60 0 94 42.5t62 138.5h97l-16 -193q-97 -66 -252 -66q-171 0 -269 96.5t-98 250.5q0 170 108 275q105 100 261 100q72 0 136 -20t104 -54v-163h-96q-20 81 -53.5 122.5t-92.5 41.5q-82 0 -120 -85
q-33 -70 -33 -188q0 -136 43 -217t125 -81z" />
    <glyph glyph-name="ccaron" unicode="&#x10d;" horiz-adv-x="542" 
d="M413 775h95l-138 -169h-136l-138 169h95l111 -80zM203 332q0 -92 38 -146.5t109 -54.5q84 0 137 72l34 -23q-50 -190 -238 -190q-110 0 -180.5 72.5t-70.5 191.5q0 133 79 219.5t207 86.5q82 0 139 -38.5t57 -107.5q0 -63 -43 -78h-97v52q0 101 -68 101
q-42 0 -72.5 -41.5t-30.5 -115.5z" />
    <glyph glyph-name="Dcaron" unicode="&#x10e;" horiz-adv-x="803" 
d="M511 921h95l-138 -169h-136l-138 169h95l111 -80zM31 633v69h325q196 0 304.5 -89t108.5 -251q0 -169 -101 -265.5t-276 -96.5h-361v69q50 2 64.5 15t14.5 53v428q0 40 -14.5 53t-64.5 15zM329 630h-21v-488q0 -42 15 -56t53 -14h9q172 0 172 279q0 130 -59.5 204.5
t-168.5 74.5z" />
    <glyph glyph-name="dcaron" unicode="&#x10f;" horiz-adv-x="693" 
d="M666 766h155l-93 -205h-76zM442 -10h-38v98q-53 -98 -166 -98q-92 0 -148.5 68t-56.5 188q0 143 79 225t203 82q62 0 89 -24v97l-55 59v37l211 39h32v-616q0 -53 38 -54h24v-69zM334 487q-52 0 -80.5 -51.5t-28.5 -135.5q0 -91 33 -143t90 -52q27 0 56 12v271
q0 51 -16 75t-54 24z" />
    <glyph glyph-name="Dcroat" unicode="&#x110;" horiz-adv-x="810" 
d="M117 327h-79v71h79v167q0 40 -14.5 53t-64.5 15v69h325q196 0 304.5 -89t108.5 -251q0 -169 -101 -265.5t-276 -96.5h-361v69q50 2 64.5 15t14.5 53v190zM336 630h-21v-232h121v-71h-121v-185q0 -42 15 -56t53 -14h9q172 0 172 279q0 130 -59.5 204.5t-168.5 74.5z" />
    <glyph glyph-name="dcroat" unicode="&#x111;" horiz-adv-x="682" 
d="M654 628v-51h-62v-432q0 -53 38 -54h24v-69l-212 -32h-38v98q-53 -98 -166 -98q-92 0 -148.5 68t-56.5 188q0 138 82 217q72 69 182 69q35 0 65 -10t42 -24v79h-117v51h117v53h-55v47l211 33h32v-133h62zM334 466q-109 0 -109 -166q0 -91 33 -143t90 -52q27 0 56 12v250
q0 51 -16 75t-54 24z" />
    <glyph glyph-name="Emacron" unicode="&#x112;" horiz-adv-x="680" 
d="M510 758h-318v106h318v-106zM520 476v-229h-66q-7 44 -23 61t-49 17h-74v-188q0 -38 19 -52.5t61 -14.5h25q49 0 82 29t84 109h76l-31 -208h-593v69q50 2 64.5 15t14.5 53v428q0 40 -14.5 53t-64.5 15v69h588v-192h-78q-26 67 -53 94.5t-83 27.5h-97v-234h74q33 0 49 17
t23 61h66z" />
    <glyph glyph-name="emacron" unicode="&#x113;" horiz-adv-x="561" 
d="M451 626h-308v101h308v-101zM306 560q104 0 162 -65.5t58 -163.5v-39h-327q0 -72 42.5 -115.5t109.5 -43.5q93 0 144 68l33 -22q-19 -87 -80.5 -138t-155.5 -51q-113 0 -186.5 73t-73.5 194q0 133 81 221q77 82 193 82zM289 491q-75 0 -88 -139h164q-2 139 -76 139z" />
    <glyph glyph-name="Ebreve" unicode="&#x114;" horiz-adv-x="680" 
d="M351 746q-75 0 -117 45.5t-42 124.5h70q12 -78 89 -78t89 78h70q0 -79 -42 -124.5t-117 -45.5zM520 476v-229h-66q-7 44 -23 61t-49 17h-74v-188q0 -38 19 -52.5t61 -14.5h25q49 0 82 29t84 109h76l-31 -208h-593v69q50 2 64.5 15t14.5 53v428q0 40 -14.5 53t-64.5 15v69
h588v-192h-78q-26 67 -53 94.5t-83 27.5h-97v-234h74q33 0 49 17t23 61h66z" />
    <glyph glyph-name="ebreve" unicode="&#x115;" horiz-adv-x="561" 
d="M297 603q-75 0 -117 45.5t-42 124.5h70q12 -78 89 -78t89 78h70q0 -79 -42 -124.5t-117 -45.5zM306 560q104 0 162 -65.5t58 -163.5v-39h-327q0 -72 42.5 -115.5t109.5 -43.5q93 0 144 68l33 -22q-19 -87 -80.5 -138t-155.5 -51q-113 0 -186.5 73t-73.5 194q0 133 81 221
q77 82 193 82zM289 491q-75 0 -88 -139h164q-2 139 -76 139z" />
    <glyph glyph-name="Edotaccent" unicode="&#x116;" horiz-adv-x="680" 
d="M352 743q-47 0 -75 27.5t-28 67.5t28 67.5t75 27.5q46 0 74 -27.5t28 -67.5t-28 -67.5t-74 -27.5zM520 476v-229h-66q-7 44 -23 61t-49 17h-74v-188q0 -38 19 -52.5t61 -14.5h25q49 0 82 29t84 109h76l-31 -208h-593v69q50 2 64.5 15t14.5 53v428q0 40 -14.5 53t-64.5 15
v69h588v-192h-78q-26 67 -53 94.5t-83 27.5h-97v-234h74q33 0 49 17t23 61h66z" />
    <glyph glyph-name="edotaccent" unicode="&#x117;" horiz-adv-x="561" 
d="M297 598q-47 0 -75 27.5t-28 67.5t28 67.5t75 27.5q46 0 74 -27.5t28 -67.5t-28 -67.5t-74 -27.5zM306 560q104 0 162 -65.5t58 -163.5v-39h-327q0 -72 42.5 -115.5t109.5 -43.5q93 0 144 68l33 -22q-19 -87 -80.5 -138t-155.5 -51q-113 0 -186.5 73t-73.5 194
q0 133 81 221q77 82 193 82zM289 491q-75 0 -88 -139h164q-2 139 -76 139z" />
    <glyph glyph-name="Eogonek" unicode="&#x118;" horiz-adv-x="680" 
d="M520 476v-229h-66q-7 44 -23 61t-49 17h-74v-188q0 -38 19 -52.5t61 -14.5h25q49 0 82 29t84 109h76l-31 -208h-90q-60 -40 -60 -92q0 -17 10.5 -29t32.5 -12q36 0 70 20l19 -28q-69 -75 -145 -75q-41 0 -68.5 23t-27.5 61q0 75 94 132h-428v69q50 2 64.5 15t14.5 53v428
q0 40 -14.5 53t-64.5 15v69h588v-192h-78q-26 67 -53 94.5t-83 27.5h-97v-234h74q33 0 49 17t23 61h66z" />
    <glyph glyph-name="eogonek" unicode="&#x119;" horiz-adv-x="561" 
d="M306 560q104 0 162 -65.5t58 -163.5v-39h-327q0 -72 42.5 -115.5t109.5 -43.5q93 0 144 68l33 -22q-27 -125 -131 -169q-77 -43 -77 -102q0 -17 10.5 -29t32.5 -12q36 0 70 20l19 -28q-69 -75 -145 -75q-41 0 -68.5 23t-27.5 61q0 72 78 122q-112 1 -184.5 73.5
t-72.5 193.5q0 133 81 221q77 82 193 82zM289 491q-75 0 -88 -139h164q-2 139 -76 139z" />
    <glyph glyph-name="Ecaron" unicode="&#x11a;" horiz-adv-x="680" 
d="M462 921h95l-138 -169h-136l-138 169h95l111 -80zM520 476v-229h-66q-7 44 -23 61t-49 17h-74v-188q0 -38 19 -52.5t61 -14.5h25q49 0 82 29t84 109h76l-31 -208h-593v69q50 2 64.5 15t14.5 53v428q0 40 -14.5 53t-64.5 15v69h588v-192h-78q-26 67 -53 94.5t-83 27.5h-97
v-234h74q33 0 49 17t23 61h66z" />
    <glyph glyph-name="ecaron" unicode="&#x11b;" horiz-adv-x="561" 
d="M408 775h95l-138 -169h-136l-138 169h95l111 -80zM306 560q104 0 162 -65.5t58 -163.5v-39h-327q0 -72 42.5 -115.5t109.5 -43.5q93 0 144 68l33 -22q-19 -87 -80.5 -138t-155.5 -51q-113 0 -186.5 73t-73.5 194q0 133 81 221q77 82 193 82zM289 491q-75 0 -88 -139h164
q-2 139 -76 139z" />
    <glyph glyph-name="Gcircumflex" unicode="&#x11c;" horiz-adv-x="766" 
d="M335 918h136l138 -169h-95l-111 80l-111 -80h-95zM34 337q0 169 111 275q106 100 262 100q71 0 135.5 -20t104.5 -54v-163h-96q-22 81 -55.5 122.5t-90.5 41.5q-80 0 -123 -85q-37 -73 -37 -188q0 -297 176 -297q36 0 62 10v128q0 39 -14.5 52t-62.5 14v71h335v-71
q-49 -1 -63 -13.5t-14 -52.5v-144q-101 -72 -270 -72q-173 0 -269 98q-91 93 -91 248z" />
    <glyph glyph-name="gcircumflex" unicode="&#x11d;" horiz-adv-x="597" 
d="M239 766h136l138 -169h-95l-111 80l-111 -80h-95zM286 197q-63 0 -108 15q-26 -31 -26 -47q0 -21 24 -21h241q87 0 131.5 -40t44.5 -109q0 -95 -84 -148.5t-226 -53.5q-124 0 -193 29.5t-69 87.5q0 34 27 55t62 27q-73 28 -73 104q0 39 26 69t81 60q-96 44 -96 144
q0 88 69 139.5t178 51.5q51 0 101 -13l185 7v-92h-44l-78 17v-6q70 -31 70 -102q0 -81 -68 -127.5t-175 -46.5zM293 254q54 0 54 108q0 63 -17 101.5t-50 38.5q-54 0 -54 -108q0 -60 17.5 -100t49.5 -40zM397 -33h-258q-7 -7 -7 -30q0 -83 154 -83q163 0 163 75q0 38 -52 38
z" />
    <glyph glyph-name="Gbreve" unicode="&#x11e;" horiz-adv-x="766" 
d="M400 746q-75 0 -117 45.5t-42 124.5h70q12 -78 89 -78t89 78h70q0 -79 -42 -124.5t-117 -45.5zM34 337q0 169 111 275q106 100 262 100q71 0 135.5 -20t104.5 -54v-163h-96q-22 81 -55.5 122.5t-90.5 41.5q-80 0 -123 -85q-37 -73 -37 -188q0 -297 176 -297q36 0 62 10
v128q0 39 -14.5 52t-62.5 14v71h335v-71q-49 -1 -63 -13.5t-14 -52.5v-144q-101 -72 -270 -72q-173 0 -269 98q-91 93 -91 248z" />
    <glyph glyph-name="gbreve" unicode="&#x11f;" horiz-adv-x="597" 
d="M307 603q-75 0 -117 45.5t-42 124.5h70q12 -78 89 -78t89 78h70q0 -79 -42 -124.5t-117 -45.5zM286 197q-63 0 -108 15q-26 -31 -26 -47q0 -21 24 -21h241q87 0 131.5 -40t44.5 -109q0 -95 -84 -148.5t-226 -53.5q-124 0 -193 29.5t-69 87.5q0 34 27 55t62 27
q-73 28 -73 104q0 39 26 69t81 60q-96 44 -96 144q0 88 69 139.5t178 51.5q51 0 101 -13l185 7v-92h-44l-78 17v-6q70 -31 70 -102q0 -81 -68 -127.5t-175 -46.5zM293 254q54 0 54 108q0 63 -17 101.5t-50 38.5q-54 0 -54 -108q0 -60 17.5 -100t49.5 -40zM397 -33h-258
q-7 -7 -7 -30q0 -83 154 -83q163 0 163 75q0 38 -52 38z" />
    <glyph glyph-name="Gdotaccent" unicode="&#x120;" horiz-adv-x="766" 
d="M404 743q-47 0 -75 27.5t-28 67.5t28 67.5t75 27.5q46 0 74 -27.5t28 -67.5t-28 -67.5t-74 -27.5zM34 337q0 169 111 275q106 100 262 100q71 0 135.5 -20t104.5 -54v-163h-96q-22 81 -55.5 122.5t-90.5 41.5q-80 0 -123 -85q-37 -73 -37 -188q0 -297 176 -297
q36 0 62 10v128q0 39 -14.5 52t-62.5 14v71h335v-71q-49 -1 -63 -13.5t-14 -52.5v-144q-101 -72 -270 -72q-173 0 -269 98q-91 93 -91 248z" />
    <glyph glyph-name="gdotaccent" unicode="&#x121;" horiz-adv-x="597" 
d="M308 598q-47 0 -75 27.5t-28 67.5t28 67.5t75 27.5q46 0 74 -27.5t28 -67.5t-28 -67.5t-74 -27.5zM286 197q-63 0 -108 15q-26 -31 -26 -47q0 -21 24 -21h241q87 0 131.5 -40t44.5 -109q0 -95 -84 -148.5t-226 -53.5q-124 0 -193 29.5t-69 87.5q0 34 27 55t62 27
q-73 28 -73 104q0 39 26 69t81 60q-96 44 -96 144q0 88 69 139.5t178 51.5q51 0 101 -13l185 7v-92h-44l-78 17v-6q70 -31 70 -102q0 -81 -68 -127.5t-175 -46.5zM293 254q54 0 54 108q0 63 -17 101.5t-50 38.5q-54 0 -54 -108q0 -60 17.5 -100t49.5 -40zM397 -33h-258
q-7 -7 -7 -30q0 -83 154 -83q163 0 163 75q0 38 -52 38z" />
    <glyph glyph-name="Gcommaaccent" unicode="&#x122;" horiz-adv-x="766" 
d="M34 337q0 169 111 275q106 100 262 100q71 0 135.5 -20t104.5 -54v-163h-96q-22 81 -55.5 122.5t-90.5 41.5q-80 0 -123 -85q-37 -73 -37 -188q0 -297 176 -297q36 0 62 10v128q0 39 -14.5 52t-62.5 14v71h335v-71q-49 -1 -63 -13.5t-14 -52.5v-144q-101 -72 -270 -72
q-173 0 -269 98q-91 93 -91 248zM429 -158h-59q-50 14 -50 62q0 28 23 46t62 18q45 0 71.5 -27.5t26.5 -70.5q0 -54 -43 -87t-134 -33v45q50 0 76 14q26 13 27 33z" />
    <glyph glyph-name="gcommaaccent" unicode="&#x123;" horiz-adv-x="597" 
d="M290 721h59q50 -14 50 -62q0 -28 -23 -46t-62 -18q-45 0 -71.5 27.5t-26.5 70.5q0 54 43 87t134 33v-45q-51 0 -76 -13t-27 -34zM286 197q-63 0 -108 15q-26 -31 -26 -47q0 -21 24 -21h241q87 0 131.5 -40t44.5 -109q0 -95 -84 -148.5t-226 -53.5q-124 0 -193 29.5
t-69 87.5q0 34 27 55t62 27q-73 28 -73 104q0 39 26 69t81 60q-96 44 -96 144q0 88 69 139.5t178 51.5q51 0 101 -13l185 7v-92h-44l-78 17v-6q70 -31 70 -102q0 -81 -68 -127.5t-175 -46.5zM293 254q54 0 54 108q0 63 -17 101.5t-50 38.5q-54 0 -54 -108q0 -60 17.5 -100
t49.5 -40zM397 -33h-258q-7 -7 -7 -30q0 -83 154 -83q163 0 163 75q0 38 -52 38z" />
    <glyph glyph-name="Hcircumflex" unicode="&#x124;" horiz-adv-x="864" 
d="M364 918h136l138 -169h-95l-111 80l-111 -80h-95zM556 137v188h-248v-188q0 -40 15 -53t64 -15v-69h-356v69q50 2 64.5 15t14.5 53v428q0 40 -14.5 53t-64.5 15v69h356v-69q-49 -2 -64 -15t-15 -53v-167h248v167q0 40 -15 53t-64 15v69h356v-69q-50 -2 -64.5 -15
t-14.5 -53v-428q0 -40 14.5 -53t64.5 -15v-69h-356v69q49 2 64 15t15 53z" />
    <glyph glyph-name="hcircumflex" unicode="&#x125;" horiz-adv-x="697" 
d="M271 958h136l138 -169h-95l-111 80l-111 -80h-95zM239 761h32v-306q92 105 193 105q74 0 113.5 -41t39.5 -123v-272q0 -32 12 -42.5t48 -14.5v-67h-304v67q35 4 45.5 14t10.5 43v254q0 32 -14 47.5t-48 15.5q-45 0 -96 -17v-300q0 -33 10.5 -43t45.5 -14v-67h-305v67
q36 4 48.5 14.5t12.5 42.5v502l-56 59v37z" />
    <glyph glyph-name="Hbar" unicode="&#x126;" horiz-adv-x="878" 
d="M117 449h-79v71h79v45q0 40 -14.5 53t-64.5 15v69h356v-69q-49 -2 -64 -15t-15 -53v-45h248v45q0 40 -15 53t-64 15v69h356v-69q-50 -2 -64.5 -15t-14.5 -53v-45h79v-71h-79v-312q0 -40 14.5 -53t64.5 -15v-69h-356v69q49 2 64 15t15 53v148h-248v-148q0 -40 15 -53
t64 -15v-69h-356v69q50 2 64.5 15t14.5 53v312zM315 449v-91h248v91h-248z" />
    <glyph glyph-name="hbar" unicode="&#x127;" horiz-adv-x="703" 
d="M400 628v-51h-123v-126q92 105 193 105q74 0 113.5 -41t39.5 -123v-268q0 -32 12 -42.5t48 -14.5v-67h-304v67q35 4 45.5 14t10.5 43v250q0 32 -14 47.5t-48 15.5q-45 0 -96 -17v-296q0 -33 10.5 -43t45.5 -14v-67h-305v67q36 4 48.5 14.5t12.5 42.5v453h-56v51h56v53
h-56v47l212 33h32v-133h123z" />
    <glyph glyph-name="Itilde" unicode="&#x128;" horiz-adv-x="418" 
d="M350 901l60 -12q-40 -94 -69 -121q-28 -28 -72 -28q-29 0 -75 30t-61 30q-14 0 -26.5 -9t-19.5 -18t-19 -28l-60 12q40 93 69 122q29 27 72 27q36 0 78 -30t58 -30q19 0 33.5 14t31.5 41zM387 69v-69h-356v69q50 2 64.5 15t14.5 53v428q0 40 -14.5 53t-64.5 15v69h356
v-69q-50 -2 -64.5 -15t-14.5 -53v-428q0 -40 14.5 -53t64.5 -15z" />
    <glyph glyph-name="itilde" unicode="&#x129;" horiz-adv-x="366" 
d="M318 773l60 -12q-41 -95 -68 -121q-28 -28 -65 -28q-27 0 -65 30q-15 10 -27 21q-13 9 -25 9q-14 0 -26.5 -9t-19.5 -18t-19 -28l-60 12q40 95 68 122q27 27 67 27q33 0 67 -30t48 -30q19 0 33.5 14t31.5 41zM248 561h33v-437q0 -32 12.5 -42.5t48.5 -14.5v-67h-310v67
q36 4 48.5 14.5t12.5 42.5v295l-56 60v31z" />
    <glyph glyph-name="Imacron" unicode="&#x12a;" horiz-adv-x="418" 
d="M368 758h-318v106h318v-106zM387 69v-69h-356v69q50 2 64.5 15t14.5 53v428q0 40 -14.5 53t-64.5 15v69h356v-69q-50 -2 -64.5 -15t-14.5 -53v-428q0 -40 14.5 -53t64.5 -15z" />
    <glyph glyph-name="imacron" unicode="&#x12b;" horiz-adv-x="366" 
d="M322 626h-276v101h276v-101zM248 561h33v-437q0 -32 12.5 -42.5t48.5 -14.5v-67h-310v67q36 4 48.5 14.5t12.5 42.5v295l-56 60v31z" />
    <glyph glyph-name="Ibreve" unicode="&#x12c;" horiz-adv-x="418" 
d="M209 746q-75 0 -117 45.5t-42 124.5h70q12 -78 89 -78t89 78h70q0 -79 -42 -124.5t-117 -45.5zM387 69v-69h-356v69q50 2 64.5 15t14.5 53v428q0 40 -14.5 53t-64.5 15v69h356v-69q-50 -2 -64.5 -15t-14.5 -53v-428q0 -40 14.5 -53t64.5 -15z" />
    <glyph glyph-name="ibreve" unicode="&#x12d;" horiz-adv-x="366" 
d="M187 603q-75 0 -117 45.5t-42 124.5h70q12 -78 89 -78t89 78h70q0 -79 -42 -124.5t-117 -45.5zM248 561h33v-437q0 -32 12.5 -42.5t48.5 -14.5v-67h-310v67q36 4 48.5 14.5t12.5 42.5v295l-56 60v31z" />
    <glyph glyph-name="Iogonek" unicode="&#x12e;" horiz-adv-x="418" 
d="M387 69v-69h-129q-60 -40 -60 -92q0 -17 10.5 -29t32.5 -12q36 0 70 20l19 -28q-69 -75 -145 -75q-41 0 -68.5 23t-27.5 61q0 75 94 132h-152v69q50 2 64.5 15t14.5 53v428q0 40 -14.5 53t-64.5 15v69h356v-69q-50 -2 -64.5 -15t-14.5 -53v-428q0 -40 14.5 -53t64.5 -15z
" />
    <glyph glyph-name="iogonek" unicode="&#x12f;" horiz-adv-x="366" 
d="M185 593q-47 0 -75 27.5t-28 67.5t28 67.5t75 27.5q46 0 74 -27.5t28 -67.5t-28 -67.5t-74 -27.5zM248 561h33v-437q0 -32 12.5 -42.5t48.5 -14.5v-67h-106q-60 -40 -60 -92q0 -17 10.5 -29t32.5 -12q36 0 70 20l19 -28q-69 -75 -145 -75q-41 0 -68.5 23t-27.5 61
q0 75 94 132h-129v67q36 4 48.5 14.5t12.5 42.5v295l-56 60v31z" />
    <glyph glyph-name="Idotaccent" unicode="&#x130;" horiz-adv-x="418" 
d="M210 743q-47 0 -75 27.5t-28 67.5t28 67.5t75 27.5q46 0 74 -27.5t28 -67.5t-28 -67.5t-74 -27.5zM387 69v-69h-356v69q50 2 64.5 15t14.5 53v428q0 40 -14.5 53t-64.5 15v69h356v-69q-50 -2 -64.5 -15t-14.5 -53v-428q0 -40 14.5 -53t64.5 -15z" />
    <glyph glyph-name="dotlessi" unicode="&#x131;" horiz-adv-x="366" 
d="M248 561h33v-437q0 -32 12.5 -42.5t48.5 -14.5v-67h-310v67q36 4 48.5 14.5t12.5 42.5v295l-56 60v31z" />
    <glyph glyph-name="IJ" unicode="&#x132;" horiz-adv-x="1030" 
d="M387 69v-69h-356v69q50 2 64.5 15t14.5 53v428q0 40 -14.5 53t-64.5 15v69h356v-69q-50 -2 -64.5 -15t-14.5 -53v-428q0 -40 14.5 -53t64.5 -15zM932 565v-339q0 -236 -268 -236q-113 0 -175.5 39.5t-62.5 111.5q0 57 50 91h135v-51q0 -58 12.5 -90t46.5 -32
q38 0 50 32.5t12 101.5v372q0 40 -14.5 53t-62.5 15v69h357v-69q-50 -2 -65 -15t-15 -53z" />
    <glyph glyph-name="ij" unicode="&#x133;" horiz-adv-x="689" 
d="M185 593q-47 0 -75 27.5t-28 67.5t28 67.5t75 27.5q46 0 74 -27.5t28 -67.5t-28 -67.5t-74 -27.5zM532 593q-47 0 -75 27.5t-28 67.5t28 67.5t75 27.5q46 0 74 -27.5t28 -67.5t-28 -67.5t-74 -27.5zM248 561h33v-437q0 -32 12.5 -42.5t48.5 -14.5v-67h-310v67
q36 4 48.5 14.5t12.5 42.5v295l-56 60v31zM595 561h33v-429q0 -80 -18 -129t-54 -90q-72 -81 -155 -122l-36 34l41 69q22 36 27.5 79.5t5.5 115.5v330l-55 60v31z" />
    <glyph glyph-name="Jcircumflex" unicode="&#x134;" horiz-adv-x="612" 
d="M335 918h136l138 -169h-95l-111 80l-111 -80h-95zM514 565v-339q0 -236 -268 -236q-113 0 -175.5 39.5t-62.5 111.5q0 57 50 91h135v-51q0 -58 12.5 -90t46.5 -32q38 0 50 32.5t12 101.5v372q0 40 -14.5 53t-62.5 15v69h357v-69q-50 -2 -65 -15t-15 -53z" />
    <glyph glyph-name="jcircumflex" unicode="&#x135;" horiz-adv-x="323" 
d="M98 766h136l138 -169h-95l-111 80l-111 -80h-95zM229 561h33v-429q0 -80 -18 -129t-54 -90q-72 -81 -155 -122l-36 34l41 69q22 36 27.5 79.5t5.5 115.5v330l-55 60v31z" />
    <glyph glyph-name="Kcommaaccent" unicode="&#x136;" horiz-adv-x="790" 
d="M110 137v428q0 40 -14.5 53t-64.5 15v69h356v-69q-48 -2 -62.5 -15t-14.5 -53v-428q0 -40 14.5 -53t62.5 -15v-69h-356v69q50 2 64.5 15t14.5 53zM677 596l-173 -170l181 -286q27 -42 48.5 -57t52.5 -15v-68h-226q-42 27 -88 105l-154 252l209 200q29 29 29 45
q0 12 -12 22q-12 9 -49 9v69h264v-69q-29 -1 -44 -8.5t-38 -28.5zM436 -158h-59q-50 14 -50 62q0 28 23 46t62 18q45 0 71.5 -27.5t26.5 -70.5q0 -54 -43 -87t-134 -33v45q50 0 76 14q25 13 27 33z" />
    <glyph glyph-name="kcommaaccent" unicode="&#x137;" horiz-adv-x="663" 
d="M239 761h32v-637q0 -32 12.5 -42.5t48.5 -14.5v-67h-310v67q36 4 48.5 14.5t12.5 42.5v502l-56 59v37zM461 0l-183 292l127 122l19 20q8 10 8 18q0 16 -14 22q-13 5 -49 10v66h264v-66q-68 -16 -93 -41l-89 -88l202 -303v-52h-192zM355 -158h-59q-50 14 -50 62
q0 28 23 46t62 18q45 0 71.5 -27.5t26.5 -70.5q0 -54 -43 -87t-134 -33v45q50 0 76 14q26 13 27 33z" />
    <glyph glyph-name="kgreenlandic" unicode="&#x138;" horiz-adv-x="663" 
d="M239 560h32v-436q0 -32 12.5 -42.5t48.5 -14.5v-67h-310v67q36 4 48.5 14.5t12.5 42.5v301l-56 59v37zM461 0l-183 292l127 122l19 20q8 10 8 18q0 16 -14 22q-13 5 -49 10v66h264v-66q-68 -16 -93 -41l-89 -88l202 -303v-52h-192z" />
    <glyph glyph-name="Lacute" unicode="&#x139;" horiz-adv-x="662" 
d="M173 751l72 158h185l-156 -158h-101zM310 565v-426q0 -39 17 -53t58 -14h25q46 0 73 31q21 25 87 138h82l-38 -241h-583v69q50 2 64.5 15t14.5 53v428q0 39 -14.5 52t-64.5 15v70h356v-70q-48 -2 -62.5 -15t-14.5 -52z" />
    <glyph glyph-name="lacute" unicode="&#x13a;" horiz-adv-x="355" 
d="M120 791l72 158h185l-156 -158h-101zM237 761h33v-637q0 -32 12 -42.5t48 -14.5v-67h-308v67q36 4 48 14.5t12 42.5v502l-55 59v37z" />
    <glyph glyph-name="Lcommaaccent" unicode="&#x13b;" horiz-adv-x="662" 
d="M310 565v-426q0 -39 17 -53t58 -14h25q46 0 73 31q21 25 87 138h82l-38 -241h-583v69q50 2 64.5 15t14.5 53v428q0 39 -14.5 52t-64.5 15v70h356v-70q-48 -2 -62.5 -15t-14.5 -52zM359 -158h-59q-50 14 -50 62q0 28 23 46t62 18q45 0 71.5 -27.5t26.5 -70.5
q0 -54 -43 -87t-134 -33v45q50 0 76 14q26 13 27 33z" />
    <glyph glyph-name="lcommaaccent" unicode="&#x13c;" horiz-adv-x="355" 
d="M237 761h33v-637q0 -32 12 -42.5t48 -14.5v-67h-308v67q36 4 48 14.5t12 42.5v502l-55 59v37zM194 -158h-59q-50 14 -50 62q0 28 23 46t62 18q45 0 71.5 -27.5t26.5 -70.5q0 -54 -43 -87t-134 -33v45q50 0 76 14q25 13 27 33z" />
    <glyph glyph-name="Lcaron" unicode="&#x13d;" horiz-adv-x="662" 
d="M466 707h155l-93 -205h-76zM310 565v-426q0 -39 17 -53t58 -14h25q46 0 73 31q21 25 87 138h82l-38 -241h-583v69q50 2 64.5 15t14.5 53v428q0 39 -14.5 52t-64.5 15v70h356v-70q-48 -2 -62.5 -15t-14.5 -52z" />
    <glyph glyph-name="lcaron" unicode="&#x13e;" horiz-adv-x="371" 
d="M346 766h155l-93 -205h-76zM237 761h33v-637q0 -32 12 -42.5t48 -14.5v-67h-308v67q36 4 48 14.5t12 42.5v502l-55 59v37z" />
    <glyph glyph-name="Ldot" unicode="&#x13f;" horiz-adv-x="662" 
d="M310 565v-426q0 -39 17 -53t58 -14h25q46 0 73 31q21 25 87 138h82l-38 -241h-583v69q50 2 64.5 15t14.5 53v428q0 39 -14.5 52t-64.5 15v70h356v-70q-48 -2 -62.5 -15t-14.5 -52zM551 315q-47 0 -75 27.5t-28 67.5t28 67.5t75 27.5q46 0 74 -27.5t28 -67.5t-28 -67.5
t-74 -27.5z" />
    <glyph glyph-name="ldot" unicode="&#x140;" horiz-adv-x="517" 
d="M237 761h33v-637q0 -32 12 -42.5t48 -14.5v-67h-308v67q36 4 48 14.5t12 42.5v502l-55 59v37zM433 290q-47 0 -75 27.5t-28 67.5t28 67.5t75 27.5q46 0 74 -27.5t28 -67.5t-28 -67.5t-74 -27.5z" />
    <glyph glyph-name="Lslash" unicode="&#x141;" horiz-adv-x="669" 
d="M317 565v-142l132 48v-75l-132 -49v-208q0 -39 17 -53t58 -14h25q46 0 73 31q21 25 87 138h82l-38 -241h-583v69q50 2 64.5 15t14.5 53v144l-79 -28v75l79 28v209q0 39 -14.5 52t-64.5 15v70h356v-70q-48 -2 -62.5 -15t-14.5 -52z" />
    <glyph glyph-name="lslash" unicode="&#x142;" horiz-adv-x="388" 
d="M253 761h33v-257l85 46v-76l-85 -46v-304q0 -32 12 -42.5t48 -14.5v-67h-308v67q36 4 48 14.5t12 42.5v215l-79 -42v76l79 42v211l-55 59v37z" />
    <glyph glyph-name="Nacute" unicode="&#x143;" horiz-adv-x="778" 
d="M339 751l72 158h185l-156 -158h-101zM110 137v447q-21 28 -36 37t-43 12v69h272l289 -380v243q0 39 -19 52.5t-69 15.5v69h256v-69q-49 -2 -63.5 -15t-14.5 -53v-565h-81l-401 503v-366q0 -39 19 -52.5t69 -15.5v-69h-257v69q50 2 64.5 15t14.5 53z" />
    <glyph glyph-name="nacute" unicode="&#x144;" horiz-adv-x="706" 
d="M310 606l68 160h184l-155 -160h-97zM438 124v254q0 32 -13.5 47.5t-47.5 15.5q-45 0 -96 -17v-300q0 -33 10.5 -43t45.5 -14v-67h-305v67q36 4 48.5 14.5t12.5 42.5v291l-56 59v36l211 55h33v-110q92 105 193 105q152 0 152 -164v-272q0 -32 12 -42.5t48 -14.5v-67h-303
v67q35 4 45 14t10 43z" />
    <glyph glyph-name="Ncommaaccent" unicode="&#x145;" horiz-adv-x="778" 
d="M110 137v447q-21 28 -36 37t-43 12v69h272l289 -380v243q0 39 -19 52.5t-69 15.5v69h256v-69q-49 -2 -63.5 -15t-14.5 -53v-565h-81l-401 503v-366q0 -39 19 -52.5t69 -15.5v-69h-257v69q50 2 64.5 15t14.5 53zM413 -158h-59q-50 14 -50 62q0 28 23 46t62 18
q45 0 71.5 -27.5t26.5 -70.5q0 -54 -43 -87t-134 -33v45q50 0 76 14q26 13 27 33z" />
    <glyph glyph-name="ncommaaccent" unicode="&#x146;" horiz-adv-x="706" 
d="M438 124v254q0 32 -13.5 47.5t-47.5 15.5q-45 0 -96 -17v-300q0 -33 10.5 -43t45.5 -14v-67h-305v67q36 4 48.5 14.5t12.5 42.5v291l-56 59v36l211 55h33v-110q92 105 193 105q152 0 152 -164v-272q0 -32 12 -42.5t48 -14.5v-67h-303v67q35 4 45 14t10 43zM383 -158h-59
q-50 14 -50 62q0 28 23 46t62 18q45 0 71.5 -27.5t26.5 -70.5q0 -54 -43 -87t-134 -33v45q50 0 76 14q26 13 27 33z" />
    <glyph glyph-name="Ncaron" unicode="&#x147;" horiz-adv-x="778" 
d="M506 921h95l-138 -169h-136l-138 169h95l111 -80zM110 137v447q-21 28 -36 37t-43 12v69h272l289 -380v243q0 39 -19 52.5t-69 15.5v69h256v-69q-49 -2 -63.5 -15t-14.5 -53v-565h-81l-401 503v-366q0 -39 19 -52.5t69 -15.5v-69h-257v69q50 2 64.5 15t14.5 53z" />
    <glyph glyph-name="ncaron" unicode="&#x148;" horiz-adv-x="706" 
d="M476 775h95l-138 -169h-136l-138 169h95l111 -80zM438 124v254q0 32 -13.5 47.5t-47.5 15.5q-45 0 -96 -17v-300q0 -33 10.5 -43t45.5 -14v-67h-305v67q36 4 48.5 14.5t12.5 42.5v291l-56 59v36l211 55h33v-110q92 105 193 105q152 0 152 -164v-272q0 -32 12 -42.5
t48 -14.5v-67h-303v67q35 4 45 14t10 43z" />
    <glyph glyph-name="Eng" unicode="&#x14a;" horiz-adv-x="778" 
d="M524 89l-324 414v-366q0 -39 19 -52.5t69 -15.5v-69h-257v69q50 2 64.5 15t14.5 53v447q-21 28 -36 37t-43 12v69h272l289 -380v243q0 39 -19 52.5t-69 15.5v69h256v-69q-49 -2 -63.5 -15t-14.5 -53v-433q0 -80 -18 -129t-54 -90q-76 -85 -150 -122l-36 34l40 60
q60 89 60 204z" />
    <glyph glyph-name="eng" unicode="&#x14b;" horiz-adv-x="687" 
d="M438 89v289q0 32 -13.5 47.5t-47.5 15.5q-45 0 -96 -17v-300q0 -33 10.5 -43t45.5 -14v-67h-305v67q36 4 48.5 14.5t12.5 42.5v291l-56 59v36l211 55h33v-110q92 105 193 105q152 0 152 -164v-264q0 -80 -18 -129t-54 -90q-72 -81 -155 -122l-36 34l41 69q22 36 28 80.5
t6 114.5z" />
    <glyph glyph-name="Omacron" unicode="&#x14c;" horiz-adv-x="766" 
d="M550 758h-318v106h318v-106zM392 712q160 0 253 -103q87 -99 87 -244q0 -171 -102 -273q-100 -102 -256 -102q-161 0 -252 104q-88 97 -88 243q0 170 102 274q101 101 256 101zM395 64q65 0 98 80q29 70 29 191q0 141 -38 222t-113 81q-65 0 -98 -79q-29 -71 -29 -192
q0 -141 38 -222t113 -81z" />
    <glyph glyph-name="omacron" unicode="&#x14d;" horiz-adv-x="637" 
d="M478 626h-308v101h308v-101zM310 -10q-123 0 -200.5 79t-77.5 197q0 132 83 213t211 81q124 0 201.5 -78.5t77.5 -196.5q0 -133 -83.5 -214t-211.5 -81zM328 61q39 0 61 51t22 133q0 107 -27 176t-75 69q-40 0 -62 -51t-22 -134q0 -107 27.5 -175.5t75.5 -68.5z" />
    <glyph glyph-name="Obreve" unicode="&#x14e;" horiz-adv-x="766" 
d="M391 746q-75 0 -117 45.5t-42 124.5h70q12 -78 89 -78t89 78h70q0 -79 -42 -124.5t-117 -45.5zM392 712q160 0 253 -103q87 -99 87 -244q0 -171 -102 -273q-100 -102 -256 -102q-161 0 -252 104q-88 97 -88 243q0 170 102 274q101 101 256 101zM395 64q65 0 98 80
q29 70 29 191q0 141 -38 222t-113 81q-65 0 -98 -79q-29 -71 -29 -192q0 -141 38 -222t113 -81z" />
    <glyph glyph-name="obreve" unicode="&#x14f;" horiz-adv-x="637" 
d="M324 603q-75 0 -117 45.5t-42 124.5h70q12 -78 89 -78t89 78h70q0 -79 -42 -124.5t-117 -45.5zM310 -10q-123 0 -200.5 79t-77.5 197q0 132 83 213t211 81q124 0 201.5 -78.5t77.5 -196.5q0 -133 -83.5 -214t-211.5 -81zM328 61q39 0 61 51t22 133q0 107 -27 176t-75 69
q-40 0 -62 -51t-22 -134q0 -107 27.5 -175.5t75.5 -68.5z" />
    <glyph glyph-name="Ohungarumlaut" unicode="&#x150;" horiz-adv-x="766" 
d="M245 751l67 158h158l-137 -158h-88zM440 751l67 158h158l-137 -158h-88zM392 712q160 0 253 -103q87 -99 87 -244q0 -171 -102 -273q-100 -102 -256 -102q-161 0 -252 104q-88 97 -88 243q0 170 102 274q101 101 256 101zM395 64q65 0 98 80q29 70 29 191q0 141 -38 222
t-113 81q-65 0 -98 -79q-29 -71 -29 -192q0 -141 38 -222t113 -81z" />
    <glyph glyph-name="ohungarumlaut" unicode="&#x151;" horiz-adv-x="637" 
d="M178 606l67 160h158l-137 -160h-88zM373 606l67 160h158l-137 -160h-88zM310 -10q-123 0 -200.5 79t-77.5 197q0 132 83 213t211 81q124 0 201.5 -78.5t77.5 -196.5q0 -133 -83.5 -214t-211.5 -81zM328 61q39 0 61 51t22 133q0 107 -27 176t-75 69q-40 0 -62 -51
t-22 -134q0 -107 27.5 -175.5t75.5 -68.5z" />
    <glyph glyph-name="OE" unicode="&#x152;" horiz-adv-x="1056" 
d="M1031 208l-31 -208h-553q-196 0 -304.5 89.5t-108.5 253.5q0 165 110 264q106 95 285 95h566v-192h-78q-26 67 -53 94.5t-83 27.5h-97v-234h74q33 0 49 17t23 61h66v-229h-66q-7 44 -23 61t-49 17h-74v-188q0 -38 19 -52.5t61 -14.5h25q49 0 82 29t84 109h76zM474 70h12
v562h-50q-87 0 -138.5 -71t-51.5 -210q0 -130 59.5 -205.5t168.5 -75.5z" />
    <glyph glyph-name="oe" unicode="&#x153;" horiz-adv-x="946" 
d="M326 560q116 0 189 -75q78 75 176 75q104 0 162 -65.5t58 -163.5v-39h-327q0 -72 42.5 -115.5t109.5 -43.5q93 0 144 68l33 -22q-19 -87 -80.5 -138t-155.5 -51q-108 0 -179 74q-81 -74 -188 -74q-123 0 -200.5 79t-77.5 197q0 132 83 213t211 81zM674 491
q-75 0 -88 -139h164q-2 139 -76 139zM328 61q39 0 61 51t22 133q0 107 -27 176t-75 69q-40 0 -62 -51t-22 -134q0 -107 27.5 -175.5t75.5 -68.5z" />
    <glyph glyph-name="Racute" unicode="&#x154;" horiz-adv-x="762" 
d="M320 751l72 158h185l-156 -158h-101zM31 630v72h370q137 0 206.5 -54t69.5 -151q0 -63 -39 -109.5t-101 -64.5l114 -182q27 -42 48.5 -56.5t58.5 -15.5v-69h-229q-43 37 -83 110l-97 179h-42v-152q0 -40 14 -53t62 -15v-69h-352v69q50 2 64.5 15t14.5 53v428
q0 40 -14.5 52.5t-64.5 12.5zM329 630h-22v-273h20q79 0 116 34.5t37 106.5q0 65 -39.5 98.5t-111.5 33.5z" />
    <glyph glyph-name="racute" unicode="&#x155;" horiz-adv-x="486" 
d="M222 606l68 160h184l-155 -160h-97zM247 565h34v-175q29 97 63.5 133.5t88.5 36.5q24 0 45 -12v-158h-24q-122 0 -173 -36v-232q0 -31 15.5 -39.5t64.5 -15.5v-67h-329v67q36 4 48.5 14.5t12.5 42.5v291l-56 59v36z" />
    <glyph glyph-name="Rcommaaccent" unicode="&#x156;" horiz-adv-x="762" 
d="M31 630v72h370q137 0 206.5 -54t69.5 -151q0 -63 -39 -109.5t-101 -64.5l114 -182q27 -42 48.5 -56.5t58.5 -15.5v-69h-229q-43 37 -83 110l-97 179h-42v-152q0 -40 14 -53t62 -15v-69h-352v69q50 2 64.5 15t14.5 53v428q0 40 -14.5 52.5t-64.5 12.5zM329 630h-22v-273
h20q79 0 116 34.5t37 106.5q0 65 -39.5 98.5t-111.5 33.5zM404 -158h-59q-50 14 -50 62q0 28 23 46t62 18q45 0 71.5 -27.5t26.5 -70.5q0 -54 -43 -87t-134 -33v45q50 0 76 14q25 13 27 33z" />
    <glyph glyph-name="rcommaaccent" unicode="&#x157;" horiz-adv-x="486" 
d="M247 565h34v-175q29 97 63.5 133.5t88.5 36.5q24 0 45 -12v-158h-24q-122 0 -173 -36v-232q0 -31 15.5 -39.5t64.5 -15.5v-67h-329v67q36 4 48.5 14.5t12.5 42.5v291l-56 59v36zM217 -158h-59q-50 14 -50 62q0 28 23 46t62 18q45 0 71.5 -27.5t26.5 -70.5q0 -54 -43 -87
t-134 -33v45q50 0 76 14q26 13 27 33z" />
    <glyph glyph-name="Rcaron" unicode="&#x158;" horiz-adv-x="762" 
d="M487 921h95l-138 -169h-136l-138 169h95l111 -80zM31 630v72h370q137 0 206.5 -54t69.5 -151q0 -63 -39 -109.5t-101 -64.5l114 -182q27 -42 48.5 -56.5t58.5 -15.5v-69h-229q-43 37 -83 110l-97 179h-42v-152q0 -40 14 -53t62 -15v-69h-352v69q50 2 64.5 15t14.5 53v428
q0 40 -14.5 52.5t-64.5 12.5zM329 630h-22v-273h20q79 0 116 34.5t37 106.5q0 65 -39.5 98.5t-111.5 33.5z" />
    <glyph glyph-name="rcaron" unicode="&#x159;" horiz-adv-x="486" 
d="M388 775h95l-138 -169h-136l-138 169h95l111 -80zM247 565h34v-175q29 97 63.5 133.5t88.5 36.5q24 0 45 -12v-158h-24q-122 0 -173 -36v-232q0 -31 15.5 -39.5t64.5 -15.5v-67h-329v67q36 4 48.5 14.5t12.5 42.5v291l-56 59v36z" />
    <glyph glyph-name="Sacute" unicode="&#x15a;" horiz-adv-x="614" 
d="M259 751l72 158h185l-156 -158h-101zM295 -10q-73 0 -138 19t-104 48l-11 167h101q21 -86 60.5 -125.5t107.5 -39.5q48 0 77 22.5t29 65.5q0 36 -29 59q-28 21 -111 44q-120 32 -174 84.5t-54 147.5q0 106 72 168t187 62q143 0 225 -60v-153h-86q-25 72 -57 108.5
t-95 36.5q-47 0 -72.5 -23t-25.5 -59q0 -44 30.5 -66t110.5 -41q118 -30 176 -83.5t58 -154.5q0 -114 -80 -172q-74 -55 -197 -55z" />
    <glyph glyph-name="sacute" unicode="&#x15b;" horiz-adv-x="516" 
d="M206 606l68 160h184l-155 -160h-97zM254 -10q-122 0 -207 58l-6 121h86q25 -113 133 -113q38 0 61.5 15t23.5 42q0 29 -23 44q-25 14 -90 29q-98 22 -144.5 65.5t-46.5 119.5q0 90 59 139.5t159 49.5q110 0 181 -47v-110h-83q-24 91 -106 91q-33 0 -51.5 -16t-18.5 -41
t20 -40q18 -15 89 -29q191 -37 191 -183q0 -93 -60 -144t-167 -51z" />
    <glyph glyph-name="Scircumflex" unicode="&#x15c;" horiz-adv-x="614" 
d="M246 918h136l138 -169h-95l-111 80l-111 -80h-95zM295 -10q-73 0 -138 19t-104 48l-11 167h101q21 -86 60.5 -125.5t107.5 -39.5q48 0 77 22.5t29 65.5q0 36 -29 59q-28 21 -111 44q-120 32 -174 84.5t-54 147.5q0 106 72 168t187 62q143 0 225 -60v-153h-86
q-25 72 -57 108.5t-95 36.5q-47 0 -72.5 -23t-25.5 -59q0 -44 30.5 -66t110.5 -41q118 -30 176 -83.5t58 -154.5q0 -114 -80 -172q-74 -55 -197 -55z" />
    <glyph glyph-name="scircumflex" unicode="&#x15d;" horiz-adv-x="516" 
d="M190 766h136l138 -169h-95l-111 80l-111 -80h-95zM254 -10q-122 0 -207 58l-6 121h86q25 -113 133 -113q38 0 61.5 15t23.5 42q0 29 -23 44q-25 14 -90 29q-98 22 -144.5 65.5t-46.5 119.5q0 90 59 139.5t159 49.5q110 0 181 -47v-110h-83q-24 91 -106 91
q-33 0 -51.5 -16t-18.5 -41t20 -40q18 -15 89 -29q191 -37 191 -183q0 -93 -60 -144t-167 -51z" />
    <glyph glyph-name="Scedilla" unicode="&#x15e;" horiz-adv-x="614" 
d="M199 -233l-11 49q55 0 85 10q30 9 30 29q0 34 -85 36l41 101q-129 7 -206 65l-11 167h101q21 -86 60.5 -125.5t107.5 -39.5q48 0 77 22.5t29 65.5q0 36 -29 59q-28 21 -111 44q-120 32 -174 84.5t-54 147.5q0 106 72 168t187 62q143 0 225 -60v-153h-86q-25 72 -57 108.5
t-95 36.5q-47 0 -72.5 -23t-25.5 -59q0 -44 30.5 -66t110.5 -41q118 -30 176 -83.5t58 -154.5q0 -108 -73 -165.5t-190 -61.5l-12 -34q97 -8 97 -78q0 -52 -57.5 -81.5t-137.5 -29.5z" />
    <glyph glyph-name="scedilla" unicode="&#x15f;" horiz-adv-x="516" 
d="M155 -233l-11 49q55 0 85 10q30 9 30 29q0 34 -85 36l41 101q-95 7 -168 56l-6 121h86q25 -113 133 -113q38 0 61.5 15t23.5 42q0 29 -23 44q-25 14 -90 29q-98 22 -144.5 65.5t-46.5 119.5q0 90 59 139.5t159 49.5q110 0 181 -47v-110h-83q-24 91 -106 91
q-33 0 -51.5 -16t-18.5 -41t20 -40q18 -15 89 -29q191 -37 191 -183q0 -89 -54.5 -139.5t-153.5 -55.5h-4h-4l-12 -34q97 -8 97 -78q0 -52 -57.5 -81.5t-137.5 -29.5z" />
    <glyph glyph-name="Scaron" unicode="&#x160;" horiz-adv-x="614" 
d="M419 921h95l-138 -169h-136l-138 169h95l111 -80zM295 -10q-73 0 -138 19t-104 48l-11 167h101q21 -86 60.5 -125.5t107.5 -39.5q48 0 77 22.5t29 65.5q0 36 -29 59q-28 21 -111 44q-120 32 -174 84.5t-54 147.5q0 106 72 168t187 62q143 0 225 -60v-153h-86
q-25 72 -57 108.5t-95 36.5q-47 0 -72.5 -23t-25.5 -59q0 -44 30.5 -66t110.5 -41q118 -30 176 -83.5t58 -154.5q0 -114 -80 -172q-74 -55 -197 -55z" />
    <glyph glyph-name="scaron" unicode="&#x161;" horiz-adv-x="516" 
d="M364 775h95l-138 -169h-136l-138 169h95l111 -80zM254 -10q-122 0 -207 58l-6 121h86q25 -113 133 -113q38 0 61.5 15t23.5 42q0 29 -23 44q-25 14 -90 29q-98 22 -144.5 65.5t-46.5 119.5q0 90 59 139.5t159 49.5q110 0 181 -47v-110h-83q-24 91 -106 91
q-33 0 -51.5 -16t-18.5 -41t20 -40q18 -15 89 -29q191 -37 191 -183q0 -93 -60 -144t-167 -51z" />
    <glyph glyph-name="uni0162" unicode="&#x162;" horiz-adv-x="714" 
d="M263 -233l-11 49q55 0 85 10q30 9 30 29q0 34 -85 36l44 109h-153v69q51 2 68.5 15.5t17.5 52.5v498h-21q-28 0 -47 -7.5t-37.5 -36t-26 -45t-30.5 -72.5q-3 -6 -4 -9h-78l15 237h654l15 -237h-79q-42 104 -63 131q-30 39 -82 39h-20v-498q0 -39 17 -52.5t67 -15.5v-69
h-162l-16 -44q97 -8 97 -78q0 -52 -57.5 -81.5t-137.5 -29.5z" />
    <glyph glyph-name="uni0163" unicode="&#x163;" horiz-adv-x="422" 
d="M114 -233l-11 49q55 0 85 10q30 9 30 29q0 34 -85 36l43 105q-38 11 -62 33q-40 39 -40 120v326h-66v55q49 15 102.5 56t94.5 91h59v-127h133v-75h-133v-308q0 -69 62 -69q36 0 74 19l20 -51q-76 -76 -185 -76h-11l-12 -34q97 -8 97 -78q0 -52 -57.5 -81.5t-137.5 -29.5z
" />
    <glyph glyph-name="Tcaron" unicode="&#x164;" horiz-adv-x="714" 
d="M468 921h95l-138 -169h-136l-138 169h95l111 -80zM15 465l15 237h654l15 -237h-79q-42 104 -63 131q-30 39 -82 39h-20v-498q0 -39 17 -52.5t67 -15.5v-69h-366v69q51 2 68.5 15.5t17.5 52.5v498h-21q-28 0 -47 -7.5t-37.5 -36t-26 -45t-30.5 -72.5q-3 -6 -4 -9h-78z" />
    <glyph glyph-name="tcaron" unicode="&#x165;" horiz-adv-x="422" 
d="M328 822h155l-93 -205h-76zM205 677h59v-127h133v-75h-133v-308q0 -69 62 -69q36 0 74 19l20 -51q-76 -76 -185 -76q-161 0 -161 159v326h-66v55q49 15 102.5 56t94.5 91z" />
    <glyph glyph-name="Tbar" unicode="&#x166;" horiz-adv-x="714" 
d="M15 465l15 237h654l15 -237h-79q-42 104 -63 131q-30 39 -82 39h-20v-234h99v-71h-99v-193q0 -39 17 -52.5t67 -15.5v-69h-366v69q51 2 68.5 15.5t17.5 52.5v193h-99v71h99v234h-21q-28 0 -47 -7.5t-37.5 -36t-26 -45t-30.5 -72.5q-3 -6 -4 -9h-78z" />
    <glyph glyph-name="tbar" unicode="&#x167;" horiz-adv-x="462" 
d="M225 677h59v-127h133v-75h-133v-95h133v-71h-133v-142q0 -69 62 -69q36 0 74 19l20 -51q-76 -76 -185 -76q-161 0 -161 159v160h-66v71h66v95h-66v55q49 15 102.5 56t94.5 91z" />
    <glyph glyph-name="Utilde" unicode="&#x168;" horiz-adv-x="775" 
d="M564 901l60 -12q-40 -94 -69 -121q-28 -28 -72 -28q-29 0 -75 30t-61 30q-14 0 -26.5 -9t-19.5 -18t-19 -28l-60 12q40 93 69 122q29 27 72 27q36 0 78 -30t58 -30q19 0 33.5 14t31.5 41zM298 565v-297q0 -84 29.5 -128t101.5 -44q73 0 113 40.5t40 140.5v288
q0 39 -19 52.5t-69 15.5v69h261v-69q-49 -2 -64 -15t-15 -53v-318q0 -127 -80 -194q-75 -63 -196 -63q-146 0 -224 65.5t-78 192.5v317q0 40 -14.5 53t-63.5 15v69h354v-69q-48 -2 -62 -15t-14 -53z" />
    <glyph glyph-name="utilde" unicode="&#x169;" horiz-adv-x="687" 
d="M485 773l60 -12q-40 -94 -69 -121q-28 -28 -72 -28q-29 0 -75 30t-61 30q-14 0 -26.5 -9t-19.5 -18t-19 -28l-60 12q40 93 69 122q28 27 72 27q36 0 78 -30t58 -30q19 0 33.5 14t31.5 41zM451 -10h-38v98q-78 -98 -188 -98q-69 0 -109 43t-40 127v231q0 51 -38 59l-15 5
v57l207 48h35v-382q0 -76 61 -76q39 0 87 16v273q0 51 -38 59l-14 5v57l205 48h36v-415q0 -53 37 -54h24v-69z" />
    <glyph glyph-name="Umacron" unicode="&#x16a;" horiz-adv-x="775" 
d="M582 758h-318v106h318v-106zM298 565v-297q0 -84 29.5 -128t101.5 -44q73 0 113 40.5t40 140.5v288q0 39 -19 52.5t-69 15.5v69h261v-69q-49 -2 -64 -15t-15 -53v-318q0 -127 -80 -194q-75 -63 -196 -63q-146 0 -224 65.5t-78 192.5v317q0 40 -14.5 53t-63.5 15v69h354
v-69q-48 -2 -62 -15t-14 -53z" />
    <glyph glyph-name="umacron" unicode="&#x16b;" horiz-adv-x="687" 
d="M506 626h-308v101h308v-101zM451 -10h-38v98q-78 -98 -188 -98q-69 0 -109 43t-40 127v231q0 51 -38 59l-15 5v57l207 48h35v-382q0 -76 61 -76q39 0 87 16v273q0 51 -38 59l-14 5v57l205 48h36v-415q0 -53 37 -54h24v-69z" />
    <glyph glyph-name="Ubreve" unicode="&#x16c;" horiz-adv-x="775" 
d="M423 746q-75 0 -117 45.5t-42 124.5h70q12 -78 89 -78t89 78h70q0 -79 -42 -124.5t-117 -45.5zM298 565v-297q0 -84 29.5 -128t101.5 -44q73 0 113 40.5t40 140.5v288q0 39 -19 52.5t-69 15.5v69h261v-69q-49 -2 -64 -15t-15 -53v-318q0 -127 -80 -194q-75 -63 -196 -63
q-146 0 -224 65.5t-78 192.5v317q0 40 -14.5 53t-63.5 15v69h354v-69q-48 -2 -62 -15t-14 -53z" />
    <glyph glyph-name="ubreve" unicode="&#x16d;" horiz-adv-x="687" 
d="M352 603q-75 0 -117 45.5t-42 124.5h70q12 -78 89 -78t89 78h70q0 -79 -42 -124.5t-117 -45.5zM451 -10h-38v98q-78 -98 -188 -98q-69 0 -109 43t-40 127v231q0 51 -38 59l-15 5v57l207 48h35v-382q0 -76 61 -76q39 0 87 16v273q0 51 -38 59l-14 5v57l205 48h36v-415
q0 -53 37 -54h24v-69z" />
    <glyph glyph-name="Uring" unicode="&#x16e;" horiz-adv-x="775" 
d="M310 840q0 43 32 72t81 29t81 -29t32 -72t-32 -72t-81 -29t-81 29t-32 72zM469 840q0 19 -12.5 31.5t-33.5 12.5t-33.5 -12.5t-12.5 -31.5t12.5 -31.5t33.5 -12.5t33.5 12.5t12.5 31.5zM298 565v-297q0 -84 29.5 -128t101.5 -44q73 0 113 40.5t40 140.5v288
q0 39 -19 52.5t-69 15.5v69h261v-69q-49 -2 -64 -15t-15 -53v-318q0 -127 -80 -194q-75 -63 -196 -63q-146 0 -224 65.5t-78 192.5v317q0 40 -14.5 53t-63.5 15v69h354v-69q-48 -2 -62 -15t-14 -53z" />
    <glyph glyph-name="uring" unicode="&#x16f;" horiz-adv-x="687" 
d="M239 698q0 43 32 72t81 29t81 -29t32 -72t-32 -72t-81 -29t-81 29t-32 72zM398 698q0 19 -12.5 31.5t-33.5 12.5t-33.5 -12.5t-12.5 -31.5t12.5 -31.5t33.5 -12.5t33.5 12.5t12.5 31.5zM451 -10h-38v98q-78 -98 -188 -98q-69 0 -109 43t-40 127v231q0 51 -38 59l-15 5v57
l207 48h35v-382q0 -76 61 -76q39 0 87 16v273q0 51 -38 59l-14 5v57l205 48h36v-415q0 -53 37 -54h24v-69z" />
    <glyph glyph-name="Uhungarumlaut" unicode="&#x170;" horiz-adv-x="775" 
d="M277 751l67 158h158l-137 -158h-88zM472 751l67 158h158l-137 -158h-88zM298 565v-297q0 -84 29.5 -128t101.5 -44q73 0 113 40.5t40 140.5v288q0 39 -19 52.5t-69 15.5v69h261v-69q-49 -2 -64 -15t-15 -53v-318q0 -127 -80 -194q-75 -63 -196 -63q-146 0 -224 65.5
t-78 192.5v317q0 40 -14.5 53t-63.5 15v69h354v-69q-48 -2 -62 -15t-14 -53z" />
    <glyph glyph-name="uhungarumlaut" unicode="&#x171;" horiz-adv-x="687" 
d="M182 606l67 160h158l-137 -160h-88zM377 606l67 160h158l-137 -160h-88zM451 -10h-38v98q-78 -98 -188 -98q-69 0 -109 43t-40 127v231q0 51 -38 59l-15 5v57l207 48h35v-382q0 -76 61 -76q39 0 87 16v273q0 51 -38 59l-14 5v57l205 48h36v-415q0 -53 37 -54h24v-69z" />
    <glyph glyph-name="Uogonek" unicode="&#x172;" horiz-adv-x="775" 
d="M435 -216q-41 0 -68.5 23t-27.5 61q0 69 79 123q-3 -1 -9 -1h-9q-146 0 -224 65.5t-78 192.5v317q0 40 -14.5 53t-63.5 15v69h354v-69q-48 -2 -62 -15t-14 -53v-297q0 -84 29.5 -128t101.5 -44q73 0 113 40.5t40 140.5v288q0 39 -19 52.5t-69 15.5v69h261v-69
q-49 -2 -64 -15t-15 -53v-318q0 -84 -36.5 -142t-100.5 -87q-91 -46 -91 -110q0 -17 10.5 -29t32.5 -12q36 0 70 20l19 -28q-69 -75 -145 -75z" />
    <glyph glyph-name="uogonek" unicode="&#x173;" horiz-adv-x="687" 
d="M639 91h24v-69q-126 -23 -181 -56q-41 -24 -41 -58q0 -17 10.5 -29t32.5 -12q36 0 70 20l19 -28q-69 -75 -145 -75q-41 0 -68.5 23t-27.5 61q0 66 81 119v101q-78 -98 -188 -98q-69 0 -109 43t-40 127v231q0 51 -38 59l-15 5v57l207 48h35v-382q0 -76 61 -76q39 0 87 16
v273q0 51 -38 59l-14 5v57l205 48h36v-415q0 -53 37 -54z" />
    <glyph glyph-name="Wcircumflex" unicode="&#x174;" horiz-adv-x="1031" 
d="M489 918h136l138 -169h-95l-111 80l-111 -80h-95zM675 527l81 -249l93 253q15 48 15 58q0 23 -13.5 32.5t-55.5 11.5v69h229v-69q-17 -3 -25.5 -5.5t-18.5 -10.5t-15 -21l-225 -600h-75l-138 385l-145 -385h-73l-245 600q-13 29 -57 37v69h338v-69q-32 -3 -45.5 -13
t-13.5 -31q0 -17 13 -50l104 -268l84 221l-35 104q-12 30 -50 37v69h328v-69q-43 -2 -56 -11.5t-13 -32.5q0 -7 3 -21q1 -12 11 -41z" />
    <glyph glyph-name="wcircumflex" unicode="&#x175;" horiz-adv-x="900" 
d="M422 766h136l138 -169h-95l-111 80l-111 -80h-95zM610 415l64 -173l69 173q7 18 7 33q0 17 -11 24.5t-35 11.5v66h191v-66q-27 -10 -38.5 -17.5t-17.5 -22.5l-186 -448h-61l-130 315l-140 -315h-60l-201 448q-7 15 -18 23t-38 17v66h307v-66q-38 -7 -38 -33q0 -7 10 -37
l70 -178l70 162l-18 46q-13 34 -44 40v66h286v-66q-26 -4 -36 -11t-10 -23q0 -13 8 -35z" />
    <glyph glyph-name="Ycircumflex" unicode="&#x176;" horiz-adv-x="711" 
d="M319 918h136l138 -169h-95l-111 80l-111 -80h-95zM311 533l102 -190l104 190q24 43 24 61q0 38 -67 39v69h230v-69q-43 -8 -58 -37l-189 -340v-119q0 -39 17 -52.5t68 -15.5v-69h-366v69q50 2 67.5 15.5t17.5 52.5v120l-197 339q-11 18 -23 25.5t-34 11.5v69h346v-69
q-38 -1 -51.5 -9.5t-13.5 -29.5q0 -17 23 -61z" />
    <glyph glyph-name="ycircumflex" unicode="&#x177;" horiz-adv-x="622" 
d="M289 766h136l138 -169h-95l-111 80l-111 -80h-95zM270 -12l5 10l-214 446q-7 15 -18 23t-38 17v66h336v-66q-38 -4 -53 -11t-15 -25q0 -4 2 -14q1 -8 9 -25l84 -204l86 205q8 16 9 24q2 10 2 14q0 18 -13 25q-15 7 -53 11v66h218v-66q-27 -9 -38 -17t-18 -23l-231 -517
q-31 -70 -68.5 -102.5t-88.5 -32.5q-61 0 -86 39v95h60q56 0 80 10.5t43 51.5z" />
    <glyph glyph-name="Ydieresis" unicode="&#x178;" horiz-adv-x="711" 
d="M188 831q0 36 26 62t63 26t63.5 -26t26.5 -62t-26.5 -62t-63.5 -26t-63 26t-26 62zM408 831q0 36 26.5 62t61.5 26q38 0 64.5 -26t26.5 -62t-26.5 -62t-64.5 -26q-35 0 -61.5 26t-26.5 62zM311 533l102 -190l104 190q24 43 24 61q0 38 -67 39v69h230v-69q-43 -8 -58 -37
l-189 -340v-119q0 -39 17 -52.5t68 -15.5v-69h-366v69q50 2 67.5 15.5t17.5 52.5v120l-197 339q-11 18 -23 25.5t-34 11.5v69h346v-69q-38 -1 -51.5 -9.5t-13.5 -29.5q0 -17 23 -61z" />
    <glyph glyph-name="Zacute" unicode="&#x179;" horiz-adv-x="649" 
d="M286 751l72 158h185l-156 -158h-101zM613 653l-356 -581h128q54 0 83 28q31 31 86 134h76l-35 -234h-573v48l359 581h-121q-20 0 -35.5 -5.5t-25 -10.5t-21 -22.5t-16 -24.5t-17.5 -35.5t-18 -38.5h-71v210h557v-49z" />
    <glyph glyph-name="zacute" unicode="&#x17a;" horiz-adv-x="575" 
d="M239 606l68 160h184l-155 -160h-97zM519 0h-493v47l280 435h-84q-41 0 -61 -30q-20 -32 -51 -109h-69v207h488v-50l-272 -431h77q47 0 71.5 26.5t66.5 112.5h70z" />
    <glyph glyph-name="Zdotaccent" unicode="&#x17b;" horiz-adv-x="649" 
d="M343 743q-47 0 -75 27.5t-28 67.5t28 67.5t75 27.5q46 0 74 -27.5t28 -67.5t-28 -67.5t-74 -27.5zM613 653l-356 -581h128q54 0 83 28q31 31 86 134h76l-35 -234h-573v48l359 581h-121q-20 0 -35.5 -5.5t-25 -10.5t-21 -22.5t-16 -24.5t-17.5 -35.5t-18 -38.5h-71v210
h557v-49z" />
    <glyph glyph-name="zdotaccent" unicode="&#x17c;" horiz-adv-x="575" 
d="M295 598q-47 0 -75 27.5t-28 67.5t28 67.5t75 27.5q46 0 74 -27.5t28 -67.5t-28 -67.5t-74 -27.5zM519 0h-493v47l280 435h-84q-41 0 -61 -30q-20 -32 -51 -109h-69v207h488v-50l-272 -431h77q47 0 71.5 26.5t66.5 112.5h70z" />
    <glyph glyph-name="Zcaron" unicode="&#x17d;" horiz-adv-x="649" 
d="M453 921h95l-138 -169h-136l-138 169h95l111 -80zM613 653l-356 -581h128q54 0 83 28q31 31 86 134h76l-35 -234h-573v48l359 581h-121q-20 0 -35.5 -5.5t-25 -10.5t-21 -22.5t-16 -24.5t-17.5 -35.5t-18 -38.5h-71v210h557v-49z" />
    <glyph glyph-name="zcaron" unicode="&#x17e;" horiz-adv-x="575" 
d="M405 775h95l-138 -169h-136l-138 169h95l111 -80zM519 0h-493v47l280 435h-84q-41 0 -61 -30q-20 -32 -51 -109h-69v207h488v-50l-272 -431h77q47 0 71.5 26.5t66.5 112.5h70z" />
    <glyph glyph-name="florin" unicode="&#x192;" horiz-adv-x="560" 
d="M139 289h-94l8 62h93l5 42q18 160 80.5 239.5t179.5 79.5q62 0 105.5 -22t43.5 -71q0 -51 -47 -67h-64q0 25 -1 41.5t-5 34t-12.5 26t-21.5 8.5q-35 0 -41 -58l-28 -253h111l-5 -62h-112l-16 -145q-18 -160 -80.5 -239.5t-179.5 -79.5q-62 0 -105.5 22t-43.5 71
q0 51 47 67h64q0 -25 1 -41.5t5 -34t12.5 -26t21.5 -8.5q35 0 41 58z" />
    <glyph glyph-name="Aringacute" unicode="&#x1fa;" horiz-adv-x="758" 
d="M306 941l45 120h185l-139 -120h-91zM231 824q0 41 33 65.5t85 24.5t85 -24.5t33 -65.5t-33 -65.5t-85 -24.5t-85 24.5t-33 65.5zM401 824q0 18 -14 28.5t-38 10.5t-38 -10.5t-14 -28.5t14 -28.5t38 -10.5t38 10.5t14 28.5zM463 153l-24 60h-244l-23 -60q-9 -27 -9 -40
q0 -24 13 -33t57 -11v-69h-226v69q24 4 36.5 11.5t20.5 25.5l205 517l-35 80h205l254 -597q8 -18 21 -25.5t37 -11.5v-69h-347v69q42 2 56 11t14 33q0 16 -11 40zM411 282l-96 240l-93 -240h189z" />
    <glyph glyph-name="aringacute" unicode="&#x1fb;" horiz-adv-x="591" 
d="M245 788l45 120h185l-139 -120h-91zM170 671q0 41 33 65.5t85 24.5t85 -24.5t33 -65.5t-33 -65.5t-85 -24.5t-85 24.5t-33 65.5zM340 671q0 18 -14 28.5t-38 10.5t-38 -10.5t-14 -28.5t14 -28.5t38 -10.5t38 10.5t14 28.5zM510 342v-31v-66q-1 -24 -1 -66v-32
q0 -52 30 -52q23 0 42 6l9 -51q-26 -25 -66 -42.5t-80 -17.5q-84 0 -117 91q-63 -87 -158 -87q-64 0 -102.5 38t-38.5 103q0 60 35.5 91.5t99.5 53.5l161 56v62q0 56 -13 78.5t-43 22.5q-51 0 -51 -62q0 -38 9 -69l-120 -18q-43 13 -43 70q0 69 60.5 104.5t161.5 35.5
q114 0 169.5 -47.5t55.5 -170.5zM279 102q26 0 45 13v165l-59 -24q-49 -18 -49 -75q0 -36 16.5 -57.5t46.5 -21.5z" />
    <glyph glyph-name="AEacute" unicode="&#x1fc;" horiz-adv-x="1057" 
d="M561 751l72 158h185l-156 -158h-101zM64 106l331 487q-8 21 -26.5 29.5t-60.5 10.5v69h688v-192h-78q-26 67 -53 94.5t-83 27.5h-97v-234h74q33 0 49 17t23 61h66v-229h-66q-7 44 -23 61t-49 17h-74v-188q0 -38 19 -52.5t61 -14.5h25q49 0 82 29t84 109h76l-31 -208h-593
v69q50 2 64.5 15t14.5 53v106h-233l-48 -71q-24 -35 -24 -60q0 -24 14 -32.5t58 -10.5v-69h-247v69q20 4 32 11.5t25 25.5zM487 312v274l-186 -274h186z" />
    <glyph glyph-name="aeacute" unicode="&#x1fd;" horiz-adv-x="858" 
d="M393 606l68 160h184l-155 -160h-97zM603 560q104 0 162 -65.5t58 -163.5v-39h-327q0 -72 42.5 -115.5t109.5 -43.5q93 0 144 68l33 -22q-19 -87 -80.5 -138t-155.5 -51q-70 0 -126 29t-89 83q-35 -54 -87.5 -81t-107.5 -27q-68 0 -109.5 40t-41.5 101t37.5 95t104.5 52
l170 47l3 11q-1 82 -20 121q-18 38 -55 38q-51 0 -51 -62q0 -38 9 -69l-120 -18q-43 13 -43 70q0 69 58.5 104.5t150.5 35.5q121 0 164 -60q73 60 167 60zM586 491q-75 0 -88 -139h164q-2 139 -76 139zM334 257v14l-67 -19q-51 -13 -51 -79q0 -29 17 -50t46 -21q42 0 80 27
q-25 56 -25 128z" />
    <glyph glyph-name="Oslashacute" unicode="&#x1fe;" horiz-adv-x="770" 
d="M329 751l72 158h185l-156 -158h-101zM581 760l61 -32l-44 -77q65 -47 100.5 -122.5t35.5 -163.5q0 -171 -102 -273q-100 -102 -256 -102q-72 0 -139 25l-48 -84l-61 32l48 85q-68 46 -104 122.5t-36 166.5q0 170 102 274q101 101 256 101q76 0 144 -28zM242 367
q0 -103 18 -171l218 384q-39 58 -105 58q-65 0 -100 -79q-31 -72 -31 -192zM397 64q66 0 100 80q31 71 31 191q0 96 -17 164l-217 -382q37 -53 103 -53z" />
    <glyph glyph-name="oslashacute" unicode="&#x1ff;" horiz-adv-x="637" 
d="M263 606l68 160h184l-155 -160h-97zM485 611l49 -26l-43 -73q54 -37 84 -96t30 -131q0 -133 -83.5 -214t-211.5 -81q-61 0 -117 22l-54 -90l-49 26l54 91q-53 37 -82.5 96t-29.5 131q0 132 83 213t211 81q57 0 116 -22zM220 305q0 -65 9 -124l155 260q-26 49 -75 49
q-41 0 -65 -51.5t-24 -133.5zM328 61q39 0 63.5 51.5t24.5 132.5q0 76 -10 126l-155 -261q26 -49 77 -49z" />
    <glyph glyph-name="Scommaaccent" unicode="&#x218;" horiz-adv-x="614" 
d="M295 -10q-73 0 -138 19t-104 48l-11 167h101q21 -86 60.5 -125.5t107.5 -39.5q48 0 77 22.5t29 65.5q0 36 -29 59q-28 21 -111 44q-120 32 -174 84.5t-54 147.5q0 106 72 168t187 62q143 0 225 -60v-153h-86q-25 72 -57 108.5t-95 36.5q-47 0 -72.5 -23t-25.5 -59
q0 -44 30.5 -66t110.5 -41q118 -30 176 -83.5t58 -154.5q0 -114 -80 -172q-74 -55 -197 -55zM331 -158h-59q-50 14 -50 62q0 28 23 46t62 18q45 0 71.5 -27.5t26.5 -70.5q0 -54 -43 -87t-134 -33v45q50 0 76 14q26 13 27 33z" />
    <glyph glyph-name="scommaaccent" unicode="&#x219;" horiz-adv-x="516" 
d="M254 -10q-122 0 -207 58l-6 121h86q25 -113 133 -113q38 0 61.5 15t23.5 42q0 29 -23 44q-25 14 -90 29q-98 22 -144.5 65.5t-46.5 119.5q0 90 59 139.5t159 49.5q110 0 181 -47v-110h-83q-24 91 -106 91q-33 0 -51.5 -16t-18.5 -41t20 -40q18 -15 89 -29
q191 -37 191 -183q0 -93 -60 -144t-167 -51zM279 -158h-59q-50 14 -50 62q0 28 23 46t62 18q45 0 71.5 -27.5t26.5 -70.5q0 -54 -43 -87t-134 -33v45q50 0 76 14q26 13 27 33z" />
    <glyph glyph-name="uni021A" unicode="&#x21a;" horiz-adv-x="714" 
d="M15 465l15 237h654l15 -237h-79q-42 104 -63 131q-30 39 -82 39h-20v-498q0 -39 17 -52.5t67 -15.5v-69h-366v69q51 2 68.5 15.5t17.5 52.5v498h-21q-28 0 -47 -7.5t-37.5 -36t-26 -45t-30.5 -72.5q-3 -6 -4 -9h-78zM375 -158h-59q-50 14 -50 62q0 28 23 46t62 18
q45 0 71.5 -27.5t26.5 -70.5q0 -54 -43 -87t-134 -33v45q50 0 76 14q26 13 27 33z" />
    <glyph glyph-name="uni021B" unicode="&#x21b;" horiz-adv-x="422" 
d="M205 677h59v-127h133v-75h-133v-308q0 -69 62 -69q36 0 74 19l20 -51q-76 -76 -185 -76q-161 0 -161 159v326h-66v55q49 15 102.5 56t94.5 91zM232 -158h-59q-50 14 -50 62q0 28 23 46t62 18q45 0 71.5 -27.5t26.5 -70.5q0 -54 -43 -87t-134 -33v45q50 0 76 14
q25 13 27 33z" />
    <glyph glyph-name="uni0237" unicode="&#x237;" horiz-adv-x="323" 
d="M229 561h33v-429q0 -80 -18 -129t-54 -90q-72 -81 -155 -122l-36 34l41 69q22 36 27.5 79.5t5.5 115.5v330l-55 60v31z" />
    <glyph glyph-name="circumflex" unicode="&#x2c6;" horiz-adv-x="500" 
d="M182 766h136l138 -169h-95l-111 80l-111 -80h-95z" />
    <glyph glyph-name="caron" unicode="&#x2c7;" horiz-adv-x="500" 
d="M361 775h95l-138 -169h-136l-138 169h95l111 -80z" />
    <glyph glyph-name="breve" unicode="&#x2d8;" horiz-adv-x="500" 
d="M258 603q-75 0 -117 45.5t-42 124.5h70q12 -78 89 -78t89 78h70q0 -79 -42 -124.5t-117 -45.5z" />
    <glyph glyph-name="dotaccent" unicode="&#x2d9;" horiz-adv-x="500" 
d="M251 598q-47 0 -75 27.5t-28 67.5t28 67.5t75 27.5q46 0 74 -27.5t28 -67.5t-28 -67.5t-74 -27.5z" />
    <glyph glyph-name="ring" unicode="&#x2da;" horiz-adv-x="500" 
d="M148 698q0 43 32 72t81 29t81 -29t32 -72t-32 -72t-81 -29t-81 29t-32 72zM307 698q0 19 -12.5 31.5t-33.5 12.5t-33.5 -12.5t-12.5 -31.5t12.5 -31.5t33.5 -12.5t33.5 12.5t12.5 31.5z" />
    <glyph glyph-name="ogonek" unicode="&#x2db;" horiz-adv-x="500" 
d="M325 43l13 -24q-93 -47 -93 -111q0 -17 10.5 -29t32.5 -12q36 0 70 20l19 -28q-69 -75 -145 -75q-41 0 -68.5 23t-27.5 61q0 61 60 108q46 37 129 67z" />
    <glyph glyph-name="tilde" unicode="&#x2dc;" horiz-adv-x="500" 
d="M391 773l60 -12q-40 -94 -69 -121q-28 -28 -72 -28q-29 0 -75 30t-61 30q-14 0 -26.5 -9t-19.5 -18t-19 -28l-60 12q40 93 69 122q28 27 72 27q36 0 78 -30t58 -30q19 0 33.5 14t31.5 41z" />
    <glyph glyph-name="hungarumlaut" unicode="&#x2dd;" horiz-adv-x="500" 
d="M45 606l67 160h158l-137 -160h-88zM240 606l67 160h158l-137 -160h-88z" />
    <glyph glyph-name="uni03A9" unicode="&#x3a9;" horiz-adv-x="756" 
d="M378 639q-62 0 -94.5 -68t-32.5 -171q0 -70 16.5 -133.5t33.5 -98t45 -78.5v-90h-271l-25 198h41q33 -60 54 -74q22 -14 88 -14h53q-84 25 -150 104q-71 85 -71 186q0 132 84 221q88 91 229 91q142 0 230 -91q83 -88 83 -221q0 -103 -70 -186q-66 -78 -151 -104h53
q66 0 88 14q21 14 54 74h41l-25 -198h-271v90q28 44 45 78.5t33.5 98t16.5 133.5q0 103 -32.5 171t-94.5 68z" />
    <glyph glyph-name="uni03BC" unicode="&#x3bc;" horiz-adv-x="682" 
d="M249 -6l13 -155v-26l-186 -10v588q0 51 -38 59l-15 5v57l207 48h35v-382q0 -76 61 -76q34 0 82 16v273q0 51 -38 59l-14 5v57l205 48h36v-415q0 -53 37 -54h24v-69l-212 -32h-38v98q-61 -79 -129 -91q-3 0 -14.5 -1.5t-15.5 -1.5z" />
    <glyph glyph-name="pi" unicode="&#x3c0;" horiz-adv-x="690" 
d="M369 157v265h-87q0 -154 -8 -238q-7 -76 -32 -184h-191v47q26 46 40 73.5t32.5 75.5t26.5 103.5t8 122.5h-108v128h590l-17 -128h-80v-275q0 -22 12 -37t30 -15q23 0 42 6l9 -51q-26 -25 -66 -42.5t-80 -17.5q-64 0 -92.5 40.5t-28.5 126.5z" />
    <glyph glyph-name="Wgrave" unicode="&#x1e80;" horiz-adv-x="1031" 
d="M521 751l-156 158h185l72 -158h-101zM675 527l81 -249l93 253q15 48 15 58q0 23 -13.5 32.5t-55.5 11.5v69h229v-69q-17 -3 -25.5 -5.5t-18.5 -10.5t-15 -21l-225 -600h-75l-138 385l-145 -385h-73l-245 600q-13 29 -57 37v69h338v-69q-32 -3 -45.5 -13t-13.5 -31
q0 -17 13 -50l104 -268l84 221l-35 104q-12 30 -50 37v69h328v-69q-43 -2 -56 -11.5t-13 -32.5q0 -7 3 -21q1 -12 11 -41z" />
    <glyph glyph-name="wgrave" unicode="&#x1e81;" horiz-adv-x="900" 
d="M447 606l-155 160h184l67 -160h-96zM610 415l64 -173l69 173q7 18 7 33q0 17 -11 24.5t-35 11.5v66h191v-66q-27 -10 -38.5 -17.5t-17.5 -22.5l-186 -448h-61l-130 315l-140 -315h-60l-201 448q-7 15 -18 23t-38 17v66h307v-66q-38 -7 -38 -33q0 -7 10 -37l70 -178
l70 162l-18 46q-13 34 -44 40v66h286v-66q-26 -4 -36 -11t-10 -23q0 -13 8 -35z" />
    <glyph glyph-name="Wacute" unicode="&#x1e82;" horiz-adv-x="1031" 
d="M501 751l72 158h185l-156 -158h-101zM675 527l81 -249l93 253q15 48 15 58q0 23 -13.5 32.5t-55.5 11.5v69h229v-69q-17 -3 -25.5 -5.5t-18.5 -10.5t-15 -21l-225 -600h-75l-138 385l-145 -385h-73l-245 600q-13 29 -57 37v69h338v-69q-32 -3 -45.5 -13t-13.5 -31
q0 -17 13 -50l104 -268l84 221l-35 104q-12 30 -50 37v69h328v-69q-43 -2 -56 -11.5t-13 -32.5q0 -7 3 -21q1 -12 11 -41z" />
    <glyph glyph-name="wacute" unicode="&#x1e83;" horiz-adv-x="900" 
d="M435 606l68 160h184l-155 -160h-97zM610 415l64 -173l69 173q7 18 7 33q0 17 -11 24.5t-35 11.5v66h191v-66q-27 -10 -38.5 -17.5t-17.5 -22.5l-186 -448h-61l-130 315l-140 -315h-60l-201 448q-7 15 -18 23t-38 17v66h307v-66q-38 -7 -38 -33q0 -7 10 -37l70 -178
l70 162l-18 46q-13 34 -44 40v66h286v-66q-26 -4 -36 -11t-10 -23q0 -13 8 -35z" />
    <glyph glyph-name="Wdieresis" unicode="&#x1e84;" horiz-adv-x="1031" 
d="M358 831q0 36 26 62t63 26t63.5 -26t26.5 -62t-26.5 -62t-63.5 -26t-63 26t-26 62zM578 831q0 36 26.5 62t61.5 26q38 0 64.5 -26t26.5 -62t-26.5 -62t-64.5 -26q-35 0 -61.5 26t-26.5 62zM675 527l81 -249l93 253q15 48 15 58q0 23 -13.5 32.5t-55.5 11.5v69h229v-69
q-17 -3 -25.5 -5.5t-18.5 -10.5t-15 -21l-225 -600h-75l-138 385l-145 -385h-73l-245 600q-13 29 -57 37v69h338v-69q-32 -3 -45.5 -13t-13.5 -31q0 -17 13 -50l104 -268l84 221l-35 104q-12 30 -50 37v69h328v-69q-43 -2 -56 -11.5t-13 -32.5q0 -7 3 -21q1 -12 11 -41z" />
    <glyph glyph-name="wdieresis" unicode="&#x1e85;" horiz-adv-x="900" 
d="M291 691q0 36 26 62t63 26t63.5 -26t26.5 -62t-26.5 -62t-63.5 -26t-63 26t-26 62zM511 691q0 36 26.5 62t61.5 26q38 0 64.5 -26t26.5 -62t-26.5 -62t-64.5 -26q-35 0 -61.5 26t-26.5 62zM610 415l64 -173l69 173q7 18 7 33q0 17 -11 24.5t-35 11.5v66h191v-66
q-27 -10 -38.5 -17.5t-17.5 -22.5l-186 -448h-61l-130 315l-140 -315h-60l-201 448q-7 15 -18 23t-38 17v66h307v-66q-38 -7 -38 -33q0 -7 10 -37l70 -178l70 162l-18 46q-13 34 -44 40v66h286v-66q-26 -4 -36 -11t-10 -23q0 -13 8 -35z" />
    <glyph glyph-name="Ygrave" unicode="&#x1ef2;" horiz-adv-x="711" 
d="M351 751l-156 158h185l72 -158h-101zM311 533l102 -190l104 190q24 43 24 61q0 38 -67 39v69h230v-69q-43 -8 -58 -37l-189 -340v-119q0 -39 17 -52.5t68 -15.5v-69h-366v69q50 2 67.5 15.5t17.5 52.5v120l-197 339q-11 18 -23 25.5t-34 11.5v69h346v-69
q-38 -1 -51.5 -9.5t-13.5 -29.5q0 -17 23 -61z" />
    <glyph glyph-name="ygrave" unicode="&#x1ef3;" horiz-adv-x="622" 
d="M314 606l-155 160h184l67 -160h-96zM270 -12l5 10l-214 446q-7 15 -18 23t-38 17v66h336v-66q-38 -4 -53 -11t-15 -25q0 -4 2 -14q1 -8 9 -25l84 -204l86 205q8 16 9 24q2 10 2 14q0 18 -13 25q-15 7 -53 11v66h218v-66q-27 -9 -38 -17t-18 -23l-231 -517
q-31 -70 -68.5 -102.5t-88.5 -32.5q-61 0 -86 39v95h60q56 0 80 10.5t43 51.5z" />
    <glyph glyph-name="endash" unicode="&#x2013;" horiz-adv-x="580" 
d="M530 348v-86h-480v86h480z" />
    <glyph glyph-name="emdash" unicode="&#x2014;" horiz-adv-x="1000" 
d="M50 348h900v-86h-900v86z" />
    <glyph glyph-name="quoteleft" unicode="&#x2018;" horiz-adv-x="320" 
d="M160 640h43q67 -14 67 -91q0 -38 -26 -64.5t-70 -26.5q-50 0 -79.5 32.5t-29.5 94.5q0 86 52.5 134t156.5 51v-59q-53 -4 -80 -20t-34 -51z" />
    <glyph glyph-name="quoteright" unicode="&#x2019;" horiz-adv-x="320" 
d="M170 588h-43q-67 14 -67 91q0 38 26 64.5t70 26.5q50 0 79.5 -32.5t29.5 -94.5q0 -86 -52.5 -134t-156.5 -51v59q53 4 80 20t34 51z" />
    <glyph glyph-name="quotesinglbase" unicode="&#x201a;" horiz-adv-x="320" 
d="M170 9h-43q-67 14 -67 91q0 38 26 64.5t70 26.5q50 0 79.5 -32.5t29.5 -94.5q0 -86 -52.5 -134t-156.5 -51v59q53 4 80 20t34 51z" />
    <glyph glyph-name="quotedblleft" unicode="&#x201c;" horiz-adv-x="577" 
d="M160 640h43q67 -14 67 -91q0 -38 -26 -64.5t-70 -26.5q-50 0 -79.5 32.5t-29.5 94.5q0 86 52.5 134t156.5 51v-59q-53 -4 -80 -20t-34 -51zM417 640h43q67 -14 67 -91q0 -38 -26 -64.5t-70 -26.5q-50 0 -79.5 32.5t-29.5 94.5q0 86 52.5 134t156.5 51v-59q-53 -4 -80 -20
t-34 -51z" />
    <glyph glyph-name="quotedblright" unicode="&#x201d;" horiz-adv-x="577" 
d="M170 588h-43q-67 14 -67 91q0 38 26 64.5t70 26.5q50 0 79.5 -32.5t29.5 -94.5q0 -86 -52.5 -134t-156.5 -51v59q53 4 80 20t34 51zM427 588h-43q-67 14 -67 91q0 38 26 64.5t70 26.5q50 0 79.5 -32.5t29.5 -94.5q0 -86 -52.5 -134t-156.5 -51v59q53 4 80 20t34 51z" />
    <glyph glyph-name="quotedblbase" unicode="&#x201e;" horiz-adv-x="577" 
d="M170 9h-43q-67 14 -67 91q0 38 26 64.5t70 26.5q50 0 79.5 -32.5t29.5 -94.5q0 -86 -52.5 -134t-156.5 -51v59q53 4 80 20t34 51zM427 9h-43q-67 14 -67 91q0 38 26 64.5t70 26.5q50 0 79.5 -32.5t29.5 -94.5q0 -86 -52.5 -134t-156.5 -51v59q53 4 80 20t34 51z" />
    <glyph glyph-name="dagger" unicode="&#x2020;" horiz-adv-x="502" 
d="M45 504v101l175 -22l-22 175h105l-23 -175l177 22v-101l-177 21l23 -303h-105l23 303z" />
    <glyph glyph-name="daggerdbl" unicode="&#x2021;" horiz-adv-x="502" 
d="M221 428v124l-176 -21v101l175 -22l-22 148h105l-23 -148l177 22v-101l-177 21v-124l177 21v-101l-177 22l23 -148h-105l22 148l-175 -22v101z" />
    <glyph glyph-name="bullet" unicode="&#x2022;" horiz-adv-x="422" 
d="M50 309q0 68 47.5 116.5t113.5 48.5t113.5 -48.5t47.5 -116.5q0 -66 -47.5 -115t-113.5 -49t-113.5 49t-47.5 115z" />
    <glyph glyph-name="ellipsis" unicode="&#x2026;" horiz-adv-x="915" 
d="M45 97q0 47 31 77.5t76 30.5q46 0 77 -30.5t31 -77.5t-31 -77t-77 -30q-45 0 -76 30t-31 77zM350 97q0 47 31 77.5t76 30.5q46 0 77 -30.5t31 -77.5t-31 -77t-77 -30q-45 0 -76 30t-31 77zM655 97q0 47 31 77.5t76 30.5q46 0 77 -30.5t31 -77.5t-31 -77t-77 -30
q-45 0 -76 30t-31 77z" />
    <glyph glyph-name="perthousand" unicode="&#x2030;" horiz-adv-x="1340" 
d="M278 -19h-76l448 741h78zM35 523q0 90 54.5 139.5t134.5 49.5q79 0 133.5 -50t54.5 -139t-54.5 -138.5t-133.5 -49.5q-80 0 -134.5 49.5t-54.5 138.5zM164 523q0 -63 16 -101.5t44 -38.5q27 0 43 39t16 101q0 61 -15 102q-16 39 -44 39q-29 0 -44.5 -38.5t-15.5 -102.5z
M895 179q0 -90 -54.5 -139.5t-134.5 -49.5q-79 0 -133.5 50t-54.5 139t54.5 138.5t133.5 49.5q80 0 134.5 -49.5t54.5 -138.5zM1305 179q0 -90 -54.5 -139.5t-134.5 -49.5q-79 0 -133.5 50t-54.5 139t54.5 138.5t133.5 49.5q80 0 134.5 -49.5t54.5 -138.5zM766 179
q0 63 -16 101.5t-44 38.5q-27 0 -43 -39t-16 -101q0 -63 16 -101q15 -40 43 -40q29 0 44.5 38.5t15.5 102.5zM1176 179q0 63 -16 101.5t-44 38.5q-27 0 -43 -39t-16 -101q0 -63 16 -101q15 -40 43 -40q29 0 44.5 38.5t15.5 102.5z" />
    <glyph glyph-name="guilsinglleft" unicode="&#x2039;" horiz-adv-x="338" 
d="M216 71l-181 200v10l181 200h87l-113 -205l113 -205h-87z" />
    <glyph glyph-name="guilsinglright" unicode="&#x203a;" horiz-adv-x="338" 
d="M124 481l179 -200v-10l-179 -200h-89l114 205l-114 205h89z" />
    <glyph glyph-name="fraction" unicode="&#x2044;" horiz-adv-x="283" 
d="M-74 0h-86l517 780h86z" />
    <glyph glyph-name="Euro" unicode="&#x20ac;" horiz-adv-x="713" 
d="M114 383h-86v58h95q28 124 117.5 197.5t211.5 73.5q132 0 205 -67v-162h-90q-17 80 -44 117.5t-81 37.5q-112 0 -132 -197h203l-8 -58h-198v-17v-24q0 -16 1 -23h190l-8 -59h-177q26 -191 137 -191q55 0 90 39.5t58 128.5h86l-13 -192q-79 -55 -228 -55q-132 0 -218 72
t-107 198h-90v59h84v18q0 16 2 46z" />
    <glyph glyph-name="uni2117" unicode="&#x2117;" horiz-adv-x="796" 
d="M40 351q0 152 101 255q103 106 257 106t258 -106q100 -103 100 -255t-100 -255q-104 -106 -258 -106t-257 106q-101 103 -101 255zM82 351q0 -135 89 -227q90 -95 227 -95q136 0 228 95q88 93 88 227q0 135 -88 228q-91 94 -228 94q-138 0 -227 -94q-89 -92 -89 -228z
M446 304h-52v-67q0 -22 11 -29.5t46 -8.5v-45h-216v45q27 1 34 8t7 30v233q0 22 -7 28.5t-34 7.5v45h209q78 0 118.5 -35.5t40.5 -85.5q0 -59 -40 -92.5t-117 -33.5zM409 503h-15v-156h15q79 0 79 81q0 35 -20 55t-59 20z" />
    <glyph glyph-name="trademark" unicode="&#x2122;" horiz-adv-x="957" 
d="M43 582l7 120h327l6 -120h-36q-15 33 -22.5 46.5t-21.5 24.5t-33 11h-8v-236q0 -20 9 -27t34 -8v-34h-183v34q25 1 33.5 7.5t8.5 27.5v236h-7q-28 0 -42.5 -17.5t-35.5 -64.5h-36zM581 663l57 -162l49 162q8 24 8 39h154v-38q-24 0 -33 -7.5t-9 -28.5l31 -203
q3 -18 12 -24.5t30 -7.5v-34h-187v34q27 1 37.5 8t10.5 25q0 7 -1 14l-3 23l-23 140l-82 -244h-44l-84 244l-21 -140l-3 -23q-1 -7 -1 -14q0 -18 10.5 -25t37.5 -8v-34h-140v34q22 1 31 7.5t12 24.5l31 203q0 20 -8.5 28t-31.5 8v38h152l3 -17q2 -16 5 -22z" />
    <glyph glyph-name="uni2153" unicode="&#x2153;" horiz-adv-x="947" 
d="M228 748h50v-363q0 -28 12.5 -35.5t60.5 -10.5v-52h-296v52q55 3 65 10t10 36v218h-75v48l28 6q56 12 85.5 32t59.5 59zM306 0h-76l449 741h77zM757 182q60 -1 97.5 -32.5t37.5 -83.5q0 -69 -55.5 -106t-141.5 -37q-80 0 -122 27t-42 68q0 38 32 53h87v-25
q0 -36 13.5 -57t37.5 -21q50 0 50 71q0 92 -81 92h-18l-10 30q47 18 65.5 36.5t18.5 43.5q0 21 -14.5 34.5t-40.5 13.5q-51 0 -84 -45l-36 25q23 52 71.5 86t114.5 34q60 0 96 -28.5t36 -78.5q0 -41 -31 -67t-81 -33z" />
    <glyph glyph-name="uni2154" unicode="&#x2154;" horiz-adv-x="986" 
d="M173 395h110q29 0 41 8t36 42h41l-13 -158h-363v47l126 110q47 40 68 70.5t21 67.5q0 31 -18 48.5t-51 17.5q-51 0 -96 -53l-34 35q26 50 78 84t120 34q64 0 104 -35t40 -96q0 -67 -66 -126q-43 -40 -144 -96zM345 0h-76l449 741h77zM796 182q60 -1 97.5 -32.5
t37.5 -83.5q0 -69 -55.5 -106t-141.5 -37q-80 0 -122 27t-42 68q0 38 32 53h87v-25q0 -36 13.5 -57t37.5 -21q50 0 50 71q0 92 -81 92h-18l-10 30q47 18 65.5 36.5t18.5 43.5q0 21 -14.5 34.5t-40.5 13.5q-51 0 -84 -45l-36 25q23 52 71.5 86t114.5 34q60 0 96 -28.5
t36 -78.5q0 -41 -31 -67t-81 -33z" />
    <glyph glyph-name="uni215B" unicode="&#x215b;" horiz-adv-x="990" 
d="M228 748h50v-363q0 -28 12.5 -35.5t60.5 -10.5v-52h-296v52q55 3 65 10t10 36v218h-75v48l28 6q56 12 85.5 32t59.5 59zM306 0h-76l449 741h77zM917 287q0 -37 -29 -61.5t-73 -30.5q120 -45 120 -127q0 -71 -54.5 -108t-133.5 -37q-80 0 -136.5 29t-56.5 80q0 37 29.5 63
t72.5 33q-88 45 -88 119q0 66 50 104.5t129 38.5q77 0 123.5 -28.5t46.5 -74.5zM731 226l57 -20q23 23 23 64q0 69 -65 69q-28 0 -45.5 -16.5t-17.5 -38.5q0 -40 48 -58zM767 81l-88 34q-19 -25 -19 -66q0 -35 25 -55t63 -20q32 0 51.5 14.5t19.5 36.5q0 36 -52 56z" />
    <glyph glyph-name="uni215C" unicode="&#x215c;" horiz-adv-x="1007" 
d="M261 537q60 -1 97.5 -32.5t37.5 -83.5q0 -69 -55.5 -106t-141.5 -37q-80 0 -122 27t-42 68q0 38 32 53h87v-25q0 -36 13.5 -57t37.5 -21q50 0 50 71q0 92 -81 92h-18l-10 30q47 18 65.5 36.5t18.5 43.5q0 21 -14.5 34.5t-40.5 13.5q-51 0 -84 -45l-36 25q23 52 71.5 86
t114.5 34q60 0 96 -28.5t36 -78.5q0 -41 -31 -67t-81 -33zM323 0h-76l449 741h77zM934 287q0 -37 -29 -61.5t-73 -30.5q120 -45 120 -127q0 -71 -54.5 -108t-133.5 -37q-80 0 -136.5 29t-56.5 80q0 37 29.5 63t72.5 33q-88 45 -88 119q0 66 50 104.5t129 38.5
q77 0 123.5 -28.5t46.5 -74.5zM748 226l57 -20q23 23 23 64q0 69 -65 69q-28 0 -45.5 -16.5t-17.5 -38.5q0 -40 48 -58zM784 81l-88 34q-19 -25 -19 -66q0 -35 25 -55t63 -20q32 0 51.5 14.5t19.5 36.5q0 36 -52 56z" />
    <glyph glyph-name="uni215D" unicode="&#x215d;" horiz-adv-x="990" 
d="M306 0h-76l449 741h77zM105 736h239v-122h-221l-7 -40q60 0 105 -7t82.5 -23t56.5 -46t19 -74q0 -68 -49.5 -107.5t-129.5 -39.5q-79 0 -124.5 26t-45.5 68q0 40 33 54h91v-25q0 -75 59 -75q22 0 36.5 13.5t14.5 36.5q0 51 -50 74q-52 23 -154 23zM917 287
q0 -37 -29 -61.5t-73 -30.5q120 -45 120 -127q0 -71 -54.5 -108t-133.5 -37q-80 0 -136.5 29t-56.5 80q0 37 29.5 63t72.5 33q-88 45 -88 119q0 66 50 104.5t129 38.5q77 0 123.5 -28.5t46.5 -74.5zM731 226l57 -20q23 23 23 64q0 69 -65 69q-28 0 -45.5 -16.5t-17.5 -38.5
q0 -40 48 -58zM767 81l-88 34q-19 -25 -19 -66q0 -35 25 -55t63 -20q32 0 51.5 14.5t19.5 36.5q0 36 -52 56z" />
    <glyph glyph-name="uni215E" unicode="&#x215e;" horiz-adv-x="940" 
d="M256 0h-76l449 741h77zM120 287l184 317h-142q-42 0 -63 -61h-49l33 193h337v-34l-199 -415h-101zM867 287q0 -37 -29 -61.5t-73 -30.5q120 -45 120 -127q0 -71 -54.5 -108t-133.5 -37q-80 0 -136.5 29t-56.5 80q0 37 29.5 63t72.5 33q-88 45 -88 119q0 66 50 104.5
t129 38.5q77 0 123.5 -28.5t46.5 -74.5zM681 226l57 -20q23 23 23 64q0 69 -65 69q-28 0 -45.5 -16.5t-17.5 -38.5q0 -40 48 -58zM717 81l-88 34q-19 -25 -19 -66q0 -35 25 -55t63 -20q32 0 51.5 14.5t19.5 36.5q0 36 -52 56z" />
    <glyph glyph-name="partialdiff" unicode="&#x2202;" horiz-adv-x="637" 
d="M290 537q70 0 114 -44q-29 84 -105 150t-181 92l22 41q237 -32 357 -167q100 -114 100 -277q0 -156 -75 -249t-212 -93q-123 0 -200.5 79t-77.5 197q0 127 79 201q75 70 179 70zM328 61q39 0 61 51t22 133q0 106 -27 171.5t-75 65.5q-40 0 -62 -47.5t-22 -129.5
q0 -107 27.5 -175.5t75.5 -68.5z" />
    <glyph glyph-name="uni2206" unicode="&#x2206;" horiz-adv-x="682" 
d="M662 51v-51h-642v51l295 651h47zM450 68l-173 384l-173 -384h346z" />
    <glyph glyph-name="product" unicode="&#x220f;" horiz-adv-x="832" 
d="M25 633v69h782v-69q-50 -2 -64.5 -15t-14.5 -53v-625q0 -40 14.5 -53t64.5 -15v-69h-346v69q49 2 64 15t15 53v699h-248v-699q0 -40 15 -53t64 -15v-69h-346v69q50 2 64.5 15t14.5 53v625q0 40 -14.5 53t-64.5 15z" />
    <glyph glyph-name="summation" unicode="&#x2211;" horiz-adv-x="645" 
d="M422 312l-247 -355h187q36 0 55 2t42.5 10.5t42 28t39.5 53.5h74l-47 -248h-548v65l254 371l-241 388v75h555v-192h-87q-30 74 -60 101.5t-95 27.5h-100l176 -286v-41z" />
    <glyph glyph-name="minus" unicode="&#x2212;" horiz-adv-x="604" 
d="M531 318h-459v93h459v-93z" />
    <glyph glyph-name="radical" unicode="&#x221a;" horiz-adv-x="624" 
d="M280 550l89 -295l178 457h77l-280 -712h-94l-145 433q-10 30 -22.5 42t-37.5 15l-25 3v57h260z" />
    <glyph glyph-name="infinity" unicode="&#x221e;" horiz-adv-x="760" 
d="M410 250l-30 35l-30 -35q-66 -74 -147 -74q-69 0 -116 47t-47 125t47 125t116 47q81 0 147 -74l30 -35l30 35q66 74 147 74q69 0 116 -47t47 -125t-47 -125t-116 -47q-81 0 -147 74zM287 303l37 45l-37 45q-33 40 -79 40q-32 0 -55.5 -23.5t-23.5 -61.5t23.5 -61.5
t55.5 -23.5q46 0 79 40zM473 393l-37 -45l37 -45q33 -40 79 -40q32 0 55.5 23.5t23.5 61.5t-23.5 61.5t-55.5 23.5q-46 0 -79 -40z" />
    <glyph glyph-name="integral" unicode="&#x222b;" horiz-adv-x="457" 
d="M284 582v-525q0 -253 -229 -253q-66 0 -103 25t-37 71q0 40 35 64h80v-38q0 -63 35 -63q19 0 26 17t7 54v525q0 253 229 253q66 0 103 -25t37 -71q0 -40 -35 -64h-80v38q0 63 -35 63q-19 0 -26 -17t-7 -54z" />
    <glyph glyph-name="approxequal" unicode="&#x2248;" horiz-adv-x="615" 
d="M78 378v90q65 42 123 42t106 -20t105 -20q62 0 126 41v-90q-64 -41 -126 -41q-57 0 -105 20t-106 20t-123 -42zM78 223v89q64 41 123 41q61 0 106 -19q48 -20 105 -20q64 0 126 40v-88q-59 -42 -126 -42q-57 0 -105 20q-45 19 -106 19t-123 -40z" />
    <glyph glyph-name="notequal" unicode="&#x2260;" horiz-adv-x="615" 
d="M292 407h-214v85h272l70 104h87l-70 -104h101v-85h-159l-57 -84h216v-86h-274l-69 -103h-87l69 103h-99v86h157z" />
    <glyph glyph-name="lessequal" unicode="&#x2264;" horiz-adv-x="483" 
d="M401 220l-337 185v10l337 185v-106l-166 -85l166 -84v-105zM401 92h-337v93h337v-93z" />
    <glyph glyph-name="greaterequal" unicode="&#x2265;" horiz-adv-x="483" 
d="M82 600l337 -185v-10l-337 -185v105l167 84l-167 85v106zM82 185h337v-93h-337v93z" />
    <glyph glyph-name="lozenge" unicode="&#x25ca;" horiz-adv-x="571" 
d="M236 0l-206 351l206 351h98l207 -351l-207 -351h-98zM285 106l137 245l-137 246l-138 -246z" />
    <glyph glyph-name="uniF6C3" unicode="&#xf6c3;" horiz-adv-x="0" 
d="M-238 -158h-59q-50 14 -50 62q0 28 23 46t62 18q45 0 71.5 -27.5t26.5 -70.5q0 -54 -43 -87t-134 -33v45q50 0 76 14q25 13 27 33z" />
    <glyph glyph-name="i.loclTRK" horiz-adv-x="366" 
d="M188 598q-47 0 -75 27.5t-28 67.5t28 67.5t75 27.5q46 0 74 -27.5t28 -67.5t-28 -67.5t-74 -27.5zM248 561h33v-437q0 -32 12.5 -42.5t48.5 -14.5v-67h-310v67q36 4 48.5 14.5t12.5 42.5v295l-56 60v31z" />
    <glyph glyph-name="A.sc" horiz-adv-x="686" 
d="M403 140l-17 40h-208l-16 -40q-7 -18 -7 -35q0 -20 10.5 -28t46.5 -10v-67h-200v67q22 4 32.5 10t16.5 22l177 435l-37 81h195l227 -516q10 -24 51 -32v-67h-319v67q36 2 47 10t11 29q0 8 -10 34zM359 246l-78 189l-77 -189h155z" />
    <glyph glyph-name="Aacute.sc" horiz-adv-x="686" 
d="M259 656l68 160h184l-155 -160h-97zM403 140l-17 40h-208l-16 -40q-7 -18 -7 -35q0 -20 10.5 -28t46.5 -10v-67h-200v67q22 4 32.5 10t16.5 22l177 435l-37 81h195l227 -516q10 -24 51 -32v-67h-319v67q36 2 47 10t11 29q0 8 -10 34zM359 246l-78 189l-77 -189h155z" />
    <glyph glyph-name="Abreve.sc" horiz-adv-x="686" 
d="M314 653q-75 0 -117 45.5t-42 124.5h70q12 -78 89 -78t89 78h70q0 -79 -42 -124.5t-117 -45.5zM403 140l-17 40h-208l-16 -40q-7 -18 -7 -35q0 -20 10.5 -28t46.5 -10v-67h-200v67q22 4 32.5 10t16.5 22l177 435l-37 81h195l227 -516q10 -24 51 -32v-67h-319v67
q36 2 47 10t11 29q0 8 -10 34zM359 246l-78 189l-77 -189h155z" />
    <glyph glyph-name="Acircumflex.sc" horiz-adv-x="686" 
d="M246 816h136l138 -169h-95l-111 80l-111 -80h-95zM403 140l-17 40h-208l-16 -40q-7 -18 -7 -35q0 -20 10.5 -28t46.5 -10v-67h-200v67q22 4 32.5 10t16.5 22l177 435l-37 81h195l227 -516q10 -24 51 -32v-67h-319v67q36 2 47 10t11 29q0 8 -10 34zM359 246l-78 189
l-77 -189h155z" />
    <glyph glyph-name="Adieresis.sc" horiz-adv-x="686" 
d="M115 741q0 36 26 62t63 26t63.5 -26t26.5 -62t-26.5 -62t-63.5 -26t-63 26t-26 62zM335 741q0 36 26.5 62t61.5 26q38 0 64.5 -26t26.5 -62t-26.5 -62t-64.5 -26q-35 0 -61.5 26t-26.5 62zM403 140l-17 40h-208l-16 -40q-7 -18 -7 -35q0 -20 10.5 -28t46.5 -10v-67h-200
v67q22 4 32.5 10t16.5 22l177 435l-37 81h195l227 -516q10 -24 51 -32v-67h-319v67q36 2 47 10t11 29q0 8 -10 34zM359 246l-78 189l-77 -189h155z" />
    <glyph glyph-name="Agrave.sc" horiz-adv-x="686" 
d="M271 656l-155 160h184l67 -160h-96zM403 140l-17 40h-208l-16 -40q-7 -18 -7 -35q0 -20 10.5 -28t46.5 -10v-67h-200v67q22 4 32.5 10t16.5 22l177 435l-37 81h195l227 -516q10 -24 51 -32v-67h-319v67q36 2 47 10t11 29q0 8 -10 34zM359 246l-78 189l-77 -189h155z" />
    <glyph glyph-name="Amacron.sc" horiz-adv-x="686" 
d="M468 676h-308v101h308v-101zM403 140l-17 40h-208l-16 -40q-7 -18 -7 -35q0 -20 10.5 -28t46.5 -10v-67h-200v67q22 4 32.5 10t16.5 22l177 435l-37 81h195l227 -516q10 -24 51 -32v-67h-319v67q36 2 47 10t11 29q0 8 -10 34zM359 246l-78 189l-77 -189h155z" />
    <glyph glyph-name="Aogonek.sc" horiz-adv-x="686" 
d="M238 534l-37 81h195l227 -516q10 -24 51 -32v-67h-306q-46 -27 -46 -77q0 -56 45 -56q36 0 70 20l19 -28q-35 -39 -66.5 -56t-72.5 -17t-71 28.5t-30 76.5q0 85 125 148q39 19 53.5 35t14.5 39q0 11 -12 40l-11 27h-208l-16 -40q-7 -18 -7 -35q0 -20 10.5 -28t46.5 -10
v-67h-200v67q22 4 32.5 10t16.5 22zM359 246l-78 189l-77 -189h155z" />
    <glyph glyph-name="Aring.sc" horiz-adv-x="686" 
d="M201 748q0 43 32 72t81 29t81 -29t32 -72t-32 -72t-81 -29t-81 29t-32 72zM360 748q0 19 -12.5 31.5t-33.5 12.5t-33.5 -12.5t-12.5 -31.5t12.5 -31.5t33.5 -12.5t33.5 12.5t12.5 31.5zM403 140l-17 40h-208l-16 -40q-7 -18 -7 -35q0 -20 10.5 -28t46.5 -10v-67h-200v67
q22 4 32.5 10t16.5 22l177 435l-37 81h195l227 -516q10 -24 51 -32v-67h-319v67q36 2 47 10t11 29q0 8 -10 34zM359 246l-78 189l-77 -189h155z" />
    <glyph glyph-name="Aringacute.sc" horiz-adv-x="686" 
d="M270 846l45 120h185l-139 -120h-91zM195 729q0 41 33 65.5t85 24.5t85 -24.5t33 -65.5t-33 -65.5t-85 -24.5t-85 24.5t-33 65.5zM365 729q0 18 -14 28.5t-38 10.5t-38 -10.5t-14 -28.5t14 -28.5t38 -10.5t38 10.5t14 28.5zM403 140l-17 40h-208l-16 -40q-7 -18 -7 -35
q0 -20 10.5 -28t46.5 -10v-67h-200v67q22 4 32.5 10t16.5 22l177 435l-37 81h195l227 -516q10 -24 51 -32v-67h-319v67q36 2 47 10t11 29q0 8 -10 34zM359 246l-78 189l-77 -189h155z" />
    <glyph glyph-name="Atilde.sc" horiz-adv-x="686" 
d="M459 823l60 -12q-40 -94 -69 -121q-28 -28 -72 -28q-29 0 -75 30t-61 30q-14 0 -26.5 -9t-19.5 -18t-19 -28l-60 12q40 93 69 122q28 27 72 27q36 0 78 -30t58 -30q19 0 33.5 14t31.5 41zM403 140l-17 40h-208l-16 -40q-7 -18 -7 -35q0 -20 10.5 -28t46.5 -10v-67h-200
v67q22 4 32.5 10t16.5 22l177 435l-37 81h195l227 -516q10 -24 51 -32v-67h-319v67q36 2 47 10t11 29q0 8 -10 34zM359 246l-78 189l-77 -189h155z" />
    <glyph glyph-name="AE.sc" horiz-adv-x="948" 
d="M61 99l279 406q-7 18 -23 25.5t-52 9.5v68h626v-173h-78q-23 58 -46.5 82t-72.5 24h-73v-192h52q30 0 43.5 13t20.5 51h64v-199h-64q-7 38 -20.5 51.5t-43.5 13.5h-52v-155q0 -32 16 -44.5t51 -12.5h13q42 0 71.5 26t74.5 94h76l-27 -187h-531v68q43 2 54.5 12.5
t11.5 44.5v83h-203l-33 -47q-23 -32 -23 -54q0 -21 11.5 -29.5t48.5 -10.5v-67h-220v67q31 6 49 32zM431 274v222l-157 -222h157z" />
    <glyph glyph-name="AEacute.sc" horiz-adv-x="948" 
d="M517 656l68 160h184l-155 -160h-97zM61 99l279 406q-7 18 -23 25.5t-52 9.5v68h626v-173h-78q-23 58 -46.5 82t-72.5 24h-73v-192h52q30 0 43.5 13t20.5 51h64v-199h-64q-7 38 -20.5 51.5t-43.5 13.5h-52v-155q0 -32 16 -44.5t51 -12.5h13q42 0 71.5 26t74.5 94h76
l-27 -187h-531v68q43 2 54.5 12.5t11.5 44.5v83h-203l-33 -47q-23 -32 -23 -54q0 -21 11.5 -29.5t48.5 -10.5v-67h-220v67q31 6 49 32zM431 274v222l-157 -222h157z" />
    <glyph glyph-name="B.sc" horiz-adv-x="664" 
d="M383 0h-351v68q43 2 54.5 13t11.5 45v356q0 34 -11.5 45t-54.5 13v68h354q103 0 159 -39t56 -114q0 -62 -48.5 -98t-119.5 -43q87 -4 143 -41.5t56 -106.5q0 -166 -249 -166zM302 539h-14v-192h21q105 0 105 99q0 51 -28.5 72t-83.5 21zM319 279h-31v-156
q0 -34 13.5 -46.5t46.5 -12.5h8q36 0 60 28.5t24 75.5q0 111 -121 111z" />
    <glyph glyph-name="C.sc" horiz-adv-x="642" 
d="M378 65q52 0 80 36.5t51 121.5h97l-13 -173q-86 -60 -227 -60q-156 0 -244 83.5t-88 218.5q0 146 97 238q94 88 234 88q65 0 123.5 -17.5t93.5 -49.5v-143h-96q-18 69 -45 105.5t-77 36.5q-66 0 -96 -74q-25 -61 -25 -159q0 -116 35 -184t100 -68z" />
    <glyph glyph-name="Cacute.sc" horiz-adv-x="642" 
d="M312 656l68 160h184l-155 -160h-97zM378 65q52 0 80 36.5t51 121.5h97l-13 -173q-86 -60 -227 -60q-156 0 -244 83.5t-88 218.5q0 146 97 238q94 88 234 88q65 0 123.5 -17.5t93.5 -49.5v-143h-96q-18 69 -45 105.5t-77 36.5q-66 0 -96 -74q-25 -61 -25 -159
q0 -116 35 -184t100 -68z" />
    <glyph glyph-name="Ccaron.sc" horiz-adv-x="642" 
d="M478 825h95l-138 -169h-136l-138 169h95l111 -80zM378 65q52 0 80 36.5t51 121.5h97l-13 -173q-86 -60 -227 -60q-156 0 -244 83.5t-88 218.5q0 146 97 238q94 88 234 88q65 0 123.5 -17.5t93.5 -49.5v-143h-96q-18 69 -45 105.5t-77 36.5q-66 0 -96 -74
q-25 -61 -25 -159q0 -116 35 -184t100 -68z" />
    <glyph glyph-name="Ccedilla.sc" horiz-adv-x="642" 
d="M251 -233l-11 49q55 0 85 10q30 9 30 29q0 34 -85 36l42 102q-132 14 -205 95.5t-73 203.5q0 146 97 238q94 88 234 88q65 0 123.5 -17.5t93.5 -49.5v-143h-96q-18 69 -45 105.5t-77 36.5q-66 0 -96 -74q-25 -61 -25 -159q0 -116 35 -184t100 -68q52 0 80 36.5t51 121.5
h97l-13 -173q-86 -60 -227 -60h-5l-12 -34q97 -8 97 -78q0 -52 -57.5 -81.5t-137.5 -29.5z" />
    <glyph glyph-name="Ccircumflex.sc" horiz-adv-x="642" 
d="M292 816h136l138 -169h-95l-111 80l-111 -80h-95zM378 65q52 0 80 36.5t51 121.5h97l-13 -173q-86 -60 -227 -60q-156 0 -244 83.5t-88 218.5q0 146 97 238q94 88 234 88q65 0 123.5 -17.5t93.5 -49.5v-143h-96q-18 69 -45 105.5t-77 36.5q-66 0 -96 -74
q-25 -61 -25 -159q0 -116 35 -184t100 -68z" />
    <glyph glyph-name="Cdotaccent.sc" horiz-adv-x="642" 
d="M360 648q-47 0 -75 27.5t-28 67.5t28 67.5t75 27.5q46 0 74 -27.5t28 -67.5t-28 -67.5t-74 -27.5zM378 65q52 0 80 36.5t51 121.5h97l-13 -173q-86 -60 -227 -60q-156 0 -244 83.5t-88 218.5q0 146 97 238q94 88 234 88q65 0 123.5 -17.5t93.5 -49.5v-143h-96
q-18 69 -45 105.5t-77 36.5q-66 0 -96 -74q-25 -61 -25 -159q0 -116 35 -184t100 -68z" />
    <glyph glyph-name="D.sc" horiz-adv-x="731" 
d="M359 0h-327v68q43 2 54.5 13t11.5 45v356q0 34 -11.5 45t-54.5 13v68h291q177 0 275.5 -75t98.5 -222q0 -145 -89.5 -228t-248.5 -83zM298 539h-6v-410q0 -37 11.5 -48.5t42.5 -11.5h6q138 0 138 235q0 109 -49 172t-143 63z" />
    <glyph glyph-name="Eth.sc" horiz-adv-x="739" 
d="M367 0h-327v68q43 2 54.5 13t11.5 45v152h-66v71h66v133q0 34 -11.5 45t-54.5 13v68h291q177 0 275.5 -75t98.5 -222q0 -145 -89.5 -228t-248.5 -83zM306 539h-6v-190h107v-71h-107v-149q0 -37 11.5 -48.5t42.5 -11.5h6q138 0 138 235q0 109 -49 172t-143 63z" />
    <glyph glyph-name="Dcaron.sc" horiz-adv-x="731" 
d="M463 825h95l-138 -169h-136l-138 169h95l111 -80zM359 0h-327v68q43 2 54.5 13t11.5 45v356q0 34 -11.5 45t-54.5 13v68h291q177 0 275.5 -75t98.5 -222q0 -145 -89.5 -228t-248.5 -83zM298 539h-6v-410q0 -37 11.5 -48.5t42.5 -11.5h6q138 0 138 235q0 109 -49 172
t-143 63z" />
    <glyph glyph-name="Dcroat.sc" horiz-adv-x="739" 
d="M367 0h-327v68q43 2 54.5 13t11.5 45v152h-66v71h66v133q0 34 -11.5 45t-54.5 13v68h291q177 0 275.5 -75t98.5 -222q0 -145 -89.5 -228t-248.5 -83zM306 539h-6v-190h107v-71h-107v-149q0 -37 11.5 -48.5t42.5 -11.5h6q138 0 138 235q0 109 -49 172t-143 63z" />
    <glyph glyph-name="E.sc" horiz-adv-x="615" 
d="M590 187l-27 -187h-531v68q43 2 54.5 13t11.5 45v356q0 34 -11.5 45t-54.5 13v68h526v-173h-78q-23 58 -46.5 82t-72.5 24h-73v-192h52q30 0 43.5 13t20.5 51h64v-199h-64q-7 38 -20.5 51.5t-43.5 13.5h-52v-155q0 -32 16 -44.5t51 -12.5h13q42 0 71.5 26t74.5 94h76z
" />
    <glyph glyph-name="Eacute.sc" horiz-adv-x="615" 
d="M258 656l68 160h184l-155 -160h-97zM590 187l-27 -187h-531v68q43 2 54.5 13t11.5 45v356q0 34 -11.5 45t-54.5 13v68h526v-173h-78q-23 58 -46.5 82t-72.5 24h-73v-192h52q30 0 43.5 13t20.5 51h64v-199h-64q-7 38 -20.5 51.5t-43.5 13.5h-52v-155q0 -32 16 -44.5
t51 -12.5h13q42 0 71.5 26t74.5 94h76z" />
    <glyph glyph-name="Ebreve.sc" horiz-adv-x="615" 
d="M313 653q-75 0 -117 45.5t-42 124.5h70q12 -78 89 -78t89 78h70q0 -79 -42 -124.5t-117 -45.5zM590 187l-27 -187h-531v68q43 2 54.5 13t11.5 45v356q0 34 -11.5 45t-54.5 13v68h526v-173h-78q-23 58 -46.5 82t-72.5 24h-73v-192h52q30 0 43.5 13t20.5 51h64v-199h-64
q-7 38 -20.5 51.5t-43.5 13.5h-52v-155q0 -32 16 -44.5t51 -12.5h13q42 0 71.5 26t74.5 94h76z" />
    <glyph glyph-name="Ecaron.sc" horiz-adv-x="615" 
d="M424 825h95l-138 -169h-136l-138 169h95l111 -80zM590 187l-27 -187h-531v68q43 2 54.5 13t11.5 45v356q0 34 -11.5 45t-54.5 13v68h526v-173h-78q-23 58 -46.5 82t-72.5 24h-73v-192h52q30 0 43.5 13t20.5 51h64v-199h-64q-7 38 -20.5 51.5t-43.5 13.5h-52v-155
q0 -32 16 -44.5t51 -12.5h13q42 0 71.5 26t74.5 94h76z" />
    <glyph glyph-name="Ecircumflex.sc" horiz-adv-x="615" 
d="M245 816h136l138 -169h-95l-111 80l-111 -80h-95zM590 187l-27 -187h-531v68q43 2 54.5 13t11.5 45v356q0 34 -11.5 45t-54.5 13v68h526v-173h-78q-23 58 -46.5 82t-72.5 24h-73v-192h52q30 0 43.5 13t20.5 51h64v-199h-64q-7 38 -20.5 51.5t-43.5 13.5h-52v-155
q0 -32 16 -44.5t51 -12.5h13q42 0 71.5 26t74.5 94h76z" />
    <glyph glyph-name="Edieresis.sc" horiz-adv-x="615" 
d="M114 741q0 36 26 62t63 26t63.5 -26t26.5 -62t-26.5 -62t-63.5 -26t-63 26t-26 62zM334 741q0 36 26.5 62t61.5 26q38 0 64.5 -26t26.5 -62t-26.5 -62t-64.5 -26q-35 0 -61.5 26t-26.5 62zM590 187l-27 -187h-531v68q43 2 54.5 13t11.5 45v356q0 34 -11.5 45t-54.5 13v68
h526v-173h-78q-23 58 -46.5 82t-72.5 24h-73v-192h52q30 0 43.5 13t20.5 51h64v-199h-64q-7 38 -20.5 51.5t-43.5 13.5h-52v-155q0 -32 16 -44.5t51 -12.5h13q42 0 71.5 26t74.5 94h76z" />
    <glyph glyph-name="Edotaccent.sc" horiz-adv-x="615" 
d="M314 648q-47 0 -75 27.5t-28 67.5t28 67.5t75 27.5q46 0 74 -27.5t28 -67.5t-28 -67.5t-74 -27.5zM590 187l-27 -187h-531v68q43 2 54.5 13t11.5 45v356q0 34 -11.5 45t-54.5 13v68h526v-173h-78q-23 58 -46.5 82t-72.5 24h-73v-192h52q30 0 43.5 13t20.5 51h64v-199h-64
q-7 38 -20.5 51.5t-43.5 13.5h-52v-155q0 -32 16 -44.5t51 -12.5h13q42 0 71.5 26t74.5 94h76z" />
    <glyph glyph-name="Egrave.sc" horiz-adv-x="615" 
d="M270 656l-155 160h184l67 -160h-96zM590 187l-27 -187h-531v68q43 2 54.5 13t11.5 45v356q0 34 -11.5 45t-54.5 13v68h526v-173h-78q-23 58 -46.5 82t-72.5 24h-73v-192h52q30 0 43.5 13t20.5 51h64v-199h-64q-7 38 -20.5 51.5t-43.5 13.5h-52v-155q0 -32 16 -44.5
t51 -12.5h13q42 0 71.5 26t74.5 94h76z" />
    <glyph glyph-name="Emacron.sc" horiz-adv-x="615" 
d="M467 676h-308v101h308v-101zM590 187l-27 -187h-531v68q43 2 54.5 13t11.5 45v356q0 34 -11.5 45t-54.5 13v68h526v-173h-78q-23 58 -46.5 82t-72.5 24h-73v-192h52q30 0 43.5 13t20.5 51h64v-199h-64q-7 38 -20.5 51.5t-43.5 13.5h-52v-155q0 -32 16 -44.5t51 -12.5h13
q42 0 71.5 26t74.5 94h76z" />
    <glyph glyph-name="Eogonek.sc" horiz-adv-x="615" 
d="M590 187l-27 -187h-82q-60 -40 -60 -92q0 -17 10.5 -29t32.5 -12q36 0 70 20l19 -28q-69 -75 -145 -75q-41 0 -68.5 23t-27.5 61q0 75 94 132h-374v68q43 2 54.5 13t11.5 45v356q0 34 -11.5 45t-54.5 13v68h526v-173h-78q-23 58 -46.5 82t-72.5 24h-73v-192h52
q30 0 43.5 13t20.5 51h64v-199h-64q-7 38 -20.5 51.5t-43.5 13.5h-52v-155q0 -32 16 -44.5t51 -12.5h13q42 0 71.5 26t74.5 94h76z" />
    <glyph glyph-name="F.sc" horiz-adv-x="578" 
d="M388 62v-62h-356v68q43 2 54.5 13t11.5 45v356q0 34 -11.5 45t-54.5 13v68h516v-172h-79q-21 56 -45.5 80.5t-74.5 24.5h-61v-198h36q30 0 43.5 13.5t20.5 51.5h65v-199h-65q-7 39 -20 52t-44 13h-36v-155q0 -31 21.5 -43t78.5 -14z" />
    <glyph glyph-name="G.sc" horiz-adv-x="687" 
d="M34 292q0 145 100 238q96 88 235 88q64 0 122 -17.5t94 -49.5v-143h-96q-21 71 -47 106.5t-75 35.5q-65 0 -99 -74q-29 -64 -29 -159q0 -252 144 -252q25 0 42 3v114q0 33 -11.5 43.5t-53.5 11.5v70h307v-70q-43 -1 -54.5 -11t-11.5 -44v-129q-88 -63 -245 -63
q-154 0 -238 84t-84 218z" />
    <glyph glyph-name="Gbreve.sc" horiz-adv-x="687" 
d="M365 653q-75 0 -117 45.5t-42 124.5h70q12 -78 89 -78t89 78h70q0 -79 -42 -124.5t-117 -45.5zM34 292q0 145 100 238q96 88 235 88q64 0 122 -17.5t94 -49.5v-143h-96q-21 71 -47 106.5t-75 35.5q-65 0 -99 -74q-29 -64 -29 -159q0 -252 144 -252q25 0 42 3v114
q0 33 -11.5 43.5t-53.5 11.5v70h307v-70q-43 -1 -54.5 -11t-11.5 -44v-129q-88 -63 -245 -63q-154 0 -238 84t-84 218z" />
    <glyph glyph-name="Gcircumflex.sc" horiz-adv-x="687" 
d="M297 816h136l138 -169h-95l-111 80l-111 -80h-95zM34 292q0 145 100 238q96 88 235 88q64 0 122 -17.5t94 -49.5v-143h-96q-21 71 -47 106.5t-75 35.5q-65 0 -99 -74q-29 -64 -29 -159q0 -252 144 -252q25 0 42 3v114q0 33 -11.5 43.5t-53.5 11.5v70h307v-70
q-43 -1 -54.5 -11t-11.5 -44v-129q-88 -63 -245 -63q-154 0 -238 84t-84 218z" />
    <glyph glyph-name="Gcommaaccent.sc" horiz-adv-x="687" 
d="M34 292q0 145 100 238q96 88 235 88q64 0 122 -17.5t94 -49.5v-143h-96q-21 71 -47 106.5t-75 35.5q-65 0 -99 -74q-29 -64 -29 -159q0 -252 144 -252q25 0 42 3v114q0 33 -11.5 43.5t-53.5 11.5v70h307v-70q-43 -1 -54.5 -11t-11.5 -44v-129q-88 -63 -245 -63
q-154 0 -238 84t-84 218zM392 -158h-59q-50 14 -50 62q0 28 23 46t62 18q45 0 71.5 -27.5t26.5 -70.5q0 -54 -43 -87t-134 -33v45q50 0 76 14q25 13 27 33z" />
    <glyph glyph-name="Gdotaccent.sc" horiz-adv-x="687" 
d="M367 648q-47 0 -75 27.5t-28 67.5t28 67.5t75 27.5q46 0 74 -27.5t28 -67.5t-28 -67.5t-74 -27.5zM34 292q0 145 100 238q96 88 235 88q64 0 122 -17.5t94 -49.5v-143h-96q-21 71 -47 106.5t-75 35.5q-65 0 -99 -74q-29 -64 -29 -159q0 -252 144 -252q25 0 42 3v114
q0 33 -11.5 43.5t-53.5 11.5v70h307v-70q-43 -1 -54.5 -11t-11.5 -44v-129q-88 -63 -245 -63q-154 0 -238 84t-84 218z" />
    <glyph glyph-name="H.sc" horiz-adv-x="782" 
d="M750 68v-68h-326v68q43 2 54.5 13t11.5 45v152h-198v-152q0 -34 11.5 -45t54.5 -13v-68h-326v68q43 2 54.5 13t11.5 45v356q0 34 -11.5 45t-54.5 13v68h326v-68q-43 -2 -54.5 -13t-11.5 -45v-133h198v133q0 34 -11.5 45t-54.5 13v68h326v-68q-43 -2 -54.5 -13t-11.5 -45
v-356q0 -34 11.5 -45t54.5 -13z" />
    <glyph glyph-name="Hbar.sc" horiz-adv-x="798" 
d="M106 126v254h-66v71h66v31q0 34 -11.5 45t-54.5 13v68h326v-68q-43 -2 -54.5 -13t-11.5 -45v-31h198v31q0 34 -11.5 45t-54.5 13v68h326v-68q-43 -2 -54.5 -13t-11.5 -45v-31h66v-71h-66v-254q0 -34 11.5 -45t54.5 -13v-68h-326v68q43 2 54.5 13t11.5 45v112h-198v-112
q0 -34 11.5 -45t54.5 -13v-68h-326v68q43 2 54.5 13t11.5 45zM300 380v-71h198v71h-198z" />
    <glyph glyph-name="Hcircumflex.sc" horiz-adv-x="782" 
d="M323 816h136l138 -169h-95l-111 80l-111 -80h-95zM750 68v-68h-326v68q43 2 54.5 13t11.5 45v152h-198v-152q0 -34 11.5 -45t54.5 -13v-68h-326v68q43 2 54.5 13t11.5 45v356q0 34 -11.5 45t-54.5 13v68h326v-68q-43 -2 -54.5 -13t-11.5 -45v-133h198v133q0 34 -11.5 45
t-54.5 13v68h326v-68q-43 -2 -54.5 -13t-11.5 -45v-356q0 -34 11.5 -45t54.5 -13z" />
    <glyph glyph-name="I.sc" horiz-adv-x="390" 
d="M358 68v-68h-326v68q43 2 54.5 13t11.5 45v356q0 34 -11.5 45t-54.5 13v68h326v-68q-43 -2 -54.5 -13t-11.5 -45v-356q0 -34 11.5 -45t54.5 -13z" />
    <glyph glyph-name="IJ.sc" horiz-adv-x="959" 
d="M358 68v-68h-326v68q43 2 54.5 13t11.5 45v356q0 34 -11.5 45t-54.5 13v68h326v-68q-43 -2 -54.5 -13t-11.5 -45v-356q0 -34 11.5 -45t54.5 -13zM870 483v-282q0 -211 -249 -211q-105 0 -167 38t-62 104q0 55 48 85h131v-49q0 -112 52 -112q23 0 35 17t14.5 38t2.5 57
v315q0 34 -11 44.5t-53 12.5v68h326v-68q-43 -2 -55 -12.5t-12 -44.5z" />
    <glyph glyph-name="Iacute.sc" horiz-adv-x="390" 
d="M140 656l68 160h184l-155 -160h-97zM358 68v-68h-326v68q43 2 54.5 13t11.5 45v356q0 34 -11.5 45t-54.5 13v68h326v-68q-43 -2 -54.5 -13t-11.5 -45v-356q0 -34 11.5 -45t54.5 -13z" />
    <glyph glyph-name="Ibreve.sc" horiz-adv-x="390" 
d="M195 653q-75 0 -117 45.5t-42 124.5h70q12 -78 89 -78t89 78h70q0 -79 -42 -124.5t-117 -45.5zM358 68v-68h-326v68q43 2 54.5 13t11.5 45v356q0 34 -11.5 45t-54.5 13v68h326v-68q-43 -2 -54.5 -13t-11.5 -45v-356q0 -34 11.5 -45t54.5 -13z" />
    <glyph glyph-name="Icircumflex.sc" horiz-adv-x="390" 
d="M127 816h136l138 -169h-95l-111 80l-111 -80h-95zM358 68v-68h-326v68q43 2 54.5 13t11.5 45v356q0 34 -11.5 45t-54.5 13v68h326v-68q-43 -2 -54.5 -13t-11.5 -45v-356q0 -34 11.5 -45t54.5 -13z" />
    <glyph glyph-name="Idieresis.sc" horiz-adv-x="390" 
d="M-4 741q0 36 26 62t63 26t63.5 -26t26.5 -62t-26.5 -62t-63.5 -26t-63 26t-26 62zM216 741q0 36 26.5 62t61.5 26q38 0 64.5 -26t26.5 -62t-26.5 -62t-64.5 -26q-35 0 -61.5 26t-26.5 62zM358 68v-68h-326v68q43 2 54.5 13t11.5 45v356q0 34 -11.5 45t-54.5 13v68h326
v-68q-43 -2 -54.5 -13t-11.5 -45v-356q0 -34 11.5 -45t54.5 -13z" />
    <glyph glyph-name="Idotaccent.sc" horiz-adv-x="390" 
d="M196 648q-47 0 -75 27.5t-28 67.5t28 67.5t75 27.5q46 0 74 -27.5t28 -67.5t-28 -67.5t-74 -27.5zM358 68v-68h-326v68q43 2 54.5 13t11.5 45v356q0 34 -11.5 45t-54.5 13v68h326v-68q-43 -2 -54.5 -13t-11.5 -45v-356q0 -34 11.5 -45t54.5 -13z" />
    <glyph glyph-name="Igrave.sc" horiz-adv-x="390" 
d="M152 656l-155 160h184l67 -160h-96zM358 68v-68h-326v68q43 2 54.5 13t11.5 45v356q0 34 -11.5 45t-54.5 13v68h326v-68q-43 -2 -54.5 -13t-11.5 -45v-356q0 -34 11.5 -45t54.5 -13z" />
    <glyph glyph-name="Imacron.sc" horiz-adv-x="390" 
d="M349 676h-308v101h308v-101zM358 68v-68h-326v68q43 2 54.5 13t11.5 45v356q0 34 -11.5 45t-54.5 13v68h326v-68q-43 -2 -54.5 -13t-11.5 -45v-356q0 -34 11.5 -45t54.5 -13z" />
    <glyph glyph-name="Iogonek.sc" horiz-adv-x="390" 
d="M358 68v-68h-114q-60 -40 -60 -92q0 -17 10.5 -29t32.5 -12q36 0 70 20l19 -28q-69 -75 -145 -75q-41 0 -68.5 23t-27.5 61q0 75 94 132h-137v68q43 2 54.5 13t11.5 45v356q0 34 -11.5 45t-54.5 13v68h326v-68q-43 -2 -54.5 -13t-11.5 -45v-356q0 -34 11.5 -45t54.5 -13z
" />
    <glyph glyph-name="Itilde.sc" horiz-adv-x="390" 
d="M341 823l60 -12q-40 -94 -69 -121q-28 -28 -72 -28q-29 0 -75 30t-61 30q-14 0 -26.5 -9t-19.5 -18t-19 -28l-60 12q40 93 69 122q28 27 72 27q36 0 78 -30t58 -30q19 0 33.5 14t31.5 41zM358 68v-68h-326v68q43 2 54.5 13t11.5 45v356q0 34 -11.5 45t-54.5 13v68h326
v-68q-43 -2 -54.5 -13t-11.5 -45v-356q0 -34 11.5 -45t54.5 -13z" />
    <glyph glyph-name="J.sc" horiz-adv-x="579" 
d="M490 483v-282q0 -211 -249 -211q-105 0 -167 38t-62 104q0 55 48 85h131v-49q0 -112 52 -112q23 0 35 17t14.5 38t2.5 57v315q0 34 -11 44.5t-53 12.5v68h326v-68q-43 -2 -55 -12.5t-12 -44.5z" />
    <glyph glyph-name="Jcircumflex.sc" horiz-adv-x="579" 
d="M321 816h136l138 -169h-95l-111 80l-111 -80h-95zM490 483v-282q0 -211 -249 -211q-105 0 -167 38t-62 104q0 55 48 85h131v-49q0 -112 52 -112q23 0 35 17t14.5 38t2.5 57v315q0 34 -11 44.5t-53 12.5v68h326v-68q-43 -2 -55 -12.5t-12 -44.5z" />
    <glyph glyph-name="K.sc" horiz-adv-x="724" 
d="M358 68v-68h-326v68q43 2 54.5 13t11.5 45v356q0 34 -11.5 45t-54.5 13v68h326v-68q-43 -2 -54.5 -13t-11.5 -45v-356q0 -34 11.5 -45t54.5 -13zM623 512l-144 -138l150 -247q22 -35 39.5 -48t45.5 -13v-66h-215q-34 22 -76 95l-123 214l178 163q27 25 27 41q0 10 -9 19
q-10 8 -39 8v68h235v-68q-26 -1 -39.5 -6.5t-29.5 -21.5z" />
    <glyph glyph-name="Kcommaaccent.sc" horiz-adv-x="724" 
d="M358 68v-68h-326v68q43 2 54.5 13t11.5 45v356q0 34 -11.5 45t-54.5 13v68h326v-68q-43 -2 -54.5 -13t-11.5 -45v-356q0 -34 11.5 -45t54.5 -13zM623 512l-144 -138l150 -247q22 -35 39.5 -48t45.5 -13v-66h-215q-34 22 -76 95l-123 214l178 163q27 25 27 41q0 10 -9 19
q-10 8 -39 8v68h235v-68q-26 -1 -39.5 -6.5t-29.5 -21.5zM391 -158h-59q-50 14 -50 62q0 28 23 46t62 18q45 0 71.5 -27.5t26.5 -70.5q0 -54 -43 -87t-134 -33v45q50 0 76 14q26 13 27 33z" />
    <glyph glyph-name="L.sc" horiz-adv-x="606" 
d="M292 482v-355q0 -34 13.5 -46t48.5 -12h16q38 0 61 26q19 21 80 125h81l-34 -220h-526v68q43 2 54.5 13t11.5 45v356q0 34 -11.5 45t-54.5 13v68h326v-68q-43 -2 -54.5 -13t-11.5 -45z" />
    <glyph glyph-name="Lacute.sc" horiz-adv-x="606" 
d="M155 656l68 160h184l-155 -160h-97zM292 482v-355q0 -34 13.5 -46t48.5 -12h16q38 0 61 26q19 21 80 125h81l-34 -220h-526v68q43 2 54.5 13t11.5 45v356q0 34 -11.5 45t-54.5 13v68h326v-68q-43 -2 -54.5 -13t-11.5 -45z" />
    <glyph glyph-name="Lcaron.sc" horiz-adv-x="606" 
d="M292 482v-355q0 -34 13.5 -46t48.5 -12h16q38 0 61 26q19 21 80 125h81l-34 -220h-526v68q43 2 54.5 13t11.5 45v356q0 34 -11.5 45t-54.5 13v68h326v-68q-43 -2 -54.5 -13t-11.5 -45zM420 608h155l-93 -205h-76z" />
    <glyph glyph-name="Lcommaaccent.sc" horiz-adv-x="606" 
d="M292 482v-355q0 -34 13.5 -46t48.5 -12h16q38 0 61 26q19 21 80 125h81l-34 -220h-526v68q43 2 54.5 13t11.5 45v356q0 34 -11.5 45t-54.5 13v68h326v-68q-43 -2 -54.5 -13t-11.5 -45zM330 -158h-59q-50 14 -50 62q0 28 23 46t62 18q45 0 71.5 -27.5t26.5 -70.5
q0 -54 -43 -87t-134 -33v45q50 0 76 14q25 13 27 33z" />
    <glyph glyph-name="Ldot.sc" horiz-adv-x="606" 
d="M292 482v-355q0 -34 13.5 -46t48.5 -12h16q38 0 61 26q19 21 80 125h81l-34 -220h-526v68q43 2 54.5 13t11.5 45v356q0 34 -11.5 45t-54.5 13v68h326v-68q-43 -2 -54.5 -13t-11.5 -45zM497 287q-47 0 -75 27.5t-28 67.5t28 67.5t75 27.5q46 0 74 -27.5t28 -67.5
t-28 -67.5t-74 -27.5z" />
    <glyph glyph-name="Lslash.sc" horiz-adv-x="614" 
d="M425 358l-125 -46v-185q0 -34 13.5 -46t48.5 -12h16q38 0 61 26q19 21 80 125h81l-34 -220h-526v68q43 2 54.5 13t11.5 45v122l-66 -23v73l66 24v160q0 34 -11.5 45t-54.5 13v68h326v-68q-43 -2 -54.5 -13t-11.5 -45v-97l125 46v-73z" />
    <glyph glyph-name="M.sc" horiz-adv-x="904" 
d="M626 145l-40 276l-149 -421h-67l-154 420l-37 -275l-2 -22q0 -30 18.5 -41.5t65.5 -14.5v-67h-246v67q38 2 53.5 13t19.5 40l56 357q0 34 -15.5 47.5t-58.5 15.5v68h263q1 -24 14 -58l107 -288l103 288q14 37 15 58h261v-68q-44 -2 -59 -15.5t-15 -47.5l55 -357
q5 -31 20.5 -41t54.5 -12v-67h-345v67q48 3 66 14.5t18 41.5z" />
    <glyph glyph-name="N.sc" horiz-adv-x="695" 
d="M98 125v376q-12 16 -22.5 24t-18.5 10.5t-25 4.5v68h249l244 -302v177q0 32 -16 43.5t-60 13.5v68h226v-68q-42 -2 -53.5 -12.5t-11.5 -44.5v-483h-79l-348 422v-297q0 -32 16 -44t60 -14v-67h-227v67q43 2 54.5 13t11.5 45z" />
    <glyph glyph-name="Nacute.sc" horiz-adv-x="695" 
d="M306 656l68 160h184l-155 -160h-97zM98 125v376q-12 16 -22.5 24t-18.5 10.5t-25 4.5v68h249l244 -302v177q0 32 -16 43.5t-60 13.5v68h226v-68q-42 -2 -53.5 -12.5t-11.5 -44.5v-483h-79l-348 422v-297q0 -32 16 -44t60 -14v-67h-227v67q43 2 54.5 13t11.5 45z" />
    <glyph glyph-name="Ncaron.sc" horiz-adv-x="695" 
d="M472 825h95l-138 -169h-136l-138 169h95l111 -80zM98 125v376q-12 16 -22.5 24t-18.5 10.5t-25 4.5v68h249l244 -302v177q0 32 -16 43.5t-60 13.5v68h226v-68q-42 -2 -53.5 -12.5t-11.5 -44.5v-483h-79l-348 422v-297q0 -32 16 -44t60 -14v-67h-227v67q43 2 54.5 13
t11.5 45z" />
    <glyph glyph-name="Ncommaaccent.sc" horiz-adv-x="695" 
d="M98 125v376q-12 16 -22.5 24t-18.5 10.5t-25 4.5v68h249l244 -302v177q0 32 -16 43.5t-60 13.5v68h226v-68q-42 -2 -53.5 -12.5t-11.5 -44.5v-483h-79l-348 422v-297q0 -32 16 -44t60 -14v-67h-227v67q43 2 54.5 13t11.5 45zM379 -158h-59q-50 14 -50 62q0 28 23 46
t62 18q45 0 71.5 -27.5t26.5 -70.5q0 -54 -43 -87t-134 -33v45q50 0 76 14q26 13 27 33z" />
    <glyph glyph-name="Eng.sc" horiz-adv-x="695" 
d="M465 80l-282 342v-297q0 -32 16 -44t60 -14v-67h-227v67q43 2 54.5 13t11.5 45v376q-12 16 -22.5 24t-18.5 10.5t-25 4.5v68h249l244 -302v177q0 32 -16 43.5t-60 13.5v68h226v-68q-42 -2 -53.5 -12.5t-11.5 -44.5v-357q0 -139 -65 -210q-22 -24 -50 -43.5t-46 -28
t-51 -22.5l-30 29l26 35q71 94 71 194z" />
    <glyph glyph-name="Ntilde.sc" horiz-adv-x="695" 
d="M502 823l60 -12q-40 -94 -69 -121q-28 -28 -72 -28q-29 0 -75 30t-61 30q-14 0 -26.5 -9t-19.5 -18t-19 -28l-60 12q40 93 69 122q29 27 72 27q36 0 78 -30t58 -30q19 0 33.5 14t31.5 41zM98 125v376q-12 16 -22.5 24t-18.5 10.5t-25 4.5v68h249l244 -302v177
q0 32 -16 43.5t-60 13.5v68h226v-68q-42 -2 -53.5 -12.5t-11.5 -44.5v-483h-79l-348 422v-297q0 -32 16 -44t60 -14v-67h-227v67q43 2 54.5 13t11.5 45z" />
    <glyph glyph-name="O.sc" horiz-adv-x="695" 
d="M338 -10q-143 0 -226 91q-78 84 -78 211q0 147 90.5 236.5t232.5 89.5q143 0 226 -90q78 -86 78 -212q0 -147 -90.5 -236.5t-232.5 -89.5zM359 59q51 0 74 62.5t23 164.5q0 126 -30.5 194.5t-89.5 68.5q-51 0 -74 -62.5t-23 -164.5q0 -126 30.5 -194.5t89.5 -68.5z" />
    <glyph glyph-name="Oacute.sc" horiz-adv-x="695" 
d="M296 656l68 160h184l-155 -160h-97zM338 -10q-143 0 -226 91q-78 84 -78 211q0 147 90.5 236.5t232.5 89.5q143 0 226 -90q78 -86 78 -212q0 -147 -90.5 -236.5t-232.5 -89.5zM359 59q51 0 74 62.5t23 164.5q0 126 -30.5 194.5t-89.5 68.5q-51 0 -74 -62.5t-23 -164.5
q0 -126 30.5 -194.5t89.5 -68.5z" />
    <glyph glyph-name="Obreve.sc" horiz-adv-x="695" 
d="M351 653q-75 0 -117 45.5t-42 124.5h70q12 -78 89 -78t89 78h70q0 -79 -42 -124.5t-117 -45.5zM338 -10q-143 0 -226 91q-78 84 -78 211q0 147 90.5 236.5t232.5 89.5q143 0 226 -90q78 -86 78 -212q0 -147 -90.5 -236.5t-232.5 -89.5zM359 59q51 0 74 62.5t23 164.5
q0 126 -30.5 194.5t-89.5 68.5q-51 0 -74 -62.5t-23 -164.5q0 -126 30.5 -194.5t89.5 -68.5z" />
    <glyph glyph-name="Ocircumflex.sc" horiz-adv-x="695" 
d="M283 816h136l138 -169h-95l-111 80l-111 -80h-95zM338 -10q-143 0 -226 91q-78 84 -78 211q0 147 90.5 236.5t232.5 89.5q143 0 226 -90q78 -86 78 -212q0 -147 -90.5 -236.5t-232.5 -89.5zM359 59q51 0 74 62.5t23 164.5q0 126 -30.5 194.5t-89.5 68.5q-51 0 -74 -62.5
t-23 -164.5q0 -126 30.5 -194.5t89.5 -68.5z" />
    <glyph glyph-name="Odieresis.sc" horiz-adv-x="695" 
d="M152 741q0 36 26 62t63 26t63.5 -26t26.5 -62t-26.5 -62t-63.5 -26t-63 26t-26 62zM372 741q0 36 26.5 62t61.5 26q38 0 64.5 -26t26.5 -62t-26.5 -62t-64.5 -26q-35 0 -61.5 26t-26.5 62zM338 -10q-143 0 -226 91q-78 84 -78 211q0 147 90.5 236.5t232.5 89.5
q143 0 226 -90q78 -86 78 -212q0 -147 -90.5 -236.5t-232.5 -89.5zM359 59q51 0 74 62.5t23 164.5q0 126 -30.5 194.5t-89.5 68.5q-51 0 -74 -62.5t-23 -164.5q0 -126 30.5 -194.5t89.5 -68.5z" />
    <glyph glyph-name="Ograve.sc" horiz-adv-x="695" 
d="M308 656l-155 160h184l67 -160h-96zM338 -10q-143 0 -226 91q-78 84 -78 211q0 147 90.5 236.5t232.5 89.5q143 0 226 -90q78 -86 78 -212q0 -147 -90.5 -236.5t-232.5 -89.5zM359 59q51 0 74 62.5t23 164.5q0 126 -30.5 194.5t-89.5 68.5q-51 0 -74 -62.5t-23 -164.5
q0 -126 30.5 -194.5t89.5 -68.5z" />
    <glyph glyph-name="Ohungarumlaut.sc" horiz-adv-x="695" 
d="M205 656l67 160h158l-137 -160h-88zM400 656l67 160h158l-137 -160h-88zM338 -10q-143 0 -226 91q-78 84 -78 211q0 147 90.5 236.5t232.5 89.5q143 0 226 -90q78 -86 78 -212q0 -147 -90.5 -236.5t-232.5 -89.5zM359 59q51 0 74 62.5t23 164.5q0 126 -30.5 194.5
t-89.5 68.5q-51 0 -74 -62.5t-23 -164.5q0 -126 30.5 -194.5t89.5 -68.5z" />
    <glyph glyph-name="Omacron.sc" horiz-adv-x="695" 
d="M505 676h-308v101h308v-101zM338 -10q-143 0 -226 91q-78 84 -78 211q0 147 90.5 236.5t232.5 89.5q143 0 226 -90q78 -86 78 -212q0 -147 -90.5 -236.5t-232.5 -89.5zM359 59q51 0 74 62.5t23 164.5q0 126 -30.5 194.5t-89.5 68.5q-51 0 -74 -62.5t-23 -164.5
q0 -126 30.5 -194.5t89.5 -68.5z" />
    <glyph glyph-name="Oslash.sc" horiz-adv-x="695" 
d="M338 -10q-81 0 -147 32l-67 -96l-50 34l66 94q-51 42 -78.5 104.5t-27.5 133.5q0 147 90.5 236.5t232.5 89.5q86 0 153 -36l58 83l50 -34l-58 -82q101 -89 101 -233q0 -147 -90.5 -236.5t-232.5 -89.5zM237 322q0 -65 8 -118l187 268q-30 77 -96 77q-51 0 -75 -63
t-24 -164zM359 59q51 0 75 63t24 164q0 64 -7 107l-185 -265q29 -69 93 -69z" />
    <glyph glyph-name="Oslashacute.sc" horiz-adv-x="695" 
d="M292 656l68 160h184l-155 -160h-97zM338 -10q-81 0 -147 32l-67 -96l-50 34l66 94q-51 42 -78.5 104.5t-27.5 133.5q0 147 90.5 236.5t232.5 89.5q86 0 153 -36l58 83l50 -34l-58 -82q101 -89 101 -233q0 -147 -90.5 -236.5t-232.5 -89.5zM237 322q0 -65 8 -118l187 268
q-30 77 -96 77q-51 0 -75 -63t-24 -164zM359 59q51 0 75 63t24 164q0 64 -7 107l-185 -265q29 -69 93 -69z" />
    <glyph glyph-name="Otilde.sc" horiz-adv-x="695" 
d="M502 823l60 -12q-40 -94 -69 -121q-28 -28 -72 -28q-29 0 -75 30t-61 30q-14 0 -26.5 -9t-19.5 -18t-19 -28l-60 12q40 93 69 122q29 27 72 27q36 0 78 -30t58 -30q19 0 33.5 14t31.5 41zM338 -10q-143 0 -226 91q-78 84 -78 211q0 147 90.5 236.5t232.5 89.5
q143 0 226 -90q78 -86 78 -212q0 -147 -90.5 -236.5t-232.5 -89.5zM359 59q51 0 74 62.5t23 164.5q0 126 -30.5 194.5t-89.5 68.5q-51 0 -74 -62.5t-23 -164.5q0 -126 30.5 -194.5t89.5 -68.5z" />
    <glyph glyph-name="OE.sc" horiz-adv-x="955" 
d="M930 187l-27 -187h-496q-177 0 -275 76t-98 224q0 140 98 224t259 84h507v-173h-78q-23 58 -46.5 82t-72.5 24h-73v-192h52q30 0 43.5 13t20.5 51h64v-199h-64q-7 38 -20.5 51.5t-43.5 13.5h-52v-155q0 -32 16 -44.5t51 -12.5h13q42 0 71.5 26t74.5 94h76zM433 67h5v474
h-40q-71 0 -114.5 -60t-43.5 -178q0 -113 51 -174.5t142 -61.5z" />
    <glyph glyph-name="P.sc" horiz-adv-x="627" 
d="M390 67v-67h-358v68q43 2 54.5 13t11.5 45v356q0 34 -11.5 45t-54.5 13v68h324q124 0 188.5 -52.5t64.5 -137.5q0 -191 -256 -191h-61v-102q0 -32 20 -43.5t78 -14.5zM300 539h-8v-250h15q52 0 82 34t30 96q0 56 -33.5 88t-85.5 32z" />
    <glyph glyph-name="Thorn.sc" horiz-adv-x="631" 
d="M292 485v-4h58q126 0 193.5 -46.5t67.5 -128.5q0 -91 -66.5 -133.5t-197.5 -42.5h-55v-5q0 -32 21 -43.5t79 -14.5v-67h-360v68q43 2 54.5 12.5t11.5 44.5v358q0 34 -11.5 44.5t-54.5 12.5v68h326v-68q-43 -2 -54.5 -12.5t-11.5 -42.5zM297 412h-5v-220h9q55 0 87.5 28
t32.5 87q0 53 -35 79t-89 26z" />
    <glyph glyph-name="Q.sc" horiz-adv-x="693" 
d="M355 616q143 0 226 -90q78 -84 78 -210q0 -117 -59.5 -200t-159.5 -111l68 -52q28 -22 47.5 -29t54.5 -7v-35q-43 -36 -114 -36q-98 0 -186 105l-38 46q-112 18 -175 100.5t-63 194.5q0 147 90 235.5t231 88.5zM357 60q51 0 74 62.5t23 164.5q0 125 -30 192.5t-89 67.5
q-97 0 -97 -226q0 -125 30 -193t89 -68z" />
    <glyph glyph-name="R.sc" horiz-adv-x="698" 
d="M352 67v-67h-320v68q43 2 54.5 13t11.5 45v356q0 34 -11.5 45t-54.5 13v68h352q123 0 185.5 -46.5t62.5 -129.5q0 -113 -123 -155l92 -147q24 -37 41.5 -49.5t49.5 -13.5v-67h-211q-42 37 -72 101l-73 153h-47v-129q0 -35 10.5 -45.5t52.5 -12.5zM312 539h-23v-228h21
q68 0 99.5 29t31.5 89q0 110 -129 110z" />
    <glyph glyph-name="Racute.sc" horiz-adv-x="698" 
d="M293 656l68 160h184l-155 -160h-97zM352 67v-67h-320v68q43 2 54.5 13t11.5 45v356q0 34 -11.5 45t-54.5 13v68h352q123 0 185.5 -46.5t62.5 -129.5q0 -113 -123 -155l92 -147q24 -37 41.5 -49.5t49.5 -13.5v-67h-211q-42 37 -72 101l-73 153h-47v-129q0 -35 10.5 -45.5
t52.5 -12.5zM312 539h-23v-228h21q68 0 99.5 29t31.5 89q0 110 -129 110z" />
    <glyph glyph-name="Rcaron.sc" horiz-adv-x="698" 
d="M459 825h95l-138 -169h-136l-138 169h95l111 -80zM352 67v-67h-320v68q43 2 54.5 13t11.5 45v356q0 34 -11.5 45t-54.5 13v68h352q123 0 185.5 -46.5t62.5 -129.5q0 -113 -123 -155l92 -147q24 -37 41.5 -49.5t49.5 -13.5v-67h-211q-42 37 -72 101l-73 153h-47v-129
q0 -35 10.5 -45.5t52.5 -12.5zM312 539h-23v-228h21q68 0 99.5 29t31.5 89q0 110 -129 110z" />
    <glyph glyph-name="Rcommaaccent.sc" horiz-adv-x="698" 
d="M352 67v-67h-320v68q43 2 54.5 13t11.5 45v356q0 34 -11.5 45t-54.5 13v68h352q123 0 185.5 -46.5t62.5 -129.5q0 -113 -123 -155l92 -147q24 -37 41.5 -49.5t49.5 -13.5v-67h-211q-42 37 -72 101l-73 153h-47v-129q0 -35 10.5 -45.5t52.5 -12.5zM312 539h-23v-228h21
q68 0 99.5 29t31.5 89q0 110 -129 110zM386 -158h-59q-50 14 -50 62q0 28 23 46t62 18q45 0 71.5 -27.5t26.5 -70.5q0 -54 -43 -87t-134 -33v45q50 0 76 14q25 13 27 33z" />
    <glyph glyph-name="S.sc" horiz-adv-x="565" 
d="M272 -10q-137 0 -219 58l-10 145h101q18 -75 51.5 -106.5t93.5 -31.5q38 0 62 17t24 49q0 29 -25 45q-26 17 -95 33q-105 25 -155.5 74t-50.5 134q0 99 65.5 155t167.5 56q126 0 206 -53v-130h-86q-11 30 -20 47.5t-23.5 36.5t-35.5 27.5t-50 8.5q-40 0 -61 -19t-21 -50
q0 -32 27.5 -49.5t94.5 -30.5q106 -22 158 -70t52 -142q0 -102 -70 -153t-181 -51z" />
    <glyph glyph-name="Sacute.sc" horiz-adv-x="565" 
d="M241 656l68 160h184l-155 -160h-97zM272 -10q-137 0 -219 58l-10 145h101q18 -75 51.5 -106.5t93.5 -31.5q38 0 62 17t24 49q0 29 -25 45q-26 17 -95 33q-105 25 -155.5 74t-50.5 134q0 99 65.5 155t167.5 56q126 0 206 -53v-130h-86q-11 30 -20 47.5t-23.5 36.5
t-35.5 27.5t-50 8.5q-40 0 -61 -19t-21 -50q0 -32 27.5 -49.5t94.5 -30.5q106 -22 158 -70t52 -142q0 -102 -70 -153t-181 -51z" />
    <glyph glyph-name="Scaron.sc" horiz-adv-x="565" 
d="M407 825h95l-138 -169h-136l-138 169h95l111 -80zM272 -10q-137 0 -219 58l-10 145h101q18 -75 51.5 -106.5t93.5 -31.5q38 0 62 17t24 49q0 29 -25 45q-26 17 -95 33q-105 25 -155.5 74t-50.5 134q0 99 65.5 155t167.5 56q126 0 206 -53v-130h-86q-11 30 -20 47.5
t-23.5 36.5t-35.5 27.5t-50 8.5q-40 0 -61 -19t-21 -50q0 -32 27.5 -49.5t94.5 -30.5q106 -22 158 -70t52 -142q0 -102 -70 -153t-181 -51z" />
    <glyph glyph-name="Scedilla.sc" horiz-adv-x="565" 
d="M175 -233l-11 49q55 0 85 10q30 9 30 29q0 34 -85 36l41 100q-113 7 -182 57l-10 145h101q18 -75 51.5 -106.5t93.5 -31.5q38 0 62 17t24 49q0 29 -25 45q-26 17 -95 33q-105 25 -155.5 74t-50.5 134q0 99 65.5 155t167.5 56q126 0 206 -53v-130h-86q-11 30 -20 47.5
t-23.5 36.5t-35.5 27.5t-50 8.5q-40 0 -61 -19t-21 -50q0 -32 27.5 -49.5t94.5 -30.5q106 -22 158 -70t52 -142q0 -99 -65.5 -150t-172.5 -54l-12 -34q97 -8 97 -78q0 -52 -57.5 -81.5t-137.5 -29.5z" />
    <glyph glyph-name="Scircumflex.sc" horiz-adv-x="565" 
d="M223 816h136l138 -169h-95l-111 80l-111 -80h-95zM272 -10q-137 0 -219 58l-10 145h101q18 -75 51.5 -106.5t93.5 -31.5q38 0 62 17t24 49q0 29 -25 45q-26 17 -95 33q-105 25 -155.5 74t-50.5 134q0 99 65.5 155t167.5 56q126 0 206 -53v-130h-86q-11 30 -20 47.5
t-23.5 36.5t-35.5 27.5t-50 8.5q-40 0 -61 -19t-21 -50q0 -32 27.5 -49.5t94.5 -30.5q106 -22 158 -70t52 -142q0 -102 -70 -153t-181 -51z" />
    <glyph glyph-name="Scommaaccent.sc" horiz-adv-x="565" 
d="M272 -10q-137 0 -219 58l-10 145h101q18 -75 51.5 -106.5t93.5 -31.5q38 0 62 17t24 49q0 29 -25 45q-26 17 -95 33q-105 25 -155.5 74t-50.5 134q0 99 65.5 155t167.5 56q126 0 206 -53v-130h-86q-11 30 -20 47.5t-23.5 36.5t-35.5 27.5t-50 8.5q-40 0 -61 -19t-21 -50
q0 -32 27.5 -49.5t94.5 -30.5q106 -22 158 -70t52 -142q0 -102 -70 -153t-181 -51zM319 -158h-59q-50 14 -50 62q0 28 23 46t62 18q45 0 71.5 -27.5t26.5 -70.5q0 -54 -43 -87t-134 -33v45q50 0 76 14q26 13 27 33z" />
    <glyph glyph-name="T.sc" horiz-adv-x="651" 
d="M18 395l14 213h587l14 -213h-78q-14 36 -20.5 51.5t-19 39t-23 33t-26.5 17.5t-36 8h-10v-419q0 -32 16 -44t61 -14v-67h-343v67q45 2 61 14t16 44v419h-10q-20 0 -36 -8t-26.5 -17.5t-23 -33t-19 -39t-20.5 -51.5h-78z" />
    <glyph glyph-name="Tbar.sc" horiz-adv-x="651" 
d="M18 395l14 213h587l14 -213h-78q-14 36 -20.5 51.5t-19 39t-23 33t-26.5 17.5t-36 8h-10v-205h89v-71h-89v-143q0 -32 16 -44t61 -14v-67h-343v67q45 2 61 14t16 44v143h-89v71h89v205h-10q-20 0 -36 -8t-26.5 -17.5t-23 -33t-19 -39t-20.5 -51.5h-78z" />
    <glyph glyph-name="Tcaron.sc" horiz-adv-x="651" 
d="M436 825h95l-138 -169h-136l-138 169h95l111 -80zM18 395l14 213h587l14 -213h-78q-14 36 -20.5 51.5t-19 39t-23 33t-26.5 17.5t-36 8h-10v-419q0 -32 16 -44t61 -14v-67h-343v67q45 2 61 14t16 44v419h-10q-20 0 -36 -8t-26.5 -17.5t-23 -33t-19 -39t-20.5 -51.5h-78z
" />
    <glyph glyph-name="uni021A.sc" horiz-adv-x="651" 
d="M231 -233l-11 49q55 0 85 10q30 9 30 29q0 34 -85 36l44 109h-140v67q45 2 61 14t16 44v419h-10q-20 0 -36 -8t-26.5 -17.5t-23 -33t-19 -39t-20.5 -51.5h-78l14 213h587l14 -213h-78q-14 36 -20.5 51.5t-19 39t-23 33t-26.5 17.5t-36 8h-10v-419q0 -32 16 -44t61 -14
v-67h-152l-16 -44q97 -8 97 -78q0 -52 -57.5 -81.5t-137.5 -29.5z" />
    <glyph glyph-name="U.sc" horiz-adv-x="699" 
d="M286 483v-246q0 -71 22.5 -107.5t83.5 -36.5q59 0 92.5 33t33.5 119v238q0 32 -15.5 43.5t-59.5 13.5v68h231v-68q-42 -2 -54 -13t-12 -44v-267q0 -110 -69 -168t-177 -58q-132 0 -202 57.5t-70 168.5v267q0 34 -11.5 44.5t-53.5 12.5v68h324v-68q-42 -2 -52.5 -12.5
t-10.5 -44.5z" />
    <glyph glyph-name="Uacute.sc" horiz-adv-x="699" 
d="M331 656l68 160h184l-155 -160h-97zM286 483v-246q0 -71 22.5 -107.5t83.5 -36.5q59 0 92.5 33t33.5 119v238q0 32 -15.5 43.5t-59.5 13.5v68h231v-68q-42 -2 -54 -13t-12 -44v-267q0 -110 -69 -168t-177 -58q-132 0 -202 57.5t-70 168.5v267q0 34 -11.5 44.5t-53.5 12.5
v68h324v-68q-42 -2 -52.5 -12.5t-10.5 -44.5z" />
    <glyph glyph-name="Ubreve.sc" horiz-adv-x="699" 
d="M376 653q-75 0 -117 45.5t-42 124.5h70q12 -78 89 -78t89 78h70q0 -79 -42 -124.5t-117 -45.5zM286 483v-246q0 -71 22.5 -107.5t83.5 -36.5q59 0 92.5 33t33.5 119v238q0 32 -15.5 43.5t-59.5 13.5v68h231v-68q-42 -2 -54 -13t-12 -44v-267q0 -110 -69 -168t-177 -58
q-132 0 -202 57.5t-70 168.5v267q0 34 -11.5 44.5t-53.5 12.5v68h324v-68q-42 -2 -52.5 -12.5t-10.5 -44.5z" />
    <glyph glyph-name="Ucircumflex.sc" horiz-adv-x="699" 
d="M308 816h136l138 -169h-95l-111 80l-111 -80h-95zM286 483v-246q0 -71 22.5 -107.5t83.5 -36.5q59 0 92.5 33t33.5 119v238q0 32 -15.5 43.5t-59.5 13.5v68h231v-68q-42 -2 -54 -13t-12 -44v-267q0 -110 -69 -168t-177 -58q-132 0 -202 57.5t-70 168.5v267
q0 34 -11.5 44.5t-53.5 12.5v68h324v-68q-42 -2 -52.5 -12.5t-10.5 -44.5z" />
    <glyph glyph-name="Udieresis.sc" horiz-adv-x="699" 
d="M175 741q0 36 26 62t63 26t63.5 -26t26.5 -62t-26.5 -62t-63.5 -26t-63 26t-26 62zM395 741q0 36 26.5 62t61.5 26q38 0 64.5 -26t26.5 -62t-26.5 -62t-64.5 -26q-35 0 -61.5 26t-26.5 62zM286 483v-246q0 -71 22.5 -107.5t83.5 -36.5q59 0 92.5 33t33.5 119v238
q0 32 -15.5 43.5t-59.5 13.5v68h231v-68q-42 -2 -54 -13t-12 -44v-267q0 -110 -69 -168t-177 -58q-132 0 -202 57.5t-70 168.5v267q0 34 -11.5 44.5t-53.5 12.5v68h324v-68q-42 -2 -52.5 -12.5t-10.5 -44.5z" />
    <glyph glyph-name="Ugrave.sc" horiz-adv-x="699" 
d="M343 656l-155 160h184l67 -160h-96zM286 483v-246q0 -71 22.5 -107.5t83.5 -36.5q59 0 92.5 33t33.5 119v238q0 32 -15.5 43.5t-59.5 13.5v68h231v-68q-42 -2 -54 -13t-12 -44v-267q0 -110 -69 -168t-177 -58q-132 0 -202 57.5t-70 168.5v267q0 34 -11.5 44.5t-53.5 12.5
v68h324v-68q-42 -2 -52.5 -12.5t-10.5 -44.5z" />
    <glyph glyph-name="Uhungarumlaut.sc" horiz-adv-x="699" 
d="M240 656l67 160h158l-137 -160h-88zM435 656l67 160h158l-137 -160h-88zM286 483v-246q0 -71 22.5 -107.5t83.5 -36.5q59 0 92.5 33t33.5 119v238q0 32 -15.5 43.5t-59.5 13.5v68h231v-68q-42 -2 -54 -13t-12 -44v-267q0 -110 -69 -168t-177 -58q-132 0 -202 57.5
t-70 168.5v267q0 34 -11.5 44.5t-53.5 12.5v68h324v-68q-42 -2 -52.5 -12.5t-10.5 -44.5z" />
    <glyph glyph-name="Umacron.sc" horiz-adv-x="699" 
d="M530 676h-308v101h308v-101zM286 483v-246q0 -71 22.5 -107.5t83.5 -36.5q59 0 92.5 33t33.5 119v238q0 32 -15.5 43.5t-59.5 13.5v68h231v-68q-42 -2 -54 -13t-12 -44v-267q0 -110 -69 -168t-177 -58q-132 0 -202 57.5t-70 168.5v267q0 34 -11.5 44.5t-53.5 12.5v68h324
v-68q-42 -2 -52.5 -12.5t-10.5 -44.5z" />
    <glyph glyph-name="Uogonek.sc" horiz-adv-x="699" 
d="M286 483v-246q0 -71 22.5 -107.5t83.5 -36.5q59 0 92.5 33t33.5 119v238q0 32 -15.5 43.5t-59.5 13.5v68h231v-68q-42 -2 -54 -13t-12 -44v-267q0 -155 -132 -207q-79 -43 -79 -102q0 -17 10.5 -28.5t32.5 -11.5q36 0 70 19l19 -27q-68 -74 -145 -74q-41 0 -68.5 22.5
t-27.5 60.5q0 72 81 122q-137 0 -208 57.5t-71 168.5v267q0 34 -11.5 44.5t-53.5 12.5v68h324v-68q-42 -2 -52.5 -12.5t-10.5 -44.5z" />
    <glyph glyph-name="Uring.sc" horiz-adv-x="699" 
d="M273 748q0 43 32 72t81 29t81 -29t32 -72t-32 -72t-81 -29t-81 29t-32 72zM432 748q0 19 -12.5 31.5t-33.5 12.5t-33.5 -12.5t-12.5 -31.5t12.5 -31.5t33.5 -12.5t33.5 12.5t12.5 31.5zM286 483v-246q0 -71 22.5 -107.5t83.5 -36.5q59 0 92.5 33t33.5 119v238
q0 32 -15.5 43.5t-59.5 13.5v68h231v-68q-42 -2 -54 -13t-12 -44v-267q0 -110 -69 -168t-177 -58q-132 0 -202 57.5t-70 168.5v267q0 34 -11.5 44.5t-53.5 12.5v68h324v-68q-42 -2 -52.5 -12.5t-10.5 -44.5z" />
    <glyph glyph-name="Utilde.sc" horiz-adv-x="699" 
d="M517 823l60 -12q-40 -94 -69 -121q-28 -28 -72 -28q-29 0 -75 30t-61 30q-14 0 -26.5 -9t-19.5 -18t-19 -28l-60 12q40 93 69 122q28 27 72 27q36 0 78 -30t58 -30q19 0 33.5 14t31.5 41zM286 483v-246q0 -71 22.5 -107.5t83.5 -36.5q59 0 92.5 33t33.5 119v238
q0 32 -15.5 43.5t-59.5 13.5v68h231v-68q-42 -2 -54 -13t-12 -44v-267q0 -110 -69 -168t-177 -58q-132 0 -202 57.5t-70 168.5v267q0 34 -11.5 44.5t-53.5 12.5v68h324v-68q-42 -2 -52.5 -12.5t-10.5 -44.5z" />
    <glyph glyph-name="V.sc" horiz-adv-x="659" 
d="M287 467l107 -213l93 214q9 23 9 34q0 20 -11 28t-47 10v68h209v-68q-21 -3 -32 -9t-19 -23l-225 -510h-50l-260 510q-8 17 -18.5 23t-30.5 9v68h325v-68q-36 -2 -47.5 -10t-11.5 -28q0 -13 9 -35z" />
    <glyph glyph-name="W.sc" horiz-adv-x="921" 
d="M615 443l59 -189l73 193q10 29 11 35q3 13 3 20q0 20 -10.5 28t-46.5 10v68h205v-68q-43 -7 -52 -32l-198 -510h-65l-120 321l-127 -321h-67l-219 510q-11 26 -49 32v68h306v-68q-25 -3 -35.5 -12t-10.5 -26q0 -18 12 -46l83 -209l69 178l-29 83q-13 27 -43 32v68h294
v-68q-36 -2 -46.5 -10t-10.5 -28q0 -7 3 -19q1 -10 11 -40z" />
    <glyph glyph-name="Wacute.sc" horiz-adv-x="921" 
d="M437 656l68 160h184l-155 -160h-97zM615 443l59 -189l73 193q10 29 11 35q3 13 3 20q0 20 -10.5 28t-46.5 10v68h205v-68q-43 -7 -52 -32l-198 -510h-65l-120 321l-127 -321h-67l-219 510q-11 26 -49 32v68h306v-68q-25 -3 -35.5 -12t-10.5 -26q0 -18 12 -46l83 -209
l69 178l-29 83q-13 27 -43 32v68h294v-68q-36 -2 -46.5 -10t-10.5 -28q0 -7 3 -19q1 -10 11 -40z" />
    <glyph glyph-name="Wcircumflex.sc" horiz-adv-x="921" 
d="M432 816h136l138 -169h-95l-111 80l-111 -80h-95zM615 443l59 -189l73 193q10 29 11 35q3 13 3 20q0 20 -10.5 28t-46.5 10v68h205v-68q-43 -7 -52 -32l-198 -510h-65l-120 321l-127 -321h-67l-219 510q-11 26 -49 32v68h306v-68q-25 -3 -35.5 -12t-10.5 -26
q0 -18 12 -46l83 -209l69 178l-29 83q-13 27 -43 32v68h294v-68q-36 -2 -46.5 -10t-10.5 -28q0 -7 3 -19q1 -10 11 -40z" />
    <glyph glyph-name="Wdieresis.sc" horiz-adv-x="921" 
d="M293 741q0 36 26 62t63 26t63.5 -26t26.5 -62t-26.5 -62t-63.5 -26t-63 26t-26 62zM513 741q0 36 26.5 62t61.5 26q38 0 64.5 -26t26.5 -62t-26.5 -62t-64.5 -26q-35 0 -61.5 26t-26.5 62zM615 443l59 -189l73 193q10 29 11 35q3 13 3 20q0 20 -10.5 28t-46.5 10v68h205
v-68q-43 -7 -52 -32l-198 -510h-65l-120 321l-127 -321h-67l-219 510q-11 26 -49 32v68h306v-68q-25 -3 -35.5 -12t-10.5 -26q0 -18 12 -46l83 -209l69 178l-29 83q-13 27 -43 32v68h294v-68q-36 -2 -46.5 -10t-10.5 -28q0 -7 3 -19q1 -10 11 -40z" />
    <glyph glyph-name="Wgrave.sc" horiz-adv-x="921" 
d="M449 656l-155 160h184l67 -160h-96zM615 443l59 -189l73 193q10 29 11 35q3 13 3 20q0 20 -10.5 28t-46.5 10v68h205v-68q-43 -7 -52 -32l-198 -510h-65l-120 321l-127 -321h-67l-219 510q-11 26 -49 32v68h306v-68q-25 -3 -35.5 -12t-10.5 -26q0 -18 12 -46l83 -209
l69 178l-29 83q-13 27 -43 32v68h294v-68q-36 -2 -46.5 -10t-10.5 -28q0 -7 3 -19q1 -10 11 -40z" />
    <glyph glyph-name="X.sc" horiz-adv-x="687" 
d="M379 131l-85 107l-85 -107q-16 -17 -16 -35q0 -29 42 -29v-67h-223v67q44 0 67 26l168 205l-171 217q-19 24 -44 25v68h318v-68q-42 0 -42 -28q0 -8 21 -35l55 -72l54 71q16 19 16 36q0 28 -39 28v68h219v-68q-38 0 -63 -25l-142 -169l196 -253q15 -19 50 -26v-67h-311
v67q34 0 34 29q0 10 -19 35z" />
    <glyph glyph-name="Y.sc" horiz-adv-x="644" 
d="M295 449l82 -152l82 152q23 44 23 57q0 32 -55 34v68h205v-68q-21 -3 -32 -9.5t-19 -22.5l-162 -293v-90q0 -33 14 -44.5t58 -13.5v-67h-330v67q43 2 57.5 13.5t14.5 44.5v91l-172 292q-9 16 -19.5 22.5t-29.5 9.5v68h315v-68q-31 -1 -42 -8.5t-11 -25.5q0 -17 21 -57z
" />
    <glyph glyph-name="Yacute.sc" horiz-adv-x="644" 
d="M304 656l68 160h184l-155 -160h-97zM295 449l82 -152l82 152q23 44 23 57q0 32 -55 34v68h205v-68q-21 -3 -32 -9.5t-19 -22.5l-162 -293v-90q0 -33 14 -44.5t58 -13.5v-67h-330v67q43 2 57.5 13.5t14.5 44.5v91l-172 292q-9 16 -19.5 22.5t-29.5 9.5v68h315v-68
q-31 -1 -42 -8.5t-11 -25.5q0 -17 21 -57z" />
    <glyph glyph-name="Ycircumflex.sc" horiz-adv-x="644" 
d="M281 816h136l138 -169h-95l-111 80l-111 -80h-95zM295 449l82 -152l82 152q23 44 23 57q0 32 -55 34v68h205v-68q-21 -3 -32 -9.5t-19 -22.5l-162 -293v-90q0 -33 14 -44.5t58 -13.5v-67h-330v67q43 2 57.5 13.5t14.5 44.5v91l-172 292q-9 16 -19.5 22.5t-29.5 9.5v68
h315v-68q-31 -1 -42 -8.5t-11 -25.5q0 -17 21 -57z" />
    <glyph glyph-name="Ydieresis.sc" horiz-adv-x="644" 
d="M150 741q0 36 26 62t63 26t63.5 -26t26.5 -62t-26.5 -62t-63.5 -26t-63 26t-26 62zM370 741q0 36 26.5 62t61.5 26q38 0 64.5 -26t26.5 -62t-26.5 -62t-64.5 -26q-35 0 -61.5 26t-26.5 62zM295 449l82 -152l82 152q23 44 23 57q0 32 -55 34v68h205v-68q-21 -3 -32 -9.5
t-19 -22.5l-162 -293v-90q0 -33 14 -44.5t58 -13.5v-67h-330v67q43 2 57.5 13.5t14.5 44.5v91l-172 292q-9 16 -19.5 22.5t-29.5 9.5v68h315v-68q-31 -1 -42 -8.5t-11 -25.5q0 -17 21 -57z" />
    <glyph glyph-name="Ygrave.sc" horiz-adv-x="644" 
d="M316 656l-155 160h184l67 -160h-96zM295 449l82 -152l82 152q23 44 23 57q0 32 -55 34v68h205v-68q-21 -3 -32 -9.5t-19 -22.5l-162 -293v-90q0 -33 14 -44.5t58 -13.5v-67h-330v67q43 2 57.5 13.5t14.5 44.5v91l-172 292q-9 16 -19.5 22.5t-29.5 9.5v68h315v-68
q-31 -1 -42 -8.5t-11 -25.5q0 -17 21 -57z" />
    <glyph glyph-name="Z.sc" horiz-adv-x="591" 
d="M555 559l-304 -490h93q48 0 71 22q32 29 80 121h75l-32 -212h-514v47l308 491h-91q-54 0 -72 -34l-44 -84h-71v188h501v-49z" />
    <glyph glyph-name="Zacute.sc" horiz-adv-x="591" 
d="M266 656l68 160h184l-155 -160h-97zM555 559l-304 -490h93q48 0 71 22q32 29 80 121h75l-32 -212h-514v47l308 491h-91q-54 0 -72 -34l-44 -84h-71v188h501v-49z" />
    <glyph glyph-name="Zcaron.sc" horiz-adv-x="591" 
d="M432 825h95l-138 -169h-136l-138 169h95l111 -80zM555 559l-304 -490h93q48 0 71 22q32 29 80 121h75l-32 -212h-514v47l308 491h-91q-54 0 -72 -34l-44 -84h-71v188h501v-49z" />
    <glyph glyph-name="Zdotaccent.sc" horiz-adv-x="591" 
d="M322 648q-47 0 -75 27.5t-28 67.5t28 67.5t75 27.5q46 0 74 -27.5t28 -67.5t-28 -67.5t-74 -27.5zM555 559l-304 -490h93q48 0 71 22q32 29 80 121h75l-32 -212h-514v47l308 491h-91q-54 0 -72 -34l-44 -84h-71v188h501v-49z" />
    <glyph glyph-name="zero.lt" 
d="M575 351q0 -162 -70 -258q-73 -102 -205 -102q-131 0 -204 102q-71 97 -71 258q0 160 71 259q73 102 204 102q132 0 205 -102q70 -97 70 -259zM228 351q0 -143 16 -213q16 -73 56 -73t56 73q16 70 16 213t-16 214q-16 73 -56 73t-56 -73q-16 -71 -16 -214z" />
    <glyph glyph-name="one.lt" 
d="M355 711h57v-570q0 -44 31 -58t108 -14v-69h-472v69q85 0 116.5 14t31.5 58v369h-148v63l41 4q90 9 142 40.5t93 93.5z" />
    <glyph glyph-name="two.lt" 
d="M195 148h171q52 0 77 15.5t61 78.5h49l-22 -242h-515v57l199 190q110 103 110 211q0 55 -30 83.5t-83 28.5q-44 0 -74.5 -17t-62.5 -48l-37 41q94 166 265 166q101 0 160 -50.5t59 -141.5q0 -97 -96 -195q-74 -75 -231 -177z" />
    <glyph glyph-name="three.lt" 
d="M343 394q95 -4 152 -53t57 -134q0 -102 -88 -163q-80 -54 -195 -54q-112 0 -176 42.5t-64 104.5q0 29 14 49.5t33 29.5h110v-36q0 -127 100 -127q40 0 63 26.5t23 76.5q0 70 -40.5 113.5t-111.5 43.5h-21l-14 43q84 35 114 68q31 34 31 70q0 37 -23 59.5t-66 22.5
q-68 0 -140 -68l-40 36q40 76 106.5 122t158.5 46q82 0 133.5 -43.5t51.5 -114.5q0 -62 -48.5 -104t-119.5 -56z" />
    <glyph glyph-name="four.lt" 
d="M305 137v44h-285v64l307 457h153v-442h97v-79h-97v-44q0 -40 15 -53t65 -15v-69h-336v69q50 2 65.5 15.5t15.5 52.5zM305 552l-192 -292h192v292z" />
    <glyph glyph-name="five.lt" 
d="M152 702h351v-170h-320l-11 -67q173 -1 273 -61.5t100 -185.5q0 -108 -73 -167.5t-188 -59.5q-113 0 -177.5 41.5t-64.5 104.5q0 27 14 49t33 31h111v-28q0 -133 102 -133q44 0 68 25.5t24 65.5q0 70 -74 114q-74 42 -234 42z" />
    <glyph glyph-name="six.lt" 
d="M479 713l20 -56q-138 -18 -200.5 -83.5t-81.5 -179.5q71 73 168 73q82 0 138 -58t56 -159q0 -124 -82 -196q-73 -64 -184 -64q-128 0 -208.5 83.5t-80.5 222.5q0 180 114 294q121 123 341 123zM269 368q-22 0 -56 -10q0 -5 -0.5 -15.5t-1.5 -15.5q-1 -11 -1 -31
q0 -98 24 -160q29 -76 88 -76q43 0 68 38t25 105q0 71 -37.5 118t-108.5 47z" />
    <glyph glyph-name="seven.lt" 
d="M147 0l298 530h-267q-33 0 -54 -20.5t-38 -69.5h-60l44 262h516v-46l-301 -656h-138z" />
    <glyph glyph-name="eight.lt" 
d="M543 549q0 -57 -38 -92.5t-99 -45.5l14 -6q78 -34 115 -79.5t37 -115.5q0 -103 -74 -161.5t-196 -58.5q-127 0 -200.5 46t-73.5 128q0 60 39 96t104 49l-8 5q-52 22 -82.5 68.5t-30.5 109.5q0 103 68.5 161.5t182.5 58.5q111 0 176.5 -44t65.5 -119zM277 467l82 -35
q49 39 49 108q0 46 -29.5 75t-77.5 29q-47 0 -74 -24t-27 -62q0 -58 77 -91zM340 237l-131 52q-40 -32 -40 -102q0 -57 36.5 -93t96.5 -36q52 0 84.5 23.5t32.5 65.5q0 58 -79 90z" />
    <glyph glyph-name="nine.lt" 
d="M121 -11l-20 56q138 18 200.5 83.5t81.5 179.5q-71 -73 -168 -73q-82 0 -138 58t-56 159q0 124 82 196q73 64 184 64q128 0 208.5 -83.5t80.5 -222.5q0 -179 -113 -294q-123 -123 -342 -123zM331 334q22 0 56 10q1 5 1 16t1 16q1 10 1 30q0 97 -24 161q-29 75 -88 75
q-43 0 -68 -38t-25 -105q0 -71 37.5 -118t108.5 -47z" />
    <glyph glyph-name="zero.op" horiz-adv-x="664" 
d="M39 304q0 141 80.5 227.5t212.5 86.5t212.5 -86.5t80.5 -227.5t-80.5 -227.5t-212.5 -86.5t-212.5 86.5t-80.5 227.5zM242 304q0 -113 18 -175q21 -74 72 -74t72 74q18 62 18 175t-18 175q-21 74 -72 74t-72 -74q-18 -62 -18 -175z" />
    <glyph glyph-name="one.op" horiz-adv-x="444" 
d="M266 618h57v-482q0 -46 15.5 -57t86.5 -15v-64h-391v64q74 4 89 14.5t15 57.5v281h-104v63l36 7q71 14 112 42t84 89z" />
    <glyph glyph-name="two.op" horiz-adv-x="548" 
d="M188 144h173q47 0 69 15t45 57h49l-20 -216h-484v60l98 94l129 123q56 53 56 115q0 41 -25 66t-72 25q-76 0 -148 -77l-36 37q40 76 109 125.5t157 49.5q94 0 146 -47t52 -126q0 -87 -91 -163q-44 -36 -96 -68z" />
    <glyph glyph-name="three.op" horiz-adv-x="530" 
d="M301 300q92 -4 148.5 -53.5t56.5 -134.5q0 -103 -87 -163q-78 -54 -189 -54q-102 0 -156 34.5t-54 89.5q0 26 12.5 44t30.5 26h95q0 -134 93 -134q40 0 61 29t21 77q0 157 -166 157l-12 44q142 61 142 142q0 37 -22.5 59.5t-63.5 22.5q-40 0 -70.5 -18t-64.5 -50l-38 32
q36 74 100.5 121t149.5 47q81 0 132 -42t51 -108q0 -67 -50 -110.5t-120 -57.5z" />
    <glyph glyph-name="four.op" horiz-adv-x="642" 
d="M501 85v-178h-175v178h-312v54l334 469h153v-454h127v-69h-127zM326 458l-212 -304h212v304z" />
    <glyph glyph-name="five.op" horiz-adv-x="524" 
d="M258 -45q41 0 65 25.5t24 67.5q0 72 -77 112.5t-208 50.5l63 397h333v-171h-304l-10 -67q156 -8 246 -67q100 -66 100 -185q0 -105 -76 -165q-75 -58 -184 -58q-102 0 -156 34.5t-54 89.5q0 26 12.5 44t30.5 26h95q0 -134 100 -134z" />
    <glyph glyph-name="six.op" horiz-adv-x="618" 
d="M486 713l19 -56q-135 -18 -196 -83.5t-78 -179.5q55 68 161 68q82 0 137 -56t55 -156q0 -124 -80 -196q-73 -64 -181 -64q-125 0 -204.5 83.5t-79.5 222.5q0 177 119 293q124 123 328 124zM282 368q-23 0 -55 -10q0 -5 -0.5 -15.5t-1.5 -15.5q-1 -11 -1 -31
q0 -100 23 -160q27 -76 85 -76q43 0 66.5 38t23.5 105q0 72 -35 118.5t-105 46.5z" />
    <glyph glyph-name="seven.op" horiz-adv-x="528" 
d="M93 -94l295 534h-217q-33 0 -54 -20.5t-38 -69.5h-60l44 258h466v-46l-311 -656h-125z" />
    <glyph glyph-name="eight.op" horiz-adv-x="592" 
d="M524 549q0 -57 -36.5 -94t-93.5 -47l14 -6q144 -64 144 -192q0 -102 -71 -161t-188 -59q-119 0 -190 48t-71 126q0 60 38 97.5t99 50.5l-8 5q-53 34 -80.5 75.5t-27.5 106.5q0 95 66 154t172 59q108 0 170.5 -44t62.5 -119zM270 464l79 -35q20 16 33.5 46t13.5 65
q0 46 -28.5 75t-76.5 29q-44 0 -69.5 -24t-25.5 -62q0 -62 74 -94zM331 240l-126 52q-38 -30 -38 -105q0 -58 34.5 -93.5t91.5 -35.5q50 0 82 23.5t32 65.5q0 59 -76 93z" />
    <glyph glyph-name="nine.op" horiz-adv-x="618" 
d="M124 -105l-19 56q135 18 196 83.5t78 179.5q-55 -68 -161 -68q-82 0 -137 56t-55 156q0 125 81 196q71 64 180 64q125 0 204.5 -83.5t79.5 -222.5q0 -177 -118 -293q-126 -123 -329 -124zM328 240q23 0 55 10q1 6 1 16t1 16q1 10 1 30q0 99 -22 161q-29 75 -86 75
q-43 0 -66.5 -38t-23.5 -105q0 -72 35 -118.5t105 -46.5z" />
    <glyph glyph-name="zero.ot" 
d="M300 -10q-130 0 -202.5 85.5t-72.5 228.5t72.5 228.5t202.5 85.5t202.5 -85.5t72.5 -228.5t-72.5 -228.5t-202.5 -85.5zM300 55q42 0 60 74q14 57 14 175t-14 175q-18 74 -60 74t-60 -74q-14 -57 -14 -175t14 -175q18 -74 60 -74z" />
    <glyph glyph-name="one.ot" 
d="M355 618h57v-477q0 -44 31 -58t108 -14v-69h-472v69q85 0 116.5 14t31.5 58v276h-148v63l41 4q90 9 142 40.5t93 93.5z" />
    <glyph glyph-name="two.ot" 
d="M198 144h186q47 0 69 15t47 57h50l-20 -216h-503v60l100 94q64 61 134 123q58 52 58 115q0 41 -25 66t-74 25q-79 0 -151 -77l-37 37q40 76 110.5 125.5t160.5 49.5q95 0 148.5 -47t53.5 -126q0 -86 -95 -163q-49 -39 -98 -68z" />
    <glyph glyph-name="three.ot" 
d="M324 300q95 -4 153 -53.5t58 -134.5q0 -102 -90 -163q-79 -54 -194 -54q-104 0 -160 34.5t-56 89.5q0 51 44 70h98q0 -134 98 -134q41 0 63.5 29.5t22.5 76.5q0 157 -175 157l-12 44q149 62 149 142q0 38 -23.5 61.5t-67.5 23.5q-30 0 -58 -12.5t-41.5 -23.5t-39.5 -35
l-39 32q38 75 103.5 121.5t153.5 46.5q84 0 136 -42t52 -108q0 -67 -51 -110.5t-124 -57.5z" />
    <glyph glyph-name="four.ot" 
d="M481 85v-178h-175v178h-294v54l316 469h153v-454h109v-69h-109zM306 458l-208 -304h208v304z" />
    <glyph glyph-name="five.ot" 
d="M293 -45q42 0 66.5 25.5t24.5 67.5q0 72 -79.5 112.5t-212.5 50.5l64 397h350v-171h-320l-11 -67q160 -8 254 -67q102 -65 102 -185q0 -104 -79 -165q-75 -58 -188 -58q-105 0 -160.5 34t-55.5 90q0 26 13.5 44t31.5 26h92q0 -134 108 -134z" />
    <glyph glyph-name="six.ot" 
d="M474 713l19 -56q-135 -18 -196 -83.5t-78 -179.5q55 68 161 68q82 0 137 -56t55 -156q0 -124 -80 -196q-73 -64 -181 -64q-125 0 -204.5 83.5t-79.5 222.5q0 177 119 293q124 123 328 124zM270 368q-23 0 -55 -10q0 -5 -0.5 -15.5t-1.5 -15.5q-1 -11 -1 -31
q0 -100 23 -160q27 -76 85 -76q43 0 66.5 38t23.5 105q0 72 -35 118.5t-105 46.5z" />
    <glyph glyph-name="seven.ot" 
d="M140 -94l295 534h-252q-33 0 -54 -20.5t-38 -69.5h-60l44 258h501v-46l-311 -656h-125z" />
    <glyph glyph-name="eight.ot" 
d="M531 549q0 -57 -37.5 -94t-95.5 -47l14 -6q148 -63 148 -192q0 -102 -72.5 -161t-192.5 -59q-122 0 -194.5 48t-72.5 126q0 60 38.5 97.5t101.5 50.5l-8 5q-55 33 -82.5 75t-27.5 107q0 95 67.5 154t176.5 59q110 0 173.5 -44t63.5 -119zM272 464l80 -35q46 37 46 111
q0 46 -28 75t-76 29q-45 0 -71.5 -24t-26.5 -62q0 -61 76 -94zM333 240l-128 52q-37 -29 -37 -105q0 -58 34 -93.5t93 -35.5q50 0 83 23.5t33 65.5q0 61 -78 93z" />
    <glyph glyph-name="nine.ot" 
d="M125 -105l-19 56q135 18 196 83.5t78 179.5q-55 -68 -161 -68q-82 0 -137 56t-55 156q0 125 81 196q71 64 180 64q125 0 204.5 -83.5t79.5 -222.5q0 -177 -118 -293q-126 -123 -329 -124zM329 240q23 0 55 10q0 6 1 16t1 16q1 10 1 30q0 99 -22 161q-29 75 -86 75
q-43 0 -66.5 -38t-23.5 -105q0 -72 35 -118.5t105 -46.5z" />
    <glyph glyph-name="backslash.cap" horiz-adv-x="442" 
d="M409 -101h-107l-270 871h107z" />
    <glyph glyph-name="periodcentered.cap" horiz-adv-x="315" 
d="M50 355q0 47 31 77.5t76 30.5q46 0 77 -30.5t31 -77.5t-31 -77t-77 -30q-45 0 -76 30t-31 77z" />
    <glyph glyph-name="bullet.cap" horiz-adv-x="422" 
d="M50 359q0 68 47.5 116.5t113.5 48.5t113.5 -48.5t47.5 -116.5q0 -66 -47.5 -115t-113.5 -49t-113.5 49t-47.5 115z" />
    <glyph glyph-name="exclamdown.cap" horiz-adv-x="336" 
d="M66 608q0 42 30 72.5t71 30.5q42 0 72 -30.5t30 -72.5q0 -44 -29.5 -75t-72.5 -31q-41 0 -71 31t-30 75zM124 461h88l59 -461h-206z" />
    <glyph glyph-name="questiondown.cap" horiz-adv-x="480" 
d="M354 607q0 -44 -29.5 -75t-71.5 -31q-43 0 -72.5 31t-29.5 75q0 42 30 72.5t72 30.5t71.5 -30.5t29.5 -72.5zM186 122q0 -63 61 -63q35 0 51.5 22.5t16.5 59.5v53h110q39 -18 39 -66q0 -61 -59 -99.5t-159 -38.5q-106 0 -163 42t-57 125q0 58 29 98.5t88 74.5
q48 26 64.5 50.5t16.5 55.5v26h54q62 -36 62 -103q0 -71 -61 -117q-59 -45 -74 -66q-19 -25 -19 -54z" />
    <glyph glyph-name="slash.cap" horiz-adv-x="442" 
d="M303 770h107l-272 -871h-107z" />
    <glyph glyph-name="colon.tab" horiz-adv-x="300" 
d="M42 396q0 47 31 77.5t76 30.5q46 0 77 -30.5t31 -77.5t-31 -77t-77 -30q-45 0 -76 30t-31 77zM42 97q0 47 31 77.5t76 30.5q46 0 77 -30.5t31 -77.5t-31 -77t-77 -30q-45 0 -76 30t-31 77z" />
    <glyph glyph-name="comma.tab" horiz-adv-x="300" 
d="M157 11h-43q-67 14 -67 91q0 38 26 64.5t70 26.5q51 0 82 -33t31 -94q0 -92 -55 -147t-158 -58v62q52 4 83 26.5t31 61.5z" />
    <glyph glyph-name="period.tab" horiz-adv-x="300" 
d="M42 97q0 47 31 77.5t76 30.5q46 0 77 -30.5t31 -77.5t-31 -77t-77 -30q-45 0 -76 30t-31 77z" />
    <glyph glyph-name="semicolon.tab" horiz-adv-x="300" 
d="M42 396q0 47 31 77.5t76 30.5q46 0 77 -30.5t31 -77.5t-31 -77t-77 -30q-45 0 -76 30t-31 77zM157 11h-43q-67 14 -67 91q0 38 26 64.5t70 26.5q51 0 82 -33t31 -94q0 -92 -55 -147t-158 -58v62q52 4 83 26.5t31 61.5z" />
    <glyph glyph-name="braceleft.cap" horiz-adv-x="393" 
d="M50 317v36q83 16 83 100v189q0 128 225 128v-41q-40 -4 -67.5 -28t-27.5 -70v-184q0 -50 -20 -73.5t-71 -38.5q51 -15 71 -38.5t20 -73.5v-183q0 -46 27.5 -70t67.5 -28v-42q-225 0 -225 128v189q0 84 -83 100z" />
    <glyph glyph-name="braceright.cap" horiz-adv-x="393" 
d="M343 353v-36q-83 -16 -83 -100v-189q0 -128 -225 -128v42q40 4 67.5 28t27.5 70v183q0 50 20 73.5t71 38.5q-51 15 -71 38.5t-20 73.5v184q0 46 -27.5 70t-67.5 28v41q225 0 225 -128v-189q0 -84 83 -100z" />
    <glyph glyph-name="bracketleft.cap" horiz-adv-x="357" 
d="M209 658v-647q0 -36 22.5 -46t90.5 -14v-52h-237v871h237v-52q-68 -4 -90.5 -14t-22.5 -46z" />
    <glyph glyph-name="bracketright.cap" horiz-adv-x="357" 
d="M148 11v647q0 36 -22.5 46t-90.5 14v52h237v-871h-237v52q68 4 90.5 14t22.5 46z" />
    <glyph glyph-name="parenleft.cap" horiz-adv-x="388" 
d="M60 334q0 122 56 236t156 200h96q-90 -95 -125 -202.5t-35 -233.5t35 -233.5t125 -202.5h-96q-100 86 -156 200t-56 236z" />
    <glyph glyph-name="parenright.cap" horiz-adv-x="388" 
d="M328 334q0 -122 -56 -236t-156 -200h-96q90 95 125 202.5t35 233.5t-35 233.5t-125 202.5h96q100 -86 156 -200t56 -236z" />
    <glyph glyph-name="emdash.cap" horiz-adv-x="1000" 
d="M50 398h900v-86h-900v86z" />
    <glyph glyph-name="endash.cap" horiz-adv-x="580" 
d="M530 398v-86h-480v86h480z" />
    <glyph glyph-name="hyphen.cap" horiz-adv-x="360" 
d="M310 413v-116h-260v116h260z" />
    <glyph glyph-name="guillemotleft.cap" horiz-adv-x="564" 
d="M216 141l-181 200v10l181 200h87l-113 -205l113 -205h-87zM441 141l-181 200v10l181 200h87l-113 -205l113 -205h-87z" />
    <glyph glyph-name="guillemotright.cap" horiz-adv-x="564" 
d="M124 551l179 -200v-10l-179 -200h-89l114 205l-114 205h89zM350 551l179 -200v-10l-179 -200h-89l114 205l-114 205h89z" />
    <glyph glyph-name="guilsinglleft.cap" horiz-adv-x="338" 
d="M216 141l-181 200v10l181 200h87l-113 -205l113 -205h-87z" />
    <glyph glyph-name="guilsinglright.cap" horiz-adv-x="338" 
d="M124 551l179 -200v-10l-179 -200h-89l114 205l-114 205h89z" />
    <glyph glyph-name="backslash.sc" horiz-adv-x="429" 
d="M404 -112h-107l-272 804h107z" />
    <glyph glyph-name="braceleft.sc" horiz-adv-x="383" 
d="M162 290q51 -15 71 -38.5t20 -73.5v-150q0 -46 27.5 -70t67.5 -28v-42q-225 0 -225 128v156q0 84 -83 100v36q83 16 83 100v156q0 128 225 128v-42q-40 -4 -67.5 -28t-27.5 -70v-150q0 -50 -20 -73.5t-71 -38.5z" />
    <glyph glyph-name="braceright.sc" horiz-adv-x="383" 
d="M221 290q-51 15 -71 38.5t-20 73.5v150q0 46 -27.5 70t-67.5 28v42q225 0 225 -128v-156q0 -84 83 -100v-36q-83 -16 -83 -100v-156q0 -128 -225 -128v42q40 4 67.5 28t27.5 70v150q0 50 20 73.5t71 38.5z" />
    <glyph glyph-name="bracketleft.sc" horiz-adv-x="357" 
d="M209 580v-579q0 -36 22.5 -46t90.5 -14v-52h-237v803h237v-52q-68 -4 -90.5 -14t-22.5 -46z" />
    <glyph glyph-name="bracketright.sc" horiz-adv-x="357" 
d="M148 1v579q0 36 -22.5 46t-90.5 14v52h237v-803h-237v52q68 4 90.5 14t22.5 46z" />
    <glyph glyph-name="exclam.sc" horiz-adv-x="305" 
d="M50 608h205l-60 -383h-85zM54 86q0 40 29 68.5t69 28.5q41 0 70 -28.5t29 -68.5t-29 -68t-70 -28q-40 0 -69 28t-29 68z" />
    <glyph glyph-name="exclamdown.sc" horiz-adv-x="305" 
d="M54 522q0 40 29 68t69 28q41 0 70 -28t29 -68t-29 -68.5t-70 -28.5q-40 0 -69 28.5t-29 68.5zM110 383h85l60 -383h-205z" />
    <glyph glyph-name="parenleft.sc" horiz-adv-x="389" 
d="M60 290q0 113 55 218.5t155 183.5h99q-161 -157 -161 -402t161 -402h-99q-100 78 -155 183.5t-55 218.5z" />
    <glyph glyph-name="parenright.sc" horiz-adv-x="389" 
d="M329 290q0 -113 -55 -218.5t-155 -183.5h-99q161 157 161 402t-161 402h99q100 -78 155 -183.5t55 -218.5z" />
    <glyph glyph-name="question.sc" horiz-adv-x="433" 
d="M264 507q0 46 -47 46q-56 0 -56 -68v-50h-103q-38 18 -38 62q0 55 52.5 88t146.5 33q199 0 199 -144q0 -96 -103 -149q-48 -24 -60 -43q-13 -19 -13 -41v-21h-52q-61 31 -61 91t51 94q43 29 63.5 51.5t20.5 50.5zM108 86q0 40 29 68.5t69 28.5q41 0 70 -28.5t29 -68.5
t-29 -68t-70 -28q-40 0 -69 28t-29 68z" />
    <glyph glyph-name="questiondown.sc" horiz-adv-x="433" 
d="M325 522q0 -40 -29 -68.5t-69 -28.5q-41 0 -70 28.5t-29 68.5t29 68t70 28q40 0 69 -28t29 -68zM169 101q0 -46 47 -46q56 0 56 68v50h103q38 -18 38 -62q0 -55 -52.5 -88t-146.5 -33q-199 0 -199 144q0 96 103 149q47 23 61 44q12 19 12 40v21h52q61 -31 61 -91t-51 -94
q-43 -29 -63.5 -51.5t-20.5 -50.5z" />
    <glyph glyph-name="slash.sc" horiz-adv-x="429" 
d="M297 692h107l-272 -804h-107z" />
    <glyph glyph-name="space.tab" horiz-adv-x="300" 
 />
    <glyph glyph-name="cent.lt" 
d="M279 -117h-58l21 116q-89 21 -142 89.5t-53 173.5q0 136 87 223q85 85 211 85l20 107h58l-20 -111q70 -10 111.5 -44t41.5 -93q0 -51 -48 -70h-76v44q0 76 -42 95l-66 -365q22 -7 51 -7q84 0 148 80l44 -23q-53 -193 -251 -193h-9q-6 0 -9 1zM211 327q0 -114 60 -165
l63 345q-54 0 -88.5 -47t-34.5 -133z" />
    </font>
</defs>
</svg>
