<?xml version="1.0" encoding="UTF-8" standalone="no"?>
<svg
   xmlns:dc="http://purl.org/dc/elements/1.1/"
   xmlns:cc="http://creativecommons.org/ns#"
   xmlns:rdf="http://www.w3.org/1999/02/22-rdf-syntax-ns#"
   xmlns:svg="http://www.w3.org/2000/svg"
   xmlns="http://www.w3.org/2000/svg"
   xmlns:sodipodi="http://sodipodi.sourceforge.net/DTD/sodipodi-0.dtd"
   xmlns:inkscape="http://www.inkscape.org/namespaces/inkscape"
   width="4850"
   height="5400"
   viewBox="0 0 1283.2291 1428.75"
   version="1.1"
   id="svg8"
   sodipodi:docname="bubblesAnimation.svg"
   inkscape:version="1.0.1 (1.0.1+r73)">
  <sodipodi:namedview
     pagecolor="#ffffff"
     bordercolor="#666666"
     borderopacity="1"
     objecttolerance="10"
     gridtolerance="10"
     guidetolerance="10"
     inkscape:pageopacity="0"
     inkscape:pageshadow="2"
     inkscape:window-width="2560"
     inkscape:window-height="1386"
     id="namedview8"
     showgrid="false"
     inkscape:zoom="0.125"
     inkscape:cx="-2144.4203"
     inkscape:cy="1485.8588"
     inkscape:window-x="1920"
     inkscape:window-y="0"
     inkscape:window-maximized="1"
     inkscape:current-layer="svg8" />
  <style
     id="style833"></style>
  <defs
     id="defs2" />
  <metadata
     id="metadata5">
    <rdf:RDF>
      <cc:Work
         rdf:about="">
        <dc:format>image/svg+xml</dc:format>
        <dc:type
           rdf:resource="http://purl.org/dc/dcmitype/StillImage" />
        <dc:title />
      </cc:Work>
    </rdf:RDF>
  </metadata>
  <g
     id="layer1">
    <path
       style="fill:#cdcf01;stroke:none;stroke-width:1"
       d="m 66.145833,15.991112 c -8.999009,1.402107 -17.773386,5.475235 -23.726246,12.584113 -2.776802,3.316022 -4.314295,7.597245 -7.129197,10.824104 -2.898775,3.322637 -6.431228,6.125369 -9.238324,9.548548 -6.224482,7.590631 -10.559574,17.791642 -9.002581,27.78125 1.075002,6.896894 4.784196,13.043694 9.938015,17.682104 1.929871,1.736725 5.123921,2.866496 6.693429,4.863835 2.288117,2.912004 3.29274,6.824924 5.818452,9.733224 8.150489,9.38451 20.088489,13.18869 32.202702,11.29877 5.967677,-0.93107 10.813259,-4.34314 16.139586,-6.85879 15.157451,-7.15936 31.438581,-15.762026 35.070781,-33.808726 4.35108,-21.619105 -8.03434,-41.896772 -25.016617,-54.279642 -8.762468,-6.389264 -20.715023,-11.088079 -31.75,-9.36879 m 143.139587,-0.0029 c -9.06913,1.299024 -17.96759,5.468911 -23.95406,12.590674 -2.85776,3.399366 -4.43706,7.815262 -7.38319,11.084983 -3.16283,3.510225 -6.86171,6.612468 -9.8007,10.342299 -5.70574,7.241381 -9.68296,17.091554 -8.22298,26.458333 1.0578,6.786563 4.57808,13.079942 9.67343,17.682104 2.00236,1.808692 5.3332,3.0607 6.95801,5.128419 2.29235,2.917036 3.29618,6.828896 5.81845,9.733226 8.12588,9.3562 20.12924,13.18234 32.2027,11.29877 6.07484,-0.94774 10.95878,-4.48363 16.40417,-6.98368 15.64825,-7.18502 31.20231,-16.225308 34.925,-34.477589 4.26773,-20.940935 -8.4029,-41.04821 -24.60625,-53.083153 -8.85349,-6.576087 -20.78646,-11.382507 -32.01458,-9.774343 m 143.93334,-0.001 c -9.82398,1.305216 -18.84098,5.35006 -25.31269,13.116904 -2.79664,3.354916 -4.37356,7.620793 -7.27604,10.847916 -3.00302,3.338248 -6.55902,6.256602 -9.34244,9.789584 -6.22829,7.90522 -10.0965,18.448337 -7.99835,28.575 1.143,5.519473 4.42912,11.505406 8.65452,15.270162 2.159,1.923256 5.77585,3.426619 7.48771,5.666317 2.36008,3.084242 3.46075,7.005632 6.08277,10.019772 7.95337,9.144 19.68235,12.61454 31.40869,11.07043 6.10658,-0.80407 10.96698,-4.25953 16.40416,-6.75534 15.55221,-7.14111 31.66269,-16.226104 35.33511,-34.477591 4.24921,-21.116957 -8.12536,-41.061515 -24.48719,-53.280238 -8.45079,-6.311502 -20.17713,-11.275164 -30.95625,-9.842948 m 141.2875,0.268472 c -8.85031,1.382607 -17.5895,5.644489 -23.42621,12.587816 -2.81252,3.347508 -4.42383,7.607829 -7.31044,10.843948 -9.50383,10.645247 -20.39408,21.550314 -17.56039,37.306251 1.09802,6.098646 4.2836,12.419013 8.87412,16.623771 2.11667,1.938073 5.41073,3.322902 7.22313,5.439833 2.28071,2.664086 3.19087,6.648186 5.55625,9.421816 8.08831,9.48584 19.98662,13.64562 32.19979,11.82714 5.69383,-0.84799 10.24467,-3.99124 15.34583,-6.30688 16.13429,-7.32552 32.34002,-16.590694 36.12886,-35.41818 4.21481,-20.943623 -8.67569,-41.234784 -25.01636,-53.028929 -8.89264,-6.418739 -20.85446,-11.039766 -32.01458,-9.296586 m 146.84375,-0.0039 c -10.62302,1.393587 -19.75908,4.216294 -27.20446,12.588795 -2.84162,3.196166 -4.30477,7.510727 -7.20196,10.582275 -9.60173,10.171113 -20.12421,21.776797 -17.63183,37.041668 0.98425,6.014508 4.00844,12.373239 8.39258,16.645202 2.19604,2.13995 5.60388,3.582458 7.493,5.893329 2.23044,2.725735 3.12738,6.488905 5.51127,9.211465 8.15182,9.31201 19.38867,13.71812 31.69973,12.09437 6.01927,-0.79401 11.01196,-3.98013 16.40417,-6.45636 16.8619,-7.74197 33.02265,-18.042996 35.86956,-37.917173 3.07181,-21.451623 -11.58346,-42.32381 -29.25498,-52.863565 -6.67279,-3.980127 -16.11841,-7.864131 -24.07708,-6.820006 m 142.08125,0.264583 c -10.26054,1.346941 -19.30665,4.556178 -26.41071,12.588001 -3.09033,3.496734 -4.91067,7.922948 -8.0301,11.376819 -9.45621,10.46877 -18.90713,21.567512 -16.23748,36.777085 1.05304,5.999956 4.21216,11.921595 8.60954,16.129 2.01877,1.932252 5.33135,3.411008 6.95854,5.59435 1.97644,2.649536 2.87602,6.088586 5.03502,8.703736 7.74436,9.37895 19.29606,14.19701 31.39811,12.62353 6.90827,-0.89799 13.18154,-4.46643 19.31458,-7.5311 15.66862,-7.82875 30.31331,-17.661729 33.22108,-36.313266 3.35492,-21.517769 -11.13896,-42.678352 -28.98775,-53.184082 -7.00087,-4.119906 -16.5735,-7.853415 -24.87083,-6.764073 m 143.66875,0.264584 c -10.4484,1.354561 -19.54742,4.246906 -26.94252,12.327121 -2.92894,3.201194 -4.56671,7.412567 -7.47713,10.579365 -9.7102,10.562962 -19.36485,22.450426 -16.52323,37.835418 1.05834,5.730081 4.14603,11.582664 8.34496,15.599833 2.01877,1.930136 5.03238,3.465248 6.74688,5.59435 2.12725,2.6416 2.99773,6.27195 5.24669,8.96832 7.32895,8.79713 18.52083,14.00598 30.07518,12.62433 7.38717,-0.88345 14.05467,-4.24075 20.6375,-7.5319 15.46225,-7.73059 29.83971,-18.01045 32.69192,-36.313266 3.40783,-21.858817 -11.24479,-42.981564 -29.51692,-53.406041 -6.42143,-3.663738 -15.72948,-7.256912 -23.28333,-6.27753 m 141.81669,0.529166 c -10.4352,1.36996 -19.2141,4.786789 -26.4134,12.85232 -2.6776,3.001962 -4.2995,6.798734 -6.9691,9.789584 -9.2948,10.412678 -18.1398,21.648209 -16.0152,36.512501 0.6958,4.868597 2.9421,10.63572 6.2944,14.2875 2.5479,2.776008 6.3024,5.027612 8.5355,7.962106 2.0875,2.74055 2.9686,6.27248 5.2784,8.97123 7.7999,9.11463 19.1452,13.91761 31.1415,12.35895 6.6648,-0.86598 13.1048,-4.02961 19.05,-7.00193 15.5892,-7.79384 29.8317,-18.491469 32.6919,-36.84244 3.4528,-22.149594 -11.938,-44.192032 -31.1044,-53.775795 -6.6146,-3.307795 -14.9781,-6.099995 -22.4896,-5.114026 m 142.0812,0.529167 c -9.1546,1.201605 -17.7879,4.393274 -24.2967,11.275403 -3.212,3.395927 -5.2652,7.595659 -8.3238,11.101917 -9.136,10.474326 -17.3302,21.82839 -15.1897,36.512501 0.979,6.720417 4.6726,12.333817 9.2049,17.197917 1.4949,1.604697 3.5216,2.855118 4.8921,4.522522 2.3125,2.812524 3.2941,6.635484 5.7468,9.500394 7.1014,8.29707 18.4838,13.53159 29.5539,12.09437 5.3049,-0.68898 9.9166,-2.56408 14.8167,-4.56645 15.6898,-6.4127 32.1469,-17.018524 36.6501,-34.51542 5.9822,-23.234121 -8.382,-46.848714 -28.7126,-57.621038 -7.1835,-3.805846 -16.1184,-6.581642 -24.3417,-5.502116 M 67.997916,161.24339 c -8.780462,1.15332 -17.083881,4.09946 -23.502937,10.51613 -3.43191,3.43033 -5.704152,7.6917 -8.852694,11.33211 -8.810095,10.18619 -16.983445,21.99216 -14.654265,36.24791 1.169882,7.16016 4.953503,12.90109 9.638559,18.24567 1.188509,1.35599 2.821517,2.29738 3.923242,3.71872 2.637896,3.4028 4.044156,7.53851 7.034742,10.84395 6.871228,7.59513 18.07792,11.75861 28.265436,10.50766 7.160419,-0.87921 13.923963,-3.615 20.37292,-6.73523 15.270161,-7.3877 28.312791,-19.19976 31.362651,-36.58077 3.80629,-21.6908 -10.94158,-43.56523 -29.775151,-52.98202 -7.134225,-3.56711 -15.737684,-6.17458 -23.812503,-5.11413 m 143.404164,0.52917 c -8.55054,1.12607 -16.53513,3.68353 -23.01875,9.70121 -4.04521,3.7547 -6.85456,8.52832 -10.43119,12.67619 -6.96146,8.07323 -13.62499,17.66914 -13.62499,28.83958 0,6.27539 1.37848,13.22123 4.93977,18.52084 2.39924,3.57028 5.84015,6.21135 8.34814,9.56998 2.34526,3.14086 3.65786,6.98209 6.31904,10.00918 8.48175,9.6483 20.4933,12.42087 32.75965,10.80585 5.33215,-0.7022 10.76669,-3.21469 15.61042,-5.43242 16.08957,-7.36733 29.75319,-20.69995 31.93891,-38.97551 2.52571,-21.10872 -11.0662,-41.42052 -29.55766,-50.60103 -6.92494,-3.438 -15.43341,-6.14733 -23.28334,-5.11387 m 141.5521,0.79401 c -8.07509,1.09935 -15.63952,4.07856 -21.69584,9.70095 -3.57452,3.31841 -6.23623,7.36627 -9.33714,11.08869 -7.0485,8.46746 -13.57048,17.90726 -13.8774,29.36875 -0.16933,6.3582 1.41023,13.39003 4.87892,18.78542 2.19075,3.40915 5.20171,6.08965 7.58296,9.271 2.32304,3.09959 3.72533,6.80825 6.37645,9.73402 8.46932,9.34376 20.11098,12.96511 32.42205,11.3456 3.72004,-0.48948 7.33689,-1.92644 10.84791,-3.18003 17.79059,-6.35318 33.66029,-20.68169 36.43313,-40.13518 4.12485,-28.93589 -23.72254,-60.04983 -53.63104,-55.97922 m 144.19791,0.52917 c -8.55398,1.16443 -16.4756,3.92774 -22.99493,9.83324 -3.64332,3.29909 -6.52992,7.42553 -9.61761,11.22098 -6.62517,8.14149 -12.36133,17.48076 -12.62856,28.31042 -0.22225,9.08711 2.97921,17.02726 8.21002,24.34166 1.1086,1.55099 2.68287,2.69029 3.78883,4.23334 2.0955,2.91994 3.42636,6.24628 5.88698,8.95085 8.001,8.79237 19.47863,13.33024 31.32402,11.87556 22.25146,-2.73262 44.79396,-19.89905 47.81286,-43.05141 3.12737,-23.98686 -13.07571,-47.23898 -36.17119,-53.82181 -4.87098,-1.38853 -10.52777,-2.58471 -15.61042,-1.89283 m 144.72709,0.79349 c -4.88157,0.64108 -9.42446,0.99457 -14.02292,3.0263 -6.90033,3.04959 -11.76338,7.71155 -16.71373,13.26568 -8.15181,9.14559 -15.15798,19.89111 -15.49665,32.54375 -0.30427,11.42682 4.84453,19.50244 11.32946,28.31042 2.47386,3.36232 4.26509,6.94637 7.23636,9.97849 7.83696,8.00206 18.9521,11.94594 30.04873,10.58334 22.30173,-2.73871 43.95787,-19.24659 47.0191,-42.52225 3.10885,-23.62835 -12.38779,-47.30009 -35.64202,-53.41514 -4.29419,-1.12924 -9.29217,-2.35691 -13.75833,-1.77059 m 145.25625,0.81756 c -5.94519,0.37333 -11.37444,0.84349 -16.93334,3.27078 -6.05631,2.64371 -10.95639,7.14163 -15.36964,11.93906 -8.46932,9.2112 -14.87752,20.06653 -15.53104,32.80833 -0.55298,10.7442 4.4397,19.9808 10.62566,28.31042 2.58498,3.4798 4.70429,7.22021 7.86342,10.27377 7.31573,7.06781 17.84085,11.03709 28.02202,10.34018 20.87827,-1.42981 41.37554,-15.95808 46.70425,-36.75354 5.98487,-23.35292 -6.49817,-47.89434 -28.97717,-56.88541 -4.99268,-1.99708 -10.96698,-3.64517 -16.40416,-3.30359 m 142.61041,0.79375 c -6.39233,0.40164 -12.42218,1.32318 -18.25625,4.16586 -15.26381,7.4385 -27.79448,25.72967 -28.41889,42.79398 -0.38894,10.68096 3.69358,20.05144 9.78693,28.575 2.49503,3.48906 4.89215,7.08183 8.04863,10.03062 7.89252,7.37605 18.6055,11.05587 29.36875,10.31875 23.19073,-1.58803 42.95246,-19.67442 45.96077,-42.83896 2.76225,-21.26588 -10.40077,-42.03647 -30.08577,-49.84723 -5.01385,-1.98967 -10.9564,-3.54039 -16.40417,-3.19802 m 140.75836,1.03452 c -5.7627,0.75644 -11.0967,1.60258 -16.4042,4.18968 -15.3353,7.47527 -26.3393,24.62239 -27.4929,41.47105 -0.6641,9.7155 2.8284,18.96931 7.9958,26.9875 9.5752,14.859 24.3892,24.32527 42.5158,21.88396 23.249,-3.13108 41.2274,-23.39076 41.8016,-46.75479 0.5,-20.41843 -12.7238,-38.63472 -31.7474,-45.42684 -5.1197,-1.82801 -11.2157,-3.06652 -16.6687,-2.35056 m 143.6687,0.79375 c -6.1754,0.80142 -12.0809,1.7563 -17.7271,4.60005 -13.1207,6.60611 -23.5188,20.69888 -25.8127,35.23985 -4.2863,27.15763 19.0341,57.72679 48.0377,54.16391 22.2303,-2.72997 40.3622,-20.15675 42.553,-42.78683 2.0822,-21.51459 -11.1972,-42.1132 -31.705,-48.94791 -4.6382,-1.54543 -10.4432,-2.90486 -15.3459,-2.26907 M 69.849999,311.26108 c -5.300133,0.6985 -10.435166,1.69069 -15.345833,3.93965 -13.211439,6.05366 -23.225124,19.35691 -26.074951,33.52006 -5.726034,28.46123 18.29038,59.07881 48.299954,55.48577 21.835004,-2.61144 39.726131,-20.90738 41.251181,-43.05036 1.5928,-23.12722 -14.26739,-45.34958 -37.547017,-49.23366 -3.470011,-0.57944 -7.061991,-1.12448 -10.583334,-0.66146 m 141.552081,1.05833 c -7.10062,0.94457 -13.48184,3.06123 -19.57916,6.87917 -30.06249,18.8251 -26.70228,67.30471 5.82083,81.68217 7.99306,3.53218 16.56292,4.27831 25.13542,3.06123 5.72135,-0.80963 11.00852,-3.1459 15.875,-6.16215 22.46312,-13.91708 28.47181,-44.50292 13.82474,-66.25696 -3.23824,-4.81012 -7.7044,-8.88471 -12.50183,-12.08352 -4.5421,-3.02683 -9.67078,-5.37369 -15.08125,-6.28121 -4.41589,-0.74348 -9.00827,-1.43404 -13.49375,-0.83873 m 143.40418,0.7964 c -7.88988,1.07156 -15.36435,3.3946 -21.96042,8.01423 -4.8551,3.39989 -8.97202,7.97189 -12.01208,13.03866 -15.50988,25.84715 -3.2676,61.42567 26.82875,69.38434 5.88169,1.55575 12.27667,1.51606 18.25625,0.65087 5.26521,-0.762 10.58069,-3.03477 15.08125,-5.79173 27.0219,-16.55233 30.28685,-57.80352 3.70417,-76.67889 -4.14602,-2.94481 -8.61748,-5.34194 -13.49375,-6.80509 -5.05619,-1.51606 -11.12044,-2.53206 -16.40417,-1.81239 m 141.2875,1.05833 c -7.1755,1.02659 -14.10494,3.42106 -20.10833,7.56709 -20.13215,13.89856 -24.79411,41.93116 -12.31371,62.43372 3.39989,5.58007 8.29998,10.10973 13.63662,13.79009 4.5429,3.13002 9.93775,5.19112 15.34584,6.16479 4.83129,0.87312 9.66523,1.27 14.55208,0.56885 6.38969,-0.91545 12.23698,-3.21998 17.72708,-6.55373 4.24127,-2.57704 7.92427,-6.10393 10.95904,-10.00125 15.26117,-19.58445 12.71059,-49.53 -7.51945,-64.94991 -4.91332,-3.74386 -10.69446,-6.46377 -16.66875,-7.97719 -4.87363,-1.23296 -10.60186,-1.75948 -15.61042,-1.04246 m 142.875,0.79375 c -6.72042,0.96309 -13.38527,2.96334 -19.05,6.81567 -4.27038,2.90512 -8.14652,6.096 -11.25008,10.26848 -14.46213,19.431 -11.66284,47.38158 7.01675,63.119 4.83129,4.07194 10.64683,6.85006 16.66875,8.65716 6.23623,1.87061 12.92754,1.81505 19.31458,0.90753 5.60652,-0.79375 10.78971,-3.06917 15.61042,-5.95578 4.53495,-2.71462 8.43756,-6.21241 11.69723,-10.37166 14.30866,-18.24831 12.319,-45.212 -4.31271,-61.33836 -5.60652,-5.43718 -12.81642,-9.1096 -20.34911,-10.99079 -4.82335,-1.2065 -10.38489,-1.82298 -15.34583,-1.11125 m 143.40417,0.79375 c -7.25488,0.9869 -14.30338,2.97921 -20.37292,7.22048 -22.4155,15.66333 -26.61973,47.49536 -8.24706,68.072 3.12473,3.49779 6.73893,6.46642 10.89289,8.67304 3.80207,2.02142 7.64382,3.96611 11.90625,4.82071 5.22817,1.04775 10.56217,1.63513 15.875,0.98161 6.19919,-0.75936 12.07294,-3.01096 17.4625,-6.08278 4.67254,-2.66435 8.77888,-6.49816 12.00415,-10.77383 15.97554,-21.16402 10.95375,-51.62285 -11.47498,-66.22521 -4.22804,-2.75431 -9.10431,-4.62227 -14.02292,-5.68589 -4.51379,-0.97632 -9.39271,-1.63248 -14.02291,-1.00013 m 146.57916,0.55034 c -18.78012,1.18004 -35.84839,11.68929 -41.87031,30.29214 -7.95602,24.56392 6.32883,52.52244 32.08073,58.38031 3.57187,0.81227 7.4295,1.64307 11.1125,1.39171 20.03954,-1.36525 37.56819,-13.40644 42.7355,-33.57827 6.21506,-24.25171 -9.4615,-50.04329 -34.00425,-55.29792 -3.21469,-0.68791 -6.75217,-1.39435 -10.05417,-1.18797 m 141.28751,0.77258 c -12.3031,1.55575 -23.1696,5.40808 -31.705,14.96748 -3.646,4.08516 -6.604,9.09373 -8.3344,14.2875 -2.9395,8.81856 -3.6063,18.20598 -1.1933,27.25208 5.7785,21.67996 27.5987,35.87486 49.6994,32.99619 22.4287,-2.921 39.6081,-23.35742 38.6185,-45.96077 -0.8969,-20.47346 -15.6818,-38.48894 -35.9727,-42.545 -3.4475,-0.68792 -7.6094,-1.44198 -11.1125,-0.99748 m 141.5521,0.7911 c -8.3767,1.10067 -16.3486,3.21998 -23.2834,8.33438 -4.6831,3.45546 -8.9297,7.97189 -11.9036,12.98575 -13.5255,22.83089 -4.1089,53.38762 20.1057,64.47631 7.8343,3.58775 16.6211,4.75721 25.1354,3.70946 5.506,-0.67469 11.0676,-2.67229 15.875,-5.40544 23.8072,-13.53344 30.2551,-46.66985 12.6233,-67.80742 -5.4875,-6.58018 -13.0201,-11.3321 -21.0899,-14.02291 -5.424,-1.80711 -11.729,-3.02154 -17.4625,-2.27013 m 12.7,143.13959 c -7.8899,1.03716 -14.5627,3.68829 -21.9604,6.55373 -12.9382,5.0112 -26.3764,10.82145 -31.1283,25.08514 -3.3681,10.11767 -0.05,20.7989 2.4554,30.69167 1.7885,7.06702 2.614,15.04685 5.6859,21.69583 6.805,14.72142 22.0821,24.07444 38.3328,22.14827 11.9009,-1.40758 21.4392,-8.47989 28.7867,-17.65035 11.7845,-14.70819 18.7457,-34.55459 17.227,-53.44584 -1.5399,-19.16641 -18.9786,-37.75868 -39.3991,-35.07845 M 70.114583,461.27983 c -12.310798,1.6166 -22.948636,5.25727 -31.587281,14.75052 -15.675795,17.22702 -14.689693,45.66444 1.734344,62.08713 10.193072,10.19175 24.57741,15.05743 38.848773,13.19741 5.30648,-0.69056 10.414,-2.61673 15.08125,-5.15408 18.476121,-10.04623 28.467311,-33.51742 21.865691,-53.77127 -2.5654,-7.87136 -7.40701,-14.63675 -13.66361,-19.99456 -4.342604,-3.72005 -9.656498,-6.67809 -15.081251,-8.49313 -5.145881,-1.72244 -11.748822,-3.3364 -17.197916,-2.62202 m 1012.031217,0.26458 c -20.1453,2.61409 -46.1063,10.40342 -53.0436,31.90346 -3.2544,10.08327 -0.6192,21.85194 2.1325,31.75 1.8997,6.83683 3.1142,14.351 6.5432,20.6375 7.0829,12.97517 21.5714,21.99746 36.695,20.03161 30.054,-3.90525 48.1965,-39.42292 46.2783,-67.39203 -1.0663,-15.5522 -10.1097,-29.12533 -24.847,-34.71068 -4.0667,-1.54252 -9.3954,-2.78342 -13.7584,-2.21986 m -871.53747,0.53182 c -7.53083,1.02393 -14.52007,3.13531 -20.90208,7.38187 -4.55983,3.03477 -8.57726,7.06173 -11.71549,11.55435 -15.84721,22.69067 -6.31454,55.38259 18.06549,67.57194 8.00656,4.00315 17.36831,5.20436 26.19375,4.05342 26.97189,-3.51631 45.58242,-34.01219 37.37345,-59.71911 -4.56379,-14.29279 -17.06456,-24.97137 -31.28803,-29.06712 -5.62213,-1.61925 -11.86445,-2.5744 -17.72709,-1.77535 m 727.60418,0.26193 c -20.74333,2.72521 -43.41019,8.40317 -51.14396,30.58054 -2.81516,8.06715 -2.05052,17.1794 -0.51858,25.4 2.00289,10.75003 5.5536,22.62717 12.17612,31.48542 7.12259,9.53029 20.52373,15.34583 32.34267,13.94619 30.70754,-3.63538 47.80227,-36.58394 46.55608,-65.01077 -0.82814,-18.91242 -19.49714,-39.01546 -39.41233,-36.40138 m -584.99375,0.26723 c -7.4586,1.06892 -14.2584,3.34434 -20.6375,7.41098 -27.10656,17.26671 -24.06915,58.05488 0,76.25821 9.88219,7.47448 21.89427,9.38477 33.86667,7.68615 26.88166,-3.81265 44.64843,-36.16061 36.57864,-61.30661 -4.52702,-14.11552 -17.54187,-24.52423 -31.55156,-28.42154 -5.72294,-1.59279 -12.32429,-2.4765 -18.25625,-1.62719 m 145.52083,0.26194 c -5.57477,0.7329 -10.92464,1.57692 -16.13958,3.82323 -11.54642,4.97417 -20.87563,15.20296 -24.48983,27.28648 -8.54604,28.55648 13.57312,66.63796 46.18566,62.62952 28.12786,-3.45546 46.3603,-30.11488 43.61127,-57.60244 -2.20662,-22.07419 -27.85797,-38.93608 -49.16752,-36.13679 m 146.05,0.26458 c -4.45558,0.58738 -8.83443,0.71967 -13.22916,1.9394 -11.51996,3.19352 -22.18796,11.26067 -27.56694,22.02656 -10.26054,20.53167 -3.10886,50.32111 15.3961,64.09267 8.66511,6.44789 19.07117,8.61748 29.63334,7.3025 27.78918,-3.45811 45.43954,-34.32969 41.99202,-60.54725 -2.7305,-20.76186 -25.4635,-37.53909 -46.22536,-34.81388 m 144.72709,0 c -4.36563,0.57415 -8.66246,0.80169 -12.96459,1.93411 -14.25575,3.75443 -26.85785,13.06512 -31.82937,27.32352 -4.91331,14.08112 -1.83092,29.92702 4.23069,43.12708 2.74637,5.98223 6.09335,11.69194 10.97491,16.20573 8.14388,7.5274 19.98927,10.94052 30.91127,9.37948 28.22311,-4.0349 46.29944,-35.47798 43.61127,-62.36229 -2.16429,-21.64821 -23.40504,-38.43338 -44.93418,-35.60763 M 81.491669,603.62831 c -8.165309,1.1086 -14.694961,4.15925 -22.225003,7.29192 -13.154554,5.46893 -26.770541,10.22614 -31.612416,25.13806 -3.395848,10.45898 0.948796,21.971 3.831167,32.01458 1.922462,6.69925 2.218531,13.95942 5.109633,20.37292 7.324724,16.24809 23.466954,24.003 40.663283,21.91279 10.354998,-1.26206 19.997211,-9.12545 26.027857,-17.15029 11.83111,-15.74006 20.65311,-37.31154 17.51224,-57.41459 -2.81728,-18.03135 -20.0361,-34.79006 -39.306761,-32.16539 m 143.404161,0.26194 c -8.83893,1.15887 -15.87447,4.35504 -24.07708,7.66762 -12.85981,5.19377 -25.79423,10.05417 -30.45698,24.50042 -3.26284,10.10973 0.79507,21.01585 3.62188,30.69166 2.18837,7.49036 2.7141,15.6263 6.0624,22.75417 6.54658,13.93561 22.20039,22.65101 37.44145,20.82536 25.2476,-3.0189 41.41814,-30.84248 45.26492,-53.89828 0.88953,-5.33135 1.50706,-10.99343 0.99218,-16.40416 -1.55125,-16.30098 -10.92279,-29.73917 -26.94252,-34.66571 -3.57267,-1.10067 -8.17086,-1.96056 -11.90625,-1.47108 m 140.75835,0.79375 c -7.23371,0.9525 -13.58107,3.56393 -20.37292,6.12775 -13.31119,5.01914 -27.10392,10.20762 -31.91933,24.98195 -3.39196,10.40342 0.57943,21.4974 3.49779,31.48542 2.32569,7.96661 3.28877,16.44121 7.33689,23.8125 7.36071,13.39586 22.94467,20.17451 37.7534,18.17952 23.25687,-3.13266 37.27185,-27.69923 42.43123,-48.34202 1.54517,-6.17537 2.72521,-13.47523 1.94204,-19.84375 -0.73025,-5.96106 -2.1246,-12.17083 -5.06677,-17.4625 -6.78656,-12.21052 -21.40215,-20.80419 -35.60233,-18.93887 m 143.66875,0.79375 c -7.58561,0.99748 -14.40921,2.92893 -21.69584,5.35781 -13.41437,4.47146 -26.91077,10.69975 -31.55156,25.22273 -3.02683,9.46944 0.14552,19.95487 2.74902,29.10416 2.12461,7.4639 3.56658,15.8459 7.19138,22.75417 6.73893,12.84288 21.23545,22.34671 36.16325,20.56077 26.38689,-3.15648 42.40477,-28.88985 45.80731,-53.3691 0.59002,-4.24392 1.29381,-8.6704 1.00012,-12.96459 -1.30968,-19.1135 -19.20875,-39.35147 -39.66368,-36.66595 m 138.90625,1.05833 c -18.93359,2.51883 -42.3254,9.45356 -49.24955,29.25762 -3.26495,9.34244 -0.35189,20.01573 2.30717,29.10417 2.25425,7.71261 4.29683,16.33008 8.43227,23.28333 7.89252,13.26621 22.37052,20.61898 37.71636,18.70869 24.5745,-3.05594 39.88064,-28.53002 42.97627,-50.98785 0.71966,-5.22552 1.51606,-10.33727 0.86783,-15.61042 -2.46856,-20.08452 -22.97112,-36.42254 -43.05035,-33.75554 m 142.34583,0.79375 c -17.07621,2.2516 -38.66621,6.27062 -46.86035,23.70137 -5.44248,11.57553 -3.15913,24.29934 0.73554,35.98334 2.41564,7.25223 4.81541,15.02569 9.10696,21.43125 8.55662,12.76879 22.5081,18.52348 37.54702,16.88835 23.94743,-2.60614 38.76145,-27.55635 41.8756,-49.16752 0.69585,-4.82071 1.57163,-9.93775 0.87313,-14.81667 -2.80723,-19.61091 -23.05844,-36.68183 -43.2779,-34.02012 m 138.90625,0.79375 c -16.37242,2.15106 -34.61279,6.0616 -42.79106,22.37846 -5.64886,11.2686 -3.91584,24.18291 -0.0714,35.71875 5.99019,17.96785 16.6661,35.22398 37.04169,37.76133 3.84966,0.4789 7.79989,0.28046 11.64164,-0.26987 22.67217,-3.24909 36.81944,-25.56669 40.06321,-46.4873 1.09802,-7.07231 1.93413,-14.16579 -0.16669,-21.16666 -3.86556,-12.88786 -16.43856,-23.36271 -29.31316,-26.62502 -5.09852,-1.29117 -11.15486,-1.99761 -16.40419,-1.30969 m 137.5833,0.52917 c -14.9675,1.97379 -29.8768,7.18608 -37.4888,21.32012 -8.6942,16.14488 -2.204,35.73992 6.1568,50.53542 3.4714,6.14362 8.1307,12.1285 14.1341,15.99409 9.0408,5.8261 18.9362,7.0326 29.3687,5.65941 21.9578,-2.88925 35.6315,-25.17246 38.7403,-45.20142 1.0954,-7.05644 1.7859,-14.53356 -0.6641,-21.43125 -7.0115,-19.73527 -30.3874,-29.49046 -50.247,-26.87637 m 142.0812,0 c -15.2188,2.00025 -30.136,7.34483 -37.412,22.11387 -6.2072,12.60475 -4.0402,27.96117 1.8891,40.21667 2.913,6.02191 6.2071,11.9036 10.6971,16.93333 8.8238,9.87954 21.9789,15.03627 35.1446,13.41702 21.3386,-2.62202 35.1578,-19.78289 40.05,-39.61077 2.5929,-10.50131 2.9739,-21.33864 -2.0479,-31.22083 -6.8633,-13.50434 -23.0426,-19.77761 -37.2084,-21.47359 -3.6142,-0.43127 -7.4771,-0.85195 -11.1125,-0.3757 m -4.4979,140.49375 c -7.5565,0.99483 -14.0811,2.84162 -20.6375,6.88975 -21.9578,13.55725 -23.278,44.86013 -7.8158,63.6429 10.1627,12.34278 26.379,18.82775 42.2117,16.85658 26.535,-3.302 44.8627,-33.17346 36.0627,-58.39619 -6.6728,-19.12938 -29.9588,-31.60184 -49.8211,-28.99304 m -143.4041,0.52916 c -6.5829,0.86784 -12.4699,2.31246 -18.2563,5.71236 -3.5269,2.07168 -7.0115,4.56938 -9.7129,7.67027 -15.74,18.06046 -12.5095,44.41034 3.9159,60.83035 10.66,10.65477 25.7916,14.89078 40.4574,12.91431 25.7704,-3.4713 43.524,-34.48843 34.417,-58.66341 -7.2443,-19.23256 -30.6758,-31.115 -50.8211,-28.46388 m -141.81667,0.26459 c -7.86077,1.04513 -15.02833,2.75695 -21.69583,7.30514 -4.18042,2.84956 -7.6385,6.14101 -10.52775,10.31081 -2.53735,3.66184 -4.55615,7.84493 -5.64623,12.17084 -7.63585,30.36094 19.56858,62.00513 51.099,58.13163 29.54867,-3.63011 49.08021,-38.62126 34.43288,-65.27538 -5.91611,-10.76325 -17.16355,-17.09209 -28.61207,-20.37292 -5.87637,-1.68539 -12.93016,-3.08239 -19.05,-2.27012 m -139.17083,0.28839 c -7.91631,0.49742 -15.45958,1.51342 -22.48956,5.53509 -4.41063,2.52147 -8.36615,5.73352 -11.5729,9.67581 -2.59027,3.18561 -4.52964,6.78659 -6.04835,10.58336 -12.31374,30.7816 16.85129,64.86787 48.5775,62.68241 27.75212,-1.91029 48.26791,-33.48831 38.93079,-59.77202 -5.51394,-15.51514 -20.71952,-24.55334 -36.28498,-27.36321 -3.58775,-0.6482 -7.44535,-1.57163 -11.1125,-1.34144 M 633.41255,750.734 c -7.22048,0.94988 -13.76892,2.57968 -20.10834,6.35793 -21.59793,12.87727 -23.09283,41.78036 -9.63874,60.99972 10.48806,14.98333 28.2416,23.48439 46.41583,20.85708 26.67793,-3.8576 45.09558,-37.01257 34.54667,-61.86753 -6.3659,-15.00187 -21.81225,-22.87322 -37.19248,-25.42116 -4.58261,-0.75936 -9.36892,-1.53723 -14.02294,-0.92604 m -142.34584,0.26458 c -7.73641,1.016 -15.08651,2.6961 -21.69583,7.12787 -3.64331,2.44211 -6.61723,5.50598 -9.36096,8.90059 -4.72281,5.84464 -7.08554,13.23184 -7.59619,20.6375 -1.98437,28.80254 24.45547,56.11548 53.73423,52.31077 27.39499,-3.56129 47.1514,-37.12898 36.13415,-62.89411 -6.05896,-14.17105 -19.66648,-21.2672 -34.01748,-24.51364 -5.47158,-1.23825 -11.58343,-2.30452 -17.19792,-1.56898 m -281.5167,0.26723 c -11.65542,1.47373 -22.44937,3.28877 -31.21977,12.05709 -22.22395,22.225 -8.37804,60.76418 16.93227,74.26325 8.28966,4.42116 17.83398,5.21491 26.9875,4.00576 27.12429,-3.57978 44.90244,-38.34077 35.95952,-63.18776 -5.24907,-14.58122 -18.58116,-21.55299 -32.78452,-25.10102 -4.81621,-1.20388 -10.90692,-2.667 -15.875,-2.03732 m 138.37709,-0.003 c -8.11741,1.0795 -15.71625,3.20675 -22.48958,8.03275 -3.83381,2.73314 -7.25223,6.35 -9.68375,10.37696 -18.53142,30.70225 10.08592,75.79783 46.19625,71.36077 8.76565,-1.07686 17.44398,-4.63286 24.07708,-10.55159 14.68967,-13.11275 21.92073,-38.23493 12.63121,-56.31127 -6.7945,-13.22123 -21.24869,-19.26166 -35.12079,-21.85723 -5.02973,-0.94191 -10.49338,-1.73037 -15.61042,-1.05039 m -283.104174,0.26458 c -13.167783,1.73038 -25.690512,5.84729 -33.661878,17.35138 -14.976819,21.61381 -2.376223,54.70525 18.316045,67.9741 8.388085,5.37898 18.7452,7.43215 28.575,6.02985 20.458377,-2.9157 33.492547,-19.88079 38.225677,-38.81437 2.03015,-8.12006 2.86438,-17.67681 -0.24844,-25.66458 -6.29629,-16.15811 -22.328453,-24.12736 -38.770987,-26.26784 -4.069557,-0.53181 -8.330668,-1.14564 -12.435417,-0.60854 M 1208.6167,885.93608 c -19.6586,2.58498 -35.8061,15.48609 -40.4178,35.34307 -5.2176,22.4578 7.0591,49.67285 30.8928,55.18412 4.8815,1.12977 9.8504,1.43404 14.8166,0.83079 23.286,-2.82043 41.2115,-26.68058 40.2061,-49.66491 -0.9948,-22.70392 -21.5529,-44.83897 -45.4977,-41.69307 m -144.7271,0.79375 c -8.0672,1.07421 -15.6951,3.92112 -22.225,8.85825 -23.9818,18.12925 -23.2701,56.12871 0.2646,74.07807 4.1407,3.1591 9.1651,5.77318 14.2875,6.90827 5.2546,1.16152 10.5357,1.43931 15.875,0.71964 37.6766,-5.07736 53.5384,-60.19268 21.4312,-82.47856 -4.1248,-2.86544 -8.382,-5.13821 -13.2291,-6.53257 -5.2282,-1.5028 -10.9644,-2.27541 -16.4042,-1.5531 m -143.40417,0.7964 c -8.72861,1.18797 -16.66346,4.19367 -23.54792,9.83985 -27.0219,22.15621 -18.52877,70.6411 16.40417,79.375 4.99533,1.25148 10.24202,1.4473 15.34583,0.81759 4.7916,-0.59002 9.20221,-2.20927 13.49375,-4.35504 28.77873,-14.39069 35.4039,-56.4515 9.525,-76.84823 -4.27302,-3.3655 -9.33715,-5.8579 -14.55208,-7.35545 -5.25992,-1.51077 -11.20246,-2.21982 -16.66875,-1.47372 m -141.55209,0.52652 c -16.95979,2.22779 -31.57802,11.15748 -38.11852,27.67015 -9.98537,25.20153 4.34181,55.31379 31.23936,61.47591 4.28625,0.98163 8.87677,1.14564 13.22916,0.62442 22.77004,-2.72254 40.77229,-24.44221 40.21402,-47.28369 -0.57414,-23.42621 -22.07154,-45.70413 -46.56402,-42.48679 m -144.19791,0.79375 c -7.17815,0.9472 -14.00969,2.68552 -20.10834,6.76804 -24.25964,16.24541 -27.03512,52.39811 -4.7625,71.77616 3.88938,3.38403 8.15182,6.08278 12.96459,7.96661 7.42685,2.90512 15.19502,3.26496 23.01875,2.23573 27.03248,-3.55862 42.97362,-35.92777 34.4752,-60.28264 -4.45822,-12.7847 -14.8881,-21.66147 -27.33145,-26.20698 -5.55625,-2.032 -12.35605,-3.03215 -18.25625,-2.25692 m -139.17084,0.55298 c -15.96496,1.00277 -30.12281,7.35015 -38.39898,21.82547 -16.70579,29.21797 6.29709,69.54309 40.78023,67.18036 30.353,-2.07963 50.65977,-35.20543 38.77204,-63.21161 -2.1537,-5.06941 -5.80495,-9.40064 -9.66787,-13.22916 -4.05342,-4.01902 -8.99583,-7.03789 -14.2875,-9.15459 -5.22817,-2.09282 -11.50938,-3.76766 -17.19792,-3.41047 m -145.78541,0.76993 c -9.77371,1.28326 -18.85157,3.40784 -26.45834,10.25261 -4.77837,4.29948 -8.86618,9.62554 -11.41148,15.56543 -13.25298,30.94303 13.54932,66.47128 46.86565,62.36497 26.39748,-3.25173 44.74633,-31.63623 37.45706,-57.07327 -2.41564,-8.43495 -7.61206,-15.03365 -14.17373,-20.67192 -4.42648,-3.80471 -10.01977,-6.64369 -15.61041,-8.27882 -5.21759,-1.52664 -11.20511,-2.87599 -16.66875,-2.159 M 207.9625,890.7039 c -10.39151,1.10858 -19.98186,3.25435 -28.04583,10.51187 -4.38574,3.94761 -7.85945,8.71273 -10.48544,13.97793 -12.35816,24.78088 4.37303,54.9328 29.80002,62.14005 4.90167,1.38906 10.24599,2.06642 15.34583,1.57956 7.92269,-0.75668 15.81971,-3.51631 22.225,-8.28411 18.27398,-13.59955 24.71526,-40.94691 11.61706,-60.198 -5.22023,-7.67291 -13.199,-12.93547 -21.67122,-16.35125 -5.55863,-2.24102 -12.75504,-4.02166 -18.78542,-3.37605 m -146.050001,0.78843 c -7.243498,0.9525 -13.810985,2.61408 -20.108332,6.52198 -21.76272,13.50169 -24.759259,44.09017 -9.449329,63.48148 10.410825,13.18686 27.080368,19.61091 43.580581,17.38577 26.077861,-3.51364 43.086601,-33.45656 35.052261,-57.86702 -6.3291,-19.22727 -29.141208,-32.13891 -49.075181,-29.52221 M 1211.7917,1023.2575 c -6.2072,0.7832 -12.1841,1.8521 -17.7271,5.0033 -16.854,9.5806 -24.8867,29.5883 -24.0665,48.3288 1.008,23.0029 18.2007,46.0401 43.1165,43.0503 25.5508,-3.0638 44.5611,-29.2946 42.8387,-54.4274 -1.3229,-19.304 -14.3087,-37.1581 -33.8429,-41.0633 -3.2305,-0.6456 -7.03,-1.3097 -10.3187,-0.8917 m -144.7271,0.7911 c -5.76,0.7673 -11.2818,2.0797 -16.4042,4.961 -14.4145,8.1121 -22.6854,24.5798 -23.7887,40.7008 -1.3626,19.9179 8.4376,42.9842 29.0804,48.8342 5.4239,1.5372 10.8558,1.5557 16.4042,0.8652 25.056,-3.1195 42.4497,-31.4273 40.1716,-55.2556 -2.1537,-22.5214 -21.5238,-43.2859 -45.4633,-40.1056 m -143.40417,0.5318 c -24.59567,3.347 -41.275,26.2494 -40.20609,50.6863 0.88107,20.1506 12.90373,41.1877 34.38525,44.2568 3.4925,0.5001 7.08025,0.5715 10.58334,0.1164 24.45808,-3.1776 42.62173,-29.2179 40.9866,-53.1045 -0.61648,-9.017 -3.14325,-17.7112 -8.45344,-25.1354 -8.18356,-11.4459 -23.15633,-18.7457 -37.29566,-16.8196 m -143.13959,0.5292 c -25.46614,3.466 -41.90471,27.5193 -40.19285,52.5383 1.59808,23.3574 20.23269,45.5533 45.21994,41.9894 26.02441,-3.7121 42.85456,-30.7737 40.43627,-55.7477 -2.14842,-22.1933 -22.33613,-41.9285 -45.46336,-38.78 m -143.13958,0.5292 c -22.49752,3.22 -38.65033,22.0821 -40.19285,44.6008 -1.47373,21.5027 10.97756,45.5427 33.84285,49.2786 3.75179,0.6112 7.61471,0.6297 11.37708,0.1244 26.06675,-3.5137 42.93659,-30.4853 40.43627,-55.4884 -2.19075,-21.9181 -22.55308,-41.7963 -45.46335,-38.5154 m -140.49375,0.5265 c -5.10117,0.672 -9.99596,1.1139 -14.81667,3.1776 -14.15256,6.0537 -23.87335,19.4681 -27.14096,34.2821 -5.05354,22.9235 7.33161,50.3899 31.63888,55.6525 4.37092,0.9472 9.07256,0.9472 13.49375,0.3968 25.86831,-3.2199 42.91277,-31.5383 39.61077,-56.0493 -2.30452,-17.1132 -14.52298,-31.9934 -31.40869,-36.2135 -3.55864,-0.8917 -7.69937,-1.7277 -11.37708,-1.2462 m -141.81667,0.5741 c -14.23193,0.516 -27.20975,7.0432 -35.44358,18.8939 -16.11577,23.1934 -10.03829,62.2856 19.03942,72.2313 5.54302,1.8944 10.8532,2.3601 16.66875,2.1061 6.92414,-0.3043 13.95412,-3.4449 19.57916,-7.3078 24.71209,-16.9704 30.71019,-55.163 7.14375,-75.8349 -3.66977,-3.22 -8.0645,-5.9796 -12.7,-7.5988 -4.48733,-1.5664 -9.50648,-2.6617 -14.2875,-2.4898 M 209.55,1027.4882 c -5.24484,0.6906 -10.19625,1.4367 -15.08125,3.6751 -15.9168,7.2866 -25.78444,23.4421 -26.96395,40.6638 -1.67376,24.4422 17.82207,51.5249 44.42645,48.342 24.07602,-2.8787 42.78551,-25.49 42.31905,-49.6649 -0.43762,-22.6801 -20.45547,-46.1989 -44.7003,-43.016 m -142.081251,0.5742 c -5.046662,0.1825 -9.871075,1.2514 -14.552083,3.1247 -30.884124,12.3534 -37.768238,54.729 -14.816666,77.6817 3.912394,3.9131 8.80057,7.1728 14.022916,9.0752 5.39459,1.9658 10.957719,2.5426 16.66875,2.2913 4.740275,-0.2064 9.171517,-1.6114 13.493753,-3.4687 30.510421,-13.1048 39.734331,-58.5603 12.435414,-79.6925 -3.405452,-2.6353 -7.268104,-5.0589 -11.377084,-6.4347 -5.151437,-1.7224 -10.415587,-2.7728 -15.875,-2.577 M 1212.85,1161.632 c -5.7124,0.7434 -11.2289,1.4181 -16.4042,4.2042 -8.3555,4.5006 -14.0097,11.8454 -18.4599,20.0263 -5.678,10.4405 -9.488,21.291 -7.9217,33.3375 0.5927,4.5641 2.1776,8.6916 3.7703,12.9646 1.5717,4.228 2.1299,8.6492 4.3286,12.7 6.6278,12.2079 19.9126,19.8967 33.8932,18.1795 23.9738,-2.9422 46.982,-24.3734 48.6595,-48.8712 1.307,-19.0897 -8.8768,-36.8247 -25.1116,-46.5137 -6.2786,-3.7465 -15.3062,-6.993 -22.7542,-6.0272 m -144.1979,0.5291 c -6.014,0.7938 -11.9407,2.1008 -17.1979,5.3023 -7.374,4.4926 -12.3878,11.43 -16.346,18.9283 -7.6967,14.5759 -9.5541,28.6887 -4.4688,44.45 1.5372,4.7625 2.3072,9.562 4.7572,14.0229 6.514,11.8613 19.4389,19.8332 33.2555,18.1795 25.0772,-2.9977 46.9291,-24.9185 48.6595,-50.1941 1.2779,-18.6531 -9.7737,-36.2982 -25.6408,-45.3178 -6.5881,-3.7465 -15.3537,-6.3791 -23.0187,-5.3711 m -143.66876,0.5292 c -4.5085,0.6006 -9.12283,1.5319 -13.22916,3.5851 -18.1319,9.0593 -28.05113,32.2342 -26.69911,51.8663 0.25929,3.7809 1.35731,7.4718 2.31775,11.1125 1.49225,5.6673 2.60879,11.2368 5.56154,16.4041 7.04321,12.3164 20.43642,18.841 34.43023,17.1212 23.64582,-2.9025 45.24904,-25.5693 46.2915,-49.4003 1.12977,-25.8392 -20.48933,-54.4328 -48.67275,-50.6889 m -143.40416,0.5318 c -3.51632,0.5027 -7.02998,1.0901 -10.31875,2.4977 -23.73842,10.1653 -32.30827,38.8937 -27.09863,62.476 1.22767,5.5669 2.45269,11.3665 5.25463,16.4042 6.99823,12.5836 20.36762,19.9549 34.80858,18.1795 24.05856,-2.9527 44.97123,-25.8286 46.02692,-49.9295 1.12977,-25.8048 -20.85446,-53.6125 -48.67275,-49.6279 m -143.13959,0.5292 c -3.95552,0.5662 -8.01158,1.2991 -11.64166,3.0559 -16.85396,8.1598 -26.44246,26.9743 -27.2415,45.2491 -0.23813,5.4371 0.64823,10.5462 1.55575,15.875 3.34168,19.6532 18.05516,37.5073 39.70866,34.8482 24.48454,-3.0056 44.95271,-25.654 46.02692,-50.1941 1.12712,-25.7545 -20.8915,-52.7738 -48.40817,-48.8341 m -138.1125,0.2646 c -6.01133,0.7593 -11.58346,0.9234 -17.19791,3.6591 -18.6399,9.0832 -27.31559,30.8928 -26.44775,50.7313 0.83873,19.1849 10.5066,39.9256 30.94566,43.8679 3.09298,0.5979 6.37382,0.8837 9.525,0.5053 26.82875,-3.2067 47.4689,-28.3421 46.2915,-55.2212 -0.78846,-18.0154 -12.8905,-35.433 -30.15191,-41.1877 -3.9079,-1.3017 -8.79475,-2.8839 -12.96459,-2.3547 m -144.72708,0.5265 c -7.79727,1.0239 -14.75317,2.5135 -21.43125,7.0564 -15.34848,10.4458 -22.57425,32.3612 -20.21946,50.247 2.39713,18.214 11.32152,37.0999 31.33196,40.5025 2.93687,0.5 6.01398,0.7884 8.99583,0.4312 27.03248,-3.2332 46.93709,-28.6358 45.76234,-55.4857 -0.82021,-18.7325 -13.97794,-35.9834 -32.004,-41.1216 -3.86821,-1.1033 -8.38994,-2.159 -12.43542,-1.6298 m -143.40418,0.5291 c -5.69515,0.7488 -10.89342,1.5717 -16.13958,4.1937 -17.64083,8.8186 -25.79661,29.2364 -25.66326,48.0827 0.12541,17.7694 9.44192,38.3196 27.51534,43.9129 5.60917,1.7383 11.439,1.7833 17.19792,1.024 5.99228,-0.7885 11.9171,-3.6936 16.93333,-6.9189 17.76095,-11.4194 27.04492,-32.6046 23.96411,-53.3638 -2.5019,-16.8566 -15.68027,-31.5648 -32.16619,-35.6844 -3.624,-0.9075 -7.90019,-1.7356 -11.64167,-1.2462 m -143.139581,0.5292 c -6.08621,0.7991 -11.687439,1.7648 -17.197916,4.7334 -16.736483,9.0144 -25.403466,29.3635 -24.595931,47.8076 0.883708,20.1771 11.749617,40.0764 32.798014,44.1854 3.398838,0.6641 6.8961,0.6032 10.31875,0.1878 26.419178,-3.2014 45.269684,-30.8795 42.817524,-56.5441 -1.75631,-18.3806 -14.634636,-35.1843 -33.027941,-39.2694 -3.545152,-0.7885 -7.468129,-1.5769 -11.1125,-1.1007 m 998.008351,136.2631 c -9.6308,1.3097 -18.46,5.5271 -24.7835,13.1154 -2.7332,3.2782 -4.2651,7.3845 -7.0432,10.5833 -2.8523,3.2835 -6.223,6.0907 -8.9165,9.525 -6.0643,7.7417 -10.1203,17.8356 -8.3476,27.7813 1.307,7.3236 4.8868,12.647 10.197,17.7165 1.651,1.5769 4.2995,2.4473 5.6357,4.2677 1.9367,2.6379 2.6193,6.1039 4.7704,8.7074 8.1862,9.9113 20.0607,14.486 32.721,12.655 6.1622,-0.8916 11.4538,-4.3788 16.9334,-7.0299 15.4516,-7.4772 30.9245,-16.1502 34.6604,-34.4647 4.7439,-23.2701 -10.9961,-46.1486 -30.6917,-56.9674 -7.5221,-4.1301 -16.4333,-7.075 -25.1354,-5.8896 m 142.0812,0 c -8.7788,1.2567 -17.3064,5.2599 -23.2039,12.057 -2.9475,3.3999 -4.5879,7.7814 -7.501,11.1125 -2.9845,3.4132 -6.5272,6.2468 -9.39,9.7896 -6.0696,7.5089 -10.4458,17.3937 -9.0382,27.2521 1.1509,8.0486 5.424,13.97 11.2977,19.2881 1.5637,1.4155 4.0243,1.9685 5.3711,3.5666 2.0399,2.4209 2.6828,6.096 4.7704,8.6307 8.2682,10.0462 20.2009,14.5177 32.9856,12.655 6.2204,-0.9075 11.6655,-4.6169 17.1979,-7.2945 14.8749,-7.1993 30.3927,-15.4596 34.2212,-33.1417 5.0007,-23.0902 -9.8848,-46.2069 -29.4587,-57.3749 -8.2074,-4.6832 -17.6636,-7.9137 -27.2521,-6.5405 m -285.48537,0.2646 c -8.96144,1.2832 -17.74561,5.2837 -23.6908,12.3242 -2.75166,3.2624 -4.33916,7.3343 -7.04056,10.5807 -9.04346,10.8744 -19.00502,21.6721 -16.81427,37.0417 0.83873,5.8843 3.76238,11.848 7.86871,16.1396 1.97644,2.0664 4.96358,3.6512 6.65162,5.9002 2.11403,2.8152 2.82311,6.5908 5.1435,9.4456 7.92428,9.7526 19.96282,14.5442 32.37971,12.6206 6.04573,-0.9339 10.99079,-4.0349 16.40417,-6.5934 14.67115,-6.9294 30.34771,-15.9226 34.42758,-33.0147 5.61182,-23.5267 -9.1731,-48.0668 -29.92966,-58.8063 -7.76817,-4.019 -16.50736,-6.9109 -25.4,-5.6382 m -142.61042,0.2645 c -9.12019,1.2409 -17.89642,5.207 -23.99771,12.3217 -2.84692,3.3205 -4.52173,7.4665 -7.24958,10.8479 -8.40052,10.4166 -17.10531,21.3916 -15.24265,35.7187 0.66411,5.1197 2.78077,10.8162 6.09336,14.8167 2.03993,2.4633 5.03766,4.5456 6.77598,7.1887 1.95791,2.9819 2.6617,6.567 4.91595,9.4801 7.81844,10.0885 19.76702,15.1209 32.40882,13.417 6.49552,-0.8758 12.2211,-4.1249 17.99166,-7.0009 15.80092,-7.8819 30.5779,-18.4494 33.48567,-37.1078 3.37344,-21.6323 -10.68917,-43.2197 -28.98775,-53.557 -7.79727,-4.4053 -17.14235,-7.358 -26.19375,-6.1251 m -143.13958,0.2673 c -8.91911,1.389 -17.38313,5.1964 -23.47119,12.0544 -3.1459,3.5428 -5.03767,7.8766 -7.84754,11.6416 -8.18357,10.9644 -15.07067,21.4181 -13.34823,35.7188 0.52916,4.3841 2.45533,9.4086 5.05619,12.9646 1.75947,2.4077 4.1566,4.4503 5.78908,6.9241 2.28864,3.4687 2.97127,7.6677 5.64885,11.0675 8.19944,10.4114 20.50521,14.9067 33.4645,12.8853 5.70707,-0.889 11.04107,-3.9212 16.13959,-6.4691 15.47812,-7.7391 30.861,-19.1797 33.26077,-37.637 2.96862,-22.8468 -11.47234,-45.757 -32.20244,-54.9963 -6.86858,-3.0612 -14.86694,-5.3419 -22.48958,-4.1539 m -142.08125,0.2619 c -9.7843,1.3309 -18.53407,5.5404 -25.02165,13.1154 -2.71727,3.1724 -4.44235,6.9294 -6.83948,10.3187 -7.76287,10.9723 -13.76627,21.5742 -12.27931,35.4542 0.82285,7.6835 5.58271,12.7027 9.19427,19.05 2.29394,4.0323 3.17765,8.3582 6.08012,12.1708 7.88988,10.3744 20.42848,14.7162 33.09938,12.8853 5.56419,-0.8044 10.90877,-3.7227 15.875,-6.2045 15.49665,-7.7497 30.61229,-19.8279 32.99619,-38.1662 2.97127,-22.8547 -11.27654,-45.8126 -32.20244,-54.8428 -6.30502,-2.7199 -13.97,-4.7255 -20.90208,-3.7809 m -144.19792,0.5371 c -8.38465,1.4711 -16.27188,4.99 -22.18002,11.266 -3.56658,3.7888 -5.91608,8.3978 -8.77623,12.6894 -6.52198,9.7816 -11.65225,19.931 -10.8241,32.0146 0.54239,7.911 4.34975,13.3852 7.90045,20.1083 2.42623,4.5958 3.3364,9.4297 6.56432,13.7583 7.35806,9.8663 20.55812,14.7109 32.60725,12.5783 6.43466,-1.1403 12.58358,-4.1777 18.25625,-7.3236 14.58383,-8.0884 27.90825,-20.029 30.08577,-37.5338 2.86014,-22.9844 -11.33211,-45.9714 -32.73161,-54.5571 -6.26004,-2.5109 -14.13404,-4.1857 -20.90208,-3.0004 m -139.43543,0.254 c -6.36958,0.8387 -12.35128,1.8706 -17.99166,5.3023 -6.81276,4.1486 -11.17944,10.4378 -15.29504,17.0762 -6.35053,10.242 -11.72554,20.6533 -10.87517,33.0729 0.48843,7.1305 3.51235,12.4724 6.39287,18.7854 1.8288,4.0084 2.46459,8.3688 4.87997,12.1708 7.33928,11.5517 20.38535,17.6266 33.94737,15.7983 6.94425,-0.9366 13.55804,-4.3471 19.57916,-7.7496 16.03137,-9.0567 28.51891,-23.3072 29.21159,-42.4445 0.67098,-18.5394 -9.81048,-35.1684 -24.97825,-45.0691 -6.8416,-4.4662 -16.55366,-8.0328 -24.87084,-6.9427 m -143.668747,0.5292 c -5.541434,0.7276 -10.624079,1.5742 -15.610417,4.3497 -8.109744,4.5138 -13.127566,11.5147 -17.729993,19.3516 -4.95009,8.4297 -9.010042,17.3091 -9.253617,27.2521 -0.190606,7.7814 2.399321,14.097 5.165011,21.1667 1.660789,4.2439 2.367491,8.7101 4.740539,12.7 7.060671,11.8745 20.236391,18.6531 34.011393,16.8566 6.799263,-0.8864 13.148205,-3.892 19.05,-7.2205 16.283251,-9.1784 28.295071,-23.5109 29.609521,-42.709 1.25598,-18.3383 -9.7536,-35.7902 -24.847021,-45.257 -7.164652,-4.4926 -16.571912,-7.6147 -25.135416,-6.4902 z"
       id="path868" />
  </g>
</svg>
