<svg width="1319" height="1364" viewBox="0 0 1319 1364" fill="none" xmlns="http://www.w3.org/2000/svg">
<path d="M1132 989.493V768.402C1211.89 711.477 1264 618.071 1264 512.496V989.493C1264 1171.75 1116.25 1319.49 934.001 1319.49L768.501 1319.5C732.05 1319.5 702.5 1289.95 702.5 1253.5C702.5 1217.04 732.049 1187.5 768.499 1187.5L934 1187.49C1043.35 1187.49 1132 1098.84 1132 989.493Z" fill="#21F8AA"/>
<path d="M66 330.5L694.095 330.5C751.019 250.604 844.425 198.5 950 198.5L66 198.5C29.5492 198.5 -4.44277e-06 228.049 -7.62939e-06 264.5C-1.0816e-05 300.951 29.5492 330.5 66 330.5Z" fill="#3EA2FF"/>
<path d="M264 0C300.451 0 330 29.5492 330 66V198.5L198 198.5V66C198 29.5492 227.549 0 264 0Z" fill="#DCDF47"/>
<path d="M198 330.5V513C198 686.141 338.359 826.5 511.5 826.5H950C844.425 826.5 751.019 774.396 694.095 694.5H511.5C411.26 694.5 330 613.24 330 513V330.5H198Z" fill="#DCDF47"/>
<path d="M330 198.5L198 198.5V330.5H330V198.5Z" fill="#FEFDF0"/>
<path d="M950 330.5H694.094C657.516 381.841 636 444.658 636 512.5C636 580.342 657.516 643.158 694.094 694.499H949.398C849.16 694.175 768 612.814 768 512.5C768 411.984 849.484 330.5 950 330.5Z" fill="#FF613F"/>
<path d="M1131.91 512.5C1131.91 418.266 1060.29 340.76 968.516 331.439C962.395 330.818 956.188 330.5 949.906 330.5H694C750.926 250.604 844.332 198.5 949.906 198.5C967.012 198.5 983.797 199.867 1000.16 202.5C1149.69 226.553 1263.91 356.188 1263.91 512.5C1263.91 618.035 1211.84 711.41 1132 768.34V512.5H1131.91Z" fill="#FEFDF0"/>
<path d="M949.906 826.5C844.33 826.5 750.924 774.396 694 694.499H949.25C949.468 694.5 949.687 694.5 949.906 694.5C1050.42 694.5 1131.91 613.016 1131.91 512.5H1132V768.339C1080.64 804.959 1017.79 826.5 949.906 826.5Z" fill="#BE502E"/>
</svg>
