<?xml version="1.0" encoding="UTF-8" standalone="no"?>
<!-- Created with Inkscape (http://www.inkscape.org/) -->

<svg
   xmlns:dc="http://purl.org/dc/elements/1.1/"
   xmlns:cc="http://creativecommons.org/ns#"
   xmlns:rdf="http://www.w3.org/1999/02/22-rdf-syntax-ns#"
   xmlns:svg="http://www.w3.org/2000/svg"
   xmlns="http://www.w3.org/2000/svg"
   xmlns:sodipodi="http://sodipodi.sourceforge.net/DTD/sodipodi-0.dtd"
   xmlns:inkscape="http://www.inkscape.org/namespaces/inkscape"
   width="160"
   height="25"
   viewBox="0 0 42.333332 6.6145833"
   version="1.1"
   id="svg8"
   inkscape:version="0.92.4 (unknown)"
   sodipodi:docname="separator.svg">
  <defs
     id="defs2" />
  <sodipodi:namedview
     id="base"
     pagecolor="#ffffff"
     bordercolor="#666666"
     borderopacity="1.0"
     inkscape:pageopacity="0.0"
     inkscape:pageshadow="2"
     inkscape:zoom="1"
     inkscape:cx="271.67017"
     inkscape:cy="191.96906"
     inkscape:document-units="mm"
     inkscape:current-layer="layer1"
     showgrid="false"
     units="px"
     inkscape:window-width="2560"
     inkscape:window-height="1386"
     inkscape:window-x="0"
     inkscape:window-y="27"
     inkscape:window-maximized="1">
    <inkscape:grid
       type="xygrid"
       id="grid4759" />
  </sodipodi:namedview>
  <metadata
     id="metadata5">
    <rdf:RDF>
      <cc:Work
         rdf:about="">
        <dc:format>image/svg+xml</dc:format>
        <dc:type
           rdf:resource="http://purl.org/dc/dcmitype/StillImage" />
        <dc:title></dc:title>
      </cc:Work>
    </rdf:RDF>
  </metadata>
  <g
     inkscape:label="Calque 1"
     inkscape:groupmode="layer"
     id="layer1"
     transform="translate(0,-290.3854)">
    <path
       style="color:#000000;font-style:normal;font-variant:normal;font-weight:normal;font-stretch:normal;font-size:medium;line-height:normal;font-family:sans-serif;font-variant-ligatures:normal;font-variant-position:normal;font-variant-caps:normal;font-variant-numeric:normal;font-variant-alternates:normal;font-feature-settings:normal;text-indent:0;text-align:start;text-decoration:none;text-decoration-line:none;text-decoration-style:solid;text-decoration-color:#000000;letter-spacing:normal;word-spacing:normal;text-transform:none;writing-mode:lr-tb;direction:ltr;text-orientation:mixed;dominant-baseline:auto;baseline-shift:baseline;text-anchor:start;white-space:normal;shape-padding:0;clip-rule:nonzero;display:inline;overflow:visible;visibility:visible;opacity:1;isolation:auto;mix-blend-mode:normal;color-interpolation:sRGB;color-interpolation-filters:linearRGB;solid-color:#000000;solid-opacity:1;vector-effect:none;fill:#343a40;fill-opacity:1;fill-rule:nonzero;stroke:none;stroke-width:0.26458332;stroke-linecap:butt;stroke-linejoin:miter;stroke-miterlimit:4;stroke-dasharray:none;stroke-dashoffset:0;stroke-opacity:1;paint-order:stroke markers fill;color-rendering:auto;image-rendering:auto;shape-rendering:auto;text-rendering:auto;enable-background:accumulate"
       d="m 21.035409,290.38694 c -1.825,0 -3.308842,1.48126 -3.308842,3.30626 0,1.825 1.483842,3.30678 3.308842,3.30678 1.824998,0 3.306257,-1.48178 3.306257,-3.30678 0,-1.825 -1.481259,-3.30626 -3.306257,-3.30626 z m 0,0.26355 c 1.682009,0 3.04064,1.3607 3.04064,3.04271 0,1.68201 -1.358631,3.04322 -3.04064,3.04322 -1.682009,0 -3.043227,-1.36121 -3.043227,-3.04322 0,-1.68201 1.361218,-3.04271 3.043227,-3.04271 z m -7.938534,2.64584 A 0.396875,0.396875 0 0 0 12.7,293.6932 a 0.396875,0.396875 0 0 0 0.396875,0.39688 0.396875,0.396875 0 0 0 0.396875,-0.39688 0.396875,0.396875 0 0 0 -0.396875,-0.39687 z m 7.9375,0 a 0.396875,0.396875 0 0 0 -0.396875,0.39687 0.396875,0.396875 0 0 0 0.396875,0.39688 0.396875,0.396875 0 0 0 0.396875,-0.39688 0.396875,0.396875 0 0 0 -0.396875,-0.39687 z m 7.9375,0 a 0.396875,0.396875 0 0 0 -0.396875,0.39687 0.396875,0.396875 0 0 0 0.396875,0.39688 0.396875,0.396875 0 0 0 0.396875,-0.39688 0.396875,0.396875 0 0 0 -0.396875,-0.39687 z M 0,293.56039 v 0.26562 h 7.9374999 v -0.26562 z m 34.396349,0 v 0.26562 h 7.9375 v -0.26562 z"
       id="circle4765"
       inkscape:connector-curvature="0" />
  </g>
</svg>
