<svg width="142" height="15" viewBox="0 0 142 15" fill="none" xmlns="http://www.w3.org/2000/svg">
<path d="M133.814 12.0004V3.42442H135.974L136.022 4.84842C136.486 3.68042 137.43 3.23242 138.566 3.23242C140.406 3.23242 141.478 4.49642 141.478 6.48042V12.0004H139.078V7.28042C139.078 5.90442 138.774 5.13642 137.766 5.13642C136.774 5.13642 136.214 5.90442 136.214 7.28042V12.0004H133.814Z" fill="white"/>
<path d="M127.168 12.1924C124.544 12.1924 122.816 10.4324 122.816 7.71242C122.816 5.00842 124.544 3.23242 127.168 3.23242C129.792 3.23242 131.52 5.00842 131.52 7.71242C131.52 10.4324 129.792 12.1924 127.168 12.1924ZM127.168 10.3524C128.368 10.3524 129.056 9.37642 129.056 7.71242C129.056 6.04842 128.368 5.07242 127.168 5.07242C125.968 5.07242 125.28 6.04842 125.28 7.71242C125.28 9.37642 125.968 10.3524 127.168 10.3524Z" fill="white"/>
<path d="M112.902 12.0004V3.42442H115.062L115.11 4.84842C115.574 3.68042 116.518 3.23242 117.654 3.23242C119.494 3.23242 120.566 4.49642 120.566 6.48042V12.0004H118.166V7.28042C118.166 5.90442 117.862 5.13642 116.854 5.13642C115.862 5.13642 115.302 5.90442 115.302 7.28042V12.0004H112.902Z" fill="white"/>
<path d="M106.782 12.1924C104.126 12.1924 102.782 10.9764 102.654 9.29642L105.086 9.21642C105.23 10.0324 105.742 10.4964 106.782 10.4964C107.646 10.4964 108.142 10.2244 108.142 9.64842C108.142 9.12042 107.87 8.86442 106.398 8.62442C103.678 8.17642 102.862 7.47242 102.862 5.98442C102.862 4.33642 104.142 3.23242 106.67 3.23242C109.086 3.23242 110.334 4.46442 110.558 6.17642L108.142 6.27242C108.03 5.44042 107.502 4.92842 106.654 4.92842C105.79 4.92842 105.326 5.31242 105.326 5.88842C105.326 6.51242 105.742 6.76842 106.926 6.94442C109.678 7.34442 110.622 8.11242 110.622 9.60042C110.622 11.2644 109.118 12.1924 106.782 12.1924Z" fill="white"/>
<path d="M96.6442 12.1924C94.0202 12.1924 92.3242 10.4164 92.3242 7.71242C92.3242 5.00842 94.0202 3.23242 96.6282 3.23242C99.1722 3.23242 100.836 4.99242 100.836 7.87242V8.35242H94.8042C94.8682 9.71242 95.5882 10.3684 96.6922 10.3684C97.4922 10.3684 98.0682 10.0324 98.2922 9.32842L100.708 9.47242C100.244 11.1844 98.7082 12.1924 96.6442 12.1924ZM94.8042 6.88042H98.3722C98.3082 5.63242 97.6202 5.00842 96.6282 5.00842C95.6202 5.00842 94.9322 5.69642 94.8042 6.88042Z" fill="white"/>
<path d="M85.2398 12.1918C83.4638 12.1918 82.4238 11.0078 82.4238 8.94383V3.42383H84.8238V8.38383C84.8238 9.71183 85.2238 10.2878 86.0878 10.2878C87.0638 10.2878 87.6398 9.63183 87.6398 8.27183V3.42383H90.0398V11.9998H87.8478L87.8158 10.6078C87.3838 11.6638 86.5038 12.1918 85.2398 12.1918Z" fill="white"/>
<path d="M75.3235 14.5924C72.8755 14.5924 71.6595 13.6004 71.2755 12.1924L73.7395 12.0164C73.9155 12.5764 74.3155 12.9124 75.3235 12.9124C76.4595 12.9124 77.0995 12.4004 77.0995 11.2004V10.2884C76.6835 11.0884 75.7235 11.6004 74.6195 11.6004C72.5075 11.6004 71.0195 9.96842 71.0195 7.42442C71.0195 4.96042 72.4915 3.23242 74.5875 3.23242C75.8355 3.23242 76.7155 3.84042 77.1635 4.75242V3.42442H79.5155V11.1524C79.5155 13.4564 77.8035 14.5924 75.3235 14.5924ZM75.3075 9.82442C76.4115 9.82442 77.1155 8.92842 77.1155 7.40842C77.1315 5.90442 76.4275 4.99242 75.3075 4.99242C74.1555 4.99242 73.4835 5.95242 73.4835 7.40842C73.4835 8.88042 74.1875 9.82442 75.3075 9.82442Z" fill="white"/>
<path d="M58.626 12.1924C55.97 12.1924 54.626 10.9764 54.498 9.29642L56.93 9.21642C57.074 10.0324 57.586 10.4964 58.626 10.4964C59.49 10.4964 59.986 10.2244 59.986 9.64842C59.986 9.12042 59.714 8.86442 58.242 8.62442C55.522 8.17642 54.706 7.47242 54.706 5.98442C54.706 4.33642 55.986 3.23242 58.514 3.23242C60.93 3.23242 62.1781 4.46442 62.4021 6.17642L59.986 6.27242C59.874 5.44042 59.346 4.92842 58.498 4.92842C57.634 4.92842 57.17 5.31242 57.17 5.88842C57.17 6.51242 57.586 6.76842 58.77 6.94442C61.522 7.34442 62.466 8.11242 62.466 9.60042C62.466 11.2644 60.962 12.1924 58.626 12.1924Z" fill="white"/>
<path d="M47.3635 12.1924C45.5715 12.1924 44.3555 11.3284 44.3555 9.85642C44.3555 8.35242 45.2995 7.58442 47.1715 7.20042L49.9395 6.65642C49.9395 5.53642 49.4275 4.97642 48.4835 4.97642C47.5715 4.97642 47.0755 5.40842 46.9155 6.20842L44.4995 6.09642C44.8195 4.20842 46.2435 3.23242 48.4835 3.23242C51.0435 3.23242 52.3395 4.48042 52.3395 6.81642V9.74442C52.3395 10.2244 52.4995 10.3524 52.8195 10.3524H53.0595V12.0004C52.9155 12.0484 52.5315 12.0964 52.2115 12.0964C51.3155 12.0964 50.5315 11.7764 50.3235 10.6884C49.8915 11.6004 48.8355 12.1924 47.3635 12.1924ZM47.9395 10.5444C49.1395 10.5444 49.9395 9.80842 49.9395 8.57642V8.16042L47.9875 8.57642C47.2035 8.73642 46.8195 9.07242 46.8195 9.63242C46.8195 10.2084 47.2035 10.5444 47.9395 10.5444Z" fill="white"/>
<path d="M29.8145 12.0004V3.42442H31.9745L32.0225 4.81642C32.4545 3.80842 33.3185 3.23242 34.3585 3.23242C35.5905 3.23242 36.4385 3.90442 36.8065 4.97642C37.2065 3.84042 38.0865 3.23242 39.2225 3.23242C40.9825 3.23242 42.1025 4.36842 42.1025 6.48042V12.0004H39.7025V7.15242C39.7025 5.80842 39.3025 5.13642 38.4065 5.13642C37.5265 5.13642 37.0305 5.88842 37.0305 7.18442V12.0004H34.8705V7.18442C34.8705 5.85642 34.5185 5.13642 33.5905 5.13642C32.7105 5.13642 32.2145 5.88842 32.2145 7.18442V12.0004H29.8145Z" fill="white"/>
<path d="M23.1684 12.1924C20.5444 12.1924 18.8164 10.4324 18.8164 7.71242C18.8164 5.00842 20.5444 3.23242 23.1684 3.23242C25.7924 3.23242 27.5204 5.00842 27.5204 7.71242C27.5204 10.4324 25.7924 12.1924 23.1684 12.1924ZM23.1684 10.3524C24.3684 10.3524 25.0564 9.37642 25.0564 7.71242C25.0564 6.04842 24.3684 5.07242 23.1684 5.07242C21.9684 5.07242 21.2804 6.04842 21.2804 7.71242C21.2804 9.37642 21.9684 10.3524 23.1684 10.3524Z" fill="white"/>
<path d="M8.90234 11.9996V0.639648H11.3023V4.47965C11.7663 3.63165 12.6463 3.23165 13.6703 3.23165C15.5903 3.23165 16.5663 4.57565 16.5663 6.47965V11.9996H14.1663V7.05565C14.1663 5.79165 13.7983 5.13565 12.8703 5.13565C11.8783 5.13565 11.3023 5.82365 11.3023 7.11965V11.9996H8.90234Z" fill="white"/>
<path d="M4.60825 12.0002C2.83225 12.0002 2.03225 11.2162 2.03225 9.4242V5.2162H0.65625V3.4242H2.03225V1.4082H4.43225V3.4242H6.68825V5.2162H4.43225V9.1362C4.43225 9.9682 4.78425 10.2082 5.48825 10.2082H6.68825V12.0002H4.60825Z" fill="white"/>
<circle cx="67" cy="10.5" r="1.5" fill="white"/>
</svg>
