<svg width="142" height="14" viewBox="0 0 142 14" fill="none" xmlns="http://www.w3.org/2000/svg">
<path d="M133.814 11.3608V2.78477H135.974L136.022 4.20877C136.486 3.04077 137.43 2.59277 138.566 2.59277C140.406 2.59277 141.478 3.85677 141.478 5.84077V11.3608H139.078V6.64077C139.078 5.26477 138.774 4.49677 137.766 4.49677C136.774 4.49677 136.214 5.26477 136.214 6.64077V11.3608H133.814Z" fill="#1D1D1D"/>
<path d="M127.168 11.5528C124.544 11.5528 122.816 9.79277 122.816 7.07277C122.816 4.36877 124.544 2.59277 127.168 2.59277C129.792 2.59277 131.52 4.36877 131.52 7.07277C131.52 9.79277 129.792 11.5528 127.168 11.5528ZM127.168 9.71277C128.368 9.71277 129.056 8.73677 129.056 7.07277C129.056 5.40877 128.368 4.43277 127.168 4.43277C125.968 4.43277 125.28 5.40877 125.28 7.07277C125.28 8.73677 125.968 9.71277 127.168 9.71277Z" fill="#1D1D1D"/>
<path d="M112.902 11.3608V2.78477H115.062L115.11 4.20877C115.574 3.04077 116.518 2.59277 117.654 2.59277C119.494 2.59277 120.566 3.85677 120.566 5.84077V11.3608H118.166V6.64077C118.166 5.26477 117.862 4.49677 116.854 4.49677C115.862 4.49677 115.302 5.26477 115.302 6.64077V11.3608H112.902Z" fill="#1D1D1D"/>
<path d="M106.782 11.5528C104.126 11.5528 102.782 10.3368 102.654 8.65677L105.086 8.57677C105.23 9.39277 105.742 9.85677 106.782 9.85677C107.646 9.85677 108.142 9.58477 108.142 9.00877C108.142 8.48077 107.87 8.22477 106.398 7.98477C103.678 7.53677 102.862 6.83277 102.862 5.34477C102.862 3.69677 104.142 2.59277 106.67 2.59277C109.086 2.59277 110.334 3.82477 110.558 5.53677L108.142 5.63277C108.03 4.80077 107.502 4.28877 106.654 4.28877C105.79 4.28877 105.326 4.67277 105.326 5.24877C105.326 5.87277 105.742 6.12877 106.926 6.30477C109.678 6.70477 110.622 7.47277 110.622 8.96077C110.622 10.6248 109.118 11.5528 106.782 11.5528Z" fill="#1D1D1D"/>
<path d="M96.6442 11.5528C94.0202 11.5528 92.3242 9.77677 92.3242 7.07277C92.3242 4.36877 94.0202 2.59277 96.6282 2.59277C99.1722 2.59277 100.836 4.35277 100.836 7.23277V7.71277H94.8042C94.8682 9.07277 95.5882 9.72877 96.6922 9.72877C97.4922 9.72877 98.0682 9.39277 98.2922 8.68877L100.708 8.83277C100.244 10.5448 98.7082 11.5528 96.6442 11.5528ZM94.8042 6.24077H98.3722C98.3082 4.99277 97.6202 4.36877 96.6282 4.36877C95.6202 4.36877 94.9322 5.05677 94.8042 6.24077Z" fill="#1D1D1D"/>
<path d="M85.2398 11.5522C83.4638 11.5522 82.4238 10.3682 82.4238 8.30418V2.78418H84.8238V7.74418C84.8238 9.07218 85.2238 9.64818 86.0878 9.64818C87.0638 9.64818 87.6398 8.99218 87.6398 7.63218V2.78418H90.0398V11.3602H87.8478L87.8158 9.96818C87.3838 11.0242 86.5038 11.5522 85.2398 11.5522Z" fill="#1D1D1D"/>
<path d="M75.3235 13.9528C72.8755 13.9528 71.6595 12.9608 71.2755 11.5528L73.7395 11.3768C73.9155 11.9368 74.3155 12.2728 75.3235 12.2728C76.4595 12.2728 77.0995 11.7608 77.0995 10.5608V9.64877C76.6835 10.4488 75.7235 10.9608 74.6195 10.9608C72.5075 10.9608 71.0195 9.32877 71.0195 6.78477C71.0195 4.32077 72.4915 2.59277 74.5875 2.59277C75.8355 2.59277 76.7155 3.20077 77.1635 4.11277V2.78477H79.5155V10.5128C79.5155 12.8168 77.8035 13.9528 75.3235 13.9528ZM75.3075 9.18477C76.4115 9.18477 77.1155 8.28877 77.1155 6.76877C77.1315 5.26477 76.4275 4.35277 75.3075 4.35277C74.1555 4.35277 73.4835 5.31277 73.4835 6.76877C73.4835 8.24077 74.1875 9.18477 75.3075 9.18477Z" fill="#1D1D1D"/>
<path d="M58.626 11.5528C55.97 11.5528 54.626 10.3368 54.498 8.65677L56.93 8.57677C57.074 9.39277 57.586 9.85677 58.626 9.85677C59.49 9.85677 59.986 9.58477 59.986 9.00877C59.986 8.48077 59.714 8.22477 58.242 7.98477C55.522 7.53677 54.706 6.83277 54.706 5.34477C54.706 3.69677 55.986 2.59277 58.514 2.59277C60.93 2.59277 62.1781 3.82477 62.4021 5.53677L59.986 5.63277C59.874 4.80077 59.346 4.28877 58.498 4.28877C57.634 4.28877 57.17 4.67277 57.17 5.24877C57.17 5.87277 57.586 6.12877 58.77 6.30477C61.522 6.70477 62.466 7.47277 62.466 8.96077C62.466 10.6248 60.962 11.5528 58.626 11.5528Z" fill="#1D1D1D"/>
<path d="M47.3635 11.5528C45.5715 11.5528 44.3555 10.6888 44.3555 9.21677C44.3555 7.71277 45.2995 6.94477 47.1715 6.56077L49.9395 6.01677C49.9395 4.89677 49.4275 4.33677 48.4835 4.33677C47.5715 4.33677 47.0755 4.76877 46.9155 5.56877L44.4995 5.45677C44.8195 3.56877 46.2435 2.59277 48.4835 2.59277C51.0435 2.59277 52.3395 3.84077 52.3395 6.17677V9.10477C52.3395 9.58477 52.4995 9.71277 52.8195 9.71277H53.0595V11.3608C52.9155 11.4088 52.5315 11.4568 52.2115 11.4568C51.3155 11.4568 50.5315 11.1368 50.3235 10.0488C49.8915 10.9608 48.8355 11.5528 47.3635 11.5528ZM47.9395 9.90477C49.1395 9.90477 49.9395 9.16877 49.9395 7.93677V7.52077L47.9875 7.93677C47.2035 8.09677 46.8195 8.43277 46.8195 8.99277C46.8195 9.56877 47.2035 9.90477 47.9395 9.90477Z" fill="#1D1D1D"/>
<path d="M29.8145 11.3608V2.78477H31.9745L32.0225 4.17677C32.4545 3.16877 33.3185 2.59277 34.3585 2.59277C35.5905 2.59277 36.4385 3.26477 36.8065 4.33677C37.2065 3.20077 38.0865 2.59277 39.2225 2.59277C40.9825 2.59277 42.1025 3.72877 42.1025 5.84077V11.3608H39.7025V6.51277C39.7025 5.16877 39.3025 4.49677 38.4065 4.49677C37.5265 4.49677 37.0305 5.24877 37.0305 6.54477V11.3608H34.8705V6.54477C34.8705 5.21677 34.5185 4.49677 33.5905 4.49677C32.7105 4.49677 32.2145 5.24877 32.2145 6.54477V11.3608H29.8145Z" fill="#1D1D1D"/>
<path d="M23.1684 11.5528C20.5444 11.5528 18.8164 9.79277 18.8164 7.07277C18.8164 4.36877 20.5444 2.59277 23.1684 2.59277C25.7924 2.59277 27.5204 4.36877 27.5204 7.07277C27.5204 9.79277 25.7924 11.5528 23.1684 11.5528ZM23.1684 9.71277C24.3684 9.71277 25.0564 8.73677 25.0564 7.07277C25.0564 5.40877 24.3684 4.43277 23.1684 4.43277C21.9684 4.43277 21.2804 5.40877 21.2804 7.07277C21.2804 8.73677 21.9684 9.71277 23.1684 9.71277Z" fill="#1D1D1D"/>
<path d="M8.90234 11.36V0H11.3023V3.84C11.7663 2.992 12.6463 2.592 13.6703 2.592C15.5903 2.592 16.5663 3.936 16.5663 5.84V11.36H14.1663V6.416C14.1663 5.152 13.7983 4.496 12.8703 4.496C11.8783 4.496 11.3023 5.184 11.3023 6.48V11.36H8.90234Z" fill="#1D1D1D"/>
<path d="M4.60825 11.3606C2.83225 11.3606 2.03225 10.5766 2.03225 8.78456V4.57656H0.65625V2.78456H2.03225V0.768555H4.43225V2.78456H6.68825V4.57656H4.43225V8.49656C4.43225 9.32856 4.78425 9.56856 5.48825 9.56856H6.68825V11.3606H4.60825Z" fill="#1D1D1D"/>
<circle cx="67" cy="9.86035" r="1.5" fill="#1D1D1D"/>
</svg>
