<?xml version="1.0" encoding="UTF-8" standalone="no"?>
<svg
   xmlns:dc="http://purl.org/dc/elements/1.1/"
   xmlns:cc="http://creativecommons.org/ns#"
   xmlns:rdf="http://www.w3.org/1999/02/22-rdf-syntax-ns#"
   xmlns:svg="http://www.w3.org/2000/svg"
   xmlns="http://www.w3.org/2000/svg"
   xml:space="preserve"
   enable-background="new 0 0 82 82"
   viewBox="0 0 82 82"
   height="82px"
   width="82px"
   y="0px"
   x="0px"
   id="Calque_1"
   version="1.1"><metadata
     id="metadata13"><rdf:RDF><cc:Work
         rdf:about=""><dc:format>image/svg+xml</dc:format><dc:type
           rdf:resource="http://purl.org/dc/dcmitype/StillImage" /><dc:title></dc:title></cc:Work></rdf:RDF></metadata><defs
     id="defs11" /><g
     style="fill:#ffffff"
     id="g6"><path
       style="fill:#ffffff"
       id="path2"
       d="M41,0C18.4,0,0,18.4,0,41c0,22.6,18.4,41,41,41s41-18.4,41-41C82,18.4,63.6,0,41,0z M3,41   C3,22,16.9,6.3,35.1,3.4C26.8,8,20.8,22.6,20.8,41c0,18.4,6.1,33.1,14.4,37.6C16.9,75.7,3,60,3,41z M41,79c-0.2,0-0.4,0-0.6,0   c-9.9-0.2-18.6-16.5-18.6-38c0-21.2,8.5-37.3,18.2-38c0.4,0,0.7,0,1.1,0C62,3,79,20,79,41C79,62,62,79,41,79z"
       fill="#6B6B6B" /><ellipse
       style="fill:#ffffff"
       id="ellipse4"
       ry="8.5"
       rx="4.2"
       cy="39.7"
       cx="67.8"
       fill="#6B6B6B" /></g></svg>