<svg id="Calque_1" data-name="Calque 1" xmlns="http://www.w3.org/2000/svg" width="360" height="360" viewBox="0 0 360 360">
  <title>Sans titre - 1</title>
  <rect width="360" height="360" fill="#009673"/>
  <path d="M169.33,201.17a1.86,1.86,0,0,1-1.75,2.14,2.61,2.61,0,0,1-1.18-.29l-16.61-8.32a3.5,3.5,0,0,1-1.79-2.86V151.13a1.49,1.49,0,0,1,1.39-1.71,3.59,3.59,0,0,1,1.57.54l18.25,9.14a0.48,0.48,0,0,1,.11.18v41.9Zm21.36-7.36-19.07-9.5V162.88Zm1.32-2.18L178.08,169l11.57-18.82a2.16,2.16,0,0,1,1.86-1,2.08,2.08,0,0,1,.93.21L211.76,159a0.24,0.24,0,0,1,.14.21C211.91,159.38,193.44,189.35,192,191.63Zm20,9.54a1.8,1.8,0,0,1-1.86,2,3.38,3.38,0,0,1-1.68-.46l-15.75-7.86L212,163.52v37.65Z" fill="#fff"/>
</svg>
