<svg width="256" height="256" viewBox="0 0 256 256" fill="none" xmlns="http://www.w3.org/2000/svg">
<g clip-path="url(#clip0_762_432)">
<path d="M78.538 106.815C79.8012 104.824 80.6316 102.282 82.386 100.924C92.9825 92.6778 105.029 87.9576 118.538 89.1991C122.409 89.5505 127.614 92.2796 129.216 95.442C130.608 98.1711 127.801 103.067 126.784 106.991C126.655 107.506 125.953 107.858 125.743 108.373C124.936 110.411 124.211 112.496 123.462 114.557C126.678 115.108 130.433 116.97 132.994 115.916C137.345 114.124 140.76 110.2 144.912 107.729C149.544 104.976 154.269 107.096 153.743 111.547C153.462 113.948 151.871 116.619 150.023 118.177C149.345 118.751 146.257 116.478 143.567 115.155C135.848 118.54 132.772 128.613 138.48 135.547C139.193 136.413 141.368 136.765 142.585 136.402C151.626 133.696 160.117 130.065 164.643 120.871C164.982 120.179 165.24 119.254 165.825 118.903C167.766 117.72 169.825 116.759 171.848 115.705C171.684 117.954 171.789 120.273 171.287 122.44C170.421 126.141 168.48 129.702 168.234 133.403C167.813 139.681 171.883 142.024 177.181 138.393C182.573 134.703 187.38 130.112 192.292 125.755C195.263 123.131 197.953 120.191 200.866 117.286C201.614 118.341 202.058 118.68 202.012 118.915C199.906 129.737 185.123 144.39 174.316 146.322C166.386 147.74 162.69 142.762 159.977 136.074C155.029 138.159 150.456 141.239 145.567 141.883C137.123 143.008 131.497 147.611 125.263 152.835C104.491 170.24 74.0585 171.025 54.0117 151.546C61.1111 154.135 68.7018 157.801 76.7018 159.652C95.0877 163.915 111.076 157.824 125.111 146.053C126.409 144.964 127.088 141.251 126.234 139.822C123.462 135.137 123.287 130.709 125.614 126.012C127.591 122.018 125.649 119.535 121.977 119.606C116.269 119.723 110.561 120.777 104.912 121.749C102.281 122.206 99.8129 123.928 97.2047 124.127C95.2866 124.279 93.2398 122.885 91.2515 122.182C92.4328 120.636 93.2866 118.423 94.8538 117.673C97.9532 116.185 101.392 114.991 104.784 114.604C112.842 113.679 118.164 108.76 122.819 102.927C126.316 98.5342 124.702 95.2781 118.971 94.7861C106.398 93.7203 95.2866 97.6206 85.2398 105.011C83.6491 106.183 81.9415 107.19 80.2807 108.279C79.6959 107.799 79.1228 107.319 78.538 106.839V106.815Z" fill="white"/>
<path d="M191.346 89.328C187.088 95.9223 181.86 99.6821 175.147 101.193C174.316 101.38 171.767 98.7099 171.977 97.8549C172.772 94.587 186.106 88.4261 191.346 89.328Z" fill="white"/>
</g>
<defs>
<clipPath id="clip0_762_432">
<rect width="148" height="77" fill="white" transform="translate(54 89)"/>
</clipPath>
</defs>
</svg>
