<svg width="256" height="256" viewBox="0 0 256 256" fill="none" xmlns="http://www.w3.org/2000/svg">
<g clip-path="url(#clip0_762_435)">
<path d="M129.257 203C125.842 201.383 122.574 199.64 120.438 196.285C115.932 189.219 118.15 179.788 125.453 175.378C132.641 171.039 141.965 173.626 146.248 181.149C150.314 188.29 147.41 197.687 139.965 201.473C138.924 202.001 137.869 202.493 136.818 203H129.262H129.257ZM141.783 188.577C141.945 183.449 138.313 179.306 133.454 179.08C128.706 178.859 124.489 182.902 124.312 187.848C124.125 192.951 127.908 197.044 133.015 197.275C137.778 197.486 141.627 193.669 141.783 188.577Z" fill="white"/>
<path d="M29 203C30.5608 199.153 32.071 195.281 33.7025 191.464C36.1522 185.709 38.6828 179.989 41.1982 174.264C41.4205 173.751 41.7488 173.289 42.1731 172.556C42.6378 173.189 43.0519 173.576 43.259 174.058C47.1382 182.922 51.0073 191.791 54.8259 200.675C55.1289 201.373 55.0835 202.222 55.1996 203H48.6485C48.103 201.453 47.6736 199.856 46.9564 198.395C46.6685 197.812 45.7795 197.24 45.1077 197.164C37.9908 196.401 37.809 196.527 34.6874 202.799C34.6521 202.874 34.5915 202.935 34.541 203H29ZM39.4102 191.831H44.4309C43.5974 189.782 42.9105 188.079 41.9609 185.739C40.981 188.079 40.2688 189.782 39.4102 191.831Z" fill="white"/>
<path d="M150.926 203C151.057 202.352 151.082 201.659 151.34 201.066C155.33 191.886 159.346 182.721 163.361 173.555C163.457 173.334 163.639 173.149 163.887 172.807C164.266 173.149 164.766 173.385 164.932 173.766C168.918 182.856 172.883 191.956 176.812 201.066C177.065 201.649 177.029 202.347 177.125 202.995H170.574C170.286 202.217 169.913 201.458 169.736 200.655C169.12 197.882 167.493 197.305 164.644 196.928C159.437 196.24 157.674 198.962 156.472 202.995H150.931L150.926 203ZM166.185 191.881C165.382 189.847 164.695 188.099 163.74 185.664C162.755 188.145 162.068 189.872 161.27 191.881H166.19H166.185Z" fill="white"/>
<path d="M187.198 203C186.602 202.719 186.021 202.412 185.41 202.166C180.728 200.253 180.561 199.434 184.132 195.613C185.491 196.18 186.824 196.973 188.259 197.27C189.774 197.586 191.446 197.692 192.941 197.38C193.79 197.205 194.871 196.1 195.027 195.261C195.184 194.432 194.563 193.026 193.835 192.554C191.961 191.334 189.83 190.51 187.814 189.496C184.642 187.899 182.718 185.493 182.854 181.782C183.001 177.739 185.481 174.61 189.522 173.766C193.244 172.993 196.841 173.54 200.26 175.323C201.876 176.167 201.619 177.156 200.851 178.352C200.154 179.441 200.093 181.129 197.841 180.19C195.977 179.411 193.815 179.145 191.774 179.075C190.966 179.045 189.577 180.044 189.416 180.777C189.224 181.676 189.754 183.168 190.491 183.735C191.921 184.83 193.674 185.568 195.371 186.256C198.922 187.688 201.28 189.917 201.472 193.98C201.664 198.103 199.71 200.775 196.048 202.417C195.755 202.548 195.517 202.799 195.255 202.995H187.193L187.198 203Z" fill="white"/>
<path d="M68.8026 203C68.5349 202.814 68.2925 202.553 67.9945 202.448C58.7865 199.228 56.4731 189.536 59.4936 181.812C62.5545 173.987 73.1314 170.592 80.2482 175.152C80.7533 175.479 81.1877 176.559 81.0413 177.126C80.6877 178.467 79.9603 179.708 79.3239 181.134C78.7582 180.943 78.2733 180.863 77.8743 180.632C74.6366 178.733 71.3433 178.352 68.2066 180.672C64.878 183.133 64.0597 186.648 64.7972 190.51C65.9135 196.336 71.9898 199.148 77.5257 196.235C79.632 195.125 80.2432 195.798 80.9756 197.556C81.6777 199.233 82.7232 200.785 79.9957 201.639C79.0714 201.93 78.243 202.538 77.3742 203H68.8077H68.8026Z" fill="white"/>
<path d="M99.0314 203C97.5363 202.262 95.9453 201.669 94.5562 200.765C88.0202 196.496 86.1362 186.839 90.3841 179.798C94.1774 173.515 103.042 171.306 109.901 175.052C110.477 175.368 110.972 176.614 110.831 177.282C110.543 178.608 109.785 179.838 109.502 180.466C106.214 180.079 103.37 179.321 100.623 179.577C99.0668 179.723 97.3848 181.295 96.2635 182.645C93.7784 185.634 93.935 191.042 96.2635 194.141C98.9203 197.677 102.704 198.058 109.719 195.387C110.351 196.682 111.144 197.963 111.573 199.354C111.725 199.856 111.164 200.861 110.644 201.222C109.563 201.965 108.29 202.428 107.093 203.005H99.0314V203Z" fill="white"/>
<path d="M214.407 203C214.281 201.689 214.049 200.373 214.039 199.058C213.998 193.302 213.958 187.552 214.059 181.797C214.089 179.944 213.508 179.356 211.624 179.361C206.7 179.376 206.7 179.291 207.558 173.455H227V179.461H220.322C220.262 180.797 220.181 181.937 220.166 183.082C220.085 189.722 220.019 196.356 219.948 202.995H214.407V203Z" fill="white"/>
<path d="M81.2734 53H178.369C178.425 53.9341 178.511 54.7427 178.511 55.5562C178.516 85.7642 178.516 115.967 178.511 146.175C178.511 149.53 178.49 149.54 175.233 149.54C145.088 149.54 114.944 149.545 84.8041 149.545C81.2785 149.545 81.2734 149.535 81.2734 145.929C81.2734 115.972 81.2734 86.0203 81.2734 56.0635C81.2734 55.0892 81.2734 54.1149 81.2734 53ZM100.023 100.625C93.5727 102.915 88.85 110.116 88.5823 117.589C88.2893 125.745 93.0474 133.203 100.634 136.477C107.16 139.295 115.903 138.205 120.171 133.881C105.619 127.583 98.7096 116.63 100.018 100.625H100.023ZM159.65 100.193C160.979 116.665 154.023 127.638 139.087 134.072C146.149 138.667 152.988 139.34 160.054 136.005C167.469 132.51 171.757 125.002 171.076 116.585C170.49 109.338 166.676 104.095 159.645 100.193H159.65ZM149.432 82.3843C150.609 77.2467 146.659 69.7688 140.87 65.8917C134.233 61.4472 125.318 61.5376 118.626 66.1177C113.115 69.8893 109.256 77.3672 110.443 82.2638C123.449 72.993 136.481 73.0884 149.437 82.3893L149.432 82.3843ZM148.008 89.9677C150.291 86.0806 150.083 84.9506 146.886 82.5852C136.572 74.9566 122.646 75.0621 112.494 82.8413C109.792 84.9104 109.61 86.4974 111.867 89.7919C116.711 84.5689 122.687 81.7214 129.844 81.7264C137.011 81.7314 142.982 84.599 148.008 89.9626V89.9677ZM134.602 128.557C136.542 132.63 137.35 132.967 140.865 131.495C152.346 126.694 159.322 115.103 158.246 102.618C157.948 99.143 156.897 98.3847 152.801 98.9221C154.316 105.396 153.7 111.633 150.23 117.413C146.699 123.294 141.401 126.84 134.602 128.552V128.557ZM106.746 98.7061C102.76 98.7413 101.887 99.2485 101.563 101.549C99.8056 114.154 107.074 126.684 118.969 131.556C122.414 132.967 123.369 132.54 125.005 128.743C110.393 123.977 104.301 113.973 106.746 98.7111V98.7061ZM141.876 98.1687C138.991 93.7744 135.092 91.4944 130.087 91.3789C125.349 91.2684 121.469 93.2672 118.656 97.0689C118.383 97.4405 118.828 98.9572 119.252 99.1229C122.343 100.303 125.455 101.78 128.682 102.186C133.43 102.779 137.895 101.378 141.876 98.1738V98.1687ZM144.356 95.8134C147.492 92.9608 147.497 92.6143 144.603 89.8722C136.218 81.9273 123.055 82.0478 114.832 90.1434C112.312 92.6243 112.428 93.5283 115.529 95.6025C123.242 85.8094 136.597 85.9299 144.356 95.8134ZM147.023 105.23C146.906 113.21 141.633 119.95 133.844 121.823C132.567 122.129 131.516 122.3 132.152 124.033C132.663 125.424 133.006 126.97 135.021 126.016C137.87 124.66 141.042 123.656 143.416 121.702C150.099 116.198 152.508 108.991 150.75 100.444C150.331 98.4148 149.169 98.465 147.614 98.7162C145.836 99.0074 146.103 100.047 146.406 101.303C146.72 102.588 146.826 103.919 147.023 105.235V105.23ZM108.231 105.33C108.372 115.088 115.408 123.882 124.823 126.127C127.036 126.654 127.117 125.228 127.591 123.902C128.147 122.345 127.248 122.134 126.015 121.848C116.762 119.703 111.039 110.578 113.221 101.483C113.524 100.223 114.12 99.0426 112.1 98.7011C110.388 98.4098 109.115 98.4952 108.933 100.66C108.801 102.227 108.473 103.773 108.231 105.335V105.33ZM131.612 119.01C136.163 118.589 139.421 116.324 141.684 112.723C144.048 108.961 144.719 104.918 142.946 100.66C136.426 102.272 130.592 111.618 131.607 119.015L131.612 119.01ZM116.54 100.519C116.302 102.347 115.878 104.095 115.878 105.843C115.893 111.633 120.368 117.283 125.975 118.744C126.995 119.01 128.167 119.472 128.41 117.695C129.228 111.703 123.076 102.458 116.535 100.519H116.54Z" fill="white"/>
</g>
<defs>
<clipPath id="clip0_762_435">
<rect width="198" height="150" fill="white" transform="translate(29 53)"/>
</clipPath>
</defs>
</svg>
