<svg width="256" height="256" viewBox="0 0 256 256" fill="none" xmlns="http://www.w3.org/2000/svg">
<g clip-path="url(#clip0_762_430)">
<path d="M1 149.972C2.2483 145.311 3.43509 140.876 4.62444 136.441C8.12071 123.4 11.6272 110.364 15.0876 97.3152C15.3568 96.3037 15.7643 96 16.8127 96C77.3285 96.0283 137.847 96.0257 198.363 96.0257C198.742 96.0257 199.119 96.0257 199.724 96.0257C199.209 98.0255 198.739 99.8992 198.237 101.765C194.6 115.303 190.952 128.836 187.315 142.374C186.751 144.469 186.19 146.567 185.682 148.675C185.446 149.655 184.988 150.003 183.921 150C170.221 149.956 156.523 149.972 142.822 149.972C96.2197 149.972 49.6146 149.972 3.01215 149.972C2.42004 149.972 1.82793 149.972 1 149.972ZM159.368 141.128C159.155 138.799 158.955 136.65 158.766 134.501C157.979 125.542 157.187 116.582 156.423 107.621C156.354 106.815 156.041 106.491 155.236 106.506C153.66 106.537 152.078 106.573 150.504 106.491C149.435 106.434 148.8 106.846 148.205 107.711C140.892 118.363 133.543 128.99 126.21 139.628C125.93 140.034 125.679 140.459 125.3 141.056C125.923 141.095 126.328 141.139 126.733 141.141C128.781 141.149 130.829 141.077 132.872 141.172C133.964 141.223 134.568 140.814 135.122 139.921C136.376 137.89 137.701 135.901 139.077 133.95C139.367 133.538 139.99 133.137 140.472 133.124C143.199 133.047 145.929 133.106 148.659 133.075C149.471 133.065 149.781 133.345 149.815 134.171C149.897 136.174 150.038 138.174 150.215 140.168C150.245 140.503 150.571 141.087 150.771 141.09C153.567 141.151 156.369 141.131 159.368 141.131V141.128ZM18.2686 141.144C21.142 141.144 23.654 141.11 26.1634 141.162C26.9811 141.18 27.4938 140.935 27.9372 140.235C29.2855 138.112 30.6671 136.004 32.1256 133.955C32.4332 133.523 33.1201 133.137 33.643 133.119C36.2857 133.034 38.931 133.114 41.5763 133.062C42.5708 133.044 42.9245 133.386 42.9399 134.385C42.9681 136.259 43.1552 138.132 43.2014 140.006C43.2219 140.891 43.55 141.193 44.4292 141.159C45.962 141.1 47.5 141.144 49.0353 141.144C50.1196 141.144 51.2064 141.144 52.4316 141.144C52.1241 137.847 51.8293 134.794 51.5601 131.742C50.8527 123.719 50.1478 115.694 49.4737 107.667C49.3993 106.784 49.0251 106.488 48.1843 106.504C46.6079 106.537 45.0264 106.558 43.45 106.493C42.4862 106.455 41.9069 106.807 41.3584 107.608C34.289 117.908 27.1811 128.185 20.0834 138.467C19.5349 139.262 18.9992 140.065 18.2661 141.144H18.2686ZM87.4636 114.68C88.1326 112.735 88.6888 110.912 89.3937 109.149C89.8346 108.05 89.4655 107.669 88.4453 107.343C84.5389 106.087 80.5762 105.968 76.58 106.673C65.5709 108.617 57.3915 117.01 56.9635 128.473C56.7251 134.866 60.1317 139.955 65.9349 141.239C71.1101 142.384 76.1827 141.599 81.035 139.476C81.3067 139.358 81.686 139.025 81.6809 138.802C81.6322 136.951 81.5015 135.106 81.4041 133.389C78.9562 133.865 76.7364 134.447 74.4782 134.707C69.9053 135.234 66.4911 132.184 66.327 127.598C66.3065 127.045 66.3065 126.489 66.3296 125.933C66.609 118.948 72.6762 113.064 79.6534 112.899C82.3474 112.835 84.885 113.311 87.461 114.68H87.4636ZM99.8774 113.406C96.781 122.765 93.7769 131.845 90.701 141.144C93.131 141.144 95.3405 141.072 97.5423 141.172C98.7676 141.229 99.3135 140.84 99.698 139.648C102.412 131.289 105.219 122.963 107.957 114.611C108.241 113.741 108.628 113.406 109.567 113.435C111.868 113.507 114.173 113.473 116.474 113.442C116.864 113.437 117.474 113.347 117.607 113.097C118.705 111.046 119.712 108.949 120.75 106.864C120.486 106.743 120.412 106.679 120.335 106.679C111.122 106.666 101.91 106.65 92.6978 106.671C92.403 106.671 91.9339 106.941 91.8416 107.191C91.1265 109.185 90.4831 111.203 89.7526 113.406H99.8749H99.8774ZM112.85 141.144C115.403 141.144 117.7 141.082 119.989 141.172C121.047 141.213 121.455 140.825 121.773 139.854C125.251 129.284 128.781 118.729 132.292 108.169C132.436 107.736 132.541 107.288 132.72 106.648C130.301 106.648 128.05 106.712 125.807 106.619C124.687 106.573 124.187 106.91 123.828 108.012C120.622 117.815 117.343 127.593 114.088 137.378C113.701 138.544 113.319 139.713 112.85 141.144ZM178.99 112.264C178.995 109.147 177.362 106.787 174.522 106.053C171.533 105.281 168.819 105.958 166.699 108.225C164.533 110.542 163.851 113.334 164.823 116.397C165.43 118.312 166.819 119.542 168.747 120.096C173.843 121.557 178.985 117.614 178.992 112.266L178.99 112.264Z" fill="white"/>
<path d="M197.76 112.544C198.636 109.239 199.452 106.156 200.272 103.075C200.81 101.057 201.318 99.0319 201.933 97.0373C202.056 96.6384 202.604 96.0927 202.963 96.0876C207.954 96.0284 212.944 96.049 217.933 96.0567C218.091 96.0567 218.25 96.1313 218.535 96.2008C218.445 96.6435 218.386 97.0502 218.281 97.4439C217.079 101.969 215.838 106.483 214.68 111.018C214.393 112.138 213.962 112.603 212.704 112.578C208.228 112.485 203.748 112.542 199.27 112.542C198.849 112.542 198.426 112.542 197.76 112.542V112.544Z" fill="white"/>
<path d="M216.461 112.547C217.163 109.862 217.812 107.361 218.476 104.864C219.163 102.275 219.867 99.6882 220.56 97.099C220.718 96.4993 220.875 96.0258 221.703 96.0309C226.645 96.0695 231.587 96.0489 236.529 96.0567C236.729 96.0567 236.928 96.1313 237.282 96.2034C236.982 97.4027 236.711 98.5429 236.408 99.6779C235.401 103.456 234.329 107.219 233.401 111.018C233.096 112.264 232.533 112.598 231.305 112.578C226.832 112.506 222.359 112.549 217.886 112.549C217.473 112.549 217.061 112.549 216.461 112.549V112.547Z" fill="white"/>
<path d="M232.303 114.878C231.352 118.469 230.431 121.954 229.506 125.439C229.08 127.039 228.688 128.653 228.176 130.228C228.042 130.635 227.509 131.196 227.155 131.201C222.088 131.255 217.018 131.224 211.95 131.212C211.873 131.212 211.796 131.15 211.568 131.049C211.627 130.735 211.668 130.378 211.761 130.035C213.024 125.31 214.303 120.587 215.549 115.857C215.731 115.164 215.941 114.729 216.79 114.737C221.773 114.77 226.758 114.758 231.741 114.763C231.862 114.763 231.985 114.812 232.305 114.884L232.303 114.878Z" fill="white"/>
<path d="M251.046 114.75C250.443 116.997 249.89 119.04 249.344 121.084C248.547 124.085 247.76 127.088 246.957 130.087C246.796 130.692 246.691 131.273 245.768 131.266C240.826 131.219 235.882 131.242 230.937 131.235C230.74 131.235 230.542 131.155 230.176 131.075C230.627 129.382 231.055 127.752 231.491 126.123C232.414 122.672 233.318 119.213 234.297 115.777C234.413 115.37 234.954 114.796 235.302 114.791C240.452 114.727 245.604 114.747 251.043 114.747L251.046 114.75Z" fill="white"/>
<path d="M227.292 133.651C226.421 136.884 225.57 140.029 224.721 143.177C224.201 145.107 223.729 147.05 223.137 148.96C223.014 149.359 222.461 149.902 222.099 149.905C217.029 149.959 211.959 149.933 206.886 149.92C206.809 149.92 206.732 149.861 206.486 149.758C206.963 147.951 207.445 146.119 207.932 144.289C208.796 141.038 209.665 137.79 210.531 134.542C210.688 133.958 210.8 133.43 211.644 133.438C216.673 133.474 221.699 133.461 226.728 133.471C226.846 133.471 226.964 133.546 227.29 133.657L227.292 133.651Z" fill="white"/>
<path d="M246.032 133.451C245.204 136.555 244.443 139.419 243.676 142.281C243.081 144.5 242.512 146.726 241.859 148.927C241.743 149.321 241.277 149.897 240.967 149.9C235.771 149.959 230.575 149.943 225.18 149.943C225.3 149.385 225.374 148.947 225.49 148.52C226.72 143.913 227.989 139.316 229.168 134.696C229.417 133.724 229.824 133.417 230.814 133.428C235.417 133.477 240.023 133.451 244.63 133.451C245.035 133.451 245.44 133.451 246.034 133.451H246.032Z" fill="white"/>
<path d="M256.001 96.211C255.375 98.566 254.776 100.854 254.16 103.14C253.412 105.932 252.681 108.73 251.866 111.504C251.746 111.911 251.218 112.493 250.872 112.498C245.722 112.562 240.57 112.542 235.254 112.542C235.336 112.037 235.369 111.633 235.472 111.247C236.715 106.56 237.968 101.876 239.222 97.1916C239.388 96.5714 239.506 96.0154 240.419 96.0232C245.361 96.0695 250.305 96.0463 255.25 96.054C255.447 96.054 255.645 96.1338 255.998 96.211H256.001Z" fill="white"/>
<path d="M213.634 114.747C213.003 117.13 212.429 119.305 211.85 121.475C211.081 124.355 210.302 127.235 209.533 130.115C209.364 130.753 209.22 131.276 208.32 131.266C203.417 131.222 198.511 131.245 193.605 131.24C193.4 131.24 193.195 131.181 192.902 131.137C192.941 130.807 192.941 130.519 193.013 130.249C194.256 125.552 195.535 120.865 196.737 116.158C197.019 115.051 197.524 114.701 198.672 114.716C203.571 114.786 208.469 114.745 213.634 114.745V114.747Z" fill="white"/>
<path d="M187.807 149.774C188.13 148.497 188.437 147.223 188.776 145.959C189.778 142.214 190.818 138.482 191.777 134.725C192.016 133.79 192.374 133.412 193.4 133.425C198.003 133.482 202.607 133.448 207.213 133.453C207.587 133.453 207.961 133.492 208.574 133.525C208.097 135.384 207.662 137.136 207.193 138.881C206.298 142.212 205.373 145.535 204.491 148.868C204.324 149.498 204.17 149.964 203.363 149.959C198.334 149.933 193.302 149.941 188.273 149.931C188.158 149.931 188.04 149.853 187.807 149.774Z" fill="white"/>
<path d="M149.241 126.314H144.207C145.842 123.598 147.426 120.976 149.008 118.35C149.085 118.356 149.164 118.363 149.241 118.368V126.314Z" fill="white"/>
<path d="M42.3257 118.361V126.386C41.508 126.386 40.6724 126.386 39.8394 126.386C39.0063 126.386 38.2476 126.386 37.1992 126.386C38.914 123.565 40.5084 120.94 42.1053 118.312C42.1796 118.327 42.2514 118.343 42.3257 118.361Z" fill="white"/>
<path d="M172.305 107.538C175.091 107.543 176.959 109.468 176.962 112.338C176.965 115.766 174.281 118.659 171.069 118.685C168.285 118.708 166.355 116.68 166.373 113.751C166.396 110.22 168.965 107.53 172.307 107.538H172.305ZM170.708 114.083L171.036 113.988C171.4 114.675 171.777 115.352 172.125 116.047C172.761 117.321 173.091 117.447 174.619 116.865C174.037 115.692 173.461 114.526 172.886 113.363C173.143 113.172 173.355 113.028 173.553 112.866C174.34 112.217 174.74 111.414 174.47 110.385C174.186 109.299 173.33 108.961 172.343 108.864C171.751 108.804 171.149 108.851 170.554 108.817C169.757 108.771 169.418 109.116 169.344 109.921C169.157 111.962 168.867 113.993 168.708 116.034C168.68 116.394 169.006 117.012 169.306 117.12C169.977 117.36 170.428 116.981 170.485 116.214C170.538 115.501 170.633 114.794 170.71 114.083H170.708Z" fill="white"/>
<path d="M171.48 110.184C171.844 110.511 172.484 110.812 172.518 111.17C172.605 112.076 171.964 112.382 170.982 112.246C171.026 111.63 171.07 111.031 171.111 110.428C171.234 110.346 171.357 110.266 171.48 110.184Z" fill="white"/>
</g>
<defs>
<clipPath id="clip0_762_430">
<rect width="255" height="54" fill="white" transform="translate(1 96)"/>
</clipPath>
</defs>
</svg>
