<svg width="96" height="96" viewBox="0 0 96 96" fill="none" xmlns="http://www.w3.org/2000/svg">
<path d="M30.792 53.1714C30.792 49.4786 30.792 45.8406 30.792 42.1478C30.983 42.1203 31.1673 42.0723 31.3447 42.0723C33.7947 42.0654 36.2516 42.0654 38.7016 42.0723C40.1825 42.0723 41.5133 42.5253 42.7553 43.3627C45.451 45.1748 45.5056 49.4923 43.0419 51.5858C41.7589 52.6772 40.2644 53.1988 38.6197 53.2332C36.1151 53.2812 33.6037 53.2469 31.0991 53.24C31.024 53.24 30.9489 53.2057 30.792 53.1714ZM33.1805 51.1946C33.2897 51.2289 33.3648 51.2769 33.4399 51.2769C34.989 51.2838 36.5382 51.3318 38.0874 51.2632C38.8585 51.2289 39.657 51.0641 40.3736 50.7827C42.0797 50.1169 42.8713 48.3391 42.3254 46.6368C41.875 45.2091 40.4759 44.1452 38.7766 44.0903C36.9613 44.0285 35.1323 44.0766 33.317 44.0834C33.2761 44.0834 33.2283 44.1452 33.1805 44.1795C33.1805 46.5064 33.1805 48.8471 33.1805 51.1946Z" fill="white"/>
<path d="M48.7541 44.097C48.7541 47.1309 48.7541 50.1374 48.7541 53.1919C47.9693 53.1919 47.2459 53.1919 46.4747 53.1919C46.4747 49.499 46.4747 45.8268 46.4747 42.1202C46.6112 42.1065 46.7135 42.079 46.8159 42.079C49.7027 42.079 52.5894 42.0722 55.4762 42.0859C56.691 42.0928 57.8443 42.3604 58.8885 43.0194C61.2975 44.5295 61.2293 47.7899 58.7451 49.197C58.2538 49.4784 57.7078 49.6706 57.1277 49.9315C57.7419 50.4669 58.363 51.0022 58.9908 51.5376C59.5982 52.0593 60.2124 52.5741 60.8198 53.0958C60.7925 53.1507 60.772 53.1987 60.7447 53.2536C59.7483 53.2536 58.752 53.2674 57.7556 53.2399C57.5645 53.233 57.3461 53.0958 57.1823 52.9585C55.4011 51.4759 53.6336 49.9795 51.8592 48.4832C51.7978 48.4351 51.7569 48.3665 51.634 48.2155C51.866 48.2017 52.0367 48.1949 52.2004 48.1811C53.6609 48.0782 55.1282 48.037 56.575 47.8379C57.9126 47.6526 58.5063 46.472 57.9944 45.2777C57.7556 44.7217 57.2984 44.4402 56.766 44.2824C56.3566 44.1588 55.913 44.0833 55.483 44.0765C53.4016 44.0421 51.3064 44.049 49.2045 44.0559C49.0748 44.0559 48.9452 44.0765 48.7541 44.097Z" fill="white"/>
<path d="M29.9458 53.2401C29.0586 53.2401 28.3215 53.2195 27.5913 53.247C27.1341 53.2607 26.8543 53.0891 26.5881 52.7047C25.0117 50.4465 23.4011 48.2088 21.8041 45.9643C21.5994 45.676 21.3878 45.3877 21.1353 45.0308C20.5894 45.779 20.0571 46.4928 19.5384 47.2204C18.2486 49.0188 16.9587 50.8103 15.6962 52.6224C15.4027 53.0479 15.0888 53.2607 14.5565 53.2264C13.8468 53.1852 13.1507 53.2195 12.3249 53.2195C12.475 52.9381 12.5433 52.7734 12.6388 52.6292C14.8363 49.5061 17.0406 46.383 19.2449 43.2667C19.3541 43.1088 19.477 42.9578 19.6066 42.8274C20.6917 41.7017 21.8997 41.6949 22.9097 43.0471C24.0016 44.5091 25.0048 46.0466 26.0422 47.5499C27.175 49.1904 28.3079 50.824 29.4408 52.4645C29.5909 52.6704 29.7274 52.9038 29.9458 53.2401Z" fill="white"/>
<path d="M83.6751 53.24C82.706 53.24 81.9007 53.24 81.0886 53.24C80.7064 53.24 80.5222 52.9517 80.3311 52.684C79.0071 50.8101 77.69 48.9362 76.366 47.0692C75.8951 46.4103 75.4243 45.7513 74.8988 45.01C74.1481 46.0602 73.4315 47.0555 72.7217 48.0508C71.6094 49.602 70.497 51.1533 69.3982 52.7183C69.1594 53.0615 68.9 53.2468 68.4564 53.2331C67.6989 53.1988 66.9346 53.2262 66.0815 53.2262C66.2043 53.0135 66.2726 52.8556 66.3681 52.7114C68.552 49.6089 70.7358 46.5132 72.9333 43.4176C73.1244 43.1499 73.3291 42.8959 73.568 42.6694C74.5098 41.7702 75.5403 41.7633 76.4206 42.7312C77.0212 43.397 77.5125 44.1589 78.0244 44.9002C79.8056 47.4811 81.58 50.0688 83.3543 52.6565C83.4294 52.787 83.4976 52.9311 83.6751 53.24Z" fill="white"/>
<path d="M65.1739 42.0583C65.1739 45.7992 65.1739 49.4783 65.1739 53.1986C64.4095 53.1986 63.6793 53.1986 62.9491 53.1986C62.7785 52.6495 62.7375 42.9987 62.9149 42.0583C63.652 42.0583 64.3959 42.0583 65.1739 42.0583Z" fill="white"/>
</svg>
