<svg width="46" height="8" viewBox="0 0 46 8" fill="none" xmlns="http://www.w3.org/2000/svg">
<path d="M11.9058 7.20228C11.9058 4.82148 11.9058 2.47608 11.9058 0.0952767C12.029 0.0775756 12.1478 0.0465986 12.2622 0.0465986C13.8418 0.0421733 15.4257 0.0421733 17.0052 0.0465986C17.96 0.0465986 18.8179 0.338667 19.6187 0.878551C21.3566 2.04683 21.3918 4.83033 19.8035 6.18004C18.9763 6.88366 18.0128 7.21998 16.9524 7.2421C15.3377 7.27308 13.7186 7.25095 12.1038 7.24653C12.0554 7.24653 12.007 7.2244 11.9058 7.20228ZM13.4458 5.9278C13.5162 5.94992 13.5646 5.9809 13.613 5.9809C14.6117 5.98533 15.6105 6.0163 16.6092 5.97205C17.1064 5.94992 17.6212 5.84372 18.0832 5.66228C19.1831 5.23303 19.6935 4.08688 19.3415 2.98941C19.0511 2.06895 18.1492 1.38303 17.0536 1.34763C15.8833 1.3078 14.7041 1.33878 13.5338 1.34321C13.5074 1.34321 13.4766 1.38303 13.4458 1.40516C13.4458 2.90533 13.4458 4.41435 13.4458 5.9278Z" fill="white"/>
<path d="M23.4862 1.35198C23.4862 3.30795 23.4862 5.24623 23.4862 7.21548C22.9802 7.21548 22.5138 7.21548 22.0166 7.21548C22.0166 4.83468 22.0166 2.46715 22.0166 0.0774989C22.1046 0.0686484 22.1706 0.0509472 22.2366 0.0509472C24.0977 0.0509472 25.9588 0.046522 27.82 0.0553725C28.6031 0.0597978 29.3467 0.232384 30.0199 0.657211C31.573 1.63077 31.529 3.73278 29.9275 4.63996C29.6107 4.8214 29.2587 4.94531 28.8847 5.11347C29.2807 5.45864 29.6811 5.80381 30.0859 6.14898C30.4774 6.4853 30.8734 6.8172 31.265 7.15352C31.2474 7.18892 31.2342 7.2199 31.2166 7.2553C30.5742 7.2553 29.9319 7.26415 29.2895 7.24645C29.1663 7.24203 29.0255 7.15352 28.9199 7.06502C27.7716 6.10916 26.632 5.14444 25.4881 4.17973C25.4485 4.14876 25.4221 4.1045 25.3429 4.00715C25.4925 3.9983 25.6025 3.99387 25.7081 3.98502C26.6496 3.91864 27.5956 3.89209 28.5283 3.76376C29.3907 3.64428 29.7735 2.88313 29.4435 2.11313C29.2895 1.75468 28.9947 1.57324 28.6515 1.47146C28.3875 1.39181 28.1016 1.34313 27.8244 1.3387C26.4824 1.31658 25.1317 1.321 23.7765 1.32543C23.6929 1.32543 23.6093 1.3387 23.4862 1.35198Z" fill="white"/>
<path d="M11.3603 7.2466C10.7883 7.2466 10.3132 7.23332 9.84237 7.25102C9.54758 7.25987 9.36719 7.14924 9.1956 6.90143C8.17924 5.44551 7.14089 4.00287 6.11133 2.5558C5.97934 2.36994 5.84295 2.18408 5.68015 1.95396C5.32817 2.43632 4.98498 2.89655 4.6506 3.36563C3.81903 4.52505 2.98747 5.68005 2.17351 6.84832C1.98431 7.12269 1.78192 7.25987 1.43874 7.23775C0.981157 7.2112 0.532377 7.23332 0 7.23332C0.0967958 7.05189 0.140794 6.94568 0.202391 6.85275C1.61913 4.83924 3.04027 2.82574 4.46141 0.816664C4.5318 0.714883 4.611 0.617526 4.6946 0.533446C5.39417 -0.1923 6.17293 -0.196725 6.8241 0.675055C7.52807 1.61764 8.17484 2.6089 8.84361 3.57804C9.57398 4.63568 10.3044 5.6889 11.0347 6.74654C11.1315 6.8793 11.2195 7.02976 11.3603 7.2466Z" fill="white"/>
<path d="M46 7.24649C45.3752 7.24649 44.856 7.24649 44.3325 7.24649C44.0861 7.24649 43.9673 7.06063 43.8441 6.88805C42.9905 5.67995 42.1413 4.47184 41.2878 3.26817C40.9842 2.84334 40.6806 2.41851 40.3418 1.94058C39.8579 2.61765 39.3959 3.25932 38.9383 3.90098C38.2211 4.9011 37.5039 5.90121 36.7956 6.91017C36.6416 7.13144 36.4744 7.25092 36.1884 7.24207C35.7 7.21994 35.2072 7.23764 34.6573 7.23764C34.7365 7.10046 34.7805 6.99868 34.8421 6.90575C36.25 4.90552 37.6579 2.90972 39.0747 0.913918C39.1979 0.741332 39.3299 0.577597 39.4839 0.431562C40.091 -0.148149 40.7554 -0.152575 41.323 0.47139C41.7102 0.900642 42.027 1.39185 42.3569 1.86978C43.5053 3.53368 44.6492 5.20201 45.7932 6.87035C45.8416 6.95443 45.8856 7.04736 46 7.24649Z" fill="white"/>
<path d="M34.0721 0.0375843C34.0721 2.44936 34.0721 4.82131 34.0721 7.21982C33.5793 7.21982 33.1086 7.21982 32.6378 7.21982C32.5278 6.86579 32.5014 0.643848 32.6158 0.0375843C33.091 0.0375843 33.5705 0.0375843 34.0721 0.0375843Z" fill="white"/>
</svg>
