<?xml version="1.0" encoding="UTF-8" standalone="no"?>
<svg
   xmlns:dc="http://purl.org/dc/elements/1.1/"
   xmlns:cc="http://creativecommons.org/ns#"
   xmlns:rdf="http://www.w3.org/1999/02/22-rdf-syntax-ns#"
   xmlns:svg="http://www.w3.org/2000/svg"
   xmlns="http://www.w3.org/2000/svg"
   id="svg5782"
   version="1.1"
   viewBox="0 0 25.399999 25.400001"
   height="96"
   width="96">
  <defs
     id="defs5776">
    <clipPath
       id="clipPath20-8"
       clipPathUnits="userSpaceOnUse">
      <path
         id="path18-0-9"
         d="m 541.781,371.848 v 0 h 0.043 z" />
    </clipPath>
  </defs>
  <metadata
     id="metadata5779">
    <rdf:RDF>
      <cc:Work
         rdf:about="">
        <dc:format>image/svg+xml</dc:format>
        <dc:type
           rdf:resource="http://purl.org/dc/dcmitype/StillImage" />
        <dc:title></dc:title>
      </cc:Work>
    </rdf:RDF>
  </metadata>
  <g
     transform="translate(0,-271.59998)"
     id="layer1">
    <rect
       y="271.59998"
       x="-2.220446e-16"
       height="25.4"
       width="25.4"
       id="rect6729"
       style="opacity:1;vector-effect:none;fill:none;fill-opacity:1;stroke:none;stroke-width:0.52916676;stroke-linecap:butt;stroke-linejoin:miter;stroke-miterlimit:4;stroke-dasharray:1.05833345, 2.11666688;stroke-dashoffset:0;stroke-opacity:1;paint-order:stroke markers fill" />
    <path
       id="path11552"
       d="m 5.1083512,287.60757 c -0.4736,-0.11529 -0.97522,-0.4032 -1.09613,-0.62913 -0.1392901,-0.26026 -0.1392901,-1.21699 0,-1.47725 0.1585099,-0.29619 0.5707799,-0.47493 1.67759,-0.72732 1.37792,-0.31421 1.35529,-0.3054 1.35529,-0.52752 0,-0.4553 -1.1298,-0.6641 -2.13652,-0.39485 -0.55841,0.14936 -0.82404,0.002 -0.7739,-0.42934 0.0722,-0.62153 2.10877,-0.84482 3.0921,-0.33903 0.74327,0.38232 0.7695,0.4727 0.73689,2.53956 l -0.0287,1.81976 -0.52344,0.12146 c -0.58748,0.13632 -1.82613,0.1598 -2.30317,0.0437 z m 1.80589,-0.91029 c 0.21043,-0.0564 0.23555,-0.12882 0.23555,-0.67906 0,-0.33875 -0.0257,-0.61592 -0.057,-0.61592 -0.0314,0 -0.5330601,0.11778 -1.11484,0.26172 -0.58178,0.14395 -1.07432,0.26173 -1.0945301,0.26173 -0.13372,0 -0.005,0.63616 0.14645,0.72444 0.1994901,0.11619 1.50484,0.1488 1.88441,0.0471 z m 3.1421598,0.90394 c -0.4984801,-0.15009 -0.9931701,-0.51515 -1.1230901,-0.82879 -0.0826,-0.19949 -0.11367,-0.76934 -0.0908,-1.66755 0.0343,-1.35049 0.0379,-1.36783 0.34585,-1.68896 0.6307,-0.65768 2.0362701,-0.80216 3.0464201,-0.31315 0.60747,0.29407 0.77765,0.63416 0.77765,1.55403 0,1.05262 -0.0117,1.05957 -1.7872,1.05957 H 9.7670609 v 0.35448 c 0,0.30025 0.0545,0.38034 0.3560601,0.52345 0.42417,0.20128 1.23611,0.21832 1.90305,0.04 0.44236,-0.11832 0.49493,-0.11187 0.63359,0.0778 0.26911,0.36805 0.13885,0.61072 -0.4325,0.80569 -0.54951,0.18752 -1.68092,0.23106 -2.17083,0.0835 z m 2.0138,-3.18154 c 0,-0.30478 -0.0534,-0.37983 -0.38086,-0.53522 -0.26738,-0.12688 -0.54763,-0.16689 -0.94058,-0.13431 -0.65622,0.0544 -0.9817301,0.2952 -0.9817301,0.72617 v 0.29784 h 1.1515801 1.15159 z m 6.368679,3.12696 c -0.283719,-0.0909 -0.601871,-0.29121 -0.758999,-0.47794 -0.26311,-0.3127 -0.27052,-0.36223 -0.27052,-1.80818 0,-1.6845 0.0414,-1.80287 0.765914,-2.18715 0.624123,-0.33106 1.926932,-0.33106 2.551056,0 0.65964,0.34989 0.765915,0.56556 0.765915,1.55423 0,0.57846 -0.04446,0.89065 -0.137879,0.96818 -0.08103,0.0673 -0.739332,0.12649 -1.596514,0.14368 l -1.458634,0.0293 -0.03288,0.28536 c -0.0688,0.59706 1.046142,0.89202 2.237706,0.59198 0.363836,-0.0916 0.500844,-0.0879 0.627444,0.0172 0.259106,0.21504 0.145226,0.65205 -0.215034,0.82517 -0.450152,0.21633 -1.879036,0.24989 -2.477575,0.0582 z m 2.111162,-3.13621 c 0,-0.29689 -0.05675,-0.39307 -0.30887,-0.52345 -0.439083,-0.22705 -1.240648,-0.20354 -1.654057,0.0485 -0.262746,0.1602 -0.340241,0.27934 -0.340241,0.52306 v 0.31561 h 1.151584 1.151584 z m -6.071991,1.25359 v -1.93675 l -0.34024,-10e-4 c -0.41154,-0.002 -0.55167,-0.0846 -0.64375,-0.37995 -0.0968,-0.31047 0.18211,-0.56065 0.62506,-0.56065 0.3565,0 0.35893,-0.003 0.35893,-0.47915 0,-0.61328 0.36442,-1.00477 1.15337,-1.23906 0.70448,-0.2092 0.98675,-0.20961 1.19467,-10e-4 0.35033,0.35033 0.14221,0.66509 -0.52177,0.78913 -0.66158,0.12359 -0.98875,0.34578 -0.98875,0.67146 0,0.24906 0.0266,0.25931 0.673,0.25931 0.68184,0 1.00203,0.15053 1.00203,0.4711 0,0.32056 -0.32019,0.4711 -1.00203,0.4711 h -0.673 v 1.93676 1.93675 h -0.41876 -0.41876 z"
       style="fill:#707374;fill-opacity:1;stroke-width:0.10468943" />
  </g>
</svg>
