<?xml version="1.0" encoding="UTF-8" standalone="no"?>
<svg
   xmlns:dc="http://purl.org/dc/elements/1.1/"
   xmlns:cc="http://creativecommons.org/ns#"
   xmlns:rdf="http://www.w3.org/1999/02/22-rdf-syntax-ns#"
   xmlns:svg="http://www.w3.org/2000/svg"
   xmlns="http://www.w3.org/2000/svg"
   id="svg5782"
   version="1.1"
   viewBox="0 0 25.399999 25.400001"
   height="96"
   width="96">
  <defs
     id="defs5776">
    <clipPath
       id="clipPath20-8"
       clipPathUnits="userSpaceOnUse">
      <path
         id="path18-0-9"
         d="m 541.781,371.848 v 0 h 0.043 z" />
    </clipPath>
  </defs>
  <metadata
     id="metadata5779">
    <rdf:RDF>
      <cc:Work
         rdf:about="">
        <dc:format>image/svg+xml</dc:format>
        <dc:type
           rdf:resource="http://purl.org/dc/dcmitype/StillImage" />
        <dc:title></dc:title>
      </cc:Work>
    </rdf:RDF>
  </metadata>
  <g
     transform="translate(0,-271.59998)"
     id="layer1">
    <rect
       y="271.59998"
       x="0"
       height="25.4"
       width="25.4"
       id="rect6729"
       style="opacity:1;vector-effect:none;fill:none;fill-opacity:1;stroke:none;stroke-width:0.52916676;stroke-linecap:butt;stroke-linejoin:miter;stroke-miterlimit:4;stroke-dasharray:1.05833345, 2.11666688;stroke-dashoffset:0;stroke-opacity:1;paint-order:stroke markers fill" />
    <g
       transform="translate(-0.34438976,-0.46445584)"
       id="g5767">
      <path
         d="m 2.3161708,282.17956 c 0,0 -0.5919613,0.0655 -0.1620749,0.4058 0.558689,0.44234 0.8616099,0.70627 1.8222201,1.41479 1.1163574,0.82344 2.3186511,2.29089 3.575038,1.27965 0.4882659,-0.39314 2.964297,-2.86897 4.524217,-2.53298 0.972858,0.20943 1.890194,0.48051 2.249453,0.32844 0.01939,-0.18392 -0.114106,-0.44499 -1.295783,-0.87549 -1.198619,-0.43683 -2.826309,-1.4154 -4.0780007,-0.79466 -1.6999494,0.84344 -2.521551,2.50788 -4.5117656,1.53053 -1.9238742,-0.94469 -2.1233039,-0.75608 -2.1233039,-0.75608"
         style="fill:#707374;fill-opacity:1;fill-rule:nonzero;stroke:none;stroke-width:0.20412458"
         id="path956" />
      <path
         d="m 4.0119153,283.32615 c 0,0 -0.7832261,0.0867 -0.2145349,0.53705 0.7393393,0.58523 1.14024,0.93448 2.4111195,1.87203 1.4770454,1.08941 3.0677884,3.03125 4.7303831,1.69301 0.646054,-0.52011 3.922254,-3.7959 5.986157,-3.35153 1.287414,0.27721 2.501343,0.63585 2.976341,0.43479 0.02592,-0.24352 -0.150848,-0.5889 -1.714442,-1.15881 -1.585844,-0.57768 -3.739563,-1.87264 -5.395625,-1.05104 -2.249453,1.11574 -3.3366208,3.31825 -5.9698279,2.02512 -2.5458418,-1.25027 -2.8095708,-1.00062 -2.8095708,-1.00062"
         style="fill:#707374;fill-opacity:1;fill-rule:nonzero;stroke:none;stroke-width:0.20412458"
         id="path1028" />
      <g
         style="fill:#707374;fill-opacity:1;stroke:none"
         transform="matrix(0.02041246,0,0,-0.02041246,15.846285,384.84602)"
         id="g6147">
        <path
           d="m 149.44587,4733.6435 h -8.92 v 86.56 h 8.92 z m 0,101.57 h -8.92 v 11.99 h 8.92 z"
           style="fill:#707374;fill-opacity:1;fill-rule:nonzero;stroke:none;stroke-width:9.99999905"
           id="path966" />
        <path
           d="m 142.88587,4837.5635 h 4.21 v 7.29 h -4.21 z m 8.91,-4.7 h -13.62 v 16.69 h 13.62 z m -8.91,-96.87 h 4.21 v 81.86 h -4.21 z m 8.91,-4.7 h -13.62 v 91.26 h 13.62 z"
           style="fill:#707374;fill-opacity:1;fill-rule:nonzero;stroke:none;stroke-width:9.99999905"
           id="path968" />
        <path
           id="path976"
           style="fill:#707374;fill-opacity:1;fill-rule:nonzero;stroke:none;stroke-width:9.99999905"
           d="m 238.20486,4823.0555 -1.86,-8.92 c -0.82,0.09 -2.06,0.13 -3.71,0.13 -13.46,0 -23.53,-4.63 -30.22,-13.87 v -66.75 h -9.04 v 86.56 h 7.18 l 1.86,-8.79 c 8.34,7.93 18.74,11.89 31.21,11.89 1.07,0 2.6,-0.09 4.58,-0.25" />
        <path
           id="path980"
           style="fill:#707374;fill-opacity:1;fill-rule:nonzero;stroke:none;stroke-width:9.99999905"
           d="m 195.72786,4735.9965 h 4.34 v 65.16 l 0.44,0.61 c 7.13,9.85 17.94,14.85 32.13,14.85 0.67,0 1.28,-0.01 1.82,-0.02 l 0.9,4.3 c -0.68,0.04 -1.25,0.05 -1.74,0.05 -11.78,0 -21.74,-3.78 -29.58,-11.24 l -3.05,-2.9 -2.33,11.05 h -2.93 z m 9.04,-4.7 h -13.74 v 91.26 h 11.44 l 1.42,-6.74 c 8.21,6.53 18.19,9.84 29.73,9.84 1.13,0 2.72,-0.09 4.78,-0.26 l 2.65,-0.22 -2.83,-13.59 -2.1,0.21 c -0.78,0.08 -1.94,0.12 -3.48,0.12 -12.48,0 -21.6,-4.03 -27.87,-12.3 z" />
        <path
           id="path984"
           style="fill:#707374;fill-opacity:1;fill-rule:nonzero;stroke:none;stroke-width:9.99999905"
           d="m 339.29185,4805.4075 c -6.4,5.65 -14.51,8.48 -24.33,8.48 -9.83,0 -18.02,-2.83 -24.58,-8.48 -6.57,-5.66 -10.33999,-13.64 -11.33999,-23.96 h 71.32999 c -0.99,10.32 -4.68,18.3 -11.08,23.96 m 7.55,4.77 c 8.55,-8.51 12.82,-19.73 12.82,-33.68 0,-0.34 -0.02,-0.81 -0.06,-1.43 -0.04,-0.62 -0.07,-1.05 -0.07,-1.3 h -80.35999 c 1.07,-10.23 4.86999,-18.37 11.38999,-24.39 6.94,-6.28 15.81,-9.42 26.63,-9.42 13.45,0 23.64,4.54 30.58,13.63 l 10.16,-0.25 c -4.13,-7.02 -9.79,-12.51 -16.97,-16.47 -7.18,-3.97 -15.11,-5.95 -23.77,-5.95 -8.51,0 -16.33,1.8 -23.47,5.39 -7.14,3.59 -12.91999,8.92 -17.33999,15.98 -4.41,7.06 -6.62,15.13 -6.62,24.21 0,13.87 4.33,25.07 13,33.62 8.66999,8.54 19.39999,12.81 32.19999,12.81 12.71,0 23.34,-4.25 31.88,-12.75" />
        <path
           id="path988"
           style="fill:#707374;fill-opacity:1;fill-rule:nonzero;stroke:none;stroke-width:9.99999905"
           d="m 281.70485,4783.7985 h 66.00999 c -1.26,8.43 -4.61,15.1 -9.98,19.85 -5.92999,5.24 -13.58999,7.89 -22.77999,7.89 -9.19,0 -16.95,-2.66 -23.04,-7.91 -5.51,-4.75 -8.94,-11.41 -10.21,-19.83 m 71.25999,-4.7 h -76.50999 l 0.25,2.57 c 1.05,10.9 5.13,19.49 12.14,25.52 6.97,6.01 15.76,9.05 26.11,9.05 10.37,0 19.08,-3.05 25.88999,-9.07 6.83,-6.03 10.82,-14.61 11.87,-25.5 z m -38.00999,41.48 c -12.26,0 -22.26,-3.97 -30.55,-12.14 -8.16,-8.05 -12.3,-18.8 -12.3,-31.94 0,-8.59 2.11,-16.32 6.28,-22.97 4.16,-6.66 9.67,-11.74 16.39,-15.12 6.78,-3.4 14.32,-5.13 22.41,-5.13 8.23,0 15.85,1.9 22.62999,5.65 5.56,3.06 10.2,7.14 13.84,12.16 l -4.77,0.12 c -7.35,-9.02 -18.00999,-13.6 -31.69999,-13.6 -11.36,0 -20.85,3.37 -28.2,10.02 -6.94,6.42 -11.02,15.13 -12.15,25.9 l -0.28,2.59 h 80.74999 v 0.38 c 0,13.23 -4.08,24 -12.12,32.01 -8.04999,8.01 -18.21999,12.07 -30.22999,12.07 m 2.23,-92.01 c -8.83,0 -17.08,1.9 -24.52,5.64 -7.5,3.77 -13.65,9.43 -18.27,16.83 -4.64,7.4 -6.99,15.97 -6.99,25.46 0,14.45 4.61,26.32 13.71,35.29 9.08,8.95 20.47,13.49 33.84,13.49 13.3,0 24.58999,-4.52 33.53999,-13.44 8.97,-8.92 13.51,-20.81 13.51,-35.34 0,-0.38 -0.01,-0.91 -0.06,-1.6 -0.04,-0.53 -0.06,-0.91 -0.06,-1.13 v -2.35 h -80.02999 c 1.34,-8.4 4.8,-15.23 10.31,-20.32 6.43,-5.82 14.86,-8.79 25.02,-8.79 12.8,0 22.18999,4.16 28.71999,12.7 l 0.73,0.96 15.35,-0.38 -2.03,-3.44 c -4.33,-7.36 -10.34,-13.19 -17.86,-17.34 -7.48999,-4.14 -15.87999,-6.24 -24.90999,-6.24" />
        <path
           id="path1032"
           style="fill:#707374;fill-opacity:1;fill-rule:nonzero;stroke:none;stroke-width:9.99999905"
           d="m 44.344876,4861.1005 c -21.469998,-50.98 -32.239997,-76.47 -32.329997,-76.47 h 67.909994 l -32.199997,76.47 c -0.63,1.4 -1.21,3.65 -1.76,6.72 z m 8.249999,13.58 59.119995,-138.97 h -11.09 l -17.179998,40.61 H 8.4948792 l -17.0499984,-40.61 H -19.775118 l 59.119994,138.97 z" />
        <path
           id="path1036"
           style="fill:#707374;fill-opacity:1;fill-rule:nonzero;stroke:none;stroke-width:9.99999905"
           d="m 14.561879,4786.4445 h 62.589994 l -31.129997,73.92 c -20.859998,-49.59 -28.389997,-67.47 -31.459997,-73.92 m 87.309991,-48.92 h 7.05 l -57.569994,135.34 h -4.38 l 0.83,-4.73 c 0.52,-2.93 1.07,-5.05 1.63,-6.31 l 33.269997,-79.01 H 12.011879 v 1.81 l -1.65,0.83 c 0.58,1.19 11.429999,26.87 32.259997,76.34 l 2.65,11.07 h -4.689999 l -57.569995,-135.34 h 7.1899992 l 17.0399985,40.61 H 84.691873 Z m -55.549994,138.97 h 7.519999 l 60.659995,-142.6 H 99.381871 l -17.189998,40.61 H 9.7418794 l -17.0399984,-40.61 h -15.269999 l 60.659995,142.6 h 8.059999" />
        <path
           d="m 401.56584,4733.6435 h -8.92 v 143.49 h 8.92 z"
           style="fill:#707374;fill-opacity:1;fill-rule:nonzero;stroke:none;stroke-width:9.99999905"
           id="path1038" />
        <path
           d="m 395.00584,4735.9935 h 4.21 v 138.79 h -4.21 z m 8.91,-4.7 h -13.60999 v 148.19 h 13.60999 z"
           style="fill:#707374;fill-opacity:1;fill-rule:nonzero;stroke:none;stroke-width:9.99999905"
           id="path1040" />
      </g>
      <path
         id="path6133"
         style="fill:#b1b3b3;fill-opacity:1;fill-rule:nonzero;stroke:none;stroke-width:0.20412458"
         d="m 2.3161708,282.17956 c 0,0 -0.5919613,0.0655 -0.1620749,0.4058 0.558689,0.44234 0.8616099,0.70627 1.8222201,1.41479 1.1163574,0.82344 2.3186511,2.29089 3.575038,1.27965 0.4882659,-0.39314 2.964297,-2.86897 4.524217,-2.53298 0.972858,0.20943 1.890194,0.48051 2.249453,0.32844 0.01939,-0.18392 -0.114106,-0.44499 -1.295783,-0.87549 -1.198619,-0.43683 -2.826309,-1.4154 -4.0780007,-0.79466 -1.6999494,0.84344 -2.521551,2.50788 -4.5117656,1.53053 -1.9238742,-0.94469 -2.1233039,-0.75608 -2.1233039,-0.75608" />
      <path
         id="path6135"
         style="fill:#707374;fill-opacity:1;fill-rule:nonzero;stroke:none;stroke-width:0.20412458"
         d="m 4.0119153,283.32615 c 0,0 -0.7832261,0.0867 -0.2145349,0.53705 0.7393393,0.58523 1.14024,0.93448 2.4111195,1.87203 1.4770454,1.08941 3.0677884,3.03125 4.7303831,1.69301 0.646054,-0.52011 3.922254,-3.7959 5.986157,-3.35153 1.287414,0.27721 2.501343,0.63585 2.976341,0.43479 0.02592,-0.24352 -0.150848,-0.5889 -1.714442,-1.15881 -1.585844,-0.57768 -3.739563,-1.87264 -5.395625,-1.05104 -2.249453,1.11574 -3.3366208,3.31825 -5.9698279,2.02512 -2.5458418,-1.25027 -2.8095708,-1.00062 -2.8095708,-1.00062" />
    </g>
  </g>
</svg>
