<svg width="96" height="96" viewBox="0 0 96 96" fill="none" xmlns="http://www.w3.org/2000/svg">
<path d="M18.9238 67.2947C18.6733 67.2256 18.3199 67.06 18.1385 66.9268C17.8292 66.6995 17.8094 66.639 17.8192 65.9489C17.825 65.5443 17.8817 65.1016 17.9453 64.9651C18.4408 63.9007 18.6469 63.5817 19.0895 63.1946L19.5946 62.753L20.721 62.8026C22.3082 62.8724 22.5095 62.935 23.0276 63.5199C23.9165 64.5231 23.8833 65.4869 22.9377 66.1298C22.6466 66.3277 22.3519 66.5445 22.283 66.6116C22.214 66.6787 21.9363 66.7988 21.6659 66.8786C21.3956 66.9583 21.0882 67.0679 20.9829 67.1221C20.8776 67.1763 20.5747 67.2498 20.3098 67.2854C20.0449 67.3211 19.7271 67.366 19.6037 67.3853C19.4803 67.4045 19.1744 67.3637 18.9238 67.2947ZM21.1095 66.4542C21.5738 66.3006 22.0427 66.0354 22.4277 65.7085C22.9398 65.2739 23.0254 65.1451 23.0254 64.8091C23.0254 64.2932 22.6564 63.7948 22.0829 63.5361C21.5902 63.3138 20.6154 63.2516 20.5012 63.4351C20.4631 63.4964 20.2945 63.5466 20.1266 63.5466C19.6184 63.5466 18.9202 64.3933 18.5522 65.456C18.3302 66.0972 18.3691 66.344 18.7383 66.6372C18.9888 66.8361 20.2489 66.7388 21.1095 66.4542ZM62.2363 64.5776C62.34 63.9458 62.5214 63.1529 62.8162 62.0419C63.2927 60.2463 63.4288 59.3876 63.4345 58.1408C63.4425 56.4138 63.133 55.2579 62.3198 53.9768C62.1113 53.6482 61.97 53.3502 62.0059 53.3145C62.132 53.1893 63.2917 54.4503 63.6168 55.0662C64.241 56.2486 64.3598 56.782 64.3513 58.3637C64.3433 59.8694 64.2042 60.5784 63.6427 61.9772C63.1893 63.1067 62.2972 64.9956 62.2172 64.9956C62.19 64.9956 62.1986 64.8075 62.2363 64.5776ZM42.435 63.8777C43.0228 62.733 43.0389 62.5427 43.0201 56.9705C43.0011 51.38 43.0273 51.2395 43.5595 54.0725C43.9694 56.2549 44.1266 59.7236 43.8823 61.1968C43.7166 62.1959 43.3525 63.1214 42.8821 63.7389C42.3597 64.4247 42.1152 64.5006 42.435 63.8777ZM69.2455 60.6022C69.2455 58.717 69.288 57.4163 69.3497 57.4163C69.6233 57.4163 70.2551 59.8274 70.2552 60.8716C70.2552 61.9341 69.7404 63.6356 69.3858 63.7449C69.2758 63.7787 69.2455 63.0997 69.2455 60.6022ZM47.7506 63.1461C47.7884 63.0485 47.8695 61.7942 47.9309 60.3589C48.0041 58.6484 48.095 57.6246 48.1947 57.3877L48.3469 57.0262L48.5487 57.6392C48.6854 58.0546 48.7664 58.7253 48.8 59.7195C48.8548 61.3447 48.7061 62.1357 48.2013 62.9057C47.9291 63.3208 47.6193 63.4861 47.7506 63.1461ZM60.6954 60.0534C60.6185 59.6537 60.7903 59.3257 61.1193 59.2437C61.6202 59.1187 61.8025 59.6841 61.3926 60.0914C61.0852 60.3968 60.7581 60.3789 60.6954 60.0534ZM65.8378 59.5619C65.4776 58.3346 65.4722 56.071 65.8264 54.7413C66.06 53.8646 66.6324 52.5946 67.0954 51.926C67.5185 51.315 68.2717 50.557 68.3182 50.6954C68.3372 50.7522 68.1689 51.1942 67.944 51.6776C67.2222 53.2299 66.8163 54.5145 66.5007 56.246C66.4112 56.7364 66.2781 57.727 66.2048 58.4473C66.0793 59.6804 65.97 60.0122 65.8378 59.5619ZM58.1936 59.5313C58.0729 59.3372 58.2503 58.7937 58.515 58.5466C58.6536 58.4173 58.9287 58.2793 59.1262 58.2401C59.4584 58.1741 59.4854 58.191 59.4854 58.4652C59.4854 58.8796 59.1692 59.3141 58.7369 59.4935C58.2982 59.6756 58.284 59.6767 58.1936 59.5313ZM61.8905 58.3079C61.3395 58.1882 60.4515 57.6586 59.9061 57.1244C59.0342 56.2702 58.3936 54.7387 58.4935 53.7467C58.5306 53.3783 58.8123 53.105 58.8123 53.4375C58.8123 53.678 59.7638 55.4591 60.182 56.0015C60.3802 56.2586 60.9456 56.8812 61.4384 57.385C61.9312 57.8889 62.3118 58.3194 62.2842 58.3418C62.2566 58.3642 62.0794 58.3489 61.8905 58.3079ZM18.9026 58.1812C18.8155 58.0939 18.7623 57.7246 18.7623 57.2078C18.7623 56.582 18.7152 56.3232 18.5726 56.1667C18.3946 55.9713 18.3945 55.9386 18.5717 55.6406C18.7393 55.3588 18.7444 55.243 18.6167 54.6141L18.4729 53.9053L17.9535 53.8717C17.323 53.8309 17.0747 53.6056 17.3397 53.3147C17.5049 53.1333 17.619 53.1286 18.8416 53.2533C20.2842 53.4005 21.0723 53.5375 21.6792 53.7466C22.213 53.9306 22.3523 54.0557 22.3523 54.3512C22.3523 54.4894 22.2892 54.6495 22.2121 54.7069C22.0235 54.8473 20.6903 55.3831 20.3049 55.4734C19.9934 55.5464 19.8775 55.7382 20.1367 55.7518C21.5109 55.8242 21.9459 55.8654 22.47 55.9725C23.3014 56.1425 23.6421 56.4003 23.5447 56.7859C23.5015 56.9568 23.3204 57.1576 23.1079 57.2702C22.5129 57.5854 21.2279 57.9673 20.3891 58.0782C19.9572 58.1353 19.4776 58.2135 19.3233 58.252C19.1574 58.2933 18.9855 58.2644 18.9026 58.1812ZM21.0267 57.4011C21.1306 57.3482 21.3578 57.3038 21.5315 57.3024C21.9675 57.299 22.8315 56.8944 22.7735 56.7208C22.7072 56.5225 21.4619 56.3131 20.3128 56.3069L19.3392 56.3017L19.3923 56.8311C19.4756 57.6613 19.464 57.6505 20.1897 57.5696C20.5461 57.5298 20.9228 57.454 21.0267 57.4011ZM20.7321 54.799C21.0963 54.6519 21.4083 54.4896 21.4256 54.4382C21.4643 54.3229 20.7002 54.1075 19.9122 54.0117L19.3233 53.9402V54.3873C19.3233 55.2909 19.4339 55.3232 20.7321 54.799ZM67.6749 57.5686C67.6749 57.5413 67.7757 57.3228 67.8988 57.083C68.2615 56.3766 68.5278 55.4599 68.9191 53.571C69.1889 52.2689 69.3849 52.2275 69.578 53.4316C69.7993 54.8124 69.3987 56.261 68.5668 57.0875C68.2183 57.4337 67.6749 57.7269 67.6749 57.5686ZM50.5668 56.3517C48.7833 56.0137 47.3648 55.3515 46.3879 54.4009C45.8494 53.8769 45.9432 53.7943 46.6433 54.1761C47.8973 54.8598 49.9513 55.3994 51.9691 55.5751C55.8392 55.9121 57.0174 56.0527 57.0174 56.1777C57.0174 56.4994 52.0527 56.6333 50.5668 56.3517ZM70.9283 55.8002C70.9283 55.6469 70.8853 55.5215 70.8327 55.5215C70.7801 55.5215 70.6725 55.0017 70.5936 54.3663C70.4515 53.2219 70.4617 51.8307 70.6615 45.1209C70.7893 40.8275 70.4303 39.5839 68.8716 38.9215C68.4254 38.7319 68.088 38.6903 66.9645 38.6867C65.7481 38.6829 65.6362 38.6667 65.9361 38.5385C66.1212 38.4593 66.6545 38.3304 67.1212 38.252C69.2729 37.8904 70.8234 38.8663 71.3608 40.9203C71.7789 42.5182 71.6948 46.6158 71.1391 51.7319C71.0759 52.3143 71.0152 53.5305 71.0043 54.4346C70.9933 55.3387 70.9718 56.0785 70.9563 56.0786C70.9409 56.0787 70.9283 55.9534 70.9283 55.8002ZM40.461 54.1954C39.1519 53.6047 38.2094 51.383 38.0076 48.4119C37.9301 47.2706 37.8236 46.896 37.4706 46.5216C37.1634 46.1958 37.2751 46.0967 37.7023 46.3162C38.3223 46.6347 38.5911 47.2114 38.9538 49.0011C39.24 50.4128 39.3314 50.809 39.5454 51.5647C39.9224 52.8958 40.3741 53.651 41.0851 54.1389C41.4565 54.3937 41.462 54.4068 41.1973 54.4045C41.0442 54.4032 40.7128 54.3091 40.461 54.1954ZM73.7967 53.1524C73.2409 52.3097 73.0288 48.8413 73.294 44.9328C73.3792 43.6761 73.4354 42.5225 73.4187 42.3693C73.3778 41.9928 72.8986 41.589 72.4926 41.589C72.311 41.589 72.1623 41.5389 72.1623 41.4776C72.1623 41.4163 72.4331 41.3661 72.7641 41.3661C73.5499 41.3661 73.8894 41.6779 74.0789 42.5735C74.219 43.2362 74.1689 46.8051 73.9675 50.5058C73.9125 51.5173 73.9049 52.5831 73.9507 52.8743C73.9965 53.1655 74.0178 53.4038 73.9982 53.4038C73.9786 53.4038 73.8879 53.2907 73.7967 53.1524ZM19.2995 48.8618C19.2056 48.7545 19.0954 48.441 19.0546 48.1652C18.999 47.7888 18.8903 47.5879 18.619 47.3601L18.2575 47.0566L18.5621 47.0536C18.9512 47.0497 19.0989 46.7763 19.0989 46.06C19.0989 45.3342 19.2827 44.9328 19.6151 44.9328C19.7558 44.9328 19.8963 44.9737 19.9274 45.0235C19.9584 45.0734 19.9328 45.4797 19.8705 45.9264C19.8082 46.3732 19.7842 46.7654 19.8171 46.7982C19.85 46.8309 20.0174 46.806 20.1891 46.7428C20.3608 46.6796 20.8546 46.5215 21.2865 46.3914C22.1752 46.1237 22.6428 45.8222 22.5483 45.5777C22.457 45.3413 21.788 45.0541 20.7407 44.8017C19.8678 44.5914 19.4334 44.5863 18.4649 44.7747C18.167 44.8326 18.099 44.8047 18.0327 44.5971C17.9804 44.4332 18.0157 44.2895 18.138 44.1681C18.5038 43.8051 21.0571 44.0839 22.183 44.6097C22.7744 44.8859 23.3619 45.3949 23.3619 45.6311C23.3619 46.1465 22.1712 46.7736 20.2488 47.2706C19.7874 47.3899 19.772 47.4084 19.772 47.8426C19.772 48.0894 19.8289 48.3969 19.8984 48.5259C20.0016 48.7176 19.9874 48.7877 19.8209 48.9087C19.5567 49.1006 19.5044 49.0959 19.2995 48.8618ZM29.1955 47.6403C28.7355 47.4722 28.1856 46.6719 28.3904 46.4684C28.6277 46.2327 30.0047 46.9152 30.1735 47.3523C30.2875 47.6472 29.6934 47.8222 29.1955 47.6403ZM33.7951 46.7257C33.7951 46.6696 34.0451 46.4414 34.3507 46.2185C35.7829 45.174 36.4875 43.9738 36.4875 42.5791C36.4875 41.7463 36.7147 41.7862 36.9938 42.668C37.524 44.3425 36.6072 46.0187 34.8473 46.5927C34.0617 46.8489 33.7951 46.8826 33.7951 46.7257ZM28.8326 44.1742C30.468 42.2863 31.2861 40.8022 31.8428 38.7135C31.9293 38.3887 32.0018 37.9624 32.0037 37.7661C32.0071 37.4283 32.016 37.4208 32.172 37.6257C32.3944 37.9178 32.3942 39.888 32.1718 40.6164C31.6887 42.1984 30.636 43.5826 29.197 44.5283C28.2008 45.183 28.0693 45.0553 28.8326 44.1742ZM41.1897 40.468C40.6365 40.2713 39.6331 39.5413 39.7526 39.4225C39.7772 39.3981 40.0704 39.4485 40.4041 39.5345C40.7379 39.6205 42.1235 39.7434 43.4833 39.8076C44.8431 39.8718 45.982 39.9505 46.0142 39.9825C46.1026 40.0702 45.8066 40.2315 45.1819 40.436C44.817 40.5555 44.1307 40.6321 43.2186 40.6553C42.0392 40.6851 41.7167 40.6554 41.1897 40.468ZM36.7878 40.1018C36.8297 40.0309 36.9433 39.8497 37.0403 39.6992C37.4189 39.1117 37.5995 38.3212 37.3852 38.1896C37.2148 38.085 35.9449 38.4401 35.5891 38.6918C34.9067 39.1745 34.9324 38.7809 35.6316 38.0407C36.1281 37.515 36.5076 37.3483 37.371 37.2764C38.0042 37.2236 38.1582 37.246 38.3286 37.4153C38.7327 37.8168 38.2642 39.3367 37.581 39.8406C37.1703 40.1436 36.6647 40.3101 36.7878 40.1018ZM28.9502 39.7513C28.3256 39.2958 27.9057 38.6289 27.7293 37.8118C27.561 37.0319 27.7012 36.6848 28.1847 36.6848C28.9099 36.6848 29.9923 37.4143 30.3914 38.172C30.6116 38.59 30.5174 38.657 30.1124 38.3704C29.9308 38.242 29.5435 38.0352 29.2518 37.9109L28.7213 37.685L28.7968 38.085C28.885 38.5523 29.1919 39.135 29.6589 39.7221C29.9883 40.1361 29.989 40.14 29.7337 40.1373C29.592 40.1358 29.2394 39.9621 28.9502 39.7513ZM23.1669 39.863C22.7928 39.7014 22.2372 38.9515 21.9916 38.2767C21.8434 37.8696 21.8808 37.8824 20.9499 37.9194C20.5797 37.9341 20.0348 37.9461 19.739 37.9461C19.2126 37.9461 19.1833 37.9648 18.3735 38.8201C17.7451 39.4838 17.4744 39.6942 17.249 39.6942C16.9935 39.6942 16.9632 39.6599 17.0313 39.4467C17.0748 39.3106 17.3621 38.9744 17.6697 38.6996C17.9772 38.4249 18.3219 37.9845 18.4355 37.7211C18.5492 37.4577 18.7085 37.2421 18.7895 37.2421C18.9879 37.2421 19.4598 36.7 20.1964 35.626C20.5327 35.1355 20.8563 34.6744 20.9155 34.6012C21.0739 34.4053 21.4906 34.6278 21.6471 34.9919C22.0721 35.9806 22.3523 36.7495 22.3523 36.927C22.3523 37.0966 22.4444 37.1307 22.904 37.1307C23.4812 37.1307 23.8107 37.2095 23.8107 37.3476C23.8107 37.4816 23.2634 37.688 22.9079 37.688C22.7257 37.688 22.5766 37.7395 22.5766 37.8026C22.5766 38.054 23.249 39.212 23.5717 39.5162C24.0834 39.9987 23.8815 40.1716 23.1669 39.863ZM21.567 37.0284C21.567 36.6684 21.1768 35.6788 21.0381 35.6868C20.8756 35.6962 19.8649 37.1209 19.9377 37.238C19.9773 37.3016 20.36 37.3536 20.7883 37.3536H21.567V37.0284Z" fill="white"/>
<path d="M19.2111 72.5566C19.2111 73.1505 19.4037 73.4905 19.9253 73.8173C20.1947 73.9862 20.4079 74.0255 20.8378 73.9857C21.3309 73.9401 22.4202 73.6393 23.0815 73.3661C23.3871 73.2399 23.7539 73.0866 24.4838 72.7804C25.2134 72.4742 30.5424 69.8081 31.8319 69.1041C32.3255 68.8346 33.1332 68.4218 33.6268 68.1868C34.1204 67.9517 34.612 67.7143 34.7191 67.6593C35.3554 67.3323 36.2632 67.8035 36.2632 68.4608C36.2632 68.6334 36.3199 68.915 36.3892 69.0865C37.132 70.9236 37.9987 71.6809 39.361 71.6825C40.5772 71.6842 41.5485 71.3095 43.7796 69.9781C45.6167 68.8818 45.8325 68.7852 46.4455 68.7852C46.9132 68.7852 47.0368 68.8357 47.3329 69.1475C47.5221 69.3467 47.9232 70.0048 48.2243 70.61C49.1168 72.4041 49.6106 72.7829 50.7747 72.5669C51.6367 72.4069 52.2082 72.0818 54.0048 70.7295C55.2092 69.8229 55.7903 69.827 56.2247 70.745C56.3522 71.0144 56.4565 71.2808 56.4565 71.337C56.4565 71.3932 56.57 71.6507 56.7089 71.9093C57.3385 73.0819 59.4553 73.7517 61.2588 73.3489C62.0587 73.1703 62.6526 73.0075 62.9632 72.8816C63.1174 72.8191 63.3446 72.7296 63.468 72.6829C64.2112 72.4012 65.0249 72.0601 65.7117 71.7423C66.7473 71.2631 67.6021 70.8943 68.1798 70.6774C68.5732 70.5296 69.5854 70.3456 70.0046 70.3456C70.4485 70.3456 71.6382 70.5462 71.9941 70.6811C72.1175 70.7278 72.4456 70.8315 72.7233 70.9114C73.0009 70.9913 73.5057 71.1777 73.8451 71.3257C74.1845 71.4737 74.5631 71.633 74.6865 71.6798C74.8099 71.7265 75.0371 71.8199 75.1913 71.8872C75.3456 71.9546 75.8609 72.0867 76.3365 72.1808C77.7891 72.4682 78.7812 72.3772 78.7812 71.9564C78.7812 71.8657 78.8431 71.6932 78.9187 71.573C79.0271 71.4004 79.0271 71.3255 78.9187 71.2178C78.8431 71.1427 78.7812 70.991 78.7812 70.8806C78.7812 70.6994 78.6595 70.6798 77.5192 70.6794C75.987 70.6786 74.237 70.4312 73.6 70.1255C73.3414 70.0014 73.0426 69.8998 72.9359 69.8998C72.8292 69.8998 72.7251 69.8614 72.7046 69.8144C72.684 69.7674 72.2381 69.5812 71.7136 69.4005C70.145 68.86 68.513 68.9848 66.7214 69.7823C66.598 69.8372 65.866 70.1158 65.0947 70.4014C64.3234 70.6869 63.5914 70.9656 63.468 71.0207C61.8494 71.7434 59.6895 71.9441 58.6761 71.466C58.0577 71.1742 57.3395 70.4184 56.944 69.643C56.6773 69.1201 55.8801 68.2279 55.6795 68.2279C55.4218 68.2279 54.8479 68.5611 54.4151 68.9619C52.899 70.3659 51.8998 70.9029 50.8036 70.9029C50.1325 70.9029 50.0649 70.878 49.5729 70.4476C49.2865 70.1972 49.0523 69.9416 49.0523 69.8797C49.0523 69.8177 48.961 69.6339 48.8494 69.4712C48.7379 69.3084 48.5026 68.8242 48.3266 68.3951C47.8719 67.2866 47.8006 67.2243 46.9875 67.2265C46.6114 67.2274 46.127 67.2901 45.9111 67.3659C45.3859 67.5501 44.1686 68.185 43.6023 68.5701C42.8865 69.0568 41.1985 69.8731 40.606 70.019C40.1863 70.1224 39.9245 70.1209 39.409 70.0122C38.4811 69.8166 38.1115 69.3957 37.4995 67.8378C36.7843 66.0174 36.4568 65.8797 34.4556 66.5581C33.4523 66.8982 33.1713 67.0113 31.8005 67.6274C31.4747 67.7738 31.1902 67.8935 31.1681 67.8935C31.146 67.8935 30.5914 68.1443 29.9357 68.4508C29.28 68.7573 28.7234 69.0081 28.699 69.0081C28.6746 69.0081 28.2841 69.1778 27.8313 69.3853C27.3784 69.5927 26.5788 69.9503 26.0544 70.1799C25.5299 70.4095 24.8924 70.6896 24.6377 70.8024C23.65 71.2399 21.6071 72.0498 21.1223 72.196C20.3841 72.4186 19.8075 72.3957 19.5826 72.1347C19.3181 71.8278 19.2111 71.9493 19.2111 72.5566Z" fill="white"/>
<path d="M22.8571 31.3861C27.6815 31.6455 34.963 31.8951 40.6384 31.9955C54.2015 32.2355 68.435 31.9771 73.9012 31.3914C74.2097 31.3584 75.0427 31.2854 75.7523 31.2293C77.2958 31.1071 77.4285 31.0669 77.3554 30.7424C77.2594 30.316 77.0041 29.8249 76.7681 29.6127C76.5646 29.4297 76.419 29.4158 75.4447 29.4861C67.3768 30.0685 45.8127 30.4053 35.8705 30.1042C28.5031 29.8811 21.4634 29.3969 18.3425 28.8987C17.4294 28.7529 17.3039 28.8923 17.3039 30.0527C17.3039 30.5936 17.3543 31.0181 17.4234 31.0606C17.4892 31.101 18.4862 31.1771 19.6391 31.2299C20.792 31.2826 22.2401 31.3529 22.8571 31.3861Z" fill="white"/>
<path d="M29.7004 27.9889C32.1684 28.0523 34.314 28.1238 34.4682 28.1479C35.015 28.233 50.4878 28.1056 52.5861 27.9987C57.131 27.7669 64.0159 27.3224 65.6556 27.1548C65.995 27.1202 66.9794 27.0393 67.8432 26.9751C72.3347 26.6413 73.1967 26.544 73.4244 26.3448C73.5324 26.2503 73.6208 26.0823 73.6208 25.9714C73.6208 25.641 73.262 25.5265 72.6493 25.6612C71.3542 25.946 66.0665 26.2712 56.5126 26.6538C45.4903 27.0951 26.2998 26.8511 20.6695 26.1981C18.5738 25.955 17.9802 25.9473 17.7436 26.16C17.4658 26.4098 17.4688 26.8826 17.7504 27.2383C17.9193 27.4516 18.119 27.5371 18.583 27.5947C19.2887 27.6823 23.3008 27.8245 29.7004 27.9889Z" fill="white"/>
<path d="M25.4275 23.9443C25.738 24.3032 25.235 24.2632 31.3271 24.4134C47.0097 24.8001 64.6729 24.2193 71.3771 23.0966C72.8709 22.8464 72.85 22.8534 72.8134 22.6109C72.7947 22.4867 72.7036 22.3471 72.6111 22.3008C72.1702 22.0802 71.4753 21.9514 71.0813 22.0172C70.8429 22.0571 69.8906 22.1362 68.9651 22.1931C66.9333 22.318 65.9606 22.3832 63.9729 22.528C63.1399 22.5886 61.0953 22.714 59.4294 22.8066C57.7634 22.8991 55.6179 23.0377 54.6615 23.1144C52.4079 23.2952 34.2134 23.2778 31.271 23.092C29.0766 22.9534 26.7643 22.6998 26.1818 22.5338C25.7583 22.4131 25.3338 22.5355 25.2283 22.8087C25.0836 23.1832 25.1636 23.6394 25.4275 23.9443Z" fill="white"/>
</svg>
