<svg width="72" height="61" viewBox="0 0 72 61" fill="none" xmlns="http://www.w3.org/2000/svg">
<path d="M2.23412 53.1341C1.94317 53.0531 1.53279 52.8589 1.32217 52.7025C0.962898 52.4359 0.939971 52.365 0.951385 51.5554C0.958082 51.0809 1.02393 50.5615 1.09773 50.4014C1.67314 49.1528 1.91255 48.7786 2.42657 48.3245L3.01305 47.8064L4.32116 47.8645C6.16435 47.9465 6.39811 48.0199 6.99984 48.706C8.03205 49.8829 7.99348 51.0135 6.8954 51.7676C6.5573 51.9998 6.21514 52.2542 6.13505 52.3328C6.05496 52.4115 5.73252 52.5524 5.41852 52.646C5.10451 52.7396 4.74756 52.8681 4.62529 52.9317C4.50303 52.9952 4.15128 53.0815 3.84362 53.1233C3.53596 53.1651 3.167 53.2178 3.02369 53.2404C2.88038 53.263 2.52508 53.2151 2.23412 53.1341ZM4.77237 52.1481C5.31147 51.968 5.85599 51.6569 6.30316 51.2735C6.89783 50.7636 6.9972 50.6125 6.9972 50.2184C6.9972 49.6132 6.5687 49.0285 5.90272 48.725C5.33055 48.4642 4.19855 48.3912 4.06592 48.6066C4.02166 48.6785 3.82588 48.7374 3.63092 48.7374C3.04072 48.7374 2.22992 49.7306 1.8026 50.9772C1.54472 51.7294 1.58988 52.019 2.01871 52.3629C2.30963 52.5962 3.77297 52.4821 4.77237 52.1481ZM52.5325 49.9468C52.6529 49.2057 52.8635 48.2755 53.2059 46.9722C53.7593 44.8658 53.9173 43.8585 53.924 42.3959C53.9332 40.37 53.5738 39.0141 52.6294 37.5112C52.3873 37.1258 52.2232 36.7762 52.265 36.7344C52.4114 36.5874 53.7581 38.0667 54.1357 38.7892C54.8605 40.1762 54.9985 40.802 54.9886 42.6575C54.9793 44.4237 54.8178 45.2554 54.1657 46.8963C53.6392 48.2213 52.6032 50.4371 52.5103 50.4371C52.4787 50.4371 52.4887 50.2165 52.5325 49.9468ZM29.5374 49.1258C30.22 47.783 30.2388 47.5597 30.2168 41.0231C30.1949 34.465 30.2252 34.3002 30.8432 37.6235C31.3193 40.1836 31.5018 44.2527 31.2181 45.9809C31.0258 47.1529 30.6029 48.2385 30.0566 48.9629C29.4499 49.7674 29.166 49.8565 29.5374 49.1258ZM60.6722 45.2834C60.6722 43.0719 60.7216 41.5461 60.7931 41.5461C61.1109 41.5461 61.8447 44.3744 61.8447 45.5994C61.8448 46.8458 61.2469 48.8417 60.8351 48.97C60.7074 49.0097 60.6722 48.2131 60.6722 45.2834ZM35.7104 48.2676C35.7542 48.153 35.8484 46.6817 35.9197 44.9979C36.0047 42.9914 36.1103 41.7904 36.2261 41.5125L36.4028 41.0884L36.6372 41.8076C36.796 42.2948 36.89 43.0816 36.929 44.2479C36.9926 46.1543 36.82 47.0823 36.2337 47.9855C35.9177 48.4725 35.5579 48.6664 35.7104 48.2676ZM50.7431 44.6395C50.6538 44.1707 50.8532 43.7859 51.2353 43.6897C51.817 43.5431 52.0287 44.2064 51.5527 44.6841C51.1957 45.0423 50.8158 45.0214 50.7431 44.6395ZM56.7149 44.063C56.2965 42.6233 56.2903 39.9679 56.7017 38.4081C56.9729 37.3796 57.6376 35.8898 58.1753 35.1055C58.6667 34.3887 59.5414 33.4995 59.5953 33.6619C59.6174 33.7285 59.4219 34.247 59.1608 34.8141C58.3225 36.635 57.8512 38.142 57.4846 40.1732C57.3808 40.7485 57.2262 41.9105 57.1411 42.7555C56.9953 44.202 56.8684 44.5913 56.7149 44.063ZM47.8378 44.0271C47.6976 43.7995 47.9036 43.1619 48.211 42.872C48.372 42.7203 48.6914 42.5584 48.9208 42.5124C49.3065 42.4349 49.3379 42.4549 49.3379 42.7765C49.3379 43.2626 48.9706 43.7723 48.4687 43.9828C47.9592 44.1964 47.9427 44.1976 47.8378 44.0271ZM52.1309 42.5919C51.4911 42.4516 50.4598 41.8303 49.8265 41.2036C48.8139 40.2016 48.07 38.405 48.186 37.2414C48.229 36.8091 48.5563 36.4886 48.5563 36.8786C48.5563 37.1607 49.6612 39.2501 50.1468 39.8863C50.3771 40.1879 51.0336 40.9183 51.6059 41.5094C52.1781 42.1004 52.6201 42.6055 52.5881 42.6317C52.556 42.658 52.3503 42.6401 52.1309 42.5919ZM2.20944 42.4433C2.10837 42.3409 2.0466 41.9077 2.0466 41.3014C2.0466 40.5674 1.99181 40.2638 1.82621 40.0801C1.61952 39.8509 1.61945 39.8125 1.82522 39.463C2.01983 39.1324 2.02572 38.9966 1.87751 38.2589L1.71045 37.4274L1.10726 37.388C0.375121 37.3401 0.0867624 37.0758 0.394459 36.7346C0.586365 36.5217 0.71882 36.5163 2.13864 36.6626C3.81388 36.8352 4.72917 36.9959 5.43391 37.2412C6.05386 37.4571 6.21559 37.6038 6.21559 37.9504C6.21559 38.1126 6.1423 38.3004 6.05274 38.3677C5.83379 38.5324 4.28551 39.1609 3.83799 39.2669C3.47621 39.3525 3.34161 39.5774 3.64257 39.5935C5.23842 39.6784 5.74364 39.7267 6.35222 39.8523C7.31775 40.0517 7.71337 40.3542 7.60026 40.8065C7.55013 41.007 7.33978 41.2426 7.09308 41.3746C6.40212 41.7444 4.90976 42.1925 3.9357 42.3225C3.43412 42.3895 2.87718 42.4812 2.69805 42.5263C2.50542 42.5749 2.30576 42.541 2.20944 42.4433ZM4.67618 41.5282C4.79687 41.4661 5.06068 41.414 5.26244 41.4124C5.76875 41.4085 6.77211 40.9338 6.70468 40.7302C6.62767 40.4976 5.18159 40.2519 3.84716 40.2447L2.71645 40.2385L2.77813 40.8596C2.87485 41.8334 2.8614 41.8208 3.70416 41.7258C4.11808 41.6792 4.5555 41.5902 4.67618 41.5282ZM4.33402 38.4758C4.75695 38.3032 5.11937 38.1128 5.13939 38.0525C5.18435 37.9172 4.29695 37.6646 3.38195 37.5522L2.69799 37.4683V37.9928C2.69799 39.0528 2.82648 39.0907 4.33402 38.4758ZM58.8483 41.7247C58.8483 41.6927 58.9653 41.4363 59.1082 41.1551C59.5295 40.3264 59.8388 39.2511 60.2932 37.0352C60.6064 35.5078 60.8341 35.4591 61.0583 36.8717C61.3153 38.4915 60.8501 40.1908 59.8841 41.1603C59.4794 41.5665 58.8483 41.9104 58.8483 41.7247ZM38.9807 40.2972C36.9096 39.9007 35.2623 39.1239 34.1278 38.0087C33.5025 37.394 33.6115 37.2972 34.4245 37.745C35.8808 38.5471 38.266 39.18 40.6092 39.3861C45.1036 39.7815 46.4718 39.9464 46.4718 40.0931C46.4718 40.4705 40.7064 40.6275 38.9807 40.2972ZM62.6264 39.6502C62.6264 39.4704 62.5765 39.3233 62.5154 39.3233C62.4543 39.3233 62.3294 38.7135 62.2378 37.9682C62.0727 36.6257 62.0846 34.9937 62.3166 27.1226C62.465 22.0862 62.0481 20.6273 60.238 19.8503C59.7198 19.6278 59.328 19.579 58.0233 19.5748C56.6107 19.5703 56.4807 19.5513 56.829 19.4009C57.044 19.3081 57.6633 19.1568 58.2052 19.0648C60.704 18.6406 62.5046 19.7854 63.1287 22.195C63.6142 24.0695 63.5166 28.8763 62.8713 34.8778C62.7978 35.561 62.7273 36.9877 62.7146 38.0483C62.7019 39.1089 62.6769 39.9768 62.659 39.9769C62.6411 39.977 62.6264 39.83 62.6264 39.6502ZM27.2451 37.7677C25.7248 37.0747 24.6303 34.4685 24.3959 30.9832C24.3059 29.6444 24.1823 29.2049 23.7723 28.7657C23.4156 28.3835 23.5453 28.2673 24.0414 28.5248C24.7614 28.8984 25.0735 29.5749 25.4948 31.6744C25.8271 33.3305 25.9332 33.7951 26.1818 34.6817C26.6196 36.2431 27.1442 37.1291 27.9698 37.7014C28.4011 38.0003 28.4075 38.0157 28.1001 38.0129C27.9222 38.0114 27.5375 37.901 27.2451 37.7677ZM65.9575 36.5442C65.312 35.5556 65.0657 31.4869 65.3736 26.902C65.4726 25.4278 65.5378 24.0745 65.5185 23.8947C65.471 23.453 64.9145 22.9795 64.4431 22.9795C64.2321 22.9795 64.0595 22.9206 64.0595 22.8487C64.0595 22.7768 64.3739 22.718 64.7583 22.718C65.6708 22.718 66.0651 23.0837 66.2851 24.1343C66.4479 24.9118 66.3897 29.0983 66.1558 33.4395C66.0919 34.6261 66.0831 35.8764 66.1363 36.218C66.1894 36.5596 66.2143 36.839 66.1915 36.839C66.1687 36.839 66.0633 36.7064 65.9575 36.5442ZM2.67036 31.511C2.56131 31.3851 2.43336 31.0174 2.38603 30.6938C2.32145 30.2522 2.1952 30.0165 1.88015 29.7493L1.46034 29.3933L1.81402 29.3898C2.26588 29.3853 2.43743 29.0646 2.43743 28.2242C2.43743 27.3728 2.65089 26.902 3.03691 26.902C3.20031 26.902 3.36349 26.9499 3.39952 27.0084C3.43557 27.0669 3.40582 27.5435 3.33348 28.0676C3.26112 28.5916 3.23322 29.0518 3.27147 29.0901C3.30973 29.1285 3.50413 29.0993 3.70347 29.0252C3.90282 28.9511 4.4763 28.7656 4.97788 28.613C6.00992 28.2989 6.5529 27.9452 6.44324 27.6585C6.33721 27.3811 5.56028 27.0442 4.34401 26.7482C3.33038 26.5015 2.82587 26.4954 1.70119 26.7164C1.35528 26.7844 1.27627 26.7516 1.19926 26.5081C1.13848 26.3159 1.17947 26.1473 1.32159 26.0048C1.74636 25.5791 4.71146 25.9061 6.01896 26.5229C6.70572 26.8469 7.38804 27.4441 7.38804 27.7211C7.38804 28.3257 6.00529 29.0614 3.77279 29.6444C3.23695 29.7843 3.2191 29.806 3.2191 30.3154C3.2191 30.6048 3.28515 30.9656 3.36588 31.117C3.48576 31.3418 3.46925 31.424 3.27584 31.566C2.9691 31.7911 2.90832 31.7856 2.67036 31.511ZM14.1626 30.078C13.6283 29.8808 12.9897 28.942 13.2275 28.7034C13.5031 28.4268 15.1023 29.2275 15.2983 29.7402C15.4306 30.0862 14.7408 30.2914 14.1626 30.078ZM19.504 29.0051C19.504 28.9393 19.7944 28.6716 20.1492 28.4102C21.8124 27.1848 22.6307 25.777 22.6307 24.1408C22.6307 23.164 22.8945 23.2108 23.2186 24.2451C23.8343 26.2095 22.7697 28.1758 20.7259 28.8491C19.8136 29.1497 19.504 29.1892 19.504 29.0051ZM13.7411 26.012C15.6402 23.7974 16.5903 22.0564 17.2367 19.6063C17.3373 19.2252 17.4214 18.7251 17.4237 18.4949C17.4276 18.0985 17.438 18.0898 17.6191 18.3301C17.8773 18.6728 17.8772 20.9841 17.6188 21.8385C17.0578 23.6942 15.8354 25.318 14.1643 26.4274C13.0074 27.1955 12.8547 27.0456 13.7411 26.012ZM28.0913 21.6644C27.4489 21.4336 26.2836 20.5773 26.4224 20.438C26.4509 20.4093 26.7914 20.4685 27.179 20.5694C27.5666 20.6703 29.1757 20.8144 30.7548 20.8897C32.3339 20.965 33.6565 21.0573 33.694 21.0949C33.7965 21.1978 33.4528 21.3869 32.7273 21.6269C32.3037 21.767 31.5067 21.8569 30.4475 21.884C29.0778 21.9191 28.7033 21.8842 28.0913 21.6644ZM22.9794 21.2348C23.028 21.1516 23.16 20.9391 23.2726 20.7626C23.7122 20.0734 23.922 19.146 23.6731 18.9917C23.4753 18.869 22.0005 19.2855 21.5874 19.5807C20.7949 20.147 20.8247 19.6853 21.6367 18.817C22.2133 18.2003 22.6539 18.0047 23.6567 17.9204C24.392 17.8585 24.5708 17.8847 24.7688 18.0834C25.238 18.5543 24.6939 20.3373 23.9006 20.9285C23.4236 21.2839 22.8364 21.4792 22.9794 21.2348ZM13.8777 20.8236C13.1523 20.2894 12.6647 19.507 12.4599 18.5485C12.2644 17.6335 12.4272 17.2264 12.9887 17.2264C13.8309 17.2264 15.0878 18.0821 15.5513 18.971C15.807 19.4614 15.6977 19.5399 15.2273 19.2037C15.0164 19.0531 14.5667 18.8105 14.2278 18.6648L13.6118 18.3997L13.6995 18.869C13.802 19.4171 14.1583 20.1006 14.7007 20.7894C15.0831 21.2751 15.084 21.2797 14.7875 21.2765C14.6229 21.2747 14.2135 21.0709 13.8777 20.8236ZM7.16158 20.9547C6.72716 20.7651 6.0819 19.8854 5.79668 19.0938C5.6246 18.6162 5.66801 18.6313 4.58703 18.6747C4.15712 18.6919 3.52428 18.706 3.18073 18.706C2.56953 18.706 2.53543 18.728 1.59498 19.7313C0.86525 20.5098 0.550885 20.7567 0.289213 20.7567C-0.00757292 20.7567 -0.0426847 20.7164 0.0363889 20.4663C0.0868986 20.3066 0.420477 19.9122 0.777669 19.5899C1.13486 19.2676 1.53509 18.7511 1.66708 18.4421C1.79906 18.133 1.98402 17.8802 2.07809 17.8802C2.30854 17.8802 2.85657 17.2443 3.7119 15.9843C4.10246 15.409 4.47824 14.868 4.54698 14.7822C4.73098 14.5524 5.21491 14.8134 5.39665 15.2406C5.89013 16.4003 6.21553 17.3023 6.21553 17.5105C6.21553 17.7095 6.32253 17.7494 6.85627 17.7494C7.52661 17.7494 7.90916 17.8419 7.90916 18.0039C7.90916 18.1612 7.27364 18.4032 6.86079 18.4032C6.6492 18.4032 6.47609 18.4637 6.47609 18.5377C6.47609 18.8326 7.25695 20.191 7.63166 20.5479C8.22584 21.1138 7.9914 21.3167 7.16158 20.9547ZM5.30357 17.6295C5.30357 17.2072 4.85051 16.0462 4.68937 16.0556C4.50066 16.0667 3.32697 17.738 3.41153 17.8753C3.45747 17.9499 3.90196 18.0109 4.39931 18.0109H5.30357V17.6295Z" fill="white"/>
<path d="M2.56771 59.3068C2.56771 60.0034 2.79138 60.4023 3.39715 60.7857C3.70997 60.9838 3.95757 61.0299 4.45675 60.9833C5.02945 60.9298 6.29445 60.5769 7.06233 60.2564C7.41723 60.1083 7.84323 59.9285 8.69083 59.5693C9.53812 59.2101 15.7266 56.0826 17.2241 55.2568C17.7973 54.9406 18.7353 54.4564 19.3086 54.1806C19.8818 53.9049 20.4526 53.6264 20.577 53.5618C21.3159 53.1783 22.3701 53.731 22.3701 54.5021C22.3701 54.7046 22.436 55.0349 22.5165 55.2361C23.3791 57.3912 24.3855 58.2795 25.9676 58.2814C27.3799 58.2834 28.5079 57.8438 31.0989 56.282C33.2323 54.9959 33.4829 54.8826 34.1948 54.8826C34.7379 54.8826 34.8815 54.9418 35.2253 55.3076C35.445 55.5413 35.9108 56.3134 36.2604 57.0233C37.2969 59.1278 37.8703 59.5723 39.2222 59.3188C40.2233 59.1311 40.887 58.7498 42.9733 57.1635C44.372 56.1 45.0469 56.1047 45.5512 57.1816C45.6993 57.4977 45.8204 57.8102 45.8204 57.8761C45.8204 57.942 45.9523 58.2441 46.1135 58.5474C46.8447 59.9229 49.303 60.7087 51.3973 60.2363C52.3262 60.0267 53.0159 59.8357 53.3766 59.688C53.5557 59.6147 53.8195 59.5098 53.9629 59.4549C54.826 59.1244 55.7709 58.7243 56.5684 58.3515C57.771 57.7895 58.7637 57.3568 59.4346 57.1023C59.8915 56.929 61.0669 56.7131 61.5537 56.7131C62.0693 56.7131 63.4508 56.9484 63.8641 57.1066C64.0074 57.1615 64.3884 57.2831 64.7109 57.3768C65.0333 57.4706 65.6196 57.6893 66.0137 57.8629C66.4078 58.0365 66.8475 58.2233 66.9908 58.2782C67.1341 58.333 67.3979 58.4426 67.577 58.5216C67.7562 58.6006 68.3546 58.7556 68.9069 58.8659C70.5938 59.2031 71.746 59.0963 71.746 58.6027C71.746 58.4964 71.8178 58.2939 71.9056 58.1529C72.0315 57.9505 72.0315 57.8627 71.9056 57.7363C71.8178 57.6482 71.746 57.4702 71.746 57.3408C71.746 57.1281 71.6045 57.1051 70.2803 57.1046C68.5011 57.1037 66.4687 56.8136 65.7291 56.4549C65.4288 56.3093 65.0817 56.1901 64.9578 56.1901C64.834 56.1901 64.7131 56.1451 64.6892 56.09C64.6653 56.0349 64.1474 55.8164 63.5384 55.6044C61.7167 54.9704 59.8215 55.1168 57.7409 56.0523C57.5976 56.1168 56.7476 56.4435 55.8519 56.7785C54.9562 57.1135 54.1062 57.4405 53.9629 57.5051C52.0831 58.3529 49.5749 58.5883 48.398 58.0274C47.6799 57.6852 46.8458 56.7985 46.3866 55.8889C46.0768 55.2754 45.1511 54.2289 44.9181 54.2289C44.6189 54.2289 43.9525 54.6197 43.4498 55.09C41.6892 56.7369 40.5288 57.3669 39.2558 57.3669C38.4764 57.3669 38.398 57.3376 37.8266 56.8328C37.494 56.539 37.222 56.2392 37.222 56.1665C37.222 56.0939 37.116 55.8782 36.9864 55.6873C36.8569 55.4964 36.5836 54.9284 36.3792 54.425C35.8512 53.1247 35.7685 53.0516 34.8242 53.0541C34.3875 53.0552 33.8249 53.1288 33.5742 53.2176C32.9643 53.4337 31.5506 54.1786 30.893 54.6303C30.0617 55.2013 28.1015 56.1588 27.4134 56.33C26.926 56.4513 26.622 56.4495 26.0234 56.3221C24.9458 56.0925 24.5166 55.5988 23.8058 53.7713C22.9753 51.6358 22.5949 51.4742 20.2711 52.27C19.1059 52.669 18.7796 52.8017 17.1877 53.5244C16.8094 53.6961 16.4789 53.8366 16.4532 53.8366C16.4276 53.8366 15.7836 54.1308 15.0221 54.4904C14.2606 54.85 13.6143 55.1441 13.586 55.1441C13.5576 55.1441 13.1041 55.3432 12.5782 55.5866C12.0524 55.8299 11.1238 56.2493 10.5147 56.5187C9.90568 56.788 9.16536 57.1167 8.86958 57.249C7.72262 57.7622 5.35015 58.7123 4.78724 58.8838C3.92995 59.1449 3.26036 59.118 2.99916 58.8119C2.69201 58.4518 2.56771 58.5944 2.56771 59.3068Z" fill="white"/>
<path d="M6.80179 11.0106C12.4043 11.3149 20.8603 11.6077 27.451 11.7255C43.2017 12.0071 59.7309 11.7039 66.0788 11.0169C66.4371 10.9781 67.4044 10.8925 68.2284 10.8266C70.021 10.6834 70.175 10.6361 70.0901 10.2555C69.9786 9.75526 69.6821 9.17916 69.4081 8.93027C69.1718 8.71562 69.0027 8.69928 67.8713 8.78179C58.5021 9.46496 33.4599 9.86006 21.9142 9.50688C13.3584 9.24515 5.18334 8.67717 1.55904 8.09265C0.498639 7.92163 0.352968 8.08514 0.352968 9.44646C0.352968 10.0809 0.41142 10.579 0.491725 10.6288C0.568046 10.6761 1.7259 10.7655 3.06474 10.8274C4.40358 10.8892 6.08525 10.9717 6.80179 11.0106Z" fill="white"/>
<path d="M14.7488 7.02544C17.615 7.0998 20.1066 7.18371 20.2857 7.2119C20.9207 7.31184 38.889 7.16237 41.3258 7.03688C46.6037 6.76506 54.5991 6.24362 56.5033 6.04703C56.8974 6.00635 58.0406 5.91145 59.0437 5.83615C64.2596 5.44462 65.2607 5.33042 65.5251 5.09677C65.6505 4.98598 65.7531 4.78885 65.7531 4.6587C65.7531 4.27122 65.3365 4.13687 64.625 4.29491C63.121 4.62897 56.9804 5.0105 45.8855 5.45922C33.0855 5.97692 10.7998 5.69073 4.26134 4.92469C1.82768 4.63957 1.13829 4.63051 0.863552 4.88005C0.540945 5.17307 0.544421 5.72768 0.871478 6.14497C1.06757 6.39516 1.29944 6.49541 1.83837 6.56299C2.65787 6.66575 7.31706 6.83264 14.7488 7.02544Z" fill="white"/>
<path d="M9.78678 2.28087C10.1474 2.70184 9.56323 2.65492 16.6379 2.83113C34.85 3.28476 55.3621 2.60346 63.1475 1.28634C64.8823 0.99286 64.8581 1.00114 64.8156 0.716639C64.7938 0.570907 64.6881 0.407225 64.5806 0.3529C64.0686 0.0940937 63.2616 -0.0570147 62.804 0.0202191C62.5272 0.0669429 61.4213 0.159777 60.3465 0.226516C57.9871 0.373022 56.8574 0.449572 54.5491 0.619361C53.5818 0.690513 51.2075 0.837576 49.2728 0.946167C47.3382 1.05476 44.8466 1.21726 43.7359 1.30729C41.1188 1.51943 19.9898 1.49894 16.5727 1.28095C14.0244 1.11838 11.3392 0.82089 10.6628 0.626199C10.171 0.484643 9.67794 0.628209 9.55542 0.948646C9.38742 1.38804 9.48035 1.92316 9.78678 2.28087Z" fill="white"/>
</svg>
