<?xml version="1.0" encoding="UTF-8" standalone="no"?>
<svg
   xmlns:dc="http://purl.org/dc/elements/1.1/"
   xmlns:cc="http://creativecommons.org/ns#"
   xmlns:rdf="http://www.w3.org/1999/02/22-rdf-syntax-ns#"
   xmlns:svg="http://www.w3.org/2000/svg"
   xmlns="http://www.w3.org/2000/svg"
   id="svg5782"
   version="1.1"
   viewBox="0 0 25.399999 25.400001"
   height="96"
   width="96">
  <defs
     id="defs5776">
    <clipPath
       id="clipPath20-8"
       clipPathUnits="userSpaceOnUse">
      <path
         id="path18-0-9"
         d="m 541.781,371.848 v 0 h 0.043 z" />
    </clipPath>
  </defs>
  <metadata
     id="metadata5779">
    <rdf:RDF>
      <cc:Work
         rdf:about="">
        <dc:format>image/svg+xml</dc:format>
        <dc:type
           rdf:resource="http://purl.org/dc/dcmitype/StillImage" />
        <dc:title></dc:title>
      </cc:Work>
    </rdf:RDF>
  </metadata>
  <g
     transform="translate(0,-271.59998)"
     id="layer1">
    <rect
       y="271.59998"
       x="0"
       height="25.4"
       width="25.4"
       id="rect6729"
       style="opacity:1;vector-effect:none;fill:none;fill-opacity:1;stroke:none;stroke-width:0.52916676;stroke-linecap:butt;stroke-linejoin:miter;stroke-miterlimit:4;stroke-dasharray:1.05833345, 2.11666688;stroke-dashoffset:0;stroke-opacity:1;paint-order:stroke markers fill" />
    <path
       id="path13476"
       d="m 7.1439936,289.9538 c 0.0128,-0.165 0.0246,-0.95344 0.0264,-1.75208 l 0.003,-1.45206 h 0.26401 0.26401 v 1.12291 c 0,1.27705 -0.0361,1.18119 0.4448,1.18119 0.61324,0 1.15591,-0.26959 1.40777,-0.69936 0.19446,-0.33182 0.21853,-0.82832 0.0572,-1.17937 -0.16502,-0.35899 -0.32298,-0.52899 -0.65691,-0.70698 -0.20234,-0.10784 -0.38182,-0.16234 -0.6025,-0.18295 -0.17286,-0.0162 -0.31431,-0.0452 -0.31431,-0.0646 0,-0.0879 0.75161,-0.88177 1.15811,-1.22325 1.4319904,-1.20296 3.3909594,-2.11232 5.4661994,-2.53745 0.68961,-0.14127 1.62718,-0.27033 1.96385,-0.27033 0.126961,0 0.32931,-0.0135 0.44965,-0.03 l 0.21881,-0.03 -0.18446,-0.53404 c -0.37153,-1.07566 -0.86662,-2.07334 -1.38175,-2.78445 -0.437821,-0.60438 -0.43249,-0.60861 0.0949,-0.0753 0.76316,0.77177 1.4958,1.95779 1.8666,3.02171 0.0598,0.17161 0.12935,0.33902 0.15452,0.37202 0.0285,0.0373 0.1661,0.0601 0.36391,0.0603 0.74713,4.7e-4 2.251849,0.30053 3.126269,0.62312 0.48165,0.17769 1.3206,0.56813 1.28889,0.59984 -0.0122,0.0122 -0.24777,-0.0539 -0.52352,-0.14673 -0.91914,-0.30962 -2.16194,-0.51718 -3.47322,-0.58007 l -0.63894,-0.0307 0.13676,0.66715 c 0.402771,1.96482 0.292971,3.86765 -0.313869,5.43894 -0.17281,0.44749 -0.407641,0.93712 -0.43588,0.90888 -0.009,-0.009 0.0446,-0.23712 0.1201,-0.50599 0.42805,-1.52476 0.52083,-3.4853 0.24187,-5.11078 -0.0876,-0.51048 -0.2684,-1.32998 -0.30049,-1.36208 -0.0293,-0.0293 -1.18525,0.0825 -1.7825,0.17249 -2.62522,0.39552 -5.08561,1.39861 -6.8188004,2.78 -0.40587,0.32349 -0.4086,0.34446 -0.053,0.40753 0.53731,0.0953 1.13624,0.5496 1.3636004,1.03431 0.099,0.21098 0.1237,0.33632 0.12316,0.62402 -9.52e-4,0.43965 -0.11089,0.70917 -0.4280704,1.04826 -0.40015,0.42779 -1.03816,0.65709 -1.73964,0.62523 l -0.38792,-0.0176 -0.0296,0.28315 c -0.0163,0.15574 -0.0296,0.35559 -0.0296,0.44412 v 0.16097 h -0.26643 -0.26641 z m 7.4666494,-0.51344 c -0.31335,-0.0573 -0.67101,-0.25234 -0.87309,-0.47601 -0.18,-0.19924 -0.32368,-0.57506 -0.32368,-0.84663 0,-0.47841 0.33251,-0.98201 0.77823,-1.17865 0.31008,-0.13681 1.09532,-0.17853 1.54987,-0.0824 0.24498,0.0518 0.29042,0.0779 0.30408,0.17449 0.0246,0.17403 -0.0408,0.19799 -0.32808,0.12006 -0.36545,-0.0992 -0.92137,-0.0657 -1.188,0.0714 -0.52644,0.27077 -0.66774,1.11683 -0.26622,1.59401 0.29742,0.35347 0.92657,0.45137 1.63776,0.25485 0.1025,-0.0283 0.11028,-0.0178 0.096,0.13001 -0.0136,0.14058 -0.0367,0.16531 -0.18354,0.19634 -0.28572,0.0604 -0.97286,0.0846 -1.20333,0.0424 z m -3.00381,-0.0525 c -0.44049,-0.0872 -0.81599,-0.36019 -1.009149,-0.73372 -0.10295,-0.19909 -0.1385,-0.70222 -0.0675,-0.95553 0.0871,-0.31091 0.335359,-0.61746 0.629569,-0.77749 0.20462,-0.1113 0.33616,-0.14504 0.63242,-0.16219 0.51635,-0.0299 0.77356,0.0498 1.04685,0.32428 0.22259,0.22356 0.30836,0.41986 0.36544,0.83628 l 0.0305,0.22221 h -1.08748 -1.08749 l 0.03,0.132 c 0.1535,0.67463 0.679,0.9596 1.53996,0.83511 0.21935,-0.0317 0.43305,-0.0708 0.4749,-0.0869 0.0618,-0.0237 0.0732,0.001 0.0606,0.1333 -0.0153,0.15982 -0.0206,0.1634 -0.32754,0.21732 -0.36489,0.0641 -0.94775,0.0713 -1.23102,0.0153 z m 0.98995,-1.66618 c -0.002,-0.24285 -0.17264,-0.53726 -0.35588,-0.61383 -0.49052,-0.20495 -0.98046,0.0443 -1.10852,0.56389 l -0.032,0.13007 0.42474,0.0161 c 0.2336,0.009 0.57054,0.0205 0.74875,0.026 l 0.32401,0.01 -9.53e-4,-0.13201 z m -6.4642794,1.07556 -0.24693,-0.49652 -0.47204,-0.0312 c -0.25963,-0.0172 -0.73466,-0.0314 -1.05562,-0.0315 l -0.58358,-2.7e-4 -0.24805,0.4829 c -0.13643,0.2656 -0.27636,0.49378 -0.31097,0.50706 -0.0346,0.0133 -0.14758,0.0174 -0.25104,0.009 l -0.18811,-0.015 0.91465,-1.72808 0.91466,-1.72808 0.29875,-0.0143 0.29876,-0.0143 0.889429,1.77834 0.889421,1.77834 h -0.3012 -0.301201 z m -0.44953,-0.88355 c -0.001,-0.0198 -0.1904,-0.40813 -0.42002,-0.86296 l -0.41747,-0.82696 -0.43981,0.82696 -0.4398,0.82696 0.58381,0.0263 c 1.01251,0.0455 1.1359,0.0466 1.13329,0.01 z"
       style="fill:#707374;fill-opacity:1;stroke-width:0.04800218" />
  </g>
</svg>
