<?xml version="1.0" encoding="UTF-8" standalone="no"?>
<svg
   xmlns:dc="http://purl.org/dc/elements/1.1/"
   xmlns:cc="http://creativecommons.org/ns#"
   xmlns:rdf="http://www.w3.org/1999/02/22-rdf-syntax-ns#"
   xmlns:svg="http://www.w3.org/2000/svg"
   xmlns="http://www.w3.org/2000/svg"
   id="svg5782"
   version="1.1"
   viewBox="0 0 25.399999 25.400001"
   height="96"
   width="96">
  <defs
     id="defs5776" />
  <metadata
     id="metadata5779">
    <rdf:RDF>
      <cc:Work
         rdf:about="">
        <dc:format>image/svg+xml</dc:format>
        <dc:type
           rdf:resource="http://purl.org/dc/dcmitype/StillImage" />
        <dc:title></dc:title>
      </cc:Work>
    </rdf:RDF>
  </metadata>
  <g
     transform="translate(0,-271.59998)"
     id="layer1">
    <rect
       y="271.59998"
       x="0.094881378"
       height="25.4"
       width="25.4"
       id="rect6729"
       style="opacity:1;vector-effect:none;fill:none;fill-opacity:1;stroke:none;stroke-width:0.52916676;stroke-linecap:butt;stroke-linejoin:miter;stroke-miterlimit:4;stroke-dasharray:1.05833345, 2.11666688;stroke-dashoffset:0;stroke-opacity:1;paint-order:stroke markers fill" />
    <path
       id="path4984"
       d="m 9.7555413,282.40152 a 0.13230489,0.13230489 0 0 0 -0.011401,5.2e-4 l -0.1679401,0.0176 -0.1700199,0.0155 a 0.13230489,0.13230489 0 0 0 -0.1188501,0.13074 l -0.015999,1.68362 -0.013401,1.68362 a 0.13230489,0.13230489 0 0 0 0.13281,0.13487 h 0.1974001 0.19689 a 0.13230489,0.13230489 0 0 0 0.1328099,-0.13281 v -0.83612 c 1.299e-4,-0.51546 0.0504,-0.84273 0.1426198,-1.01545 0.0922,-0.17272 0.20583,-0.22479 0.45889,-0.22479 0.25306,0 0.36722,0.0521 0.4594,0.22479 0.0922,0.17272 0.14044,0.49999 0.14056,1.01545 v 0.83612 a 0.13230489,0.13230489 0 0 0 0.13281,0.13281 h 0.17002 0.16795 a 0.13230489,0.13230489 0 0 0 0.13281,-0.13281 v -0.85163 c 0,-0.36754 -0.005,-0.58902 -0.0217,-0.75189 -0.0168,-0.16287 -0.0508,-0.27321 -0.10335,-0.37672 -0.33357,-0.65654 -1.14554,-0.8243 -1.7130798,-0.43976 -0.004,-0.0681 -0.007,-0.15443 -0.004,-0.37879 l 0.009,-0.60152 A 0.13230489,0.13230489 0 0 0 9.754892,282.40155 Z m 15.3634097,0.005 a 0.13230489,0.13230489 0 0 0 -0.13074,0.13281 v 0.65009 0.39274 l -0.0134,-0.01 c -0.736689,-0.53584 -1.713779,-0.31653 -2.126999,0.48214 -0.31939,0.6173 -0.15695,1.27797 0.24391,1.6955 0.40086,0.41752 1.05117,0.60134 1.6738,0.29869 0.33344,-0.16207 0.56306,-0.35826 0.68161,-0.70486 0.11856,-0.34661 0.14263,-0.82484 0.14263,-1.60766 v -1.19734 a 0.13230489,0.13230489 0 0 0 -0.13281,-0.13229 h -0.16795 z m -12.24938,0.0171 c -0.11284,1.2e-4 -0.21639,0.0521 -0.27596,0.13694 -0.0794,0.1128 -0.0707,0.2885 0.0429,0.40256 0.0907,0.091 0.22486,0.12122 0.33435,0.0816 0.10949,-0.0395 0.19046,-0.1458 0.20516,-0.27336 0.008,-0.0683 0.009,-0.13616 -0.0274,-0.20309 -0.036,-0.0669 -0.10294,-0.10704 -0.16433,-0.12661 -0.0384,-0.0122 -0.0771,-0.0181 -0.11472,-0.0181 z m 2.28564,0.85318 c -0.19576,0.0158 -0.38794,0.0819 -0.5612,0.19999 -0.021,0.0143 -0.0307,0.0207 -0.047,0.0315 -0.0153,-0.0337 -0.0127,-0.0729 -0.045,-0.0941 -0.0686,-0.0452 -0.13127,-0.045 -0.20515,-0.045 h -0.17002 a 0.13230489,0.13230489 0 0 0 -0.13281,0.13281 v 1.21698 1.21698 a 0.13230489,0.13230489 0 0 0 0.13281,0.13281 h 0.17002 0.16795 a 0.13230489,0.13230489 0 0 0 0.13281,-0.13281 v -0.80667 c 1.2e-4,-0.50609 0.0775,-0.83532 0.18551,-1.01958 0.10763,-0.18358 0.22613,-0.23544 0.39068,-0.22841 0.25499,0.0181 0.39221,0.0613 0.49402,0.21446 0.10215,0.15363 0.16962,0.45948 0.17777,1.00407 a 0.13230489,0.13230489 0 0 0 0,0.002 l 0.0196,0.83613 a 0.13230489,0.13230489 0 0 0 0.13281,0.13074 h 0.16433 0.16381 a 0.13230489,0.13230489 0 0 0 0.13074,-0.13281 v -0.83613 c 1.3e-4,-0.51433 0.0507,-0.84224 0.14263,-1.01544 0.092,-0.1732 0.20459,-0.22479 0.45527,-0.22479 0.12987,0 0.2257,0.0187 0.29662,0.0527 0.0709,0.034 0.12233,0.0829 0.16795,0.16795 0.0912,0.17007 0.13888,0.49683 0.13901,1.01957 v 0.83613 a 0.13230489,0.13230489 0 0 0 0.13281,0.13281 h 0.1695 0.16846 a 0.13230489,0.13230489 0 0 0 0.13281,-0.13333 v -0.85163 c 0,-0.56167 -0.0341,-0.9361 -0.16433,-1.21646 -0.130261,-0.28037 -0.367141,-0.44204 -0.689361,-0.54881 -0.23618,-0.0783 -0.52446,-0.0242 -0.78497,0.0718 -0.13026,0.048 -0.25273,0.10904 -0.35398,0.17983 -0.0498,0.0348 -0.0725,0.0859 -0.11111,0.12713 -0.0254,-0.0318 -0.0265,-0.048 -0.0682,-0.0858 -0.21825,-0.19798 -0.47693,-0.31094 -0.73846,-0.33434 v 5.1e-4 c -0.0654,-0.006 -0.13111,-0.006 -0.19637,-10e-4 z m 5.29322,0.004 c -0.47577,0.0307 -0.94262,0.29098 -1.19631,0.786 -0.32039,0.62519 -0.14856,1.28312 0.26562,1.69137 0.39604,0.39038 1.02028,0.5336 1.62677,0.2713 6.62e-4,-2.9e-4 10e-4,2.9e-4 0.002,0 a 0.13230489,0.13230489 0 0 0 0.0801,-0.0114 c 0.15615,-0.0781 0.31727,-0.21056 0.44907,-0.34778 0.0659,-0.0686 0.12371,-0.13809 0.16794,-0.20515 0.0442,-0.0671 0.0822,-0.12593 0.0822,-0.21704 0,-0.0462 -0.0205,-0.0996 -0.0548,-0.13281 -0.0343,-0.0332 -0.0733,-0.0472 -0.10748,-0.0543 -0.0683,-0.0141 -0.13046,-0.005 -0.19534,0.0114 -0.12977,0.0326 -0.26864,0.0975 -0.36535,0.2129 -0.25589,0.30536 -0.63236,0.36236 -0.95498,0.24598 -0.30113,-0.10863 -0.50514,-0.38871 -0.53692,-0.74569 0.0141,-0.002 0.008,-0.002 0.0274,-0.004 0.14844,-0.0143 0.44505,-0.0226 0.98237,-0.0295 l 1.17977,-0.0134 a 0.13230489,0.13230489 0 0 0 0.12299,-0.1757 L 21.92167,284.2617 c -0.20306,-0.60204 -0.72739,-0.94053 -1.26918,-0.9803 -0.0677,-0.005 -0.13615,-0.005 -0.20412,-5.2e-4 z m -19.1073598,10e-4 c -0.0776,0.005 -0.15407,0.0157 -0.22944,0.0325 v 5.2e-4 c -0.60297015,0.13501 -1.11859015,0.6588 -1.111560148296,1.4335 C 0.00907105,285.70746 0.90633105,286.31527 1.8221812,286.09191 c 7.911e-4,-1.9e-4 0.001,0.002 0.002,0.002 a 0.13230489,0.13230489 0 0 0 0.0744,0.0232 l -0.002,-0.0134 c 0.0162,-0.005 0.0287,0.011 0.045,0.006 a 0.13230489,0.13230489 0 0 0 0.0351,-0.0176 0.13230489,0.13230489 0 0 0 0.01,-0.008 c 0.11551,-0.045 0.24712,-0.11176 0.34933,-0.18552 0.009,0.0374 0.0317,0.0826 0.0687,0.11317 0.075,0.062 0.14754,0.0568 0.22841,0.0568 H 2.8067511 A 0.13230489,0.13230489 0 0 0 2.939561,285.93163 L 2.91836,285.1539 c -0.016599,-0.62053 -0.042299,-0.8467 -0.141069,-1.03509 -0.3176998,-0.60628 -0.8932098,-0.8709 -1.4360898,-0.83716 z m 5.8564901,0.001 c -0.2604802,0.0114 -0.5147701,0.0924 -0.7327701,0.22738 -0.5813301,0.36013 -0.9251199,1.11977 -0.5255501,1.90221 0.3615902,0.7081 1.2482301,0.97398 1.9843702,0.60564 0.22903,-0.11458 0.3892399,-0.25647 0.5177999,-0.4594 l 0.1643301,-0.25993 a 0.13230489,0.13230489 0 0 0 -0.0977,-0.20309 l -0.1720799,-0.0176 c -0.0808,-0.008 -0.16534,-0.002 -0.2402901,0.0351 -0.075,0.037 -0.13066,0.0953 -0.1932699,0.17002 -0.2550002,0.30429 -0.61277,0.37345 -0.92191,0.27543 -0.3091402,-0.098 -0.5634302,-0.36218 -0.6015101,-0.76016 -0.0398,-0.41636 0.1923299,-0.71991 0.5095301,-0.85525 0.3171899,-0.13533 0.7098499,-0.0947 0.99993,0.21705 0.0686,0.0737 0.1302999,0.1306 0.2072299,0.16588 0.0769,0.0353 0.1614702,0.0414 0.24443,0.0331 l 0.1772499,-0.0196 a 0.13230489,0.13230489 0 0 0 0.094,-0.21083 l -0.1953401,-0.25374 c -0.2664298,-0.34981 -0.6085599,-0.5315 -0.95705,-0.58032 v 5.1e-4 c -0.0871,-0.0122 -0.1746499,-0.0162 -0.26148,-0.0124 z m 5.5097397,0.0786 a 0.13230489,0.13230489 0 0 0 -0.12144,0.13281 v 1.22111 1.2206 a 0.13230489,0.13230489 0 0 0 0.13074,0.13281 h 0.17002 0.17208 a 0.13230489,0.13230489 0 0 0 0.13074,-0.13488 l -0.0134,-1.20302 -0.016,-1.20303 a 0.13230489,0.13230489 0 0 0 -0.11679,-0.12919 l -0.15658,-0.0181 -0.154,-0.0176 a 0.13230489,0.13230489 0 0 0 -0.0253,-0.002 z m -8.5571,0.0139 c -0.0432,-0.004 -0.0767,0.001 -0.1152398,0.006 l -0.15606,0.0176 a 0.13230489,0.13230489 0 0 0 -0.1173102,0.12868 l -0.013399,1.20303 -0.015499,1.20302 a 0.13230489,0.13230489 0 0 0 0.1328,0.13488 h 0.1695 0.1700199 a 0.13230489,0.13230489 0 0 0 0.13281,-0.13281 v -0.57981 c 2.4e-4,-0.46182 0.0509,-0.77316 0.1524402,-0.971 0.1015598,-0.19784 0.2446999,-0.29992 0.50178,-0.36897 0.2166901,-0.0582 0.36995,-0.17831 0.39481,-0.3514 0.012401,-0.0866 -0.0357,-0.19059 -0.1173099,-0.23668 -0.0816,-0.0461 -0.1745599,-0.0494 -0.2831801,-0.0289 -0.2424201,0.0457 -0.4655602,0.1702 -0.6521602,0.31626 0.00201,-0.1016 0.019201,-0.17095 -0.0429,-0.25993 -0.033402,-0.0479 -0.097802,-0.0757 -0.1410822,-0.0801 z m 19.98276,0.48421 c 0.51835,0 0.79416,0.35485 0.83974,0.75396 0.0456,0.39911 -0.14713,0.82064 -0.6506,0.96066 -0.11706,0.0326 -0.17548,0.0481 -0.19896,0.0506 -0.0235,0.002 -0.0163,0.003 -0.0605,-0.0114 -0.0501,-0.0168 -0.13498,-0.0379 -0.22066,-0.0568 -0.23063,-0.0509 -0.37602,-0.17391 -0.46509,-0.33796 -0.0891,-0.16406 -0.11716,-0.37294 -0.0837,-0.57774 0.0669,-0.4096 0.35941,-0.78135 0.83974,-0.78135 z m -22.6446098,0.01 c 0.22468,0.005 0.42594,0.10181 0.57619,0.25218 0.2404,0.2406 0.34423,0.61327 0.15606,1.00356 -0.17182,0.35639 -0.67826,0.56638 -1.03508,0.43563 -0.37565015,-0.13765 -0.57211015,-0.45158 -0.59583015,-0.77515 -0.0237,-0.32356 0.1245701,-0.64826 0.47491015,-0.81855 0.14585,-0.0709 0.28894,-0.10073 0.42375,-0.0977 z m 19.0096898,0.007 v 5.2e-4 c 0.25487,-0.0111 0.48657,0.11009 0.65216,0.28525 h -0.59532 c -0.31243,0 -0.42551,-0.005 -0.55087,-0.0103 0.14062,-0.12809 0.28531,-0.26636 0.49403,-0.27544 z"
       style="fill:#707374;fill-opacity:1;stroke:none;stroke-width:0.26458332;stroke-linecap:round;stroke-linejoin:round;stroke-miterlimit:4;stroke-dasharray:none;stroke-opacity:1" />
  </g>
</svg>
