<?xml version="1.0" encoding="UTF-8" standalone="no"?>
<svg
   xmlns:dc="http://purl.org/dc/elements/1.1/"
   xmlns:cc="http://creativecommons.org/ns#"
   xmlns:rdf="http://www.w3.org/1999/02/22-rdf-syntax-ns#"
   xmlns:svg="http://www.w3.org/2000/svg"
   xmlns="http://www.w3.org/2000/svg"
   id="svg5782"
   version="1.1"
   viewBox="0 0 25.399999 25.400001"
   height="96"
   width="96">
  <defs
     id="defs5776">
    <clipPath
       id="clipPath20-8"
       clipPathUnits="userSpaceOnUse">
      <path
         id="path18-0-9"
         d="m 541.781,371.848 v 0 h 0.043 z" />
    </clipPath>
  </defs>
  <metadata
     id="metadata5779">
    <rdf:RDF>
      <cc:Work
         rdf:about="">
        <dc:format>image/svg+xml</dc:format>
        <dc:type
           rdf:resource="http://purl.org/dc/dcmitype/StillImage" />
        <dc:title></dc:title>
      </cc:Work>
    </rdf:RDF>
  </metadata>
  <g
     transform="translate(0,-271.59998)"
     id="layer1">
    <rect
       y="271.59998"
       x="0"
       height="25.4"
       width="25.4"
       id="rect6729"
       style="opacity:1;vector-effect:none;fill:none;fill-opacity:1;stroke:none;stroke-width:0.52916676;stroke-linecap:butt;stroke-linejoin:miter;stroke-miterlimit:4;stroke-dasharray:1.05833345, 2.11666688;stroke-dashoffset:0;stroke-opacity:1;paint-order:stroke markers fill" />
    <g
       style="fill:#707374;fill-opacity:1"
       id="g22"
       transform="matrix(0.21624249,0,0,0.21624249,1.3588962,281.77398)">
      <path
         style="fill:#707374;fill-opacity:1"
         id="path6-71"
         d="M 75.2,9.8 V 1.5 H 79 v 21.4 h -3.6 v -2.2 c -0.1,0 -0.1,0.1 -0.1,0.1 -0.8,1.3 -2.2,2.2 -3.7,2.4 -2.1,0.4 -4.3,0 -6,-1.3 -1.4,-1.1 -2.4,-2.6 -2.7,-4.4 -0.5,-2.2 -0.2,-4.5 0.9,-6.5 1.3,-2.4 4,-3.8 6.8,-3.5 1.7,0 3.4,0.8 4.4,2.1 0.1,0.1 0.1,0.1 0.2,0.2 z m -8.8,5.6 c 0,0.3 0,0.6 0.1,0.9 0.2,1.6 1.3,2.9 2.8,3.4 1.5,0.6 3.2,0.3 4.4,-0.7 1.2,-1 1.8,-2.5 1.5,-4.1 -0.3,-2.4 -2.5,-4.2 -4.9,-3.9 -2.2,0.2 -3.9,2.1 -3.9,4.4 z"
         class="st0" />
      <path
         style="fill:#707374;fill-opacity:1"
         id="path8-6"
         d="M 33.6,15.3 V 23 H 29.8 V 1.5 h 3.8 V 14 h 0.1 l 1,-1.1 4.6,-5 c 0.1,-0.1 0.2,-0.1 0.3,-0.1 h 4.6 0.1 l -0.9,0.9 c -1.8,1.9 -3.6,3.8 -5.4,5.7 -0.1,0.1 -0.1,0.2 -0.1,0.4 0,0 0,0 0.1,0.1 l 6.5,7.8 0.2,0.2 H 44.5 40 c -0.2,0 -0.3,-0.1 -0.4,-0.2 l -5.7,-7.3 -0.2,-0.2 z"
         class="st0" />
      <path
         style="fill:#707374;fill-opacity:1"
         id="path10-9"
         d="M 59.5,22.9 H 56.1 V 20.8 C 56,20.9 56,20.9 55.9,21 c -0.9,1.3 -2.4,2.2 -4,2.3 -1.3,0.2 -2.6,-0.1 -3.8,-0.6 -1.6,-0.6 -2.6,-2.2 -2.5,-3.9 -0.1,-1.8 0.9,-3.4 2.5,-4.1 1,-0.5 2.1,-0.8 3.3,-0.9 1.3,-0.1 2.5,-0.1 3.8,-0.2 0.3,0 0.6,0 0.8,0 0.2,-1 -0.2,-2.1 -1.1,-2.7 -0.8,-0.5 -1.8,-0.7 -2.8,-0.6 -1.3,0.1 -2.5,0.6 -3.5,1.5 l -2,-2 c 0.7,-0.7 1.5,-1.2 2.4,-1.6 2.1,-0.9 4.4,-1 6.6,-0.4 2,0.5 3.5,2.2 3.7,4.3 0.1,0.6 0.1,1.2 0.1,1.8 0,2.9 0,5.8 0,8.7 z m -3.6,-6.7 h -0.1 c -1.2,0.1 -2.4,0.1 -3.5,0.2 -0.8,0.1 -1.5,0.3 -2.1,0.8 -0.5,0.3 -0.8,0.9 -0.7,1.5 0.1,0.8 0.6,1.4 1.3,1.6 0.7,0.3 1.5,0.3 2.2,0.2 1,-0.1 1.9,-0.7 2.5,-1.5 0.3,-0.9 0.5,-1.9 0.4,-2.8 z"
         class="st0" />
      <path
         style="fill:#707374;fill-opacity:1"
         id="path12-8"
         d="m 13.9,22.9 h -3.4 v -2.1 c -0.1,0 -0.1,0.1 -0.1,0.1 C 9.6,22.2 8.2,23 6.7,23.2 5.3,23.4 3.8,23.2 2.5,22.6 1,22 0,20.6 0,19 c -0.1,-1.8 0.8,-3.4 2.4,-4.2 1.1,-0.5 2.2,-0.9 3.4,-1 1.5,-0.2 2.9,-0.2 4.4,-0.2 h 0.3 c 0.1,-0.8 -0.1,-1.7 -0.7,-2.3 -0.7,-0.7 -1.6,-1 -2.6,-1 -1.5,-0.1 -3,0.5 -4.1,1.5 H 3 L 1,9.8 C 1.8,9 2.8,8.4 3.9,8 5.8,7.3 8,7.2 10,7.7 c 2.1,0.5 3.6,2.2 3.8,4.3 0.1,0.6 0.1,1.2 0.1,1.8 0,2.9 0,5.8 0,8.7 z M 10.2,16.2 H 10 c -1.1,0 -2.1,0 -3.2,0.2 -0.8,0 -1.6,0.3 -2.3,0.8 -0.5,0.3 -0.8,0.8 -0.8,1.3 0,0.8 0.4,1.5 1.1,1.8 0.9,0.4 1.9,0.4 2.8,0.2 1.1,-0.2 2,-1 2.3,-2 0.3,-0.8 0.4,-1.6 0.3,-2.3 z"
         class="st0" />
      <path
         style="fill:#707374;fill-opacity:1"
         id="path14-1"
         d="M 94.9,22.9 H 91.1 V 7.8 h 3.6 v 2.4 c 0,0 0.1,-0.1 0.1,-0.1 0.8,-1.6 2.4,-2.7 4.2,-2.7 1.2,-0.1 2.5,0.2 3.6,0.8 1.1,0.7 1.9,1.9 2.1,3.2 0.1,0.7 0.2,1.3 0.2,2 0,3 0,6.1 0,9.1 v 0.3 h -3.8 v -0.3 c 0,-2.5 0,-5.1 0,-7.6 0,-0.9 -0.1,-1.7 -0.4,-2.5 -0.4,-1.1 -1.4,-1.7 -2.5,-1.6 -1.8,0 -3.2,1.4 -3.3,3.1 0,0.3 0,0.7 0,1 0,2.5 0,5.1 0,7.6 z"
         class="st0" />
      <path
         style="fill:#707374;fill-opacity:1"
         id="path16-33"
         d="m 21.5,22.9 h -3.8 c 0,-0.1 0,-0.2 0,-0.3 0,-4.4 0,-8.7 0,-13 0,-0.6 0.2,-1.2 0.6,-1.6 0.5,-0.5 1.3,-0.7 2,-0.4 0.7,0.3 1.2,1 1.2,1.7 0,0.3 0,0.6 0,0.9 h 0.1 L 21.7,10 c 1.1,-2 3.4,-3 5.5,-2.4 0.1,0 0.2,0.1 0.2,0.2 0,0 0,0 0,0 0,1.1 0,2.2 0,3.4 0,0 0,0 0,0.1 -0.5,-0.1 -1.1,-0.2 -1.6,-0.2 -0.9,-0.1 -1.8,0.1 -2.6,0.6 -1.1,0.7 -1.8,2 -1.7,3.3 0,2.5 0,5.1 0,7.6 z"
         class="st0" />
      <path
         style="fill:#707374;fill-opacity:1"
         id="path18-3"
         d="m 86.9,22.9 h -3.7 c 0,-0.1 0,-0.2 0,-0.3 0,-4.4 0,-8.8 0,-13.2 -0.1,-0.9 0.5,-1.8 1.4,-2 1,-0.3 2,0.3 2.3,1.3 0,0.1 0.1,0.3 0.1,0.5 0,4.5 0,8.9 0,13.4 -0.1,0.1 -0.1,0.2 -0.1,0.3 z"
         class="st0" />
      <circle
         style="fill:#707374;fill-opacity:1"
         id="ellipse20"
         cy="2.8"
         cx="85.099998"
         class="st0"
         r="2.8" />
    </g>
  </g>
</svg>
