<?xml version="1.0" encoding="UTF-8" standalone="no"?>
<svg
   xmlns:dc="http://purl.org/dc/elements/1.1/"
   xmlns:cc="http://creativecommons.org/ns#"
   xmlns:rdf="http://www.w3.org/1999/02/22-rdf-syntax-ns#"
   xmlns:svg="http://www.w3.org/2000/svg"
   xmlns="http://www.w3.org/2000/svg"
   id="svg5782"
   version="1.1"
   viewBox="0 0 25.399999 25.400001"
   height="96"
   width="96">
  <defs
     id="defs5776" />
  <metadata
     id="metadata5779">
    <rdf:RDF>
      <cc:Work
         rdf:about="">
        <dc:format>image/svg+xml</dc:format>
        <dc:type
           rdf:resource="http://purl.org/dc/dcmitype/StillImage" />
        <dc:title></dc:title>
      </cc:Work>
    </rdf:RDF>
  </metadata>
  <g
     transform="translate(0,-271.59998)"
     id="layer1">
    <rect
       y="271.59998"
       x="0"
       height="25.4"
       width="25.4"
       id="rect6729"
       style="opacity:1;vector-effect:none;fill:none;fill-opacity:1;stroke:none;stroke-width:0.52916676;stroke-linecap:butt;stroke-linejoin:miter;stroke-miterlimit:4;stroke-dasharray:1.05833345, 2.11666688;stroke-dashoffset:0;stroke-opacity:1;paint-order:stroke markers fill" />
    <g
       style="fill:#707374;fill-opacity:1;stroke:none"
       transform="matrix(0.34969271,0,0,0.3496927,-71.708245,259.2432)"
       id="g6432">
      <path
         class="cls-1"
         d="m 264.60421,79.486001 -0.55827,0.15346 v -0.0318 c -0.11113,0.0212 -11.34798,2.27806 -19.28813,0.30427 -0.082,-0.0159 -7.43214,-1.43669 -13.36939,-7.87664 l -1.50813,-1.79652 c -0.11377,-0.14817 -0.22754,-0.29634 -0.34131,-0.44715 l -0.0635,-0.0979 2.98714,-4.00314 h -1.54781 l -2.20133,2.92364 a 26.06675,26.06675 0 0 0 -4.58258,-4.7625 c -3.06123,-2.394475 -7.83167,-4.688413 -13.19478,-1.92616 v 0 l 0.0582,0.10848 h 0.0132 a 9.6149583,9.6149583 0 0 1 5.25463,-0.75142 c 2.27806,0.288395 5.43719,1.49754 8.636,5.26256 l 0.23812,0.28575 a 27.127729,27.127729 0 0 1 2.08492,2.93159 l -3.13796,3.86556 h 1.5875 l 2.27013,-2.80988 c 1.7145,2.35479 6.75746,8.31057 15.13681,10.31875 0.0423,0 2.3495,0.69321 6.65956,0.69321 3.61157,0 8.63071,-0.47889 14.89869,-2.22779 z"
         id="path8-99"
         style="fill:#707374;fill-opacity:1;stroke:none;stroke-width:0.26458332" />
      <path
         d="m 220.36852,72.628001 q -1.42346,1.19592 -2.74108,1.19327 a 2.6458333,2.6458333 0 0 1 -1.80182,-0.61912 1.9764375,1.9764375 0 0 1 -0.71437,-1.56104 2.2013333,2.2013333 0 0 1 1.20121,-2.0029 q 1.20121,-0.6985 3.45546,-0.69585 h 0.37041 v -0.96044 q 0,-1.38377 -1.5875,-1.38377 a 6.2468125,6.2468125 0 0 0 -2.68552,0.70114 v -1.19327 a 8.6889167,8.6889167 0 0 1 3.00831,-0.59002 q 1.45521,0 2.14578,0.60325 0.69056,0.60325 0.69056,1.85209 v 3.60891 q 0,1.23561 0.83608,1.23561 a 2.2648333,2.2648333 0 0 0 0.30692,-0.0291 l 0.11377,0.79375 a 2.9606875,2.9606875 0 0 1 -1.19063,0.23283 q -1.10331,0.008 -1.40758,-1.18533 z m -0.23283,-0.79375 v -2.04523 l -0.50536,-0.0132 a 4.3762083,4.3762083 0 0 0 -2.11666,0.44715 q -0.80963,0.44715 -0.80963,1.18533 a 1.1297708,1.1297708 0 0 0 0.40217,0.87577 1.4181667,1.4181667 0 0 0 0.97366,0.35984 3.4739792,3.4739792 0 0 0 2.05582,-0.79904 z"
         id="path10-78"
         style="fill:#707374;fill-opacity:1;stroke:none;stroke-width:0.26458332" />
      <path
         d="m 235.06083,64.248651 v -1.44198 h 1.5875 v 1.44198 z m 0,9.39006 v -7.94808 h 1.5875 v 7.9375 z"
         id="path12-2"
         style="fill:#707374;fill-opacity:1;stroke:none;stroke-width:0.26458332" />
      <path
         d="m 239.85508,76.273961 0.18521,-1.24354 a 6.9135625,6.9135625 0 0 0 2.72256,0.58737 q 2.67494,0 2.67494,-2.58233 v -1.25942 a 2.9765625,2.9765625 0 0 1 -1.16417,1.2409 3.33375,3.33375 0 0 1 -1.69597,0.43921 3.2014583,3.2014583 0 0 1 -2.51355,-1.03717 q -0.92339,-1.03187 -0.92604,-2.80723 a 4.1857083,4.1857083 0 0 1 1.05834,-2.95539 3.5454167,3.5454167 0 0 1 2.7305,-1.14036 3.39725,3.39725 0 0 1 2.52147,1.08479 v -0.91016 h 1.5875 v 5.7785 a 13.028083,13.028083 0 0 1 -0.21431,2.76489 2.9501042,2.9501042 0 0 1 -0.79375,1.4658 q -1.03716,1.00277 -3.24114,1.00277 a 9.9324583,9.9324583 0 0 1 -2.93159,-0.42863 z m 5.58271,-5.3975 v -3.29142 a 3.2676042,3.2676042 0 0 0 -2.28071,-0.98689 2.0505208,2.0505208 0 0 0 -1.7145,0.79375 q -0.62177,0.79375 -0.62177,2.20398 0,2.58762 2.02406,2.58762 1.37319,0.005 2.59292,-1.30439 z"
         id="path14-5"
         style="fill:#707374;fill-opacity:1;stroke:none;stroke-width:0.26458332" />
      <path
         d="m 254.59237,72.628001 q -1.42345,1.19592 -2.74372,1.19327 a 2.6458333,2.6458333 0 0 1 -1.79917,-0.61912 1.9737917,1.9737917 0 0 1 -0.71702,-1.56104 2.2013333,2.2013333 0 0 1 1.20385,-2.0029 q 1.20121,-0.6985 3.45546,-0.69585 h 0.37042 v -0.96044 q 0,-1.38377 -1.5875,-1.38377 a 6.2494583,6.2494583 0 0 0 -2.68023,0.70114 v -1.19327 a 8.6995,8.6995 0 0 1 3.01625,-0.59266 q 1.45521,0 2.14841,0.60325 0.69321,0.60325 0.69057,1.85208 v 3.61156 q 0,1.23561 0.83608,1.23561 a 2.2674792,2.2674792 0 0 0 0.30427,-0.0291 l 0.11377,0.79375 a 2.9580417,2.9580417 0 0 1 -1.19062,0.23283 q -1.11125,0.008 -1.42082,-1.18533 z m -0.23283,-0.79375 v -2.04523 l -0.508,-0.0132 a 4.3762083,4.3762083 0 0 0 -2.11667,0.44715 q -0.79375,0.44715 -0.80697,1.18533 a 1.1324167,1.1324167 0 0 0 0.39952,0.87577 1.4234583,1.4234583 0 0 0 0.9816,0.35984 3.4792708,3.4792708 0 0 0 2.05317,-0.79904 z"
         id="path16-3"
         style="fill:#707374;fill-opacity:1;stroke:none;stroke-width:0.26458332" />
      <path
         d="m 263.17546,73.628131 a 5.3234167,5.3234167 0 0 1 -1.27265,0.18256 2.667,2.667 0 0 1 -1.88383,-0.62971 2.2807083,2.2807083 0 0 1 -0.67733,-1.75419 v -4.67783 h -1.09803 v -1.08479 h 1.09538 v -1.44992 l 1.5875,-0.13758 v 1.5875 h 2.28865 v 1.08479 h -2.28865 v 4.40796 q 0,1.56369 1.48167,1.56369 a 3.8391042,3.8391042 0 0 0 0.76464,-0.0953 z"
         id="path18-4"
         style="fill:#707374;fill-opacity:1;stroke:none;stroke-width:0.26458332" />
      <path
         d="m 271.7506,73.382071 a 10.535708,10.535708 0 0 1 -2.72785,0.4392 q -1.9394,0 -3.15383,-1.16681 a 4.0057917,4.0057917 0 0 1 -1.22238,-3.02419 4.1857083,4.1857083 0 0 1 1.08479,-2.96068 3.5903958,3.5903958 0 0 1 2.74902,-1.15359 q 1.5875,0 2.4474,1.02659 0.8599,1.02658 0.86519,2.91041 v 0.43921 h -5.51921 q 0.3466,2.8284 3.048,2.82575 a 7.826375,7.826375 0 0 0 2.42887,-0.48948 z m -5.40543,-4.56671 h 3.85762 q 0,-2.21721 -1.81769,-2.21721 -1.81768,0 -2.03993,2.21721 z"
         id="path20-90"
         style="fill:#707374;fill-opacity:1;stroke:none;stroke-width:0.26458332" />
    </g>
  </g>
</svg>
