<?xml version="1.0" encoding="UTF-8" standalone="no"?>
<svg
   xmlns:dc="http://purl.org/dc/elements/1.1/"
   xmlns:cc="http://creativecommons.org/ns#"
   xmlns:rdf="http://www.w3.org/1999/02/22-rdf-syntax-ns#"
   xmlns:svg="http://www.w3.org/2000/svg"
   xmlns="http://www.w3.org/2000/svg"
   id="svg5782"
   version="1.1"
   viewBox="0 0 25.399999 25.400001"
   height="96"
   width="96">
  <defs
     id="defs5776">
    <clipPath
       id="clipPath20-8"
       clipPathUnits="userSpaceOnUse">
      <path
         id="path18-0-9"
         d="m 541.781,371.848 v 0 h 0.043 z" />
    </clipPath>
  </defs>
  <metadata
     id="metadata5779">
    <rdf:RDF>
      <cc:Work
         rdf:about="">
        <dc:format>image/svg+xml</dc:format>
        <dc:type
           rdf:resource="http://purl.org/dc/dcmitype/StillImage" />
        <dc:title></dc:title>
      </cc:Work>
    </rdf:RDF>
  </metadata>
  <g
     transform="translate(0,-271.59998)"
     id="layer1">
    <rect
       y="271.59998"
       x="0"
       height="25.4"
       width="25.4"
       id="rect6729"
       style="opacity:1;vector-effect:none;fill:none;fill-opacity:1;stroke:none;stroke-width:0.52916676;stroke-linecap:butt;stroke-linejoin:miter;stroke-miterlimit:4;stroke-dasharray:1.05833345, 2.11666688;stroke-dashoffset:0;stroke-opacity:1;paint-order:stroke markers fill" />
    <g
       transform="matrix(1.4126619,0,0,1.4126619,-96.402372,-72.115491)"
       id="g5734">
      <path
         style="fill:#707374;fill-opacity:1;fill-rule:evenodd;stroke:none;stroke-width:0.0019131"
         d="m 71.593037,249.61066 c -0.0086,0.004 -0.0136,0.0179 -0.01742,0.0427 l -0.01216,0.14136 c 0.09568,0.27277 0.298571,0.43806 0.521722,0.59964 l 0.0076,-0.0675 0.01183,-0.005 0.0125,0.0118 0.156812,0.12525 -0.05293,0.22158 c -0.01441,0.0602 -0.0072,0.0742 0.04405,0.10744 l 0.119335,0.0819 -0.01545,0.21369 c -0.0018,0.0541 -0.0116,0.0796 0.0457,0.10424 l 0.04274,0.005 c -10e-4,0.0288 -0.0044,0.0738 0.0033,0.10188 0.01367,0.0303 0.0379,0.0495 0.06674,0.0634 l -0.01315,0.36787 c -0.01384,0.0201 -0.02382,0.0433 -0.04602,0.0562 -0.02563,0.0123 -0.04519,0.0211 -0.06641,0.0411 -0.03208,0.0348 -0.04971,0.0637 -0.03781,0.11182 0.02858,0.0425 0.0574,0.0535 0.106838,0.0408 0.05782,-0.0233 0.101702,-0.0663 0.150566,-0.10294 0.02132,-0.014 0.04204,-0.0239 0.06772,-0.0259 l 0.02038,0.001 c 0.03082,0.005 0.06062,0.0119 0.08777,0.0276 0.03249,0.0225 0.05631,0.046 0.09534,0.0579 0.03323,0.006 0.05938,0.004 0.08942,-0.0122 0.03868,-0.0291 0.04199,-0.0641 0.01644,-0.10424 -0.0272,-0.0304 -0.08129,-0.025 -0.100921,-0.0553 l -0.01775,-0.0424 0.01315,-0.35604 c 0.0183,-0.0188 0.03953,-0.0405 0.04799,-0.0658 0.0063,-0.0282 0.0031,-0.0796 0.0022,-0.10815 0.02635,-5.1e-4 0.05512,-0.001 0.07528,-0.0178 0.02122,-0.0274 0.02815,-0.0354 0.03058,-0.0697 l 3.37e-4,-0.0237 0.164373,0.13118 0.171606,0.0845 c 0.0605,0.0289 0.03984,-0.0203 0.02762,-0.0384 l -0.09928,-0.14991 -0.197248,-0.17324 0.0059,-0.007 c 0.02794,-0.0327 0.04772,-0.067 0.05951,-0.10851 l 0.0026,-0.0125 c 0.0027,-0.0174 0.0039,-0.0336 0.003,-0.0512 l -0.03024,-0.33039 c -0.0054,-0.0466 -0.0229,-0.0793 -0.05128,-0.11502 l -0.15221,-0.19133 c -0.02625,-0.0323 -0.04837,-0.0454 -0.07298,-0.002 -0.024,-0.005 -0.04647,-0.008 -0.06805,-0.0106 l 0.0013,-10e-4 -0.02202,-0.0431 h -0.09073 l -0.0217,0.0414 c -0.01711,6.7e-4 -0.03484,0.002 -0.05359,0.004 -0.0183,-0.0294 -0.03779,-0.033 -0.07101,-0.0263 l -0.147278,0.0312 c -0.03827,0.007 -0.05234,0.0132 -0.06345,0.0529 v 3.3e-4 l -0.01775,0.075 -0.693656,-0.60949 c -0.0189,-0.0164 -0.03119,-0.0231 -0.03978,-0.0194 z m 0.151224,0.37412 c 0.0072,0.001 0.01583,0.005 0.02498,0.0128 l 0.302776,0.29325 -0.03058,0.0224 c -0.008,0.006 -0.01446,-0.001 -0.03847,-0.025 l -0.262011,-0.25608 c -0.02744,-0.0283 -0.01836,-0.0508 0.0033,-0.0473 z m 0.844223,0.11572 c 0.0072,0.002 0.0128,0.007 0.01906,0.0194 l 0.0812,0.1555 c 0.01267,0.0277 0.02614,0.0646 0.04833,0.0867 0.02619,0.0313 0.05728,-0.0507 0.06674,-0.0701 v -6.6e-4 c 0.03259,-0.0548 0.07205,-0.12182 0.09435,-0.16043 0.01955,-0.0336 0.01396,-0.0271 0.03814,0.001 l 0.151882,0.19134 c 0.03258,0.0409 0.04164,0.0516 0.04635,0.10318 l 0.03024,0.3294 c 0.0056,0.0608 -0.02634,0.12217 -0.06674,0.16372 l -0.04603,0.0473 -0.03123,-0.0477 c -0.0079,-0.0122 -0.0116,-0.0274 -0.01183,-0.0421 -9.27e-4,-0.0724 0.0062,-0.14492 0.0085,-0.2173 8.93e-4,-0.0275 0.0011,-0.055 0.0017,-0.0825 l -0.01841,-0.0335 -0.01348,0.32809 c -0.0011,0.028 -0.0039,0.057 0.0033,0.0841 0.0051,0.019 0.02422,0.0493 0.03714,0.0703 l -0.0013,0.0756 c -7.24e-4,0.0418 -0.01825,0.0641 -0.06575,0.0654 l -0.02827,6.7e-4 -0.490162,0.001 c -0.06581,-0.005 -0.05158,-0.0273 -0.05063,-0.0848 0.02012,-0.21981 0.02837,-0.43655 0.04307,-0.65815 -0.02345,0.0645 -0.04379,0.12929 -0.06378,0.19494 -0.01029,0.034 0.01393,0.056 0.03353,0.0793 l -0.01283,0.14398 -0.114079,-0.0756 c -0.04681,-0.0322 -0.04589,-0.0258 -0.03452,-0.0828 l 0.12328,-0.51646 c 0.0089,-0.0339 0.01148,-0.0289 0.04603,-0.0362 l 0.147279,-0.0312 c 0.0127,-0.002 0.02169,-0.005 0.02893,-0.002 z m -0.108483,1.08882 h 0.195605 v 0.0765 c 0,0.0299 -0.0063,0.0453 -0.03616,0.0453 h -0.113417 c -0.02638,0 -0.03664,-0.004 -0.04439,-0.0329 -0.0056,-0.0209 -0.0028,-0.0479 -0.0017,-0.0891 z m 0.244259,0 h 0.196263 l -0.002,0.0917 c -0.0075,0.0322 -0.02707,0.0303 -0.05687,0.0303 h -0.106187 c -0.03101,0 -0.03123,-0.0149 -0.03123,-0.046 z m 0.101916,0.13741 c 0.02066,0 0.04558,0.0195 0.04405,0.0407 l -0.0052,0.13018 c -0.0019,0.0492 -0.0075,0.0516 -0.05655,0.0516 h -0.05161 c -0.04129,0 -0.04935,-0.004 -0.04866,-0.0451 l 0.0026,-0.14334 c 0,-0.0296 0.01519,-0.0339 0.0447,-0.0339 h 0.07068 z m -0.243931,3.3e-4 h 0.05884 c 0.02622,0 0.05457,0.008 0.05457,0.0338 l -0.0026,0.14794 c -6.24e-4,0.0369 -0.0017,0.0405 -0.03879,0.0405 h -0.05161 c -0.04544,0 -0.05891,-10e-4 -0.0572,-0.047 l 0.0059,-0.14728 c -2.52e-4,-0.0244 0.02197,-0.0279 0.03091,-0.0279 z m 0.204153,0.0747 c -0.01932,0 -0.03518,0.0169 -0.03518,0.0377 0,0.0209 0.01584,0.0379 0.03518,0.0379 0.01932,0 0.03485,-0.0169 0.03485,-0.0379 0,-0.0209 -0.01552,-0.0377 -0.03485,-0.0377 z m -0.159772,6.7e-4 c -0.01932,0 -0.03485,0.0169 -0.03485,0.0377 0,0.0209 0.01552,0.0377 0.03485,0.0377 0.01932,0 0.03518,-0.0169 0.03518,-0.0377 0,-0.0209 -0.01586,-0.0377 -0.03518,-0.0377 z m -0.03912,0.17062 h 0.104874 l -0.002,0.15057 h -0.08317 v 3.3e-4 c -0.06097,0 -0.07055,0.002 -0.06838,-0.0595 l 0.002,-0.048 c 0.0017,-0.0415 0.0058,-0.0434 0.04668,-0.0434 z m 0.119992,0 h 0.111773 c 0.04012,0 0.04321,0.009 0.04176,0.049 l -0.0013,0.0411 c -0.0024,0.0593 -0.0076,0.0605 -0.06707,0.0605 h -0.08713 z m -0.124595,0.16667 h 0.1075 l -0.0013,0.0858 c -0.02712,-6e-5 -0.04688,0.009 -0.07068,0.0237 -0.04989,0.0295 -0.162529,0.15867 -0.223219,0.093 -0.0365,-0.0395 0.0062,-0.0873 0.03353,-0.11182 0.01879,-0.0168 0.04688,-0.0205 0.06575,-0.0371 0.03951,-0.0349 0.03039,-0.0536 0.08844,-0.0536 z m 0.122623,0 h 0.08778 c 0.0481,0 0.06539,-0.009 0.08415,0.0346 0.01089,0.0257 0.07339,0.0279 0.09336,0.0473 0.06043,0.0587 -0.01227,0.11477 -0.08679,0.0871 -0.03216,-0.012 -0.05525,-0.0417 -0.0858,-0.0572 -0.02207,-0.0118 -0.06252,-0.0221 -0.09402,-0.0253 z"
         id="path5664" />
      <g
         style="fill:#707374;fill-opacity:1;stroke:none"
         id="g5672"
         transform="matrix(0.40455873,0,0,0.40455873,89.857771,161.26482)">
        <path
           style="fill:#707374;fill-opacity:1;stroke:none;stroke-width:0.26458332"
           id="path5666"
           d="m -13.78534,229.31092 c -0.264583,0.0529 -0.502708,0.21167 -0.687916,0.42333 -0.714375,0.71438 -1.375834,1.50813 -1.931459,2.38125 -0.132291,0.18521 -0.238125,0.34396 -0.343958,0.52917 -0.07937,0.13229 -0.264583,0.18521 -0.396875,0.10583 -0.02646,-0.0265 -0.05292,-0.0529 -0.07937,-0.0794 -0.07937,-0.23812 -0.07937,-0.52916 0.02646,-0.76729 0.185209,-0.58208 0.396875,-1.16417 0.582084,-1.74625 0.07937,-0.23812 0.15875,-0.44979 0.264583,-0.74083 -0.15875,-0.0265 -0.291042,-0.0265 -0.423333,-0.0529 -0.132292,-0.0265 -0.291042,0 -0.449792,0 -0.07937,0.21166 -0.132292,0.42333 -0.211667,0.635 -0.370416,1.00541 -1.031875,1.85208 -1.905,2.46062 -0.185208,0.13229 -0.370416,0.21167 -0.555625,0.26459 -0.449791,0.13229 -0.714375,0.0265 -0.978958,-0.39688 -0.02646,-0.0529 -0.07937,-0.0794 -0.105833,-0.13229 -0.3175,0.15875 -0.608542,0.34396 -0.926042,0.47625 -0.211667,0.10583 -0.423333,0.15875 -0.661458,0.18521 -0.396875,0.0265 -0.529167,-0.0794 -0.661459,-0.44979 -0.05292,-0.15875 -0.07938,-0.3175 -0.132291,-0.50271 -0.105834,0.0529 -0.185209,0.10583 -0.264584,0.15875 -0.291041,0.21166 -0.582083,0.44979 -0.899583,0.66146 -0.582083,0.34395 -1.349375,0.1852 -1.561042,-0.50271 -0.02646,-0.0794 -0.07937,-0.13229 -0.132291,-0.18521 -0.211667,0.15875 -0.396875,0.3175 -0.582084,0.47625 -0.608541,0.42333 -1.137708,0.3175 -1.508125,-0.3175 -0.15875,-0.3175 -0.264583,-0.635 -0.370416,-0.9525 -0.07937,0.0794 -0.132292,0.15875 -0.211667,0.23812 -0.291042,0.42334 -0.635,0.79375 -1.058333,1.0848 -0.264584,0.1852 -0.582084,0.34395 -0.899584,0.44979 -0.502708,0.15874 -0.767291,0 -0.926041,-0.47625 -0.02646,-0.10584 -0.05292,-0.18521 -0.105834,-0.3175 -0.15875,0.10583 -0.291041,0.21166 -0.449791,0.3175 -0.3175,0.18521 -0.661459,0.34396 -1.005417,0.47625 -0.714375,0.23812 -1.084792,0.0794 -1.42875,-0.635 -0.105833,0.0529 -0.185208,0.13229 -0.291042,0.18521 -0.238125,0.15875 -0.47625,0.29104 -0.714375,0.42333 -0.370416,0.1852 -0.79375,0.0265 -0.978958,-0.34396 -0.02646,-0.0265 -0.02646,-0.0794 -0.05292,-0.10583 -0.07938,-0.26459 -0.132291,-0.55563 -0.132291,-0.82021 -0.02646,-0.18521 0,-0.39688 0,-0.68792 l -0.291042,0.34396 c -0.3175,0.39688 -0.635,0.79375 -0.978958,1.16417 -0.211667,0.21166 -0.423334,0.37041 -0.687917,0.47625 -0.502708,0.26458 -0.820208,0.13229 -1.031875,-0.39688 -0.02646,-0.0529 -0.05292,-0.13229 -0.07938,-0.18521 -0.343958,0.15875 -0.661458,0.34396 -1.005417,0.4498 -0.740833,0.26458 -1.190625,-0.0265 -1.349375,-0.79375 -0.02646,-0.1323 -0.02646,-0.26459 -0.05292,-0.42334 -0.502708,0.52917 -1.111249,0.97896 -1.746249,1.29646 -0.132292,0.0794 -0.291042,0.13229 -0.449792,0.15875 -0.502708,0.13229 -0.820208,-0.10583 -0.873125,-0.60854 -0.02646,-0.34396 0.02646,-0.66146 0.15875,-0.97896 0.47625,-1.13771 1.296458,-2.09021 2.328333,-2.72521 0.396875,-0.3175 0.952499,-0.3175 1.375833,-0.0265 l 0.396875,-0.9525 c 0.07937,-0.23812 0.264583,-0.42333 0.502708,-0.50271 0.185208,-0.10583 0.423333,-0.0265 0.529167,0.15875 0,0 0,0 0,0.0265 l -0.132292,0.42334 c -0.423333,0.9525 -0.767292,1.93146 -1.031875,2.93687 -0.07937,0.34396 -0.132292,0.68792 -0.15875,1.03188 0,0.50271 0.264583,0.66146 0.714375,0.47625 0.15875,-0.0794 0.3175,-0.13229 0.47625,-0.23813 0.105833,-0.0529 0.211667,-0.13229 0.3175,-0.21166 0.05292,-0.3175 0.15875,-0.635 0.238125,-0.9525 0.238125,-0.635 0.47625,-1.29646 0.740833,-1.905 0.07937,-0.29105 0.370417,-0.4498 0.661459,-0.42334 0.132291,0.0265 0.238125,0.0794 0.370416,0.15875 -0.07937,0.21167 -0.15875,0.39688 -0.238125,0.55563 -0.396875,0.76729 -0.687916,1.53458 -0.926041,2.35479 -0.05292,0.18521 -0.07938,0.37042 -0.07938,0.58208 0.02646,0.10584 0.07938,0.18521 0.132291,0.26459 0.291047,-0.0794 0.55563,-0.26459 0.740839,-0.52917 0.582083,-0.66146 1.084791,-1.40229 1.508125,-2.16958 0.105833,-0.23813 0.185208,-0.50271 0.264583,-0.74084 0.15875,-0.39687 0.423333,-0.47625 0.873125,-0.21166 -0.02646,0.15875 -0.05292,0.3175 -0.07937,0.47625 -0.132292,0.66145 -0.291042,1.34937 -0.423333,2.01083 -0.105834,0.34396 -0.02646,0.74083 0.185208,1.03187 0.555625,0.1323 0.820208,-0.3175 1.243542,-0.58208 0.05292,-0.21167 0.07937,-0.42333 0.132291,-0.66146 0.15875,-0.89958 0.635,-1.69333 1.349375,-2.27541 0.238125,-0.15875 0.47625,-0.29105 0.740834,-0.37042 0.238125,-0.10583 0.502708,-0.0529 0.687916,0.15875 0.132292,0.18521 0.105834,0.42333 -0.05292,0.60854 -0.291042,0 -0.555625,-0.0794 -0.767292,0.0265 -0.264583,0.13229 -0.502708,0.34396 -0.661458,0.58208 -0.343959,0.50271 -0.555625,1.05834 -0.608542,1.66688 0,0.18521 0.02646,0.34396 0.105833,0.50271 0.05292,0.15875 0.238125,0.29104 0.423334,0.26458 0.132291,0 0.238125,0 0.370416,-0.0529 0.714375,-0.26458 1.349375,-0.66146 1.719792,-1.40229 0.47625,-0.97896 1.27,-1.79917 2.2225,-2.32833 0.238125,-0.1323 0.502708,-0.18521 0.767292,-0.15875 0.3175,0 0.555625,0.26458 0.529166,0.55562 0,0.0265 0,0.0529 0,0.0794 0,0.37042 -0.132291,0.44979 -0.582083,0.34396 v -0.52917 c -0.9525,0.21167 -2.725208,2.59292 -2.672292,3.62479 0.132292,0.1323 0.343959,0.10584 0.47625,-0.0265 v 0 c 0.291042,-0.21166 0.582084,-0.44979 0.820209,-0.74083 0.423333,-0.47625 0.740833,-1.03187 1.005416,-1.61396 0.07937,-0.15875 0.15875,-0.3175 0.238125,-0.50271 h 0.582084 c 0.02646,0.18521 0.02646,0.37042 0.05292,0.55563 0.02646,0.42333 0.02646,0.84667 0.07937,1.27 0.02646,0.3175 0.132292,0.66146 0.47625,0.76729 0.343959,0.10583 0.635,-0.13229 0.846667,-0.39687 0.185208,-0.21167 0.291042,-0.47625 0.291042,-0.7673 0,-0.47625 0.02646,-0.97895 0.05292,-1.50812 l -0.714379,0.15875 c -0.211666,-0.3175 -0.185208,-0.47625 0.105834,-0.60854 0.238125,-0.10584 0.47625,-0.15875 0.714375,-0.23813 0.05292,-0.18521 0.07937,-0.37041 0.132291,-0.55562 0.05292,-0.21167 0.105834,-0.44979 0.185209,-0.66146 0.15875,-0.34396 0.3175,-0.39688 0.740833,-0.23813 0.15875,0.39688 -0.185208,0.7673 -0.05292,1.21709 l 1.905,-0.37042 c 0.07938,0.34396 0.02646,0.44979 -0.211666,0.55563 -0.185209,0.0794 -0.396875,0.13229 -0.608542,0.1852 -0.423333,0.10584 -0.846667,0.21167 -1.27,0.3175 -0.185205,0.82021 -0.238122,1.66688 -0.132289,2.51355 0.07937,0.58208 0.396875,0.74083 0.926042,0.5027 0.423333,-0.1852 0.79375,-0.47625 1.058333,-0.84666 0.105834,-0.15875 0.185209,-0.34396 0.211667,-0.52917 0.185208,-0.635 0.3175,-1.27 0.502708,-1.87854 0.132292,-0.42333 0.343959,-0.52917 0.767292,-0.47625 0.02646,0.0265 0.05292,0.0265 0.07937,0.0529 0.05292,0.18521 0.02646,0.39687 -0.05292,0.55562 -0.15875,0.60855 -0.343958,1.21709 -0.502708,1.82563 -0.05292,0.23812 -0.07937,0.47625 -0.05292,0.74083 0.02646,0.15875 0.07937,0.3175 0.132292,0.47625 0.582083,0.10584 0.899583,-0.26458 1.27,-0.50271 0.132292,-0.42333 0.264583,-0.8202 0.396875,-1.21708 0.211667,-0.60854 0.582083,-1.16417 1.084792,-1.61396 0.343958,-0.3175 0.767291,-0.52916 1.27,-0.37041 l 0.07939,-0.18521 c 0.185208,-0.39688 0.529166,-0.47625 0.820208,-0.13229 0.132292,0.21166 0.238125,0.42333 0.3175,0.66145 0.529167,0.29105 1.11125,-0.26458 1.693333,-0.0529 0.05292,0.52917 -0.3175,0.92604 -0.396875,1.50813 0.211667,-0.23813 0.3175,-0.37042 0.449792,-0.50271 0.264583,-0.29104 0.555625,-0.60854 0.846667,-0.87313 0.132291,-0.13229 0.291041,-0.23812 0.47625,-0.34395 0.502708,-0.29105 0.846666,-0.15875 1.031875,0.37041 0.105833,0.29104 0.15875,0.60854 0.15875,0.92604 0.02646,0.37042 -0.02646,0.74084 -0.05292,1.11125 -0.02646,0.37042 -0.105833,0.74084 0.05292,1.11125 l 0.396875,0.0529 c 0.02646,0.0529 0.02646,0.10584 0.02646,0.15875 -0.02646,0.0529 -0.07937,0.10584 -0.132292,0.15875 -0.264583,0.18521 -0.529166,0.39688 -0.873125,0.23813 -0.343958,-0.15875 -0.343958,-0.50271 -0.3175,-0.79375 0.02646,-0.68792 0.05292,-1.37583 0.105834,-2.06375 0,-0.18521 -0.05292,-0.39688 -0.185209,-0.55563 z m -28.09875,-0.10583 c -0.238125,-0.10584 -0.47625,-0.0529 -0.661457,0.10583 -0.343958,0.26458 -0.661458,0.52917 -0.9525,0.84667 -0.502708,0.52916 -0.873125,1.16416 -1.11125,1.82562 -0.07938,0.21167 -0.15875,0.42333 0.05292,0.60854 1.269997,-0.26458 2.751662,-2.11666 2.672287,-3.38666 z m 21.933959,2.83104 c 0.396875,0.0265 0.396875,0.0265 0.608541,-0.13229 0.926042,-0.66146 1.402292,-1.56105 1.693334,-2.61938 l -0.582084,-0.52917 c -0.9525,0.60855 -1.613958,1.56105 -1.852083,2.6723 -0.105833,0.1852 -0.05292,0.44979 0.132292,0.60854 z"
           class="st0" />
        <path
           style="fill:#707374;fill-opacity:1;stroke:none;stroke-width:0.26458332"
           id="path5668"
           d="m -49.16013,230.05175 c 0.79375,-0.13229 1.481666,-0.47625 2.301875,-0.39687 l 0.05292,0.52916 -2.434166,0.60855 c -0.07938,0.44979 -0.07938,0.92604 0,1.40229 0.105833,0.47625 0.291041,0.58208 0.79375,0.52916 0.873125,-0.10583 1.719791,-0.37041 2.513541,-0.74083 0.370417,0.42333 0.343959,0.68792 -0.132291,0.89958 -0.926042,0.42334 -1.957917,0.60854 -2.989792,0.52917 -0.502708,-0.0265 -0.899583,-0.44979 -1.031875,-1.05833 -0.132292,-0.55563 -0.15875,-1.11125 -0.07938,-1.66688 0.132292,-0.82021 0.291042,-1.66687 0.423333,-2.54 l -0.555625,0.0794 c -0.105828,-0.18521 -0.02645,-0.42333 0.132297,-0.52916 0.105833,-0.0794 0.211667,-0.1323 0.3175,-0.18521 1.058333,-0.47625 2.196042,-0.76729 3.360208,-0.84667 0.185209,0 0.370417,0.0265 0.555625,0.0529 v 0.58208 c -0.926041,0.21167 -1.852083,0.18521 -2.778125,0.52917 -0.211666,0.68792 -0.370416,1.45521 -0.449791,2.2225 z"
           class="st0" />
        <path
           style="fill:#707374;fill-opacity:1;stroke:none;stroke-width:0.26458332"
           id="path5670"
           d="m -21.273048,227.11488 c 0.105833,0.10583 0.132292,0.29104 0,0.42333 v 0 c -0.15875,0.15875 -0.343958,0.29104 -0.529167,0.42333 -0.132291,0.0794 -0.291041,0.0794 -0.396875,-0.0529 -0.07937,-0.10583 -0.07937,-0.29104 0,-0.39687 0.211667,-0.3175 0.555625,-0.47625 0.926042,-0.39688 z"
           class="st0" />
      </g>
      <path
         style="fill:#707374;fill-opacity:1;fill-rule:evenodd;stroke:none;stroke-width:0.0019131"
         d="m 80.303526,249.03798 c -0.249222,0.002 -0.536125,0.0213 -0.825155,0.0194 -1.715473,-0.0118 -2.424624,-0.0379 -4.135313,-0.001 -0.625218,0.0132 -1.099602,0.55651 -1.372848,1.05758 -0.452795,0.86745 -0.498832,1.4624 -0.0618,1.70522 0.170993,0.095 0.473091,0.0812 0.739682,0.0808 l 4.784917,-0.006 v -3.3e-4 c 0.56664,-6.8e-4 1.114141,-0.33527 1.483637,-1.14537 0.305237,-0.66919 0.496927,-1.35185 -0.01414,-1.62269 -0.138221,-0.0733 -0.349754,-0.0892 -0.598978,-0.0874 z m -3.352564,0.11501 0.115393,3.4e-4 h 0.11473 l 0.113749,6.7e-4 0.113416,6.7e-4 0.113417,6.8e-4 0.113749,6.7e-4 0.11473,10e-4 0.115725,0.001 0.117357,0.001 0.119336,0.001 0.121307,0.001 0.123938,0.001 0.126896,10e-4 0.130513,0.001 0.1338,0.001 0.138074,0.001 0.142676,0.001 0.147279,0.001 0.152539,10e-4 0.158127,0.001 h 0.0549 l 0.0549,-3.4e-4 0.0549,-6.7e-4 0.05424,-10e-4 0.05391,-0.001 0.05359,-0.001 0.05293,-0.002 0.0526,-0.002 0.05195,-0.002 0.05161,-0.002 0.05063,-0.002 0.04964,-0.001 0.04899,-0.001 0.04832,-0.001 0.04734,-6.8e-4 0.04603,-6.7e-4 h 0.04537 l 0.04405,3.4e-4 0.04274,6.7e-4 0.04175,0.001 0.04011,0.002 0.03879,0.002 0.03747,0.004 0.03583,0.004 0.03387,0.005 0.03255,0.006 0.03025,0.006 0.0286,0.007 0.02662,0.008 0.02433,0.008 0.02235,0.009 0.02006,0.009 0.03847,0.022 0.03418,0.0237 0.03058,0.0253 0.02729,0.0263 0.024,0.0279 0.02104,0.0296 0.01841,0.0309 0.0161,0.0329 0.01348,0.0348 0.01112,0.0368 0.0089,0.0388 0.0066,0.0411 0.0043,0.0427 0.002,0.0451 -3.37e-4,0.0464 -0.0026,0.0486 -0.005,0.0499 -0.0072,0.0516 -0.0089,0.0529 -0.01112,0.0542 -0.01315,0.0553 -0.01512,0.0566 -0.01644,0.0575 -0.01841,0.0582 -0.02006,0.0592 -0.02104,0.0599 -0.02268,0.0601 -0.024,0.0608 -0.02498,0.0612 -0.0263,0.0614 -0.02696,0.0615 -0.02762,0.0615 -0.03418,0.0723 -0.03452,0.0691 -0.03583,0.0664 -0.03649,0.0634 -0.03748,0.0608 -0.03781,0.0582 -0.03879,0.0556 -0.03945,0.0529 -0.04043,0.0503 -0.04076,0.0477 -0.04109,0.0451 -0.04208,0.0431 -0.04241,0.0401 -0.04306,0.0381 -0.04339,0.0355 -0.04372,0.0332 -0.04438,0.0309 -0.0447,0.0286 -0.04503,0.0266 -0.0457,0.0242 -0.0457,0.0224 -0.04603,0.0203 -0.04668,0.0181 -0.04668,0.0161 -0.04701,0.0141 -0.04766,0.0122 -0.04766,0.0106 -0.04766,0.008 -0.04833,0.007 -0.04832,0.005 -0.04866,0.002 -0.04997,10e-4 -4.783931,0.006 h -0.02531 v -6.8e-4 h -0.02531 l -0.02564,3.5e-4 h -0.02531 l -0.05128,3.3e-4 h -0.02531 -0.02531 -0.02498 l -0.02531,-3.3e-4 -0.02466,-3.5e-4 -0.02466,-3.3e-4 -0.024,-6.7e-4 -0.024,-6.8e-4 -0.02366,-0.001 -0.02335,-0.001 -0.02268,-0.002 -0.02235,-0.002 -0.02202,-0.001 -0.02137,-0.002 -0.02071,-0.002 -0.02006,-0.004 -0.01939,-0.002 -0.01874,-0.004 -0.01775,-0.004 -0.01742,-0.005 -0.0161,-0.005 -0.01545,-0.005 -0.01447,-0.005 -0.01348,-0.006 -0.0125,-0.006 -0.01112,-0.006 -0.0332,-0.02 -0.02991,-0.0211 -0.02729,-0.0224 -0.02466,-0.0237 -0.02235,-0.0253 -0.02006,-0.0266 -0.01808,-0.0283 -0.01611,-0.0299 -0.01381,-0.0318 -0.01216,-0.0342 -0.0098,-0.0362 -0.0079,-0.0381 -0.0056,-0.0407 -0.0037,-0.0427 -0.0013,-0.0453 0.0013,-0.0473 0.0033,-0.0499 0.0059,-0.0519 0.0085,-0.054 0.01053,-0.0562 0.01348,-0.0585 0.01578,-0.0605 0.01808,-0.0621 0.02104,-0.0645 0.02335,-0.0664 0.02564,-0.068 0.02827,-0.0703 0.03058,-0.0717 0.0332,-0.0739 0.03551,-0.0753 0.03814,-0.0773 0.04011,-0.0779 0.02466,-0.0447 0.0263,-0.0453 0.02762,-0.0453 0.02827,-0.0457 0.02991,-0.0451 0.03058,-0.0451 0.03156,-0.0444 0.03287,-0.044 0.03387,-0.0431 0.03452,-0.0427 0.03583,-0.0418 0.03682,-0.0407 0.03748,-0.0398 0.03847,-0.0385 0.03945,-0.0371 0.04011,-0.0362 0.0411,-0.0345 0.04176,-0.0329 0.04274,-0.0312 0.04339,-0.0296 0.04438,-0.0276 0.0447,-0.026 0.0457,-0.024 0.04635,-0.0217 0.04701,-0.0198 0.04766,-0.0174 0.04866,-0.0148 0.04899,-0.0128 0.04997,-0.0106 0.0503,-0.007 0.05128,-0.005 0.05391,-0.002 0.155825,-0.004 0.151553,-0.002 0.14695,-0.002 0.14169,-0.001 0.137745,-0.002 0.133473,-0.001 0.129526,-0.001 0.126568,-0.001 0.123608,-6.8e-4 0.120979,-3.4e-4 0.119007,-3.3e-4 z"
         id="path5674" />
      <path
         id="path5676"
         style="fill:#707374;fill-opacity:1;fill-rule:evenodd;stroke:none;stroke-width:0.0019131"
         d="m 72.58869,249.24097 c 0.101797,0 0.184831,0.0831 0.184831,0.18483 0,0.10176 -0.08303,0.18484 -0.184831,0.18484 -0.101809,0 -0.184836,-0.0831 -0.184836,-0.18484 0,-0.10176 0.08303,-0.18483 0.184836,-0.18483 z m 0.164684,-0.21508 c 0.277631,0 0.504085,0.22645 0.504085,0.5041 0,0.27764 -0.226454,0.50409 -0.504085,0.50409 -0.277661,0 -0.504116,-0.22645 -0.504116,-0.50409 0,-0.27765 0.226455,-0.5041 0.504116,-0.5041 v 0" />
      <path
         id="path5678"
         style="fill:#707374;fill-opacity:1;fill-rule:evenodd;stroke:none;stroke-width:0.0019131"
         d="m 72.641167,251.32694 h -0.05897 c -0.0089,0 -0.03103,0.004 -0.03077,0.0282 l -0.0058,0.14704 c -0.0018,0.0458 0.01171,0.0472 0.05712,0.0472 h 0.05139 c 0.0371,0 0.03837,-0.004 0.03901,-0.0407 l 0.0026,-0.14772 c 0,-0.0258 -0.02833,-0.0341 -0.05455,-0.0341 v 0" />
      <path
         id="path5680"
         style="fill:#707374;fill-opacity:1;fill-rule:evenodd;stroke:none;stroke-width:0.0019131"
         d="m 72.826221,251.32694 h -0.07085 c -0.02952,0 -0.04457,0.005 -0.04457,0.0341 l -0.0026,0.14336 c -7e-4,0.0411 0.0073,0.0451 0.04868,0.0451 h 0.05139 c 0.04912,0 0.05487,-0.002 0.05676,-0.0517 l 0.0053,-0.13008 c 0.0015,-0.0213 -0.02346,-0.0407 -0.04412,-0.0407 v 0" />
      <path
         id="path5682"
         style="fill:#707374;fill-opacity:1;fill-rule:evenodd;stroke:none;stroke-width:0.0019131"
         d="m 72.626766,251.40218 c 0.01932,0 0.03499,0.0169 0.03499,0.0379 0,0.0209 -0.01567,0.0379 -0.03499,0.0379 -0.01932,0 -0.03499,-0.017 -0.03499,-0.0379 0,-0.0209 0.01567,-0.0379 0.03499,-0.0379" />
      <path
         id="path5684"
         style="fill:#707374;fill-opacity:1;fill-rule:evenodd;stroke:none;stroke-width:0.0019131"
         d="m 72.786255,251.40151 c 0.01932,0 0.03499,0.017 0.03499,0.0379 0,0.0209 -0.01567,0.0379 -0.03499,0.0379 -0.01932,0 -0.03499,-0.017 -0.03499,-0.0379 0,-0.0209 0.01567,-0.0379 0.03499,-0.0379" />
      <path
         id="path5686"
         style="fill:#707374;fill-opacity:1;fill-rule:evenodd;stroke:none;stroke-width:0.0019131"
         d="m 75.49637,250.20013 0.258593,-0.37612 0.37443,2.7e-4 c 0.150925,9e-5 0.209293,0.11785 0.132789,0.23523 -0.04941,0.0759 -0.196763,0.14845 -0.312676,0.14623 -0.02133,-4e-4 -0.459411,0.004 -0.453136,-0.006 z m -0.225764,0.29516 -0.337393,0.50792 0.420918,0.005 c 0.183581,0.002 0.426754,-0.0586 0.496429,-0.25807 0.04843,-0.13871 -0.0089,-0.2549 -0.144591,-0.2549 z m -0.213043,-0.92985 -0.890239,1.77148 1.68314,-5.9e-4 c 0.783279,-2.6e-4 1.012124,-0.7587 0.578387,-0.92157 0.756227,-0.13187 0.771723,-0.84932 0.229992,-0.84932 z m 1.597568,1.7578 h 0.853087 l 0.502972,-1.3657 h -0.531324 z m 1.229144,-1.82966 c 0.143214,0 0.260029,0.0967 0.260029,0.21515 0,0.11847 -0.116813,0.21512 -0.260029,0.21512 -0.143233,0 -0.260066,-0.0967 -0.260066,-0.21512 0,-0.11853 0.116837,-0.21515 0.260066,-0.21515 z m 1.564643,0.0225 c 0.248396,0 0.464462,0.0673 0.627361,0.1811 l 0.05857,-0.13245 h 0.752075 l -0.722136,0.77826 h -0.374163 l 0.01739,-0.0393 c 0.08894,-0.25587 0.06591,-0.4396 -0.165445,-0.4396 -0.266091,0 -0.546188,0.25054 -0.684657,0.56688 -0.122593,0.28003 -0.07067,0.51431 0.104092,0.56439 0.0139,0.007 0.02906,0.0128 0.0456,0.018 0.251246,0.0787 0.608861,-0.0577 0.797071,-0.30842 0.0092,-0.0123 0.0182,-0.0247 0.0268,-0.0372 l 0.229571,0.21211 c -0.249391,0.2945 -0.665182,0.49593 -1.094634,0.49593 -0.618542,0 -1.037127,-0.4177 -0.931792,-0.92982 0.105335,-0.51212 0.695735,-0.92979 1.314276,-0.92979 v 0" />
      <path
         id="path5688"
         style="fill:#707374;fill-opacity:1;stroke:none;stroke-width:0.00413228;stroke-linecap:butt;stroke-linejoin:miter;stroke-miterlimit:2.41420007;stroke-dasharray:none;stroke-opacity:1"
         d="m 75.49637,250.20013 0.258593,-0.37612 0.37443,2.7e-4 c 0.150925,9e-5 0.209293,0.11785 0.132789,0.23523 -0.04941,0.0759 -0.196763,0.14845 -0.312676,0.14623 -0.02133,-4e-4 -0.459411,0.004 -0.453136,-0.006 z m 0.209599,0.2952 c 0.13566,0 0.193029,0.11619 0.144591,0.2549 -0.06967,0.19947 -0.312848,0.26061 -0.496429,0.25807 l -0.420918,-0.005 0.337393,-0.50792 z m -0.648406,-0.92989 -0.890239,1.77148 1.68314,-5.9e-4 c 0.783279,-2.6e-4 1.012124,-0.7587 0.578387,-0.92157 0.756227,-0.13187 0.771723,-0.84932 0.229992,-0.84932 z m 1.597568,1.7578 h 0.853087 l 0.502972,-1.3657 h -0.531324 z m 1.229144,-1.82966 c 0.143214,0 0.260029,0.0967 0.260029,0.21515 0,0.11847 -0.116813,0.21512 -0.260029,0.21512 -0.143233,0 -0.260066,-0.0967 -0.260066,-0.21512 0,-0.11853 0.116837,-0.21515 0.260066,-0.21515 z m 1.564643,0.0225 c 0.248396,0 0.464462,0.0673 0.627361,0.1811 l 0.05857,-0.13245 h 0.752075 l -0.722136,0.77826 h -0.374163 l 0.01739,-0.0393 c 0.08894,-0.25587 0.06591,-0.4396 -0.165445,-0.4396 -0.266091,0 -0.546188,0.25054 -0.684657,0.56688 -0.122593,0.28003 -0.07067,0.51431 0.104092,0.56439 0.0139,0.007 0.02906,0.0128 0.0456,0.018 0.251246,0.0787 0.608861,-0.0577 0.797071,-0.30842 0.0092,-0.0123 0.0182,-0.0247 0.0268,-0.0372 l 0.229571,0.21211 c -0.249391,0.2945 -0.665182,0.49593 -1.094634,0.49593 -0.618542,0 -1.037127,-0.4177 -0.931792,-0.92982 0.105335,-0.51212 0.695735,-0.92979 1.314276,-0.92979 z" />
    </g>
  </g>
</svg>
