<?xml version="1.0" encoding="UTF-8" standalone="no"?>
<svg
   xmlns:dc="http://purl.org/dc/elements/1.1/"
   xmlns:cc="http://creativecommons.org/ns#"
   xmlns:rdf="http://www.w3.org/1999/02/22-rdf-syntax-ns#"
   xmlns:svg="http://www.w3.org/2000/svg"
   xmlns="http://www.w3.org/2000/svg"
   id="svg5782"
   version="1.1"
   viewBox="0 0 25.399999 25.400001"
   height="96"
   width="96">
  <defs
     id="defs5776" />
  <metadata
     id="metadata5779">
    <rdf:RDF>
      <cc:Work
         rdf:about="">
        <dc:format>image/svg+xml</dc:format>
        <dc:type
           rdf:resource="http://purl.org/dc/dcmitype/StillImage" />
        <dc:title></dc:title>
      </cc:Work>
    </rdf:RDF>
  </metadata>
  <g
     transform="translate(0,-271.59998)"
     id="layer1">
    <rect
       y="271.59998"
       x="0"
       height="25.4"
       width="25.4"
       id="rect6729"
       style="opacity:1;vector-effect:none;fill:none;fill-opacity:1;stroke:none;stroke-width:0.52916676;stroke-linecap:butt;stroke-linejoin:miter;stroke-miterlimit:4;stroke-dasharray:1.05833345, 2.11666688;stroke-dashoffset:0;stroke-opacity:1;paint-order:stroke markers fill" />
    <g
       style="fill:#707374;fill-opacity:1;stroke:none"
       id="g6194"
       transform="matrix(0.00474207,0,0,-0.00474207,14.365483,309.48345)">
      <path
         id="path2"
         d="m -402.52914,5075.9816 c 24.255,-35.6025 68.4075,-53.415 132.4275,-53.415 46.47,0 89.325,3.6 128.565,10.8375 20.655,5.16 36.6525,7.7175 48.014996,7.7175 16.53,0 27.3525,-8.2575 32.5275,-24.765 11.37,-36.1425 17.04,-67.1175 17.04,-92.94 0,-20.655 -8.775,-34.065 -26.34,-40.26 -57.824996,-21.69 -132.674996,-32.535 -224.587496,-32.535 -119.7825,0 -208.845,29.685 -267.1875,89.0475 -58.335,59.385 -87.51,161.8575 -87.51,307.47 0,147.66 29.175,255.0524 87.51,322.1699 58.3425,67.125 156.705,100.68 295.065,100.68 71.25,0 132.6825,-7.2225 184.312496,-21.69 18.6,-6.195 27.8775,-18.0675 27.8775,-35.6175 0,-29.94 -5.67,-65.565 -17.0325,-106.8825 -5.1525,-17.5575 -15.4875,-26.3325 -30.967496,-26.3325 -5.175,0 -14.1975,1.0275 -27.1125,3.1125 -12.915,2.055 -20.4,3.0825 -22.4625,3.0825 -32.01,6.2025 -68.145,9.3 -108.4275,9.3 -70.215,0 -117.465,-18.3224 -141.72,-54.9824 -24.2625,-36.6675 -36.405,-96.8025 -36.405,-180.45 0.01,-86.7375 12.15,-147.915 36.4125,-183.5475"
         style="fill:#707374;fill-opacity:1;stroke:none;stroke-width:7.49999952" />
      <path
         id="path4-17"
         d="m 276.69336,4869.2066 h -128.5725 c -25.815,0 -38.7225,14.475 -38.7225,43.365 v 692.3699 c 0,29.9475 13.4325,44.91 40.2825,44.91 h 128.5575 c 25.8075,0 38.715,-14.445 38.715,-43.3575 v -693.9149 c 0,-28.8975 -13.4175,-43.3725 -40.26,-43.3725"
         style="fill:#707374;fill-opacity:1;stroke:none;stroke-width:7.49999952" />
      <path
         id="path6-8"
         d="M 697.9833,4869.2066 H 569.41076 c -25.8075,0 -38.73,14.475 -38.73,43.365 v 599.4374 c 0,44.4 17.565,74.3475 52.6575,89.835 108.44254,44.4 234.91503,66.6 379.50002,66.6 99.12752,0 163.14002,-23.235 192.06752,-69.69 58.86,46.455 158.4975,69.69 298.9275,69.69 67.1175,0 117.2025,-7.995 150.2325,-24 33.045,-16.005 55.77,-40.5375 68.16,-73.5825 9.3,-26.8425 13.9275,-77.445 13.9275,-151.7849 v -506.505 c 0,-28.8975 -12.375,-43.365 -37.1625,-43.365 h -130.11 c -25.8075,0 -38.715,14.475 -38.715,43.365 v 460.035 c 0,35.115 -2.595,60.3975 -7.7475,75.9 -9.285,29.9399 -41.82,44.9174 -97.59,44.9174 -39.24,0 -78.9825,-6.7125 -119.265,-20.1374 -12.39,-4.1325 -23.745,-11.355 -34.0875,-21.6825 -6.18,-6.21 -9.27,-16.005 -9.27,-29.43 0,-3.0975 0.2475,-11.1075 0.78,-24.015 0.495,-12.9 0.78,-20.91 0.78,-24 v -461.5875 c 0,-28.8975 -12.9075,-43.365 -38.745,-43.365 h -130.095 c -25.8225,0 -38.73,14.475 -38.73,43.365 v 463.125 c 0,33.045 -2.58,57.3 -7.73252,72.795 -6.195,16.5225 -16.275,28.14 -30.2025,34.8374 -13.9425,6.7275 -35.8875,10.08 -65.8275,10.08 -43.37249,0 -83.62499,-6.195 -120.81749,-18.5849 -19.5975,-8.265 -31.4775,-15.9975 -35.625,-23.235 -5.16,-6.21 -7.7325,-23.2425 -7.7325,-51.1125 v -487.9125 c 0,-28.8825 -13.43999,-43.3575 -40.27499,-43.3575"
         style="fill:#707374;fill-opacity:1;stroke:none;stroke-width:7.49999952" />
      <path
         id="path8-9"
         d="m -1313.9891,5286.1316 4.32,6.1875 c 16.4625,23.595 19.545,54.015 8.1525,80.43 l -2.985,6.9375 c -24.8775,57.6825 20.7975,121.0424 83.3775,115.6724 l 7.5375,-0.645 c 28.6575,-2.46 56.5425,10.08 73.74,33.1575 l 4.5075,6.06 c 37.5225,50.385 115.215,42.495 141.86246,-14.3925 l 3.2175,-6.8325 c 12.1875,-26.0625 36.9975,-43.9349 65.565,-47.2874 l 7.5075,-0.87 c 62.385,-7.3125 94.4175,-78.54 58.4775,-130.0575 l -4.3275,-6.2025 c -16.455,-23.58 -19.545,-54.015 -8.145,-80.4225 l 2.9775,-6.945 c 24.8625,-57.675 -20.7975,-121.0275 -83.385,-115.665 l -7.5225,0.6525 c -28.6725,2.445 -56.54996,-10.095 -73.73246,-33.1575 l -4.53,-6.0675 c -37.5225,-50.3775 -115.2225,-42.4875 -141.855,14.3925 l -3.2025,6.8325 c -12.2025,26.055 -37.005,43.9425 -65.58,47.28 l -7.5,0.885 c -62.4,7.305 -94.425,78.5325 -58.4775,130.0575"
         style="fill:#707374;fill-opacity:1;stroke:none;stroke-width:7.49999952" />
      <path
         id="path10-15"
         d="m -1519.8415,5517.2665 3.045,-6.9075 c 11.5725,-26.3325 35.9475,-44.7974 64.4325,-48.8249 l 7.485,-1.0575 c 62.2049,-8.775 92.5274,-80.7525 55.3724,-131.3925 l -4.4775,-6.105 c -17.0099,-23.19 -20.8124,-53.5275 -10.065,-80.2125 l 2.8275,-7.0125 c 23.49,-58.26 -23.6699,-120.4875 -86.1149,-113.64 l -7.5075,0.81 c -28.5975,3.1575 -56.7675,-8.73 -74.4975,-31.3875 l -4.6575,-5.955 c -38.7,-49.47 -116.1975,-39.75 -141.4875,17.7525 l -3.03,6.9225 c -11.5725,26.325 -35.955,44.805 -64.4325,48.81 l -7.4775,1.0725 c -62.205,8.7825 -92.535,80.745 -55.38,131.3925 l 4.47,6.0975 c 17.025,23.205 20.8275,53.5425 10.065,80.2125 l -2.82,7.0275 c -23.4975,58.2525 23.67,120.4949 86.115,113.6399 l 7.5075,-0.825 c 28.5825,-3.135 56.7675,8.7375 74.4975,31.395 l 4.65,5.9475 c 38.7075,49.47 116.205,39.7575 141.48,-17.76"
         style="fill:#707374;fill-opacity:1;stroke:none;stroke-width:7.49999952" />
      <path
         id="path12-49"
         d="m -2062.7815,5522.599 3.435,-6.7275 c 13.0875,-25.62 38.4975,-42.6449 67.1625,-45.0074 l 7.53,-0.6225 c 62.6025,-5.16 97.05,-75.2475 62.8875,-127.965 l -4.1025,-6.3525 c -15.645,-24.1425 -17.685,-54.6375 -5.4,-80.6625 l 3.225,-6.84 c 26.835,-56.79 -16.65,-121.665 -79.38,-118.44 l -7.545,0.3825 c -28.725,1.485 -56.1825,-12.0075 -72.5625,-35.6475 l -4.2975,-6.21 c -35.7825,-51.6375 -113.7,-46.4175 -142.275,9.525 l -3.435,6.7275 c -13.0875,25.6125 -38.4975,42.6525 -67.17,45 l -7.5225,0.63 c -62.6025,5.16 -97.05,75.255 -62.8875,127.965 l 4.1025,6.3525 c 15.645,24.1575 17.685,54.6525 5.4,80.6625 l -3.225,6.84 c -26.835,56.7975 16.65,121.6724 79.38,118.4399 l 7.5375,-0.39 c 28.7325,-1.47 56.1825,12.0075 72.5625,35.655 l 4.2975,6.21 c 35.79,51.63 113.7075,46.4175 142.2825,-9.525"
         style="fill:#707374;fill-opacity:1;stroke:none;stroke-width:7.49999952" />
      <path
         id="path14-2"
         d="m -1251.2516,5965.609 3.495,-6.7875 c 13.3275,-25.89 39.09,-43.0275 68.1225,-45.3225 l 7.6125,-0.6 c 63.36,-5.01 98.46,-75.8175 64.0725,-129.27 l -4.1325,-6.435 c -15.7575,-24.48 -17.715,-55.3575 -5.19,-81.6525 l 3.285,-6.885 c 27.345,-57.3825 -16.4325,-123.2025 -79.92,-120.135 l -7.635,0.3675 c -29.085,1.38 -56.805,-12.3525 -73.2975,-36.345 l -4.3275,-6.3 c -36.03,-52.3649 -114.9,-47.3475 -143.9999,9.15 l -3.5025,6.795 c -13.3275,25.89 -39.09,43.02 -68.1075,45.3225 l -7.62,0.615 c -63.3675,4.9875 -98.46,75.8025 -64.065,129.27 l 4.1325,6.4125 c 15.7425,24.495 17.7075,55.3725 5.1825,81.6525 l -3.285,6.9075 c -27.3525,57.375 16.4175,123.18 79.9125,120.135 l 7.635,-0.3675 c 29.0775,-1.4025 56.7975,12.345 73.2974,36.33 l 4.335,6.2925 c 36.015,52.38 114.8925,47.3625 144,-9.15"
         style="fill:#707374;fill-opacity:1;stroke:none;stroke-width:7.49999952" />
      <path
         id="path16-5"
         d="m -1811.464,5075.8541 3.165,-6.8625 c 12.0675,-26.1 36.7875,-44.1225 65.34,-47.61 l 7.5,-0.9225 c 62.355,-7.6275 94.02,-79.005 57.81,-130.3425 l -4.35,-6.1725 c -16.575,-23.4975 -19.815,-53.91 -8.565,-80.385 l 2.955,-6.9525 c 24.5775,-57.81 -21.4125,-120.9225 -83.97,-115.2375 l -7.5225,0.675 c -28.6425,2.6175 -56.6025,-9.795 -73.905,-32.7675 l -4.5375,-6.0375 c -37.7775,-50.19 -115.4325,-41.925 -141.7875,15.105 l -3.1725,6.855 c -12.06,26.1075 -36.7875,44.1225 -65.3325,47.61 l -7.5,0.9225 c -62.355,7.6275 -94.0275,79.0125 -57.8175,130.3425 l 4.3575,6.1725 c 16.575,23.5125 19.8225,53.9175 8.565,80.385 l -2.9625,6.9525 c -24.5775,57.8175 21.42,120.9225 83.985,115.2375 l 7.5225,-0.675 c 28.6425,-2.6175 56.6025,9.8025 73.8975,32.7675 l 4.545,6.045 c 37.7625,50.175 115.4175,41.91 141.78,-15.105"
         style="fill:#707374;fill-opacity:1;stroke:none;stroke-width:7.49999952" />
    </g>
  </g>
</svg>
