<?xml version="1.0" encoding="UTF-8" standalone="no"?>
<svg
   xmlns:dc="http://purl.org/dc/elements/1.1/"
   xmlns:cc="http://creativecommons.org/ns#"
   xmlns:rdf="http://www.w3.org/1999/02/22-rdf-syntax-ns#"
   xmlns:svg="http://www.w3.org/2000/svg"
   xmlns="http://www.w3.org/2000/svg"
   xmlns:sodipodi="http://sodipodi.sourceforge.net/DTD/sodipodi-0.dtd"
   xmlns:inkscape="http://www.inkscape.org/namespaces/inkscape"
   id="svg5782"
   version="1.1"
   viewBox="0 0 25.399999 25.400001"
   height="96"
   width="96"
   sodipodi:docname="1_cliniquepied.svg"
   inkscape:version="1.0.1 (1.0.1+r73)">
  <style
     id="style835"></style>
  <sodipodi:namedview
     pagecolor="#ffffff"
     bordercolor="#666666"
     borderopacity="1"
     objecttolerance="10"
     gridtolerance="10"
     guidetolerance="10"
     inkscape:pageopacity="0"
     inkscape:pageshadow="2"
     inkscape:window-width="2560"
     inkscape:window-height="1386"
     id="namedview10"
     showgrid="false"
     inkscape:zoom="8.49417"
     inkscape:cx="12.627813"
     inkscape:cy="41.827792"
     inkscape:window-x="1920"
     inkscape:window-y="0"
     inkscape:window-maximized="1"
     inkscape:current-layer="svg5782" />
  <defs
     id="defs5776">
    <clipPath
       id="clipPath20-8"
       clipPathUnits="userSpaceOnUse">
      <path
         id="path18-0-9"
         d="m 541.781,371.848 v 0 h 0.043 z" />
    </clipPath>
  </defs>
  <metadata
     id="metadata5779">
    <rdf:RDF>
      <cc:Work
         rdf:about="">
        <dc:format>image/svg+xml</dc:format>
        <dc:type
           rdf:resource="http://purl.org/dc/dcmitype/StillImage" />
        <dc:title />
      </cc:Work>
    </rdf:RDF>
  </metadata>
  <rect
     y="-4.4140625e-06"
     x="6.9388939e-18"
     height="25.4"
     width="25.4"
     id="rect6729"
     style="vector-effect:none;fill:none;fill-opacity:1;stroke:none;stroke-width:0.529167;stroke-linecap:butt;stroke-linejoin:miter;stroke-miterlimit:4;stroke-dasharray:1.05833, 2.11667;stroke-dashoffset:0;stroke-opacity:1;paint-order:stroke markers fill" />
  <g
     transform="matrix(0.12868155,0,0,0.12868155,6.9330146,-2.6923916)"
     id="g4954"
     style="display:inline;fill:#4682b4 icc-color(cmyk, 0.8, 0.1745, 0.098, 0.2);stroke-width:7.77112">
    <path
       style="font-style:normal;font-variant:normal;font-weight:normal;font-stretch:normal;font-size:17.3039px;line-height:1.4;font-family:Gotham;-inkscape-font-specification:Gotham;font-variant-ligatures:normal;font-variant-position:normal;font-variant-caps:normal;font-variant-numeric:normal;font-variant-alternates:normal;font-feature-settings:normal;text-indent:0;text-align:start;text-decoration:none;text-decoration-line:none;text-decoration-style:solid;text-decoration-color:#000000;letter-spacing:1.61396px;word-spacing:0px;text-transform:none;writing-mode:lr-tb;direction:ltr;text-orientation:mixed;dominant-baseline:auto;baseline-shift:baseline;text-anchor:start;white-space:normal;shape-padding:0;fill:#ffffff;fill-opacity:1;stroke:none;stroke-width:2.05611px;stroke-linecap:butt;stroke-linejoin:miter;stroke-miterlimit:4;stroke-dasharray:none;stroke-dashoffset:0;stroke-opacity:1;paint-order:markers stroke fill"
       d="m -6.9976601,76.149209 c -3.0626979,0.05669 -4.0180339,2.256475 -4.2695069,5.120101 -0.251796,2.867595 -1.66238,3.789407 -2.821017,3.840593 -1.158634,0.05102 -2.403813,0.389324 -3.411159,0.696598 -1.007591,0.307274 -4.044397,0.430875 -5.152657,0.482141 -1.108181,0.01296 -4.805895,0.764815 -7.4042,1.457275 -0.153637,0.0413 -0.187672,0.03337 -0.447001,0.196888 -2.531326,1.598894 -6.282568,5.442828 -6.696749,5.82445 -0.455241,0.419445 -1.37964,1.26912 -2.102714,1.633492 -0.887888,0.447224 -2.616669,2.37118 -2.717663,3.04736 -0.05102,0.34753 0.01752,0.46278 0.148311,0.53227 0.06236,0.0918 0.05712,0.20019 0.185002,0.24959 0.306707,0.11776 0.680352,-0.18354 0.894002,-0.41444 0.213651,-0.2309 1.305863,-0.91054 1.305863,-0.91054 l 0.129191,0.0739 c 0,0 -0.745954,0.7191 -0.792199,0.77928 -0.04616,0.0599 -0.29478,0.53893 0.254248,0.38602 0.549108,-0.15299 1.242818,-0.85266 1.242818,-0.85266 l 0.44235,-0.24701 c 0,0 0.56104,0.45429 0.648023,0.80822 0.08714,0.35392 0.237209,0.77059 0.72347,0.66352 0.267589,-0.0591 0.06887,-0.39594 0.06563,-0.53743 0.0097,-0.18587 0.219715,-0.596 0.206189,-0.90537 l 0.192236,-1.639698 c 0.957458,-1.191679 2.991404,-2.8451 4.191992,-3.542419 1.219296,-0.708253 3.823539,-2.039152 3.823539,-2.039152 l 3.938778,-0.106454 c 1.577676,-1.521387 3.223059,-1.969389 3.223059,-1.969389 0,0 -2.46896,1.510063 -3.90312,3.854546 0,0 -4.157181,1.478002 -6.316928,2.516125 -0.05426,0.02592 -0.08557,0.03903 -0.127124,0.08423 -1.740545,1.896288 -3.791848,5.719034 -5.011063,10.208684 -0.303063,1.10615 -0.739081,2.2341 -0.655257,3.37912 0.05588,0.75912 0.529174,1.42586 0.756026,2.15129 0.359269,1.14859 -0.04772,2.15863 0.806152,2.99517 0.671241,0.65788 1.879738,0.25433 2.720247,0.66559 0.345015,0.16887 0.534015,0.80789 0.906405,0.71727 0.613657,-0.14935 0.681752,-1.11218 0.806152,-1.74098 0.232035,-1.17249 0.421145,-1.98184 0,-3.09852 -0.576483,-1.52851 -2.893949,-2.13139 -2.972428,-3.1998 2.245919,-4.42786 2.632316,-6.40408 7.606771,-8.987573 0.35271,-0.21729 0.946713,-0.43718 0.946713,-0.43718 2.169625,-0.816134 4.092773,-1.51774 4.092773,-1.51774 l -3.455088,2.05621 v 0.0274 c 0.05021,0.84496 0.475631,4.311393 0.50333,6.861593 0.02754,2.53481 -1.55993,6.3911 -3.829741,8.75761 -2.721246,2.83738 -2.319224,7.15676 -1.891357,8.22533 0.497032,1.24238 1.531361,2.53233 2.856673,3.79512 1.403304,1.41797 2.814459,2.57679 3.855578,4.03128 l -0.0098,0.008 c 3.179162,4.14229 8.9023,7.71374 8.9023,7.71374 0.504158,0.40219 0.769612,0.46148 0.895551,1.1405 0.640384,3.27213 2.674342,7.57427 4.4229867,9.75548 1.7485624,2.18145 4.0242939,4.28824 6.5670403,6.83317 2.54315113,2.54509 3.7291618,2.97545 4.424537,4.51084 1.1183012,2.14307 2.1514171,2.65582 2.4453268,2.86494 0.2939918,0.20911 0.877271,0.14052 1.1498024,0.0294 0.6083935,-0.24718 1.5120832,-1.1665 4.4369381,-3.30212 3.9586027,-2.89059 4.4004887,-5.86962 4.1816577,-6.19187 -0.218998,-0.32226 -0.276773,-0.28851 -0.688848,-0.30179 -0.412073,-0.013 -0.106947,0.35087 -2.991549,1.73271 -2.8846009,1.38184 -5.4756337,1.24643 -5.4756337,1.24643 -0.8310324,-0.0616 -1.9995673,-0.68819 -3.159498,-2.15232 -0.1154007,-0.14564 -0.2461048,-0.3262 -0.3782721,-0.51004 -0.087834,-0.12219 -0.1800172,-0.2551 -0.27388346,-0.39171 -0.0751761,-0.10943 -0.15102152,-0.22037 -0.22944402,-0.33797 -0.10180108,-0.15261 -0.20541985,-0.31098 -0.31160772,-0.47542 -0.0730938,-0.11322 -0.14700515,-0.22878 -0.22169438,-0.34675 -0.11337131,-0.17903 -0.22775333,-0.3614 -0.34364612,-0.54932 -0.0797428,-0.12935 -0.15991416,-0.26119 -0.24029722,-0.39377 -0.10942902,-0.18044 -0.21903796,-0.36155 -0.32866012,-0.54622 -0.0893736,-0.15063 -0.17783704,-0.30254 -0.26665238,-0.45476 -0.10411358,-0.17837 -0.20815038,-0.35642 -0.31057318,-0.53536 -0.1003036,-0.17531 -0.1973421,-0.34932 -0.2950739,-0.52348 -0.082894,-0.14769 -0.1676189,-0.29607 -0.2480469,-0.44184 -0.1060794,-0.19232 -0.2052955,-0.37736 -0.3059245,-0.56431 -0.073745,-0.13696 -0.1509606,-0.27781 -0.2211758,-0.41082 -0.1608772,-0.30486 -0.3132852,-0.60083 -0.4511331,-0.87695 -0.1457219,-0.29192 -0.3118485,-0.60064 -0.491445,-0.92036 -0.3591957,-0.63945 -0.7740385,-1.32123 -1.1963082,-1.99264 -0.6333913,-1.00708 -1.2833138,-1.99074 -1.786972,-2.77244 -0.2734919,-0.42448 -0.4859047,-0.76647 -0.6469883,-1.04335 -0.036682,-0.0631 -0.087598,-0.14434 -0.1167897,-0.19792 -7.14e-5,-1.3e-4 7.14e-5,-3.9e-4 0,-5.2e-4 -0.07784,-0.14284 -0.1526619,-0.29421 -0.2242741,-0.45165 -0.039714,-0.0873 -0.075951,-0.17981 -0.1136888,-0.27027 -0.03116,-0.0747 -0.064265,-0.147 -0.094051,-0.22324 -0.027334,-0.07 -0.051345,-0.14156 -0.077515,-0.21239 -0.036653,-0.0992 -0.074205,-0.19771 -0.1085188,-0.29766 -0.030663,-0.0893 -0.058063,-0.17762 -0.086818,-0.26665 -0.025749,-0.0798 -0.053337,-0.15981 -0.077515,-0.23874 -0.04631,-0.15118 -0.088792,-0.29956 -0.1291908,-0.44442 -0.00373,-0.0134 -0.00821,-0.0275 -0.011885,-0.0408 -0.042577,-0.15395 -0.081719,-0.30252 -0.1173056,-0.4439 -0.00116,-0.005 -0.00246,-0.01 -0.00362,-0.0145 -0.073208,-0.29174 -0.1309185,-0.55064 -0.1726009,-0.75448 h -5.16e-4 c -0.00182,-0.009 -0.00548,-0.0239 -0.00723,-0.0326 -0.1629516,-0.80478 -0.7903157,-1.79978 -1.0986426,-2.11718 -0.6992616,-0.76025 -1.3277556,-2.83777 -2.3543756,-4.52065 -2.308043,-3.78344 -3.590634,-5.97602 -6.276621,-9.44594 h 0.0021 c -0.05072,-0.066 -0.09426,-0.12535 -0.146244,-0.19223 1.008238,-1.60157 1.460791,-2.70391 1.708939,-3.25355 0.337383,-0.64681 0.616236,-1.32153 0.857829,-2.01332 0.08018,-0.22948 0.156377,-0.46054 0.228928,-0.69349 2.6e-4,-8.4e-4 2.57e-4,-0.002 5.16e-4,-0.003 0.07253,-0.23296 0.141902,-0.46763 0.208257,-0.70332 2.35e-4,-8.4e-4 2.77e-4,-0.002 5.15e-4,-0.003 0.06633,-0.23569 0.130099,-0.47236 0.19172,-0.71003 2.2e-4,-8.5e-4 2.97e-4,-0.002 5.16e-4,-0.003 0.432475,-1.66884 0.767088,-3.37727 1.25522,-4.99659 2.54e-4,-8.4e-4 2.65e-4,-0.002 5.19e-4,-0.003 0.209121,-0.69347 0.446961,-1.37034 0.732253,-2.02107 0.2897,-0.82569 1.583513,-2.10014 2.411225,-4.70152 0.106042,-0.33328 0.196561,-0.690883 0.272851,-1.066093 1.72e-4,-8.4e-4 3.44e-4,-0.002 5.16e-4,-0.003 0,-1.8e-4 3e-6,-3.4e-4 0,-5.2e-4 0.5184403,-2.553112 0.3540018,-5.96109 -0.432533,-8.677506 0,0 0.702403,-1.135605 1.5487438,-1.984375 0.9429591,-0.94547 1.2989692,-1.297152 2.1094329,-0.99012 0,0 1.4437783,1.372976 1.9709368,1.48053 0.5271611,0.107635 0.6848052,-0.07301 0.8681641,-0.333313 0.1840891,-0.260058 0.052803,-0.601468 0.214458,-0.88315 0.098809,-0.171859 0.380021,-0.154864 0.501261,-0.311093 0.1272355,-0.162708 0.085725,-0.413873 0.1906879,-0.592212 0.063982,-0.106259 0.1897988,-0.163331 0.2532142,-0.26975 0.1478042,-0.253417 0.048704,-0.643123 0.2625143,-0.842843 0.5541301,0.06722 0.6277795,0.285918 0.8816022,-0.109554 0.3976582,-0.621108 -0.3062578,-1.689306 0.064595,-2.392619 0.104394,-0.202959 0.3514751,-0.392924 0.4490667,-0.599446 0.3613758,-0.656743 0.3377776,-1.630494 0.2072216,-2.157491 -0.4575889,-2.882821 -2.7193636,-4.812956 -5.7913772,-4.7625 z M 12.746871,89.674482 c -4.1100296,0 -6.9773509,3.115791 -6.9773509,6.919991 v 0.03824 c 0,3.842407 2.9246513,6.881757 6.8626299,6.881757 2.58072,0 4.110106,-0.91762 5.486488,-2.38952 l -1.873272,-1.892913 c -1.051401,0.955903 -1.988304,1.567863 -3.517614,1.567863 -2.293972,0 -3.8803843,-1.912043 -3.8803843,-4.205944 v -0.03772 c 0,-2.2939 1.6246453,-4.167187 3.8803843,-4.167187 1.338149,0 2.389722,0.573285 3.422012,1.509985 l 1.873272,-2.160075 c -1.242571,-1.2234 -2.752805,-2.064473 -5.276165,-2.064473 z m 86.701168,0 c -4.05267,0 -7.015593,3.115791 -7.015593,6.919991 v 0.03824 c 0,3.957107 2.867342,6.881757 7.034712,6.881757 1.058762,0 2.013262,-0.17999 2.867522,-0.47749 v 5.1e-4 c 1.12004,-0.3901 2.06758,-0.98336 2.84841,-1.64486 v -5.811532 h -2.84841 -2.963124 v 2.542479 h 2.963124 v 1.911513 c -0.74554,0.5353 -1.7014,0.80305 -2.77192,0.80305 -2.370439,0 -4.052467,-1.796763 -4.052467,-4.243667 v -0.03824 c 0,-2.2748 1.701105,-4.167187 3.842145,-4.167187 1.548422,0 2.466202,0.496823 3.498492,1.357023 l 1.85415,-2.236556 c -1.3955,-1.1852 -2.84836,-1.83503 -5.257041,-1.835031 z m -77.38494,0.228926 v 13.381612 h 2.944005 v -4.727363 -0.6444 h 5.429128 v 0.6444 4.727363 h 2.94349 V 89.903408 h -2.94349 v 4.632276 0.663008 h -5.429128 v -0.663008 -4.632276 z m 16.245003,0 v 13.381612 h 2.944006 V 89.903408 Z m 13.992945,0 -3.172934,5.17e-4 h -2.944005 v 13.381095 h 2.944005 v -4.281913 -0.001 h 2.313038 l 2.867007,4.282433 h 3.441133 l -3.269048,-4.779043 c 1.701358,-0.6308 2.867525,-1.988484 2.867525,-4.148584 v -0.03772 c 0,-1.2617 -0.401162,-2.313228 -1.146702,-3.058728 -0.879359,-0.879399 -2.198661,-1.357023 -3.900019,-1.357023 z m 9.07438,0 v 7.646559 c 0,3.938003 2.198521,5.945383 5.792412,5.945383 3.59388,0 5.868892,-1.98828 5.868892,-6.040983 v -7.550959 h -2.944006 v 7.665679 c 0,2.1219 -1.089705,3.211693 -2.886646,3.211693 -1.796939,0 -2.886647,-1.127993 -2.886644,-3.307293 v -7.570079 z m 22.364528,0 -3.172934,5.17e-4 h -2.944008 v 13.381095 h 2.944008 v -4.281913 -0.001 h 2.313038 l 2.867525,4.282433 h 3.440615 l -3.269051,-4.779043 c 1.70136,-0.6308 2.867525,-1.988484 2.867525,-4.148584 v -0.03772 c 0,-1.2617 -0.401159,-2.313228 -1.146699,-3.058728 -0.879351,-0.879399 -2.198661,-1.357023 -3.900019,-1.357023 z m 25.978255,0 v 13.381612 h 2.94401 V 89.903408 Z m 7.87549,0 v 13.381612 h 10.18904 v -2.61896 h -7.26415 v -2.026233 -0.78393 h 6.30866 v -2.618964 h -6.30866 V 94.765644 92.52237 h 7.16855 v -2.618962 z m -68.465587,2.657203 h 2.924368 c 1.433733,0 2.313038,0.649811 2.313038,1.911511 v 0.03772 c 0,1.1279 -0.821946,1.892391 -2.255676,1.892391 l -2.98173,5.17e-4 z m 31.438908,0 h 2.924368 c 1.43373,0 2.313038,0.649811 2.313038,1.911511 v 0.03772 c 0,1.1279 -0.821947,1.892391 -2.255676,1.892391 l -2.98173,5.17e-4 z M 66.808688,111.20857 c -4.197855,0 -7.24917,3.16776 -7.24917,7.03523 v 0.0388 c 0,3.86747 3.012545,6.99647 7.210411,6.99647 4.197858,0 7.249171,-3.16775 7.249171,-7.03523 v -0.0393 c 0,-3.86747 -3.012557,-6.99596 -7.210412,-6.99596 z m -31.330905,0.0388 c -2.779133,0 -4.761465,1.63233 -4.761465,4.10052 v 0.0388 c 0,2.70141 1.768496,3.45927 4.508767,4.15892 2.27384,0.58303 2.739885,0.97218 2.739885,1.73013 v 0.0387 c 0,0.79683 -0.738304,1.28261 -1.962672,1.28261 -1.554765,0 -2.837394,-0.6415 -4.061766,-1.65209 l -1.768367,2.11873 c 1.6325,1.45759 3.711691,2.17661 5.77174,2.17661 2.934618,0 4.995045,-1.51591 4.995045,-4.21731 v -0.0393 c 0,-2.371 -1.554763,-3.3618 -4.314465,-4.08088 -2.351572,-0.60247 -2.934706,-0.89403 -2.934706,-1.78801 v -0.0388 c 0,-0.66077 0.602097,-1.18597 1.748729,-1.18597 1.146636,0 2.332308,0.50531 3.537255,1.341 l 1.554943,-2.25412 c -1.379853,-1.10776 -3.070604,-1.72961 -5.052923,-1.72961 z m -29.7082629,0.1943 v 5.8813 h 2.184363 c 2.3777969,0 3.5708409,-1.23474 3.5708409,-2.97398 v -0.0171 c 0,-1.73924 -1.167874,-2.89026 -3.5036632,-2.89026 z m 10.5435429,0 v 3.24321 c 0,1.94929 1.134218,2.75591 2.890263,2.75591 1.75604,0 2.923852,-0.78965 2.923852,-2.79776 v -3.20136 h -1.999361 v 3.25975 c 0,0.71418 -0.378105,0.99994 -0.907439,0.99994 -0.529333,0 -0.907438,-0.31081 -0.907438,-1.0418 v -3.21789 z m 29.054557,0 v 13.60434 h 2.993098 v -4.08141 h 2.273763 c 3.051223,0 5.499923,-1.63271 5.499923,-4.7811 v -0.0388 c 0,-2.77915 -1.962901,-4.70307 -5.208468,-4.70307 z m 33.118908,0 v 13.60434 h 2.993099 v -4.35374 h 2.351278 l 2.915066,4.35374 h 3.498495 l -3.323312,-4.85862 c 1.729671,-0.64134 2.915068,-2.0212 2.915068,-4.21731 v -0.0393 c 0,-1.28268 -0.407866,-2.35142 -1.16582,-3.10937 -0.893985,-0.89399 -2.234944,-1.37976 -3.964615,-1.37976 z m 14.885395,0 v 2.75952 h 4.1398 v 10.84482 h 2.992577 v -10.84482 h 4.1398 v -2.75952 z m -85.6361148,1.71411 h 0.3276282 c 0.8990277,0 1.4784626,0.36939 1.4784626,1.21801 v 0.0171 c 0,0.8486 -0.5794349,1.21852 -1.4784626,1.21852 H 7.7358082 Z m 59.0341208,0.81235 c 2.409873,0 4.120163,1.94357 4.120163,4.27571 v 0.0388 c 0,2.33214 -1.671523,4.23695 -4.081404,4.23695 -2.409883,0 -4.120163,-1.94357 -4.120163,-4.27571 v -0.0393 c 0,-2.33214 1.671524,-4.23644 4.081404,-4.23644 z m -18.409211,0.17467 h 2.31252 c 1.496467,0 2.429309,0.71936 2.429309,2.06034 v 0.0388 c 0,1.16606 -0.874448,2.06033 -2.370913,2.06033 h -2.370916 z m 33.118909,0 h 2.973462 c 1.457581,0 2.351278,0.66088 2.351278,1.94355 v 0.0393 c 0,1.14664 -0.835808,1.92392 -2.293401,1.92392 h -3.031339 z m -124.964464,4.76302 c -0.09339,0.002 -0.19285,0.0201 -0.302307,0.0543 -0.687439,0.21445 -1.477476,0.91148 -2.73265,1.28054 -1.756176,0.49202 -5.112736,2.32313 -6.100403,3.55482 -0.371337,0.46309 -0.155594,1.28324 0.420646,0.96325 1.623515,-0.9015 4.324385,-0.8282 5.331974,-0.46974 1.187063,0.26556 4.00704,3.60237 6.446118,6.93136 1.492961,2.03761 2.862019,4.73201 4.56458,6.93136 1.702642,2.19927 1.876347,2.57126 2.732649,3.80028 0.856384,1.22893 2.656436,0.85332 3.198255,0.3328 2.936598,-3.28704 4.882282,-7.52233 5.931421,-11.80651 -0.937212,-1.3611 -2.414592,-2.64085 -3.77238,-3.93465 -0.22335,-0.21117 -0.446727,-0.43019 -0.667659,-0.65371 -0.21351,-0.216 -0.424075,-0.43793 -0.627352,-0.66559 -0.03,-0.0336 -0.0592,-0.0679 -0.08888,-0.1018 -0.124957,-0.14256 -0.245742,-0.2879 -0.363802,-0.43512 -0.05585,-0.0698 -0.112412,-0.13899 -0.166398,-0.2098 -0.0491,-0.0643 -0.09574,-0.12964 -0.143144,-0.19482 -0.05733,-0.079 -0.113863,-0.15849 -0.168465,-0.23875 -0.04292,-0.063 -0.08449,-0.12687 -0.125573,-0.19068 -0.05771,-0.0898 -0.113129,-0.18046 -0.166915,-0.27182 -0.03243,-0.055 -0.06574,-0.10974 -0.09663,-0.16537 -0.08284,-0.14927 -0.161768,-0.29965 -0.232544,-0.4532 -0.28564,0.62674 -0.504381,1.26669 -0.673344,1.9141 -0.732255,2.80535 -0.52832,5.75037 -0.767912,8.36331 -1.456758,-2.32383 -3.659806,-4.06343 -5.436877,-5.19607 -3.066019,-1.92383 -4.497651,-5.12746 -4.483964,-6.51691 0.0097,-0.5939 -0.116506,-1.6563 -0.712101,-2.2195 -0.289133,-0.2734 -0.516153,-0.40883 -0.796334,-0.40204 z m 49.2688272,3.61528 v 2.50682 H 22.378326 v -2.50682 z m 86.5719748,8.65993 -1.534789,1.99213 h 0.269234 1.297078 l 1.687234,-1.2423 z m -74.42543,2.19057 v 5.2e-4 c -2.399451,0 -4.162021,1.82219 -4.162021,4.04109 v 0.0212 c 0,2.218 1.741676,4.02198 4.140317,4.02198 2.399451,0 4.16047,-1.82437 4.16047,-4.04317 v -0.0222 c 0,-2.218 -1.740107,-4.01939 -4.138766,-4.01939 z m 94.771475,0 v 5.2e-4 c -2.35751,0 -4.09587,1.82309 -4.09587,4.04109 v 0.0212 c 0,2.2997 1.69084,4.02146 4.10724,4.02146 1.41691,0 2.51847,-0.55602 3.31453,-1.23042 l 0.047,-0.0387 v -3.4768 h -3.54707 v 1.69913 h 1.6738 v 0.85731 c -0.38838,0.2632 -0.87213,0.41238 -1.4335,0.41238 -1.2724,0 -2.15801,-0.9437 -2.15801,-2.2655 v -0.0222 c 0,-1.2193 0.90745,-2.22053 2.03915,-2.22053 0.84653,0 1.31746,0.25692 1.89032,0.73432 l 0.10387,0.0858 1.2144,-1.46658 -0.0992,-0.0842 c -0.80477,-0.6835 -1.672,-1.06815 -3.05666,-1.06815 z m 26.51569,0 v 5.2e-4 c -2.38897,0 -4.07468,1.82529 -4.07468,4.04109 v 0.0212 c 0,2.2381 1.71712,4.02146 4.01009,4.02146 1.48943,0 2.40286,-0.54538 3.19515,-1.39268 l 0.0879,-0.092 -1.23817,-1.25006 -0.0935,0.0842 c -0.58588,0.5327 -1.06983,0.85162 -1.89859,0.85162 -1.22256,0 -2.06034,-1.0093 -2.06034,-2.2443 v -0.0217 c 0,-1.2336 0.85913,-2.22105 2.06034,-2.22105 0.71824,0 1.27586,0.30135 1.84588,0.81855 l 0.0992,0.0899 1.22886,-1.41594 -0.0879,-0.0858 c -0.71862,-0.7075 -1.61917,-1.20509 -3.07423,-1.20509 z m -87.798771,0.077 -3.351734,7.87859 h 0.199472 1.784903 l 0.691433,-1.69758 h 3.017385 l 0.69143,1.69758 h 2.029336 L 53.12787,133.4486 Z m 78.152331,0 -3.35173,7.87859 h 0.19947 1.78491 l 0.69143,-1.69758 h 3.01738 l 0.69143,1.69758 h 2.02934 L 131.2802,133.4486 Z M 9.434412,133.4987 v 10e-4 H 5.7917398 v 7.82639 h 0.1328103 3.5977115 c 0.8711114,0 1.6033404,-0.17542 2.1290704,-0.54312 0.525748,-0.3678 0.83199,-0.93688 0.83199,-1.66398 v -0.0217 c 0,-0.5311 -0.145672,-0.94691 -0.41031,-1.26711 -0.22447,-0.2716 -0.562285,-0.44625 -0.923976,-0.60565 0.491731,-0.3243 0.914157,-0.8053 0.914157,-1.6154 v -0.0222 c 0,-0.5478 -0.190582,-1.01115 -0.558623,-1.37925 -0.46397,-0.4639 -1.181878,-0.709 -2.070158,-0.709 z m 17.939475,0.002 v 5.2e-4 h -3.587896 v 7.8264 h 0.132808 1.794724 v -2.41949 h 1.103807 l 1.621089,2.41949 h 2.265495 l -1.91978,-2.80655 c 0.915192,-0.3978 1.574065,-1.17203 1.574065,-2.37143 v -0.0217 c 0,-0.7409 -0.238887,-1.37216 -0.687295,-1.82056 -0.526661,-0.5267 -1.310989,-0.80667 -2.297017,-0.80667 z m 72.710803,0 v 5.2e-4 h -3.587892 v 7.8264 h 0.130741 1.797306 v -2.41949 h 1.103292 l 1.619023,2.41949 h 2.26549 l -1.91771,-2.80655 c 0.91519,-0.3978 1.57407,-1.17203 1.57407,-2.37143 v -0.0217 c 0,-0.7409 -0.23891,-1.37216 -0.6873,-1.82056 -0.52665,-0.5267 -1.311,-0.80667 -2.29702,-0.80667 z m -67.988094,5.2e-4 v 7.8264 h 0.132808 2.949172 c 2.437451,0 4.148585,-1.71828 4.148585,-3.91398 v -0.0217 c 0,-2.1958 -1.711955,-3.89072 -4.148585,-3.89072 z m 8.943123,5.2e-4 v 7.82588 h 0.132808 5.888529 v -1.74615 h -4.103108 v -1.32189 h 3.564123 v -1.74407 h -3.564123 v -1.26969 h 4.050398 v -1.74408 z m 16.376777,0 v 4.45295 c 0,1.137 0.320296,2.0166 0.914156,2.6076 0.59386,0.591 1.450417,0.88263 2.490288,0.88263 1.03964,0 1.908701,-0.2883 2.513541,-0.8847 0.60483,-0.5963 0.935861,-1.4907 0.935861,-2.6603 v -4.39818 h -1.928048 v 4.46277 c 0,0.5768 -0.147376,0.99443 -0.399976,1.26763 -0.252611,0.2733 -0.617244,0.41599 -1.098124,0.41599 -0.479941,0 -0.844407,-0.14745 -1.097608,-0.42995 -0.253209,-0.2824 -0.402042,-0.71278 -0.402042,-1.30638 v -4.41006 z m 8.10183,0 2.616895,3.84731 -2.726449,3.97857 h 2.212785 l 1.635043,-2.48202 1.624708,2.48202 h 2.266011 l -2.726965,-3.99976 2.619478,-3.82612 h -2.212785 l -0.03927,0.061 -1.4981,2.281 -1.505853,-2.34146 z m 13.365077,0 v 7.82588 h 0.130742 1.763715 v -4.59559 l 1.902727,2.88871 h 0.185518 l 1.923396,-2.91816 v 4.62504 h 1.918229 v -7.82588 h -1.99781 l -1.914094,3.07991 -1.914096,-3.07991 z m 9.871231,0 v 7.82588 h 0.132808 5.888529 v -1.74615 h -4.103623 v -1.32189 h 3.562572 v -1.74407 h -3.562572 v -1.26969 h 4.048847 v -1.74408 z m 16.128736,0 v 7.82588 h 0.13074 1.7973 v -7.82588 z m 13.02349,0 v 7.82588 h 0.13074 1.7756 v -4.5465 l 3.46284,4.5465 h 1.61334 v -7.82588 h -1.90634 v 4.39611 l -3.34554,-4.39611 z m -99.998029,1.66863 v 5.2e-4 c 1.26815,0 2.156457,1.01083 2.156457,2.24224 v 0.0212 c 0,1.2329 -0.865174,2.22312 -2.134753,2.22312 -1.268119,0 -2.158008,-1.013 -2.158008,-2.2443 v -0.0222 c 0,-1.2329 0.866754,-2.22053 2.136304,-2.22053 z m -10.2324509,0.0543 h 1.509985 c 0.3333803,0 0.5793264,0.0685 0.7322556,0.17828 0.1529103,0.1094 0.2268593,0.25481 0.2268593,0.46871 v 0.0207 c 0,0.2443 -0.08711,0.38916 -0.2619986,0.49816 -0.1748896,0.109 -0.4516438,0.16795 -0.8046032,0.16795 H 7.6763801 Z m 18.0371429,0.047 h 1.519804 c 0.385019,0 0.68104,0.089 0.874882,0.24443 0.19386,0.1556 0.300757,0.37917 0.300757,0.70487 v 0.0222 c 0,0.2865 -0.100912,0.5095 -0.288872,0.67179 -0.18796,0.1622 -0.472194,0.26356 -0.853694,0.26356 h -1.552877 z m 8.310602,0 h 1.154451 c 1.299951,0 2.146639,0.86836 2.146639,2.14716 v 0.0207 c 0,0.6394 -0.219101,1.16626 -0.592212,1.53686 -0.373118,0.3705 -0.903766,0.58807 -1.554427,0.58807 h -1.154451 z m 64.40072,0 h 1.519288 c 0.385017,0 0.681047,0.089 0.874887,0.24443 0.19383,0.1556 0.2992,0.37917 0.2992,0.70487 v 0.0222 c 0,0.2865 -0.0994,0.5095 -0.28732,0.67179 -0.18796,0.1622 -0.47219,0.26356 -0.853694,0.26356 h -1.552361 z m -46.173926,0.66043 0.80822,1.97094 h -1.614887 z m 78.152331,0 0.80822,1.97094 h -1.61489 z m -56.802729,0.99839 v 1.84174 h 0.132808 3.458704 v -1.84174 z m -65.9241409,1.27899 h 1.7911048 c 0.4104217,0 0.6914201,0.079 0.8593801,0.19689 0.167978,0.1184 0.240294,0.27157 0.240294,0.49247 v 0.0212 c 0,0.2461 -0.08623,0.39911 -0.255796,0.51211 -0.169572,0.1131 -0.437441,0.17777 -0.7891014,0.17777 H 7.6763801 Z"
       id="path4952" />
  </g>
</svg>
