<?xml version="1.0" encoding="UTF-8" standalone="no"?>
<svg
   xmlns:dc="http://purl.org/dc/elements/1.1/"
   xmlns:cc="http://creativecommons.org/ns#"
   xmlns:rdf="http://www.w3.org/1999/02/22-rdf-syntax-ns#"
   xmlns:svg="http://www.w3.org/2000/svg"
   xmlns="http://www.w3.org/2000/svg"
   xmlns:sodipodi="http://sodipodi.sourceforge.net/DTD/sodipodi-0.dtd"
   xmlns:inkscape="http://www.inkscape.org/namespaces/inkscape"
   id="svg5782"
   version="1.1"
   viewBox="0 0 25.399999 25.400001"
   height="96"
   width="96"
   sodipodi:docname="1_cobuy.svg"
   inkscape:version="1.0.1 (1.0.1+r73)">
  <style></style>
  <sodipodi:namedview
     pagecolor="#ffffff"
     bordercolor="#666666"
     borderopacity="1"
     objecttolerance="10"
     gridtolerance="10"
     guidetolerance="10"
     inkscape:pageopacity="0"
     inkscape:pageshadow="2"
     inkscape:window-width="2560"
     inkscape:window-height="1386"
     id="namedview10"
     showgrid="false"
     inkscape:zoom="4.247085"
     inkscape:cx="-7.2369246"
     inkscape:cy="100.93801"
     inkscape:window-x="1920"
     inkscape:window-y="0"
     inkscape:window-maximized="1"
     inkscape:current-layer="logo-white" />
  <defs
     id="defs5776">
    <clipPath
       id="clipPath20-8"
       clipPathUnits="userSpaceOnUse">
      <path
         id="path18-0-9"
         d="m 541.781,371.848 v 0 h 0.043 z" />
    </clipPath>
  </defs>
  <metadata
     id="metadata5779">
    <rdf:RDF>
      <cc:Work
         rdf:about="">
        <dc:format>image/svg+xml</dc:format>
        <dc:type
           rdf:resource="http://purl.org/dc/dcmitype/StillImage" />
        <dc:title />
      </cc:Work>
    </rdf:RDF>
  </metadata>
  <rect
     y="-4.4140625e-06"
     x="-2.220446e-16"
     height="25.4"
     width="25.4"
     id="rect6729"
     style="vector-effect:none;fill:none;fill-opacity:1;stroke:none;stroke-width:0.529167;stroke-linecap:butt;stroke-linejoin:miter;stroke-miterlimit:4;stroke-dasharray:1.05833, 2.11667;stroke-dashoffset:0;stroke-opacity:1;paint-order:stroke markers fill" />
  <g
     id="logo-white"
     stroke="none"
     stroke-width="1.76416"
     fill="none"
     fill-rule="evenodd"
     transform="matrix(0.14997696,0,0,0.14997696,2.3726792,8.4364098)">
    <g
       id="Group"
       fill-rule="nonzero"
       style="stroke-width:3.11226">
      <path
         d="m 4.3022763,53.574476 c 0.6914772,0 1.2910492,-0.133836 1.7987161,-0.401508 0.5076668,-0.267672 0.8949816,-0.619531 1.1619443,-1.055577 0.2669627,-0.436046 0.4004441,-0.895837 0.4004441,-1.379373 0,-0.656228 -0.2275748,-1.232586 -0.6827244,-1.729074 C 6.5255069,48.512455 5.8865469,48.1865 5.0637765,48.031078 v 0 L 3.7639744,47.784992 C 3.4313651,47.715916 3.1797199,47.590714 3.0090388,47.409388 2.8383577,47.228062 2.7530171,47.00788 2.7530171,46.748843 c 0,-0.319479 0.1356696,-0.593627 0.4070088,-0.822443 0.2713392,-0.228817 0.6214542,-0.343225 1.0503452,-0.343225 0.5339254,0 0.9321813,0.129519 1.1947676,0.388556 0.2625863,0.259038 0.4288909,0.561248 0.4989139,0.906631 v 0 L 7.5320877,46.386191 C 7.4007945,45.755867 7.065997,45.201095 6.5276951,44.721876 5.9893932,44.242657 5.2125754,44.003048 4.1972417,44.003048 c -0.5776898,0 -1.1159917,0.12736 -1.6149057,0.38208 -0.4989139,0.25472 -0.8949816,0.602261 -1.1882029,1.042625 -0.2932214,0.440363 -0.43983208,0.9239 -0.43983208,1.450609 0,0.690766 0.21882188,1.262807 0.65646568,1.716122 0.4376439,0.453315 1.0328395,0.757684 1.7855869,0.913106 v 0 l 1.2998021,0.259038 c 0.3588679,0.06908 0.6367718,0.200754 0.8337115,0.395032 0.1969397,0.194278 0.2954096,0.425253 0.2954096,0.692924 0,0.336749 -0.1312932,0.608738 -0.3938795,0.815968 -0.2625863,0.20723 -0.6345835,0.310845 -1.1159917,0.310845 -0.6214543,0 -1.1072389,-0.166216 -1.4573539,-0.498647 C 2.5079366,51.150319 2.3153733,50.742335 2.2803618,50.258799 v 0 l -1.68055228,0.440363 c 0.0525173,0.474902 0.21882192,0.930376 0.49891398,1.366422 0.280092,0.436046 0.689289,0.79654 1.2275909,1.081481 0.5383019,0.284941 1.1969559,0.427411 1.9759619,0.427411 z m 17.8514917,0 c 0.849029,0 1.641164,-0.196436 2.376406,-0.58931 0.735241,-0.392873 1.321684,-0.951962 1.759328,-1.677266 0.437644,-0.725305 0.656466,-1.562859 0.656466,-2.512662 0,-0.958438 -0.218822,-1.80031 -0.656466,-2.525614 -0.437644,-0.725304 -1.024087,-1.284393 -1.759328,-1.677267 -0.735242,-0.392873 -1.527377,-0.589309 -2.376406,-0.589309 -0.849029,0 -1.638976,0.196436 -2.369842,0.589309 -0.730865,0.392874 -1.315119,0.951963 -1.752763,1.677267 -0.437644,0.725304 -0.656466,1.567176 -0.656466,2.525614 0,0.949803 0.218822,1.787357 0.656466,2.512662 0.437644,0.725304 1.021898,1.284393 1.752763,1.677266 0.730866,0.392874 1.520813,0.58931 2.369842,0.58931 z m 0,-1.73555 c -0.498914,0 -0.969381,-0.114408 -1.411402,-0.343224 -0.44202,-0.228817 -0.800888,-0.5742 -1.076603,-1.03615 -0.275716,-0.461949 -0.413574,-1.021038 -0.413574,-1.677266 0,-0.656228 0.137858,-1.215317 0.413574,-1.677267 0.275715,-0.461949 0.634583,-0.807333 1.076603,-1.036149 0.442021,-0.228816 0.912488,-0.343224 1.411402,-0.343224 0.498914,0 0.971569,0.114408 1.417966,0.343224 0.446396,0.228816 0.807453,0.5742 1.083168,1.036149 0.275716,0.46195 0.413574,1.021039 0.413574,1.677267 0,0.656228 -0.137858,1.215317 -0.413574,1.677266 -0.275715,0.46195 -0.636772,0.807333 -1.083168,1.03615 -0.446397,0.228816 -0.919052,0.343224 -1.417966,0.343224 z m 16.945568,1.541272 v -3.574715 h 3.610562 V 48.160596 H 39.086207 V 45.89402 h 4.070088 v -1.696694 h -5.881933 v 9.182872 z m 17.969656,0 V 45.89402 h 2.940966 v -1.696694 h -7.706907 v 1.696694 h 2.940966 v 7.486178 z m 16.801146,0 2.126949,-6.540692 2.126949,6.540692 h 1.864363 l 2.573346,-9.182872 h -1.851234 l -1.680552,6.346414 -2.074432,-6.346414 h -1.877492 l -2.061302,6.32051 -1.706811,-6.32051 h -1.91688 l 2.586475,9.182872 z m 19.098777,0 0.774629,-2.098202 h 3.781243 l 0.774629,2.098202 h 1.969394 l -3.544911,-9.182872 h -2.100691 l -3.571173,9.182872 z m 3.951923,-3.730137 h -2.573345 l 1.286672,-3.4711 z m 15.120592,3.730137 v -3.535859 h 0.94531 l 1.82498,3.535859 h 2.02191 l -1.99565,-3.756041 c 0.6127,-0.172691 1.09629,-0.490012 1.45079,-0.951962 0.35449,-0.46195 0.53173,-1.012404 0.53173,-1.651363 0,-0.526709 -0.12254,-1.005928 -0.36762,-1.437657 -0.24508,-0.431729 -0.593,-0.770636 -1.04378,-1.016721 -0.45077,-0.246086 -0.96938,-0.369128 -1.55582,-0.369128 v 0 h -3.63682 v 9.182872 z m 1.47049,-5.077131 h -1.47049 V 45.75155 h 1.47049 c 0.4639,0 0.82277,0.114408 1.0766,0.343224 0.25383,0.228816 0.38075,0.54182 0.38075,0.93901 0,0.388556 -0.12692,0.697242 -0.38075,0.926058 -0.25383,0.228817 -0.6127,0.343225 -1.0766,0.343225 z m 19.49265,5.077131 V 51.696456 H 128.987 V 49.57235 h 3.63682 V 47.97927 H 128.987 v -2.098202 h 4.01757 v -1.683742 h -5.82941 v 9.182872 z"
         id="SOFTWARE"
         fill="#ffffff"
         style="stroke-width:5.49052" />
      <path
         d="m 14.859191,30.25053 c 2.565223,0 4.789326,-0.491213 6.672309,-1.473639 1.882983,-0.982426 3.383912,-2.224103 4.502786,-3.725031 1.118874,-1.500929 1.869338,-3.056436 2.251392,-4.666523 v 0 l -5.280539,-1.596442 c -0.436634,1.582797 -1.33719,2.967745 -2.701671,4.154843 -1.36448,1.187098 -3.179239,1.780646 -5.444277,1.780646 -1.582797,0 -3.063258,-0.375232 -4.441383,-1.125696 -1.3781255,-0.750464 -2.4833546,-1.848871 -3.3156876,-3.29522 -0.832333,-1.446349 -1.2484996,-3.165594 -1.2484996,-5.157736 0,-2.1013 0.422989,-3.881946 1.2689668,-5.3419404 0.8459778,-1.4599941 1.951207,-2.5515784 3.3156874,-3.274753 1.36448,-0.7231746 2.81083,-1.0847619 4.339048,-1.0847619 2.319616,0 4.134375,0.5730818 5.444276,1.7192453 1.309901,1.1461635 2.155879,2.5242887 2.537934,4.134376 v 0 L 28.081006,9.6195867 C 27.644373,7.927631 26.880264,6.3584786 25.788679,4.9121294 24.697095,3.4657802 23.223456,2.2855046 21.367763,1.3713028 19.512069,0.45710093 17.315256,0 14.777323,0 12.15752,0 9.7219227,0.62766098 7.4705301,1.8829829 5.2191375,3.1383049 3.411201,4.9121294 2.0467206,7.2044564 0.68224019,9.4967835 0,12.143875 0,15.145732 c 0,3.001857 0.66859539,5.648949 2.0057862,7.941276 1.3371907,2.292327 3.1383048,4.059329 5.4033423,5.301006 2.2650374,1.241677 4.7483915,1.862516 7.4500625,1.862516 z m 31.028284,0 c 2.647092,0 5.116802,-0.620839 7.409129,-1.862516 2.292327,-1.241677 4.120731,-3.008679 5.485211,-5.301006 1.36448,-2.292327 2.04672,-4.939419 2.04672,-7.941276 0,-3.029146 -0.68224,-5.6898829 -2.04672,-7.98221 C 57.417335,4.871195 55.588931,3.1041929 53.296604,1.8625157 51.004277,0.62083857 48.534567,0 45.887475,0 43.240383,0 40.777496,0.62083857 38.498814,1.8625157 36.220132,3.1041929 34.39855,4.871195 33.03407,7.163522 c -1.36448,2.2923271 -2.046721,4.953064 -2.046721,7.98221 0,3.001857 0.682241,5.648949 2.046721,7.941276 1.36448,2.292327 3.186062,4.059329 5.464744,5.301006 2.278682,1.241677 4.741569,1.862516 7.388661,1.862516 z m 0,-5.485211 c -1.555507,0 -3.022324,-0.361587 -4.400449,-1.084762 -1.378125,-0.723175 -2.496999,-1.814759 -3.356622,-3.274753 -0.859622,-1.459994 -1.289434,-3.226996 -1.289434,-5.301006 0,-2.07401 0.429812,-3.841012 1.289434,-5.3010064 0.859623,-1.4599941 1.978497,-2.5515784 3.356622,-3.274753 1.378125,-0.7231746 2.844942,-1.0847619 4.400449,-1.0847619 1.555508,0 3.029147,0.3615873 4.420917,1.0847619 1.39177,0.7231746 2.517466,1.8147589 3.377089,3.274753 0.859622,1.4599944 1.289434,3.2269964 1.289434,5.3010064 0,2.07401 -0.429812,3.841012 -1.289434,5.301006 -0.859623,1.459994 -1.985319,2.551578 -3.377089,3.274753 -1.39177,0.723175 -2.865409,1.084762 -4.420917,1.084762 z"
         id="CO"
         fill="#5ab445"
         style="stroke-width:3.11226;fill:#ffffff;fill-opacity:1" />
      <path
         d="m 76.956694,29.636514 c 1.773824,0 3.342977,-0.347943 4.707457,-1.043828 1.36448,-0.695885 2.41513,-1.657843 3.15195,-2.885876 0.736819,-1.228032 1.105229,-2.619802 1.105229,-4.17531 0,-1.719245 -0.491213,-3.213351 -1.473639,-4.482318 -0.982426,-1.268966 -2.196813,-2.067187 -3.643163,-2.394663 1.255322,-0.409344 2.27186,-1.180275 3.049614,-2.312794 0.777754,-1.132519 1.166631,-2.4355974 1.166631,-3.9092362 0,-1.5009285 -0.347943,-2.8449416 -1.043828,-4.0320396 C 83.28106,3.2133513 82.264522,2.2855046 80.927331,1.6169092 79.590141,0.94831387 78.007344,0.61401617 76.17894,0.61401617 v 0 H 65.740665 V 29.636514 Z M 75.319317,12.607799 H 71.307745 V 5.3624079 h 3.970638 c 1.36448,0 2.401485,0.3138305 3.111015,0.9414915 0.70953,0.6276609 1.064295,1.5145732 1.064295,2.6607367 0,1.1461639 -0.361588,2.0398979 -1.084762,2.6812039 -0.723175,0.641306 -1.739713,0.961959 -3.049614,0.961959 z m 0.573082,12.321258 h -4.584654 v -7.654735 h 4.666523 c 1.36448,0 2.421952,0.354765 3.172417,1.064294 0.750464,0.70953 1.125696,1.651022 1.125696,2.824475 0,1.173453 -0.382055,2.094477 -1.146164,2.763072 -0.764109,0.668596 -1.842048,1.002894 -3.233818,1.002894 z m 21.5315,5.239604 c 1.146164,0 2.230926,-0.225139 3.254291,-0.675418 1.02335,-0.450278 1.79429,-1.125696 2.31279,-2.026253 0,1.037005 0.0546,1.76018 0.16374,2.169524 v 0 h 5.19867 c -0.13645,-0.764109 -0.20468,-1.978497 -0.20468,-3.643163 v 0 -16.4965675 h -5.44427 V 21.204025 c 0,1.200743 -0.3343,2.162702 -1.0029,2.885876 -0.66859,0.723175 -1.60326,1.084762 -2.804002,1.084762 -1.228032,0 -2.149056,-0.36841 -2.763073,-1.105229 -0.614016,-0.736819 -0.921024,-1.719245 -0.921024,-2.947278 v 0 V 9.4967835 H 89.769164 V 22.227385 c 0,1.473639 0.307008,2.81083 0.921025,4.011573 0.614016,1.200742 1.494106,2.155879 2.640269,2.865409 1.146164,0.709529 2.510644,1.064294 4.093441,1.064294 z M 120.92025,37.57779 133.56898,9.4967835 H 127.7563 L 122.80324,21.285894 117.44083,9.4967835 h -6.09923 l 8.55529,17.6017965 -4.74839,10.47921 z"
         id="Buy"
         fill="#ffffff"
         style="stroke-width:3.11226;fill:#ffffff;fill-opacity:1" />
    </g>
  </g>
</svg>
