<?xml version="1.0" encoding="UTF-8" standalone="no"?>
<svg
   xmlns:dc="http://purl.org/dc/elements/1.1/"
   xmlns:cc="http://creativecommons.org/ns#"
   xmlns:rdf="http://www.w3.org/1999/02/22-rdf-syntax-ns#"
   xmlns:svg="http://www.w3.org/2000/svg"
   xmlns="http://www.w3.org/2000/svg"
   id="svg5782"
   version="1.1"
   viewBox="0 0 25.399999 25.400001"
   height="96"
   width="96">
  <defs
     id="defs5776">
    <clipPath
       id="clipPath20-8"
       clipPathUnits="userSpaceOnUse">
      <path
         id="path18-0-9"
         d="m 541.781,371.848 v 0 h 0.043 z" />
    </clipPath>
  </defs>
  <metadata
     id="metadata5779">
    <rdf:RDF>
      <cc:Work
         rdf:about="">
        <dc:format>image/svg+xml</dc:format>
        <dc:type
           rdf:resource="http://purl.org/dc/dcmitype/StillImage" />
        <dc:title></dc:title>
      </cc:Work>
    </rdf:RDF>
  </metadata>
  <g
     transform="translate(0,-271.59998)"
     id="layer1">
    <rect
       y="271.59998"
       x="0"
       height="25.4"
       width="25.4"
       id="rect6729"
       style="opacity:1;vector-effect:none;fill:none;fill-opacity:1;stroke:none;stroke-width:0.52916676;stroke-linecap:butt;stroke-linejoin:miter;stroke-miterlimit:4;stroke-dasharray:1.05833345, 2.11666688;stroke-dashoffset:0;stroke-opacity:1;paint-order:stroke markers fill" />
    <path
       style="fill:#707374;fill-opacity:1;stroke-width:0.03822306"
       d="m 17.999172,287.2702 c -0.38166,-0.13592 -0.56586,-0.42347 -0.53597,-0.83669 0.0211,-0.29174 0.1488,-0.54634 0.40002,-0.79755 l 0.20389,-0.2039 -0.1465,-0.0395 c -0.22378,-0.0603 -0.44055,-0.23814 -0.54385,-0.44631 -0.0903,-0.18189 -0.0925,-0.20983 -0.10432,-1.32295 l -0.0121,-1.13714 h 0.38212 0.38213 l 0.0128,1.0798 c 0.0141,1.18793 0.0238,1.24178 0.24245,1.34552 0.28479,0.13514 0.67069,0.0336 0.79155,-0.20838 0.0587,-0.11753 0.0668,-0.2603 0.0669,-1.17536 l 6e-5,-1.04158 h 0.38545 0.38545 l -0.0159,1.80604 c -0.0135,1.53732 -0.0254,1.83891 -0.0795,2.02699 -0.13411,0.46597 -0.34346,0.73126 -0.71044,0.90024 -0.28963,0.13336 -0.80569,0.15706 -1.10428,0.0507 z m 0.83139,-0.5593 c 0.20099,-0.10393 0.28398,-0.35412 0.30148,-0.90884 0.008,-0.26803 3.97e-4,-0.48729 -0.0178,-0.48724 -0.0674,1.3e-4 -0.49645,0.27855 -0.63844,0.41416 -0.26473,0.25281 -0.37761,0.58563 -0.27882,0.82207 0.0303,0.0725 0.0868,0.15033 0.12558,0.17286 0.10226,0.0594 0.38176,0.0523 0.50802,-0.013 z M 3.6583622,285.73299 c -0.40956,-0.084 -0.72133,-0.3651 -0.86086,-0.77625 -0.0828,-0.24406 -0.12048,-1.00543 -0.063,-1.27355 0.0752,-0.35077 0.1984,-0.61662 0.37852,-0.81696 0.33318,-0.37058 0.69366,-0.51729 1.19153,-0.48494 0.15946,0.0104 0.32002,0.0315 0.35681,0.0469 0.062,0.026 0.0669,-0.0152 0.0669,-0.56853 v -0.59654 h 0.38223 0.38223 l 3.97e-4,1.99715 c 1.3e-4,1.09844 0.0112,2.08746 0.0244,2.19783 l 0.0241,0.20067 h -0.326118 c -0.34901,0 -0.37255,-0.0135 -0.37255,-0.21336 0,-0.12133 -0.039,-0.1166 -0.17052,0.0207 -0.22055,0.2302 -0.64642,0.3423 -1.01405,0.26692 z m 0.80625,-0.65792 c 0.24416,-0.16311 0.26354,-0.25112 0.2636,-1.19722 l 7e-5,-0.84441 -0.14777,-0.0443 c -0.19863,-0.0595 -0.4772,-0.0559 -0.62748,0.008 -0.16149,0.0688 -0.27154,0.19243 -0.37913,0.42586 -0.0779,0.16906 -0.0879,0.24904 -0.0879,0.70665 0,0.44971 0.0107,0.53921 0.0834,0.69655 0.11002,0.23816 0.26943,0.33514 0.55118,0.33533 0.15916,1.3e-4 0.24747,-0.0221 0.34401,-0.0866 z m 2.71688,0.65748 c -0.45433,-0.0798 -0.83656,-0.36048 -1.00028,-0.73442 -0.16911,-0.38627 -0.19779,-1.10184 -0.0617,-1.54006 0.087,-0.28004 0.33449,-0.64136 0.54658,-0.79784 0.5136,-0.37892 1.30428,-0.38207 1.67967,-0.007 0.36034,0.36034 0.30317,1.01707 -0.11641,1.3371 -0.26645,0.20323 -0.82449,0.36849 -1.24429,0.36849 -0.106,0 -0.19272,0.0141 -0.19272,0.0313 0,0.13843 0.13453,0.43451 0.24981,0.54979 0.29894,0.29893 0.72346,0.28729 1.32248,-0.0363 0.0134,-0.007 0.0783,0.10244 0.14443,0.24368 0.0933,0.19937 0.10924,0.26419 0.0713,0.28987 -0.36312,0.24576 -0.96133,0.37194 -1.39885,0.29506 z m 0.25477,-1.97119 c 0.4292,-0.13862 0.59632,-0.49356 0.34888,-0.741 -0.0933,-0.0933 -0.40768,-0.1033 -0.57229,-0.0182 -0.21138,0.10931 -0.42053,0.48514 -0.42053,0.75564 v 0.11531 l 0.22016,-0.023 c 0.1211,-0.0127 0.31179,-0.0526 0.42378,-0.0888 z m 13.8234798,1.98767 c -0.3848,-0.0546 -0.93646,-0.24211 -0.93646,-0.31827 0,-0.0262 0.19018,-0.50821 0.20801,-0.52727 0.005,-0.005 0.12808,0.0445 0.2733,0.111 0.29972,0.13724 0.77483,0.19373 0.93016,0.1106 0.11311,-0.0605 0.20488,-0.2849 0.17402,-0.42543 -0.0348,-0.15853 -0.16442,-0.243 -0.58413,-0.38074 -0.69727,-0.22883 -0.90546,-0.44367 -0.90556,-0.93446 -7e-5,-0.34258 0.10954,-0.57968 0.35445,-0.76667 0.37827,-0.28883 0.9904,-0.32803 1.48802,-0.0953 0.2433,0.11379 0.43156,0.24875 0.43156,0.30937 0,0.0467 -0.31081,0.41878 -0.34981,0.41878 -0.0206,0 -0.0935,-0.0427 -0.16182,-0.0948 -0.43061,-0.32844 -1.01729,-0.25467 -1.01729,0.12792 0,0.25213 0.0658,0.30134 0.6968,0.52101 0.46619,0.1623 0.70021,0.36632 0.78934,0.68813 0.057,0.20582 0.0537,0.31247 -0.0171,0.55092 -0.0797,0.26848 -0.30596,0.51251 -0.56497,0.60942 -0.20407,0.0763 -0.60809,0.1242 -0.8085,0.0958 z m -11.5846298,-0.0678 c -0.22682,-0.071 -0.37656,-0.19649 -0.49979,-0.41881 l -0.10873,-0.19616 -0.0114,-1.29003 -0.0114,-1.29002 h 0.38412 0.38412 l 2.65e-4,1.11802 c 2.64e-4,1.17271 0.0213,1.36188 0.162669,1.46091 0.1177298,0.0825 0.4037008,0.0739 0.5519398,-0.0164 0.24884,-0.15173 0.25858,-0.20351 0.271541,-1.44447 l 0.0117,-1.11802 h 0.37856 0.37857 l 0.0111,1.20129 c 0.0106,1.15191 0.0144,1.20573 0.0914,1.30914 0.0686,0.0921 0.111039,0.10949 0.2912,0.11916 0.18041,0.01 0.22786,-0.003 0.32841,-0.0876 0.33683,-0.28342 0.40879,-1.28369 0.16339,-2.2712 l -0.06729,-0.2708 h 0.37694 c 0.43638,0 0.39716,-0.0381 0.51289,0.49754 0.0965,0.44649 0.097,1.33261 9.26e-4,1.67888 -0.1307,0.47143 -0.35148,0.77457 -0.69064,0.94825 -0.25688,0.13155 -0.74333,0.16557 -0.99471,0.0696 -0.16529,-0.0631 -0.44108,-0.32084 -0.44108,-0.41218 0,-0.0254 -0.0827,0.0352 -0.18377,0.13477 -0.23947,0.23588 -0.49229,0.33296 -0.85822,0.32958 -0.1521898,-0.001 -0.3468798,-0.0245 -0.4326498,-0.0514 z m 4.9102098,0.004 c -0.5415,-0.20221 -0.75885,-0.57001 -0.78961,-1.33617 -0.0307,-0.76497 0.11889,-1.23292 0.50778,-1.58835 0.44882,-0.41019 1.12424,-0.49379 2.01208,-0.24905 l 0.21595,0.0595 0.021,1.40074 c 0.0115,0.77041 0.0323,1.46524 0.0462,1.54407 l 0.0253,0.14334 h -0.348189 -0.34819 v -0.13152 c 0,-0.17273 -0.0449,-0.19383 -0.15689,-0.0738 -0.168991,0.18107 -0.369831,0.25616 -0.72224,0.27006 -0.209121,0.008 -0.374171,-0.006 -0.463181,-0.0388 z m 0.93942,-0.59299 c 0.0624,-0.0365 0.14852,-0.12589 0.19131,-0.19872 0.0709,-0.12072 0.0789,-0.20892 0.0899,-0.99738 l 0.0121,-0.86495 -0.12292,-0.0428 c -0.16858,-0.0588 -0.50866,-0.0538 -0.65741,0.01 -0.31189,0.13289 -0.45568,0.45128 -0.47849,1.05949 -0.0252,0.6714 0.10489,1.00117 0.43593,1.10524 0.14415,0.0453 0.38665,0.0131 0.52958,-0.0704 z"
       id="path12861" />
  </g>
</svg>
