<?xml version="1.0" encoding="UTF-8" standalone="no"?>
<svg
   xmlns:dc="http://purl.org/dc/elements/1.1/"
   xmlns:cc="http://creativecommons.org/ns#"
   xmlns:rdf="http://www.w3.org/1999/02/22-rdf-syntax-ns#"
   xmlns:svg="http://www.w3.org/2000/svg"
   xmlns="http://www.w3.org/2000/svg"
   id="svg5782"
   version="1.1"
   viewBox="0 0 25.399999 25.400001"
   height="96"
   width="96">
  <defs
     id="defs5776">
    <clipPath
       id="clipPath20-8"
       clipPathUnits="userSpaceOnUse">
      <path
         id="path18-0-9"
         d="m 541.781,371.848 v 0 h 0.043 z" />
    </clipPath>
  </defs>
  <metadata
     id="metadata5779">
    <rdf:RDF>
      <cc:Work
         rdf:about="">
        <dc:format>image/svg+xml</dc:format>
        <dc:type
           rdf:resource="http://purl.org/dc/dcmitype/StillImage" />
        <dc:title></dc:title>
      </cc:Work>
    </rdf:RDF>
  </metadata>
  <g
     transform="translate(0,-271.59998)"
     id="layer1">
    <rect
       y="271.59998"
       x="0.08813975"
       height="25.4"
       width="25.4"
       id="rect6729"
       style="opacity:1;vector-effect:none;fill:none;fill-opacity:1;stroke:none;stroke-width:0.52916676;stroke-linecap:butt;stroke-linejoin:miter;stroke-miterlimit:4;stroke-dasharray:1.05833345, 2.11666688;stroke-dashoffset:0;stroke-opacity:1;paint-order:stroke markers fill" />
    <g
       style="fill:#707374;fill-opacity:1"
       id="g13184"
       transform="matrix(0.10940811,0,0,0.10940811,54.021344,361.11378)">
      <path
         d="m -485.1227,-705.79116 c -2.15064,0 -2.6357,2.03025 -2.6357,3.87816 0,1.87947 0.48506,3.90972 2.6357,3.90972 2.15181,0 2.6357,-2.03025 2.6357,-3.90972 0,-1.84791 -0.48389,-3.87816 -2.6357,-3.87816 m 8.42372,11.75721 h -5.78802 v -1.72753 h -0.0596 c -0.75857,1.00052 -1.66674,2.12142 -4.60634,2.12142 -4.45439,0 -6.6062,-4.39478 -6.6062,-8.33255 0,-3.69699 1.4248,-8.83515 6.69737,-8.83515 1.78713,0 3.39427,1.18169 4.30244,2.51532 l 0.0608,-0.39273 v -7.37645 l 5.99958,-0.004 z"
         style="fill:#707374;fill-opacity:1;fill-rule:nonzero;stroke:none;stroke-width:1.16882467"
         id="path170" />
      <path
         d="m -465.518,-705.79116 c -2.2722,0 -2.57609,2.21259 -2.57609,3.87816 0,1.66674 0.30389,3.90972 2.57609,3.90972 2.2722,0 2.57609,-2.24298 2.57609,-3.90972 0,-1.66557 -0.30389,-3.87816 -2.57609,-3.87816 m 0,12.1511 c -5.90841,0 -8.5745,-3.90855 -8.5745,-8.27294 0,-4.36322 2.66609,-8.89476 8.5745,-8.89476 5.90841,0 8.5745,4.53154 8.5745,8.89476 0,4.36439 -2.66609,8.27294 -8.5745,8.27294"
         style="fill:#707374;fill-opacity:1;fill-rule:nonzero;stroke:none;stroke-width:1.16882467"
         id="path174" />
      <path
         d="m -444.18636,-703.79142 c -0.0608,-0.63584 -0.27234,-1.15012 -0.6674,-1.48441 -0.3635,-0.33311 -0.87779,-0.51545 -1.5148,-0.51545 -2.30258,0 -2.6357,1.99986 -2.6357,3.90855 0,1.90986 0.33312,3.87933 2.6357,3.87933 1.30324,0 2.21142,-1.06129 2.33298,-2.30258 h 5.72841 c -0.27351,2.12024 -1.27285,3.78699 -2.72804,4.93945 -1.42363,1.1209 -3.33349,1.72635 -5.45373,1.72635 -4.7279,0 -8.51489,-3.27271 -8.51489,-8.24255 0,-4.96984 3.78699,-8.92398 8.51489,-8.92398 4.12127,0 7.63593,2.68246 7.99943,7.01529 z"
         style="fill:#707374;fill-opacity:1;fill-rule:nonzero;stroke:none;stroke-width:1.16882467"
         id="path178" />
      <path
         d="m -419.46128,-694.03384 h -5.78685 v -1.99986 h -0.0608 c -1.1209,1.57558 -2.72687,2.39259 -5.12179,2.39259 -2.81687,0 -5.39413,-1.72519 -5.39413,-5.33218 v -11.42059 h 6.00075 v 8.87489 c 0,1.81869 0.21156,3.09154 1.96947,3.09154 1.0309,0 2.39375,-0.51545 2.39375,-3.03076 v -8.93567 h 5.99958 z"
         style="fill:#707374;fill-opacity:1;fill-rule:nonzero;stroke:none;stroke-width:1.16882467"
         id="path182" />
      <path
         d="m -416.21908,-710.39399 h 5.78685 v 2.72453 h 0.0608 c 1.21207,-1.81869 2.96881,-3.13829 5.15218,-3.13829 1.69596,0 3.51466,1.27168 4.24166,2.84842 0.24195,-0.18233 1.45519,-2.84842 5.36257,-2.84842 4.03128,0 5.39413,3.44102 5.39413,5.98672 v 10.78708 h -5.99958 v -8.51489 c 0,-1.48441 -0.15078,-2.81803 -1.96947,-2.81803 -1.5148,0 -2.03025,1.18168 -2.03025,2.81803 v 8.51489 h -5.99957 v -8.51489 c 0,-1.48441 -0.15195,-2.81803 -1.96947,-2.81803 -1.5148,0 -2.03025,1.18168 -2.03025,2.81803 v 8.51489 h -5.99958 z"
         style="fill:#707374;fill-opacity:1;fill-rule:nonzero;stroke:none;stroke-width:1.16882467"
         id="path186" />
      <path
         d="m -376.19197,-703.66986 c 0,-1.45519 -1.09051,-2.6357 -2.6357,-2.6357 -1.7883,0 -2.81804,0.93857 -3.09037,2.6357 z m -5.75646,3.12076 c 0.15195,1.7883 1.18051,3.06232 3.05998,3.06232 0.97013,0 2.03025,-0.36467 2.51531,-1.12207 h 5.60569 c -1.21208,3.3931 -4.51401,4.96867 -8.09061,4.96867 -5.02945,0 -8.81761,-2.96998 -8.81761,-8.21099 0,-4.57712 3.33232,-8.95553 8.30216,-8.95553 6.24152,0 8.93917,4.13647 8.93917,10.2576 z"
         style="fill:#707374;fill-opacity:1;fill-rule:nonzero;stroke:none;stroke-width:1.16882467"
         id="path190" />
      <path
         d="m -367.91833,-710.39399 h 5.78685 v 2.37271 h 0.0608 c 1.1209,-1.5744 2.72687,-2.78647 5.12062,-2.78647 2.81804,0 5.39413,2.38089 5.39413,5.98672 v 10.78708 h -6.00075 v -8.24138 c 0,-1.81869 -0.21156,-3.09154 -1.9683,-3.09154 -1.02973,0 -2.39492,0.51545 -2.39492,3.03076 v 8.30216 h -5.99841 z"
         style="fill:#707374;fill-opacity:1;fill-rule:nonzero;stroke:none;stroke-width:1.16882467"
         id="path194" />
      <path
         d="m -341.07183,-710.39399 h 3.2131 v 4.3305 h -3.2131 v 5.48412 c 0,1.45402 0.33428,2.09103 1.84908,2.09103 0.4535,0 0.90818,-0.0304 1.36402,-0.09 v 4.54439 c -1.21324,0 -2.57726,0.18234 -3.84894,0.18234 -2.5457,0 -5.36374,-0.39507 -5.36374,-4.69751 v -7.51437 h -2.66726 v -4.3305 h 2.66726 v -4.154 h 5.99958 z"
         style="fill:#707374;fill-opacity:1;fill-rule:nonzero;stroke:none;stroke-width:1.16882467"
         id="path198" />
      <path
         d="m -326.37596,-701.09471 c -0.72701,0.36467 -1.54636,0.57623 -2.36336,0.7574 -1.33246,0.30389 -2.03025,0.63701 -2.03025,1.69713 0,0.72818 0.78895,1.45402 1.8783,1.45402 1.36519,0 2.42531,-0.81701 2.51531,-2.45336 z m 5.75763,3.54621 c 0,1.18169 0.0596,2.51531 0.72701,3.51466 h -6.12114 c -0.15077,-0.42428 -0.24194,-1.06129 -0.21272,-1.48441 h -0.0596 c -1.27285,1.45402 -3.12193,1.87714 -5.06101,1.87714 -3.0296,0 -5.54608,-1.45402 -5.54608,-4.75595 0,-4.96985 5.81958,-4.78751 8.87957,-5.36374 0.81934,-0.15195 1.63635,-0.39389 1.63635,-1.39324 0,-1.06129 -1.00051,-1.45518 -1.97064,-1.45518 -1.84674,0 -2.21141,0.93856 -2.2418,1.60596 h -5.57413 c 0.0912,-2.21258 1.18168,-4.16686 2.7257,-4.89504 1.51597,-0.72701 3.51582,-0.90934 5.36374,-0.90934 7.51437,0 7.45476,3.77413 7.45476,6.80489 z"
         style="fill:#707374;fill-opacity:1;fill-rule:nonzero;stroke:none;stroke-width:1.16882467"
         id="path202" />
      <path
         d="m -310.22585,-710.39399 h 3.21193 v 4.3305 h -3.21193 v 5.48412 c 0,1.45402 0.33312,2.09103 1.84908,2.09103 0.4535,0 0.90818,-0.0304 1.36285,-0.09 v 4.54439 c -1.21207,0 -2.57609,0.18234 -3.84777,0.18234 -2.5457,0 -5.36374,-0.39507 -5.36374,-4.69751 v -7.51437 h -2.66726 v -4.3305 h 2.66726 v -4.154 h 5.99958 z"
         style="fill:#707374;fill-opacity:1;fill-rule:nonzero;stroke:none;stroke-width:1.16882467"
         id="path206" />
      <path
         id="path208-6"
         style="fill:#707374;fill-opacity:1;fill-rule:nonzero;stroke:none;stroke-width:1.16882467"
         d="m -304.98308,-710.39399 h 5.99841 v 16.36003 h -5.99841 z m 5.99841,-1.06364 h -5.99841 v -4.21244 h 5.99841 z" />
      <path
         d="m -287.65292,-705.79116 c -2.2722,0 -2.57492,2.21259 -2.57492,3.87816 0,1.66674 0.30272,3.90972 2.57492,3.90972 2.2722,0 2.57609,-2.24298 2.57609,-3.90972 0,-1.66557 -0.30389,-3.87816 -2.57609,-3.87816 m 0,12.1511 c -5.90841,0 -8.5745,-3.90855 -8.5745,-8.27294 0,-4.36322 2.66609,-8.89476 8.5745,-8.89476 5.90958,0 8.57567,4.53154 8.57567,8.89476 0,4.36439 -2.66609,8.27294 -8.57567,8.27294"
         style="fill:#707374;fill-opacity:1;fill-rule:nonzero;stroke:none;stroke-width:1.16882467"
         id="path212-7" />
      <path
         d="m -276.4703,-710.39399 h 5.78685 v 2.37271 h 0.0608 c 1.1209,-1.5744 2.72687,-2.78647 5.12062,-2.78647 2.81687,0 5.39413,2.38089 5.39413,5.98672 v 10.78708 h -6.00075 v -8.24138 c 0,-1.81869 -0.21156,-3.09154 -1.9683,-3.09154 -1.02973,0 -2.39492,0.51545 -2.39492,3.03076 v 8.30216 h -5.99841 z"
         style="fill:#707374;fill-opacity:1;fill-rule:nonzero;stroke:none;stroke-width:1.16882467"
         id="path216-7" />
      <path
         d="m -435.25584,-744.28991 h 2.06064 v 20.38664 h 12.12071 v 1.80233 h -14.18135 z"
         style="fill:#707374;fill-opacity:1;fill-rule:nonzero;stroke:none;stroke-width:1.16882467"
         id="path220-3" />
      <path
         d="m -409.34884,-730.86502 h -0.0608 c -0.24195,0.46636 -1.09051,0.62181 -1.6048,0.71415 -3.24348,0.59143 -7.27242,0.55987 -7.27242,3.69933 0,1.95778 1.69596,3.16985 3.48426,3.16985 2.90804,0 5.48413,-1.897 5.45374,-5.03529 z m -10.18163,-2.17168 c 0.18233,-3.76127 2.75842,-5.37659 6.33386,-5.37659 2.75726,0 5.75763,0.87077 5.75763,5.15919 v 8.32554 c 0,0.74571 0.3635,1.18051 1.11973,1.18051 0.21273,0 0.45468,-0.0631 0.60662,-0.12506 v 1.64687 c -0.42428,0.0935 -0.72701,0.12507 -1.24246,0.12507 -1.93908,0 -2.24297,-1.11857 -2.24297,-2.797 h -0.0596 c -1.33363,2.08168 -2.69648,3.26219 -5.69685,3.26219 -2.87882,0 -5.24218,-1.45986 -5.24218,-4.69166 0,-4.50582 4.27322,-4.66128 8.39333,-5.15919 1.57674,-0.18585 2.45453,-0.2139 2.45453,-1.98467 0,-2.64154 -1.84791,-3.29492 -4.09089,-3.29492 -2.36336,0 -4.1201,1.11857 -4.18205,3.72972 z"
         style="fill:#707374;fill-opacity:1;fill-rule:nonzero;stroke:none;stroke-width:1.16882467"
         id="path224-7" />
      <path
         d="m -435.25584,-687.0632 h 13.72668 v 1.7135 h -11.66604 v 7.62307 h 10.3628 v 1.71467 h -10.3628 v 10.04488 h -2.06064 z"
         style="fill:#707374;fill-opacity:1;fill-rule:nonzero;stroke:none;stroke-width:1.16882467"
         id="path228-1" />
      <path
         d="m -419.34767,-681.17338 h 1.75674 v 3.53453 h 0.0608 c 0.97013,-2.45103 3.09154,-3.8992 5.90841,-3.77998 v 1.8596 c -3.45388,-0.17766 -5.81724,2.30609 -5.81724,5.46776 v 8.1245 h -1.90869 z"
         style="fill:#707374;fill-opacity:1;fill-rule:nonzero;stroke:none;stroke-width:1.16882467"
         id="path232-2" />
      <path
         d="m -399.80469,-674.29917 h -0.0608 c -0.24195,0.44415 -1.09051,0.59026 -1.6048,0.68026 -3.24348,0.56103 -7.27242,0.53064 -7.27242,3.51582 0,1.86194 1.69596,3.0144 3.48426,3.0144 2.90921,0 5.48413,-1.8035 5.45374,-4.78751 z m -10.18046,-2.24531 c 0.18116,-3.57544 2.75725,-5.11127 6.33269,-5.11127 2.75726,0 5.75763,0.82753 5.75763,4.90439 v 8.09644 c 0,0.70948 0.3635,1.12208 1.11973,1.12208 0.21273,0 0.45585,-0.0584 0.60662,-0.11806 v 1.56506 c -0.42311,0.0888 -0.72701,0.11922 -1.24246,0.11922 -1.93908,0 -2.2418,-1.06363 -2.2418,-2.65907 h -0.0596 c -1.3348,1.97998 -2.69765,3.10206 -5.69802,3.10206 -2.87882,0 -5.24218,-1.38857 -5.24218,-4.46141 0,-4.28374 4.27322,-4.43335 8.39333,-4.90439 1.57674,-0.17649 2.45453,-0.38337 2.45453,-2.06765 0,-2.5118 -1.84791,-3.13362 -4.09089,-3.13362 -2.36336,0 -4.1201,1.0648 -4.18205,3.54622 z"
         style="fill:#707374;fill-opacity:1;fill-rule:nonzero;stroke:none;stroke-width:1.16882467"
         id="path236-2" />
      <path
         d="m -394.10784,-681.12546 h 1.90986 v 2.54219 h 0.0608 c 0.69545,-1.83271 2.78648,-3.07284 4.99906,-3.07284 4.39361,0 5.72607,2.24532 5.72607,5.87919 v 9.80995 h -1.90869 v -9.51307 c 0,-2.62985 -0.87778,-4.60984 -3.96933,-4.60984 -3.02959,0 -4.84711,2.24414 -4.90789,5.23049 v 8.89242 h -1.90986 z"
         style="fill:#707374;fill-opacity:1;fill-rule:nonzero;stroke:none;stroke-width:1.16882467"
         id="path240-1" />
      <path
         d="m -364.74684,-671.43181 c -0.51428,3.63388 -2.90804,5.8488 -6.33152,5.90841 l -1.00052,1.27168 c 1.42363,-0.26766 3.51466,0 3.51466,1.83038 0,1.8035 -1.78713,2.54102 -3.33349,2.54102 -0.96896,0 -1.96947,-0.20571 -2.84843,-0.62064 l 0.42663,-0.94441 c 0.51428,0.20688 1.51245,0.41376 2.39258,0.41376 0.84857,0 1.60597,-0.38454 1.60597,-1.27051 0,-0.70948 -0.60546,-1.12324 -1.30324,-1.12324 -0.69779,0 -1.18286,0.0584 -1.54636,0.2361 l -0.48389,-0.44181 1.54635,-1.95194 c -4.21361,-0.44299 -6.48581,-3.92842 -6.48581,-8.00762 0,-4.37257 2.60648,-8.06606 7.39399,-8.06606 3.33349,0 5.90958,1.74272 6.33269,5.23166 h -1.90869 c -0.51545,-2.27804 -1.93908,-3.66543 -4.424,-3.66543 -3.66777,0 -5.48413,3.25167 -5.48413,6.49983 0,3.2505 1.81636,6.50217 5.48413,6.50217 2.36336,0 4.30361,-1.80349 4.54439,-4.34335 z"
         style="fill:#707374;fill-opacity:1;fill-rule:nonzero;stroke:none;stroke-width:1.16882467"
         id="path244-5" />
      <path
         d="m -352.08099,-674.29917 h -0.0596 c -0.24312,0.44415 -1.09168,0.59026 -1.60597,0.68026 -3.24348,0.56103 -7.27242,0.53064 -7.27242,3.51582 0,1.86194 1.69596,3.0144 3.4831,3.0144 2.9092,0 5.48529,-1.8035 5.4549,-4.78751 z m -10.18046,-2.24531 c 0.18116,-3.57544 2.75725,-5.11127 6.33269,-5.11127 2.75609,0 5.75646,0.82753 5.75646,4.90439 v 8.09644 c 0,0.70948 0.36467,1.12208 1.12207,1.12208 0.21156,0 0.45351,-0.0584 0.60545,-0.11806 v 1.56506 c -0.42428,0.0888 -0.72701,0.11922 -1.24246,0.11922 -1.93908,0 -2.2418,-1.06363 -2.2418,-2.65907 h -0.0608 c -1.33363,1.97998 -2.69648,3.10206 -5.69568,3.10206 -2.87882,0 -5.24335,-1.38857 -5.24335,-4.46141 0,-4.28374 4.27322,-4.43335 8.39333,-4.90439 1.57557,-0.17649 2.45453,-0.38337 2.45453,-2.06765 0,-2.5118 -1.84908,-3.13362 -4.08972,-3.13362 -2.36336,0 -4.12244,1.0648 -4.18205,3.54622 z"
         style="fill:#707374;fill-opacity:1;fill-rule:nonzero;stroke:none;stroke-width:1.16882467"
         id="path248-0" />
      <path
         id="path250-9"
         style="fill:#707374;fill-opacity:1;fill-rule:nonzero;stroke:none;stroke-width:1.16882467"
         d="m -346.32324,-681.17338 h 1.90869 v 15.20641 h -1.90869 z m 0,-5.8897 h 1.90869 v 2.984 h -1.90869 z" />
      <path
         d="m -331.38683,-676.7509 c -0.09,-2.30609 -1.90869,-3.33933 -4.08972,-3.33933 -1.6983,0 -3.69816,0.65103 -3.69816,2.63102 0,1.65389 1.94025,2.24415 3.24349,2.56908 l 2.5457,0.56103 c 2.17986,0.32494 4.45322,1.56623 4.45322,4.22647 0,3.30895 -3.36271,4.57946 -6.27191,4.57946 -3.63622,0 -6.12114,-1.65506 -6.42503,-5.37893 h 1.90986 c 0.15195,2.5118 2.06064,3.81387 4.60634,3.81387 1.78713,0 4.27205,-0.77025 4.27205,-2.89634 0,-1.77311 -1.69713,-2.36454 -3.42466,-2.7783 l -2.45453,-0.53182 c -2.48492,-0.64986 -4.36205,-1.47622 -4.36205,-4.07686 0,-3.10206 3.12076,-4.28491 5.87802,-4.28491 3.12193,0 5.60451,1.59545 5.72607,4.90556 z"
         style="fill:#707374;fill-opacity:1;fill-rule:nonzero;stroke:none;stroke-width:1.16882467"
         id="path254" />
      <path
         d="m -314.93247,-674.65297 c -0.0923,-2.80635 -1.87947,-5.43737 -4.96984,-5.43737 -3.12193,0 -4.84712,2.65907 -5.15218,5.43737 z m -10.12202,1.56389 c 0.0304,2.71985 1.48441,6.00074 5.15218,6.00074 2.78764,0 4.30361,-1.59661 4.90906,-3.9027 h 1.90869 c -0.81818,3.45855 -2.87881,5.46776 -6.81775,5.46776 -4.96868,0 -7.06087,-3.72271 -7.06087,-8.06723 0,-4.01725 2.09219,-8.06606 7.06087,-8.06606 5.02945,0 7.02931,4.28491 6.87853,8.56749 z"
         style="fill:#707374;fill-opacity:1;fill-rule:nonzero;stroke:none;stroke-width:1.16882467"
         id="path258" />
      <path
         id="path260"
         style="fill:#707374;fill-opacity:1;fill-rule:nonzero;stroke:none;stroke-width:1.16882467"
         d="m -493.75996,-722.0799 h 8.18177 v -22.20767 h -8.18177 z" />
      <path
         id="path262"
         style="fill:#707374;fill-opacity:1;fill-rule:nonzero;stroke:none;stroke-width:1.16882467"
         d="m -483.23586,-722.08224 h 7.01295 v -22.203 h -7.01295 z" />
      <path
         d="m -461.02819,-722.08224 h 3.50647 v -22.20767 l -3.50647,0.005 z"
         style="fill:#707374;fill-opacity:1;fill-rule:nonzero;stroke:none;stroke-width:1.16882467"
         id="path266" />
      <path
         d="m -456.35289,-722.08224 h 14.0259 v -22.20767 l -14.0259,0.005 z"
         style="fill:#707374;fill-opacity:1;fill-rule:nonzero;stroke:none;stroke-width:1.16882467"
         id="path270" />
      <path
         d="m -473.88526,-722.08224 h 2.33765 v -22.20767 l -2.33765,0.005 z"
         style="fill:#707374;fill-opacity:1;fill-rule:nonzero;stroke:none;stroke-width:1.16882467"
         id="path274" />
      <path
         d="m -469.20997,-722.08224 h 7.01295 v -22.20767 l -7.01295,0.005 z"
         style="fill:#707374;fill-opacity:1;fill-rule:nonzero;stroke:none;stroke-width:1.16882467"
         id="path278" />
      <path
         d="m -306.73644,-665.97749 46.74598,-0.007 v -21.03885 h -46.75299 z"
         style="fill:#707374;fill-opacity:1;fill-rule:nonzero;stroke:none;stroke-width:1.16882467"
         id="path282" />
    </g>
  </g>
</svg>
