<?xml version="1.0" encoding="UTF-8"?>
<svg id="Calque_1" data-name="Calque 1" xmlns="http://www.w3.org/2000/svg" viewBox="0 0 2550.08 512">
  <defs>
    <style>
      .cls-1 {
        fill: #fff;
      }
    </style>
  </defs>
  <path class="cls-1" d="M2105.62,368.69c-71.24,0-114.06-44.76-114.06-111.32,0-59.95,42.82-114.06,107.82-114.06,68.52,0,100.82,54.1,100.82,111.71,0,3.29-.19,10.03-.71,15.37-.31,3.21-3.02,5.65-6.25,5.65h-154.97c7.4,34.64,35.42,52.56,73.19,52.56,25.97,0,54.5-5.89,77.12-13.57,2.11-.72,4.11,1.35,3.37,3.45l-12.06,34.02c-1.18,3.34-3.86,5.96-7.24,6.99-19.51,5.94-38.86,9.2-67.03,9.2Zm-68.51-124.17h117.56c-2.72-37.37-22.57-63.07-56.83-63.07s-57.99,27.64-60.73,63.07Z"/>
  <path class="cls-1" d="M114.06,368.69C42.82,368.69,0,323.93,0,257.37c0-59.95,42.82-114.06,107.82-114.06,68.52,0,100.82,54.1,100.82,111.71,0,3.29-.19,10.03-.71,15.37-.31,3.21-3.02,5.65-6.25,5.65H46.71c7.4,34.64,35.42,52.56,73.19,52.56,25.97,0,54.5-5.89,77.12-13.57,2.11-.72,4.11,1.35,3.37,3.45l-12.06,34.02c-1.18,3.34-3.86,5.96-7.24,6.99-19.51,5.94-38.86,9.2-67.03,9.2ZM45.54,244.52h117.56c-2.72-37.37-22.57-63.07-56.83-63.07s-57.99,27.64-60.73,63.07Z"/>
  <path class="cls-1" d="M446.38,369.86c-65.4,0-111.71-45.15-111.71-112.49,0-63.45,47.48-113.27,116.77-113.27,29.37,0,50.45,7.35,67.06,17.17,3.82,2.25,6.13,6.38,6.14,10.81l.08,39.41c0,2.18-2.5,3.39-4.23,2.05-19.69-15.26-42.59-27.79-69.45-27.79-41.26,0-69.67,32.3-69.67,71.24,0,41.65,28.03,71.24,67.74,71.24,26.23,0,55.56-11.67,75.84-25.1,1.87-1.24,4.31,.35,3.98,2.57l-5.68,37.89c-.62,4.15-3.27,7.69-7.05,9.52-18.91,9.18-42.47,16.76-69.82,16.76Z"/>
  <path class="cls-1" d="M769.9,143.31c73.97,0,116.01,55.27,116.01,112.88s-45.55,114.45-116.79,114.45-115.61-55.66-115.61-113.27,45.54-114.06,116.39-114.06Zm-70.06,114.06c0,41.65,29.2,73.57,69.28,73.57,42.43,0,70.07-33.87,70.07-74.74s-28.81-73.19-69.29-73.19-70.06,33.48-70.06,74.36Z"/>
  <path class="cls-1" d="M1489.06,149.15h48.66l53.72,162.71,73.96-165.05h21.8l68.12,164.66,59.56-162.32h46.71l-84.47,218.76h-42.43l-60.34-146.75-65,146.75h-42.44l-77.85-218.76Z"/>
  <path class="cls-1" d="M2454.7,144.87c-29.2,0-51,11.28-74.35,33.86V57.37c0-1.96-1.92-3.34-3.78-2.72l-39.64,13.32c-1.74,.58-2.91,2.21-2.91,4.04v253.47c0,8.02,4.27,15.48,11.28,19.37,18.09,10.01,43.08,20.53,71.17,22.93,.27,.02,.54,.04,.81,.06,1.55,.12,3.11,.22,4.67,.3,2.07,.09,4.16,.15,6.28,.15,63.84,0,121.84-43.98,121.84-117.55,0-61.13-41.66-105.88-95.38-105.88Zm-28.12,183.73c-11.75-.03-22.54-1.23-33.2-3.99-7.69-1.99-13.03-9-13.03-16.95v-88.58c0-7.13,3.69-13.71,9.64-17.64,17.25-11.36,32.52-16.1,50.3-16.1,35.87,0,62.95,25.6,63.44,67.35,.5,42.53-34.63,76.02-77.16,75.9Z"/>
  <path class="cls-1" d="M1253.23,251.01c-2.53-.8-2.73-4.26-.3-5.33,66.04-29.39,96.59-73.29,96.59-120.75,0-74.43-61.44-124.93-164.53-124.93-67.65,0-116.45,20.06-156.73,43.56-4.38,2.55-7.1,7.21-7.1,12.28v81.84c0,4.01,4.54,6.37,7.79,4.04,115.79-83.23,194.61-47.72,214.22-36.29,2.97,1.73,4.35,5.22,3.39,8.52-5.86,20.28-33.28,91.83-134.75,127.58-11.23,4.41-12.49,8.86-12.21,12.64,.38,4.99,5.36,8.94,12.78,11.42,102.72,30.92,136.83,86.73,144.92,103.24,1.37,2.79,.62,6.11-1.79,8.07-19.54,15.92-111.3,79.73-238.02-6.55-3.49-2.38-8.17,.45-7.68,4.65l10.48,89.4c.54,4.59,3.28,8.66,7.37,10.83,42.52,22.56,82.2,36.78,148.46,36.78,98.3,0,182.96-54.62,182.96-142.01,0-54.77-35.08-96.52-105.86-118.98Z"/>
  <path class="cls-1" d="M1274.56,491.33c.12-.05,.24-.1,.36-.16-.12,.06-.24,.1-.36,.16Z"/>
  <path class="cls-1" d="M1242.2,345.53c.44,.55,.88,1.1,1.3,1.64-.04-.05-.07-.1-.12-.16-.01-.02-.02-.03-.03-.05-.32-.41-.66-.83-1-1.25-.05-.06-.1-.12-.15-.18Z"/>
  <path class="cls-1" d="M1284.97,486.05c.55-.3,1.1-.6,1.65-.9-.55,.3-1.1,.6-1.65,.9Z"/>
  <path class="cls-1" d="M1297.25,478.7c-.45,.29-.89,.6-1.34,.89,.45-.29,.89-.59,1.34-.89Z"/>
  <path class="cls-1" d="M1305.71,472.77c.17-.13,.36-.24,.53-.37h0c-.17,.12-.36,.24-.53,.37Z"/>
  <path class="cls-1" d="M1262.51,496.47c.62-.24,1.22-.49,1.83-.74-.61,.25-1.22,.5-1.83,.74Z"/>
  <path class="cls-1" d="M1320.01,286.11l.16,.06c-.34-.29-.72-.57-1.06-.85,.31,.26,.6,.54,.9,.8Z"/>
  <path class="cls-1" d="M1177.05,207.74s.02-.01,.03-.02c.1-.08,.2-.15,.3-.23-1.08,.79-2.21,1.57-3.32,2.36,.69-.49,1.42-.97,2.1-1.46,0,0,.01,0,.02,0,.29-.21,.58-.42,.87-.64Z"/>
  <path class="cls-1" d="M1183.44,202.89l.03-.03c.1-.08,.2-.16,.3-.24-1.18,.93-2.4,1.86-3.62,2.78,.75-.57,1.53-1.14,2.27-1.71h.01c.34-.27,.67-.54,1-.8Z"/>
  <path class="cls-1" d="M1163.12,217.14c.11-.07,.21-.14,.31-.2-.72,.45-1.48,.89-2.22,1.34,.59-.36,1.22-.71,1.8-1.08,.03-.02,.06-.04,.09-.06h0Z"/>
  <path class="cls-1" d="M1170.08,212.63c.14-.09,.26-.19,.4-.28-1.05,.71-2.14,1.41-3.22,2.12,.76-.5,1.55-.99,2.3-1.49,0,0,.01,0,.02-.01,.17-.11,.33-.22,.5-.34Z"/>
  <path class="cls-1" d="M1155.61,221.62s.01,0,.02-.01c.08-.05,.16-.1,.24-.14-.86,.49-1.76,.97-2.64,1.46,.7-.39,1.43-.77,2.12-1.16,0,0,0,0,.01,0l.26-.14Z"/>
  <path class="cls-1" d="M1189.66,197.78c-.94,.8-1.91,1.59-2.88,2.39,.97-.79,1.94-1.59,2.88-2.39Z"/>
  <path class="cls-1" d="M1194.62,193.44c.24-.22,.47-.44,.71-.66-1.09,1-2.23,2-3.36,3,.68-.59,1.38-1.18,2.04-1.78,0,0,0,0,.01,0,.21-.19,.4-.37,.6-.56Z"/>
  <path class="cls-1" d="M1304.92,274.81c1.96,1.28,3.84,2.6,5.7,3.93-1.85-1.33-3.74-2.65-5.7-3.93Z"/>
  <path class="cls-1" d="M1316.98,283.59c-1.52-1.23-3.05-2.44-4.65-3.63,1.6,1.19,3.13,2.41,4.65,3.63Z"/>
  <path class="cls-1" d="M381.51,252.61c0,.32,.02,.61,.02,.93,.01-.31,.02-.62,.04-.92,0,0-.07,0-.07,0Z"/>
  <path class="cls-1" d="M45.54,252.61c0,.32,.02,.61,.02,.93,.01-.31,.02-.62,.04-.92,0,0-.07,0-.07,0Z"/>
  <path class="cls-1" d="M2036.93,252.61c0,.32,.02,.61,.02,.93,.01-.31,.02-.62,.04-.92,0,0-.07,0-.07,0Z"/>
  <path class="cls-1" d="M699.83,252.61c0,.32,.02,.61,.02,.93,.01-.31,.02-.62,.04-.92,0,0-.07,0-.07,0Z"/>
</svg>