<?xml version="1.0" encoding="utf-8"?>
<!-- Generator: Adobe Illustrator 16.0.4, SVG Export Plug-In . SVG Version: 6.00 Build 0)  -->
<!DOCTYPE svg PUBLIC "-//W3C//DTD SVG 1.1//EN" "http://www.w3.org/Graphics/SVG/1.1/DTD/svg11.dtd">
<svg version="1.1" id="Calque_1" xmlns="http://www.w3.org/2000/svg" xmlns:xlink="http://www.w3.org/1999/xlink" x="0px" y="0px"
	 width="82px" height="82px" viewBox="0 0 82 82" enable-background="new 0 0 82 82" xml:space="preserve">
<g>
	<path fill="#6B6B6B" d="M41,0C18.4,0,0,18.4,0,41c0,22.6,18.4,41,41,41s41-18.4,41-41C82,18.4,63.6,0,41,0z M3,41
		C3,22,16.9,6.3,35.1,3.4C26.8,8,20.8,22.6,20.8,41c0,18.4,6.1,33.1,14.4,37.6C16.9,75.7,3,60,3,41z M41,79c-0.2,0-0.4,0-0.6,0
		c-9.9-0.2-18.6-16.5-18.6-38c0-21.2,8.5-37.3,18.2-38c0.4,0,0.7,0,1.1,0C62,3,79,20,79,41C79,62,62,79,41,79z"/>
	<ellipse fill="#6B6B6B" cx="67.8" cy="39.7" rx="4.2" ry="8.5"/>
</g>
</svg>
