<?xml version="1.0" encoding="UTF-8" standalone="no"?>
<svg
   xmlns:dc="http://purl.org/dc/elements/1.1/"
   xmlns:cc="http://creativecommons.org/ns#"
   xmlns:rdf="http://www.w3.org/1999/02/22-rdf-syntax-ns#"
   xmlns:svg="http://www.w3.org/2000/svg"
   xmlns="http://www.w3.org/2000/svg"
   id="svg5782"
   version="1.1"
   viewBox="0 0 25.399999 25.400001"
   height="96"
   width="96">
  <defs
     id="defs5776">
    <clipPath
       id="clipPath20-8"
       clipPathUnits="userSpaceOnUse">
      <path
         id="path18-0-9"
         d="m 541.781,371.848 v 0 h 0.043 z" />
    </clipPath>
  </defs>
  <metadata
     id="metadata5779">
    <rdf:RDF>
      <cc:Work
         rdf:about="">
        <dc:format>image/svg+xml</dc:format>
        <dc:type
           rdf:resource="http://purl.org/dc/dcmitype/StillImage" />
        <dc:title></dc:title>
      </cc:Work>
    </rdf:RDF>
  </metadata>
  <g
     transform="translate(0,-271.59998)"
     id="layer1">
    <rect
       y="271.59998"
       x="0.08813975"
       height="25.4"
       width="25.4"
       id="rect6729"
       style="opacity:1;vector-effect:none;fill:none;fill-opacity:1;stroke:none;stroke-width:0.52916676;stroke-linecap:butt;stroke-linejoin:miter;stroke-miterlimit:4;stroke-dasharray:1.05833345, 2.11666688;stroke-dashoffset:0;stroke-opacity:1;paint-order:stroke markers fill" />
    <g
       style="fill:#707374;fill-opacity:1"
       transform="matrix(1.1552939,0,0,1.1552939,163.12576,297.94734)"
       id="g13354">
      <path
         style="fill:#707374;fill-opacity:1;fill-rule:evenodd;stroke-width:0.09364607"
         d="m -504.54102,-1094.8262 -0.002,0.01 c -1.81262,0.1143 -3.13885,1.1262 -3.94922,2.3574 l -1.5957,2.6094 c -0.76097,1.4449 -1.54938,1.7557 -1.46094,2.707 0.0438,0.4704 0.1848,0.4677 0.24414,0.8145 0.0609,0.3565 -0.29745,1.7748 1.11719,2.0605 1.57115,0.3173 2.09604,-1.2071 3.23633,-0.998 h 0.002 c 0.50653,1.9282 -2.5406,0.8538 -3.67578,2.0664 -0.0722,0.8597 0.28801,1.0341 0.60156,1.4883 l -1.12695,1.9179 c -0.85599,-0.435 -1.91817,-1.5353 -3.49219,-1.2343 -0.80239,0.1534 -0.68011,0.3671 -1.13672,0.6601 -0.90689,0.5821 -1.43201,0.09 -2.2539,1.1992 -0.66675,0.8998 -0.17523,1.8937 0.0976,2.7149 l -3.08398,0.8711 -0.008,15.2187 58.40039,0.014 v -2.9942 l -10.33594,-0.061 c 1.00033,-0.7244 2.63376,-0.718 2.85547,-2.0918 0.19427,-1.2047 -0.0331,-3.7311 0.0273,-5.1328 0.61357,0.8008 0.875,2.4503 2.3125,4.166 1.31267,1.5667 2.62517,1.3171 4.93946,1.0059 -0.27213,-0.5165 -0.64457,-0.8369 -1.01954,-1.3203 -1.24305,-1.6032 -0.54012,-2.5821 -4.16601,-2.2637 l -2.45508,-5.9824 c -1.00736,-2.0963 -2.11881,-3.7609 -3.51758,-4.9043 -1.76594,-1.4438 -3.63145,-1.8756 -6.32422,-2.0938 -2.62155,-0.2124 -5.41684,-0.4222 -8.01172,-0.5566 l 0.002,-1.2989 c 2.71098,0.01 5.43786,0.01 8.16211,0 3.15617,0 4.05569,-0.9926 5.23437,-2.914 3.61342,-0.2414 3.75112,-1.7424 4.82617,-2.9746 3.13803,-0.156 4.63123,-1.4309 5.49024,-4.0332 -8.78139,0.1534 -18.34593,0.01 -27.27344,0 -1.41022,-3e-4 -2.91417,-0.072 -4.03711,0.5293 -1.10657,0.5926 -1.51677,1.3747 -2.12305,2.5293 -0.86604,-1.0731 -1.22514,-3.0073 -4.52539,-3.8711 -0.7113,-0.1861 -1.37041,-0.2491 -1.97461,-0.211 z m 0.66211,1.0508 c -0.903,0.6077 -1.73471,1.0545 -1.74609,1.0449 0,0 -0.75388,-0.029 -1.36719,0.1133 0.19729,-0.3321 0.72964,-0.7218 1.12305,-0.8262 0.336,-0.1136 1.05325,-0.38 1.99023,-0.332 z m 1.78711,1.0469 c 0.0113,1.5673 -0.63045,2.0957 -1.6914,2.7558 l 0.18164,1.3868 c -2.66434,0.9735 -0.15383,3.2529 -1.25586,4.8574 -0.59584,0.8676 -3.35689,2.123 -4.72266,0.9609 0.21317,-0.1799 -0.0716,-0.049 0.3086,-0.1445 0.21316,-0.054 0.18786,-0.035 0.40625,-0.047 1.03098,-0.053 3.65612,-0.1396 3.07812,-2.418 -0.6827,-2.6907 -3.24588,-0.054 -4.27539,-0.088 0.14438,-0.6294 0.3292,-0.5202 0.5918,-1.1016 -0.35452,-0.2715 -0.55411,-0.3309 -0.81641,-0.707 0.25474,-0.4271 0.7886,-1.3462 1.42969,-1.5411 0.56012,0.3461 0.68392,1.5132 1.5664,0.3809 0.78418,-1.0063 -0.54905,-0.7258 -1.23046,-0.9707 -0.32429,-1.8724 1.87799,-1.4291 3.26757,-1.5957 0.77458,-0.093 2.2441,-1.4689 3.16211,-1.7285 z m 18.59571,0.123 v 0 c 3.2965,-0.012 6.47291,0 7.37304,0.086 -0.92783,1.7415 -3.85406,1.5097 -6.29492,1.5097 -2.45401,0 -5.2511,-0.1235 -7.72461,-0.01 l -0.49609,1.2324 9.51562,0.016 c -1.40677,2.5584 -6.14302,1.6012 -10.35742,1.7344 l -0.53125,1.2285 6.11719,0.014 c -1.19324,2.2173 -4.24972,1.5587 -7.11328,1.6972 -0.23773,0.4217 -0.48841,0.7898 -0.49219,1.2227 l 3.12695,-0.019 c 0.55968,0.022 0.40102,-0.039 0.83203,0.1426 0.19692,0.8742 -0.0922,1.5983 -0.8457,1.873 -0.86347,0.3148 -1.30266,-0.2481 -2.11133,-0.291 l -0.70117,0.748 c 0.58715,0.5341 1.94933,0.9379 2.9336,0.7266 0.69531,-0.1493 0.81764,-0.4671 1.1914,-0.6152 0.4393,-0.1741 7.02719,0.4237 8.33203,0.4707 0.53469,0.5873 0.93386,1.3413 1.44141,2.0078 2.54982,3.3482 5.76595,2.4189 6.94531,3.0722 l 0.61133,0.9414 c 0.67627,1.3444 0.42337,1.7365 0.42383,3.6114 0,1.8659 0.0117,3.7347 0.0117,5.5996 -0.55064,0.3961 -4.32411,1.9387 -5.19922,2.0293 -1.8867,-3.3244 1.78313,-2.2693 3.42969,-3.2715 -0.26835,-7.8529 -2.48517,-2.0529 -10.93555,-6.9668 -3.4029,-1.9788 -7.17785,0.2412 -10.6543,1.0098 -0.91109,0.2014 -3.52049,0.202 -3.95117,0.414 -0.60253,0.857 -0.64944,2.7174 -0.59766,3.8907 0.0302,0.727 0.31114,1.3269 0.084,1.7636 -0.54754,1.0525 -0.21884,0.6024 -0.52539,1.6914 -0.87292,0.7991 -1.96836,0.1754 -2.6836,0.666 -0.44095,0.3024 -0.27325,0.443 -0.95508,0.6797 -0.54874,0.1906 -1.26359,0.3708 -1.51757,-0.2636 l -0.15625,-0.7852 c -0.0514,-1.7911 1.50958,-1.408 2.27539,-1.6484 1.39207,-0.4371 0.95505,-2.9005 0.95312,-4.3575 -0.004,-3.2947 0.17046,-2.9882 1.47852,-3.7226 1.40383,-0.7882 1.47416,-1.9541 0.99023,-3.7051 2.1597,-0.8625 3.163,-4.3107 0.66602,-5.791 h -0.002 c 0.40846,-1.7962 1.13037,-4.2561 1.69922,-6.0859 0.80814,-2.5996 2.37371,-2.502 5.32813,-2.502 1.37344,0 4.78943,-0.034 8.08594,-0.047 z m 8.84765,0.066 7.98438,0.024 c -0.61478,1.1531 -2.05356,1.5082 -3.88282,1.5078 l -5.12109,-0.019 c 0.32239,-0.5701 0.75459,-0.7602 1.01953,-1.5118 z m -26.18164,0.1895 c 3.71494,2.5618 0.9476,7.4329 0.71289,8.9531 3.31658,1.7559 1.63533,4.3428 -1.78125,4.6309 0.52494,0.7776 1.61746,0.8363 1.71875,1.8828 0.11792,1.2206 -0.73777,1.5091 -1.85156,1.5527 -0.78032,1.5808 -0.5667,2.443 -2.58398,2.7559 l -0.0586,-3.4297 c -1.02554,0.5234 -0.94223,1.4143 -2.49414,1.543 l -0.11719,-1.1641 c -1.50202,-0.2904 -3.15642,-0.797 -4.66211,-1.1914 -4.02833,-1.0555 -2.10892,-0.1294 -4.67968,0.021 -0.96269,-1.6047 -0.47689,-2.2509 1.45898,-2.1016 0.41703,-0.5792 0.27286,-1.0524 1.27735,-0.9297 2.0076,0.2454 2.99954,2.8257 3.57421,3.2188 0.80663,-1.1217 0.7631,-0.8324 0.041,-2.1035 0.26268,-0.8055 1.02294,-1.7532 1.44727,-2.5313 2.09465,-0.017 3.44383,-0.1031 4.64648,-1.3594 1.7207,-1.7974 0.32808,-2.8347 0.61328,-4.6445 0.37304,-0.1807 0.85597,-0.2111 1.38477,-0.2637 0.0189,-1.5871 -0.75682,-1.289 0.39257,-2.4629 0.55677,-0.5687 0.81622,-1.335 0.96094,-2.3769 z m 21.26953,2.5684 7.90039,0.023 c -0.77314,1.233 -1.65749,1.7162 -3.6914,1.7344 -1.81818,0.016 -3.64058,-0.017 -5.45899,0 0.39608,-0.5403 0.78771,-1.1941 1.25,-1.7578 z m -4.82422,2.9804 v 0 h 7.95118 c -0.68164,1.2601 -1.92327,1.6842 -3.87891,1.6875 h -4.20703 -0.99024 c 0.4608,-0.6533 0.70975,-0.9959 1.125,-1.6914 z m 5.36133,6.2168 c 2.56237,-0.1484 5.01574,1.9382 5.82422,3.4336 -1.29041,-0.138 -2.78555,-0.4455 -3.69336,-1.0762 -0.5204,-0.3615 -0.88105,-0.7505 -1.23633,-1.164 -0.305,-0.3551 -0.61787,-0.88 -0.89453,-1.1934 z m -34.61523,4.6074 c 1.19595,0.1133 2.24071,0.6768 5.22461,1.3418 l -0.0527,10.1328 c -1.14655,-0.2339 -4.8039,-1.4051 -5.64843,-1.3964 -1.36079,0.014 -4.07657,1.2738 -5.66797,1.3457 l 0.0156,-10.0645 c 3.587,-1.1363 4.93314,-1.4726 6.12891,-1.3594 z m 7.82031,2.5039 -0.33789,2.1641 c 1.35855,0.057 1.97979,-0.051 3.1875,-0.4082 l -0.0234,4.1504 c -3.89015,0.2431 -3.15213,2.4078 -3.02929,4.1641 l -1.16211,-0.022 0.0156,-9.6934 z m 18.59961,0.09 c 0.61206,-0.024 1.10218,0.02 1.76953,0.2656 0.84284,0.3104 0.84917,0.4774 1.19727,1.1953 0.31823,0.657 1.48927,2.7384 1.41406,3.416 -0.0635,0.5735 -3.57111,4.1684 -4.49414,5.1036 l -4.64063,-0.037 c -0.37984,-1.7772 0.44952,-2.6508 2.16993,-2.3222 2.4427,0.4666 2.10719,0.4582 3.38671,-1.0254 2.40291,-2.7862 -0.13719,-3.0764 -1.46679,-6.5547 0.24189,-0.018 0.46004,-0.033 0.66406,-0.041 z m -1.92969,0.3398 c 0.29719,0.819 1.3194,2.2908 1.82227,3.1465 0.80829,1.3755 1.13163,1.1319 -0.5625,2.8496 -0.49811,0.505 -0.89103,0.2137 -1.76172,0.053 -0.80992,-0.1496 -1.49625,-0.1597 -2.19531,0.1914 -1.19792,0.6017 -1.5216,1.6321 -1.43164,3.3984 l -6.69336,-0.045 c 0.71576,-0.258 1.30403,-0.5541 1.51758,-1.2539 0.39835,-1.3051 -0.31059,-1.1532 1.17968,-1.6621 -0.34325,-0.9356 -0.67484,-0.9087 -0.71679,-2.2774 -0.0253,-0.823 0.0248,-1.9103 0.3457,-2.6054 4.259,-0.015 6.19625,-1.5545 8.49609,-1.795 z m 6.52344,1.5098 c 5.11672,1.4513 5.36463,0.906 7.89062,1.5156 0.20334,0.5935 0.34935,1.5498 0.27149,2.2735 -1.07422,0.4194 -2.44178,0.3615 -3.1543,1.0449 -0.99314,0.9526 -0.5637,2.0588 -0.28515,3.293 l -7.59375,0.01 c 0.27148,-0.7034 1.06897,-1.1963 1.58593,-1.7812 3.44202,-3.8945 2.52919,-2.7031 1.28516,-6.3516 z"
         transform="matrix(0.26458333,0,0,0.26458333,0,271.59998)"
         id="path2-7" />
      <path
         id="path28-5"
         style="fill:#707374;fill-opacity:1;fill-rule:evenodd;stroke-width:0.02477719"
         d="m -137.19461,-12.298359 -0.0109,0.306323 1.01028,-0.254762 0.006,-0.323677 c -0.251,0.01665 -0.81257,0.156485 -1.00541,0.272116 z" />
      <path
         id="path30-9"
         style="fill:#707374;fill-opacity:1;fill-rule:evenodd;stroke-width:0.02477719"
         d="m -137.20217,-10.975235 7.4e-4,0.292871 c 0.14928,0.0094 0.80664,-0.18096 1.00613,-0.236949 l 0.009,-0.31996 c -0.16962,0.0099 -0.89946,0.202853 -1.01602,0.264038 z" />
      <path
         id="path32-2"
         style="fill:#707374;fill-opacity:1;fill-rule:evenodd;stroke-width:0.02477719"
         d="m -135.85598,-10.922559 1.00308,0.261501 0.006,-0.319564 c -0.14588,-0.06136 -0.83667,-0.250324 -1.0147,-0.253118 z" />
      <path
         id="path34-7"
         style="fill:#707374;fill-opacity:1;fill-rule:evenodd;stroke-width:0.02477719"
         d="m -135.8598,-11.589687 c 0.19024,0.06428 0.84107,0.247697 1.01533,0.243946 l -0.004,-0.302968 -1.00962,-0.268971 z" />
      <path
         id="path36-3"
         style="fill:#707374;fill-opacity:1;fill-rule:evenodd;stroke-width:0.02477719"
         d="m -137.20199,-11.656922 -7.6e-4,0.304387 c 0.19503,0.02064 0.78599,-0.173128 1.01161,-0.231609 l 0.003,-0.320295 z" />
      <path
         id="path38-6"
         style="fill:#707374;fill-opacity:1;fill-rule:evenodd;stroke-width:0.02477719"
         d="m -135.86063,-12.255812 1.00493,0.268069 0.005,-0.329028 -1.00323,-0.265153 z" />
      <path
         id="path40-4"
         style="fill:#707374;fill-opacity:1;fill-rule:evenodd;stroke-width:0.02477719"
         d="m -133.79496,-6.5383267 v 0.9811297 h -1.92497 v -0.1263191 h 0.35685 v -2.4152458 h -0.32537 v -0.1213835 h 1.86598 v 0.9336516 h -0.0745 c -0.008,-0.052082 -0.0155,-0.1021117 -0.0234,-0.1487573 -0.008,-0.047099 -0.0169,-0.090124 -0.0275,-0.1293468 -0.0131,-0.039217 -0.0242,-0.075917 -0.0334,-0.1099017 -0.009,-0.034084 -0.0202,-0.065459 -0.0333,-0.093903 -0.0469,-0.1046861 -0.11232,-0.1831034 -0.19588,-0.2356013 -0.0786,-0.046891 -0.19711,-0.088779 -0.32238,-0.095278 -0.0571,-0.00301 -0.37488,-0.00439 -0.41947,-0.00439 l 5.4e-4,1.1069383 h 0.13365 c 0.0627,0 0.12122,-0.011697 0.17637,-0.035218 0.0496,-0.025793 0.10372,-0.076326 0.11755,-0.089812 0.0134,-0.013982 0.0258,-0.032622 0.0433,-0.062892 0.0173,-0.030164 0.022,-0.038241 0.0283,-0.056165 0.007,-0.017557 0.0189,-0.0481 0.0264,-0.069453 0.008,-0.020882 0.008,-0.038568 0.0158,-0.07428 0.008,-0.035548 0.0193,-0.1252636 0.0193,-0.1252636 h 0.0864 v 1.2106655 h -0.0941 c -0.002,-0.025882 -0.0144,-0.1199538 -0.0195,-0.1409995 -0.008,-0.038895 -0.0187,-0.078145 -0.0314,-0.1175306 -0.0131,-0.036502 -0.0268,-0.069099 -0.0411,-0.097823 -0.0145,-0.028722 -0.0252,-0.052129 -0.0414,-0.074599 -0.0198,-0.027733 -0.073,-0.075548 -0.11754,-0.093881 -0.0472,-0.018434 -0.0995,-0.027406 -0.15678,-0.027406 h -0.14532 v 1.1678753 h 0.24327 c 0.14376,0 0.25623,-0.00918 0.3371,-0.027245 0.0967,-0.021066 0.17385,-0.060174 0.23159,-0.1179047 0.06,-0.060154 0.11095,-0.1477142 0.15278,-0.2628117 0.0102,-0.028771 0.0248,-0.073516 0.0294,-0.092114 0.004,-0.01811 0.0164,-0.067203 0.0215,-0.1036999 0.008,-0.036829 0.0151,-0.076502 0.0216,-0.1195549 0.006,-0.043219 0.0125,-0.086926 0.0176,-0.1314802 z m 10.46427,0.9811297 v 0 -0.1263191 h 0.1394 l -0.004,-2.4104341 h -0.33305 v -0.1217922 h 1.102 v 0.1217922 h -0.3526 v 2.4104341 h 0.3568 v 0.1263191 z m -13.31701,-1.3954861 v 0 0.1183681 h 0.35612 v 0.8550633 c -0.0599,0.2186463 -0.37984,0.3087015 -0.47478,0.3087015 -0.66506,0 -0.61749,-0.9735751 -0.61749,-1.2347217 0,-0.2375117 -0.0237,-1.2349918 0.61749,-1.2349918 0.45125,0 0.68866,0.4511802 0.78346,0.8549419 h 0.0715 c 0,-0.1662574 0.003,-0.9586666 0.002,-0.9569471 0.001,-0.00694 -0.30908,0.223629 -0.31091,0.2207102 0.007,-0.00218 -0.1424,-0.2135471 -0.54607,-0.2135471 -0.78353,0 -1.0721,0.7835266 -1.06881,1.3298339 0.003,0.5003753 0.21625,1.3204755 1.06881,1.3535704 0.25487,0.00977 0.44674,-0.1344881 0.54607,-0.285235 0.002,-0.00369 0.33219,0.2838971 0.33238,0.285235 V -6.834315 h 0.33263 v -0.1183681 z m 9.14038,-0.5951233 v 0 c 0,-0.1198225 -0.0118,-0.5070578 -0.33343,-0.5548629 h -0.56242 v 1.1096118 h 0.44612 c 0.33375,0 0.44973,-0.2674698 0.44973,-0.5547489 z m 2.76273,1.8620133 v 0 l -0.004,-2.4081571 h -0.35967 v -0.1217922 h 1.18827 v 0.1217922 h -0.38471 v 2.4081571 h 0.22581 c 0,0 0.21776,6.343e-4 0.22981,-3.965e-4 0.12181,-0.00959 0.21679,-0.17264 0.24268,-0.2192855 0.0262,-0.046361 0.0483,-0.1027362 0.0673,-0.164746 0.0185,-0.062144 0.0276,-0.1395576 0.0333,-0.1684725 0.006,-0.028588 0.03,-0.2321301 0.0292,-0.2625714 h 0.0712 v 0.944068 h -1.29265 -0.41012 -0.59363 v -0.1285961 h 0.29388 c -0.0128,-0.039292 -0.0246,-0.0695 -0.0351,-0.090685 -0.005,-0.013015 -0.0105,-0.026145 -0.0156,-0.039086 -0.005,-0.013362 -0.0106,-0.02635 -0.0159,-0.039693 -0.005,-0.012852 -0.01,-0.025907 -0.0137,-0.038826 -0.004,-0.013362 -0.008,-0.026611 -0.0138,-0.039693 -0.002,-0.00775 -0.012,-0.032699 -0.0291,-0.074622 -0.0173,-0.041881 -0.0355,-0.087607 -0.055,-0.1377314 -0.0197,-0.049607 -0.038,-0.096753 -0.055,-0.1414208 -0.0168,-0.044651 -0.0279,-0.070865 -0.0335,-0.078616 h -0.85448 c -0.003,0.010268 -0.0111,0.036175 -0.0254,0.076502 -0.0144,0.040701 -0.0297,0.083687 -0.0454,0.1296541 -0.0155,0.04589 -0.0329,0.086762 -0.043,0.1256773 -0.01,0.036878 -0.022,0.072228 -0.0276,0.1036579 -0.006,0.031306 -0.0139,0.061326 -0.0121,0.1043318 0.002,0.043053 0.0288,0.074926 0.0639,0.1064254 0.0494,0.0442 0.0885,0.042277 0.14795,0.047493 0.0419,0.00331 0.0673,0.00127 0.0673,0.00127 v 0.1139578 h -0.75293 v -0.0019 l -0.0113,-2.23e-4 c -0.81951,0 0.007,-1.2184778 -0.77406,-1.2834585 l -0.46095,-0.005 v 1.1637524 h 0.35154 l 3.8e-4,0.1268369 h -1.10198 l 7.2e-4,-0.1268369 h 0.35657 v -2.4186353 h -0.35657 l -7.2e-4,-0.1177511 h 1.33573 c 0.46353,0.01721 0.74419,0.1739556 0.74179,0.6208816 -0.003,0.5733244 -0.59903,0.6977158 -0.59861,0.6979958 -0.006,0.00498 0.22976,0.015761 0.36848,0.155519 0.12411,0.1244583 0.13249,0.3949112 0.13249,0.5145355 v 0.4547258 c 0,0.022785 -0.006,0.1020821 0.0965,0.1068269 8.5e-4,-1.239e-4 0.002,-1.239e-4 0.002,-1.982e-4 0.0627,-0.0085 0.0822,-0.024688 0.12509,-0.067857 0.0339,-0.03396 0.0773,-0.115821 0.0984,-0.1769067 0.0213,-0.060766 0.0375,-0.109971 0.0944,-0.2707478 0.0391,-0.1109324 0.0834,-0.2373184 0.13332,-0.3785756 0.0494,-0.1410119 0.1,-0.2861072 0.15079,-0.4336231 0.0509,-0.1479322 0.10072,-0.2930621 0.14898,-0.4356078 0.0484,-0.1423152 0.0921,-0.2707527 0.1313,-0.3846386 0.0391,-0.1137744 0.0713,-0.2072587 0.0958,-0.2806785 0.0253,-0.072952 0.0389,-0.1137496 0.0414,-0.1213835 h 0.1414 l 0.95267,2.5343523 z m -0.9851,-0.7973845 v 0 l -0.39984,-1.1212026 -0.36875,1.1212026 z m -3.57875,-0.058702 v 0 0.981137 h -1.92483 v -0.1262992 h 0.35681 v -2.4152458 h -0.34678 c -0.10335,0.0016 -0.31976,0.023563 -0.33291,0.2151478 V -5.55687 l -0.0549,-3.27e-4 -1.45608,-2.0889079 -0.002,1.7286302 c 0,0.1923899 0.28819,0.2645163 0.40841,0.2645163 v 0.096088 h -0.93684 v -0.096088 c -0.003,2.23e-4 0.40164,-0.074921 0.40812,-0.2645163 0,0 0.002,-1.802221 0.002,-1.9143601 0,-0.1844265 -0.22289,-0.2669271 -0.50561,-0.2669271 l -3.6e-4,-0.1248151 h 0.74484 l 1.26684,1.8697165 10e-4,-1.4603701 c 0,-0.1682693 -0.11466,-0.2894421 -0.40239,-0.2845313 l -6.5e-4,-0.1248151 c 0.91621,-4.96e-5 1.83219,-4.96e-5 2.7484,-4.96e-5 v 0.9335847 h -0.0744 c -0.008,-0.052062 -0.0157,-0.1021043 -0.0234,-0.1487572 -0.008,-0.047097 -0.0168,-0.090083 -0.0275,-0.1293593 -0.0128,-0.039202 -0.0242,-0.075836 -0.0335,-0.1099512 -0.009,-0.034022 -0.02,-0.065402 -0.0331,-0.093846 -0.0471,-0.1046812 -0.11648,-0.1876649 -0.19605,-0.2355939 -0.0795,-0.0481 -0.21675,-0.095278 -0.30974,-0.095278 -0.093,0 -0.3862,-0.00119 -0.4306,-0.00119 l -8.2e-4,1.1037966 h 0.1335 c 0.0627,0 0.12139,-0.011735 0.17651,-0.03529 0.0494,-0.025791 0.0888,-0.055811 0.11739,-0.08981 0.008,-0.013206 0.0151,-0.024284 0.0216,-0.03331 0.006,-0.00921 0.0138,-0.019215 0.0216,-0.029529 0.005,-0.010436 0.0104,-0.020268 0.0156,-0.02952 0.005,-0.00906 0.0106,-0.020146 0.0157,-0.033236 0.005,-0.013229 0.009,-0.024408 0.0121,-0.033271 0.002,-0.00925 0.006,-0.01892 0.0115,-0.029596 0.005,-0.010193 0.009,-0.020796 0.01,-0.031341 0.001,-0.010084 0.003,-0.020577 0.006,-0.031254 0.008,-0.020753 0.0118,-0.041725 0.0118,-0.062416 0.005,-0.02644 0.008,-0.051019 0.008,-0.074545 h 0.0859 v 1.2106631 h -0.0939 c -0.003,-0.02588 -0.005,-0.050615 -0.008,-0.074381 -0.003,-0.023372 -0.007,-0.04559 -0.0117,-0.066616 -0.008,-0.039034 -0.0184,-0.078167 -0.0315,-0.1175331 -0.0128,-0.036455 -0.0267,-0.069084 -0.0412,-0.09789 -0.0143,-0.028635 -0.028,-0.053484 -0.041,-0.074503 -0.034,-0.044344 -0.0732,-0.075598 -0.11756,-0.09393 -0.0472,-0.018414 -0.0997,-0.027386 -0.15704,-0.027386 h -0.14508 v 1.1678753 h 0.24329 c 0.1436,0 0.25608,-0.00917 0.33693,-0.027242 0.0969,-0.021115 0.17409,-0.060194 0.2314,-0.1179345 0.06,-0.060127 0.11127,-0.147734 0.15335,-0.2628042 0.0104,-0.028771 0.02,-0.059185 0.0292,-0.092047 0.009,-0.032458 0.0162,-0.06729 0.0214,-0.1037718 0.008,-0.036898 0.015,-0.076495 0.0217,-0.1195499 0.007,-0.043286 0.0124,-0.086906 0.0175,-0.1314876 z" />
    </g>
  </g>
</svg>
