<svg width="96" height="96" viewBox="0 0 96 96" fill="none" xmlns="http://www.w3.org/2000/svg">
<path fill-rule="evenodd" clip-rule="evenodd" d="M19.5313 42.2941V35H16V55.901H19.5313V47.2511C19.5538 46.573 19.7927 45.5617 20.2563 45.0304C20.7199 44.4987 21.1113 44.2766 21.3065 44.191C21.5025 44.1055 22.0145 43.911 22.4274 43.8935C22.8407 43.876 23.277 43.8964 23.5603 43.9591C23.844 44.0213 24.1018 44.0982 24.509 44.4489C24.509 44.4489 24.844 44.687 25.025 45.4445C25.206 46.2023 25.1462 46.6906 25.1513 46.8265V55.9002H28.6826V45.8188C28.6673 44.9772 28.5602 44.3301 28.3843 43.836C28.3308 43.6867 28.2817 43.5508 28.2136 43.4285C28.1731 43.3556 28.1025 43.1863 27.9878 43.0064C27.7292 42.5989 27.2941 42.0385 26.809 41.7206C26.1003 41.257 25.3698 40.8615 24.647 40.7464C24.3873 40.7049 24.127 40.6587 23.8003 40.6387C23.2155 40.6019 22.5126 40.6328 21.9034 40.8215C20.954 41.1157 20.5094 41.363 19.7632 42.053L19.5313 42.2941ZM75.0649 43.1929V40.9012L71.6017 40.9052V55.8959H75.0576V47.55C75.1261 46.2609 75.4531 45.8764 76.1315 45.2547C76.8092 44.6328 77.818 44.4401 78.0212 44.4179C78.2244 44.3957 79.0608 44.2934 80 44.5199V40.7767C79.3099 40.6186 77.9636 40.9125 77.6821 41.0145C77.3992 41.1157 76.7652 41.3539 76.1665 41.8396C75.5678 42.3254 75.2007 42.9216 75.0649 43.1929ZM65.6062 52.9997C64.5534 53.5423 62.654 53.531 61.4333 52.1297C60.3787 50.9185 60.3787 49.2015 60.39 49.2059L60.3922 49.2015H70.9535C71.0559 47.9233 70.9991 45.6051 70.0388 43.8866C69.077 42.1678 67.6852 41.0709 65.6958 40.596C63.7057 40.1212 62.0549 40.5505 61.0378 41.0141C60.0193 41.4777 58.8201 42.2129 57.7917 44.1692C57.7917 44.1692 57.0008 45.6506 56.9887 48.1946C56.9774 50.7379 57.5434 51.7674 57.5656 51.9152C57.5878 52.0623 58.1304 53.3172 59.1267 54.3351C60.1209 55.3536 61.6369 55.8962 61.8962 55.9523C62.1554 56.0084 63.5589 56.4388 65.5265 56.1209C67.4937 55.8044 68.8957 54.6402 69.4838 53.9283C70.0712 53.2156 70.8851 51.9611 70.9761 50.6822V50.5584H67.3345C67.2107 51.5074 66.6557 52.4575 65.6062 52.9997V52.9997ZM62.3594 43.5472C62.9475 43.2082 64.4853 42.7781 65.7974 43.683C67.1098 44.5876 67.3578 45.5151 67.4019 46.4197L60.5626 46.408C60.7425 44.6215 61.7723 43.8866 62.3594 43.5472V43.5472ZM53.1039 40.9165V42.3189C52.2434 41.4143 50.7063 40.7352 49.3334 40.7352C47.9619 40.7352 46.4995 41.037 45.3833 41.9416C44.2679 42.8462 43.1973 44.0526 42.8805 46.3137C42.5644 48.5748 42.7898 50.5955 43.9056 52.2692C45.021 53.9429 46.5745 55.0139 48.9867 55.1027C51.3985 55.1938 53.1035 53.5962 53.1035 53.5962V55.5565C53.1035 55.5565 53.3446 57.5153 50.479 57.622C47.6149 57.7272 47.0417 56.7778 46.9365 55.9028H43.2428V56.0685C43.4835 58.2542 45.0217 59.0833 45.0217 59.0833C47.494 60.7272 52.3038 59.8819 52.3038 59.8819C54.7761 59.3856 55.6814 57.9067 55.6814 57.9067C56.2987 56.988 56.3442 56.4756 56.3904 55.4949V40.9165H53.1039ZM51.9116 51.349C50.7809 52.2998 48.9871 52.5707 47.5093 51.4094C47.5093 51.4094 46.017 50.2186 46.1375 47.565C46.258 44.9117 47.8414 44.2183 48.0668 44.1127C48.2933 44.0068 50.2387 43.0727 51.9877 44.5952C51.9877 44.5952 52.6356 45.1415 52.8719 45.9332C53.1108 46.7249 53.1181 47.6254 53.1181 47.6254L53.133 47.8516C53.133 49.2237 53.0434 50.3992 51.9116 51.349Z" fill="white"/>
<path fill-rule="evenodd" clip-rule="evenodd" d="M43.0691 55.9064C42.7636 55.4312 42.2887 54.6176 42.2778 53.7699V44.6328C42.2439 44.2151 42.4136 42.9256 41.0564 41.8174L40.9205 41.7042C40.2534 41.1954 39.4282 40.9689 38.7381 40.777C38.0484 40.5851 37.2229 40.5057 36.1147 40.4835C35.007 40.4609 33.4687 40.777 33.4687 40.777C32.0664 41.1619 31.1396 41.8852 30.6083 42.7446C30.0766 43.604 29.9411 44.7573 29.896 45.707H33.2994C33.2994 45.707 33.2543 44.5537 33.7291 44.0789C34.204 43.604 34.9392 43.3549 36.3412 43.3098C36.3412 43.3098 37.551 43.2759 38.1955 43.7169C38.8401 44.1575 38.8401 44.5308 38.8627 44.8928C38.8853 45.2547 38.8175 45.6619 38.7272 45.7638C38.6365 45.8654 38.4778 46.0461 38.1169 46.1029L35.007 46.7587C33.4578 47.0413 32.8136 47.2445 31.8071 47.5843C30.8005 47.9237 29.9189 49.0657 29.6924 49.5289C29.4659 49.9917 29.0817 51.1243 29.3195 52.2204C29.5569 53.3172 30.0089 54.2568 30.9251 54.9232C31.841 55.5896 32.7229 55.9745 34.0117 56.0994C35.3012 56.2232 36.2964 55.9636 36.5677 55.8725C36.839 55.7815 37.8336 55.5098 38.8518 54.5496V55.9068H43.0691V55.9064ZM37.5513 52.7065C36.126 53.622 34.4414 53.3624 34.125 53.1916C33.8081 53.0237 32.9374 52.7961 32.8023 51.452C32.8023 51.452 32.7339 50.4447 33.5485 49.9819C33.5485 49.9819 34.0234 49.676 34.6679 49.4728C35.3121 49.2692 36.6238 48.9422 37.2913 48.8504C37.9585 48.7594 38.8521 48.4892 38.8521 48.4892V50.2415C38.8518 50.2415 38.9759 51.7903 37.5513 52.7065V52.7065Z" fill="white"/>
</svg>
