<svg width="64" height="26" viewBox="0 0 64 26" fill="none" xmlns="http://www.w3.org/2000/svg">
<path fill-rule="evenodd" clip-rule="evenodd" d="M3.53126 7.29412V0H0V20.901H3.53126V12.2511C3.55384 11.573 3.79272 10.5617 4.2563 10.0304C4.71988 9.49874 5.11135 9.27661 5.30654 9.19103C5.50246 9.10545 6.01446 8.91099 6.42742 8.89351C6.84074 8.87603 7.27701 8.89642 7.56032 8.95906C7.844 9.02133 8.10183 9.09817 8.50896 9.44885C8.50896 9.44885 8.84399 9.68701 9.02497 10.4445C9.20596 11.2023 9.14624 11.6906 9.15134 11.8265V20.9002H12.6826V10.8188C12.6673 9.97725 12.5602 9.33014 12.3843 8.83597C12.3308 8.68667 12.2817 8.55083 12.2136 8.42848C12.1731 8.35565 12.1025 8.18631 11.9878 8.00642C11.7292 7.59892 11.2941 7.03848 10.809 6.72057C10.1003 6.25699 9.36983 5.86152 8.64698 5.74644C8.38733 5.70493 8.12695 5.65868 7.8003 5.63865C7.21546 5.60187 6.51263 5.63282 5.9034 5.82146C4.95403 6.1157 4.50939 6.36296 3.76323 7.05305L3.53126 7.29412ZM59.0649 8.19287V5.90121L55.6017 5.90522V20.8959H59.0576V12.55C59.1261 11.2609 59.4531 10.8764 60.1315 10.2547C60.8092 9.63275 61.818 9.44011 62.0212 9.4179C62.2244 9.39569 63.0608 9.29336 64 9.51986V5.77667C63.3099 5.61862 61.9636 5.9125 61.6821 6.01446C61.3992 6.1157 60.7652 6.35386 60.1665 6.83965C59.5678 7.32544 59.2007 7.92157 59.0649 8.19287ZM49.6062 17.9997C48.5534 18.5423 46.654 18.531 45.4333 17.1297C44.3787 15.9185 44.3787 14.2015 44.39 14.2059L44.3922 14.2015H54.9535C55.0559 12.9233 54.9991 10.6051 54.0388 8.88659C53.077 7.16776 51.6852 6.07091 49.6958 5.59604C47.7057 5.12118 46.0549 5.55052 45.0378 6.0141C44.0193 6.47767 42.8201 7.21291 41.7917 9.16918C41.7917 9.16918 41.0008 10.6506 40.9887 13.1946C40.9774 15.7379 41.5434 16.7674 41.5656 16.9152C41.5878 17.0623 42.1304 18.3172 43.1267 19.3351C44.1209 20.3536 45.6369 20.8962 45.8962 20.9523C46.1554 21.0084 47.5589 21.4388 49.5265 21.1209C51.4937 20.8044 52.8957 19.6402 53.4838 18.9283C54.0712 18.2156 54.8851 16.9611 54.9761 15.6822V15.5584H51.3345C51.2107 16.5074 50.6557 17.4575 49.6062 17.9997V17.9997ZM46.3594 8.54719C46.9475 8.20816 48.4853 7.77809 49.7974 8.68303C51.1098 9.5876 51.3578 10.5151 51.4019 11.4197L44.5626 11.408C44.7425 9.62146 45.7723 8.88659 46.3594 8.54719V8.54719ZM37.1039 5.9165V7.31888C36.2434 6.41431 34.7063 5.73515 33.3334 5.73515C31.9619 5.73515 30.4995 6.03704 29.3833 6.94161C28.2679 7.84619 27.1973 9.05265 26.8805 11.3137C26.5644 13.5748 26.7898 15.5955 27.9056 17.2692C29.021 18.9429 30.5745 20.0139 32.9867 20.1027C35.3985 20.1938 37.1035 18.5962 37.1035 18.5962V20.5565C37.1035 20.5565 37.3446 22.5153 34.479 22.622C31.6149 22.7272 31.0417 21.7778 30.9365 20.9028H27.2428V21.0685C27.4835 23.2542 29.0217 24.0833 29.0217 24.0833C31.494 25.7272 36.3038 24.8819 36.3038 24.8819C38.7761 24.3856 39.6814 22.9067 39.6814 22.9067C40.2987 21.988 40.3442 21.4756 40.3904 20.4949V5.9165H37.1039ZM35.9116 16.349C34.7809 17.2998 32.9871 17.5707 31.5093 16.4094C31.5093 16.4094 30.017 15.2186 30.1375 12.565C30.258 9.9117 31.8414 9.21834 32.0668 9.11274C32.2933 9.00676 34.2387 8.07269 35.9877 9.59525C35.9877 9.59525 36.6356 10.1415 36.8719 10.9332C37.1108 11.7249 37.1181 12.6254 37.1181 12.6254L37.133 12.8516C37.133 14.2237 37.0434 15.3992 35.9116 16.349Z" fill="white"/>
<path fill-rule="evenodd" clip-rule="evenodd" d="M27.0691 20.9064C26.7636 20.4312 26.2887 19.6176 26.2778 18.7699V9.63275C26.2439 9.21506 26.4136 7.92557 25.0564 6.81743L24.9205 6.70418C24.2534 6.19545 23.4282 5.96894 22.7381 5.77703C22.0484 5.58512 21.2229 5.50573 20.1147 5.48352C19.007 5.46094 17.4687 5.77703 17.4687 5.77703C16.0664 6.16194 15.1396 6.88517 14.6083 7.74458C14.0766 8.604 13.9411 9.7573 13.896 10.707H17.2994C17.2994 10.707 17.2543 9.55373 17.7291 9.07887C18.204 8.604 18.9392 8.35492 20.3412 8.30976C20.3412 8.30976 21.551 8.27589 22.1955 8.71689C22.8401 9.15752 22.8401 9.53079 22.8627 9.89276C22.8853 10.2547 22.8175 10.6619 22.7272 10.7638C22.6365 10.8654 22.4778 11.0461 22.1169 11.1029L19.007 11.7587C17.4578 12.0413 16.8136 12.2445 15.8071 12.5843C14.8005 12.9237 13.9189 14.0657 13.6924 14.5289C13.4659 14.9917 13.0817 16.1243 13.3195 17.2204C13.5569 18.3172 14.0089 19.2568 14.9251 19.9232C15.841 20.5896 16.7229 20.9745 18.0117 21.0994C19.3012 21.2232 20.2964 20.9636 20.5677 20.8725C20.839 20.7815 21.8336 20.5098 22.8518 19.5496V20.9068H27.0691V20.9064ZM21.5513 17.7065C20.126 18.622 18.4414 18.3624 18.125 18.1916C17.8081 18.0237 16.9374 17.7961 16.8023 16.452C16.8023 16.452 16.7339 15.4447 17.5485 14.9819C17.5485 14.9819 18.0234 14.676 18.6679 14.4728C19.3121 14.2692 20.6238 13.9422 21.2913 13.8504C21.9585 13.7594 22.8521 13.4892 22.8521 13.4892V15.2415C22.8518 15.2415 22.9759 16.7903 21.5513 17.7065V17.7065Z" fill="white"/>
</svg>
