<?xml version="1.0" encoding="UTF-8" standalone="no"?>
<svg
   xmlns:dc="http://purl.org/dc/elements/1.1/"
   xmlns:cc="http://creativecommons.org/ns#"
   xmlns:rdf="http://www.w3.org/1999/02/22-rdf-syntax-ns#"
   xmlns:svg="http://www.w3.org/2000/svg"
   xmlns="http://www.w3.org/2000/svg"
   id="svg5782"
   version="1.1"
   viewBox="0 0 25.399999 25.400001"
   height="96"
   width="96">
  <defs
     id="defs5776" />
  <metadata
     id="metadata5779">
    <rdf:RDF>
      <cc:Work
         rdf:about="">
        <dc:format>image/svg+xml</dc:format>
        <dc:type
           rdf:resource="http://purl.org/dc/dcmitype/StillImage" />
        <dc:title></dc:title>
      </cc:Work>
    </rdf:RDF>
  </metadata>
  <g
     transform="translate(0,-271.59998)"
     id="layer1">
    <rect
       y="271.59998"
       x="0"
       height="25.4"
       width="25.4"
       id="rect6729"
       style="opacity:1;vector-effect:none;fill:none;fill-opacity:1;stroke:none;stroke-width:0.52916676;stroke-linecap:butt;stroke-linejoin:miter;stroke-miterlimit:4;stroke-dasharray:1.05833345, 2.11666688;stroke-dashoffset:0;stroke-opacity:1;paint-order:stroke markers fill" />
    <path
       style="fill:#707374;fill-opacity:1;stroke:none;stroke-width:0.13198753"
       d="m 21.065341,287.96881 c 0.868999,-0.4509 1.515052,-1.13657 1.919,-2.03668 l 0.356519,-0.79443 -0.06001,-1.00403 -0.06001,-1.00405 -0.286647,-0.55727 c -0.448226,-0.87139 -1.024683,-1.44181 -1.898212,-1.87833 l -0.804757,-0.40212 -0.869837,6.1e-4 c -1.029003,6.2e-4 -1.723176,0.17222 -2.146153,0.52978 l -0.307535,0.25996 0.644973,-0.2774 c 0.354729,-0.15258 0.993221,-0.30897 1.418863,-0.34759 l 0.773897,-0.0701 v 0.4143 0.41429 h -0.23624 c -0.615529,0 -1.882511,0.45177 -2.555293,0.91113 l -0.745734,0.50918 -0.376162,-0.0527 -0.376162,-0.0527 0.296972,0.15468 c 0.163332,0.085 0.296972,0.20852 0.296972,0.27429 0,0.0657 0.05735,0.0841 0.127464,0.0409 0.178267,-0.1102 1.062384,0.36486 1.448045,0.77804 l 0.321619,0.34455 -0.137833,0.13785 c -0.07581,0.0757 -0.474707,0.17259 -0.886446,0.21509 -0.411726,0.0425 -0.785782,0.13743 -0.831229,0.21098 l -0.08264,0.13369 0.779438,-0.10567 c 0.428694,-0.058 0.94494,-0.11194 1.147221,-0.11952 0.202282,-0.008 0.410162,-0.0801 0.461952,-0.16107 0.11707,-0.18298 0.68012,-0.37603 0.973401,-0.33376 0.12061,0.0174 0.257751,-0.0306 0.304766,-0.10674 0.04703,-0.0761 0.308379,-0.1383 0.580809,-0.1383 h 0.495341 l 0.28503,0.38552 c 0.156767,0.21203 0.611711,0.58326 1.010986,0.82493 0.836854,0.50652 0.876137,0.66476 0.346502,1.39589 -1.102414,1.52185 -2.600388,1.9754 -4.681273,1.4174 l -0.382649,-0.10262 0.09218,0.14916 c 0.163549,0.26462 0.911497,0.40671 1.993003,0.3786 l 1.055904,-0.0274 z m 1.310349,-2.92952 c -0.25931,-0.13312 -0.675074,-0.43515 -0.923911,-0.67119 l -0.452438,-0.42915 0.461958,-0.11898 c 0.254078,-0.0655 0.681007,-0.1968 0.948741,-0.29185 0.26773,-0.095 0.520155,-0.13946 0.560949,-0.0986 0.108884,0.10887 0.08656,1.52225 -0.02684,1.69995 l -0.09697,0.15194 z m -4.548141,-1.39389 c -0.284703,-0.26078 -0.718839,-0.57737 -0.96476,-0.70353 l -0.447121,-0.22939 0.639407,-0.42352 c 0.717192,-0.47505 1.848159,-0.84843 2.378086,-0.7851 l 0.350722,0.0419 0.158226,0.62638 0.158224,0.62638 -0.148756,0.29753 c -0.08181,0.16365 -0.235906,0.30553 -0.342421,0.31531 -0.106514,0.009 -0.267903,0.0246 -0.35865,0.033 -0.09074,0.008 -0.164983,0.0948 -0.164983,0.19203 0,0.13638 -0.506947,0.48314 -0.706351,0.48314 -0.0187,0 -0.266922,-0.21338 -0.551623,-0.47415 z m 2.06926,-0.14314 c 0.166079,-0.20011 0.458896,-0.22987 0.565448,-0.0575 0.03982,0.0644 -0.103707,0.14305 -0.318981,0.17465 l -0.391415,0.0575 z m 0.804278,-0.0704 c -0.252096,-0.30376 0.327019,-1.68806 0.706196,-1.68806 0.283601,0 1.143736,0.60645 1.306472,0.92115 l 0.201988,0.39062 -0.40435,0.20909 c -0.222393,0.11499 -0.685251,0.24236 -1.02858,0.28303 l -0.62424,0.0739 z m -0.563253,-1.30543 c -0.173757,-0.64529 -0.138014,-0.69869 0.390111,-0.5827 0.466226,0.10235 0.492283,0.21025 0.178965,0.74064 -0.301656,0.51068 -0.396089,0.48448 -0.569076,-0.15794 z m 1.550528,-0.46018 c -0.201784,-0.10941 -0.331256,-0.25662 -0.287709,-0.32708 0.04566,-0.0739 0.242702,-0.012 0.465872,0.14724 0.594865,0.42358 0.481778,0.53772 -0.178163,0.17984 z m -1.170482,-0.34969 -0.481461,-0.12059 -0.0612,-0.32005 c -0.07215,-0.37745 0.07255,-0.40085 0.744015,-0.12031 0.786389,0.32857 0.62839,0.76865 -0.201367,0.56089 z M 2.4550983,286.6245 v -0.79476 l 0.326062,-0.14856 0.326061,-0.14857 0.20189,0.16757 0.20189,0.16755 v 0.77576 0.77576 h 0.197982 0.197982 v -0.88052 -0.88052 l -0.218441,-0.24142 c -0.244983,-0.27069 -0.597487,-0.30844 -0.978124,-0.10474 l -0.255302,0.13663 v -0.53258 -0.5326 h -0.197976 -0.197982 v 1.51786 1.51785 h 0.197982 0.197976 z m 3.531466,0.56377 0.05418,-0.16498 h -0.415641 c -0.458292,0 -0.926232,-0.20239 -0.926232,-0.4006 0,-0.07 0.298836,-0.12737 0.664083,-0.12737 h 0.664078 l 0.07608,-0.19829 c 0.244566,-0.6373 -0.340532,-1.20195 -1.098189,-1.05982 l -0.458081,0.086 -0.190197,0.45521 c -0.235955,0.56471 -0.128322,1.03509 0.317028,1.38541 l 0.341091,0.2683 0.458796,-0.0394 c 0.252333,-0.0217 0.483175,-0.11366 0.512984,-0.2044 z m -1.257825,-1.24445 c 0.02852,-0.0856 0.152261,-0.21889 0.274979,-0.29629 l 0.22312,-0.14075 0.223125,0.14075 c 0.122719,0.0775 0.246456,0.21074 0.274973,0.29629 l 0.05188,0.15556 h -0.549953 -0.549946 z m 3.5072985,0.64887 c 0.02169,-0.41272 -0.02355,-0.8682 -0.100588,-1.01214 -0.241802,-0.45181 -1.588733,-0.52626 -1.588733,-0.0878 v 0.16749 l 0.547573,-0.012 c 0.730096,-0.0152 0.808777,0.26122 0.101364,0.3561 -0.604489,0.0811 -0.709482,0.15402 -0.8388355,0.58266 l -0.08758,0.29022 0.2745695,0.27457 0.274562,0.27456 0.689097,-0.0419 0.689097,-0.0419 z m -1.371801,0.24778 c -0.118505,-0.30883 0.0548,-0.47711 0.49137,-0.47711 h 0.397355 l -0.04219,0.29697 -0.04218,0.29697 -0.363712,0.0418 c -0.23306,0.0267 -0.39136,-0.0302 -0.44066,-0.15866 z m 3.122494,-0.41113 c 0.4307372,-1.0646 0.4604342,-1.25387 0.1967322,-1.25387 -0.113565,0 -0.3096962,0.32584 -0.4841882,0.80439 l -0.293295,0.80439 -0.28769,-0.7714 c -0.169298,-0.45393 -0.377425,-0.78895 -0.505723,-0.81406 -0.286255,-0.056 -0.276414,0.048 0.09232,0.97682 0.170689,0.42994 0.348696,0.89003 0.395567,1.02241 0.163525,0.462 0.509885,0.16159 0.886273,-0.76868 z m 2.2032442,0.75893 0.05418,-0.16498 h -0.41564 c -0.458291,0 -0.926229,-0.20239 -0.926229,-0.4006 0,-0.07 0.298833,-0.12737 0.66408,-0.12737 h 0.664076 l 0.07609,-0.19829 c 0.244561,-0.6373 -0.340531,-1.20195 -1.098194,-1.05982 l -0.458073,0.086 -0.194465,0.46541 -0.194459,0.46542 0.142688,0.43234 c 0.211041,0.63947 1.513378,1.0272 1.685935,0.50192 z m -1.260752,-1.23565 c 0.03013,-0.0904 0.155194,-0.22769 0.277909,-0.30509 l 0.223118,-0.14075 0.208178,0.13136 c 0.364718,0.23005 0.269015,0.39404 -0.255103,0.43708 l -0.508882,0.0418 z m 2.216863,0.67936 v -0.78729 l 0.27429,-0.1468 c 0.150862,-0.0808 0.355828,-0.11553 0.455484,-0.0772 l 0.1812,0.0695 0.03945,0.83022 0.03945,0.83021 0.230974,0.0441 0.230978,0.0441 v -0.8676 -0.86758 l -0.263963,-0.26398 c -0.294606,-0.29461 -0.489233,-0.32235 -0.972518,-0.1386 l -0.329765,0.12537 -0.04958,-0.14874 c -0.149823,-0.44948 -0.363966,0.1422 -0.363966,1.00568 0,0.98494 0.04685,1.1361 0.351965,1.1361 h 0.175981 z m 2.375777,-0.3443 v -1.13156 l -0.23098,0.0441 -0.230978,0.0441 -0.03945,0.90945 c -0.04473,1.03036 0.01091,1.26561 0.299316,1.26561 h 0.20212 z m 1.885193,0.9336 c -0.01572,-0.0727 -0.242098,-0.1617 -0.503007,-0.19799 l -0.474371,-0.066 0.535998,-0.71677 c 0.294798,-0.39423 0.535998,-0.79798 0.535998,-0.89721 v -0.18044 l -0.814445,0.0393 c -0.504291,0.0244 -0.835192,0.10209 -0.868917,0.20428 l -0.05449,0.16499 h 0.538948 c 0.659311,0 0.659106,-0.0158 0.01105,0.84258 -0.290373,0.3846 -0.52795,0.77094 -0.52795,0.85854 v 0.15929 l 0.824923,-0.0393 c 0.461436,-0.022 0.812306,-0.0974 0.796296,-0.17128 z m 2.042229,-0.033 0.05418,-0.16498 h -0.41564 c -1.013115,0 -1.222436,-0.49711 -0.233303,-0.55406 l 0.692938,-0.0399 0.03889,-0.27171 c 0.02137,-0.14943 -0.08687,-0.43157 -0.240561,-0.62693 l -0.279427,-0.35522 h -0.392377 c -1.071673,0 -1.451981,1.70792 -0.47075,2.11406 0.395703,0.16378 1.179925,0.10009 1.24605,-0.10128 z m -1.287672,-1.28437 c 0,-0.21441 0.561926,-0.40863 0.784424,-0.27112 0.07672,0.0474 0.139487,0.1718 0.139487,0.27639 v 0.19021 H 18.62357 18.161613 Z m -2.672748,-1.28942 c -0.03025,-0.0908 -0.134188,-0.16498 -0.230979,-0.16498 -0.09679,0 -0.200728,0.0743 -0.230979,0.16498 -0.03267,0.0981 0.06089,0.16497 0.230979,0.16497 0.170116,0 0.263696,-0.0668 0.230979,-0.16497 z"
       id="path6306" />
  </g>
</svg>
