<?xml version="1.0" encoding="UTF-8" standalone="no"?>
<svg
   xmlns:dc="http://purl.org/dc/elements/1.1/"
   xmlns:cc="http://creativecommons.org/ns#"
   xmlns:rdf="http://www.w3.org/1999/02/22-rdf-syntax-ns#"
   xmlns:svg="http://www.w3.org/2000/svg"
   xmlns="http://www.w3.org/2000/svg"
   id="svg5782"
   version="1.1"
   viewBox="0 0 25.399999 25.400001"
   height="96"
   width="96">
  <defs
     id="defs5776">
    <clipPath
       id="clipPath20-8"
       clipPathUnits="userSpaceOnUse">
      <path
         id="path18-0-9"
         d="m 541.781,371.848 v 0 h 0.043 z" />
    </clipPath>
  </defs>
  <metadata
     id="metadata5779">
    <rdf:RDF>
      <cc:Work
         rdf:about="">
        <dc:format>image/svg+xml</dc:format>
        <dc:type
           rdf:resource="http://purl.org/dc/dcmitype/StillImage" />
        <dc:title></dc:title>
      </cc:Work>
    </rdf:RDF>
  </metadata>
  <g
     transform="translate(0,-271.59998)"
     id="layer1">
    <rect
       y="271.59998"
       x="0.08813975"
       height="25.4"
       width="25.4"
       id="rect6729"
       style="opacity:1;vector-effect:none;fill:none;fill-opacity:1;stroke:none;stroke-width:0.52916676;stroke-linecap:butt;stroke-linejoin:miter;stroke-miterlimit:4;stroke-dasharray:1.05833345, 2.11666688;stroke-dashoffset:0;stroke-opacity:1;paint-order:stroke markers fill" />
    <path
       id="path12709"
       d="m 14.89585,287.75417 v -0.20407 h 0.077 c 0.2694,0 0.62179,-0.2261 0.7618,-0.48878 0.12509,-0.23471 0.11506,-0.012 0.12074,-2.67917 l 0.005,-2.40555 h 0.19243 c 0.10584,0 0.19244,0.006 0.19245,0.0132 0.003,2.96193 -0.003,4.79858 -0.0159,4.86822 -0.111,0.5852 -0.60743,1.03278 -1.20734,1.08853 l -0.12632,0.0118 z m 5.713703,-2.15056 c 0,-1.61092 0.006,-2.38837 0.01914,-2.47292 0.08954,-0.5771 0.528252,-1.02645 1.102575,-1.12932 0.625693,-0.11206 1.237966,0.222 1.489268,0.81254 0.104436,0.24543 0.107724,0.30218 0.101462,1.75112 -0.0063,1.46365 3.7e-4,1.38145 -0.133962,1.6618 -0.175318,0.36608 -0.495005,0.62865 -0.885573,0.72737 -0.188592,0.0476 -0.480242,0.0479 -0.665433,5.8e-4 -0.166882,-0.0426 -0.38904,-0.15653 -0.52303,-0.26804 l -0.101326,-0.0843 v 0.67542 0.67542 H 20.811116 20.60956 v -2.3496 z m 1.558069,0.9731 c 0.341462,-0.0805 0.642382,-0.37006 0.728618,-0.70114 0.02291,-0.0879 0.02684,-0.28969 0.02684,-1.37793 0,-0.87484 -0.0062,-1.30406 -0.01965,-1.36779 -0.04849,-0.22923 -0.185627,-0.43354 -0.384923,-0.5735 -0.182127,-0.1279 -0.313211,-0.16786 -0.55063,-0.16786 -0.15464,0 -0.215339,0.008 -0.306718,0.0395 -0.293087,0.10161 -0.541946,0.37381 -0.6217,0.68001 -0.03975,0.15259 -0.03957,2.5892 1.89e-4,2.75791 0.0398,0.16886 0.122346,0.31014 0.263441,0.45088 0.23736,0.23676 0.556156,0.33261 0.864527,0.25992 z m -16.8439213,1.05745 c -0.268631,-0.015 -0.593191,-0.0784 -0.839731,-0.16403 -0.10065,-0.035 -0.35139,-0.14341 -0.55719,-0.24094 l -0.37417,-0.17735 -0.1764,-0.18466 c -0.35926,-0.37608 -0.65041,-0.7689 -0.81886,-1.1048 -0.18613,-0.37116 -0.30057,-0.78392 -0.30468,-1.09889 -0.003,-0.22287 0.0148,-0.25124 0.10124,-0.16245 0.0422,0.0433 0.088,0.13375 0.15962,0.31489 0.1286,0.32539 0.27959,0.605 0.42589,0.78871 0.29089,0.36526 0.52036,0.58571 0.81821,0.78604 0.57643,0.38771 1.19896,0.56927 1.90166,0.55464 1.101571,-0.0229 2.092601,-0.58079 2.64635,-1.48966 0.0411,-0.0675 0.11918,-0.17853 0.17349,-0.24678 0.0981,-0.12323 0.0998,-0.12743 0.24752,-0.60893 0.0818,-0.26666 0.154041,-0.4849 0.160471,-0.48496 0.0233,-1.9e-4 0.0496,0.18038 0.0496,0.3397 0,0.18475 -0.0387,0.36057 -0.12271,0.55813 -0.0298,0.07 -0.077,0.21411 -0.10478,0.32015 -0.18415,0.70172 -0.61875,1.29875 -1.26228,1.73402 -0.17253,0.1167 -0.580041,0.31961 -0.7721,0.38445 -0.4479,0.1512 -0.87638,0.20915 -1.3512,0.18272 z m 5.1554293,-3.15124 v -2.50632 h 0.201549 0.201561 v 2.50632 2.50632 H 10.680679 10.47913 Z m 1.23134,0.54771 c 0.006,-2.18458 -0.004,-2.00718 0.13238,-2.29 0.13899,-0.28796 0.35486,-0.50378 0.64002,-0.63989 0.18324,-0.0875 0.35161,-0.12421 0.56737,-0.12383 0.38907,6e-4 0.68757,0.12345 0.95954,0.3946 0.157979,0.15752 0.25962,0.32102 0.33739,0.54278 l 0.0492,0.14021 0.005,1.96737 0.005,1.96737 h -0.19323 -0.19323 l -10e-4,-1.81839 c -7.94e-4,-1.00012 -0.005,-1.86177 -0.009,-1.91479 -0.03559,-0.43321 -0.344744,-0.77847 -0.778334,-0.86932 -0.44462,-0.0932 -0.90681,0.17173 -1.073431,0.61518 l -0.0395,0.10516 -0.005,1.94108 -0.005,1.94108 h -0.201827 -0.20176 z m 6.46287,1.93204 c -0.48575,-0.0993 -0.85838,-0.42938 -1.0284,-0.9111 l -0.0495,-0.14022 -0.005,-1.36968 c -0.005,-1.48207 -0.005,-1.48874 0.0896,-1.72303 0.38033,-0.9416 1.646497,-1.14226 2.290296,-0.36296 0.10516,0.1273 0.23305,0.37697 0.275303,0.53748 0.04125,0.15668 0.04106,0.51052 -3.7e-4,0.66601 -0.07406,0.27804 -0.249564,0.55104 -0.463631,0.72115 -0.243834,0.19376 -0.496763,0.28445 -0.845419,0.30314 -0.28793,0.0154 -0.49521,0.10188 -0.674781,0.28146 -0.18879,0.18878 -0.278649,0.40769 -0.276979,0.67476 0.002,0.27272 0.0988,0.49604 0.29805,0.68569 0.18959,0.18044 0.39054,0.26076 0.65237,0.26076 0.26687,0 0.482713,-0.0906 0.670334,-0.28123 0.168639,-0.17138 0.275857,-0.4068 0.277018,-0.60825 l 3.7e-4,-0.0745 h 0.201558 0.201557 v 0.0708 c 0,0.19898 -0.09502,0.4867 -0.227452,0.68876 -0.296416,0.45224 -0.859294,0.68833 -1.385004,0.58091 z m -0.37011,-2.52099 c 0.18715,-0.0979 0.31949,-0.13289 0.57097,-0.15095 0.27084,-0.0195 0.414068,-0.0596 0.564684,-0.15849 0.423799,-0.27813 0.565812,-0.8099 0.334245,-1.25158 -0.07943,-0.1515 -0.278213,-0.34718 -0.420174,-0.41362 -0.118895,-0.0556 -0.313195,-0.10424 -0.416715,-0.10424 -0.1851,0 -0.44754,0.0966 -0.60694,0.22333 -0.11323,0.09 -0.25664,0.30279 -0.30739,0.456 -0.0373,0.11268 -0.0392,0.14889 -0.0457,0.87659 l -0.007,0.75906 0.10885,-0.0877 c 0.0599,-0.0482 0.16104,-0.11502 0.22483,-0.14839 z m -12.4594303,1.4709 c -0.155609,-0.033 -0.288569,-0.0852 -0.422149,-0.16574 -0.113561,-0.0684 -0.293641,-0.21501 -0.327581,-0.26662 -0.0167,-0.0255 -0.009,-0.0259 0.0808,-0.005 0.16507,0.0391 0.48565,0.0763 0.656641,0.0762 0.856259,-5.8e-4 1.412909,-0.44185 1.59258,-1.26258 0.035,-0.15994 0.0402,-0.23285 0.0405,-0.57272 l 3.7e-4,-0.38946 0.0509,0.10027 c 0.11624,0.2291 0.20946,0.54947 0.2309,0.79349 0.0234,0.26664 -0.0494,0.58772 -0.19073,0.84035 -0.0886,0.1584 -0.36764,0.44816 -0.53797,0.5586 -0.39248,0.25449 -0.83487,0.36474 -1.17429,0.29268 z m 0.14492,-0.91774 c -0.0144,-0.009 0.0178,-0.0366 0.0964,-0.0816 0.1669,-0.0955 0.38419,-0.319 0.45772,-0.47077 0.0758,-0.15654 0.11262,-0.36301 0.0974,-0.54669 -0.0102,-0.12322 -0.0694,-0.39914 -0.10436,-0.48637 -0.0225,-0.0561 0.0199,-0.0318 0.12777,0.0734 0.21007,0.20491 0.30206,0.39954 0.30166,0.63823 -8.99e-4,0.40268 -0.24649,0.73934 -0.613969,0.84086 -0.117391,0.0324 -0.333281,0.052 -0.362611,0.0329 z m -1.47943,-0.24026 c -0.14411,-0.277 -0.20129,-0.52682 -0.18548,-0.81031 0.0118,-0.21232 0.0446,-0.337 0.14181,-0.53924 0.21447,-0.44632 0.61753,-0.79511 1.07517,-0.93039 0.20175,-0.0597 0.51778,-0.0636 0.72713,-0.009 0.231131,0.0601 0.532011,0.2192 0.69759,0.36888 l 0.0614,0.0555 -0.0964,-0.01 c -0.64054,-0.0662 -1.10374,-0.0459 -1.4367,0.0628 -0.49943,0.16307 -0.77542,0.53389 -0.86783,1.16599 -0.0153,0.10466 -0.0334,0.32042 -0.0403,0.47947 l -0.0125,0.28918 z m 1.12145,-0.0768 c -0.121409,-0.077 -0.169669,-0.13646 -0.25277,-0.31145 l -0.0762,-0.16044 0.0356,-0.12827 c 0.0739,-0.26668 0.24808,-0.5259 0.432211,-0.64322 0.112669,-0.0718 0.26688,-0.12061 0.4248,-0.1345 l 0.13145,-0.0115 -0.30078,0.29497 c -0.382011,0.37464 -0.417871,0.4346 -0.417471,0.69809 1.9e-4,0.15528 0.007,0.19075 0.055,0.31109 0.0301,0.0747 0.0532,0.13584 0.0513,0.13584 -0.002,0 -0.0393,-0.0228 -0.0832,-0.0505 z m 3.608961,-0.94092 c -0.0687,-0.0372 -0.112851,-0.13669 -0.14253,-0.32104 -0.0199,-0.12369 -0.0425,-0.19136 -0.0983,-0.29494 -0.29663,-0.54993 -0.71496,-1.00673 -1.19533,-1.30525 -0.92239,-0.57322 -2.25898,-0.6252 -3.23829,-0.12594 -0.30807,0.15705 -0.5148,0.30985 -0.791,0.58466 -0.25651,0.25522 -0.41065,0.45055 -0.6137,0.77776 -0.1554,0.25042 -0.21618,0.28897 -0.28647,0.18169 -0.0253,-0.0386 -0.0235,-0.0553 0.0247,-0.22678 0.31005,-1.10421 1.07194,-1.83868 2.37899,-2.29342 l 0.20682,-0.072 0.49075,0.009 c 0.51656,0.009 0.6899,0.0277 1.00702,0.10807 0.32832,0.0832 0.60287,0.20857 0.92091,0.42044 0.60604,0.40372 1.0197,0.90404 1.27651,1.54393 0.11154,0.27792 0.22687,0.69394 0.22803,0.82257 10e-4,0.11785 -0.0407,0.21952 -0.0897,0.21838 -0.0166,-3.7e-4 -0.0519,-0.0124 -0.0783,-0.0268 z m 7.2734793,-2.17716 -0.15336,-0.005 v -0.27098 -0.27098 h 0.19279 0.1928 v 0.26962 c 0,0.31333 0.023,0.28583 -0.23223,0.2774 z m -5.53405,-0.27537 v -0.27166 h 0.201549 0.201561 v 0.27166 0.27167 H 10.680679 10.47913 Z"
       style="fill:#707374;fill-opacity:1;stroke-width:0.0175267" />
  </g>
</svg>
