<svg width="256" height="256" viewBox="0 0 256 256" fill="none" xmlns="http://www.w3.org/2000/svg">
<g clip-path="url(#clip0_762_431)">
<path d="M107.497 140.16C108.108 138.817 108.509 137.914 108.926 137.022C112.112 130.178 116.46 124.335 123.459 121.059C129.627 118.173 136.119 117.193 142.764 119.143C148.277 120.761 150.929 124.278 151.092 130.088C151.239 135.384 151.129 140.687 151.136 145.986C151.136 146.876 151.045 147.688 149.91 147.819C143.559 148.554 137.194 149.379 130.862 147.738C124.691 146.137 122.607 141.556 124.528 135.464C125.706 131.715 129.046 130.497 132.522 130.135C135.704 129.802 138.944 129.926 142.153 129.977C144.196 130.007 144.574 129.628 143.873 127.684C143.135 125.644 141.565 124.597 139.515 124.238C130.438 122.653 123.259 125.812 118.266 133.437C115.722 137.327 113.802 141.64 111.761 145.842C111.113 147.174 110.462 147.953 108.923 147.775C108.212 147.694 107.48 147.782 106.759 147.788C105.046 147.799 103.703 147.08 102.952 145.543C99.5826 138.636 96.2499 131.712 92.9373 124.778C92.5833 124.036 92.3763 123.19 92.2627 122.372C92.049 120.794 93.0642 119.532 94.6303 119.277C97.422 118.821 98.2502 119.351 99.3388 121.902C101.593 127.178 103.917 132.427 106.225 137.679C106.532 138.381 106.923 139.049 107.497 140.17V140.16ZM139.121 134.572C137.554 134.652 136.332 134.692 135.117 134.786C134.679 134.82 134.245 134.961 133.821 135.088C131.751 135.716 130.595 137.216 130.612 139.237C130.629 141.19 131.721 142.784 133.915 143.016C136.973 143.338 140.082 143.217 143.171 143.224C144.13 143.224 144.48 142.573 144.467 141.643C144.44 139.915 144.55 138.179 144.404 136.464C144.357 135.938 143.722 135.139 143.235 135.031C141.782 134.716 140.269 134.679 139.117 134.568L139.121 134.572Z" fill="white"/>
<path d="M214.316 137.827C214.316 140.559 214.309 143.291 214.323 146.026C214.326 146.946 214.166 147.698 213.054 147.825C206.756 148.544 200.451 149.359 194.18 147.735C191.034 146.919 188.162 145.419 187.494 141.928C186.259 135.474 188.329 131.168 195.729 130.145C198.942 129.702 202.254 129.937 205.52 129.977C207.464 130 207.844 129.641 207.18 127.775C206.485 125.832 205.026 124.755 203.046 124.271C199.172 123.328 195.439 123.855 191.772 125.245C190.874 125.584 189.939 126.325 189.161 125.04C188.403 123.788 187.748 122.311 188.96 121.207C190.092 120.177 191.592 119.274 193.068 118.952C197.496 117.978 201.967 117.757 206.395 119.217C211.364 120.858 214.172 124.513 214.306 129.796C214.373 132.471 214.319 135.149 214.319 137.827H214.316ZM207.594 139.149C207.594 138.203 207.707 137.236 207.547 136.317C207.464 135.84 206.903 135.075 206.552 135.072C203.256 135.041 199.927 134.911 196.668 135.307C194.717 135.545 193.849 137.31 193.903 139.331C193.953 141.23 194.884 142.586 196.941 142.962C199.159 143.365 201.466 143.674 203.697 143.503C208.178 143.164 207.561 143.701 207.594 139.146V139.149Z" fill="white"/>
<path d="M225.416 136.803C226.037 140.116 228.552 142.301 231.988 142.65C234.94 142.952 237.852 142.895 240.614 141.472C242.3 140.603 243.883 141.173 244.581 142.667C245.242 144.083 244.741 145.698 243.155 146.48C237.919 149.057 228.993 150.014 223.319 145.459C218.684 141.737 217.358 136.699 218.193 131.061C219.025 125.436 222.13 121.361 227.51 119.405C232.569 117.562 237.585 117.747 242.17 120.902C244.938 122.808 245.953 125.627 245.683 128.92C245.419 132.121 243.546 134.112 240.667 135.189C239.321 135.693 237.912 136.169 236.5 136.307C233.521 136.595 230.519 136.659 227.527 136.803C226.879 136.834 226.228 136.807 225.42 136.807L225.416 136.803ZM229.216 132.048C229.24 132.165 229.26 132.283 229.283 132.4C231.821 131.903 234.386 131.514 236.887 130.87C238.35 130.494 239.168 129.292 239.154 127.721C239.141 126.188 238.326 125.1 236.987 124.416C232.506 122.116 226.642 124.731 225.339 129.604C224.772 131.725 224.996 132.021 227.22 132.048C227.884 132.058 228.552 132.048 229.216 132.048Z" fill="white"/>
<path d="M183.669 137.545C183.669 140.388 183.625 143.231 183.689 146.073C183.719 147.402 183.171 147.809 181.909 147.812C178.656 147.819 176.993 146.224 176.98 142.908C176.967 139.287 177 135.662 176.967 132.041C176.91 126.023 172.155 122.851 166.555 125.063C164.704 125.795 163.549 127.171 163.105 129.071C162.818 130.309 162.654 131.598 162.634 132.87C162.571 136.438 162.651 140.005 162.591 143.57C162.541 146.607 159.629 148.661 156.75 147.688C156.379 147.564 155.955 146.892 155.952 146.469C155.915 140.62 155.798 134.759 156.022 128.916C156.142 125.795 157.775 123.204 160.256 121.24C165.362 117.206 174.783 117.33 179.735 121.519C182.196 123.6 183.582 126.255 183.642 129.514C183.692 132.189 183.652 134.864 183.652 137.538C183.659 137.538 183.665 137.538 183.672 137.538L183.669 137.545Z" fill="white"/>
<path d="M52.5817 107.074C51.4396 102.147 48.2472 98.9282 44.0296 96.6728C38.0755 93.4877 31.6539 92.4977 24.9785 93.0212C20.0429 93.4106 15.3378 94.6457 11.0801 97.2602C7.61718 99.3847 4.86555 102.123 3.80363 106.235C3.73017 106.52 3.49307 106.765 3.18919 107.258C1.67646 104.933 1.80002 102.62 2.4946 100.405C3.8771 95.9781 7.08288 93.0078 11.1135 91.1182C23.3656 85.3656 35.5376 85.4697 47.2721 92.5144C51.5832 95.1021 54.3716 98.9484 53.8339 104.409C53.7471 105.295 53.3931 106.158 53.1627 107.03C52.969 107.044 52.7754 107.06 52.5817 107.074Z" fill="white"/>
<path d="M46.8475 168.872C41.8485 169.503 37.7811 167.691 34.0544 164.409C30.2509 161.056 26.0266 160.895 22.4301 164.137C18.3427 167.822 13.7845 169.43 8.38472 168.883C7.78029 168.822 7.16251 168.876 6.55141 168.876C4.74148 168.876 3.83762 167.958 3.83985 166.124C3.84207 164.349 4.74481 163.461 6.54807 163.459C7.60331 163.459 8.66856 163.378 9.71378 163.472C13.1901 163.784 16.0085 162.616 18.6866 160.331C24.8611 155.065 31.4931 155.199 37.6676 160.525C40.0185 162.553 42.5397 163.737 45.7021 163.482C47.3584 163.348 49.0348 163.489 50.7044 163.456C51.7563 163.435 52.2172 163.885 52.2205 164.946C52.2339 169.795 52.4576 168.768 48.6808 168.872C48.0697 168.889 47.4586 168.872 46.8475 168.872Z" fill="white"/>
<path d="M48.4277 106.047C50.822 108.668 51.0825 112.091 49.1924 115.142C47.1855 118.381 44.0765 120.257 40.6436 121.486C31.7109 124.677 22.748 124.647 14.0223 120.811C11.7047 119.794 9.52748 118.102 7.76096 116.26C4.86574 113.249 4.98929 108.688 7.67414 106.131C7.80437 106.292 8.03145 106.439 8.04147 106.604C8.36539 111.236 11.3741 113.79 15.2011 115.441C23.9702 119.223 32.7928 119.17 41.4918 115.156C45.0449 113.514 47.653 110.98 48.1038 106.795C48.1238 106.594 48.2674 106.409 48.431 106.043L48.4277 106.047Z" fill="white"/>
<path d="M46.8419 158.797C41.8863 159.344 37.7521 157.639 33.9653 154.471C30.2519 151.36 25.8373 151.286 22.2241 154.407C18.3004 157.797 13.9358 159.217 8.86666 158.814C8.36909 158.774 7.86819 158.807 7.36728 158.807C3.68731 158.807 3.73406 158.807 3.82088 155.135C3.85094 153.8 4.41195 153.363 5.64751 153.41C6.97992 153.461 8.319 153.333 9.64473 153.434C13.1644 153.709 16.1698 152.682 18.818 150.306C21.8801 147.56 25.5301 146.567 29.6308 146.966C32.2155 147.218 34.5931 147.99 36.4698 149.718C39.6756 152.668 43.3489 153.88 47.6266 153.42C47.9572 153.383 48.2912 153.417 48.6251 153.417C52.5154 153.417 52.4887 153.42 52.2283 157.33C52.1548 158.418 51.6739 158.814 50.6688 158.8C49.3898 158.787 48.1142 158.797 46.8352 158.797H46.8419Z" fill="white"/>
<path d="M46.928 148.722C42.0659 149.232 37.9151 147.684 34.0748 144.694C30.4115 141.838 25.8065 141.724 22.3202 144.513C18.2562 147.768 13.7915 149.151 8.68564 148.725C8.18807 148.685 7.68717 148.718 7.18626 148.718C3.95376 148.718 2.92858 147.345 3.95042 144.207C4.08066 143.805 4.822 143.378 5.29952 143.355C7.18292 143.254 9.07634 143.284 10.9664 143.308C13.7381 143.341 16.1424 142.479 18.3731 140.781C24.7546 135.927 31.1228 135.867 37.511 140.646C39.9955 142.506 42.6403 143.432 45.7125 143.318C47.3755 143.254 49.0451 143.338 50.7115 143.305C51.7701 143.284 52.1641 143.761 52.2309 144.805C52.478 148.688 52.4747 148.718 48.5943 148.718C48.04 148.718 47.4823 148.718 46.928 148.718V148.722Z" fill="white"/>
<path d="M46.4772 138.498C41.7854 139.119 37.7949 137.518 34.0014 134.86C30.2746 132.249 26.1105 132.064 22.4472 134.692C18.1728 137.757 13.6179 138.941 8.50535 138.502C8.06456 138.465 7.61708 138.498 7.17295 138.498C3.85028 138.498 3.05218 137.498 3.94045 134.179C4.064 133.716 4.94893 133.212 5.51329 133.165C7.22304 133.028 8.95617 133.031 10.6726 133.122C13.6213 133.279 16.2427 132.558 18.6203 130.745C22.3737 127.883 26.6715 126.926 31.213 128.013C33.4237 128.544 35.6043 129.588 37.5244 130.829C39.912 132.373 42.3331 133.269 45.1749 133.125C46.9481 133.034 48.728 133.135 50.5045 133.105C51.6532 133.085 52.2009 133.494 52.2476 134.749C52.3812 138.498 52.4213 138.498 48.6478 138.498C47.9265 138.498 47.2052 138.498 46.4839 138.498H46.4772Z" fill="white"/>
<path d="M28.1128 98.5959C32.6043 98.1361 35.9436 101.952 35.9303 106.154C35.9203 110.776 32.4273 114.89 28.1262 114.88C23.4978 114.867 20.3254 111.145 20.1184 106C19.9615 102.08 23.4277 98.126 28.1095 98.5959H28.1128Z" fill="white"/>
<path d="M81.7871 134.226C81.7871 130.487 81.7938 126.751 81.7871 123.013C81.7871 121.626 81.8506 120.026 83.36 119.66C84.8426 119.304 86.4956 119.532 88.0518 119.7C88.3456 119.73 88.753 120.673 88.7564 121.197C88.7998 128.95 88.8131 136.706 88.763 144.459C88.7463 146.731 87.5943 147.725 85.2701 147.792C82.9481 147.859 81.7871 146.74 81.7871 144.436C81.7871 141.032 81.7871 137.629 81.7871 134.226Z" fill="white"/>
<path d="M81.5768 164.365C81.5768 163.304 81.4866 162.237 81.5935 161.19C81.884 158.377 84.2817 156.85 86.8797 157.941C87.9683 158.398 88.7765 158.341 89.8317 157.911C92.3095 156.894 94.6804 158.206 95.011 160.888C95.2815 163.086 95.2181 165.338 95.1179 167.56C95.0979 167.983 94.263 168.574 93.7087 168.715C92.8271 168.94 92.216 168.446 92.2093 167.436C92.2026 165.929 92.2394 164.422 92.1759 162.918C92.1359 161.992 92.5433 160.572 91.0673 160.559C89.4777 160.549 89.9185 162.032 89.8684 163.002C89.7983 164.392 89.8417 165.791 89.8384 167.184C89.8384 168.188 89.4043 168.738 88.3423 168.762C87.217 168.785 86.8997 168.134 86.8964 167.171C86.8864 165.61 86.9098 164.046 86.863 162.486C86.8363 161.606 86.873 160.505 85.6007 160.532C84.4052 160.559 84.5421 161.616 84.5288 162.432C84.5054 163.882 84.5054 165.332 84.5221 166.782C84.5355 167.872 84.4687 168.795 82.9827 168.775C81.4499 168.758 81.52 167.735 81.52 166.704C81.52 165.922 81.52 165.144 81.52 164.362C81.5367 164.362 81.5534 164.362 81.5701 164.362L81.5768 164.365Z" fill="white"/>
<path d="M160.6 164.62C160.6 165.456 160.594 166.288 160.6 167.124C160.61 168.07 160.366 168.742 159.224 168.775C158.109 168.805 157.521 168.376 157.595 167.228C157.695 165.701 156.68 165.748 155.621 165.728C154.529 165.704 153.745 165.902 153.861 167.258C153.952 168.288 153.494 168.789 152.405 168.778C151.277 168.768 150.983 168.147 150.99 167.178C151.003 165.452 150.933 163.724 151.016 162.002C151.146 159.324 152.99 157.629 155.691 157.582C158.523 157.532 160.356 159.159 160.563 161.952C160.627 162.838 160.574 163.731 160.574 164.62C160.58 164.62 160.587 164.62 160.594 164.62H160.6ZM155.745 163.664C156.513 162.959 157.374 162.549 157.471 161.999C157.665 160.915 156.783 160.448 155.778 160.445C154.663 160.442 153.881 161.073 154.012 162.167C154.068 162.637 154.947 163.006 155.741 163.664H155.745Z" fill="white"/>
<path d="M113.582 163.321C113.582 161.985 113.606 160.65 113.576 159.314C113.552 158.253 114.03 157.787 115.078 157.817C116.02 157.847 116.965 157.793 117.907 157.83C121.076 157.961 123.033 159.841 123.216 162.892C123.403 166.006 121.77 168.027 118.611 168.591C113.883 169.433 113.572 169.181 113.572 164.486C113.572 164.097 113.572 163.707 113.572 163.318H113.582V163.321ZM116.531 162.908C116.531 165.664 116.624 165.879 117.807 165.855C119.269 165.828 120.204 164.808 120.211 163.234C120.218 161.613 119.226 160.562 117.636 160.626C115.77 160.7 116.865 162.217 116.528 162.908H116.531Z" fill="white"/>
<path d="M104.452 157.824C105.287 157.824 106.118 157.834 106.953 157.82C107.845 157.807 108.456 158.045 108.469 159.116C108.483 160.25 107.865 160.549 106.886 160.536C105.998 160.525 105.106 160.522 104.225 160.603C103.968 160.626 103.741 160.948 103.5 161.133C103.751 161.368 103.978 161.757 104.258 161.804C104.963 161.922 105.741 161.74 106.402 161.952C106.853 162.096 107.487 162.747 107.441 163.093C107.374 163.58 106.836 164.187 106.352 164.382C105.771 164.617 105.023 164.388 104.382 164.519C104.048 164.586 103.784 164.989 103.487 165.241C103.771 165.452 104.038 165.815 104.342 165.845C105.277 165.939 106.225 165.919 107.17 165.922C108.065 165.922 108.489 166.335 108.473 167.251C108.459 168.158 108.192 168.772 107.15 168.765C105.374 168.752 103.594 168.755 101.817 168.765C100.769 168.772 100.301 168.228 100.301 167.211C100.301 164.59 100.311 161.972 100.291 159.351C100.284 158.31 100.729 157.797 101.787 157.824C102.675 157.847 103.564 157.827 104.452 157.827V157.824Z" fill="white"/>
<path d="M135.154 163.167C135.174 160.539 136.543 158.626 138.931 157.884C141.395 157.119 144.147 157.908 145.483 159.888C145.84 160.418 145.85 161.18 146.02 161.834C145.225 161.871 144.424 161.982 143.639 161.908C143.325 161.878 143.062 161.425 142.761 161.18C141.505 160.163 139.809 160.186 138.831 161.227C137.912 162.207 137.899 164.237 138.804 165.234C139.842 166.375 141.499 166.382 142.818 165.248C143.068 165.033 143.299 164.64 143.562 164.62C144.361 164.556 145.172 164.637 145.977 164.66C145.793 165.355 145.783 166.171 145.396 166.721C144.02 168.688 141.242 169.399 138.801 168.554C136.443 167.738 135.131 165.805 135.151 163.17L135.154 163.167Z" fill="white"/>
<path d="M85.3167 115.656C83.0526 115.649 81.2761 113.914 81.256 111.689C81.236 109.443 83.1561 107.574 85.4269 107.621C87.6576 107.668 89.4441 109.504 89.4007 111.705C89.3573 113.92 87.5541 115.662 85.3167 115.656Z" fill="white"/>
<path d="M255.001 138.414C255.001 140.777 253.388 142.439 251.097 142.445C248.749 142.452 246.976 140.663 247.016 138.331C247.056 136.102 248.866 134.353 251.097 134.387C253.425 134.424 255.001 136.048 255.001 138.414Z" fill="white"/>
<path d="M165.695 163.163C165.695 161.881 165.715 160.599 165.688 159.314C165.668 158.247 166.159 157.814 167.208 157.82C168.279 157.827 168.7 158.341 168.687 159.371C168.67 160.989 168.724 162.606 168.687 164.224C168.657 165.432 169.158 165.976 170.37 165.916C171.091 165.879 171.879 165.755 172.514 166C173.038 166.201 173.713 166.892 173.703 167.352C173.693 167.829 172.968 168.651 172.5 168.691C170.68 168.849 168.84 168.768 167.007 168.748C165.995 168.738 165.695 168.07 165.695 167.181C165.695 165.842 165.695 164.503 165.695 163.167V163.163Z" fill="white"/>
<path d="M130.586 163.314C130.586 164.647 130.576 165.983 130.593 167.315C130.606 168.265 130.212 168.742 129.22 168.772C128.192 168.802 127.647 168.416 127.647 167.345C127.651 164.623 127.654 161.902 127.641 159.18C127.637 158.179 128.142 157.807 129.093 157.824C129.998 157.84 130.599 158.106 130.586 159.149C130.569 160.539 130.583 161.928 130.586 163.318V163.314Z" fill="white"/>
</g>
<defs>
<clipPath id="clip0_762_431">
<rect width="253" height="82" fill="white" transform="translate(2 87)"/>
</clipPath>
</defs>
</svg>
