<?xml version="1.0" encoding="UTF-8" standalone="no"?>
<svg
   xmlns:dc="http://purl.org/dc/elements/1.1/"
   xmlns:cc="http://creativecommons.org/ns#"
   xmlns:rdf="http://www.w3.org/1999/02/22-rdf-syntax-ns#"
   xmlns:svg="http://www.w3.org/2000/svg"
   xmlns="http://www.w3.org/2000/svg"
   id="svg5782"
   version="1.1"
   viewBox="0 0 25.399999 25.400001"
   height="96"
   width="96">
  <defs
     id="defs5776">
    <clipPath
       id="clipPath20-8"
       clipPathUnits="userSpaceOnUse">
      <path
         id="path18-0-9"
         d="m 541.781,371.848 v 0 h 0.043 z" />
    </clipPath>
  </defs>
  <metadata
     id="metadata5779">
    <rdf:RDF>
      <cc:Work
         rdf:about="">
        <dc:format>image/svg+xml</dc:format>
        <dc:type
           rdf:resource="http://purl.org/dc/dcmitype/StillImage" />
        <dc:title></dc:title>
      </cc:Work>
    </rdf:RDF>
  </metadata>
  <g
     transform="translate(0,-271.59998)"
     id="layer1">
    <rect
       y="271.59998"
       x="0"
       height="25.4"
       width="25.4"
       id="rect6729"
       style="opacity:1;vector-effect:none;fill:none;fill-opacity:1;stroke:none;stroke-width:0.52916676;stroke-linecap:butt;stroke-linejoin:miter;stroke-miterlimit:4;stroke-dasharray:1.05833345, 2.11666688;stroke-dashoffset:0;stroke-opacity:1;paint-order:stroke markers fill" />
    <g
       style="fill:#707374;fill-opacity:1;stroke:none"
       transform="matrix(0.50871062,0,0,0.50871062,-120.60149,197.95095)"
       id="g6708">
      <path
         class="st0"
         d="m 238.1114,177.50834 c 0.66146,-0.0529 1.21708,-0.21166 1.53458,-0.52916 0.39688,-0.37042 0.55563,-0.92604 0.55563,-2.59292 v -5.76792 h 1.42875 v 6.24417 c 0,1.32292 -0.23813,2.19604 -0.92604,2.83104 -0.635,0.55563 -1.66688,0.76729 -2.40771,0.76729 z m 2.77812,-10.16 c -0.52916,0 -0.89958,-0.37041 -0.89958,-0.8202 0,-0.4498 0.37042,-0.79375 0.92604,-0.79375 0.55563,0 0.89959,0.34395 0.89959,0.79375 0,0.44979 -0.34396,0.8202 -0.92605,0.8202 z"
         id="path4-6"
         style="fill:#707374;fill-opacity:1;stroke:none;stroke-width:0.26458332" />
      <path
         class="st0"
         d="m 250.46744,173.61897 c 0,0.71437 0.0265,1.32292 0.0529,1.87854 h -1.27 l -0.0794,-1.11125 h -0.0265 c -0.34396,0.55563 -1.19062,1.27 -2.56646,1.27 -1.21708,0 -2.69875,-0.60854 -2.69875,-3.01625 v -4.02167 h 1.42875 v 3.78355 c 0,1.29645 0.47625,2.19604 1.74625,2.19604 0.9525,0 1.61396,-0.58209 1.87854,-1.13771 0.0794,-0.15875 0.1323,-0.39688 0.1323,-0.635 v -4.20688 h 1.42875 z"
         id="path6-6"
         style="fill:#707374;fill-opacity:1;stroke:none;stroke-width:0.26458332" />
      <path
         class="st0"
         d="m 253.48369,168.61834 1.11125,1.45521 c 0.29104,0.39688 0.52917,0.74084 0.79375,1.11125 h 0.0529 c 0.26458,-0.39687 0.50271,-0.74083 0.79375,-1.11125 l 1.08479,-1.45521 h 1.53458 l -2.67229,3.3073 2.72521,3.54541 h -1.61396 l -1.13771,-1.53458 c -0.3175,-0.39688 -0.55562,-0.76729 -0.84666,-1.19063 h -0.0265 c -0.26459,0.42334 -0.52917,0.7673 -0.82021,1.19063 l -1.13771,1.53458 h -1.56104 l 2.77812,-3.4925 -2.64583,-3.36021 z"
         id="path8-4"
         style="fill:#707374;fill-opacity:1;stroke:none;stroke-width:0.26458332" />
      <path
         class="st0"
         d="m 262.21494,166.97793 v 1.64041 h 2.03729 v 0.9525 h -2.03729 v 3.70417 c 0,0.84667 0.26458,1.32292 1.05833,1.32292 0.39688,0 0.60855,-0.0265 0.82021,-0.0794 l 0.0529,0.9525 c -0.26458,0.0794 -0.71437,0.15875 -1.27,0.15875 -0.66146,0 -1.19062,-0.21167 -1.53458,-0.52917 -0.39688,-0.37042 -0.55563,-1.00542 -0.55563,-1.79917 v -3.73062 h -1.21708 v -0.9525 h 1.21708 v -1.27 z"
         id="path10-6"
         style="fill:#707374;fill-opacity:1;stroke:none;stroke-width:0.26458332" />
      <path
         class="st0"
         d="m 271.31661,173.83064 c 0,0.60854 0.0265,1.19062 0.10583,1.64041 h -1.27 l -0.13229,-0.87312 h -0.0529 c -0.42333,0.52916 -1.27,1.03187 -2.38125,1.03187 -1.5875,0 -2.38125,-0.97896 -2.38125,-1.98437 0,-1.66688 1.66687,-2.56646 4.68312,-2.56646 v -0.10583 c 0,-0.55563 -0.1852,-1.61396 -1.7727,-1.5875 -0.74084,0 -1.50813,0.1852 -2.0373,0.5027 l -0.3175,-0.84666 c 0.635,-0.34396 1.5875,-0.60854 2.56646,-0.60854 2.40771,0 2.98979,1.42875 2.98979,2.80458 z m -1.37584,-1.85209 c -1.53458,-0.0265 -3.30729,0.21167 -3.30729,1.53459 0,0.8202 0.60854,1.19062 1.32292,1.19062 1.03187,0 1.69333,-0.55562 1.905,-1.13771 0.0529,-0.13229 0.0529,-0.26458 0.0529,-0.39687 v -1.19063 z"
         id="path12-28"
         style="fill:#707374;fill-opacity:1;stroke:none;stroke-width:0.26458332" />
      <path
         class="st1"
         d="m 278.06348,167.98334 c -0.66146,0.29105 -1.61396,0.3175 -2.56646,0.10584 -0.9525,-0.21167 -1.93145,-0.635 -2.43416,-1.56104 -0.52917,-0.89959 -0.58209,-2.06375 -0.635,-3.01625 0,-0.9525 -0.0265,-1.69334 0.15875,-2.09021 0.21166,-0.37042 0.79375,-0.50271 1.79916,-0.3175 0.97896,0.18521 2.38125,0.635 3.43959,1.61396 1.08479,0.9525 1.42875,2.24895 1.40229,3.22791 -0.0265,1.00542 -0.50271,1.74625 -1.16417,2.03729"
         id="path14-96"
         style="fill:#707374;fill-opacity:1;stroke:none;stroke-width:0.26458332" />
      <path
         class="st2"
         d="m 275.31182,167.40126 c 0.47625,-0.55562 1.42875,-1.08479 2.59291,-1.05833 1.11125,0 2.46063,0.55562 2.77813,1.95791 0.39687,1.37584 -0.3175,2.9898 -0.9525,3.91584 -0.68792,0.97896 -1.32292,1.27 -1.74625,1.19062 -0.44979,-0.10583 -1.00542,-0.34396 -1.905,-0.52916 -0.84667,-0.21167 -1.98438,-0.34396 -2.43417,-0.89959 -0.52917,-0.52916 -0.15875,-1.45521 0.26458,-2.32833 0.4498,-0.87313 0.92605,-1.66688 1.4023,-2.24896"
         id="path16-0"
         style="fill:#707374;fill-opacity:1;stroke:none;stroke-width:0.26458332" />
      <path
         class="st0"
         d="m 285.92161,166.7398 c 0.15875,0.3175 -0.10584,0.74084 -1.08479,1.29646 -0.92605,0.50271 -2.51355,1.13771 -4.07459,0.97896 -1.5875,-0.10583 -2.54,-1.13771 -2.8575,-2.11667 -0.34396,-1.00541 -0.0794,-1.98437 0.44979,-2.59291 0.55563,-0.60855 1.4023,-1.19063 2.30188,-1.61396 0.89958,-0.39688 1.87854,-0.635 2.59292,-0.0265 0.74083,0.55563 1.19062,1.64042 1.64041,2.40771 0.42333,0.84667 0.87313,1.32292 1.03188,1.66687"
         id="path18-70"
         style="fill:#707374;fill-opacity:1;stroke:none;stroke-width:0.26458332" />
    </g>
  </g>
</svg>
