<?xml version="1.0" encoding="UTF-8" standalone="no"?>
<svg
   xmlns:dc="http://purl.org/dc/elements/1.1/"
   xmlns:cc="http://creativecommons.org/ns#"
   xmlns:rdf="http://www.w3.org/1999/02/22-rdf-syntax-ns#"
   xmlns:svg="http://www.w3.org/2000/svg"
   xmlns="http://www.w3.org/2000/svg"
   id="svg5782"
   version="1.1"
   viewBox="0 0 25.399999 25.400001"
   height="96"
   width="96">
  <defs
     id="defs5776">
    <clipPath
       id="clipPath20-8"
       clipPathUnits="userSpaceOnUse">
      <path
         id="path18-0-9"
         d="m 541.781,371.848 v 0 h 0.043 z" />
    </clipPath>
  </defs>
  <metadata
     id="metadata5779">
    <rdf:RDF>
      <cc:Work
         rdf:about="">
        <dc:format>image/svg+xml</dc:format>
        <dc:type
           rdf:resource="http://purl.org/dc/dcmitype/StillImage" />
        <dc:title></dc:title>
      </cc:Work>
    </rdf:RDF>
  </metadata>
  <g
     transform="translate(0,-271.59998)"
     id="layer1">
    <rect
       y="271.59998"
       x="0"
       height="25.4"
       width="25.4"
       id="rect6729"
       style="opacity:1;vector-effect:none;fill:none;fill-opacity:1;stroke:none;stroke-width:0.52916676;stroke-linecap:butt;stroke-linejoin:miter;stroke-miterlimit:4;stroke-dasharray:1.05833345, 2.11666688;stroke-dashoffset:0;stroke-opacity:1;paint-order:stroke markers fill" />
    <path
       id="path6396"
       d="m 11.95875,287.3758 c 0.36331,-0.11222 0.659426,-0.34577 0.850498,-0.6708 l 0.132775,-0.22586 0.01518,-1.22758 0.01518,-1.22757 -0.125071,-0.25562 c -0.27407,-0.56019 -0.843839,-0.90675 -1.538418,-0.93574 l -0.423045,-0.0176 -0.327236,0.15295 c -1.5243716,0.71251 -1.1978146,3.12397 0.423045,3.12397 0.555859,0 0.53245,0.0292 0.53245,-0.6644 v -0.59482 l -0.213304,0.017 c -0.278359,0.0222 -0.415954,-0.10217 -0.415954,-0.37579 0,-0.33357 0.374974,-0.50946 0.636002,-0.29832 l 0.114272,0.0924 0.01511,0.8732 c 0.01019,0.58983 -0.0027,0.90674 -0.04021,0.97657 -0.125596,0.23469 -0.733495,0.31092 -1.330262,0.16683 -0.4400616,-0.10626 -0.4114456,-0.13976 -0.4114456,0.48158 v 0.55322 l 0.2541296,0.0493 c 0.139765,0.0272 0.297687,0.0589 0.350932,0.0704 0.301056,0.0655 1.190963,0.0276 1.485381,-0.0633 z m -4.4932356,-1.19367 0.224575,-0.0308 v -0.62565 -0.62565 l -0.21628,0.0324 -0.216279,0.0324 -0.146757,-0.14676 c -0.298986,-0.29898 -0.127601,-0.73506 0.288886,-0.73506 0.145704,0 0.229409,0.0314 0.316829,0.11881 l 0.118813,0.11881 v 0.8977 0.89769 h 0.682888 0.682888 l -0.0239,-0.9076 c -0.02643,-1.00582 -0.07767,-1.25267 -0.341131,-1.64412 -0.58355,-0.86705 -1.947176,-1.01236 -2.671104,-0.28462 -1.06478,1.07036 -0.467588,2.78084 1.022215,2.92784 0.02956,0.003 0.154812,-0.009 0.278332,-0.0255 z m -5.729228,-1.02877 v -0.96273 l 0.08927,-0.11025 c 0.251174,-0.31018 0.346371,-0.003 0.346371,1.11918 v 0.91654 h 0.650697 0.650703 l 0.01485,-0.99068 c 0.01598,-1.06656 0.04574,-1.18962 0.270476,-1.1183 0.140957,0.0447 0.15444,0.14705 0.155172,1.17718 l 6.61e-4,0.9318 h 0.653468 0.653466 v -1.1198 c 0,-1.44674 -0.07203,-1.66346 -0.669632,-2.01476 l -0.225851,-0.13277 h -0.484052 c -0.486996,0 -0.618745,0.0379 -0.944936,0.27161 -0.05719,0.041 -0.132049,0.0164 -0.33456,-0.10942 l -0.260915,-0.16219 h -0.48832 -0.488327 l -0.221866,0.13044 c -0.60875097,0.35787 -0.67300097,0.54981 -0.67335397,2.01148 l -2.73e-4,1.12541 h 0.65346697 0.653466 z m 12.9967146,-0.65882 v -1.59737 l -0.665564,-0.0134 -0.66557,-0.0134 v 1.62429 1.6243 l 0.66557,-0.0134 0.665564,-0.0135 z m 1.766777,0.60506 c 0.02503,-1.02594 0.04021,-1.11332 0.193623,-1.11332 0.153401,0 0.168595,0.0874 0.193622,1.11332 l 0.02417,0.9923 0.665564,0.0134 0.665571,0.0135 v -0.98616 -0.98617 l 0.095,-0.086 c 0.262973,-0.23799 0.340639,0.0217 0.340639,1.13903 v 0.91655 h 0.656535 0.656536 l -0.01518,-1.19802 -0.01518,-1.19803 -0.128506,-0.21782 c -0.269771,-0.45726 -0.608951,-0.64617 -1.202828,-0.66993 l -0.411633,-0.0164 -0.332116,0.17311 -0.332123,0.17311 -0.136437,-0.0971 c -0.707343,-0.50368 -1.741017,-0.24781 -2.157923,0.53415 -0.09021,0.16921 -0.171398,2.25114 -0.0955,2.44894 0.02237,0.0584 0.141163,0.0685 0.669565,0.0575 l 0.642341,-0.0135 z m 5.230621,-0.60506 v -1.59737 l -0.654911,-0.0134 -0.654911,-0.0134 v 1.62429 1.6243 l 0.654911,-0.0134 0.654911,-0.0135 z m 1.473464,1.48985 c 0.106488,-0.055 0.232978,-0.14354 0.281082,-0.19673 l 0.08746,-0.0967 0.15456,0.14149 c 0.194568,0.17812 0.543502,0.28366 0.937824,0.28366 h 0.305851 v -0.55108 -0.55108 l -0.26537,-0.0331 c -0.661762,-0.0827 -0.642467,-0.9461 0.02117,-0.9461 h 0.244224 v -0.58086 -0.58086 h -0.281641 c -0.367838,0 -0.745742,0.11523 -0.941441,0.28706 l -0.156816,0.13768 -0.169241,-0.1414 c -0.211133,-0.17642 -0.561452,-0.28334 -0.928296,-0.28334 h -0.281642 v 0.58086 0.58086 h 0.23666 c 0.353841,0 0.46521,0.11008 0.46521,0.45985 0,0.33392 -0.101628,0.44109 -0.463799,0.48914 l -0.238071,0.0316 v 0.55648 0.55649 l 0.399336,-0.0219 c 0.274384,-0.015 0.45993,-0.0532 0.592964,-0.12194 z m -8.933529,-3.35261 c 0.09128,-0.0262 0.238585,-0.11798 0.32735,-0.20402 0.647906,-0.62797 -0.138568,-1.63824 -0.924549,-1.18763 -0.752818,0.43159 -0.238031,1.6312 0.597199,1.39165 z m 7.245783,-0.10159 c 0.213763,-0.13212 0.376266,-0.47696 0.342696,-0.72724 -0.09829,-0.73277 -1.144417,-0.92443 -1.456473,-0.26683 -0.339366,0.71518 0.439804,1.41061 1.113777,0.99407 z"
       style="fill:#707374;fill-opacity:1;stroke-width:0.04840491" />
  </g>
</svg>
