<svg width="256" height="256" viewBox="0 0 256 256" fill="none" xmlns="http://www.w3.org/2000/svg">
<path d="M17.7262 111.014L17.216 111L14.9205 113.061L13.2627 114.35L13.2663 115.428L18.9406 120.49L23.3373 124.601L25.1092 126.058L26.0887 127.017L22.2548 130.614L19.384 133.07L19.3843 133.651L23.454 137.344L24.5598 136.757L30.4789 131.383L33.7607 128.336L34.9423 127.123L34.9408 126.817L31.7541 123.694L29.4721 121.756L25.6328 118.165L23.3508 116.188L19.5115 112.593L17.7262 111.014Z" fill="white"/>
<path d="M13.3903 139.649L17.1664 142.888H17.9081L21.6796 139.259V138.698L20.7869 137.928L16.706 134.202L11.6233 129.601L8.92693 127.123L8.94544 126.564L10.8046 125.164L15.3032 120.872V120.415L11.4241 116.947L10.7241 116.785L9.31259 118.212L7.6699 119.534L2.423 124.357L0 126.502V127.405L4.40206 131.372L8.72295 135.422L10.0045 136.434L13.3903 139.649Z" fill="white"/>
<path d="M12.4976 127.306L16.9611 131.477L17.6801 131.499L20.5318 128.835L22.1897 127.482L22.1735 126.817L21.0318 125.532L17.4994 122.641H17.0885L16.183 123.527L12.4976 126.764V127.306Z" fill="white"/>
<path d="M45.4327 143.367L44.9053 144H44.4941L43.6797 143.192L43.82 138.558L49.3037 138.415V139.444H45.7169L45.4149 140.225L45.7071 140.515L47.3908 140.857V141.595L45.6054 141.848L45.4327 143.367Z" fill="white"/>
<path fill-rule="evenodd" clip-rule="evenodd" d="M50.1433 142.734L48.7673 144L48.666 143.992L47.9009 143.509L49.6013 140.38L50.8596 138.402L52.4633 138.558L54.138 141.595L54.9148 143.302V143.747H53.3845V143.041L52.5776 142.734H50.1433ZM50.834 140.771L50.834 141.469H52.1436L51.7908 140.33L51.6115 140.131L50.834 140.771Z" fill="white"/>
<path fill-rule="evenodd" clip-rule="evenodd" d="M65.8484 142.36L66.3602 143.696L65.3586 143.956L63.8956 142.734H61.0705L60.7467 143.747H59.2985L59.5777 142.608L60.2059 141.848L61.1267 139.824L62.1111 138.404L63.7142 138.558L64.7627 140.617L65.8484 142.36ZM62.0727 141.037L62.3415 141.469H63.3315L63.3238 140.836L62.8118 140.077L62.0727 141.037Z" fill="white"/>
<path d="M79.7825 143.599L79.1448 143.774L79.1449 143.773L78.5072 143.948L76.4668 143.968L75.4466 143.549L74.2205 142.239L74.1714 139.895L75.9331 138.435L77.4986 138.144L79.7825 138.305V139.318L76.3923 139.466L75.6359 141.016L75.8919 141.987L77.1733 142.987H78.2777L78.8777 142.392L78.3173 141.722H77.3221L77.4914 140.836L79.7319 140.677L80.062 141.207L79.7825 143.599Z" fill="white"/>
<path fill-rule="evenodd" clip-rule="evenodd" d="M86.0192 143.561L85.7461 144L85.3936 143.968L84.2181 143.5L82.9252 141.975H82.2378L82.0779 143.62L80.6575 143.782L80.8027 138.305L84.5987 138.441L85.5212 139.27V140.71L84.4893 141.734L84.9638 142.614L86.0192 143.561ZM82.2055 140.372L82.3755 140.541V140.542L82.5455 140.71L83.0982 140.703L84.2459 140.398V139.685L82.8827 139.171L82.2055 139.428V140.372Z" fill="white"/>
<path fill-rule="evenodd" clip-rule="evenodd" d="M92.3486 143.031L90.7498 143.998H88.4543L86.829 143.015L86.2863 142.008V140.278L87.4398 138.58L88.7093 138.229L90.9261 138.179L92.3993 139.042L93.1728 140.66V141.391L92.3486 143.031ZM88.081 142.408L89.2194 142.965L90.7249 142.861L91.6952 141.206L91.3793 139.957L90.1144 139.134L88.3037 139.471L87.7828 140.831L88.081 142.408Z" fill="white"/>
<path d="M98.4808 143.434L97.2298 144H95.163L93.6831 142.428V138.145L95.0858 138.305L95.238 142.089L96.0575 142.987H97.1913L97.7405 142.331L97.8913 138.305H99.1665L99.3295 141.849L98.4808 143.434Z" fill="white"/>
<path d="M57.9953 141.342L57.8479 143.62L56.4452 143.78V141.514L53.6396 138.662V138.432H55.1921L56.5727 139.703L57.5164 140.001L59.1475 138.432H60.781V138.718L57.9953 141.342Z" fill="white"/>
<path d="M68.8152 139.571L68.667 143.747H67.4974L67.1573 143.409V139.444H65.372V138.432H70.473V139.412L68.8152 139.571Z" fill="white"/>
<path fill-rule="evenodd" clip-rule="evenodd" d="M101.834 142.481L101.543 143.114L101.543 143.115L101.253 143.747H100.298L100.039 143.077L100.187 138.306L103.247 138.291L104.574 138.912L105.402 140.166L104.836 141.777L103.136 142.481H101.834ZM101.367 140.753L101.644 141.469H102.751L103.885 140.681V140.167L103.186 139.474L101.765 139.318L101.367 140.753Z" fill="white"/>
<g clip-path="url(#clip0_762_433)">
<path d="M54.6787 125.465L55.9274 119.732L56.3621 117.882C56.4497 117.534 56.7691 115.846 56.8556 115.471L57.0286 115.31C60.309 115.31 61.2384 115.282 64.3435 115.229L64.5176 115.39C64.5753 117.025 64.6053 117.748 64.7206 120.669L64.9246 124.741C65.1853 130.102 65.3006 131.495 65.4758 134.066L65.3006 134.227C62.7177 134.2 62.2542 134.227 59.7578 134.308L59.6126 134.147C59.5549 129.941 59.5549 129.512 59.4385 126.028V120.589L57.6097 128.253C57.3192 129.512 56.8257 131.79 56.3333 134.067L56.1292 134.228C54.2717 134.201 53.8081 134.228 52.0659 134.31L51.8918 134.149C51.6589 133.103 51.6012 132.89 51.1376 131.068C50.9336 130.21 50.7306 129.379 50.5288 128.548L48.6701 120.856L48.5537 125.654C48.4672 131.281 48.4672 131.897 48.4672 134.067L48.3219 134.228C46.1161 134.228 45.4474 134.256 43.764 134.31L43.5898 134.149C43.7063 131.872 43.9092 128.254 44.0246 126.002L44.2575 120.108C44.2575 119.518 44.2863 118.929 44.3151 118.367C44.3739 116.705 44.3739 116.517 44.4027 115.473L44.5768 115.312C47.682 115.312 48.4949 115.312 52.0071 115.231L52.2112 115.392C52.4141 116.384 52.5006 116.732 53.2558 119.813L54.6776 125.468L54.6787 125.465Z" fill="white"/>
<path d="M78.7121 134.149C78.3916 132.353 78.1609 131.28 77.7827 129.566H73.1383C72.7313 131.066 72.3842 132.567 72.0936 134.069L71.9184 134.23C69.6549 134.23 68.872 134.23 66.7516 134.283L66.6074 134.15C67.1874 132.434 67.3039 132.033 68.2033 128.924L69.5374 124.449C69.9721 123.082 70.3791 121.744 70.7861 120.376C70.9902 119.679 72.006 116.223 72.2378 115.418L72.4119 115.285C75.9529 115.285 76.5041 115.285 79.4063 115.204L79.5815 115.365C79.668 115.713 79.7556 116.061 79.8721 116.41C81.1485 121.019 81.2361 121.34 82.0479 124.209L83.3554 128.924C83.646 129.97 84.0807 131.657 84.3713 132.702C84.4289 132.89 84.6907 133.801 84.7494 134.015L84.603 134.176C82.1655 134.203 81.6143 134.231 78.8862 134.283L78.7121 134.15V134.149ZM73.8358 125.815C74.8805 125.842 75.8975 125.815 76.9122 125.788L76.2745 122.787C75.8675 120.803 75.781 120.321 75.5481 118.848C75.2576 120.268 75.17 120.697 74.59 123.001L73.8358 125.815Z" fill="white"/>
<path d="M86.172 115.311C87.1878 115.311 92.0929 115.256 93.2252 115.256C94.9086 115.256 96.6209 115.337 97.812 115.927C100.133 117.052 100.307 119.759 100.307 120.938C100.307 124.207 98.5372 125.359 97.6667 125.922L98.8278 128.602C99.379 129.835 100.221 131.792 101.382 133.909L101.266 134.096C98.5672 134.177 97.8985 134.203 95.3156 134.338L95.1127 134.177C94.9962 133.882 94.8798 133.589 94.7922 133.267C94.3286 131.899 93.8639 130.507 93.3993 129.14L92.7328 127.183C92.4123 127.211 92.2104 127.211 91.891 127.211C91.891 130.507 91.891 131.659 92.0652 134.071L91.9199 134.231C89.2783 134.231 88.9877 134.231 86.2895 134.312L86.1154 134.151C86.1443 132.838 86.2607 126.38 86.2607 124.933C86.2607 123.218 86.2319 118.287 86.0566 115.473L86.1731 115.313L86.172 115.311ZM93.0222 123.537C94.3563 123.135 94.5016 121.876 94.5016 121.099C94.5016 120.777 94.4728 120.214 94.2111 119.732C94.0081 119.33 93.661 118.982 92.8182 118.982C92.5564 118.982 92.1805 118.982 91.9476 119.036C91.9476 120.295 91.8899 122.359 91.8611 123.618C92.5276 123.672 92.9058 123.565 93.0222 123.537Z" fill="white"/>
<path d="M109.188 134.228C106.403 134.201 105.734 134.228 103.267 134.31L103.122 134.176C103.181 130.316 103.21 126.458 103.21 122.599C103.21 119.276 103.151 117.374 103.064 115.471L103.239 115.31C105.821 115.337 106.431 115.337 109.131 115.229L109.305 115.39C109.246 116.837 109.159 119.088 109.159 123.108C109.159 126.778 109.188 130.423 109.334 134.094L109.188 134.227V134.228Z" fill="white"/>
<path d="M116.792 123.858L116.967 127.771C117.054 130.96 117.083 131.12 117.228 134.067L117.025 134.228C114.82 134.228 114.644 134.228 112.439 134.31L112.264 134.149C112.293 132.781 112.322 131.469 112.322 129.352C112.322 127.235 112.264 122.117 112.264 120.455C112.236 118.794 112.177 117.133 112.119 115.471L112.293 115.31C114.557 115.31 115.225 115.31 117.518 115.229L117.749 115.364C118.65 116.943 119.057 117.56 121.349 120.936L124.136 124.93L124.02 120.4C123.991 119.703 123.903 116.247 123.846 115.47L124.02 115.309C126.11 115.282 126.952 115.255 128.432 115.228L128.607 115.389C128.607 117.051 128.548 125.277 128.548 127.126C128.548 130.662 128.607 132.566 128.635 134.066L128.46 134.227C126.314 134.227 125.907 134.227 123.701 134.308L123.497 134.147C122.134 131.924 121.437 130.852 120.073 128.789L116.794 123.858H116.792Z" fill="white"/>
<path d="M137.689 134.228C134.904 134.201 134.235 134.228 131.769 134.31L131.623 134.176C131.681 130.316 131.711 126.458 131.711 122.599C131.711 119.276 131.652 117.374 131.564 115.471L131.74 115.31C134.323 115.337 134.932 115.337 137.632 115.229L137.806 115.39C137.747 116.837 137.661 119.088 137.661 123.108C137.661 126.778 137.689 130.423 137.835 134.094L137.689 134.227V134.228Z" fill="white"/>
<path d="M160.894 126.372C159.674 126.344 157.266 126.344 155.757 126.344V130.203C157.179 130.203 160.228 130.177 161.969 130.043L162.143 130.203C161.998 131.919 161.969 132.428 161.911 134.063L161.736 134.224H155.293C152.304 134.224 151.868 134.224 150.04 134.305L149.894 134.144C149.953 132.134 150.011 129.911 150.011 125.623C150.011 122.245 150.011 118.655 149.807 115.468L149.982 115.307C151.258 115.307 151.607 115.307 154.828 115.279C159.588 115.253 160.139 115.253 161.591 115.225L161.736 115.387C161.591 117.1 161.591 117.61 161.533 118.977L161.358 119.137C160.894 119.137 158.572 119.111 158.05 119.111C157.73 119.111 157.556 119.111 155.757 119.137C155.728 120.772 155.728 121.147 155.757 122.649C157.412 122.649 159.821 122.594 161.098 122.541L161.273 122.702C161.156 124.176 161.156 124.739 161.068 126.213L160.894 126.374V126.372Z" fill="white"/>
<path d="M164.435 115.304C165.451 115.304 170.355 115.25 171.489 115.25C173.171 115.25 174.885 115.331 176.075 115.92C178.397 117.045 178.571 119.753 178.571 120.932C178.571 124.2 176.801 125.353 175.929 125.916L177.091 128.596C177.642 129.828 178.483 131.785 179.645 133.902L179.529 134.09C176.83 134.169 176.162 134.197 173.578 134.33L173.375 134.169C173.259 133.875 173.142 133.581 173.056 133.259C172.592 131.891 172.127 130.499 171.663 129.133L170.995 127.176C170.676 127.203 170.473 127.203 170.154 127.203C170.154 130.499 170.154 131.652 170.328 134.063L170.182 134.224C167.541 134.224 167.252 134.224 164.552 134.305L164.378 134.144C164.407 132.83 164.523 126.373 164.523 124.926C164.523 123.211 164.494 118.28 164.32 115.468L164.436 115.307L164.435 115.304ZM171.285 123.531C172.62 123.128 172.765 121.87 172.765 121.093C172.765 120.771 172.735 120.207 172.475 119.725C172.271 119.323 171.924 118.976 171.082 118.976C170.82 118.976 170.443 118.976 170.211 119.03C170.211 120.289 170.152 122.353 170.124 123.612C170.791 123.665 171.168 123.558 171.285 123.531Z" fill="white"/>
<path d="M192.153 125.46L193.402 119.725L193.837 117.877C193.924 117.529 194.244 115.839 194.33 115.465L194.504 115.304C197.784 115.304 198.713 115.277 201.818 115.223L201.992 115.384C202.051 117.019 202.08 117.742 202.195 120.663L202.399 124.736C202.661 130.097 202.775 131.489 202.95 134.061L202.775 134.222C200.192 134.195 199.729 134.222 197.232 134.303L197.087 134.142C197.03 129.936 197.03 129.505 196.913 126.022V120.583L195.084 128.247C194.794 129.505 194.3 131.784 193.808 134.062L193.604 134.223C191.746 134.196 191.283 134.223 189.542 134.304L189.366 134.143C189.135 133.098 189.076 132.884 188.612 131.061C188.408 130.203 188.205 129.373 188.003 128.542L186.145 120.852L186.029 125.65C185.942 131.276 185.942 131.891 185.942 134.063L185.797 134.224C183.591 134.224 182.922 134.251 181.24 134.305L181.064 134.144C181.181 131.867 181.385 128.25 181.499 125.998L181.732 120.103C181.732 119.514 181.761 118.924 181.791 118.362C181.849 116.7 181.849 116.513 181.877 115.469L182.051 115.308C185.158 115.308 185.97 115.308 189.482 115.227L189.686 115.388C189.889 116.379 189.975 116.728 190.73 119.809L192.152 125.463L192.153 125.46Z" fill="white"/>
<path d="M219.699 116.992C222.253 119.457 222.312 123.477 222.312 124.897C222.312 126.076 222.224 127.256 221.933 128.434C221.643 129.692 221.12 130.899 220.25 131.917C218.015 134.543 214.678 134.57 213.719 134.57C212.76 134.57 209.54 134.543 207.306 131.971C206.173 130.631 205.244 128.434 205.244 125.004C205.244 123.529 205.332 119.509 207.857 117.044C209.89 115.062 212.473 114.927 213.778 114.927C214.852 114.927 217.608 114.982 219.699 116.991M215.868 120.608C215.752 120.26 215.288 118.786 213.807 118.786C213.343 118.786 212.878 118.974 212.53 119.268C211.95 119.778 211.543 120.742 211.369 122.564C211.31 123.207 211.281 123.984 211.281 124.869C211.281 125.593 211.31 126.316 211.369 127.013C211.457 127.817 211.66 129.478 212.618 130.227C212.937 130.469 213.372 130.63 213.779 130.63C214.214 130.63 214.621 130.469 214.94 130.227C215.841 129.53 216.073 127.977 216.189 127.013C216.248 126.288 216.276 125.566 216.276 124.842C216.276 124.333 216.248 121.921 215.869 120.608" fill="white"/>
<path d="M228.9 123.853L229.074 127.764C229.162 130.955 229.19 131.115 229.336 134.062L229.133 134.223C226.927 134.223 226.752 134.223 224.546 134.304L224.372 134.143C224.401 132.776 224.43 131.463 224.43 129.346C224.43 127.229 224.372 122.111 224.372 120.45C224.343 118.789 224.284 117.126 224.227 115.465L224.401 115.304C226.664 115.304 227.333 115.304 229.625 115.223L229.858 115.357C230.757 116.938 231.163 117.555 233.457 120.931L236.244 124.924L236.127 120.395C236.098 119.698 236.011 116.241 235.953 115.464L236.127 115.303C238.218 115.276 239.059 115.25 240.539 115.222L240.714 115.383C240.714 117.044 240.655 125.272 240.655 127.12C240.655 130.658 240.714 132.561 240.743 134.061L240.569 134.222C238.422 134.222 238.015 134.222 235.809 134.303L235.606 134.142C234.242 131.917 233.544 130.846 232.18 128.783L228.901 123.853H228.9Z" fill="white"/>
<path d="M251.706 134.223C249.064 134.223 248.542 134.223 245.959 134.304L245.814 134.17C245.93 131.41 245.988 119.834 245.988 119.191C245.262 119.218 244.537 119.218 243.782 119.218C243.144 119.244 242.563 119.244 241.983 119.272L241.838 119.111C241.924 117.664 241.954 117.128 241.983 115.467L242.157 115.305H249.327C250.402 115.305 251.474 115.278 252.577 115.278C253.652 115.252 255.016 115.252 255.857 115.224L256.002 115.385C255.857 116.993 255.828 117.369 255.769 119.057L255.595 119.218C253.651 119.163 253.129 119.163 251.764 119.137C251.764 120.209 251.736 121.495 251.736 123.424C251.736 126.801 251.736 130.74 251.881 134.089L251.707 134.223H251.706Z" fill="white"/>
<path d="M147.68 124.201C147.592 125.917 147.563 126.103 147.506 127.845L147.302 127.979C144.776 127.953 141.642 127.979 139.871 128.006L139.697 127.845C139.785 126.505 139.814 125.917 139.871 124.228L140.047 124.067H144.546C146.142 124.067 146.722 124.067 147.507 124.04L147.681 124.201H147.68Z" fill="white"/>
</g>
<defs>
<clipPath id="clip0_762_433">
<rect width="212.409" height="19.6429" fill="white" transform="translate(43.5918 114.929)"/>
</clipPath>
</defs>
</svg>
