<?xml version="1.0" encoding="UTF-8" standalone="no"?>
<svg
   xmlns:dc="http://purl.org/dc/elements/1.1/"
   xmlns:cc="http://creativecommons.org/ns#"
   xmlns:rdf="http://www.w3.org/1999/02/22-rdf-syntax-ns#"
   xmlns:svg="http://www.w3.org/2000/svg"
   xmlns="http://www.w3.org/2000/svg"
   xmlns:sodipodi="http://sodipodi.sourceforge.net/DTD/sodipodi-0.dtd"
   xmlns:inkscape="http://www.inkscape.org/namespaces/inkscape"
   id="svg5782"
   version="1.1"
   viewBox="0 0 25.399999 25.400001"
   height="96"
   width="96"
   sodipodi:docname="1_messageur.svg"
   inkscape:version="1.0.1 (1.0.1+r73)">
  <style
     id="style835"></style>
  <sodipodi:namedview
     pagecolor="#ffffff"
     bordercolor="#666666"
     borderopacity="1"
     objecttolerance="10"
     gridtolerance="10"
     guidetolerance="10"
     inkscape:pageopacity="0"
     inkscape:pageshadow="2"
     inkscape:window-width="2560"
     inkscape:window-height="1386"
     id="namedview10"
     showgrid="false"
     inkscape:zoom="3.0031426"
     inkscape:cx="3.3841718"
     inkscape:cy="59.065376"
     inkscape:window-x="1920"
     inkscape:window-y="0"
     inkscape:window-maximized="1"
     inkscape:current-layer="g12" />
  <defs
     id="defs5776">
    <clipPath
       id="clipPath20-8"
       clipPathUnits="userSpaceOnUse">
      <path
         id="path18-0-9"
         d="m 541.781,371.848 v 0 h 0.043 z" />
    </clipPath>
    <clipPath
       clipPathUnits="userSpaceOnUse"
       id="clipPath18">
      <path
         d="M 0,0 H 1280 V 800 H 0 Z"
         id="path16" />
    </clipPath>
  </defs>
  <metadata
     id="metadata5779">
    <rdf:RDF>
      <cc:Work
         rdf:about="">
        <dc:format>image/svg+xml</dc:format>
        <dc:type
           rdf:resource="http://purl.org/dc/dcmitype/StillImage" />
        <dc:title />
      </cc:Work>
    </rdf:RDF>
  </metadata>
  <rect
     y="-4.4140625e-06"
     x="-2.220446e-16"
     height="25.4"
     width="25.4"
     id="rect6729"
     style="vector-effect:none;fill:none;fill-opacity:1;stroke:none;stroke-width:0.529167;stroke-linecap:butt;stroke-linejoin:miter;stroke-miterlimit:4;stroke-dasharray:1.05833, 2.11667;stroke-dashoffset:0;stroke-opacity:1;paint-order:stroke markers fill" />
  <g
     id="g12"
     transform="matrix(0.35277777,0,0,-0.35277777,-343.25397,182.38504)">
    <g
       id="g984"
       transform="matrix(0.11858402,0,0,0.11858402,934.15112,428.5088)"
       style="stroke-width:8.43283">
      <path
         d="m 693.3555,389.3125 c 1.265,4.951 -1.112,8.402 3.848,14.841 0.527,0.683 1.099,1.516 1.754,2.193 1.7,1.761 4.752,3.418 4.838,5.232 0.105,2.204 -2.274,4.526 -3.584,6.795 -0.211,0.366 -0.46,0.71 -0.676,1.074 -2.949,4.949 -2.365,6.732 2.841,9.025 3.479,1.532 6.983,3.039 10.322,4.842 0.712,0.385 1.325,2.216 1.023,3.017 -2.704,7.155 -4.619,14.058 -0.829,21.672 3.221,6.471 8.221,10.179 14.661,12.628 3.541,1.348 7.056,2.833 10.383,4.627 0.754,0.406 1.364,2.816 0.887,3.506 -6.036,8.728 -12.622,17.088 -18.398,25.978 -9.227,14.202 -16.996,29.257 -16.215,46.918 0.352,7.943 0.045,16.425 -2.416,23.85 -2.944,8.876 -7.262,16.916 -11.8,25.239 -1.357,2.49 -3.347,4.626 -4.785,7.078 -6.523,11.108 -17.024,18.251 -26.298,26.622 -5.376,4.853 -10.788,9.671 -16.008,14.69 -2.882,2.772 -2.53,6.609 1.73,7.028 0.7,0.07 1.463,0.329 1.768,0.96 0.231,0.479 0.138,1.042 0.171,1.574 0.102,1.645 1.492,2.984 3.043,3.543 2.094,0.755 5.901,1.13 7.912,0.063 4.285,-2.273 7.842,-6.069 11.406,-9.522 7.751,-7.511 15.824,-14.785 22.775,-22.994 10.532,-9.852 20.783,-31.272 22.912,-36.373 2.445,-5.858 4.294,-12.071 5.506,-18.304 0.921,-4.75 0.341,-9.779 0.612,-14.674 0.491,-8.865 0.139,-17.933 1.965,-26.527 1.82,-8.566 5.594,-16.767 11.647,-23.601 5.669,-6.399 11.339,-12.826 16.535,-19.604 2.216,-2.892 3.547,-6.599 4.727,-10.12 3.482,-10.392 -4.754,-13.534 -11.359,-17.31 -6.146,-3.513 -12.721,-6.391 -16.717,-12.599 -0.799,-1.242 -0.941,-3.318 -0.579,-4.815 0.974,-4.043 2.691,-7.916 3.554,-11.975 1.592,-7.493 -4.015,-11.587 -10.808,-11.812 -0.344,-0.012 -1.054,-1.108 -0.924,-1.376 0.964,-1.997 2.145,-3.889 3.169,-5.858 3.274,-6.305 2.031,-10.266 -4.279,-13.792 -8.668,-4.844 -9.405,-6.132 -8.002,-15.892 1.1,-7.65 -0.678,-14.358 -5.915,-20.062 -2.209,-2.406 -4.157,-5.724 -6.935,-6.815 -7.978,-3.133 -16.235,-6.412 -25.006,-2.574 -1.042,0.457 -2.526,1.64 -2.499,2.444 0.058,1.725 0.445,4.207 1.622,4.991 4.086,2.721 8.454,5.096 12.923,7.148 8.201,3.766 9.815,10.94 9.498,19.021"
         style="fill:#ffffff;fill-opacity:1;fill-rule:nonzero;stroke:none;stroke-width:8.43283"
         id="path22" />
      <path
         d="m 678.5967,474.96 c -4.498,-29.067 -9.57,-54.321 -27.053,-73.411 -4.411,-4.818 -8.614,-9.704 -13.536,-14.007 -1.66,-1.451 -3.59,-2.995 -5.785,-2.789 -1.485,0.14 -2.831,1.085 -4.323,1.09 -0.975,0.003 -2.009,-0.389 -2.886,0.033 -0.641,0.308 -1.023,0.984 -1.225,1.665 -0.656,2.226 0.251,4.594 1.292,6.668 2.139,4.259 9.098,12.001 9.098,12.001 0,0 6.706,7.177 9.253,10.917 5.548,8.142 9.782,17.115 12.904,26.446 2.782,8.314 4.699,16.9 6.031,25.56 4.559,29.647 0.436,57.669 -12.544,84.228 -5.787,11.838 -14.263,23.018 -21.662,33.961 -6.084,7.74 -11.55,10.856 -16.547,16.033 -7.315,6.925 -7.315,6.925 -5.985,13.418 0.524,2.554 2.552,4.966 4.419,6.949 0.409,0.434 3.212,-0.995 4.638,-1.968 15.688,-10.697 28.468,-24.94 38.199,-41.16 14.187,-23.642 23.229,-48.613 25.793,-76.165 1.023,-10.977 -0.015,-22.146 -0.081,-29.469"
         style="fill:#ffffff;fill-opacity:1;fill-rule:nonzero;stroke:none;stroke-width:8.43283"
         id="path26" />
      <path
         d="m 549.7422,504.1592 c -4.075,-1.383 -8.331,-2.585 -9.648,3.082 -0.865,3.722 -0.86,7.645 -1.241,11.452 -4.278,-1.04 -6.565,-6.841 -5.162,-12.543 0.782,-3.177 0.897,-6.519 1.27,-9.791 0.032,-0.283 -0.229,-0.62 -0.403,-0.9 -0.143,-0.229 -0.36,-0.411 -1.672,-1.858 -1.405,2.832 -2.839,5.018 -3.615,7.417 -2.402,7.431 -3.009,14.829 1.313,21.919 3.425,5.618 11.127,9.042 18.266,5.443 8.445,-4.258 13.396,-17.101 10.646,-27.706 -1.722,-6.644 -0.043,-10.215 5.899,-13.545 3.017,-1.691 3.36,-4.379 1.956,-7.528 -2.536,-5.69 -12.257,-7.806 -16.729,-3.502 -4.392,4.227 -5.359,9.463 -4.032,15.168 0.903,3.881 2.178,7.675 3.256,11.517 0.093,0.332 -0.047,0.729 -0.104,1.375"
         style="fill:#ffffff;fill-opacity:1;fill-rule:nonzero;stroke:none;stroke-width:8.43283"
         id="path38" />
      <path
         d="m 572.6431,468.0391 c 4.719,-5.392 2.565,-9.794 0.606,-13.544 -4.666,-8.938 -13.306,-11.853 -22.724,-8.35 -5.673,2.11 -12.282,13.189 -13.365,18.943 -0.781,4.149 -3.884,8.166 -6.77,11.543 -4.609,5.395 -9.75,9.022 -13.01,15.028 -3.482,6.414 -4.285,10.161 -5.266,17.585 -1.09,8.254 1.163,20.036 6.364,25.949 5.442,6.187 13.565,9.52 21.168,10.613 5.52,-0.124 11.589,0.344 16.413,-1.753 8.99,-3.906 13.803,-12.217 16.92,-21.301 1.206,-3.516 2.385,-7.153 2.711,-10.812 0.164,-1.848 -1.159,-5.06 -2.577,-5.584 -4.204,-1.557 -6.524,1.269 -7.755,5.075 -1.645,5.08 -2.35,10.755 -5.117,15.124 -6.148,9.705 -14.184,13.077 -27.063,6.598 -10.174,-5.119 -12.394,-13.255 -11.167,-25.723 0.599,-6.082 4.07,-13.104 8.46,-16.722 7.669,-6.319 12.972,-14.282 15.469,-24.055 1.273,-4.978 3.972,-9.7 9.255,-10.387 3.512,-0.456 7.446,1.576 11.024,2.934 0.867,0.329 4.721,7.015 6.424,8.839"
         style="fill:#ffffff;fill-opacity:1;fill-rule:nonzero;stroke:none;stroke-width:8.43283"
         id="path34" />
      <path
         d="m 604.2319,557.7622 c -1.214,1.474 -2.372,2.906 -3.496,4.297 -7.548,9.331 -13.509,16.702 -24.486,22.368 -0.82,0.421 -2.009,0.183 -2.712,-0.258 -0.546,-0.342 -1.114,-0.831 -1.681,-1.38 0.133,-0.391 0.324,-0.738 0.524,-1.016 0.401,-0.557 0.871,-0.981 1.182,-1.705 0.311,-0.725 0.389,-1.913 -0.006,-2.486 -0.259,-0.376 -0.623,-0.359 -0.953,-0.325 -0.508,0.052 -1.016,0.105 -1.524,0.157 -0.734,0.076 -1.496,0.145 -2.178,-0.358 -0.758,-0.56 -1.345,-1.839 -1.512,-3.301 -0.168,-1.462 0.088,-3.063 0.661,-4.13 l -0.394,0.419 c 0.233,-0.327 0.48,-0.61 0.725,-0.812 2.014,-1.657 4.158,-3.208 6.231,-4.707 3.126,-2.261 6.359,-4.599 9.101,-7.285 11.129,-10.9 19.331,-26.124 23.721,-44.026 6.305,-25.715 1.245,-49.507 -15.468,-72.736 -0.705,-0.981 -1.485,-1.973 -2.239,-2.933 -3.344,-4.256 -6.801,-8.656 -6.507,-14.881 0.083,-1.778 1.506,-4.754 2.444,-5.507 0.337,-0.27 0.661,-0.346 0.917,-0.346 0.082,0 0.154,0.008 0.221,0.019 0.52,0.09 1.054,0.173 1.601,0.257 3.152,0.488 6.719,1.04 8.918,3.132 4.992,4.751 6.737,10.547 9.746,15.066 9.969,14.97 14.932,30.728 14.932,46.839 v 0.011 c 0,0.601 2.471,1.201 2.527,1.802 0.119,1.281 1.439,2.606 1.506,3.924 1.34,26.25 -5.219,49.768 -21.801,69.901"
         style="fill:#ffffff;fill-opacity:1;fill-rule:nonzero;stroke:none;stroke-width:8.43283"
         id="path42" />
      <path
         d="m 454,256.3184 c -0.005,-1.488 -1.201,-2.675 -2.69,-2.67 l -21.663,0.081 c -1.489,0.006 -2.675,1.202 -2.67,2.691 l 0.179,51.776 c 0.005,1.489 1.201,2.676 2.689,2.67 1.489,-0.006 2.602,-1.201 2.596,-2.69 l -0.168,-49.097 19.057,-0.071 c 1.489,-0.004 2.675,-1.201 2.67,-2.69"
         style="fill:#ffffff;fill-opacity:1;fill-rule:nonzero;stroke:none;stroke-width:8.43283"
         id="path46" />
      <path
         d="m 489.2866,255.7393 c -0.006,-1.488 -1.201,-2.675 -2.69,-2.67 l -21.441,0.081 c -1.413,0.005 -2.6,1.2 -2.595,2.689 l 0.18,51.852 c 0.005,1.414 1.2,2.601 2.615,2.596 l 21.216,-0.08 c 1.489,-0.005 2.676,-1.201 2.67,-2.616 -0.005,-1.489 -1.201,-2.675 -2.69,-2.67 l -18.537,0.07 -0.061,-18.363 16.378,-0.062 c 1.489,-0.006 2.675,-1.2 2.669,-2.689 -0.005,-1.415 -1.2,-2.601 -2.689,-2.595 l -16.378,0.061 -0.077,-22.843 18.759,-0.072 c 1.49,-0.004 2.676,-1.201 2.671,-2.689"
         style="fill:#ffffff;fill-opacity:1;fill-rule:nonzero;stroke:none;stroke-width:8.43283"
         id="path50" />
      <path
         d="m 538.6377,255.1084 0.14,41.43 -12.301,-24.372 c -0.45,-0.966 -1.345,-1.485 -2.388,-1.48 -0.968,0.003 -1.859,0.528 -2.376,1.498 l -12.043,24.462 -0.14,-41.429 c -0.005,-1.49 -1.201,-2.676 -2.69,-2.67 -1.414,0.005 -2.6,1.201 -2.595,2.69 l 0.182,52.67 c 0.08,1.488 1.201,2.676 2.615,2.67 0.968,-0.003 1.933,-0.603 2.377,-1.498 l 14.702,-29.832 15.001,29.721 c 0.45,0.891 1.42,1.484 2.388,1.48 1.563,-0.006 2.6,-1.425 2.596,-2.69 l -0.182,-52.67 c -0.006,-1.489 -1.202,-2.676 -2.616,-2.67 -1.489,0.005 -2.675,1.201 -2.67,2.69"
         style="fill:#ffffff;fill-opacity:1;fill-rule:nonzero;stroke:none;stroke-width:8.43283"
         id="path54" />
      <path
         d="m 583.3076,255.3867 c -0.006,-1.488 -1.201,-2.675 -2.69,-2.67 l -21.441,0.081 c -1.413,0.005 -2.6,1.2 -2.595,2.689 l 0.18,51.852 c 0.005,1.414 1.2,2.601 2.615,2.596 l 21.216,-0.08 c 1.489,-0.005 2.676,-1.201 2.67,-2.616 -0.005,-1.489 -1.201,-2.675 -2.69,-2.67 l -18.537,0.07 -0.061,-18.363 16.378,-0.062 c 1.489,-0.005 2.675,-1.2 2.669,-2.689 -0.005,-1.415 -1.2,-2.601 -2.689,-2.595 l -16.378,0.061 -0.077,-22.843 18.759,-0.072 c 1.49,-0.004 2.676,-1.201 2.671,-2.689"
         style="fill:#ffffff;fill-opacity:1;fill-rule:nonzero;stroke:none;stroke-width:8.43283"
         id="path58" />
      <path
         d="m 588.9307,265.4902 c 0.005,1.489 1.201,2.676 2.616,2.671 1.488,-0.006 2.675,-1.202 2.67,-2.691 -0.015,-3.871 3.172,-7.977 9.201,-8 5.732,-0.021 9.391,3.091 9.409,7.781 0.013,3.5 -0.423,8.776 -6.067,12.295 -6.759,3.971 -8.32,4.87 -9.878,5.919 -4.53,3.143 -7.42,8.64 -7.399,14.073 0.029,7.965 6.524,12.706 13.968,12.678 7.817,-0.03 14.123,-5.712 14.094,-13.304 -0.005,-1.489 -1.2,-2.676 -2.689,-2.67 -1.489,0.006 -2.676,1.201 -2.671,2.691 0.015,3.945 -2.947,7.975 -8.754,7.997 -5.954,0.023 -8.575,-3.69 -8.588,-7.338 -0.007,-1.861 -0.016,-6.155 4.661,-9.522 1.113,-0.823 4.084,-2.62 9.879,-5.993 5.719,-3.297 8.828,-10.444 8.804,-16.846 -0.032,-8.338 -7.269,-13.074 -14.789,-13.046 -9.082,0.034 -14.491,6.755 -14.467,13.305"
         style="fill:#ffffff;fill-opacity:1;fill-rule:nonzero;stroke:none;stroke-width:8.43283"
         id="path62" />
      <path
         d="m 624.8882,265.3545 c 0.005,1.489 1.201,2.677 2.616,2.671 1.488,-0.006 2.675,-1.201 2.67,-2.691 -0.015,-3.871 3.171,-7.977 9.2,-7.999 5.732,-0.022 9.392,3.09 9.41,7.781 0.013,3.5 -0.423,8.775 -6.067,12.296 -6.76,3.969 -8.32,4.87 -9.879,5.918 -4.529,3.142 -7.419,8.639 -7.399,14.073 0.03,7.965 6.525,12.705 13.969,12.678 7.817,-0.03 14.122,-5.711 14.093,-13.304 -0.005,-1.488 -1.2,-2.676 -2.689,-2.671 -1.488,0.007 -2.675,1.202 -2.67,2.692 0.015,3.946 -2.947,7.975 -8.754,7.996 -5.954,0.023 -8.575,-3.689 -8.588,-7.336 -0.007,-1.862 -0.016,-6.156 4.661,-9.524 1.113,-0.821 4.084,-2.62 9.879,-5.992 5.718,-3.297 8.827,-10.443 8.803,-16.846 -0.032,-8.338 -7.269,-13.075 -14.789,-13.047 -9.082,0.035 -14.491,6.755 -14.466,13.305"
         style="fill:#ffffff;fill-opacity:1;fill-rule:nonzero;stroke:none;stroke-width:8.43283"
         id="path66" />
      <path
         d="m 684.0879,272.2686 -7.131,25.45 -7.386,-25.395 z m 7.377,-19.495 c -1.116,0.004 -2.082,0.752 -2.449,1.945 l -3.31,12.258 -17.717,0.067 -3.39,-12.234 c -0.376,-1.115 -1.423,-1.93 -2.539,-1.926 -1.564,0.005 -3.12,1.65 -2.518,3.433 l 14.848,51.312 c 0.376,1.115 1.422,1.856 2.612,1.852 1.117,-0.005 2.155,-0.753 2.524,-1.871 l 14.557,-51.422 c 0.366,-1.565 -0.758,-3.422 -2.618,-3.414"
         style="fill:#ffffff;fill-opacity:1;fill-rule:nonzero;stroke:none;stroke-width:8.43283"
         id="path70" />
      <path
         d="m 701.3496,266.6318 0.091,28.402 c 0.031,8.19 6.756,14.789 14.87,14.758 7.668,-0.027 14.047,-6.083 14.766,-13.38 0.142,-1.415 -0.98,-2.751 -2.395,-2.894 -1.49,-0.144 -2.75,0.977 -2.894,2.393 -0.502,4.841 -4.583,8.577 -9.496,8.596 -5.211,0.02 -9.471,-4.281 -9.49,-9.492 l -0.092,-28.404 c -0.02,-5.21 4.207,-9.543 9.419,-9.563 5.285,-0.02 9.544,4.281 9.565,9.492 l 0.03,10.337 -7.892,0.029 c -1.488,0.006 -2.674,1.202 -2.669,2.692 0.005,1.413 1.202,2.599 2.689,2.595 l 10.571,-0.04 c 1.489,-0.005 2.676,-1.202 2.671,-2.616 l -0.041,-13.015 c -0.03,-8.19 -6.756,-14.79 -14.943,-14.759 -8.115,0.029 -14.79,6.681 -14.76,14.869"
         style="fill:#ffffff;fill-opacity:1;fill-rule:nonzero;stroke:none;stroke-width:8.43283"
         id="path74" />
      <path
         d="m 769.2744,254.6895 c -0.005,-1.488 -1.201,-2.675 -2.689,-2.67 l -21.441,0.08 c -1.414,0.006 -2.6,1.201 -2.596,2.69 l 0.181,51.851 c 0.005,1.414 1.199,2.601 2.614,2.596 l 21.217,-0.079 c 1.488,-0.005 2.675,-1.201 2.67,-2.616 -0.006,-1.488 -1.201,-2.675 -2.689,-2.67 l -18.538,0.069 -0.061,-18.363 16.377,-0.061 c 1.489,-0.005 2.676,-1.2 2.67,-2.689 -0.005,-1.415 -1.201,-2.601 -2.691,-2.595 l -16.377,0.061 -0.077,-22.844 18.761,-0.07 c 1.487,-0.005 2.675,-1.201 2.669,-2.69"
         style="fill:#ffffff;fill-opacity:1;fill-rule:nonzero;stroke:none;stroke-width:8.43283"
         id="path78" />
      <path
         d="m 777.8818,266.3457 0.136,40.534 c 0.007,1.49 1.201,2.677 2.69,2.671 1.413,-0.005 2.601,-1.2 2.595,-2.689 l -0.136,-40.537 c -0.02,-5.21 4.281,-9.469 9.493,-9.49 5.284,-0.019 9.545,4.207 9.564,9.419 l 0.137,40.535 c 0.005,1.49 1.201,2.676 2.69,2.671 1.415,-0.006 2.601,-1.202 2.594,-2.69 l -0.136,-40.535 c -0.031,-8.115 -6.682,-14.789 -14.869,-14.759 -8.191,0.03 -14.789,6.756 -14.758,14.87"
         style="fill:#ffffff;fill-opacity:1;fill-rule:nonzero;stroke:none;stroke-width:8.43283"
         id="path82" />
      <path
         d="m 835.5625,284.7295 c 4.765,-0.019 8.576,4.683 8.595,9.373 0.017,4.764 -3.766,9.492 -8.53,9.511 l -10.048,0.037 -0.066,-18.883 z m 11.199,-33.457 c -1.042,0.004 -2.156,0.679 -2.597,1.797 l -7.728,26.371 c 0,0 -0.596,0.003 -10.942,0.041 l -0.087,-25.523 c -0.005,-1.415 -1.201,-2.601 -2.691,-2.596 -1.415,0.006 -2.6,1.201 -2.594,2.616 l 0.18,52.371 c 0.005,1.414 1.2,2.602 2.615,2.597 l 12.729,-0.048 c 7.67,-0.029 13.824,-7.149 13.797,-14.816 -0.022,-5.435 -3.241,-11.106 -7.864,-13.323 l 7.653,-25.999 c 0.365,-1.562 -0.608,-3.496 -2.471,-3.488"
         style="fill:#ffffff;fill-opacity:1;fill-rule:nonzero;stroke:none;stroke-width:8.43283"
         id="path86" />
    </g>
  </g>
</svg>
