<?xml version="1.0" encoding="UTF-8" standalone="no"?>
<svg
   xmlns:dc="http://purl.org/dc/elements/1.1/"
   xmlns:cc="http://creativecommons.org/ns#"
   xmlns:rdf="http://www.w3.org/1999/02/22-rdf-syntax-ns#"
   xmlns:svg="http://www.w3.org/2000/svg"
   xmlns="http://www.w3.org/2000/svg"
   id="svg5782"
   version="1.1"
   viewBox="0 0 25.399999 25.400001"
   height="96"
   width="96">
  <defs
     id="defs5776">
    <clipPath
       id="clipPath20-8"
       clipPathUnits="userSpaceOnUse">
      <path
         id="path18-0-9"
         d="m 541.781,371.848 v 0 h 0.043 z" />
    </clipPath>
  </defs>
  <metadata
     id="metadata5779">
    <rdf:RDF>
      <cc:Work
         rdf:about="">
        <dc:format>image/svg+xml</dc:format>
        <dc:type
           rdf:resource="http://purl.org/dc/dcmitype/StillImage" />
        <dc:title></dc:title>
      </cc:Work>
    </rdf:RDF>
  </metadata>
  <g
     transform="translate(0,-271.59998)"
     id="layer1">
    <rect
       y="271.59998"
       x="0"
       height="25.4"
       width="25.4"
       id="rect6729"
       style="opacity:1;vector-effect:none;fill:none;fill-opacity:1;stroke:none;stroke-width:0.52916676;stroke-linecap:butt;stroke-linejoin:miter;stroke-miterlimit:4;stroke-dasharray:1.05833345, 2.11666688;stroke-dashoffset:0;stroke-opacity:1;paint-order:stroke markers fill" />
    <g
       transform="matrix(0.71232585,0,0,0.71232585,25.6436,280.88999)"
       id="g13725">
      <path
         d="m -12.026441,5.0898584 h -0.133077 l -0.03321,0.082914 c -0.01626,0.050164 -0.03298,0.099943 -0.03298,0.1330776 0,0.033212 0.01672,0.049933 0.06619,0.0665 v 0.033135 h -0.149568 -0.132924 V 5.37235 c 0.01657,-0.016568 0.03329,-0.016568 0.03329,-0.033289 0.03344,-0.016489 0.05286,-0.024812 0.08576,-0.1413227 l 0.02759,-0.049162 0.119361,-0.3246419 c 0.04993,-0.099635 0.09948,-0.2492799 0.132847,-0.3655592 h 0.01672 v 0.2659243 c -0.03344,0.083068 -0.08291,0.1992699 -0.09963,0.2659242 h 0.09963 z"
         style="fill:#707374;fill-opacity:1;fill-rule:nonzero;stroke:none;stroke-width:0.07705716"
         id="path12711" />
      <path
         d="m -9.5011621,5.3889094 c -0.016721,0.016568 -0.033443,0.016568 -0.1163562,0.016568 H -9.7505191 -9.9666645 -10.16578 v -0.033135 c 0.06635,-0.016568 0.09963,-0.049779 0.09963,-0.1163564 V 5.0898512 4.6910035 c 0,-0.066346 0,-0.099635 -0.01672,-0.1330008 0,-0.033135 -0.03321,-0.066269 -0.08291,-0.066269 v -0.033366 h 0.6646183 v 0.1163562 0.099635 h -0.049779 c 0,-0.099635 -0.050164,-0.1327694 -0.2161454,-0.1327694 h -0.1163564 v 0.165981 0.1661353 h 0.066501 c 0.1494909,0 0.1827025,-0.033058 0.1994239,-0.099635 h 0.049856 v 0.1330777 0.1494138 h -0.049856 c 0,-0.082913 -0.049933,-0.1162791 -0.1994239,-0.1162791 -0.016644,0 -0.049779,4.587e-4 -0.066501,4.587e-4 v 0.2821834 c 0,0.049779 0.016721,0.082914 0.049856,0.082914 h 0.083067 c 0.1661353,0 0.2159141,-0.033135 0.249357,-0.1496452 l 0.049779,0.016568 c -0.016644,0.099943 -0.033057,0.183011 -0.049779,0.2161454"
         style="fill:#707374;fill-opacity:1;fill-rule:nonzero;stroke:none;stroke-width:0.07705716"
         id="path12713" />
      <path
         d="m -11.098596,5.4054614 h -0.149568 -0.149491 -0.04962 v -0.033135 c 0.08291,-0.016568 0.09763,-0.049933 0.11312,-0.1134282 0.0014,0 0.003,-0.069428 0.003,-0.2022751 V 4.8073437 4.6910644 c 0,-0.066423 0,-0.099635 -0.01664,-0.1330777 -0.01657,-0.033134 -0.04986,-0.066192 -0.09948,-0.066192 v -0.033443 h 0.04963 0.149491 0.149568 0.03329 v 0.033443 c -0.04986,0 -0.08299,0.049779 -0.09963,0.1162793 v 0.1992697 0.2492799 c 0,0.1830107 0,0.2160683 0.01665,0.2492028 0.01641,0.033289 0.03313,0.049933 0.08299,0.066501 v 0.033135 z"
         style="fill:#707374;fill-opacity:1;fill-rule:nonzero;stroke:none;stroke-width:0.07705716"
         id="path12715" />
      <path
         d="m -15.935735,5.0749556 c -0.02736,-0.027124 -0.04076,-0.068196 -0.0682,-0.095397 h -0.0272 -0.02743 v 0.068273 0.1226749 c 0,0.06835 0,0.1091131 0.01372,0.1363913 0.01371,0.027355 0.04092,0.054788 0.08176,0.054788 v 0.040763 h -0.02712 -0.1639 -0.150031 -0.02728 v -0.040763 c 0.02728,0 0.04092,-0.013715 0.0682,-0.027432 0.01372,-0.013639 0.02736,-0.040917 0.02736,-0.08168 V 5.0478314 4.8156583 c 0,-0.1773086 0,-0.21838 -0.01364,-0.2590662 -0.01372,-0.041072 -0.04099,-0.054788 -0.08191,-0.054788 v -0.040763 h 0.08191 c 0.06812,0 0.0954,0 0.177309,-0.013715 h 0.136468 v 0.081912 h -0.04076 c -0.02743,0 -0.05463,0 -0.08207,0.013715 v 0.340978 c 0.01372,0.013562 0.04092,0.013562 0.05463,0.013562 0.02743,0 0.04084,0 0.0682,-0.013562 z m 0.327493,0.3412091 c -0.05463,0 -0.08183,-0.013715 -0.122829,-0.027278 -0.04076,-0.027201 -0.0954,-0.1226752 -0.122752,-0.1637465 -0.02728,-0.054634 -0.05463,-0.095551 -0.08191,-0.1501844 V 4.8839309 c 0.08191,-0.013639 0.122829,-0.081989 0.122829,-0.1773857 0,-0.081912 -0.05463,-0.1499531 -0.122829,-0.1773084 V 4.447325 h 0.02728 c 0.09555,0 0.15003,0.013715 0.190948,0.054479 0.05463,0.041149 0.09555,0.10919 0.09555,0.1774626 0,0.122675 -0.08183,0.218226 -0.204509,0.2592973 0.05463,0.068196 0.0954,0.1363913 0.15003,0.2183802 0.04092,0.068195 0.08191,0.136391 0.122829,0.1636694 0.01371,0.027355 0.02736,0.041071 0.05448,0.041071 v 0.040763 c -0.04076,0.013715 -0.0682,0.013715 -0.109113,0.013715"
         style="fill:#707374;fill-opacity:1;fill-rule:nonzero;stroke:none;stroke-width:0.07705716"
         id="path12717" />
      <path
         d="m -21.664827,-0.94174428 c -0.149414,0.0332887 -0.315549,0.0497788 -0.465194,0.13292367 0.348915,-0.0167208 0.697753,0.0332116 1.030254,0.13284657 0.116202,0.0501641 0.216068,0.0996348 0.332348,0.16628925 0.04978,0.0331345 0.06627,0.0829906 0.132769,0.099635 0.0665,0.0498559 0.149645,0.0498559 0.216068,0.0167208 h 0.06658 c 0.199424,-0.050087 0.415338,-0.099789 0.548262,-0.24935677 0,0.0168759 0.01672,0.0168759 0.01672,0.0168759 -0.03336,0.0994808 -0.03336,0.21576009 -0.116356,0.31539485 0,0.0167208 -0.01657,0.0334429 0.01649,0.0500101 h 0.03337 c -0.01664,0 -0.03337,0 -0.03337,0.0165679 0,0.0164914 0.03337,0 0.04978,0.0164914 -0.06627,0.0165679 -0.132692,0.0332887 -0.166058,0.0832986 0,0.0163364 0.01665,0.0163364 0.03337,0.0163364 -0.01672,0.0331347 -0.0665,0.0167208 -0.08322,0.0331347 0,0 0.01672,0.0167208 0.03314,0.0167208 -0.01641,0 -0.03314,0 -0.03314,0.01672079 v 0.0333658 c -0.03329,0 -0.04978,0.0331347 -0.06642,0.04954773 0.04978,0.03344291 0.08315,0 0.132924,0 -0.132924,0.05008725 -0.265925,0.13300078 -0.398848,0.16628947 -0.03321,0 0,0.0498559 -0.03321,0.0498559 0.04986,0.0166444 0.06658,-0.0164128 0.09964,-0.0164128 -0.182779,0.099635 -0.365482,0.19926996 -0.564752,0.31539507 0,0 -0.01672,0.0167208 -0.01672,0.0501641 h -0.06642 c -0.01672,0.0164128 0,0.0494706 -0.03337,0.0829135 0.0665,0.0332887 0.149645,-0.049779 0.18278,0 0.01664,0 -0.01649,0.0167208 -0.04978,0.0167208 -0.01649,0 -0.01649,0.0165679 -0.03321,0.0165679 h -0.03329 c -0.03313,0.0332116 -0.04986,0.049933 -0.04986,0.0830675 -0.03314,0 -0.04978,0 -0.06642,0.0332116 0.282568,-0.049933 0.598117,-0.0166443 0.864041,-0.16628926 0.216146,-0.099635 0.415338,-0.24920277 0.581705,-0.43175128 l 0.01641,0.0164128 c -0.03314,0.13300056 -0.11628,0.23278975 -0.215915,0.31570306 -0.08314,0.0334429 -0.132923,0.099635 -0.199423,0.13307788 -0.04986,0.0165679 -0.08314,0.0497788 -0.11628,0.0665003 -0.49856,0.1827025 -1.079956,0.0994808 -1.495371,0.43198235 0,-0.016721 -0.01664,-0.016721 -0.03337,-0.016721 -0.03313,0.033366 -0.06642,0.033366 -0.08314,0.0665 0,0.033135 0.05001,0.016413 0.05001,0.016413 0.08299,-0.049548 0.166135,-0.099481 0.265693,-0.1162022 -0.08291,0.033289 -0.149414,0.083068 -0.232559,0.1162022 h -0.697908 c 0.116435,-0.066192 0.232791,-0.1493367 0.349071,-0.215837 -0.03337,-0.016721 -0.0665,-0.016721 -0.11628,-0.016721 -0.0665,0 -0.149645,-0.0330575 -0.216145,0 -0.182858,0.083222 -0.43206,0.066731 -0.548341,0.2325585 h -3.954648 v -5.8154265 h 7.859445 c -0.149414,0.066423 -0.299059,0.1327695 -0.415415,0.2657701 -0.09956,0.1329236 -0.215838,0.2658471 -0.249203,0.4321366 -0.166136,0.099635 -0.282338,0.26577 -0.365559,0.415338 -0.11628,0.2327126 -0.299059,0.4319824 -0.265925,0.6811854 0.01665,0.2161451 0.08315,0.3988476 0.116511,0.6314063 0.01641,0.083067 0.03313,0.1495678 0.04978,0.2326355 0.03313,0.0665 0,0.1661353 0.04978,0.2327127 0.01672,0.033212 0,0.083068 0.0665,0.1162791 v 0.049856 c 0,0.016721 0,0.033135 0.03313,0.033135 v 0.049933 c 0.09987,0.1329234 0.232636,0.2492027 0.299059,0.3988479 0.03337,0.0830675 -0.132692,0.0332886 -0.199193,0.016568 -0.133,-0.066577 -0.1995,-0.1827025 -0.315703,-0.2658473 l -0.01672,0.016568 c 0.0665,0.099635 0.266001,0.2159912 0.149645,0.28249147 -0.05001,0.0332887 -0.11628,-0.0332116 -0.16629,0.0167208 -0.01649,0.0165679 0,0.0498559 0,0.0830675 -0.08299,-0.0665003 -0.166135,-0.0332116 -0.232635,-0.0665003 -0.0665,0 -0.0665,-0.11635617 -0.132924,-0.11635617 -0.18278,-0.033212 -0.33227,-0.066501 -0.51505,-0.083068 -0.232559,-0.033289 -0.465348,-0.066346 -0.697907,-0.033289 -0.215914,0.016568 -0.365559,0.1662123 -0.498559,0.33234755 v 0.0332887 c 0.08322,0.0164893 0.133,-0.0664234 0.216145,-0.0831448 0.132923,-0.0332116 0.24928,-0.0830675 0.382204,-0.11627915 0.199269,-0.033289 0.382049,-0.083068 0.564828,-0.066577 0.03329,0 0.08315,-0.016491 0.132924,0 -0.232559,-0.016491 -0.448704,0.066577 -0.681262,0.13307773"
         style="fill:#707374;fill-opacity:1;fill-rule:nonzero;stroke:none;stroke-width:0.07705716"
         id="path12719" />
      <path
         d="m -20.252439,1.151891 c 0.08322,-0.033289 0.166136,-0.066346 0.24928,-0.099635 v 0.033289 c 0.199424,-0.083376 0.348838,-0.2660013 0.531618,-0.33234737 0.01672,0 0.05009,0.0331345 0.0665,0.0164128 0.133001,-0.0996348 0.265924,-0.21599119 0.432059,-0.19926974 0,0.0167208 0,0.0331347 0.01664,0.0331347 0.01672,0 0.01672,0 0.01672,-0.0164128 -0.05009,0.0331345 -0.09987,0.0829135 -0.149646,0.11620222 -0.01672,0.0165679 0,0.0332116 0.01665,0.0332116 0.0665,-0.0332116 0.09964,-0.0832217 0.166135,-0.11627933 -0.01672,0.0163364 -0.01672,0.0497791 -0.03313,0.0665005 -0.232559,0.16598105 -0.398925,0.36555902 -0.581705,0.56467472 h -1.59516 c 0.182779,-0.033134 0.365559,-0.082913 0.548338,-0.099481 0.09979,0 0.199424,0.016568 0.315704,0"
         style="fill:#707374;fill-opacity:1;fill-rule:nonzero;stroke:none;stroke-width:0.07705716"
         id="path12721" />
      <path
         d="m -15.034829,0.47072115 c 0.03313,-0.099789 0.0665,-0.19973215 0.01672,-0.29921292 -0.08322,-0.11635643 0.08291,-0.14972201 0.132692,-0.23263554 0.03329,-0.06657738 -0.01125,-0.15280427 -0.03306,-0.16621236 -0.02697,-0.0245041 -0.06658,-0.0164893 -0.09963,-0.0663461 0.09963,-0.0334429 0.232481,-0.11635643 0.165981,-0.23263575 -0.03329,-0.0664232 -0.09979,-0.16621215 -0.01657,-0.23271243 0.08307,-0.049779 0.232558,-0.049779 0.282337,-0.13292367 0.06658,-0.16613518 -0.08291,-0.29898178 -0.166135,-0.43190528 -0.03314,-0.066501 -0.09964,-0.1330778 -0.149414,-0.1994239 -0.05001,-0.099789 -0.116202,-0.1828567 -0.149645,-0.2824917 -0.03306,-0.099789 0.01672,-0.1994239 0.01672,-0.2992129 0.01672,-0.1992698 -0.03344,-0.3986937 -0.08322,-0.5981177 -0.0497,-0.099712 -0.0497,-0.1993468 -0.09964,-0.2991358 -0.01657,-0.049856 -0.01657,-0.099635 -0.06635,-0.1494909 -0.01672,-0.033212 -0.01672,-0.066346 0,-0.099635 0.04978,-0.033212 0.116279,-0.083222 0.165981,-0.1330005 0.03344,-0.066423 0,-0.1494909 -0.0497,-0.1992698 -0.09979,-0.033443 -0.08322,0.099635 -0.149722,0.1162023 h -0.04978 c 0,-0.033289 0.01664,-0.049856 0.04978,-0.066423 0,-0.016721 0,-0.049779 -0.01641,-0.049779 -0.04978,0 -0.09994,-0.016721 -0.116356,-0.033443 -0.132846,-0.1827025 -0.315703,-0.2823374 -0.515127,-0.3655592 0.04978,0.016721 0.09963,0.033289 0.149568,0.033289 0.09963,0.016644 0.19927,0.016644 0.282492,-0.033289 0.06642,-0.016568 0.08307,-0.1327694 0.09948,-0.1992697 0.03344,-0.049779 0,-0.1330006 -0.03306,-0.1662893 -0.06642,-0.099635 -0.149645,-0.1659812 -0.24928,-0.2158372 h 6.2142742 v 5.8154267 h -7.4107412 c 0.08322,-0.2492799 0.23279,-0.48176146 0.448627,-0.63125237 0.04986,-0.0330576 0.116356,-0.0497788 0.182857,-0.0665003 0.232558,0 0.448627,0.0665003 0.681339,0.099635 0.05101,0.007243 0.06681,0.0129463 0.123446,0.0197264 0.08654,0.007243 0.125757,0.0137152 0.208825,-0.003006 0.09979,-0.0334427 0.199269,-0.0829135 0.232712,-0.19926973"
         style="fill:#707374;fill-opacity:1;fill-rule:nonzero;stroke:none;stroke-width:0.07705716"
         id="path12723" />
      <path
         d="m -15.533289,-2.1382417 c -0.08322,-0.016568 -0.149722,0 -0.232712,0 -0.09971,0.033289 -0.182703,0.033289 -0.282646,0.083068 0.0833,-0.049779 0.149799,-0.116202 0.24928,-0.1327695 0.0665,-0.016644 0.133001,-0.049933 0.199578,-0.049933 0.08307,-0.016568 0.165981,-0.049779 0.232481,-0.016568 0.06658,0.016568 0.166213,0.016568 0.182857,0.0665 0.01672,0.082991 -0.04978,0.1494909 -0.116279,0.2159912 -0.01672,0.016568 0.03321,0.033289 0.03321,0.066423 -0.01657,0.016644 -0.04993,0.033212 -0.08307,0.033212 -0.01672,0.016721 -0.04978,0.049856 -0.08322,0.083068 0.03344,0 0,0.033289 0.03344,0.033289 -0.04986,0.0665 0.03306,0.1994238 -0.04986,0.2326356 -0.09979,0.016568 -0.199424,0.016568 -0.31578,0 0.06658,-0.016644 0.133077,0 0.166212,-0.049779 v -0.049933 c 0,-0.016568 -0.01672,-0.016568 -0.03313,-0.016568 0,0.016568 -0.01672,0.016568 -0.01672,0.016568 0,-0.033289 -0.03336,-0.049856 -0.04978,-0.049856 -0.06658,0.016568 -0.133077,-0.033289 -0.199424,-0.083068 0.04978,-0.016721 0.08307,-0.033289 0.132847,-0.016721 0.03313,0 0.01672,-0.066346 0.06658,-0.082914 h 0.03306 c 0.0833,-0.1163564 0.232558,-0.1330777 0.266001,-0.249357 0,-0.016568 -0.08322,-0.016568 -0.132923,-0.033289"
         style="fill:#707374;fill-opacity:1;fill-rule:nonzero;stroke:none;stroke-width:0.07705716"
         id="path12725" />
      <path
         d="m -26.333859,5.006783 c -0.03336,-0.033135 -0.04986,-0.083222 -0.08322,-0.1163562 h -0.03306 -0.03337 v 0.083222 0.1493367 c 0,0.083222 0,0.1330006 0.01665,0.1661353 0.01671,0.033443 0.04978,0.066654 0.09963,0.066654 v 0.049702 h -0.03314 -0.199501 -0.18278 -0.03306 v -0.049702 c 0.03306,0 0.04978,-0.016644 0.08291,-0.033212 0.01671,-0.016721 0.03336,-0.049856 0.03336,-0.099635 V 4.9736485 4.6910028 c 0,-0.2159143 0,-0.2659242 -0.01664,-0.315549 -0.01671,-0.05001 -0.04986,-0.066732 -0.09963,-0.066732 v -0.049471 h 0.09963 c 0.08315,0 0.116202,0 0.215836,-0.016721 h 0.166367 v 0.099635 h -0.04986 c -0.03336,0 -0.06642,0 -0.09979,0.016721 v 0.4151838 c 0.01665,0.016568 0.04978,0.016568 0.06642,0.016568 0.03336,0 0.04986,0 0.08322,-0.016568 z m 0.398617,0.4152609 c -0.06642,0 -0.09956,-0.016568 -0.149414,-0.033135 -0.04978,-0.033135 -0.116279,-0.1493367 -0.149644,-0.1994239 -0.03314,-0.0665 -0.06642,-0.1163562 -0.09956,-0.1827025 V 4.7740703 c 0.09956,-0.016644 0.149415,-0.099712 0.149415,-0.2160683 0,-0.099635 -0.0665,-0.1825482 -0.149415,-0.2158369 v -0.099635 h 0.03313 c 0.116281,0 0.18278,0.016721 0.23256,0.066192 0.0665,0.050164 0.116279,0.1330776 0.116279,0.2161454 0,0.1494909 -0.09956,0.26577 -0.249049,0.3157801 0.0665,0.082914 0.116279,0.1661353 0.18278,0.2659242 0.04986,0.082914 0.09963,0.1661353 0.149491,0.19927 0.01664,0.033289 0.03329,0.049933 0.06642,0.049933 v 0.049702 c -0.04978,0.016568 -0.08314,0.016568 -0.133,0.016568"
         style="fill:#707374;fill-opacity:1;fill-rule:nonzero;stroke:none;stroke-width:0.07705716"
         id="path12727" />
      <path
         d="m -25.054441,5.3889094 c -0.01665,0.016568 -0.03336,0.016568 -0.116279,0.016568 h -0.133002 -0.216145 -0.199193 v -0.033135 c 0.0665,-0.016568 0.09963,-0.049779 0.09963,-0.1163564 V 5.0898512 4.6910035 c 0,-0.066346 0,-0.099635 -0.01671,-0.1330008 0,-0.033135 -0.03313,-0.066269 -0.08291,-0.066269 v -0.033366 h 0.664619 v 0.1163562 0.099635 h -0.04978 c 0,-0.099635 -0.05009,-0.1327694 -0.216147,-0.1327694 h -0.116279 v 0.165981 0.1661353 h 0.06642 c 0.149491,0 0.18278,-0.033058 0.199501,-0.099635 h 0.04978 v 0.1330777 0.1494138 h -0.04978 c 0,-0.082913 -0.05001,-0.1162791 -0.199501,-0.1162791 -0.01664,0 -0.04978,4.587e-4 -0.06642,4.587e-4 v 0.2821834 c 0,0.049779 0.01664,0.082914 0.04978,0.082914 h 0.08314 c 0.166135,0 0.215916,-0.033135 0.249281,-0.1496452 l 0.04978,0.016568 c -0.01665,0.099943 -0.03313,0.183011 -0.04978,0.2161454 m -0.31578,-1.0300229 -0.06642,-0.033443 0.132923,-0.2159912 0.166135,0.033134 z"
         style="fill:#707374;fill-opacity:1;fill-rule:nonzero;stroke:none;stroke-width:0.07705716"
         id="path12729" />
      <path
         d="m -24.456306,4.9736716 h -0.04978 l -0.03337,-0.0665 c 0.132924,0 0.216145,-0.066577 0.216145,-0.1828567 0,-0.1162023 -0.08322,-0.199424 -0.182777,-0.199424 -0.01673,0 -0.03337,0 -0.0665,0.016721 v 0.2657702 0.2492028 c 0,0.1830107 0,0.2161454 0.01671,0.2492799 0.0164,0.033212 0.03306,0.049933 0.08284,0.0665 v 0.033135 h -0.03306 -0.149646 -0.166136 -0.03336 v -0.033135 c 0.0665,-0.016568 0.09987,-0.049856 0.09987,-0.1163562 0.01664,-0.033135 0.01664,-0.0665 0.01664,-0.199424 V 4.6910253 c 0,-0.066346 -0.01664,-0.099635 -0.01664,-0.1330777 -0.01671,-0.033057 -0.04978,-0.066192 -0.09987,-0.066192 v -0.033443 h 0.0665 0.11651 c 0.06627,0 0.132768,-0.016489 0.215914,-0.016489 0.1995,0 0.315779,0.099789 0.315779,0.26577 0,0.1661353 -0.132999,0.2660785 -0.315779,0.2660785"
         style="fill:#707374;fill-opacity:1;fill-rule:nonzero;stroke:none;stroke-width:0.07705716"
         id="path12731" />
      <path
         d="m -23.160184,4.5248752 c -0.01664,0.016721 -0.03336,0.049779 -0.03336,0.099789 v 0.1992699 0.2326356 c 0,0.099635 -0.0164,0.1663663 -0.0665,0.2161452 -0.06619,0.099635 -0.166059,0.1493369 -0.315548,0.1493369 -0.08307,0 -0.149569,-0.016568 -0.216068,-0.066269 -0.09964,-0.049933 -0.133002,-0.149568 -0.133002,-0.2992129 V 4.7906454 c 0,-0.066346 0,-0.149414 -0.0164,-0.2159914 0,-0.049779 -0.03337,-0.082913 -0.08315,-0.082913 V 4.458375 h 0.03306 0.149722 0.166059 0.03337 v 0.033366 c -0.04978,0 -0.0665,0.016413 -0.08315,0.049856 -0.01673,0.016413 -0.01673,0.049779 -0.01673,0.099635 -0.0164,0.099789 -0.0164,0.1827027 -0.0164,0.2823375 0,0.2326355 0.0164,0.2826457 0.04978,0.3324245 0.03314,0.049856 0.09964,0.066577 0.166136,0.066577 0.09963,0 0.18278,-0.049856 0.216145,-0.1330777 0.0164,-0.0665 0.0164,-0.1163562 0.0164,-0.2659242 V 4.774078 c 0,-0.1659811 0,-0.2160683 -0.0164,-0.2324813 -0.01671,-0.033443 -0.03336,-0.049856 -0.06658,-0.049856 v -0.033366 h 0.149491 0.149646 v 0.033366 c -0.03337,0 -0.0665,0.016413 -0.0665,0.033135"
         style="fill:#707374;fill-opacity:1;fill-rule:nonzero;stroke:none;stroke-width:0.07705716"
         id="path12733" />
      <path
         d="m -22.545383,5.4054614 h -0.03336 -0.23256 -0.132923 -0.01649 v -0.033135 c 0.06627,-0.016568 0.09956,-0.049779 0.09956,-0.1162793 V 5.0566236 4.7741321 c 0,-0.1329236 0,-0.1827024 -0.01665,-0.2161454 0,-0.033134 -0.03314,-0.066192 -0.08291,-0.066192 v -0.033443 h 0.199192 0.216145 v 0.067579 c 2.19e-4,6.116e-4 -0.09979,-1.542e-4 -0.132999,-1.542e-4 V 4.840632 h 0.04985 0.08315 v 0.082914 h -0.04978 -0.08322 v 0.1163562 0.083068 0.149722 c 0.01673,0.033135 0.04985,0.049856 0.116355,0.049856 h 0.01664 z m 0.24928,-0.066346 c -0.05001,0.049779 -0.133001,0.066346 -0.24928,0.066346 v -0.082914 c 0.09964,0 0.166136,-0.0665 0.166136,-0.1828567 0,-0.116202 -0.0665,-0.1827025 -0.166136,-0.2161451 v -0.082914 c 0.09964,-0.016721 0.149415,-0.0665 0.149415,-0.149568 0,-0.08299 -0.04978,-0.1651333 -0.149415,-0.1651333 v -0.067579 h 0.0665 c 0.132769,0 0.24928,0.049779 0.24928,0.1995781 0,0.1162022 -0.0665,0.1827025 -0.199502,0.215837 0.149415,0.033366 0.232636,0.1330008 0.232636,0.2659242 0,0.083222 -0.03313,0.1494141 -0.09963,0.199424"
         style="fill:#707374;fill-opacity:1;fill-rule:nonzero;stroke:none;stroke-width:0.07705716"
         id="path12735" />
      <path
         d="m -21.38222,5.3889094 c -0.01664,0.016568 -0.03337,0.016568 -0.116279,0.016568 h -0.09987 -0.265693 -0.166367 v -0.033135 c 0.03337,-0.016568 0.05009,-0.016568 0.0665,-0.033212 0.03336,-0.033289 0.03336,-0.066423 0.03336,-0.1663666 V 4.9570048 4.8073597 c 0,-0.1827025 0,-0.2159912 -0.01672,-0.249357 -0.01664,-0.033135 -0.03306,-0.066269 -0.08314,-0.066269 v -0.033366 h 0.03336 0.166136 0.166135 0.03329 v 0.033366 c -0.08314,0 -0.11628,0.033135 -0.11628,0.1163564 v 0.1992698 0.2492028 c 0,0.1830109 0,0.2161454 0.01649,0.2325586 0.01664,0.016721 0.05001,0.016721 0.09979,0.016721 0.08291,0 0.133,0 0.166135,-0.016721 0.03313,-0.033135 0.0665,-0.066192 0.08314,-0.1329237 l 0.04978,0.016568 c -0.01664,0.083222 -0.04978,0.183011 -0.04978,0.2161454"
         style="fill:#707374;fill-opacity:1;fill-rule:nonzero;stroke:none;stroke-width:0.07705716"
         id="path12737" />
      <path
         d="m -20.219065,5.4220133 h -0.01672 c -0.282337,0 -0.481838,-0.1823943 -0.481838,-0.4650399 0,-0.2990588 0.199501,-0.5152042 0.498559,-0.5152042 v 0.099789 h -0.01672 c -0.166058,0 -0.299059,0.1327695 -0.299059,0.3489149 0,0.2324813 0.133001,0.4320595 0.31578,0.4320595 z m 0.664618,0.2327127 c -0.116279,0 -0.232636,-0.033135 -0.348915,-0.082991 -0.0665,-0.050087 -0.149645,-0.099635 -0.216145,-0.1662892 -0.04978,0.016568 -0.06642,0.016568 -0.09956,0.016568 v -0.099481 h 0.01641 c 0.182779,0 0.29929,-0.149722 0.29929,-0.3488377 0,-0.2327127 -0.132924,-0.4321366 -0.315704,-0.4321366 v -0.099789 h 0.01641 c 0.282646,0 0.481839,0.1828567 0.481839,0.4653482 0,0.1994239 -0.09956,0.3819722 -0.265694,0.4651939 0.04986,0.016568 0.09963,0.049702 0.149414,0.083145 0.149645,0.082913 0.24928,0.1162791 0.349146,0.1162791 0.04978,0 0.09956,0 0.166135,-0.033366 l 0.01657,0.050087 c -0.06642,0.049702 -0.166289,0.066269 -0.249203,0.066269"
         style="fill:#707374;fill-opacity:1;fill-rule:nonzero;stroke:none;stroke-width:0.07705716"
         id="path12739" />
      <path
         d="m -18.723786,4.5248752 c -0.01665,0.016721 -0.03306,0.049779 -0.03306,0.099789 v 0.1992699 0.2326356 c 0,0.099635 -0.01672,0.1663663 -0.0665,0.2161452 -0.04978,0.099635 -0.166367,0.1493369 -0.31578,0.1493369 -0.08315,0 -0.149646,-0.016568 -0.216069,-0.066269 -0.09963,-0.049933 -0.132769,-0.149568 -0.132769,-0.2992129 V 4.7906454 c 0,-0.066346 0,-0.149414 -0.01665,-0.2159914 0,-0.049779 -0.03313,-0.082913 -0.08322,-0.082913 V 4.458375 h 0.03336 0.149414 0.166367 0.03313 v 0.033366 c -0.04986,0 -0.0665,0.016413 -0.08322,0.049856 -0.01641,0.016413 -0.01641,0.049779 -0.01641,0.099635 -0.01665,0.099789 -0.01665,0.1827027 -0.01665,0.2823375 0,0.2326355 0.01665,0.2826457 0.04978,0.3324245 0.03337,0.049856 0.09987,0.066577 0.166058,0.066577 0.09987,0 0.18278,-0.049856 0.216146,-0.1330777 0.01672,-0.0665 0.01672,-0.1163562 0.01672,-0.2659242 V 4.774078 c 0,-0.1659811 0,-0.2160683 -0.01672,-0.2324813 -0.01665,-0.033443 -0.03337,-0.049856 -0.0665,-0.049856 v -0.033366 h 0.149645 0.149414 v 0.033366 c -0.03306,0 -0.04978,0.016413 -0.0665,0.033135"
         style="fill:#707374;fill-opacity:1;fill-rule:nonzero;stroke:none;stroke-width:0.07705716"
         id="path12741" />
      <path
         d="m -16.547076,4.5248752 c 0,-0.1163562 -0.06619,-0.165981 -0.26577,-0.165981 h -0.116202 v 0.3985394 h 0.08291 c 0.16629,0 0.216145,-0.033134 0.216145,-0.1162022 h 0.0665 v 0.149414 0.1830107 h -0.0665 c 0,-0.099943 -0.04986,-0.1163564 -0.232712,-0.1163564 h -0.06635 v 0.1826256 0.1328464 c 0,0.099943 0,0.1830109 0.116202,0.1830109 v 0.049702 h -0.03329 -0.19927 -0.182856 -0.04993 v -0.049702 c 0.08322,0 0.116433,-0.049933 0.133,-0.1328466 V 4.9736561 4.5415967 c 0,-0.083222 0,-0.1330777 -0.01657,-0.1661353 -0.01664,-0.05001 -0.04993,-0.066732 -0.116433,-0.066732 v -0.049471 h 0.797619 V 4.408519 4.5248752 Z"
         style="fill:#707374;fill-opacity:1;fill-rule:nonzero;stroke:none;stroke-width:0.07705716"
         id="path12743" />
      <path
         d="m -15.018123,5.0898584 h -0.149568 l -0.01672,0.082914 c -0.03329,0.050164 -0.03329,0.099943 -0.03329,0.1330776 0,0.033212 0.01657,0.049933 0.05001,0.0665 v 0.033135 h -0.133078 -0.149413 V 5.37235 c 0.03306,-0.016568 0.03306,-0.016568 0.04978,-0.033289 0.03313,-0.016489 0.04986,-0.066346 0.09963,-0.1828565 l 0.133078,-0.3322705 c 0.03306,-0.099635 0.09948,-0.2492799 0.132847,-0.3655592 h 0.01672 v 0.2659243 c -0.05009,0.083068 -0.09994,0.1992699 -0.11651,0.2659242 h 0.11651 z m 0.46504,0.3156261 h -0.165981 -0.149645 -0.03321 v -0.033135 c 0.04978,-0.016568 0.08291,-0.033289 0.08291,-0.0665 0,-0.016721 -0.01657,-0.049856 -0.03313,-0.082914 -0.01657,-0.050164 -0.01657,-0.083299 -0.03321,-0.1330776 h -0.132769 v -0.099635 h 0.09963 l -0.09963,-0.2826457 V 4.7242982 4.458374 h 0.08291 c 0.01672,0.033366 0.03329,0.1162793 0.0665,0.1662894 l 0.199423,0.5149728 c 0.03313,0.083299 0.04986,0.1330779 0.06658,0.1662124 0.01641,0.033212 0.04962,0.049933 0.08291,0.0665 v 0.033135 z"
         style="fill:#707374;fill-opacity:1;fill-rule:nonzero;stroke:none;stroke-width:0.07705716"
         id="path12745" />
      <path
         d="m -13.539589,4.5415814 c -0.01626,0.016413 -0.01626,0.049779 -0.03298,0.1163562 v 0.4319055 0.2159912 0.099635 h -0.08338 c -0.09964,-0.1163564 -0.298905,-0.3488377 -0.298905,-0.3488377 -0.01664,-0.033135 -0.199424,-0.2492799 -0.282337,-0.3656363 v 0.099635 0.099789 0.3157802 c 0,0.0665 0.01641,0.082914 0.01641,0.1163564 0.01657,0.033212 0.05001,0.033212 0.08307,0.049779 v 0.033135 h -0.14926 -0.149799 v -0.033135 c 0.09964,-0.016568 0.09964,-0.083222 0.09964,-0.1661352 V 5.0067753 4.7075624 c 0,-0.1162022 0,-0.1495678 -0.03306,-0.1827025 0,-0.016721 -0.03344,-0.033057 -0.06658,-0.033057 v -0.033443 h 0.116356 0.132924 c 0.01672,0.033443 0.03321,0.049779 0.133001,0.1828567 0.149336,0.1661353 0.265693,0.2990588 0.38228,0.4486268 V 4.7906301 4.5747158 c -0.01672,-0.049856 -0.03321,-0.066577 -0.09994,-0.082913 v -0.033443 h 0.149645 0.16629 v 0.033443 c -0.04993,0 -0.06666,0.016336 -0.08338,0.049779"
         style="fill:#707374;fill-opacity:1;fill-rule:nonzero;stroke:none;stroke-width:0.07705716"
         id="path12747" />
      <path
         d="m -12.542662,5.3723498 c -0.09948,0.033135 -0.182394,0.049702 -0.298751,0.049702 v 0.050087 h 0.01672 c 0.04947,0 0.09964,0.049548 0.09964,0.099635 0,0.066346 -0.06681,0.1163562 -0.166443,0.1163562 -0.03329,0 -0.04955,0 -0.08299,-0.016721 l 0.01672,-0.049856 c 0.01672,0 0.03298,0.016568 0.0497,0.016568 0.04993,0 0.06665,-0.033058 0.06665,-0.066346 0,-0.016721 -0.01672,-0.033443 -0.03344,-0.033443 h -0.03321 -0.03298 l 0.03298,-0.1162791 c -0.133078,-0.016568 -0.215991,-0.049702 -0.298905,-0.1329236 -0.08338,-0.099635 -0.132924,-0.2159912 -0.132924,-0.3655592 0,-0.2989048 0.199116,-0.4817612 0.531464,-0.4817612 0.100097,0 0.18301,0.016568 0.26577,0.033212 v 0.099635 0.1163562 h -0.04955 c -0.01664,-0.1163562 -0.10002,-0.1661352 -0.232481,-0.1661352 -0.199733,0 -0.316089,0.1330776 -0.316089,0.3655592 0,0.2492028 0.133078,0.4321366 0.332348,0.4321366 0.116202,0 0.199578,-0.049856 0.232944,-0.1663666 l 0.04955,0.016568 c 0,0.033443 -0.01672,0.1163562 -0.01672,0.1995779"
         style="fill:#707374;fill-opacity:1;fill-rule:nonzero;stroke:none;stroke-width:0.07705716"
         id="path12749" />
      <path
         d="m -11.562141,5.4054614 h -0.149722 -0.149182 -0.03344 v -0.033135 c 0.03344,-0.016568 0.06642,-0.033212 0.06642,-0.066501 0,-0.016721 0,-0.049779 -0.01626,-0.082914 -0.01672,-0.050164 -0.03344,-0.083222 -0.05016,-0.1330777 h -0.132846 v -0.099635 h 0.09963 l -0.09963,-0.2826456 v 0.016721 -0.2659245 h 0.08291 c 0.01672,0.033443 0.04993,0.1163564 0.06665,0.1662895 l 0.19927,0.5150499 c 0.03344,0.083222 0.06665,0.1330008 0.08338,0.1661352 0.01626,0.033289 0.03298,0.049933 0.06627,0.066501 v 0.033135 z"
         style="fill:#707374;fill-opacity:1;fill-rule:nonzero;stroke:none;stroke-width:0.07705716"
         id="path12751" />
      <path
         d="m -10.648135,5.4220133 c -0.08338,0 -0.149568,-0.016568 -0.249203,-0.049702 0,-0.049779 0,-0.1326924 -0.01672,-0.1995009 l 0.05009,-0.016568 c 0.03298,0.1164335 0.116202,0.1828567 0.215837,0.1828567 0.09964,0 0.182548,-0.05001 0.182548,-0.1329237 0,-0.0665 -0.04947,-0.1163562 -0.116202,-0.1495678 l -0.149722,-0.099635 c -0.09948,-0.0665 -0.165827,-0.1330777 -0.165827,-0.2659242 0,-0.1494909 0.133001,-0.2492799 0.315549,-0.2492799 0.08338,0 0.166366,0.016568 0.232558,0.05001 v 0.082914 0.1163562 h -0.0497 c -0.03321,-0.1163562 -0.08338,-0.1662124 -0.182857,-0.1662124 -0.09964,0 -0.165981,0.049856 -0.165981,0.1330779 0,0.066346 0.0497,0.1162022 0.132615,0.165981 l 0.116742,0.083222 c 0.116202,0.066577 0.182625,0.1327694 0.182625,0.2491257 0,0.1662894 -0.133078,0.2657702 -0.332347,0.2657702"
         style="fill:#707374;fill-opacity:1;fill-rule:nonzero;stroke:none;stroke-width:0.07705716"
         id="path12753" />
      <path
         d="m -26.333859,2.9628112 c -0.01671,0.016721 -0.03336,0.016721 -0.08322,0.016721 h -0.199424 -0.132769 -0.182934 -0.01649 l 0.01649,-0.033135 c 0.03329,0 0.0665,-0.016721 0.08314,-0.033135 0.01664,-0.033366 0.03336,-0.066809 0.04978,-0.149722 0.01664,-0.066346 0.03337,-0.1162022 0.05001,-0.2658474 l 0.03321,-0.099481 c 0.01664,-0.1163562 0.03306,-0.1828565 0.03306,-0.2159912 0,-0.066654 -0.03306,-0.083376 -0.08291,-0.099943 v -0.016568 h 0.01664 0.149413 0.166135 0.01665 v 0.016568 c -0.04978,0.016568 -0.06642,0.016568 -0.08315,0.05001 -0.04978,0.049933 -0.06627,0.099481 -0.116278,0.365405 l -0.0164,0.099635 c -0.01671,0.1162793 -0.03337,0.1496449 -0.03337,0.1993469 v 0.049779 c 0,0.050164 0.01665,0.066809 0.116279,0.066809 0.149644,0 0.216145,-0.033366 0.265923,-0.149722 l 0.03314,0.016721 c -0.03314,0.099635 -0.0665,0.1661352 -0.08291,0.1825485"
         style="fill:#707374;fill-opacity:1;fill-rule:nonzero;stroke:none;stroke-width:0.07705716"
         id="path12755" />
      <path
         d="m -26.068189,2.9962231 c -0.03313,0 -0.04978,-0.016721 -0.04978,-0.033443 0,-0.016336 0,-0.033057 0.01664,-0.066192 0.01673,-0.083222 0.03313,-0.1830107 0.04986,-0.2327127 0.01673,-0.066577 0.03329,-0.116048 0.03329,-0.1327694 0,-0.016721 -0.01656,-0.033443 -0.03329,-0.033443 0,0 -0.01673,0 -0.04986,0.016721 h -0.01664 V 2.481095 c 0.08322,-0.033212 0.149644,-0.049779 0.199422,-0.049779 0.01673,0 0.01673,0 0.01673,0.016568 0,0.016721 0,0.0665 -0.03337,0.1661352 l -0.01671,0.083145 c -0.03306,0.1329237 -0.03306,0.1827028 -0.03306,0.199424 0,0.016721 0,0.033135 0.01665,0.033135 0.0164,0 0.04978,0 0.08299,-0.016413 v 0.033135 c -0.06658,0.033057 -0.149413,0.049779 -0.182856,0.049779 m 0.149644,-0.714397 c -0.04978,0 -0.06642,-0.016644 -0.06642,-0.0665 0,-0.049779 0.03306,-0.083068 0.08315,-0.083068 0.03313,0 0.06642,0.033289 0.06642,0.066346 0,0.049856 -0.03329,0.083222 -0.08314,0.083222"
         style="fill:#707374;fill-opacity:1;fill-rule:nonzero;stroke:none;stroke-width:0.07705716"
         id="path12757" />
      <path
         d="m -25.420007,2.9795171 c -0.01665,0.016721 -0.0665,0.016721 -0.09979,0.016721 -0.116355,0 -0.18278,-0.016721 -0.18278,-0.049856 0,0 0,-0.016644 0.01664,-0.083222 l 0.0665,-0.3153951 c 0.03314,-0.099866 0.04978,-0.1662893 0.0665,-0.2826457 0.01665,-0.0665 0.03313,-0.099558 0.03313,-0.1328466 0,-0.016721 -0.01649,-0.016721 -0.03313,-0.016721 0,0 -0.03336,0 -0.04986,0.016721 l -0.01665,-0.05001 h 0.01665 c 0.08299,-0.033058 0.149414,-0.033058 0.166135,-0.033058 h 0.01665 v 0.083067 c 0,0.033289 0,0.049933 -0.01665,0.083068 l -0.03313,0.1828567 c -0.01673,0.066346 -0.01673,0.082913 -0.01673,0.099481 0.01673,-0.016568 0.04986,-0.033135 0.0665,-0.033135 v 0.049856 c -0.03336,0.033366 -0.04978,0.049779 -0.0665,0.066501 -0.01664,0.033135 -0.03329,0.066423 -0.04978,0.1660581 -0.03336,0.083145 -0.03336,0.1329235 -0.03336,0.1496449 0,0.033135 0.03336,0.049779 0.08314,0.049779 0.03314,0 0.04986,-0.016644 0.0665,-0.016644 z m 0,-0.930311 c 0.01671,0 0.01671,0 0.01671,0.016568 0,0.016491 0,0.033058 -0.01671,0.0665 z m 0.116278,0.8805322 c -0.03329,0.033057 -0.0665,0.049779 -0.116278,0.049779 v -0.049779 c 0.03313,-0.016413 0.04978,-0.033135 0.0665,-0.066577 0.0665,-0.082914 0.09963,-0.1992699 0.09963,-0.2989818 0,-0.049779 -0.01673,-0.083068 -0.04986,-0.083068 -0.03329,0 -0.0665,0.016568 -0.09956,0.033289 h -0.01671 v -0.049856 c 0.0665,-0.033212 0.116279,-0.033212 0.166136,-0.033212 0.08315,0 0.116279,0.033212 0.116279,0.1328466 0,0.1162791 -0.0665,0.2822604 -0.166136,0.3655592"
         style="fill:#707374;fill-opacity:1;fill-rule:nonzero;stroke:none;stroke-width:0.07705716"
         id="path12759" />
      <path
         d="m -24.83851,2.7635414 h -0.03313 v 0.0665 c 0,0.066577 0.0164,0.099635 0.0665,0.099635 h 0.06642 v 0.049856 c -0.05001,0.016721 -0.08314,0.016721 -0.11651,0.016721 -0.08291,0 -0.132694,-0.049856 -0.132694,-0.1330776 0,-0.19927 0.09956,-0.3654821 0.249204,-0.4153383 v 0.049856 c -0.05001,0.033365 -0.09979,0.1163562 -0.11651,0.215914 0.05009,0 0.08314,-0.016413 0.11651,-0.016413 v 0.049779 c -0.03337,0.016568 -0.06642,0.016568 -0.09979,0.016568 m 0.09979,-0.3157033 c 0.01649,-0.016568 0.04986,-0.016568 0.08299,-0.016568 0.08315,0 0.132924,0.033289 0.132924,0.099789 0,0.1162793 -0.08315,0.1991928 -0.215914,0.2159143 v -0.049779 c 0.0665,-0.033289 0.116356,-0.083145 0.116356,-0.1494138 0,-0.033366 -0.03337,-0.066654 -0.0665,-0.066654 -0.01671,0 -0.03336,0.016568 -0.04986,0.016568 z m 0,0.4818385 c 0.03313,-0.016413 0.0665,-0.033058 0.116356,-0.0665 l 0.0164,0.050087 c -0.04978,0.016413 -0.09963,0.049548 -0.132768,0.066269 z"
         style="fill:#707374;fill-opacity:1;fill-rule:nonzero;stroke:none;stroke-width:0.07705716"
         id="path12761" />
      <path
         d="m -23.957771,2.6140197 -0.04978,-0.016721 v -0.049471 c 0,-0.016721 -0.01673,-0.050164 -0.04986,-0.050164 -0.01664,0 -0.05001,0.016721 -0.0665,0.033443 -0.05001,0.066192 -0.0665,0.1660581 -0.09979,0.315395 l -0.03313,0.1330006 c -0.04986,0 -0.0665,0 -0.116279,0.016721 0.0164,-0.049856 0.03313,-0.099635 0.03313,-0.149722 l 0.03329,-0.1162022 c 0.01649,-0.099635 0.03313,-0.1494139 0.03313,-0.1824714 0,-0.033443 -0.01664,-0.050164 -0.03313,-0.050164 0,0 -0.01665,0 -0.03329,0.016721 h -0.03313 v -0.033289 c 0.06642,-0.033212 0.149413,-0.049779 0.182702,-0.049779 0.01649,0 0.01649,0 0.01649,0.016568 0.01673,0.016721 0.01673,0.033212 0.01673,0.0665 0.06642,-0.0665 0.116202,-0.083068 0.149646,-0.083068 0.03306,0 0.06642,0.016568 0.09956,0.033289 -0.03313,0.049779 -0.04978,0.099635 -0.04978,0.1494138"
         style="fill:#707374;fill-opacity:1;fill-rule:nonzero;stroke:none;stroke-width:0.07705716"
         id="path12763" />
      <path
         d="m -23.492599,2.5143847 h -0.116279 l -0.04978,0.2822604 c -0.01673,0.0665 -0.01673,0.099943 -0.01673,0.099943 0,0.016721 0,0.033135 0.01673,0.033135 0.01665,0 0.03306,0 0.06642,-0.016413 h 0.01664 v 0.033057 c -0.06642,0.033135 -0.149567,0.049856 -0.182703,0.049856 -0.03336,0 -0.05009,-0.016721 -0.05009,-0.033443 0,-0.033058 0,-0.066192 0.01671,-0.099635 0.01664,-0.049779 0.01664,-0.099635 0.03336,-0.1495678 l 0.04978,-0.1991928 h -0.08315 l 0.01664,-0.049779 c 0.09963,-0.016721 0.116355,-0.083145 0.149415,-0.1660583 l 0.0665,-0.016721 -0.03313,0.1660581 h 0.116355 z"
         style="fill:#707374;fill-opacity:1;fill-rule:nonzero;stroke:none;stroke-width:0.07705716"
         id="path12765" />
      <path
         d="m -23.127072,2.447869 v 0.049779 c -0.04978,0.033443 -0.09956,0.1163564 -0.116279,0.2159143 h 0.01673 c 0.03314,0 0.06642,-0.016413 0.09956,-0.016413 v 0.049856 c -0.03313,0.016568 -0.06642,0.016568 -0.09956,0.016568 h -0.03344 v 0.0665 c 0,0.0665 0.01671,0.099635 0.06658,0.099635 h 0.06642 v 0.049779 c -0.04978,0.016721 -0.08291,0.016721 -0.116279,0.016721 -0.08291,0 -0.132923,-0.049779 -0.132923,-0.1330008 0,-0.1992697 0.09979,-0.3655592 0.249202,-0.415338 m 0,0.2991358 v -0.049856 c 0.0665,-0.033212 0.116279,-0.083145 0.116279,-0.1493367 0,-0.033443 -0.03313,-0.066655 -0.0665,-0.066655 -0.0164,0 -0.03306,0.016489 -0.04978,0.016489 v -0.049779 c 0.03336,-0.016568 0.04978,-0.016568 0.08315,-0.016568 0.08322,0 0.133,0.033289 0.133,0.099789 0,0.1162793 -0.08314,0.1991928 -0.216145,0.2159141 m 0,0.2324815 V 2.929706 c 0.03336,-0.016413 0.0665,-0.033135 0.116279,-0.0665 l 0.01671,0.050087 c -0.04986,0.016413 -0.09963,0.049548 -0.133,0.066192 m 0.0665,-0.6314063 -0.04978,-0.049548 0.166135,-0.183011 0.132924,0.033289 z"
         style="fill:#707374;fill-opacity:1;fill-rule:nonzero;stroke:none;stroke-width:0.07705716"
         id="path12767" />
      <path
         d="m -20.418559,2.2651588 h -0.03329 v -0.033443 c 0,-0.082913 -0.04986,-0.099481 -0.19927,-0.099481 h -0.133001 c -0.01664,0.1162023 -0.04978,0.2158372 -0.06642,0.3323477 h 0.04978 0.166058 c 0.05009,-0.016721 0.08314,-0.049856 0.08314,-0.099789 h 0.04986 c -0.01641,0.083067 -0.04986,0.1994239 -0.04986,0.2658471 h -0.04978 v -0.016644 c 0,-0.066192 -0.03337,-0.082914 -0.149568,-0.082914 h -0.116356 c 0,0.033135 0,0.016721 -0.03314,0.1660582 -0.01664,0.083145 -0.01664,0.1329237 -0.01664,0.1493367 0,0.050087 0.03336,0.066809 0.116279,0.066809 0.182779,0 0.232635,-0.033366 0.282646,-0.149722 l 0.03306,0.016721 c -0.03306,0.082914 -0.0665,0.1661352 -0.08307,0.1825485 -0.01649,0.016721 -0.03321,0.016721 -0.08299,0.016721 h -0.149645 -0.199424 -0.182779 V 2.94642 c 0.05001,0 0.06642,-0.016721 0.08314,-0.033134 0.03313,-0.033366 0.03313,-0.066809 0.06642,-0.149722 0.01672,-0.066423 0.01672,-0.099635 0.04986,-0.2658473 l 0.01665,-0.099481 c 0.03313,-0.1163562 0.03313,-0.1828565 0.03313,-0.2159912 0,-0.066654 -0.01641,-0.083376 -0.08291,-0.099943 v -0.016568 h 0.631329 c 0,0.049856 -0.01649,0.1329237 -0.03321,0.199424 m -0.265924,-0.299059 -0.03313,-0.033134 0.166058,-0.1996551 0.116356,0.033366 z"
         style="fill:#707374;fill-opacity:1;fill-rule:nonzero;stroke:none;stroke-width:0.07705716"
         id="path12769" />
      <path
         d="m -20.01988,2.8133587 h -0.03313 -0.06642 c -0.03321,0.016721 -0.04978,0.033134 -0.04978,0.033134 0,0.016644 0.01657,0.033366 0.08291,0.050087 l 0.06642,0.016721 V 3.029503 c -0.03313,-0.016568 -0.08291,-0.033289 -0.116279,-0.033289 -0.09963,0.016721 -0.166059,0.082913 -0.166059,0.1662892 0,0.082913 0.06642,0.1327695 0.166059,0.1327695 0.03336,0 0.08314,-0.016413 0.116279,-0.033135 v 0.049856 c -0.03313,0.016413 -0.08291,0.033058 -0.13277,0.033058 -0.149568,0 -0.249202,-0.082914 -0.249202,-0.1992699 0,-0.099712 0.08291,-0.1495678 0.182779,-0.1830107 -0.0665,-0.033058 -0.08314,-0.033058 -0.08314,-0.066192 0,-0.033443 0.04978,-0.0665 0.133001,-0.1163562 -0.04986,-0.016644 -0.06658,-0.066654 -0.06658,-0.1162794 0,-0.1328465 0.08314,-0.2160682 0.215914,-0.2326355 v 0.049779 c -0.06642,0.016568 -0.116279,0.083145 -0.116279,0.1662895 0,0.066192 0.03336,0.1162022 0.09987,0.1162022 h 0.01641 z m 0,0.099943 0.03337,0.016413 c 0.116279,0.033058 0.166135,0.066501 0.166135,0.149414 0,0.099789 -0.08299,0.1997322 -0.199501,0.2328667 v -0.049856 c 0.0665,-0.033366 0.11651,-0.083222 0.11651,-0.149722 0,-0.033289 -0.01664,-0.049702 -0.0665,-0.066346 -0.01664,-0.016568 -0.03329,-0.016568 -0.05001,-0.016568 z m 0.282646,-0.398925 h -0.08314 c 0.01664,0.016721 0.01664,0.049856 0.01664,0.082914 0,0.1162793 -0.09963,0.2160683 -0.216145,0.2160683 V 2.76358 c 0.0665,-0.016568 0.11651,-0.083145 0.11651,-0.1662895 0,-0.066192 -0.03329,-0.1162022 -0.09979,-0.1162022 h -0.01672 v -0.049779 h 0.03337 c 0.03313,0 0.04986,0 0.08314,0.016568 h 0.182548 z"
         style="fill:#707374;fill-opacity:1;fill-rule:nonzero;stroke:none;stroke-width:0.07705716"
         id="path12771" />
      <path
         d="m -19.355224,2.9628112 c -0.04978,0.033443 -0.09956,0.033443 -0.149413,0.033443 -0.08322,0 -0.133001,-0.033443 -0.133001,-0.1163565 0,-0.0665 0.03337,-0.1827024 0.08314,-0.2658471 0.0665,-0.082991 0.116279,-0.1329236 0.199269,-0.1662123 v 0.066577 c -0.03313,0.016644 -0.04978,0.049779 -0.08299,0.082914 -0.04978,0.099866 -0.08315,0.1993468 -0.08315,0.2825685 0,0.033366 0.01672,0.0665 0.04986,0.0665 0.03329,0 0.08314,-0.016721 0.116279,-0.033135 z m 0.149645,0.033443 c -0.03313,0 -0.03313,-0.016721 -0.04986,-0.082991 -0.03329,0.016413 -0.06642,0.033135 -0.09979,0.049548 v -0.049548 c 0.03337,-0.016644 0.05001,-0.033366 0.0665,-0.050087 0.01664,-0.016721 0.03329,-0.049779 0.05001,-0.099635 0.01649,-0.083068 0.03313,-0.1662123 0.04978,-0.2491259 -0.03329,-0.016721 -0.0665,-0.033289 -0.08315,-0.033289 -0.03313,0 -0.04978,0.016568 -0.08314,0.033289 v -0.066577 c 0.03337,-0.016489 0.0665,-0.016489 0.116511,-0.016489 0.0665,0 0.116279,0 0.182779,0.016489 l -0.01672,0.033289 c -0.04978,0.1494909 -0.08314,0.3322705 -0.08314,0.3987707 0,0.033366 0.01672,0.049779 0.03337,0.049779 0,0 0.03313,0 0.0665,-0.016413 l 0.01649,0.033135 c -0.08299,0.033135 -0.149491,0.049856 -0.166135,0.049856"
         style="fill:#707374;fill-opacity:1;fill-rule:nonzero;stroke:none;stroke-width:0.07705716"
         id="path12773" />
      <path
         d="m -18.590747,2.1822298 c -0.04978,0.1825485 -0.09963,0.3986937 -0.133078,0.5813191 -0.01657,0.066501 -0.03306,0.1163564 -0.03306,0.1330778 0,0.016644 0.01649,0.033057 0.03306,0.033057 0.01672,0 0.03344,-0.016413 0.0833,-0.016413 v 0.033135 c -0.06658,0.033135 -0.166135,0.049779 -0.199501,0.049779 -0.01664,0 -0.03314,-0.016644 -0.03314,-0.033366 0,-0.016413 0,-0.049548 0.01649,-0.1327694 0.05001,-0.1827025 0.09979,-0.3822036 0.132846,-0.5649061 0.01672,-0.0665 0.01672,-0.1163564 0.01672,-0.1328465 0,-0.016721 0,-0.016721 -0.01672,-0.016721 -0.01657,0 -0.03306,0 -0.06635,0.016721 v -0.05001 c 0.06635,-0.016568 0.149645,-0.033135 0.182702,-0.033135 0.03344,0 0.03344,0 0.03344,0.016568 0,0.016568 0,0.049856 -0.01672,0.1165105"
         style="fill:#707374;fill-opacity:1;fill-rule:nonzero;stroke:none;stroke-width:0.07705716"
         id="path12775" />
      <path
         d="m -18.408037,2.9962231 c -0.01664,0 -0.03314,-0.016721 -0.03314,-0.033443 v -0.066192 c 0.01649,-0.083222 0.04986,-0.1830107 0.06635,-0.2327127 0.01657,-0.066577 0.01657,-0.116048 0.01657,-0.1327694 0,-0.016721 0,-0.033443 -0.01657,-0.033443 -0.01649,0 -0.03321,0 -0.04986,0.016721 h -0.01649 V 2.481095 c 0.06635,-0.033212 0.149491,-0.049779 0.182857,-0.049779 0.01641,0 0.03313,0 0.03313,0.016568 0,0.016721 0,0.0665 -0.03313,0.1661352 l -0.01665,0.083145 c -0.03344,0.1329237 -0.04986,0.1827028 -0.04986,0.199424 0,0.016721 0.01641,0.033135 0.03313,0.033135 0.01672,0 0.03337,0 0.08314,-0.016413 v 0.033135 c -0.08314,0.033057 -0.149722,0.049779 -0.199501,0.049779 m 0.149722,-0.714397 c -0.03337,0 -0.0665,-0.016644 -0.0665,-0.0665 0,-0.049779 0.03313,-0.083068 0.08291,-0.083068 0.04986,0 0.06658,0.033289 0.06658,0.066346 0,0.049856 -0.03321,0.083222 -0.08299,0.083222"
         style="fill:#707374;fill-opacity:1;fill-rule:nonzero;stroke:none;stroke-width:0.07705716"
         id="path12777" />
      <path
         d="m -17.710007,2.5143847 h -0.116356 l -0.04993,0.2822604 c -0.01657,0.0665 -0.01657,0.099943 -0.01657,0.099943 0,0.016721 0,0.033135 0.03329,0.033135 0,0 0.01665,0 0.04978,-0.016413 h 0.01657 l 0.01672,0.033057 c -0.08307,0.033135 -0.149645,0.049856 -0.199424,0.049856 -0.03344,0 -0.04986,-0.016721 -0.04986,-0.033443 0,-0.033058 0.01641,-0.066192 0.01641,-0.099635 0.01672,-0.049779 0.03344,-0.099635 0.03344,-0.1495678 l 0.04978,-0.1991928 h -0.0665 v -0.049779 c 0.09979,-0.016721 0.133077,-0.083145 0.149722,-0.1660583 l 0.06642,-0.016721 -0.03329,0.1660581 h 0.116203 z"
         style="fill:#707374;fill-opacity:1;fill-rule:nonzero;stroke:none;stroke-width:0.07705716"
         id="path12779" />
      <path
         d="m -17.344433,2.447869 v 0.049779 c -0.05009,0.033443 -0.08322,0.1163564 -0.116356,0.2159143 h 0.01641 c 0.03344,0 0.0665,-0.016413 0.09994,-0.016413 v 0.049856 c -0.03344,0.016568 -0.05009,0.016568 -0.08322,0.016568 h -0.04985 v 0.0665 c 0,0.0665 0.01672,0.099635 0.06658,0.099635 h 0.0665 v 0.049779 c -0.03344,0.016721 -0.08322,0.016721 -0.116356,0.016721 -0.08307,0 -0.132847,-0.049779 -0.132847,-0.1330008 0,-0.1992697 0.116126,-0.3655592 0.249203,-0.415338 m 0,0.2991358 v -0.049856 c 0.08291,-0.033212 0.116202,-0.083145 0.116202,-0.1493367 0,-0.033443 -0.01657,-0.066655 -0.06642,-0.066655 -0.01664,0 -0.03337,0.016489 -0.04978,0.016489 v -0.049779 c 0.03313,-0.016568 0.06619,-0.016568 0.08291,-0.016568 0.09979,0 0.149645,0.033289 0.149645,0.099789 0,0.1162793 -0.09979,0.1991928 -0.232559,0.2159141 m 0,0.2324815 V 2.929706 c 0.03313,-0.016413 0.06619,-0.033135 0.116202,-0.0665 l 0.01657,0.050087 c -0.04986,0.016413 -0.08299,0.049548 -0.132769,0.066192 m 0.06619,-0.6314063 -0.04978,-0.049548 0.182857,-0.183011 0.116202,0.033289 z"
         style="fill:#707374;fill-opacity:1;fill-rule:nonzero;stroke:none;stroke-width:0.07705716"
         id="path12781" />
      <path
         d="m -14.652549,2.2651588 h -0.03344 v -0.033443 c 0,-0.033057 -0.01665,-0.049471 -0.03306,-0.066192 -0.01672,-0.033289 -0.06658,-0.033289 -0.166289,-0.033289 h -0.116357 c -0.01641,0.1162023 -0.03313,0.2158372 -0.06658,0.3323477 h 0.0833 c 0.149414,0 0.182702,0 0.215914,-0.099789 h 0.03329 c -0.01672,0.099789 -0.04986,0.1830107 -0.04986,0.2658471 h -0.04993 l 0.01657,-0.016644 c 0,-0.016644 -0.01657,-0.049779 -0.03313,-0.066192 -0.01657,-0.016721 -0.04978,-0.016721 -0.132846,-0.016721 h -0.09963 l -0.01672,0.099558 c -0.01672,0.1329236 -0.03329,0.1994239 -0.03329,0.2325584 0,0.050087 0.03329,0.083222 0.08307,0.083222 v 0.033135 h -0.03306 -0.11651 -0.182548 -0.01672 V 2.946422 c 0.04978,0 0.0665,-0.016721 0.08291,-0.033134 0.03344,-0.033366 0.03344,-0.066809 0.0665,-0.1497221 0.01672,-0.083068 0.01672,-0.1162022 0.04986,-0.2658473 l 0.01672,-0.099481 c 0.03321,-0.1163562 0.03321,-0.1828565 0.03321,-0.2159912 0,-0.066654 -0.01657,-0.083376 -0.08307,-0.099943 v -0.016568 h 0.631484 c -0.01665,0.049856 -0.03337,0.1329236 -0.04978,0.1994239"
         style="fill:#707374;fill-opacity:1;fill-rule:nonzero;stroke:none;stroke-width:0.07705716"
         id="path12783" />
      <path
         d="m -14.170795,2.6140197 -0.04993,-0.016721 v -0.049471 c 0,-0.016721 -0.01641,-0.050164 -0.04986,-0.050164 -0.01641,0 -0.04978,0.016721 -0.0665,0.033443 -0.04986,0.066192 -0.0665,0.1660581 -0.09963,0.315395 l -0.03329,0.1330006 c -0.04978,0 -0.06635,0 -0.116356,0.016721 0.01672,-0.049856 0.01672,-0.099635 0.03329,-0.149722 l 0.03329,-0.1162022 c 0.01657,-0.099635 0.03321,-0.1494139 0.03321,-0.1824714 0,-0.033443 -0.01665,-0.050164 -0.03321,-0.050164 0,0 -0.01657,0 -0.03329,0.016721 h -0.03329 v -0.033289 c 0.06658,-0.033212 0.149645,-0.049779 0.182779,-0.049779 0.01665,0 0.01665,0 0.01665,0.016568 0,0.016721 0.01672,0.033212 0.01672,0.0665 0.0665,-0.0665 0.116357,-0.083068 0.149491,-0.083068 0.03321,0 0.0665,0.016568 0.09971,0.033289 -0.03321,0.049779 -0.04978,0.099635 -0.04978,0.1494138"
         style="fill:#707374;fill-opacity:1;fill-rule:nonzero;stroke:none;stroke-width:0.07705716"
         id="path12785" />
      <path
         d="m -13.772117,2.9628112 c -0.06635,0.033443 -0.09964,0.033443 -0.149336,0.033443 -0.08322,0 -0.133001,-0.033443 -0.133001,-0.1163565 0,-0.0665 0.03313,-0.1827024 0.08291,-0.2658471 0.05009,-0.082991 0.116357,-0.1329236 0.199424,-0.1662123 v 0.066577 c -0.03298,0.016644 -0.0497,0.049779 -0.08307,0.082914 -0.05001,0.099866 -0.08291,0.1993468 -0.08291,0.2825685 0,0.033366 0.01665,0.0665 0.04963,0.0665 0.03329,0 0.08338,-0.016721 0.116356,-0.033135 z m 0.149568,0.033443 c -0.03336,0 -0.03336,-0.016721 -0.04962,-0.082991 -0.03329,0.016413 -0.06665,0.033135 -0.09994,0.049548 v -0.049548 c 0.01657,-0.016644 0.04993,-0.033366 0.06665,-0.050087 0.01657,-0.016721 0.03329,-0.049779 0.03329,-0.099635 0.03298,-0.083068 0.04962,-0.1662123 0.06635,-0.2491259 -0.03337,-0.016721 -0.06635,-0.033289 -0.08307,-0.033289 -0.03329,0 -0.06665,0.016568 -0.08322,0.033289 v -0.066577 c 0.03329,-0.016489 0.06665,-0.016489 0.116203,-0.016489 0.06665,0 0.116356,0 0.18301,0.016489 l -0.01672,0.033289 c -0.04993,0.1494909 -0.08291,0.3322705 -0.08291,0.3987707 0,0.033366 0.01672,0.049779 0.03298,0.049779 0,0 0.03337,0 0.06665,-0.016413 v 0.033135 c -0.06665,0.033135 -0.132924,0.049856 -0.149645,0.049856"
         style="fill:#707374;fill-opacity:1;fill-rule:nonzero;stroke:none;stroke-width:0.07705716"
         id="path12787" />
      <path
         d="m -12.974452,2.5143847 h -0.09948 l -0.06681,0.2822604 c -0.01657,0.0665 -0.01657,0.099943 -0.01657,0.099943 0,0.016721 0.01657,0.033135 0.03329,0.033135 0,0 0.03337,0 0.06619,-0.016413 l 0.01672,0.033057 c -0.08291,0.033135 -0.149183,0.049856 -0.199116,0.049856 -0.01672,0 -0.03344,-0.016721 -0.03344,-0.033443 0,-0.033058 0,-0.066192 0.01672,-0.099635 0,-0.049779 0.01672,-0.099635 0.03329,-0.1495678 l 0.03336,-0.1991928 h -0.06665 v -0.049779 c 0.09963,-0.016721 0.132923,-0.083145 0.149568,-0.1660583 l 0.06627,-0.016721 -0.03283,0.1660581 h 0.116202 z"
         style="fill:#707374;fill-opacity:1;fill-rule:nonzero;stroke:none;stroke-width:0.07705716"
         id="path12789" />
      <path
         d="m -12.692261,2.7635414 h -0.04955 v 0.0665 c 0,0.066577 0.03344,0.099635 0.08299,0.099635 h 0.04993 v 0.049856 c -0.03329,0.016721 -0.08338,0.016721 -0.116202,0.016721 -0.08338,0 -0.133001,-0.049856 -0.133001,-0.1330776 0,-0.19927 0.116279,-0.3654821 0.249203,-0.4153383 v 0.049856 c -0.04993,0.033365 -0.08338,0.1163562 -0.116202,0.215914 h 0.01672 c 0.03283,0 0.06619,-0.016413 0.09948,-0.016413 v 0.049779 c -0.01657,0.016568 -0.04993,0.016568 -0.08338,0.016568 m 0.08338,-0.3157033 c 0.03344,-0.016568 0.06619,-0.016568 0.08291,-0.016568 0.09963,0 0.149799,0.033289 0.149799,0.099789 0,0.1162793 -0.09964,0.1991928 -0.232712,0.2159143 v -0.049779 c 0.08291,-0.033289 0.133077,-0.083145 0.133077,-0.1494138 0,-0.033366 -0.03344,-0.066654 -0.08338,-0.066654 -0.01626,0 -0.03298,0.016568 -0.0497,0.016568 z m 0,0.4818385 c 0.03344,-0.016413 0.08291,-0.033058 0.116356,-0.0665 l 0.01672,0.050087 c -0.05016,0.016413 -0.08338,0.049548 -0.133078,0.066269 z"
         style="fill:#707374;fill-opacity:1;fill-rule:nonzero;stroke:none;stroke-width:0.07705716"
         id="path12791" />
      <path
         d="m -11.828072,2.6140197 -0.0497,-0.016721 c 0.01672,-0.016413 0.01672,-0.033057 0.01672,-0.049471 0,-0.016721 -0.03336,-0.050164 -0.06665,-0.050164 -0.01672,0 -0.03344,0.016721 -0.0497,0.033443 -0.04993,0.066192 -0.08338,0.1660581 -0.116125,0.315395 l -0.01672,0.1330006 c -0.05016,0 -0.06665,0 -0.116356,0.016721 0,-0.049856 0.01672,-0.099635 0.03298,-0.149722 l 0.03321,-0.1162022 c 0.01672,-0.099635 0.01672,-0.1494139 0.01672,-0.1824714 0,-0.033443 0,-0.050164 -0.01672,-0.050164 -0.01649,0 -0.01649,0 -0.03321,0.016721 h -0.03298 l -0.01672,-0.033289 c 0.08291,-0.033212 0.149799,-0.049779 0.182548,-0.049779 0.01672,0 0.03344,0 0.03344,0.016568 v 0.0665 c 0.06619,-0.0665 0.116356,-0.083068 0.166289,-0.083068 0.01672,0 0.04955,0.016568 0.08291,0.033289 -0.01664,0.049779 -0.03337,0.099635 -0.04993,0.1494138"
         style="fill:#707374;fill-opacity:1;fill-rule:nonzero;stroke:none;stroke-width:0.07705716"
         id="path12793" />
      <path
         d="m -11.262943,2.9962231 c -0.03329,0 -0.04993,-0.016721 -0.04993,-0.033443 0,-0.016336 0,-0.049471 0.01664,-0.1162791 l 0.01657,-0.066269 c 0.05016,-0.1662124 0.05016,-0.2324045 0.05016,-0.2491259 0,-0.016721 0,-0.033443 -0.03344,-0.033443 -0.01672,0 -0.04993,0.016721 -0.09963,0.033443 -0.04993,0.033135 -0.08338,0.049779 -0.100097,0.082914 0,0.016644 -0.0161,0.049856 -0.03283,0.1330008 -0.01664,0.099481 -0.03337,0.1662892 -0.05009,0.2324813 -0.04955,0 -0.06619,0 -0.116202,0.016721 0.03329,-0.099635 0.05001,-0.1995779 0.06665,-0.2826457 0.01626,-0.099558 0.03298,-0.1493367 0.03298,-0.1657499 0,-0.033443 -0.01672,-0.050164 -0.03298,-0.050164 -0.01664,0 -0.03337,0 -0.06665,0.016721 v -0.033289 c 0.06665,-0.033212 0.132923,-0.049779 0.166289,-0.049779 0.03283,0 0.04955,0.016568 0.04955,0.083068 0.09963,-0.049779 0.199732,-0.083068 0.282646,-0.083068 0.05009,0 0.06619,0 0.06619,0.033289 0,0.033058 -0.0161,0.083222 -0.04947,0.1827796 -0.01672,0.066192 -0.01672,0.1328466 -0.03344,0.165981 0,0.049779 -0.01672,0.066501 -0.01672,0.083222 0,0.016721 0.01672,0.033135 0.03344,0.033135 0.01672,0 0.05009,0 0.08291,-0.016413 v 0.033135 c -0.08291,0.033057 -0.165827,0.049779 -0.182549,0.049779"
         style="fill:#707374;fill-opacity:1;fill-rule:nonzero;stroke:none;stroke-width:0.07705716"
         id="path12795" />
      <path
         d="m -10.830999,2.9962231 c -0.03298,0 -0.0497,-0.016721 -0.0497,-0.033443 v -0.066192 c 0.03298,-0.083222 0.0497,-0.1830107 0.06627,-0.2327127 0.01672,-0.066577 0.03337,-0.116048 0.03337,-0.1327694 0,-0.016721 -0.01665,-0.033443 -0.03337,-0.033443 -0.01657,0 -0.01657,0 -0.04955,0.016721 h -0.01672 V 2.481095 c 0.08299,-0.033212 0.149183,-0.049779 0.182626,-0.049779 0.03337,0 0.03337,0 0.03337,0.016568 0,0.016721 0,0.0665 -0.03337,0.1661352 l -0.01672,0.083145 c -0.03298,0.1329237 -0.04955,0.1827028 -0.04955,0.199424 0,0.016721 0.01657,0.033135 0.03283,0.033135 0.01672,0 0.05009,0 0.08338,-0.016413 v 0.033135 c -0.06665,0.033057 -0.149568,0.049779 -0.182857,0.049779 m 0.149568,-0.714397 c -0.05009,0 -0.08291,-0.016644 -0.08291,-0.0665 0,-0.049779 0.04955,-0.083068 0.09963,-0.083068 0.03329,0 0.06627,0.033289 0.06627,0.066346 0,0.049856 -0.03298,0.083222 -0.08299,0.083222"
         style="fill:#707374;fill-opacity:1;fill-rule:nonzero;stroke:none;stroke-width:0.07705716"
         id="path12797" />
      <path
         d="m -10.132969,2.5143847 h -0.116665 l -0.06619,0.2822604 c -0.01672,0.0665 -0.01672,0.099943 -0.01672,0.099943 0,0.016721 0.01672,0.033135 0.03329,0.033135 0,0 0.03337,0 0.06635,-0.016413 l 0.01657,0.033057 c -0.08291,0.033135 -0.149568,0.049856 -0.199116,0.049856 -0.01672,0 -0.03344,-0.016721 -0.03344,-0.033443 0,-0.033058 0,-0.066192 0.01672,-0.099635 0,-0.049779 0.01672,-0.099635 0.03329,-0.1495678 l 0.03298,-0.1991928 h -0.06627 v -0.049779 c 0.09963,-0.016721 0.132924,-0.083145 0.16629,-0.1660583 l 0.06627,-0.016721 -0.05001,0.1660581 h 0.116664 z"
         style="fill:#707374;fill-opacity:1;fill-rule:nonzero;stroke:none;stroke-width:0.07705716"
         id="path12799" />
      <path
         d="m -9.7839541,2.447869 v 0.049779 c -0.050087,0.033443 -0.08353,0.1163564 -0.1163562,0.2159143 h 0.01626 c 0.033289,0 0.083376,-0.016413 0.1000971,-0.016413 v 0.049856 c -0.016721,0.016568 -0.050087,0.016568 -0.08353,0.016568 h -0.032826 c -0.016721,0.016644 -0.016721,0.049779 -0.016721,0.0665 0,0.0665 0.032981,0.099635 0.082991,0.099635 h 0.050087 v 0.049779 c -0.033443,0.016721 -0.066809,0.016721 -0.1163562,0.016721 -0.083376,0 -0.1328466,-0.049779 -0.1328466,-0.1330008 0,-0.1992697 0.1161251,-0.3655592 0.2492028,-0.415338 m 0,0.2991358 v -0.049856 c 0.082914,-0.033212 0.1329237,-0.083145 0.1329237,-0.1493367 0,-0.033443 -0.033443,-0.066655 -0.066732,-0.066655 -0.016644,0 -0.049625,0.016489 -0.066192,0.016489 v -0.049779 c 0.032826,-0.016568 0.066192,-0.016568 0.082914,-0.016568 0.099635,0 0.1496449,0.033289 0.1496449,0.099789 0,0.1162793 -0.099635,0.1991928 -0.2325584,0.2159141 m 0,0.2324815 V 2.929706 c 0.032826,-0.016413 0.082914,-0.033135 0.1329237,-0.0665 v 0.050087 c -0.05001,0.016413 -0.083376,0.049548 -0.1329237,0.066192 m 0.066192,-0.6314063 -0.033366,-0.049548 0.1662894,-0.183011 0.1163563,0.033289 z"
         style="fill:#707374;fill-opacity:1;fill-rule:nonzero;stroke:none;stroke-width:0.07705716"
         id="path12801" />
      <path
         d="m -16.214613,2.7469895 c 0.08307,0 0.165981,-0.083068 0.165981,-0.1660582 0,-0.099789 -0.08291,-0.1827025 -0.165981,-0.1827025 -0.09963,0 -0.182857,0.082914 -0.182857,0.1827025 0,0.082991 0.08322,0.1660582 0.182857,0.1660582"
         style="fill:#707374;fill-opacity:1;fill-rule:nonzero;stroke:none;stroke-width:0.07705716"
         id="path12803" />
      <path
         d="m -21.997028,2.7469895 c 0.08291,0 0.166058,-0.083068 0.166058,-0.1660582 0,-0.099789 -0.08314,-0.1827025 -0.166058,-0.1827025 -0.09987,0 -0.18278,0.082914 -0.18278,0.1827025 0,0.082991 0.08291,0.1660582 0.18278,0.1660582"
         style="fill:#707374;fill-opacity:1;fill-rule:nonzero;stroke:none;stroke-width:0.07705716"
         id="path12805" />
      <path
         d="m -22.395968,-0.3103919 c -0.04978,0.0167208 -0.08291,0.0334429 -0.06642,0.0665003 0.03329,0.0498559 0.116279,-0.0165679 0.182701,-0.0165679 -0.08291,0.0331345 -0.182701,0.0165679 -0.249202,0.0829906 0.0665,0.0333656 0.11651,0.0166443 0.166288,0.0166443 0,0.0167208 0.03314,0.0167208 0.03314,0.0331345 -0.0665,0.0331347 -0.116278,0.08322174 -0.132922,0.11635643 -0.01649,0.06650028 -0.08299,0.09978898 -0.116358,0.1495678 v 0.0332887 c -0.132923,0.13292367 -0.282414,0.19942395 -0.398616,0.34883775 0.01664,0 0.01664,0.0165679 0.01664,0.0332887 -0.01664,0.0333658 -0.08322,0.0497791 -0.08322,0.0829135 v 0.0334429 c 0.166136,-0.0498561 0.282415,-0.18285671 0.432061,-0.23255865 0.09963,-0.0167208 0.18278,-0.0832217 0.282413,-0.11635621 0.0665,-0.0166443 0.133001,-0.0333658 0.199501,-0.0500873 0,0.0167208 0,0.0334429 0.01665,0.0334429 h 0.116279 c -0.01672,0.0166443 -0.0665,0 -0.0665,0.0166443 0.04978,0.0498559 0.133,0.0331345 0.182856,0 0.03306,-0.0166443 0.06642,-0.0166443 0.132924,-0.0166443 V 0.2545906 c 0.04978,0.0164128 0.06642,0.0164128 0.116279,0.0164128 0.315781,-0.0661921 0.614762,-0.13276945 0.913898,-0.28233725 -0.349146,-0.26561603 -0.780974,-0.34883776 -1.196544,-0.46519419 0.05009,0 0.08322,0.0330576 0.11628,0 -0.06619,-0.0664232 -0.132693,-0.0331345 -0.199193,-0.0664232 0,0 0.03314,0 0.04978,-0.0166444 -0.116279,-0.0498561 -0.216068,-0.0498561 -0.315703,-0.0831448 0.0665,-0.0164893 0.09963,-0.0665003 0.09963,-0.13284635 0,-0.0167208 -0.03313,-0.0167208 -0.03313,-0.0167208 -0.166136,0.0830675 -0.265923,0.23271265 -0.332424,0.3990019 0.08315,0.0494706 0.199423,0.0164128 0.282568,0.0331347 -0.03337,0.0330574 -0.09979,0.0330574 -0.149645,0.0497788"
         style="fill:#707374;fill-opacity:1;fill-rule:nonzero;stroke:none;stroke-width:0.07705716"
         id="path12807" />
      <path
         d="m -22.944246,-0.82555757 c -0.133,0.13307767 -0.282415,0.28264568 -0.44855,0.36555921 -0.11651,0.23271264 -0.249202,0.44862673 -0.432058,0.68149336 0,0.0164128 0.01649,0.0164128 0.01649,0.0164128 0.31578,-0.34891486 0.614838,-0.64789646 1.030178,-0.9138978 0.01671,0 -0.04978,0.0501641 0,0.0332887 0.183009,-0.0332887 0.232789,-0.21599119 0.31578,-0.34883776 0.09979,-0.16636654 0.282568,-0.23271264 0.415569,-0.38228064 0,0.016568 0,0.033212 -0.01665,0.049933 h 0.04978 c 0.04978,-0.033366 0.11628,-0.016721 0.149645,-0.0665 -0.09987,-0.05001 -0.232789,-0.0665 -0.332424,-0.016721 -0.282416,0.1330776 -0.515205,0.3489919 -0.747763,0.58155034"
         style="fill:#707374;fill-opacity:1;fill-rule:nonzero;stroke:none;stroke-width:0.07705716"
         id="path12809" />
      <path
         d="m -22.744829,-0.57632377 c 0.01671,-0.0164128 0.03313,-0.0331345 0.03313,-0.0495477 v -0.0333658 c -0.0665,0.0165679 -0.09963,0.0665003 -0.116279,0.11635643 0,0.0164893 0.01665,0.0164893 0.03337,0.0164893 0.0164,-0.0164893 0.03313,-0.0164893 0.04978,-0.049933"
         style="fill:#707374;fill-opacity:1;fill-rule:nonzero;stroke:none;stroke-width:0.07705716"
         id="path12811" />
      <path
         d="m -21.681309,0.4374554 c -0.0665,0.0165679 -0.149645,0.0165679 -0.16629,0.0829135 -0.01649,0.0332887 0.03329,0.0165679 0.0665,0.0165679 0.09979,-0.0497788 0.199424,0 0.282568,-0.0829135 -0.03337,-0.0165679 -0.0665,-0.0165679 -0.09979,-0.0500101 -0.01649,-0.0163364 -0.0665,0.0167208 -0.08299,0.0334429"
         style="fill:#707374;fill-opacity:1;fill-rule:nonzero;stroke:none;stroke-width:0.07705716"
         id="path12813" />
      <path
         d="m -20.900389,5.4054614 h -0.149645 -0.149414 -0.04978 v -0.033135 c 0.08291,-0.016568 0.09771,-0.049933 0.113197,-0.1134282 0.0015,0 0.0031,-0.069428 0.0031,-0.2022751 V 4.8073437 4.6910644 c 0,-0.066423 0,-0.099635 -0.01672,-0.1330777 -0.01664,-0.033134 -0.04978,-0.066192 -0.09956,-0.066192 v -0.033443 h 0.04978 0.149414 0.149645 0.03314 v 0.033443 c -0.04978,0 -0.08291,0.049779 -0.09963,0.1162793 v 0.1992697 0.2492799 c 0,0.1830107 0,0.2160683 0.01672,0.2492028 0.01641,0.033289 0.03313,0.049933 0.08291,0.066501 v 0.033135 z"
         style="fill:#707374;fill-opacity:1;fill-rule:nonzero;stroke:none;stroke-width:0.07705716"
         id="path12815" />
      <path
         d="m -17.859151,5.3889094 c -0.01657,0.016568 -0.03329,0.016568 -0.116203,0.016568 h -0.133 -0.216146 -0.199192 v -0.033135 c 0.06642,-0.016568 0.09963,-0.049779 0.09963,-0.1163564 V 5.0898512 4.6910035 c 0,-0.066346 0,-0.099635 -0.01672,-0.1330008 0,-0.033135 -0.03321,-0.066269 -0.08291,-0.066269 v -0.033366 h 0.66454 v 0.1163562 0.099635 h -0.0497 c 0,-0.099635 -0.05009,-0.1327694 -0.216145,-0.1327694 h -0.116279 v 0.165981 0.1661353 h 0.06642 c 0.149414,0 0.18278,-0.033058 0.199501,-0.099635 h 0.04986 v 0.1330777 0.1494138 h -0.04986 c 0,-0.082913 -0.05009,-0.1162791 -0.199501,-0.1162791 -0.01664,0 -0.04978,4.587e-4 -0.06642,4.587e-4 v 0.2821834 c 0,0.049779 0.01664,0.082914 0.04978,0.082914 h 0.08314 c 0.166135,0 0.215914,-0.033135 0.249202,-0.1496452 l 0.04978,0.016568 c -0.01649,0.099943 -0.03306,0.183011 -0.04978,0.2161454"
         style="fill:#707374;fill-opacity:1;fill-rule:nonzero;stroke:none;stroke-width:0.07705716"
         id="path12817" />
      <path
         style="color:#000000;font-style:normal;font-variant:normal;font-weight:normal;font-stretch:normal;font-size:medium;line-height:normal;font-family:sans-serif;font-variant-ligatures:normal;font-variant-position:normal;font-variant-caps:normal;font-variant-numeric:normal;font-variant-alternates:normal;font-feature-settings:normal;text-indent:0;text-align:start;text-decoration:none;text-decoration-line:none;text-decoration-style:solid;text-decoration-color:#000000;letter-spacing:normal;word-spacing:normal;text-transform:none;writing-mode:lr-tb;direction:ltr;text-orientation:mixed;dominant-baseline:auto;baseline-shift:baseline;text-anchor:start;white-space:normal;shape-padding:0;clip-rule:nonzero;display:inline;overflow:visible;visibility:visible;opacity:1;isolation:auto;mix-blend-mode:normal;color-interpolation:sRGB;color-interpolation-filters:linearRGB;solid-color:#000000;solid-opacity:1;vector-effect:none;fill:#707374;fill-opacity:1;fill-rule:nonzero;stroke:none;stroke-width:0.13229167;stroke-linecap:butt;stroke-linejoin:miter;stroke-miterlimit:4;stroke-dasharray:none;stroke-dashoffset:0;stroke-opacity:1;color-rendering:auto;image-rendering:auto;shape-rendering:auto;text-rendering:auto;enable-background:accumulate"
         d="M -27.542969,6.1640625 V 6.296875 H -8.796875 V 6.1640625 Z"
         id="path12819" />
      <path
         style="color:#000000;font-style:normal;font-variant:normal;font-weight:normal;font-stretch:normal;font-size:medium;line-height:normal;font-family:sans-serif;font-variant-ligatures:normal;font-variant-position:normal;font-variant-caps:normal;font-variant-numeric:normal;font-variant-alternates:normal;font-feature-settings:normal;text-indent:0;text-align:start;text-decoration:none;text-decoration-line:none;text-decoration-style:solid;text-decoration-color:#000000;letter-spacing:normal;word-spacing:normal;text-transform:none;writing-mode:lr-tb;direction:ltr;text-orientation:mixed;dominant-baseline:auto;baseline-shift:baseline;text-anchor:start;white-space:normal;shape-padding:0;clip-rule:nonzero;display:inline;overflow:visible;visibility:visible;opacity:1;isolation:auto;mix-blend-mode:normal;color-interpolation:sRGB;color-interpolation-filters:linearRGB;solid-color:#000000;solid-opacity:1;vector-effect:none;fill:#707374;fill-opacity:1;fill-rule:nonzero;stroke:none;stroke-width:0.13229167;stroke-linecap:butt;stroke-linejoin:miter;stroke-miterlimit:4;stroke-dasharray:none;stroke-dashoffset:0;stroke-opacity:1;color-rendering:auto;image-rendering:auto;shape-rendering:auto;text-rendering:auto;enable-background:accumulate"
         d="M -27.626953,-5.3535156 V 14.927734 h 18.9121092 v -0.06445 -20.2167966 z m 0.130859,0.1328125 H -8.8457031 V 14.796875 H -27.496094 Z"
         id="path12821" />
      <text
         id="text12829"
         y="10.042152"
         x="-18.489775"
         style="font-style:normal;font-variant:normal;font-weight:normal;font-stretch:normal;font-size:1.38702881px;line-height:0;font-family:'Liberation Serif';-inkscape-font-specification:'Liberation Serif';font-variant-ligatures:normal;font-variant-position:normal;font-variant-caps:normal;font-variant-numeric:normal;font-variant-alternates:normal;font-feature-settings:normal;text-indent:0;text-align:start;text-decoration:none;text-decoration-line:none;text-decoration-style:solid;text-decoration-color:#000000;letter-spacing:0.23117146px;word-spacing:0px;text-transform:none;writing-mode:lr-tb;direction:ltr;text-orientation:mixed;dominant-baseline:auto;baseline-shift:baseline;text-anchor:start;white-space:normal;shape-padding:0;opacity:1;vector-effect:none;fill:#707374;fill-opacity:1;stroke:none;stroke-width:0.11558576;stroke-linecap:butt;stroke-linejoin:miter;stroke-miterlimit:4;stroke-dasharray:0.2311715, 0.462343;stroke-dashoffset:0;stroke-opacity:1;paint-order:stroke markers fill"
         xml:space="preserve"><tspan
           id="tspan12823"
           style="font-style:normal;font-variant:normal;font-weight:bold;font-stretch:normal;line-height:1.29999995;font-family:'Liberation Serif';-inkscape-font-specification:'Liberation Serif Bold';text-align:center;letter-spacing:0px;text-anchor:middle;fill:#707374;fill-opacity:1;stroke-width:0.11558576"
           y="10.042152"
           x="-18.316397">MINISTRE </tspan><tspan
           id="tspan12827"
           style="font-style:normal;font-variant:normal;font-weight:bold;font-stretch:normal;line-height:1.29999995;font-family:'Liberation Serif';-inkscape-font-specification:'Liberation Serif Bold';text-align:center;letter-spacing:0px;text-anchor:middle;fill:#707374;fill-opacity:1;stroke-width:0.11558576"
           y="11.84529"
           x="-18.489775">DU TRAVAIL</tspan></text>
    </g>
  </g>
</svg>
