<?xml version="1.0" encoding="UTF-8" standalone="no"?>
<svg
   xmlns:dc="http://purl.org/dc/elements/1.1/"
   xmlns:cc="http://creativecommons.org/ns#"
   xmlns:rdf="http://www.w3.org/1999/02/22-rdf-syntax-ns#"
   xmlns:svg="http://www.w3.org/2000/svg"
   xmlns="http://www.w3.org/2000/svg"
   id="svg5782"
   version="1.1"
   viewBox="0 0 25.399999 25.400001"
   height="96"
   width="96">
  <defs
     id="defs5776">
    <clipPath
       id="clipPath20-8"
       clipPathUnits="userSpaceOnUse">
      <path
         id="path18-0-9"
         d="m 541.781,371.848 v 0 h 0.043 z" />
    </clipPath>
  </defs>
  <metadata
     id="metadata5779">
    <rdf:RDF>
      <cc:Work
         rdf:about="">
        <dc:format>image/svg+xml</dc:format>
        <dc:type
           rdf:resource="http://purl.org/dc/dcmitype/StillImage" />
        <dc:title></dc:title>
      </cc:Work>
    </rdf:RDF>
  </metadata>
  <g
     transform="translate(0,-271.59998)"
     id="layer1">
    <rect
       y="271.59998"
       x="0"
       height="25.4"
       width="25.4"
       id="rect6729"
       style="opacity:1;vector-effect:none;fill:none;fill-opacity:1;stroke:none;stroke-width:0.52916676;stroke-linecap:butt;stroke-linejoin:miter;stroke-miterlimit:4;stroke-dasharray:1.05833345, 2.11666688;stroke-dashoffset:0;stroke-opacity:1;paint-order:stroke markers fill" />
    <path
       id="path350"
       d="m 19.105874,279.09641 c -0.164724,0.005 -0.226911,0.009 -0.331061,0.009 -0.107953,-2.4e-4 -0.162981,-0.005 -0.307228,-0.0108 l -0.0193,0.0482 -0.28736,0.67035 2.26e-4,5e-5 -0.28596,0.67025 -2.26e-4,-4e-5 -0.02799,0.066 -0.02784,-0.066 -0.385498,-6.6e-4 0.236299,0.55407 0.07374,9e-5 0.240457,-0.55259 0.29321,-0.67034 -0.06369,-4.6e-4 0.06376,2e-5 0.167022,-0.38477 -9.26e-4,0.3855 -2.26e-4,-4e-5 -0.0023,0.6717 2.26e-4,4e-5 -4.76e-4,0.14949 c -0.0012,0.30311 -0.02494,0.32967 -0.28159,0.3412 l 4.6e-5,0.0831 c 0.209057,-0.006 0.294391,-0.01 0.455964,-0.009 0.159663,4.7e-4 0.245647,0.005 0.463338,0.0129 l 2.26e-4,-0.083 c -0.257596,-0.0133 -0.27777,-0.0401 -0.276753,-0.34313 l 2.09e-4,-0.14989 2.26e-4,4e-5 0.0023,-0.67169 -2.26e-4,-4e-5 9.27e-4,-0.21765 c 0.0012,-0.33324 0.02757,-0.38124 0.234713,-0.40679 l 0.03167,-0.046 z m -1.286757,1.38676 -0.285775,-0.67252 -0.284439,-0.67229 -0.02168,-0.0483 c -0.155547,0.005 -0.218578,0.009 -0.319676,0.009 -0.109367,-2.3e-4 -0.164925,-0.005 -0.309626,-0.0109 l -4.77e-4,0.0482 4.4e-5,0.0348 c 0.02948,0.006 0.05597,0.009 0.07219,0.009 0.181728,0.0219 0.218895,0.0658 0.218047,0.2706 l -9.26e-4,0.35794 0.09778,6.6e-4 9.26e-4,-0.3855 0.164306,0.38611 0.283713,0.6725 z m -0.834478,-0.67446 -0.09784,-2.3e-4 -0.0023,0.6717 -2.26e-4,0.0854 c -0.0012,0.32568 -0.03478,0.38488 -0.23105,0.40744 l -0.03555,0.0812 c 0.14371,-0.007 0.204042,-0.0104 0.32304,-0.0101 0.115684,4.8e-4 0.169654,0.005 0.309785,0.012 l 2.26e-4,-0.0747 c -0.222898,-0.0246 -0.26978,-0.10436 -0.268763,-0.44959 l 1.46e-4,-0.0513 2.25e-4,4e-5 z m -3.411142,-1.31092 c -0.01413,-0.005 -0.02985,-0.007 -0.0466,-0.007 -0.04421,-1.4e-4 -0.06348,0.0114 -0.166732,0.0901 l -0.406141,0.3072 0.09405,2.3e-4 0.458107,-0.17762 c 0.103529,-0.0408 0.13776,-0.0703 0.137968,-0.1201 5.3e-5,-0.0443 -0.02827,-0.0783 -0.07065,-0.0926 z m 2.882844,0.58953 c -0.172035,0.005 -0.240105,0.009 -0.354152,0.009 -0.119452,-4.7e-4 -0.177162,-0.004 -0.329597,-0.011 l 6e-6,0.0482 -4.76e-4,0.0251 c 0.145125,0.0161 0.188778,0.0304 0.237529,0.0749 0.05772,0.0562 0.07375,0.14687 0.07289,0.41353 l -9.26e-4,0.15875 -0.0014,0.34098 c -2.26e-4,0.14191 -0.0035,0.24577 -0.01684,0.33131 -0.01316,0.10357 -0.03795,0.17724 -0.07827,0.24898 -0.08744,0.15613 -0.281838,0.24894 -0.523147,0.24838 -0.181709,-6.6e-4 -0.337237,-0.0573 -0.42953,-0.15572 -0.07735,-0.0832 -0.113834,-0.18075 -0.122407,-0.34863 -0.0016,-0.0416 -0.0051,-0.0854 -0.005,-0.13393 l 0.0018,-0.53526 0.0012,-0.29206 c 9.26e-4,-0.30715 0.02604,-0.33318 0.282065,-0.34387 l -3.7e-5,-0.0345 1.51e-4,-0.0482 c -0.201163,0.005 -0.277461,0.009 -0.457117,0.008 -0.181561,-4.6e-4 -0.260196,-6.5e-4 -0.463913,-0.0116 l 9e-6,0.0486 3.8e-5,0.0345 c 0.259222,0.0122 0.279771,0.0385 0.278749,0.34556 l -0.0012,0.29206 2.25e-4,4e-5 -0.0023,0.5352 c -1.49e-4,0.0494 -3.1e-5,0.0936 0.0018,0.13374 l 0.183726,0.002 -0.183474,6.5e-4 c 0.0091,0.24234 0.05595,0.3416 0.185682,0.45162 0.135144,0.11005 0.351635,0.17089 0.637568,0.17189 0.307337,10e-4 0.519168,-0.0767 0.649135,-0.2417 0.08042,-0.0975 0.121413,-0.19907 0.141711,-0.3762 l 2.26e-4,4e-5 c 0.0073,-0.0909 0.01167,-0.1965 0.01193,-0.33081 l 0.0014,-0.34064 4.76e-4,-0.14916 c 0.0012,-0.38826 0.03749,-0.46713 0.220771,-0.48684 l 0.02444,-0.0346 z m -2.480075,-0.008 -0.124262,0.003 -0.45572,-10e-4 -0.499116,-0.001 -0.380642,-10e-4 -0.07336,-0.004 -1.51e-4,0.0489 3.3e-5,0.0341 c 0.25777,0.0125 0.277647,0.0387 0.276624,0.34586 l -0.0012,0.29207 -0.0021,0.67136 0.365138,0.001 0.0016,-0.40401 0.07009,-0.003 c 0.275348,6.6e-4 0.364146,0.0724 0.404825,0.33053 l 0.04994,-0.59355 0.01874,-0.19345 c -0.04544,0.0909 -0.07172,0.14977 -0.09828,0.19302 l 2.26e-4,4e-5 c -0.02768,0.0468 -0.0511,0.0728 -0.0893,0.10226 -0.0711,0.0555 -0.150998,0.0733 -0.356166,0.0759 l 7.14e-4,-0.17944 -2.25e-4,-4e-5 0.0018,-0.49945 c 2.26e-4,-0.10723 4.77e-4,-0.11383 0.04992,-0.11343 l 0.117009,-0.003 c 0.326871,6.6e-4 0.399191,0.0108 0.486829,0.055 0.09119,0.0532 0.122078,0.10808 0.16584,0.30814 l 0.06955,4.7e-4 0.0014,-0.41612 z m -1.25987,1.38674 -2.08e-4,0.14955 c -0.0014,0.3033 -0.02129,0.33008 -0.279581,0.34155 l 4.6e-5,0.0831 0.0857,-10e-4 c 0.04303,-0.003 0.171979,-0.002 0.38385,-0.001 l 0.649609,0.003 c 0.268532,6.6e-4 0.333716,6.6e-4 0.547714,0.005 l 0.0192,-0.48909 -0.08679,-4.7e-4 c -0.03356,0.30223 -0.16511,0.39982 -0.527922,0.39848 -0.1265,-4.7e-4 -0.196847,-0.0105 -0.263201,-0.0315 -0.127964,-0.041 -0.164157,-0.12622 -0.163382,-0.37008 l 8.9e-5,-0.0854 z m -0.634629,-1.3932 -0.07714,-2.3e-4 -0.01385,0.0485 -0.01827,0.0657 c -0.0446,-0.0256 -0.08249,-0.0463 -0.118113,-0.0642 l -0.283783,-0.003 c 0.13006,0.0148 0.244033,0.0817 0.311763,0.18981 0.06281,0.0962 0.08288,0.14196 0.120165,0.30722 l 0.07714,2.3e-4 5.6e-5,-0.0758 7.14e-4,-0.19428 9.26e-4,-0.19389 1.73e-4,-0.0317 -2.25e-4,-4e-5 z m -0.418891,-0.0263 c -0.05894,-0.014 -0.117513,-0.019 -0.188875,-0.0193 -0.13791,-4.6e-4 -0.257615,0.032 -0.352938,0.0906 h -0.0038 c -0.151263,0.0946 -0.241395,0.252 -0.242066,0.44787 -9.6e-5,0.0817 0.01534,0.15496 0.04875,0.22276 l -5.9e-5,4.6e-4 2.27e-4,4e-5 c 0.02089,0.042 0.0462,0.0816 0.07901,0.12097 0.08211,0.0961 0.178957,0.15831 0.404813,0.26505 0.219618,0.10609 0.293208,0.15114 0.354705,0.20989 0.023,0.0213 0.04166,0.0476 0.05737,0.0782 0.02632,0.0515 0.04207,0.11236 0.04185,0.16879 -4.77e-4,0.21023 -0.172799,0.36346 -0.410525,0.3626 -0.215638,-6.6e-4 -0.408011,-0.12463 -0.489724,-0.31641 -0.03431,-0.0805 -0.0455,-0.116 -0.06376,-0.21786 -0.0012,-0.0167 -0.0029,-0.0336 -0.0078,-0.0545 l -0.08612,-2.2e-4 -9.27e-4,0.0543 -0.01557,0.53248 0.07687,-5e-5 0.04863,-0.10815 c 0.189247,0.14043 0.354675,0.19771 0.575953,0.19845 0.423745,10e-4 0.703005,-0.23604 0.704404,-0.5913 -1.29e-4,-0.008 -4.77e-4,-0.0182 -4.77e-4,-0.0266 -0.0075,-0.14651 -0.06681,-0.28454 -0.16536,-0.38216 -0.09543,-0.0874 -0.235379,-0.1737 -0.484026,-0.28851 -0.0037,-0.001 -0.0041,-0.003 -0.0086,-0.003 l -7.14e-4,-1.3e-4 c -0.286591,-0.13162 -0.368618,-0.21397 -0.367886,-0.37322 4.76e-4,-0.1538 0.110095,-0.26979 0.274528,-0.29592 l -0.162024,-0.002 0.162048,-2.3e-4 c 0.02382,-10e-4 0.04754,-0.004 0.0734,-0.004 0.0193,-8e-5 0.03744,0.001 0.05596,0.003 l 0.283962,0.002 c -0.07321,-0.0366 -0.132588,-0.0599 -0.19152,-0.0739 z m -1.03021,0.0213 c -0.172488,0.005 -0.239834,0.009 -0.354149,0.009 -0.119184,-6.5e-4 -0.175941,-0.005 -0.3288702,-0.0112 l -4.76e-4,0.0485 0.6465422,0.002 z m -0.6834222,0.046 1.28e-4,0.0248 c 0.1429912,0.0161 0.1874002,0.0307 0.2384742,0.0754 0.0573,0.0559 0.07097,0.14695 0.07016,0.41339 l -4.76e-4,0.15881 -2.26e-4,-4e-5 -0.0012,0.3407 c -4.76e-4,0.14209 -0.0044,0.24573 -0.01543,0.33122 -0.01459,0.10378 -0.03733,0.17721 -0.08002,0.24901 -0.08813,0.15601 -0.2821452,0.24935 -0.5231442,0.24838 -0.182248,-6.6e-4 -0.337929,-0.057 -0.427858,-0.15542 -0.07779,-0.0829 -0.11338,-0.18041 -0.123164,-0.34635 -3e-5,-4.7e-4 -6.5e-5,-6.6e-4 1.4e-5,-10e-4 -3e-5,-4.7e-4 -6.7e-5,-6.5e-4 1.2e-5,-0.001 -0.003,-0.0414 -0.0045,-0.0851 -0.0044,-0.13348 l 0.0016,-0.53532 0.0012,-0.29206 c 0.0012,-0.30711 0.02488,-0.33303 0.279997,-0.34389 l -3.3e-5,-0.0341 4.76e-4,-0.0485 c -0.199754,0.005 -0.27508,0.009 -0.454053,0.008 -0.182471,-6.6e-4 -0.261694,-6.6e-4 -0.464916,-0.0118 l 1.2e-5,0.0486 3.7e-5,0.0345 c 0.257777,0.0125 0.279047,0.0387 0.278023,0.34577 l -0.0012,0.29207 2.26e-4,3e-5 -0.0018,0.53493 c -1.49e-4,0.0496 -4.76e-4,0.0935 0.0021,0.13379 l 0.167547,10e-4 -0.167633,6.6e-4 c 0.01008,0.2425 0.05593,0.34149 0.187075,0.45153 0.134693,0.10996 0.351312,0.17105 0.635113,0.17214 0.308059,6.5e-4 0.5192122,-0.077 0.6498642,-0.24192 0.08105,-0.0974 0.122275,-0.19902 0.14098,-0.37598 l 7.15e-4,1.2e-4 c 0.0073,-0.0909 0.01355,-0.19675 0.01399,-0.33079 l 0.0012,-0.3407 6e-5,-4.7e-4 4.76e-4,-0.14882 c 0.0014,-0.38821 0.03616,-0.46736 0.218766,-0.48719 l 0.02466,-0.0338 z m -1.65748,-0.054 c -0.164495,0.005 -0.225677,0.009 -0.331724,0.009 -0.105595,-2.3e-4 -0.163001,-0.005 -0.306563,-0.0107 l -0.01997,0.0481 -0.285296,0.67039 2.26e-4,4e-5 -0.288415,0.6705 -0.02893,0.0655 -0.0269,-0.0655 6e-5,-2.2e-4 -2.25e-4,-4e-5 -0.285441,-0.67246 -0.285833,-0.67219 -0.02062,-0.0485 c -0.154177,0.006 -0.215607,0.01 -0.319068,0.009 -0.108411,-2.3e-4 -0.166394,-0.005 -0.309234,-0.0112 l -4.76e-4,0.0485 3.3e-5,0.0341 c 0.03157,0.007 0.05718,0.009 0.07314,0.009 0.178869,0.0221 0.217994,0.0657 0.217375,0.27048 l -0.0012,0.35789 -6.2e-5,2.2e-4 -0.0023,0.67171 -9.1e-5,0.0851 c -0.0014,0.32566 -0.03595,0.38549 -0.23077,0.40784 l -0.03475,0.0806 c 0.142987,-0.006 0.202054,-0.01 0.318461,-0.01 0.11686,4.7e-4 0.172035,0.005 0.312844,0.0121 l 2.26e-4,-0.0751 c -0.224767,-0.0247 -0.270345,-0.10446 -0.269101,-0.44965 l 1.46e-4,-0.051 6e-5,-2.2e-4 0.0021,-0.67137 5.8e-5,-4.7e-4 0.0012,-0.3851 0.163696,0.38566 -6.2e-5,4.6e-4 2.26e-4,4e-5 0.284776,0.67234 0.23457,0.55411 0.07541,4.6e-4 0.240118,-0.55264 0.291881,-0.67058 0.168023,-0.38459 -0.0012,0.3851 -0.0023,0.6717 -5.8e-5,2.3e-4 -4.76e-4,0.14949 c -0.0012,0.30311 -0.02479,0.32935 -0.280527,0.34103 l -2.25e-4,0.083 c 0.209822,-0.007 0.295146,-0.01 0.454624,-0.01 0.157304,6.6e-4 0.247271,0.005 0.464736,0.0127 l -2.1e-5,-0.0827 c -0.257611,-0.0133 -0.278454,-0.0401 -0.277438,-0.34326 l 9.26e-4,-0.14976 -2.26e-4,-4e-5 0.0021,-0.67137 2.26e-4,4e-5 4.76e-4,-0.21771 c 0.0012,-0.33324 0.02806,-0.3815 0.236132,-0.40689 l 0.03126,-0.0458 z m 12.8855332,3.05412 c -0.212181,0.007 -0.296968,0.007 -0.463678,0.007 -0.160117,-6.6e-4 -0.245333,-0.002 -0.457352,-0.01 l -1.74e-4,0.0819 c 0.259397,0.0139 0.278674,0.0401 0.277742,0.34537 l -7.15e-4,0.18809 -0.0023,0.66996 -8.46e-4,0.25732 c -0.0014,0.30235 -0.02059,0.32758 -0.279714,0.33843 l -7.15e-4,0.0719 1.74e-4,4e-5 9.6e-5,0.0148 c 0.131141,-0.006 0.153575,-0.006 0.445143,-0.005 l 0.677888,0.003 c 0.330376,10e-4 0.369328,10e-4 0.561742,0.008 l -1.59e-4,-0.0145 0.0227,-0.49123 -0.07368,-4.7e-4 c -0.05271,0.21456 -0.08713,0.27702 -0.200257,0.34126 -0.08792,0.0482 -0.206564,0.0722 -0.39985,0.0716 -0.18034,-6.6e-4 -0.284005,-0.0334 -0.33935,-0.10685 -0.03981,-0.0497 -0.05212,-0.12388 -0.05119,-0.30936 l 7.14e-4,-0.17705 0.0023,-0.66997 6.2e-5,-2.3e-4 7.15e-4,-0.18809 c 8.46e-4,-0.30524 0.02339,-0.33131 0.280614,-0.34343 z m -2.187264,-0.0519 -0.116352,-6.6e-4 -0.269705,0.65834 -0.271943,0.66897 -0.05584,0.13305 c -0.107314,0.26199 -0.167099,0.35717 -0.242775,0.41327 -0.04027,0.0305 -0.07839,0.0419 -0.172642,0.0519 l 6.7e-5,0.0686 0.685421,0.003 4.76e-4,-0.0688 c -0.183912,-0.011 -0.241758,-0.045 -0.241735,-0.14386 1.23e-4,-0.0649 0.03975,-0.20432 0.108523,-0.37179 l 0.03612,-0.0845 7.14e-4,-0.005 0.691666,0.003 0.0014,0.005 2.25e-4,4e-5 0.07673,0.20122 c 0.04121,0.10642 0.07187,0.23567 0.0716,0.28197 -2.26e-4,0.0846 -0.05026,0.11074 -0.236882,0.1162 l -1.16e-4,0.0689 0.924548,0.003 1.16e-4,-0.0686 c -0.167973,-0.0225 -0.23976,-0.067 -0.283888,-0.17413 l -0.07254,-0.18807 -0.09541,-0.23937 -0.271964,-0.67074 z m 0.06506,1.99758 -2.08e-4,0.0145 c 0.216662,-0.009 0.29951,-0.011 0.461265,-0.0102 0.157801,4.8e-4 0.24583,0.003 0.463221,0.0135 l -1.58e-4,-0.0145 z m -0.508765,-0.001 -0.685476,-0.003 1.59e-4,0.0145 c 0.158643,-0.01 0.222242,-0.0114 0.346647,-0.0111 0.129544,4.7e-4 0.190819,0.003 0.338827,0.0134 z m -0.943395,-1.95645 c -0.165878,0.007 -0.230435,0.007 -0.332484,0.007 -0.106049,-4.8e-4 -0.165621,-0.002 -0.31439,-0.009 l -2.26e-4,0.0819 c 0.247898,0.0361 0.2905,0.11906 0.289196,0.51459 l 4.3e-5,0.019 -0.0026,0.6699 0.09265,4.7e-4 0.0026,-0.66991 -4.9e-5,-0.0193 c 0.0016,-0.45196 0.01813,-0.49264 0.220587,-0.50892 z m -0.268075,1.28351 -0.09238,4e-5 -9.26e-4,0.22937 -0.188067,-0.23009 -0.54266,-0.67192 -1.64e-4,-4.8e-4 -0.501315,-0.61593 c -0.144291,0.007 -0.196551,0.007 -0.288698,0.007 -0.09478,-2.3e-4 -0.146445,-10e-4 -0.268594,-0.009 l -9.2e-5,0.082 c 0.232778,0.0101 0.308487,0.0852 0.307485,0.31589 l -4.76e-4,0.21771 -5.5e-5,2.2e-4 -0.0018,0.6697 -2.26e-4,-4e-5 4.3e-5,0.0986 c -0.0016,0.42043 -0.03076,0.47241 -0.253364,0.49755 l -0.02828,0.0714 0.670303,0.003 1.23e-4,-0.0644 c -0.257825,-0.0305 -0.297495,-0.10948 -0.296211,-0.5062 l -4.1e-5,-0.0986 2.27e-4,4e-5 0.0018,-0.67035 7.14e-4,-0.25319 0.209982,0.25399 0.54991,0.67184 0.548479,0.67021 0.04918,0.0584 0.123332,4.8e-4 8.6e-5,-0.0579 -2.26e-4,-4e-5 0.0027,-0.66851 z m -1.860311,0.6621 -0.0058,0.0148 c 0.151784,-0.009 0.209422,-0.0115 0.337331,-0.011 0.130493,4.7e-4 0.187214,0.003 0.338496,0.0133 l 2.08e-4,-0.0145 z m 3.330911,-1.56 0.08757,0.23314 0.209422,0.55788 -0.614529,-0.002 0.223207,-0.55637 z m -4.637832,-0.42973 c -0.05721,-0.008 -0.116132,-0.0127 -0.176562,-0.0129 -0.486992,-10e-4 -0.889418,0.26441 -1.046985,0.65483 l 0.411812,0.003 c 0.08166,-0.36068 0.299453,-0.56899 0.617831,-0.56783 0.311476,10e-4 0.526226,0.20801 0.612282,0.57165 l -5.9e-5,4.8e-4 c 0.02669,0.11623 0.03925,0.24764 0.03872,0.39259 -4.77e-4,0.10039 -0.0066,0.1923 -0.022,0.27732 -0.06658,0.40925 -0.284745,0.63749 -0.620749,0.63624 -0.338599,-10e-4 -0.56265,-0.23394 -0.635128,-0.64054 -0.01904,-0.0975 -0.02886,-0.20668 -0.02853,-0.32427 4.76e-4,-0.12627 0.01431,-0.24064 0.03792,-0.34511 l -0.412204,-0.002 c -0.04483,0.11387 -0.07002,0.23955 -0.0706,0.37169 -5.8e-5,0.10373 0.01299,0.20405 0.04178,0.29836 l -2.26e-4,-4e-5 c 0.09728,0.31527 0.345577,0.56223 0.674876,0.67075 l 2.26e-4,4e-5 c 0.116187,0.0384 0.243251,0.0588 0.376837,0.0591 0.136357,6.6e-4 0.26225,-0.019 0.380932,-0.0563 0.328567,-0.10454 0.574392,-0.3477 0.673041,-0.66652 0.02974,-0.10056 0.04593,-0.20743 0.04662,-0.32048 2.3e-5,-0.12445 -0.01962,-0.24124 -0.05814,-0.34955 -0.126905,-0.34385 -0.44123,-0.59177 -0.84169,-0.64955 z m -1.69776,0.0267 c -0.219988,0.007 -0.306373,0.007 -0.464404,0.007 -0.161303,-6.6e-4 -0.247685,-10e-4 -0.459078,-0.01 l -9.3e-5,0.082 c 0.259438,0.0136 0.281066,0.0396 0.279867,0.34507 l -7.14e-4,0.18809 0.362745,10e-4 4.76e-4,-0.18774 c 9.26e-4,-0.30547 0.02298,-0.33163 0.28061,-0.34344 z m -0.644348,0.61204 -0.0023,0.67029 -7.14e-4,0.25665 c -0.0012,0.30239 -0.02286,0.32809 -0.282171,0.33867 l -4.76e-4,0.072 4.1e-5,0.0152 c 0.215569,-0.009 0.297547,-0.0118 0.456262,-0.0112 0.155661,4.8e-4 0.243817,0.003 0.466615,0.0138 l 2.09e-4,-0.0145 6.3e-5,-4.7e-4 1.12e-4,-0.0717 c -0.25804,-0.0123 -0.279034,-0.0382 -0.277911,-0.34059 l 7.15e-4,-0.25663 0.0023,-0.67031 z m -0.62564,-0.61645 -0.150693,0.003 c -0.18996,0.005 -0.44407,0.007 -0.756586,0.006 -0.3312862,-0.001 -0.6026222,-0.005 -0.8145062,-0.0112 l -0.16652,-0.003 -0.01763,0.4725 0.07201,1.2e-4 c 0.03255,-0.29653 0.111919,-0.36617 0.414076,-0.36508 l 0.125057,2.3e-4 c 0.09405,4.5e-4 0.1265242,0.006 0.1507842,0.028 0.0158,0.0129 0.01811,0.031 0.01751,0.14479 l -0.0012,0.33619 0.360673,10e-4 0.0012,-0.32967 c 4.76e-4,-0.10532 0.003,-0.12963 0.01093,-0.14797 0.01019,-0.0255 0.04996,-0.0301 0.153188,-0.0298 l 0.135051,2.3e-4 c 0.280291,6.6e-4 0.37401,0.0842 0.404714,0.36775 l 0.07608,4.7e-4 z m -3.1303292,-0.0554 -0.116743,-4.5e-4 -0.268978,0.65813 -0.27513,0.66944 -2.26e-4,-4e-5 -0.05411,0.13302 c -0.107309,0.26198 -0.165894,0.35691 -0.241985,0.41271 -0.04176,0.0309 -0.07919,0.0425 -0.173489,0.0527 l 2.26e-4,0.0683 -2.09e-4,0.0148 c 0.15933,-0.009 0.222863,-0.0115 0.345594,-0.011 0.130266,4.8e-4 0.190792,0.003 0.341616,0.0132 l 2.09e-4,-0.0144 5.6e-5,-2.3e-4 1.16e-4,-0.0686 c -0.185778,-0.0111 -0.244114,-0.0448 -0.243863,-0.14355 4.76e-4,-0.0651 0.04122,-0.20464 0.108582,-0.37213 l 0.03615,-0.0845 -1.7e-5,-0.005 0.691668,0.003 0.0024,0.006 0.07819,0.20079 c 0.04025,0.10649 0.07298,0.23587 0.07293,0.28222 -2.26e-4,0.0849 -0.05516,0.11102 -0.240341,0.11628 l -1.18e-4,0.0685 -2.07e-4,0.0148 c 0.214807,-0.009 0.301249,-0.0112 0.464454,-0.0107 0.158032,4.7e-4 0.245599,0.003 0.461768,0.014 l -10e-5,-0.0148 1.18e-4,-0.0686 c -0.170793,-0.0225 -0.240467,-0.0668 -0.284554,-0.17426 l -0.07286,-0.18812 -0.09514,-0.23897 -0.270845,-0.67124 -0.363129,-6.6e-4 0.207752,0.55758 -0.612737,-0.003 0.223873,-0.55624 0.09187,-0.23242 0.0893,0.23309 0.363071,10e-4 z m 2.3633232,0.66725 -0.360674,-10e-4 -0.0023,0.66997 -2.26e-4,-4e-5 -7.14e-4,0.25698 c -9.26e-4,0.30242 -0.02454,0.32793 -0.2801052,0.3387 l -2.26e-4,0.0716 10e-5,0.0148 c 0.2117982,-0.009 0.2971062,-0.011 0.4544112,-0.0104 0.158754,4.7e-4 0.245586,0.003 0.463888,0.0137 l 2.08e-4,-0.0148 -2.25e-4,-4e-5 4.76e-4,-0.072 c -0.258002,-0.0125 -0.27847,-0.0381 -0.277577,-0.34052 l 7.15e-4,-0.25665 z m -3.7518672,-0.62736 c -0.166606,0.007 -0.231832,0.008 -0.333883,0.007 -0.106775,-2.2e-4 -0.164569,-10e-4 -0.311656,-0.009 l -9.5e-5,0.0817 c 0.24672,0.0361 0.287438,0.11886 0.28613,0.51439 l 4.8e-5,0.0193 -0.0026,0.66991 2.26e-4,4e-5 -9.26e-4,0.22936 -0.187064,-0.2299 -2.26e-4,-5e-5 -0.543659,-0.6721 -0.448526,-0.001 0.550582,0.67196 0.549146,0.67032 2.26e-4,5e-5 0.0465,0.058 0.125395,2.3e-4 4.77e-4,-0.0578 0.0024,-0.66859 -2.27e-4,-4e-5 0.0026,-0.6699 -4.9e-5,-0.0193 c 0.0016,-0.45218 0.01927,-0.49243 0.220582,-0.50892 z m -1.093875,0.6106 -0.500585,-0.61615 c -0.143026,0.007 -0.195854,0.008 -0.290822,0.007 -0.09264,-2.3e-4 -0.143675,-0.001 -0.265863,-0.009 l -9.4e-5,0.0817 c 0.234913,0.01 0.307929,0.0851 0.307155,0.31582 l -4.68e-4,0.21772 -0.0023,0.67031 -2.25e-4,-4e-5 3.8e-5,0.0986 c -0.0012,0.42024 -0.02828,0.47205 -0.250846,0.49697 l -0.02975,0.0719 -2.26e-4,-4e-5 -0.0058,0.0148 c 0.151596,-0.01 0.211414,-0.0114 0.336997,-0.0111 0.130042,4.8e-4 0.188067,0.003 0.336766,0.0133 l 2.09e-4,-0.0148 1.25e-4,-0.0647 c -0.256917,-0.0307 -0.294036,-0.10988 -0.292751,-0.50659 l 4.69e-4,-0.0985 0.0018,-0.67004 0.0012,-0.25312 0.206919,0.25379 z m 17.0312762,2.4539 -0.122289,0.001 -0.455054,-0.001 -0.500846,-0.002 -0.378581,-10e-4 -0.07366,-0.003 -1.74e-4,0.0806 c 0.25713,0.0121 0.276406,0.0406 0.275291,0.34563 l -1.74e-4,0.0854 0.364804,0.001 8.46e-4,-0.29212 c 1.74e-4,-0.10605 7.15e-4,-0.11399 0.05171,-0.11379 l 0.113429,-0.002 c 0.328469,10e-4 0.402366,0.0118 0.4899,0.0552 0.09081,0.0527 0.121023,0.1081 0.165386,0.30873 l 0.06822,8e-5 z m -1.255866,0.5065 -0.0021,0.66962 -6.4e-5,3.5e-4 -0.0012,0.3596 c -7.15e-4,0.18907 -0.0091,0.27033 -0.07664,0.30719 l 0.61832,0.002 c -0.0043,1.8e-4 -0.0086,-10e-4 -0.0136,-10e-4 -0.125505,-0.0429 -0.163937,-0.12815 -0.162747,-0.37169 l 7.15e-4,-0.29492 7.14e-4,-0.19461 0.072,-0.004 c 0.219143,6.6e-4 0.319171,0.046 0.3719,0.19851 l 0.04149,0.001 0.05832,-0.65582 c -0.09307,0.19419 -0.115375,0.23889 -0.186952,0.29575 -0.07068,0.0558 -0.150441,0.0735 -0.356438,0.0755 l 0.0012,-0.38649 z m 0.848617,0.6725 -0.04139,1.9e-4 c 0.01501,0.0358 0.02348,0.0791 0.03161,0.12973 z m -0.928724,0.66426 c -0.04188,0.0224 -0.103206,0.0284 -0.200977,0.033 l -9.1e-5,0.0841 0.08375,-0.002 c 0.04329,-0.003 0.173153,-0.003 0.385978,-0.002 l 0.647877,0.003 c 0.26899,10e-4 0.333641,10e-4 0.547474,0.007 l 0.0062,-0.11778 -0.336518,-0.001 c -0.07098,0.0193 -0.156076,0.0269 -0.265667,0.0266 -0.115912,-5.1e-4 -0.186688,-0.009 -0.249411,-0.0277 z m 1.470132,0.005 0.01381,-0.37219 -0.08439,-2.6e-4 c -0.02562,0.21306 -0.09796,0.32399 -0.265752,0.37022 z m -2.844758,-1.83006 c -0.08312,-0.0182 -0.183799,-0.0258 -0.316201,-0.0262 l -0.215664,10e-4 -0.212938,0.001 c -0.08606,-3.1e-4 -0.156057,-6.6e-4 -0.36357,-0.006 l -0.123636,-0.003 -2.26e-4,0.0809 c 0.256218,0.012 0.278864,0.0404 0.277747,0.34538 l -2.25e-4,0.0854 -0.0021,0.66964 -5.8e-5,3.2e-4 -9.26e-4,0.33831 c -7.14e-4,0.20535 -0.0081,0.29022 -0.0766,0.32821 l -9.26e-4,1.6e-4 c -0.04261,0.0225 -0.105335,0.0286 -0.202375,0.0331 l -9.4e-5,0.0841 c 0.208885,-0.008 0.289238,-0.01 0.452446,-0.009 0.159664,5.3e-4 0.247428,0.003 0.467917,0.0123 l 9.1e-5,-0.0841 c -0.09506,-0.005 -0.160459,-0.0118 -0.200633,-0.0345 -0.06909,-0.0373 -0.07656,-0.11875 -0.07598,-0.30759 l 0.0012,-0.35994 4.76e-4,-0.10675 c 0.08546,-0.004 0.124347,0.0156 0.198444,0.10647 l 0.426925,0.003 -0.149382,-0.17078 c 0.149871,-0.0276 0.190573,-0.0387 0.274641,-0.0826 0.149167,-0.075 0.246009,-0.23603 0.248653,-0.41531 1.74e-4,-0.003 1.45e-4,-0.005 1.39e-4,-0.006 7.15e-4,-0.16153 -0.07214,-0.30323 -0.195235,-0.38853 -0.06278,-0.043 -0.128289,-0.0716 -0.211416,-0.0898 z m 0.03268,1.15322 -0.427104,-0.001 c 0.0094,0.009 0.01577,0.0214 0.02659,0.0344 l 0.503159,0.63454 1.74e-4,4e-5 0.535264,0.002 c -0.07082,-0.0303 -0.126388,-0.0796 -0.203495,-0.17079 z m 0.102981,0.66743 0.093,0.11796 c 0.128417,-0.008 0.179662,-0.01 0.284983,-0.009 0.106548,2.1e-4 0.15175,0.003 0.275372,0.0117 l 1.74e-4,-0.0813 c -0.04513,-0.009 -0.08422,-0.0215 -0.118277,-0.0363 z m -0.415381,-1.74623 c 0.167399,0.0403 0.262899,0.18214 0.272592,0.40891 l -2.26e-4,-4e-5 c -2.08e-4,0.0148 2.26e-4,0.0311 -2.5e-5,0.0462 -0.0012,0.29461 -0.145644,0.41834 -0.480286,0.41734 l -0.104729,-0.002 0.0018,-0.46324 -2.26e-4,-3e-5 0.0012,-0.28209 c 4.76e-4,-0.13354 0.0076,-0.14459 0.111249,-0.14416 l 0.122624,0.008 c 0.02681,0.001 0.05232,0.005 0.07623,0.0112 z m -1.448609,-0.10805 c -0.219729,0.004 -0.304469,0.006 -0.461771,0.005 -0.162256,-5.3e-4 -0.246446,-0.001 -0.457591,-0.008 l 1.9e-5,0.081 c 0.254807,0.0119 0.27723,0.0404 0.276348,0.34547 l -2.27e-4,0.0854 -0.0018,0.6697 -0.0012,0.35995 c -7.15e-4,0.18906 -0.0089,0.27021 -0.0797,0.30697 -0.04002,0.0225 -0.105646,0.0286 -0.199643,0.0332 l -9e-5,0.0837 c 0.211925,-0.007 0.295232,-0.01 0.454166,-0.009 0.153576,4.2e-4 0.243335,0.003 0.465466,0.0125 l 9.1e-5,-0.0844 c -0.09788,-0.005 -0.158948,-0.0116 -0.201028,-0.0342 l -2.26e-4,-4e-5 c -0.06886,-0.0373 -0.07623,-0.11869 -0.07564,-0.30753 l 9.26e-4,-0.36001 2.26e-4,4e-5 0.0021,-0.66962 2.26e-4,4e-5 -2.26e-4,-0.0855 c 0.0014,-0.30495 0.02154,-0.3333 0.279607,-0.34363 z m -2.391259,-0.0425 c -0.05235,-0.007 -0.106173,-0.0104 -0.161143,-0.0106 -0.442552,-10e-4 -0.816082,0.21727 -0.997512,0.55165 l 0.393021,0.001 c 0.09742,-0.29881 0.302081,-0.46629 0.587783,-0.46532 0.28148,6.6e-4 0.481825,0.17007 0.582639,0.4695 0.04582,0.13854 0.06875,0.30444 0.06813,0.4961 -6.3e-5,0.0595 -0.0032,0.11794 -0.0064,0.1729 l 0.326412,0.002 -0.326257,-6.6e-4 c -0.03193,0.32595 -0.152313,0.554 -0.341359,0.66588 -0.08419,0.0486 -0.183581,0.0737 -0.294665,0.0731 -0.11218,-2.9e-4 -0.21094,-0.0251 -0.294824,-0.0744 l -0.325408,-0.002 c 0.169723,0.10353 0.377878,0.1642 0.605017,0.16505 0.230411,6.6e-4 0.437568,-0.0586 0.610251,-0.1611 0.240496,-0.1454 0.409232,-0.37958 0.469822,-0.66531 l 6e-5,-3.5e-4 c 0.0129,-0.0696 0.01983,-0.14263 0.01983,-0.21877 7.14e-4,-0.16269 -0.03523,-0.31568 -0.104474,-0.45088 -0.147948,-0.29408 -0.444426,-0.50033 -0.810865,-0.54822 z m -0.789623,1.87957 0.325132,10e-4 c -0.197295,-0.10987 -0.320425,-0.34243 -0.355767,-0.66852 -0.0073,-0.0698 -0.01343,-0.14281 -0.01304,-0.22014 7.14e-4,-0.17352 0.02347,-0.32237 0.06766,-0.44975 l -0.393081,-0.001 c -0.07701,0.13987 -0.119279,0.30077 -0.119992,0.47452 -1.18e-4,0.0672 0.0061,0.13226 0.01823,0.19488 0.05177,0.28291 0.225953,0.51978 0.47085,0.66874 z m -1.010791,-1.8513 -0.150914,0.002 c -0.192008,0.004 -0.444382,0.007 -0.753854,0.006 -0.333185,-10e-4 -0.605946,-0.006 -0.816508,-0.0116 l -0.16837,-0.003 -0.01545,0.47185 0.06883,5.9e-4 c 0.03346,-0.29636 0.11523,-0.36708 0.415253,-0.36589 l 0.126456,2.1e-4 c 0.09478,2.1e-4 0.127538,0.009 0.151353,0.0267 0.01362,0.0146 0.01642,0.0327 0.01577,0.14691 l -7.14e-4,0.23321 0.362068,6.7e-4 7.14e-4,-0.2263 c 2.26e-4,-0.10509 0.0032,-0.12855 0.0091,-0.14725 0.01001,-0.0244 0.04978,-0.0322 0.156282,-0.0317 l 0.130249,1.9e-4 c 0.283116,0.001 0.375673,0.0829 0.408336,0.36873 l 0.07642,5.5e-4 z m -1.128076,0.50695 -0.0021,0.66963 -6.2e-5,3.5e-4 -0.0012,0.35961 c -7.14e-4,0.18906 -0.01042,0.27029 -0.08009,0.30724 -0.04121,0.0224 -0.105076,0.0284 -0.199585,0.0329 l -9.2e-5,0.0841 c 0.210293,-0.008 0.296294,-0.01 0.455235,-0.009 0.158482,5.9e-4 0.246393,0.004 0.464069,0.0127 l 9.3e-5,-0.084 c -0.09739,-0.005 -0.161555,-0.0119 -0.203368,-0.0346 -0.06654,-0.0371 -0.07488,-0.11856 -0.07425,-0.30762 l 0.0012,-0.35995 0.0021,-0.66964 z m -1.3954,-0.51556 -0.07647,-2.2e-4 -0.03189,0.11287 c -0.222317,-0.12917 -0.319948,-0.15836 -0.499605,-0.15895 -0.355541,-0.001 -0.596258,0.21745 -0.597284,0.53773 2.26e-4,0.005 9e-6,0.0104 3.8e-5,0.0152 l 0.341044,10e-4 c -0.03723,-0.0471 -0.05058,-0.0999 -0.0505,-0.16481 7.15e-4,-0.17729 0.146939,-0.30217 0.348951,-0.30158 0.151627,6.6e-4 0.290547,0.0712 0.367645,0.19533 0.05864,0.0879 0.0785,0.13476 0.11269,0.27382 0.0029,0.01 0.0053,0.0214 0.0067,0.0315 l 0.0768,2.6e-4 1.74e-4,-0.0316 2.26e-4,4e-5 5.5e-5,-0.0441 0.0012,-0.19422 4.76e-4,-0.19294 z m -1.205214,0.5066 c 0.0016,0.12477 0.04341,0.23218 0.128001,0.32894 0.08142,0.096 0.177645,0.15914 0.404203,0.26459 0.06164,0.0303 0.111102,0.0556 0.153266,0.0777 l 0.584391,0.003 c -0.02792,-0.0636 -0.06794,-0.12315 -0.118032,-0.1707 -0.0938,-0.09 -0.235225,-0.17527 -0.483332,-0.29046 -0.17566,-0.0782 -0.275452,-0.14089 -0.327756,-0.21024 z m -0.5759312,-0.51351 c -0.219695,0.003 -0.305083,0.006 -0.463839,0.005 -0.161528,-6.1e-4 -0.247255,-6.6e-4 -0.458592,-0.009 l 1.8e-5,0.081 c 0.259262,0.012 0.277902,0.0406 0.277015,0.34559 l -2.25e-4,0.0854 -0.0026,0.66958 -0.0012,0.35995 c -4.76e-4,0.18887 -0.0079,0.27039 -0.07802,0.30727 -0.04003,0.0224 -0.103388,0.0284 -0.200977,0.033 l -9.1e-5,0.0841 c 0.214064,-0.008 0.296816,-0.01 0.455572,-0.009 0.156347,6.6e-4 0.243377,0.003 0.466917,0.0122 l -2.26e-4,-0.0838 c -0.09598,-0.005 -0.16044,-0.0118 -0.201295,-0.0346 -0.06914,-0.0371 -0.07517,-0.11885 -0.07459,-0.30767 l 0.0012,-0.35997 0.0021,-0.66962 2.26e-4,-0.0854 c 9.27e-4,-0.30478 0.02052,-0.33337 0.278539,-0.34346 z m -1.430192,-0.005 c -0.213104,0.003 -0.297574,0.006 -0.458646,0.005 -0.166477,-6.1e-4 -0.247169,-0.003 -0.458988,-0.008 l -2.26e-4,0.0809 c 0.255533,0.0118 0.278987,0.0403 0.278142,0.3451 l -8.8e-5,0.0858 -0.0014,0.39162 -0.999234,-0.003 0.0014,-0.39162 6.1e-5,-3.4e-4 2.25e-4,-0.0851 c 9.26e-4,-0.305 0.02282,-0.33329 0.279939,-0.34354 l 2.26e-4,-0.0809 c -0.21832,0.004 -0.30547,0.006 -0.463496,0.005 -0.161533,-6.4e-4 -0.247139,-6.7e-4 -0.458931,-0.009 l -2.26e-4,0.0809 c 0.257856,0.012 0.27863,0.0404 0.277743,0.34539 l -7.14e-4,0.0853 -0.0023,0.66998 -7.14e-4,0.35966 c -9.26e-4,0.18902 -0.0075,0.27059 -0.07598,0.30731 -0.04306,0.0224 -0.105279,0.0284 -0.203775,0.0332 l -9e-5,0.0841 c 0.211934,-0.008 0.297157,-0.01 0.454234,-0.009 0.15753,6.7e-4 0.244324,0.003 0.467859,0.0127 l 9e-5,-0.0844 c -0.09766,-0.005 -0.159446,-0.0115 -0.201033,-0.0342 l -2.25e-4,-4e-5 c -0.06956,-0.0374 -0.07694,-0.11858 -0.07631,-0.30764 l 0.0012,-0.35994 7.15e-4,-0.166 0.998842,0.004 -7.15e-4,0.16567 -0.0012,0.35994 c -7.14e-4,0.18884 -0.0088,0.27024 -0.0787,0.30716 -0.04234,0.0222 -0.105357,0.0282 -0.201313,0.033 l -4.76e-4,0.084 c 0.211699,-0.008 0.296463,-0.01 0.455899,-0.009 0.156579,6.7e-4 0.243558,0.003 0.461731,0.0122 l 4.77e-4,-0.084 c -0.09624,-0.005 -0.159444,-0.0115 -0.201026,-0.0342 l -0.514959,-0.002 0.514683,10e-4 c -0.06864,-0.0372 -0.07717,-0.11862 -0.07631,-0.30764 l 0.0012,-0.35961 0.0023,-0.66998 2.26e-4,-0.0854 c 0.0012,-0.30474 0.0235,-0.33317 0.279941,-0.34356 z m 14.4239002,3.05721 -0.124554,0.005 -0.454723,-10e-4 -0.495599,-0.002 -0.382368,-10e-4 -0.07385,-0.005 -1.74e-4,0.0837 c 0.250622,0.0116 0.276412,0.0365 0.275553,0.32293 l 0.364504,0.003 7.14e-4,-0.18703 c 1.73e-4,-0.10864 1.73e-4,-0.11369 0.05065,-0.11364 l 0.118343,-0.003 c 0.32683,10e-4 0.396988,0.009 0.483553,0.054 0.08371,0.0477 0.116096,0.099 0.15448,0.25406 l 1.73e-4,4e-5 c 0.0014,0.0183 0.0047,0.0349 0.01286,0.0553 l 0.06922,3.2e-4 -1.43e-4,-0.0576 z m -0.891521,0.40415 -0.364463,-10e-4 c -2.8e-5,0.005 -2.8e-5,0.0133 6.8e-5,0.019 l -0.0021,0.65204 -1.74e-4,-4e-5 -0.0014,0.46404 c -1.74e-4,0.0905 -0.0032,0.15518 -0.01329,0.20545 l -7.14e-4,-1.2e-4 c -0.02189,0.11185 -0.08651,0.12594 -0.264257,0.13439 l 6.7e-5,0.0844 0.08169,-0.002 c 0.04558,-0.004 0.17699,-0.003 0.385089,-0.003 l 0.648608,0.002 c 0.27299,10e-4 0.334577,6.7e-4 0.550753,0.008 l 0.0071,-0.2193 1.74e-4,4e-5 0.0107,-0.27002 -0.0854,-4.8e-4 c -0.01383,0.12047 -0.04221,0.20751 -0.0951,0.26976 l -0.0016,3e-5 c -0.08324,0.0931 -0.217152,0.12642 -0.430887,0.12562 -0.127225,-4e-4 -0.198367,-0.008 -0.26423,-0.0297 -0.05948,-0.0186 -0.101137,-0.0475 -0.125406,-0.0986 l -0.04445,-3e-5 0.04452,-2.9e-4 c -0.02796,-0.057 -0.03936,-0.14142 -0.03891,-0.27027 l 0.0014,-0.39922 1.74e-4,-0.0923 0.07198,-10e-4 c 0.159625,6.6e-4 0.25736,0.0247 0.315553,0.0954 l 7.14e-4,1.3e-4 c 0.04411,0.051 0.07024,0.12687 0.08484,0.23299 l 0.02198,-0.23285 0.04985,-0.55254 c -0.0934,0.1934 -0.114229,0.24035 -0.191473,0.29596 -0.06608,0.0564 -0.148361,0.0733 -0.353041,0.0758 l 0.0018,-0.4922 z m -16.3793462,-3.46888 -0.220435,-6.6e-4 0.0218,0.50849 0.01012,0.27891 0.150822,6.6e-4 0.01371,-0.27913 z m 6.1228942,1.19947 -0.58412,-0.003 c 0.106975,0.0544 0.156349,0.0896 0.201676,0.13083 0.06078,0.0601 0.10235,0.15997 0.102112,0.24816 -4.76e-4,0.12278 -0.06029,0.22575 -0.157528,0.28927 l -6.1e-5,3.4e-4 c -0.06848,0.0476 -0.156951,0.073 -0.255278,0.0726 -0.10064,-3.4e-4 -0.195018,-0.0266 -0.275185,-0.0744 l -0.217196,-10e-4 c 0.170715,0.11641 0.325774,0.16444 0.529153,0.16526 0.211912,5e-4 0.383402,-0.0592 0.508896,-0.16096 l -0.205601,-6.6e-4 0.205721,2.6e-4 c 0.122688,-0.10324 0.194599,-0.25088 0.195111,-0.43008 2.26e-4,-0.0821 -0.01633,-0.1632 -0.0477,-0.23634 z m -7.8479571,-1.18459 c -0.09774,-0.0149 -0.204628,-0.0223 -0.3213189,-0.0226 l -0.166752,0.001 -0.1943601,0.002 -0.266462,-0.006 -0.148797,-0.003 -2.31e-4,0.0806 c 0.257858,0.012 0.278488,0.0406 0.277411,0.34531 l -4.63e-4,0.0857 2.28e-4,4e-5 -0.0026,0.66957 -9.181e-4,0.36001 c -9.181e-4,0.18838 -0.01105,0.26991 -0.07798,0.30693 -0.04261,0.0225 -0.105574,0.0285 -0.201707,0.0332 l -2.339e-4,0.0842 0.0978,-10e-4 c 0.142453,-0.006 0.252788,-0.008 0.335341,-0.008 l 0.254174,0.007 0.290224,0.006 c 0.2304509,6.6e-4 0.4110429,-0.0351 0.5570049,-0.11583 0.07854,-0.0431 0.146688,-0.0975 0.212306,-0.16574 0.125275,-0.13709 0.198835,-0.29878 0.222093,-0.50003 l 2.26e-4,4e-5 c 0.0079,-0.0492 0.01121,-0.10061 0.01131,-0.15377 4.71e-4,-0.1985 -0.03666,-0.37106 -0.115385,-0.51901 l -0.0016,3e-5 c -0.02815,-0.0538 -0.05941,-0.10297 -0.099,-0.14798 -0.154816,-0.18331 -0.366871,-0.29426 -0.6600908,-0.33894 z m -0.05927,0.0963 c 0.2109389,0.051 0.3523679,0.17874 0.4308099,0.39341 l 2.27e-4,4e-5 c 0.05014,0.14268 0.07752,0.32155 0.07691,0.54145 -4.63e-4,0.0444 -0.0026,0.0863 -0.0058,0.12716 -0.022,0.377 -0.142563,0.59294 -0.370649,0.6658 -0.05944,0.0192 -0.1240109,0.027 -0.1957169,0.0267 -0.07715,-1.4e-4 -0.1396411,-0.008 -0.1883821,-0.0278 -0.112565,-0.0456 -0.1501349,-0.15334 -0.149672,-0.36385 l 0.0014,-0.30411 0.0021,-0.66964 9.181e-4,-0.28799 c 2.321e-4,-0.0736 2.321e-4,-0.0859 0.0092,-0.0993 0.0158,-0.0211 0.05341,-0.028 0.154506,-0.0275 0.08606,3.2e-4 0.163951,0.009 0.234259,0.0257 z m 16.4208391,2.94371 c -0.214152,0.005 -0.297333,0.008 -0.463857,0.007 -0.161984,-6.6e-4 -0.246617,-0.004 -0.458566,-0.0106 l -9.1e-5,0.0841 c 0.253708,0.0115 0.278537,0.0362 0.27768,0.32261 l 0.18132,0.002 -0.181621,-7e-5 c 1.9e-4,0.005 1.12e-4,0.0133 6.7e-5,0.019 l -0.0026,0.65233 -0.0014,0.46372 c -2.26e-4,0.0906 -0.0026,0.15517 -0.01123,0.20546 -0.0242,0.11169 -0.08843,0.12606 -0.268717,0.13429 l -2.26e-4,0.0847 c 0.132094,-0.006 0.15665,-0.006 0.447537,-0.005 l 0.677495,0.003 c 0.326871,0.001 0.367139,0.001 0.560009,0.008 l 0.0083,-0.2198 -1.74e-4,-4e-5 0.01638,-0.28451 -0.07402,-5e-4 c -0.0397,0.15571 -0.0678,0.22921 -0.123283,0.28471 l -0.0021,-2e-5 c -0.02066,0.0207 -0.04715,0.0374 -0.0744,0.0556 -0.09,0.0493 -0.207607,0.0705 -0.402343,0.0701 -0.180113,-6.6e-4 -0.285094,-0.032 -0.339134,-0.10613 -0.0045,-0.007 -0.0096,-0.0149 -0.01459,-0.0226 -0.02615,-0.0498 -0.03674,-0.12694 -0.03626,-0.28496 l 0.0012,-0.38478 0.0025,-0.652 c -1.64e-4,-0.006 -1.72e-4,-0.0136 -8.8e-5,-0.0207 l -2.26e-4,-4e-5 c 0.0043,-0.28614 0.03074,-0.31114 0.282463,-0.32105 z m -9.769194,-1.70595 -0.08467,-6.6e-4 -0.01378,0.5128 -0.0033,0.0742 0.07647,2.3e-4 0.03217,-0.0739 0.01584,-0.0347 c 0.01557,0.0129 0.02963,0.0238 0.04742,0.0336 l 0.216797,0.002 c -0.09463,-0.055 -0.168975,-0.13715 -0.213281,-0.23941 -0.04207,-0.095 -0.04956,-0.12743 -0.0737,-0.27409 z m 7.745509,1.69914 c -0.213432,0.005 -0.299167,0.008 -0.464468,0.007 -0.159434,-5e-4 -0.245407,-0.003 -0.455227,-0.0101 l -9.3e-5,0.0837 c 0.249446,0.0117 0.276082,0.0364 0.275221,0.32288 l 0.179326,10e-4 -0.17962,2.9e-4 c -2.6e-5,0.005 1.13e-4,0.0133 4.6e-5,0.019 l -0.0021,0.65207 -6e-5,3.4e-4 -0.0016,0.4633 c -2.26e-4,0.0905 -0.0012,0.15534 -0.01195,0.2057 l -2.26e-4,-4e-5 c -0.02184,0.11161 -0.0871,0.12606 -0.265258,0.1342 l -4.77e-4,0.0847 c 0.131142,-0.006 0.153581,-0.005 0.446143,-0.005 l 0.676496,0.003 c 0.329915,10e-4 0.368539,10e-4 0.562406,0.008 l 0.0082,-0.21946 5.8e-5,-3.4e-4 0.01399,-0.28461 -0.07508,-3.2e-4 c -0.03841,0.15521 -0.06708,0.22856 -0.121824,0.28429 l -0.0016,5e-5 c -0.02117,0.0209 -0.04403,0.0381 -0.07692,0.0562 -0.08786,0.0492 -0.204867,0.0704 -0.398157,0.0698 -0.182698,-6.6e-4 -0.285292,-0.0318 -0.341921,-0.10594 -0.004,-0.007 -0.0096,-0.0148 -0.01246,-0.0229 l -2.26e-4,-4e-5 c -0.02782,-0.0497 -0.03597,-0.1268 -0.03526,-0.28479 l 0.0012,-0.38444 -0.182566,-6.1e-4 0.182626,2.6e-4 0.0025,-0.652 c -2.26e-4,-0.005 -4.76e-4,-0.0125 -4.76e-4,-0.019 0.0016,-0.28815 0.02773,-0.31256 0.279637,-0.32258 z m -1.41948,-0.005 -0.123166,0.005 -0.455048,-0.001 -0.498723,-0.002 -0.383432,-6.7e-4 -0.07106,-0.005 -2.26e-4,0.0837 c 0.251846,0.0113 0.27719,0.0366 0.276561,0.32309 l 0.292546,0.003 -0.292451,-6.6e-4 c -6.6e-5,0.006 1.07e-4,0.0133 4.1e-5,0.019 l -0.0021,0.65239 0.362402,0.001 7.15e-4,-0.0923 0.07192,-10e-4 c 0.160887,2.9e-4 0.256849,0.0247 0.317674,0.095 0.04434,0.0508 0.06895,0.12688 0.08617,0.23325 l 0.02163,-0.23292 0.04706,-0.55235 c -0.09531,0.19354 -0.114195,0.24037 -0.188341,0.29583 -0.06913,0.0563 -0.148966,0.0731 -0.355774,0.0756 l 0.0014,-0.49191 6.3e-5,-3.4e-4 7.14e-4,-0.18702 c 4.76e-4,-0.1086 7.14e-4,-0.11387 0.05099,-0.11358 l 0.117618,-0.003 c 0.327554,0.001 0.399425,0.009 0.489071,0.054 0.08089,0.0477 0.111311,0.099 0.147564,0.2542 l 7.14e-4,1.2e-4 c 0.0058,0.0182 0.0095,0.0351 0.01352,0.0555 l 0.07068,-1.2e-4 4.76e-4,-0.0575 z m -1.257418,1.07423 -0.0016,0.46364 c -4.76e-4,0.0907 -0.0014,0.15546 -0.01128,0.20581 -0.0258,0.1114 -0.08768,0.12572 -0.267934,0.13373 l -8.8e-5,0.0851 0.08454,-0.003 c 0.04177,-0.003 0.173169,-0.003 0.383634,-0.002 l 0.649332,0.002 c 0.269937,6.6e-4 0.333136,0.001 0.547904,0.008 l 0.0087,-0.22007 2.26e-4,3e-5 0.01204,-0.26978 -0.08506,-4e-4 c -0.01399,0.12 -0.04506,0.20739 -0.09784,0.26961 l -0.0021,-3e-5 c -0.07969,0.093 -0.216479,0.12664 -0.430946,0.12596 -0.124859,-4.2e-4 -0.196364,-0.009 -0.263218,-0.0295 -0.05914,-0.0188 -0.09943,-0.0479 -0.126021,-0.099 l 6e-5,-3.4e-4 c -0.02645,-0.057 -0.03939,-0.14125 -0.03894,-0.26993 l 0.0012,-0.39929 z m -1.324413,-1.05331 c -0.08351,-0.0179 -0.184133,-0.0253 -0.315928,-0.0258 l -0.212029,3.5e-4 -0.215396,0.002 c -0.08605,-3.2e-4 -0.158026,-6.7e-4 -0.365479,-0.005 l -0.123494,-0.005 -9.1e-5,0.0837 c 0.253215,0.0116 0.279204,0.0363 0.278348,0.32274 l 0.363167,0.003 7.14e-4,-0.17638 c 4.77e-4,-0.13335 0.0078,-0.14556 0.111763,-0.1451 l 0.124391,0.01 c 0.185336,0.01 0.299776,0.12027 0.336046,0.31617 l 2.26e-4,4e-5 c 0.0074,0.0464 0.01135,0.0961 0.0111,0.14812 -9.26e-4,0.29398 -0.145706,0.42041 -0.478856,0.41898 l -0.107072,-0.003 0.0016,-0.56873 -0.363405,-10e-4 c 2.09e-4,0.005 -3e-5,0.0133 4.4e-5,0.019 l -0.0026,0.65235 -0.0014,0.44266 c -4.76e-4,0.10274 -0.0018,0.17607 -0.01225,0.22667 l 0.388227,10e-4 c -0.01096,-0.0481 -0.01329,-0.11373 -0.01286,-0.20566 l 0.0016,-0.46364 4.76e-4,-0.003 c 0.0253,-6.3e-4 0.04436,2.2e-4 0.06583,0.004 l 9.26e-4,-1.8e-4 c 0.05145,0.0106 0.09045,0.0477 0.160995,0.13668 l 0.421052,0.53471 0.475688,0.001 c -0.0202,-0.0198 -0.04066,-0.042 -0.06384,-0.069 l -0.52471,-0.60256 -2.26e-4,-4e-5 -0.05783,-0.0679 c 0.14718,-0.0257 0.187977,-0.0375 0.275132,-0.0814 0.149184,-0.0764 0.24887,-0.23948 0.249453,-0.42172 -3.2e-5,-0.0341 -0.0049,-0.0659 -0.01058,-0.097 l -0.171068,-10e-4 0.171367,-3.7e-4 c -0.02325,-0.11992 -0.08927,-0.22296 -0.185239,-0.29023 -0.06382,-0.0425 -0.130207,-0.0707 -0.213717,-0.0885 z m 0.05569,1.71847 0.172559,0.22041 c 0.130719,-0.009 0.181147,-0.011 0.285563,-0.0106 0.105593,2.7e-4 0.155522,0.003 0.275251,0.0123 l 9.1e-5,-0.082 c -0.107435,-0.0215 -0.176312,-0.0552 -0.257613,-0.13602 z m -1.026123,-0.003 c -0.02279,0.11428 -0.08822,0.1255 -0.268329,0.13401 l -2.26e-4,0.0847 c 0.208507,-0.008 0.291073,-0.0106 0.452559,-0.01 0.163207,4.8e-4 0.25221,0.003 0.469533,0.0129 l 4.76e-4,-0.0847 c -0.178981,-0.01 -0.244464,-0.0242 -0.266295,-0.13376 z m -0.587091,-1.7497 c -0.17322,0.005 -0.241645,0.007 -0.355919,0.007 -0.11709,-4.7e-4 -0.175404,-0.003 -0.328833,-0.01 l 1.56e-4,0.0745 c 0.143012,0.0147 0.187863,0.0295 0.23811,0.0736 0.04278,0.0437 0.064,0.10809 0.07001,0.25999 l -2.26e-4,-3e-5 c 0.0014,0.0436 0.0016,0.0958 0.0014,0.1543 l -0.0021,0.4994 c 1.62e-4,0.006 1.51e-4,0.011 2.6e-5,0.0176 l 2.26e-4,4e-5 0.09371,1.9e-4 c 8.5e-5,-0.007 2.09e-4,-0.0115 2.09e-4,-0.0171 l 0.0018,-0.49187 c 4e-5,-0.0612 0.0024,-0.11495 0.0032,-0.16212 l 2.26e-4,4e-5 c 0.01239,-0.24954 0.06269,-0.30718 0.214875,-0.32278 z m -0.377269,1.07683 c -9.26e-4,0.30407 -0.02387,0.43416 -0.09514,0.56307 -0.02138,0.0388 -0.05192,0.0751 -0.08648,0.10586 l -0.0024,-10e-5 c -0.105246,0.0899 -0.256157,0.14212 -0.435088,0.14142 -0.173797,-4.7e-4 -0.324822,-0.0524 -0.417115,-0.14419 l -0.402675,-0.001 c 0.02348,0.0332 0.05499,0.0634 0.09223,0.0933 0.134755,0.11092 0.351187,0.17151 0.637117,0.17252 0.307342,10e-4 0.519912,-0.0781 0.64817,-0.24016 0.0056,-0.008 0.01089,-0.0131 0.01513,-0.0211 0.107423,-0.13892 0.137037,-0.29285 0.140243,-0.66873 z m -1.036232,0.66606 c -0.0057,-0.005 -0.0072,-0.009 -0.01056,-0.0122 -0.09807,-0.10294 -0.129238,-0.22621 -0.128203,-0.48202 l 4.76e-4,-0.17571 -0.180113,-6.6e-4 0.180173,5e-4 0.0025,-0.65202 c -2.25e-4,-0.005 -1.41e-4,-0.0124 -4.6e-5,-0.019 0.0023,-0.28806 0.02974,-0.31268 0.279971,-0.32253 l -2.26e-4,-0.0838 c -0.199111,0.005 -0.2741,0.007 -0.454484,0.007 -0.181746,-6.6e-4 -0.261325,-10e-4 -0.464146,-0.0102 l -9.3e-5,0.0837 c 0.252985,0.0116 0.278072,0.0367 0.278623,0.32313 l 0.156953,0.001 -0.157192,1.6e-4 c -6.7e-5,0.006 -3.2e-5,0.0136 4.9e-5,0.0193 l -0.0021,0.65207 -5.6e-5,3.2e-4 -7.14e-4,0.17532 c -0.0012,0.26263 0.0195,0.39169 0.09677,0.49396 z m -1.0861482,-1.75174 -0.151115,0.005 c -0.19108,0.003 -0.444755,0.005 -0.754223,0.005 -0.331325,-0.001 -0.605936,-0.006 -0.815745,-0.01 l -0.167562,-0.005 -0.01589,0.40695 0.0792,3.7e-4 c 0.03692,-0.24068 0.127442,-0.30027 0.406828,-0.2995 l 0.12573,4.2e-4 c 0.09337,2.1e-4 0.126169,0.005 0.148958,0.0267 0.01357,0.0149 0.01763,0.0324 0.01723,0.14646 l -4.76e-4,0.12847 0.36034,0.001 7.14e-4,-0.12155 c 4.77e-4,-0.10601 0.0039,-0.12976 0.0091,-0.14555 0.01214,-0.0284 0.05121,-0.0336 0.15658,-0.0334 l 0.131858,6.6e-4 c 0.257717,6.6e-4 0.36013,0.0708 0.397851,0.30206 0.0028,0.0198 0.0058,0.0428 0.0093,0.0658 l 0.07541,3.7e-4 -0.0016,-0.0658 z m -1.127137,0.40338 -0.0025,0.6713 2.26e-4,4e-5 -0.0016,0.46364 c -4.76e-4,0.0907 -0.0032,0.15548 -0.01156,0.20542 -0.02629,0.11152 -0.09149,0.12586 -0.267321,0.13418 l -4.76e-4,0.0847 c 0.20992,-0.008 0.297699,-0.0105 0.454958,-0.01 0.15776,6.6e-4 0.246134,0.003 0.46228,0.013 l 2.26e-4,-0.0847 c -0.17943,-0.01 -0.242694,-0.0243 -0.265284,-0.13359 l -0.191979,-0.002 0.192065,-4.8e-4 c -0.0095,-0.0481 -0.01267,-0.11396 -0.01246,-0.20593 l 0.0016,-0.46364 2.26e-4,4e-5 0.0021,-0.67103 z m -2.005226,-0.45708 -0.117074,-6.1e-4 -0.184465,0.44955 0.106762,4.8e-4 0.0087,-0.0257 0.0098,0.0259 2.26e-4,4e-5 0.251755,0.67196 0.03547,0.0946 -0.614527,-0.002 0.03754,-0.0943 0.27085,-0.67054 -0.106817,-1.4e-4 -0.274917,0.67016 -0.138209,0.33926 c -0.06729,0.16585 -0.115175,0.26529 -0.16257,0.32904 l 0.19082,6.6e-4 c 0,0 1.74e-4,-0.004 1.44e-4,-0.006 4.76e-4,-0.0653 0.04191,-0.20519 0.109152,-0.37341 l 0.037,-0.0875 0.691665,0.003 0.07896,0.2061 c 0.03618,0.0938 0.06537,0.20547 0.07099,0.26224 l 0.420915,10e-4 c -0.0063,-0.0108 -0.01293,-0.0238 -0.01804,-0.036 l -0.07187,-0.18794 -0.178992,-0.44663 2.26e-4,4e-5 -0.270663,-0.67224 z m 0.301384,1.79202 c 2.4e-5,0.008 -2.08e-4,0.0146 7.4e-5,0.021 -4.76e-4,0.0848 -0.05153,0.10994 -0.236822,0.11586 l -9.5e-5,0.082 c 0.213961,-0.008 0.299572,-0.0106 0.460876,-0.01 0.15807,2.6e-4 0.245515,0.003 0.46334,0.0129 l 9.5e-5,-0.082 c -0.149868,-0.0211 -0.220217,-0.0584 -0.266604,-0.1359 z m 1.005684,-1.33568 -0.07897,-0.002 -0.0018,0.0655 0.07168,7e-5 c 0.0023,-0.0229 0.0055,-0.0443 0.009,-0.0639 z m -2.69631,-0.41832 c -0.165945,0.006 -0.232,0.008 -0.334281,0.007 -0.106815,-4e-5 -0.166329,-0.003 -0.311262,-0.009 l -2.26e-4,0.0837 c 0.201651,0.0283 0.26565,0.0894 0.28054,0.32589 0.0055,0.0548 0.0053,0.11605 0.0053,0.18844 l -0.0021,0.48149 -0.0012,0.43613 -0.355033,-0.43743 -0.546216,-0.67324 -2.28e-4,-4e-5 -0.329548,-0.40841 c -0.144319,0.006 -0.1947329,0.008 -0.2908799,0.008 -0.09482,-10e-6 -0.144352,-0.003 -0.2672,-0.009 l -2.3e-4,0.0837 c 0.235803,0.009 0.308899,0.0862 0.308121,0.31428 l -8.8e-5,0.01 0.09471,4.3e-4 4.59e-5,-0.0444 0.03646,0.0448 0.551462,0.67281 1.67e-4,3.9e-4 0.551696,0.67146 2.26e-4,5e-5 0.216786,0.26416 0.122995,2.7e-4 4.71e-4,-0.26357 0.0026,-0.66956 0.0016,-0.48088 c 2.26e-4,-0.0729 4.68e-4,-0.13546 0.0023,-0.1902 0.0094,-0.27502 0.04985,-0.30724 0.22016,-0.3215 z m -1.7502509,0.40123 -0.09477,-6e-5 -0.0024,0.67097 -5.3e-5,3.2e-4 -7.223e-4,0.30457 c -9.181e-4,0.18006 -0.0063,0.29316 -0.02967,0.36452 -0.03167,0.0955 -0.09496,0.11943 -0.2218669,0.13438 l -0.03581,0.0846 c 0.153753,-0.009 0.2119949,-0.0105 0.3399409,-0.0102 0.1262692,4.8e-4 0.1874052,0.003 0.3358832,0.0125 l 2.32e-4,-0.0789 c -0.141378,-0.0173 -0.219188,-0.0489 -0.256937,-0.14176 l 2.27e-4,4e-5 c -0.0314,-0.0731 -0.03851,-0.18734 -0.03782,-0.36487 l 0.0012,-0.30483 z m 2.4532159,1.35196 -0.19107,-0.003 c -0.02517,0.0381 -0.05229,0.0636 -0.07953,0.0844 -0.04151,0.0295 -0.07815,0.0399 -0.173037,0.0521 l -9.3e-5,0.082 c 0.158209,-0.008 0.222668,-0.0106 0.346804,-0.01 0.129127,2.6e-4 0.188644,0.003 0.339675,0.0125 l 9.3e-5,-0.0823 c -0.177916,-0.013 -0.238778,-0.0427 -0.242901,-0.13543 z"
       style="fill:#707374;fill-opacity:1;fill-rule:nonzero;stroke:none;stroke-width:0.23161817" />
  </g>
</svg>
