<?xml version="1.0" encoding="UTF-8" standalone="no"?>
<svg
   xmlns:dc="http://purl.org/dc/elements/1.1/"
   xmlns:cc="http://creativecommons.org/ns#"
   xmlns:rdf="http://www.w3.org/1999/02/22-rdf-syntax-ns#"
   xmlns:svg="http://www.w3.org/2000/svg"
   xmlns="http://www.w3.org/2000/svg"
   id="svg5782"
   version="1.1"
   viewBox="0 0 25.399999 25.400001"
   height="96"
   width="96">
  <defs
     id="defs5776">
    <clipPath
       id="clipPath20-8"
       clipPathUnits="userSpaceOnUse">
      <path
         id="path18-0-9"
         d="m 541.781,371.848 v 0 h 0.043 z" />
    </clipPath>
  </defs>
  <metadata
     id="metadata5779">
    <rdf:RDF>
      <cc:Work
         rdf:about="">
        <dc:format>image/svg+xml</dc:format>
        <dc:type
           rdf:resource="http://purl.org/dc/dcmitype/StillImage" />
        <dc:title></dc:title>
      </cc:Work>
    </rdf:RDF>
  </metadata>
  <g
     transform="translate(0,-271.59998)"
     id="layer1">
    <rect
       y="271.59998"
       x="0"
       height="25.4"
       width="25.4"
       id="rect6729"
       style="opacity:1;vector-effect:none;fill:none;fill-opacity:1;stroke:none;stroke-width:0.52916676;stroke-linecap:butt;stroke-linejoin:miter;stroke-miterlimit:4;stroke-dasharray:1.05833345, 2.11666688;stroke-dashoffset:0;stroke-opacity:1;paint-order:stroke markers fill" />
    <path
       style="fill:#707374;fill-opacity:1;stroke-width:0.14014779"
       d="m 3.8696508,286.19165 c 0,-1.65071 0.006,-1.68176 0.31534,-1.6815 0.2211199,2.5e-4 0.4579699,0.20956 0.7927401,0.70074 0.2625799,0.38526 0.4931698,0.70047 0.5124098,0.70047 0.019201,0 0.2615401,-0.31533 0.53843,-0.70074 0.3159802,-0.43983 0.6078802,-0.70074 0.7839601,-0.70074 0.2650199,0 0.2805301,0.093 0.2805301,1.68177 0,1.58835 -0.0156,1.68178 -0.2803002,1.68178 -0.2570498,0 -0.2809099,-0.0959 -0.2876499,-1.15623 -0.007,-1.13082 -0.0126,-1.14862 -0.2452601,-0.81042 -0.1308398,0.19018 -0.3653199,0.49502 -0.52105,0.67743 l -0.2831499,0.33165 -0.48767,-0.67743 -0.4876601,-0.67744 -0.0407,1.15621 c -0.0366,1.04099 -0.0681,1.15623 -0.3153302,1.15623 -0.25748,0 -0.2746301,-0.10496 -0.2746301,-1.68178 z m 4.37196,1.46094 c -0.2665601,-0.1867 -0.30767,-0.34552 -0.30767,-1.18858 0,-0.87173 0.0285,-0.97309 0.2736099,-0.97309 0.23774,0 0.2790801,0.11481 0.3153301,0.87592 0.0405,0.8505 0.0535,0.87727 0.4469601,0.92218 0.5170199,0.059 0.6410598,-0.14567 0.64373,-1.06233 0.00201,-0.64162 0.038,-0.73577 0.28244,-0.73577 0.2578401,0 0.2803001,0.0934 0.2803001,1.16617 v 1.16616 l -0.8135202,0.0224 c -0.53644,0.0147 -0.9182901,-0.051 -1.12118,-0.19308 z m 2.6354302,-1.46094 c 0,-1.65813 0.005,-1.68177 0.32016,-1.68177 0.1983,0 0.41045,0.14668 0.55742,0.38541 0.1305,0.21197 0.35424,0.53381 0.4972,0.71518 l 0.25994,0.3298 0.51381,-0.7152 c 0.32389,-0.45083 0.61751,-0.71519 0.79435,-0.71519 0.26502,0 0.28053,0.093 0.28053,1.68177 0,1.58835 -0.0156,1.68178 -0.2803,1.68178 -0.25729,0 -0.28066,-0.0949 -0.28474,-1.15623 l -0.005,-1.15621 -0.27963,0.37454 c -0.1538,0.206 -0.39401,0.51579 -0.53379,0.68842 l -0.25415,0.31387 -0.47785,-0.68841 -0.47784,-0.68842 -0.0407,1.15621 c -0.0366,1.04099 -0.0681,1.15623 -0.31533,1.15623 -0.25748,0 -0.27463,-0.10496 -0.27463,-1.68178 z m 4.128,1.33778 c -0.67213,-0.67212 -0.24202,-1.47792 0.78886,-1.47792 0.81369,0 0.64349,-0.3382 -0.19782,-0.39309 -0.54053,-0.0352 -0.65475,-0.0902 -0.65475,-0.31533 0,-0.23657 0.10058,-0.27261 0.76064,-0.27261 1.07379,0 1.34158,0.35345 1.34158,1.77074 0,1.04877 -0.13264,1.26396 -0.53256,0.86403 -0.13081,-0.1308 -0.16818,-0.1308 -0.16818,0 0,0.3207 -0.96856,0.1934 -1.33777,-0.17582 z m 1.33932,-0.49978 c 0.1936,-0.36174 0.0705,-0.5577 -0.35018,-0.5577 -0.46312,0 -0.83474,0.38687 -0.62008,0.64552 0.24008,0.28927 0.79534,0.23901 0.97026,-0.0878 z M 0.08566064,283.41814 v -0.9516 l 2.15676996,-0.87998 2.15677,-0.87996 1.3469303,0.57328 1.34693,0.57328 1.3459698,-0.57288 1.3459902,-0.57288 1.3518601,0.5759 1.35186,0.5759 1.30338,-0.56665 c 0.71686,-0.31167 1.33176,-0.56665 1.36644,-0.56665 0.0347,0 0.0631,0.42867 0.0631,0.95261 v 0.95264 l -1.38597,0.58341 -1.38598,0.58342 -1.33949,-0.57535 -1.3394802,-0.57536 -1.3403199,0.57725 -1.3403202,0.57724 -1.2839999,-0.5569 c -0.70621,-0.3063 -1.3405001,-0.5569 -1.4095399,-0.5569 -0.069,0 -1.0101302,0.3784 -2.0913103,0.84089 -1.08119,0.46248 -2.02288996,0.84089 -2.09266996,0.84089 -0.0698,0 -0.12688,-0.42823 -0.12688,-0.9516 z M 16.903401,281.56678 c 0,-0.46716 0.0623,-0.84088 0.14015,-0.84088 0.0771,0 0.14014,0.31532 0.14014,0.70073 0,0.60731 0.0374,0.70074 0.2803,0.70074 0.15416,0 0.2803,0.0631 0.2803,0.14015 0,0.0771 -0.1892,0.14014 -0.42045,0.14014 h -0.42044 z m 1.03626,0.6425 c -0.0419,-0.10911 -0.0557,-0.37714 -0.0306,-0.59562 0.0361,-0.31533 0.12497,-0.4064 0.43089,-0.4416 0.32938,-0.0378 0.38541,0.006 0.38541,0.30559 0,0.25108 -0.0891,0.36745 -0.31533,0.41196 l -0.31534,0.0621 0.31534,0.10422 c 0.17343,0.0573 0.31533,0.15992 0.31533,0.22801 0,0.20561 -0.70378,0.1388 -0.78566,-0.0746 z m 1.7667,-0.6425 c 0,-0.65403 0.0467,-0.84088 0.21022,-0.84088 0.11679,0 0.21022,0.12457 0.21022,0.28028 0,0.15572 0.0934,0.2803 0.21022,0.2803 0.11679,0 0.21022,-0.12458 0.21022,-0.2803 0,-0.15416 0.0631,-0.28028 0.14015,-0.28028 0.0779,0 0.14015,0.37372 0.14015,0.84088 0,0.46716 -0.0623,0.84088 -0.14015,0.84088 -0.0771,0 -0.14015,-0.15766 -0.14015,-0.35037 0,-0.218 -0.0794,-0.35037 -0.21022,-0.35037 -0.1308,0 -0.21022,0.13237 -0.21022,0.35037 0,0.21802 -0.0794,0.35037 -0.21022,0.35037 -0.16351,0 -0.21022,-0.18686 -0.21022,-0.84088 z m 1.49491,0.74745 c -0.20248,-0.20246 -0.0769,-0.62298 0.2219,-0.74309 l 0.31533,-0.12675 -0.31533,-0.008 c -0.4778,-0.0134 -0.37758,-0.28918 0.10511,-0.28918 0.40487,0 0.42044,0.0233 0.42044,0.63066 0,0.56726 -0.0329,0.63067 -0.32701,0.63067 -0.17986,0 -0.36906,-0.042 -0.42044,-0.0934 z m 1.19008,-0.44837 c -0.19865,-0.66303 -0.20004,-0.71953 -0.0177,-0.71953 0.0796,0 0.2017,0.1419 0.27141,0.31534 0.0918,0.22847 0.1292,0.25005 0.13563,0.0784 0.009,-0.24603 0.25517,-0.47441 0.37829,-0.35128 0.12568,0.12567 -0.26849,1.21894 -0.43947,1.21894 -0.0912,0 -0.23891,-0.24382 -0.32819,-0.54182 z m 1.01393,0.32012 c 0.0468,-0.12193 0.0851,-0.40572 0.0851,-0.63066 0,-0.34282 0.0567,-0.40899 0.35036,-0.40899 0.19271,0 0.35037,0.0632 0.35037,0.14015 0,0.0771 -0.0946,0.14015 -0.21022,0.14015 -0.1308,0 -0.21022,0.13237 -0.21022,0.35038 0,0.19269 0.0631,0.35036 0.14015,0.35036 0.0771,0 0.14015,0.0631 0.14015,0.14015 0,0.0771 -0.16441,0.14014 -0.36537,0.14014 -0.27558,0 -0.34446,-0.0545 -0.28029,-0.22168 z m 0.98118,0.0233 c -0.0419,-0.10912 -0.0557,-0.37715 -0.0306,-0.59563 0.0386,-0.3374 0.10854,-0.39725 0.46401,-0.39725 0.51283,0 0.69055,0.46495 0.22433,0.58688 -0.37266,0.0975 -0.38118,0.32408 -0.0122,0.32408 0.15416,0 0.28029,0.0631 0.28029,0.14015 0,0.21834 -0.83995,0.16551 -0.92581,-0.0583 z"
       id="path12848" />
  </g>
</svg>
