<?xml version="1.0" encoding="UTF-8" standalone="no"?>
<svg
   xmlns:dc="http://purl.org/dc/elements/1.1/"
   xmlns:cc="http://creativecommons.org/ns#"
   xmlns:rdf="http://www.w3.org/1999/02/22-rdf-syntax-ns#"
   xmlns:svg="http://www.w3.org/2000/svg"
   xmlns="http://www.w3.org/2000/svg"
   id="svg5782"
   version="1.1"
   viewBox="0 0 25.399999 25.400001"
   height="96"
   width="96">
  <defs
     id="defs5776" />
  <metadata
     id="metadata5779">
    <rdf:RDF>
      <cc:Work
         rdf:about="">
        <dc:format>image/svg+xml</dc:format>
        <dc:type
           rdf:resource="http://purl.org/dc/dcmitype/StillImage" />
        <dc:title></dc:title>
      </cc:Work>
    </rdf:RDF>
  </metadata>
  <g
     transform="translate(0,-271.59998)"
     id="layer1">
    <rect
       y="271.59998"
       x="-5.5511151e-17"
       height="25.4"
       width="25.4"
       id="rect6729"
       style="opacity:1;vector-effect:none;fill:none;fill-opacity:1;stroke:none;stroke-width:0.52916676;stroke-linecap:butt;stroke-linejoin:miter;stroke-miterlimit:4;stroke-dasharray:1.05833345, 2.11666688;stroke-dashoffset:0;stroke-opacity:1;paint-order:stroke markers fill" />
    <g
       style="fill:#707374;fill-opacity:1;stroke:none"
       id="g4233"
       transform="matrix(0.21931558,0,0,0.21931558,0.17708021,280.64837)">
      <g
         style="fill:#707374;fill-opacity:1;stroke:none"
         id="g4235">
        <path
           style="fill:#707374;fill-opacity:1;stroke:none"
           id="path4237"
           class="st0"
           d="m 8.2,10.2 -7,3.8 c 0,0 7,1.4 7,6.3 0,0 9,-7.5 0,-10.1" />
        <path
           style="fill:#707374;fill-opacity:1;stroke:none"
           id="path4239"
           class="st0"
           d="m 8.2,20.3 v 0 c 3.7,-0.2 7.2,-2.2 6.6,-4.2 l 1.6,2.1 c 0,0 -0.7,4.6 -8.2,5.9 C 0.7,22.8 0,18.2 0,18.2 l 1.6,-2.1 c -0.6,2 2.9,4 6.6,4.2 z" />
      </g>
      <g
         style="fill:#707374;fill-opacity:1;stroke:none"
         id="g4241">
        <path
           style="fill:#707374;fill-opacity:1;stroke:none"
           id="path4243"
           class="st0"
           d="m 44.4,9.8 h 4.5 v 0 c 2.3,0.1 4.4,2.1 4.4,4.5 0,2.5 -2.1,4.5 -4.4,4.6 v 0 h -2.3 v 4.3 h 0.1 -2.4 V 23.3 9.8 Z m 2.2,6.7 h 2.3 c 1.2,0 2.1,-1 2.1,-2.1 0,-1.1 -0.9,-2.1 -2.1,-2.1 H 46.6 Z M 64.5,9.8 h 2.2 0.1 v 0 h 0.1 v 0.1 l 4.4,13.2 h -0.1 v 0.1 0.1 0 0.2 0 h -0.1 v 0 H 69 68.9 v 0 h -0.1 v -0.3 l -1,-3.2 h -4.3 l -0.9,3.3 v 0.3 h -0.2 v 0 h -0.1 -2.1 v 0 h -0.1 -0.3 v -0.2 0 -0.1 -0.1 H 60 Z m -0.2,7.9 h 2.6 L 65.6,13.8 Z M 78.4,9.8 h 4.5 v 0 c 2.3,0.1 4.5,2.1 4.5,4.5 0,1.8 -1,3.2 -2.4,4 l 0.2,0.3 0.1,0.1 2.2,4.4 h 0.2 -2.8 v 0.1 l -2.1,-4.4 h -2.2 v 4.3 h 0.1 -2.4 V 23.2 9.8 Z m 2.1,6.7 h 2.3 c 1.2,0 2.1,-1 2.1,-2.1 0,-1.1 -0.9,-2.1 -2.1,-2.1 H 80.5 Z M 95.3,9.8 h 2.5 V 23.1 H 95 v 0 -13.3 z m 11,11.3 v -0.3 h 3.4 c 1.2,0 2.1,-0.9 2.1,-2.1 0,-1.1 -0.8,-2 -2,-2 v 2.2 h -0.1 0.1 v 0 c -2.7,-0.1 -4.4,-2.1 -4.4,-4.5 0,-2.5 1.7,-4.5 4.4,-4.6 h 2.3 v 2.4 h -2.4 c -1.2,0 -2,1 -2,2.1 0,1.1 0.9,2.1 2.1,2.1 v -2.3 h -0.1 0.1 v 0.1 c 2.3,0.1 4.4,2.1 4.4,4.5 0,2.4 -2.1,4.5 -4.4,4.5 h -3.5" />
      </g>
      <rect
         style="fill:#707374;fill-opacity:1;stroke:none"
         id="rect4245"
         x="28.299999"
         y="0"
         class="st0"
         width="2.8"
         height="33.299999" />
    </g>
  </g>
</svg>
