<svg width="256" height="256" viewBox="0 0 256 256" fill="none" xmlns="http://www.w3.org/2000/svg">
<g clip-path="url(#clip0_762_434)">
<path d="M92.7786 96.1356C92.8592 96.169 93.0063 96.1936 93.0098 96.234C93.1412 97.5288 93.248 98.8273 93.3847 100.122C93.4705 100.925 93.6071 101.724 93.7069 102.526C93.8173 103.406 93.9031 104.29 94.0222 105.17C94.1203 105.897 94.2814 106.618 94.3567 107.347C94.4531 108.29 94.4881 109.239 94.5582 110.184C94.5704 110.356 94.5879 110.552 94.6755 110.689C95.3183 111.676 95.2027 112.786 95.2307 113.879C95.2675 115.383 95.3113 116.889 95.4059 118.389C95.4304 118.793 95.6476 119.185 95.7912 119.63C95.1169 119.609 95.0451 120.083 95.0714 120.666C95.1011 121.308 95.0976 121.953 95.0731 122.596C95.0381 123.523 94.961 124.437 95.8928 125.054C96.0802 125.178 96.131 125.505 96.2624 125.728C96.4305 126.013 96.6162 126.287 96.8719 126.686C96.2729 127.909 94.595 128.891 95.1659 130.873H97.7564C97.9806 128.836 98.9124 126.949 98.5446 124.883C98.4535 124.37 98.5043 123.829 98.387 123.323C98.1698 122.376 98.1663 121.624 99.4501 121.557C99.366 121.541 99.282 121.504 99.2014 121.513C99.0876 121.526 98.958 121.626 98.8686 121.594C98.6129 121.503 98.3362 121.404 98.1505 121.222C98.0804 121.153 98.2276 120.844 98.3011 120.654C98.4167 120.357 98.6357 120.074 98.6619 119.774C98.7162 119.143 99.1103 118.901 99.6043 118.649C99.839 118.532 100.117 118.196 100.116 117.961C100.084 113.932 100.03 109.903 99.9335 105.876C99.9178 105.24 99.7584 104.576 99.5132 103.989C99.4098 103.74 98.9159 103.654 98.5866 103.487C99.2224 102.831 99.1804 102.677 98.3729 102.303C98.1733 102.209 98.0209 102.014 97.795 101.821C99.1121 101.336 99.1471 101.329 98.8581 100.057C98.739 99.5336 98.704 99.2314 99.345 99.1277C99.5184 99.0996 99.7601 98.7482 99.7636 98.5409C99.7847 97.2706 99.7444 96.0003 99.7304 94.73C99.7269 94.4243 99.7601 94.1186 99.7584 93.8129C99.7584 92.7095 99.7479 91.6061 99.7426 90.5027C99.6586 90.4799 99.5727 90.457 99.4887 90.4342C99.7777 90.3235 100.067 90.2128 100.294 90.1267C100.195 89.9651 99.9598 89.7209 100.007 89.6365C100.706 88.3944 100.858 87.0257 100.988 85.6482C100.997 85.5463 101.072 85.4514 101.217 85.1317C101.356 85.7993 101.45 86.2509 101.543 86.7024C101.431 86.7797 101.24 86.8377 101.219 86.9343C101.014 87.8637 100.818 88.7967 100.667 89.7367C100.622 90.0213 100.72 90.3305 100.748 90.6046C101.023 89.6646 101.284 88.7721 101.543 87.8813C102.373 88.5384 102.722 88.4031 103.24 87.0485C103.468 86.4547 103.435 85.7642 103.643 85.1598C103.803 84.6959 104.153 84.2989 104.44 83.835C104.377 83.6154 104.183 83.2447 104.174 82.8687C104.135 81.1627 104.148 79.4566 104.142 77.7506C104.146 77.6926 104.151 77.6329 104.155 77.5749C104.212 77.5169 104.27 77.4572 104.33 77.3992C104.389 77.343 104.449 77.285 104.508 77.2288C104.626 77.1708 104.741 77.1128 104.859 77.0549C106.27 77.0742 107.682 77.0935 108.833 77.1093C108.032 76.4768 105.98 76.3398 104.839 77.0338C104.724 77.0953 104.608 77.155 104.494 77.2147C104.437 77.2745 104.381 77.3325 104.323 77.3922C104.265 77.4502 104.205 77.5082 104.148 77.5661C104.088 77.6241 104.029 77.6821 103.969 77.7401C103.899 77.7313 103.829 77.7243 103.757 77.7155C103.692 77.4063 103.703 77.0513 103.55 76.7966C103.121 76.0815 103.535 75.7055 103.978 75.4156C103.848 75.2048 103.655 75.0291 103.64 74.8393C103.521 73.3494 103.883 71.9878 104.952 70.9142C105.561 70.3028 105.948 69.6404 105.988 68.7795C105.953 68.1066 105.883 67.4319 105.901 66.759C105.908 66.5113 106.123 66.2671 106.255 66C107.243 66.7467 106.812 67.6849 106.801 68.5406C107.083 69.1555 107.278 69.8355 107.666 70.3713C108.451 71.4519 109.274 72.4797 109.39 73.8923C109.448 74.5986 109.611 75.2961 109.724 75.9989C109.054 75.8496 108.385 75.7002 107.735 75.5562C107.405 73.8501 107.782 72.0703 106.891 70.3661C107.09 72.2478 107.276 73.9802 107.46 75.709C106.784 75.8092 106.211 75.8707 105.649 75.9831C105.09 76.0938 104.543 76.2572 103.99 76.396C103.999 76.3714 104.006 76.3468 104.015 76.3222C105.931 76.273 107.847 76.2256 109.761 76.1764C109.761 76.2783 109.765 76.3784 109.766 76.4803C109.705 76.7 109.59 76.9196 109.59 77.141C109.577 79.0121 109.549 80.8833 109.605 82.7527C109.635 83.7437 109.691 84.7697 109.977 85.7062C110.203 86.4476 110.796 87.0766 111.266 87.8163C111.364 87.6687 111.492 87.5651 111.497 87.4544C111.521 86.9396 111.486 86.4213 111.528 85.9082C111.544 85.7062 111.705 85.5147 111.8 85.3179C111.94 85.4251 112.208 85.541 112.203 85.6377C112.112 86.973 112.954 87.9621 113.375 89.1112C113.686 89.9633 113.55 90.9806 113.616 91.9224C113.657 92.5022 113.728 93.082 113.742 93.6635C113.772 94.8934 113.76 96.125 113.793 97.3549C113.805 97.8012 113.895 98.2439 113.956 98.7482C114.112 98.7868 114.355 98.8466 114.567 98.8975C114.834 99.8024 114.312 100.913 115.538 101.464C114.52 102.139 114.807 103.062 114.907 103.98C114.944 104.313 114.816 104.869 114.59 104.987C113.765 105.418 113.781 106.136 113.791 106.857C113.823 108.956 113.897 111.056 113.937 113.155C113.961 114.412 113.965 115.67 113.956 116.926C113.953 117.467 114.073 117.839 114.651 118.071C114.982 118.203 115.315 118.572 115.45 118.911C115.73 119.625 116.375 120.255 116.056 121.148C116.016 121.262 116.216 121.446 116.254 121.61C116.321 121.884 116.396 122.17 116.384 122.448C116.361 122.996 116.216 123.544 116.238 124.087C116.312 125.814 116.244 127.512 116.787 129.253C117.137 130.377 117.541 130.44 118.407 130.414C120.85 130.34 123.295 130.279 125.74 130.242C127.635 130.214 129.53 130.252 131.426 130.21C131.967 130.198 132.505 130.012 132.916 129.931C133.668 130.029 134.333 130.191 134.999 130.187C137.239 130.177 139.479 130.098 141.719 130.061C143.064 130.04 143.064 130.054 143.183 128.659C143.189 128.59 143.218 128.524 143.278 128.293C143.42 128.822 143.521 129.198 143.637 129.629C145.031 128.805 146.017 127.686 146.606 126.269C147.264 127.141 147.786 128.065 148.533 128.743C149.033 129.198 149.454 129.915 150.33 129.899C152.841 129.85 155.337 129.998 157.798 130.558C157.971 130.597 158.19 130.432 158.388 130.361C158.25 130.18 158.138 129.966 157.966 129.825C157.735 129.634 157.257 129.52 157.236 129.332C157.127 128.402 157.087 127.45 157.675 126.598C158.33 127.339 157.772 128.615 158.978 129.168C159.252 127.946 158.957 126.707 159.59 125.734C160.057 126.189 160.453 126.572 161.022 127.125C161.14 129.525 161.282 132.218 162.25 134.803C164.443 133.875 163.673 132.108 163.671 130.618C164.221 130.581 164.648 130.555 165.195 130.518C164.485 130.182 163.359 130.885 163.343 129.732C163.797 129.246 164.222 128.908 164.485 128.474C164.795 127.963 164.967 127.367 165.189 126.828C165.739 127.092 166.221 127.174 166.443 127.461C166.941 128.098 167.557 128.801 167.666 129.544C167.801 130.472 167.372 131.468 167.389 132.431C167.398 132.877 167.789 133.54 168.181 133.717C170.904 134.956 171.733 137.308 172.094 140.002C172.141 140.35 172.323 140.791 172.589 140.972C173.061 141.291 173.644 141.444 174.18 141.667C172.787 142.945 171.565 144.319 171.525 146.364C170.943 146.241 170.362 146.118 169.78 145.997C168.671 145.993 167.563 145.988 166.454 145.983C165.378 146.16 164.497 146.687 163.771 147.488C162.616 148.495 161.982 149.813 161.532 151.243C161.247 152.241 160.874 153.223 160.695 154.239C160.441 155.693 160.329 157.173 160.157 158.64C159.931 158.619 159.707 158.598 159.481 158.577C157.989 158.211 156.495 157.854 155.004 157.48C152.582 156.871 150.163 156.249 147.743 155.632C144.355 154.662 140.966 153.692 137.579 152.722C136.797 152.497 136.023 152.251 135.235 152.055C132.986 151.489 130.732 150.944 128.481 150.391C127.868 150.22 127.262 150.027 126.642 149.887C124.334 149.359 122.022 148.852 119.71 148.335C119.764 146.388 119.556 144.405 120.659 142.412C119.634 143.252 119.319 144.941 119.396 148.289C119.156 148.293 118.916 148.295 118.678 148.298C118.384 148.226 118.09 148.152 117.795 148.08V142.265C117.736 144.001 117.668 145.993 117.599 147.986C116.427 147.826 115.259 147.634 114.086 147.511C111.651 147.256 109.213 147.04 106.777 146.807C103.274 146.58 99.7724 146.526 96.2764 146.917C95.9296 146.928 95.574 146.894 95.236 146.954C92.1341 147.504 89.0357 148.07 85.9373 148.632C85.9198 146.385 85.9005 144.138 85.8865 141.889C85.8865 141.752 85.869 141.562 85.946 141.483C86.6098 140.812 86.503 140.007 86.3839 139.192C86.3699 139.094 86.3927 138.925 86.4557 138.89C87.2912 138.421 86.9181 137.697 86.8866 137.026C86.8586 136.451 86.5661 135.667 87.6748 135.762C87.7466 133.563 87.8166 131.421 87.8902 129.281C87.9042 128.845 88.004 128.395 87.9322 127.975C87.8569 127.533 87.6222 127.118 87.3665 126.459C88.1459 124.129 88.6591 121.436 88.4437 118.841C88.6346 118.164 88.8623 117.655 88.9113 117.128C89.0742 115.394 89.1723 113.653 89.3019 111.915C89.3124 111.774 89.3597 111.629 89.4193 111.5C90.0691 110.102 89.9675 108.552 90.2985 107.089C90.3528 106.85 90.2022 106.565 90.1339 106.25C90.8292 105.688 90.57 104.699 90.8555 103.898C90.9413 104.655 91.0271 105.412 91.1095 106.136C91.4352 103.717 91.7645 101.262 92.0956 98.8079C92.0185 98.7939 91.9414 98.7816 91.8644 98.7675C91.761 99.3772 91.6857 99.9956 91.5456 100.597C91.4125 101.171 91.211 101.73 91.0412 102.296C91.4055 99.2964 91.7715 96.299 92.1358 93.2998C92.2147 93.3051 92.2935 93.3086 92.3723 93.3139C92.5072 94.2064 92.642 95.0972 92.7751 95.9897C92.6648 96.1637 92.4581 96.3359 92.4564 96.5098C92.4336 98.2633 92.3968 100.02 92.4564 101.772C92.6 105.892 92.7944 110.01 92.9678 114.129C93.0782 113.916 93.1237 113.684 93.1167 113.456C93.0711 111.941 92.9888 110.427 92.9626 108.912C92.889 104.65 92.8347 100.387 92.7751 96.125L92.7786 96.1356ZM163.469 142.323C163.408 142.377 163.347 142.434 163.285 142.488C163.229 142.549 163.173 142.609 163.117 142.671C163.063 142.734 163.009 142.795 162.953 142.859C162.891 142.973 162.83 143.087 162.769 143.203C162.655 143.382 162.541 143.56 162.427 143.739C162.369 143.797 162.31 143.855 162.252 143.911C162.194 143.971 162.136 144.031 162.079 144.089C162.021 144.148 161.965 144.208 161.907 144.268C161.882 144.298 161.858 144.328 161.835 144.357C161.861 144.331 161.889 144.303 161.916 144.277C161.975 144.22 162.037 144.162 162.096 144.106C162.154 144.048 162.214 143.988 162.271 143.93C162.329 143.872 162.385 143.813 162.443 143.755C162.562 143.581 162.681 143.405 162.8 143.231C162.858 143.113 162.916 142.998 162.972 142.88C163.033 142.824 163.095 142.767 163.154 142.711C163.214 142.653 163.273 142.597 163.333 142.539C163.389 142.477 163.443 142.416 163.499 142.354C163.559 142.298 163.616 142.24 163.676 142.184C163.767 142.103 163.858 142.022 163.949 141.942C163.928 141.922 163.909 141.903 163.888 141.884C163.806 141.973 163.725 142.061 163.643 142.152C163.585 142.21 163.527 142.268 163.469 142.326V142.323ZM151.223 136.911C151.281 136.969 151.338 137.027 151.396 137.085C151.51 137.207 151.626 137.326 151.741 137.445C151.776 137.468 151.811 137.493 151.848 137.516C151.824 137.481 151.799 137.447 151.775 137.412C151.655 137.296 151.536 137.18 151.417 137.064C151.359 137.004 151.303 136.946 151.246 136.887C151.212 136.86 151.179 136.834 151.146 136.808C151.17 136.843 151.197 136.876 151.221 136.911H151.223ZM145.096 133.724C145.07 133.756 145.045 133.789 145.019 133.821C145.052 133.796 145.087 133.773 145.121 133.749C145.147 133.715 145.173 133.684 145.198 133.65C145.163 133.675 145.129 133.698 145.094 133.722L145.096 133.724ZM144.567 134.07C144.544 134.111 144.522 134.149 144.499 134.19C144.537 134.165 144.576 134.141 144.613 134.116C144.635 134.079 144.658 134.042 144.681 134.005L144.567 134.072V134.07ZM149.487 135.49C149.457 135.464 149.428 135.437 149.398 135.413C149.424 135.443 149.452 135.471 149.478 135.501C149.506 135.529 149.533 135.555 149.561 135.583C149.536 135.553 149.512 135.522 149.487 135.492V135.49ZM161.558 134.794L161.63 135.023C161.651 135.007 161.693 134.977 161.692 134.975C161.651 134.912 161.606 134.852 161.56 134.792C161.544 134.713 161.529 134.634 161.56 134.799C161.459 134.668 161.508 134.731 161.557 134.794H161.558ZM149.501 133.895C149.463 133.874 149.426 133.851 149.387 133.83C149.41 133.867 149.433 133.903 149.456 133.94C149.487 134.016 149.52 134.091 149.552 134.167L149.655 134.107C149.604 134.035 149.552 133.965 149.499 133.893L149.501 133.895ZM146.685 139.004C146.692 139.027 146.695 139.053 146.709 139.072C146.718 139.083 146.741 139.085 146.758 139.088C146.732 139.062 146.706 139.034 146.681 139.007C146.608 138.985 146.534 138.962 146.459 138.939C146.534 138.96 146.609 138.981 146.685 139.002V139.004ZM142.98 136.693C142.919 136.809 142.858 136.925 142.795 137.041C142.711 137.129 142.626 137.217 142.542 137.305C142.563 137.322 142.6 137.358 142.602 137.358C142.689 137.273 142.774 137.185 142.858 137.098C142.919 136.985 142.982 136.871 143.043 136.759C143.063 136.715 143.082 136.672 143.101 136.628C143.061 136.651 143.021 136.672 142.978 136.695L142.98 136.693ZM148.935 133.591C148.976 133.612 149.016 133.633 149.054 133.654C149.032 133.615 149.011 133.577 148.988 133.536C148.869 133.478 148.75 133.42 148.631 133.362C148.555 133.332 148.478 133.303 148.403 133.274C148.396 133.299 148.387 133.322 148.38 133.346C148.452 133.366 148.524 133.385 148.596 133.404C148.709 133.466 148.822 133.527 148.935 133.589V133.591ZM150.161 134.993C150.2 135.017 150.238 135.04 150.277 135.065L150.212 134.942C150.153 134.789 150.093 134.636 150.034 134.481C149.976 134.513 149.918 134.545 149.86 134.575C149.96 134.713 150.06 134.854 150.161 134.993ZM150.885 147.258C150.999 146.954 151.207 146.652 151.212 146.348C151.239 144.723 151.212 143.098 151.205 141.472C151.169 140.13 150.988 138.819 150.463 137.577C150.428 137.872 150.485 138.148 150.534 138.426C150.715 139.438 150.892 140.45 151.07 141.462C151.007 143.393 150.943 145.324 150.88 147.255L150.71 147.436C148.554 147.369 146.396 147.302 144.24 147.235C143.828 143.641 143.455 140.048 144.445 136.463C144.205 136.866 144.007 137.279 143.902 137.716C143.271 140.337 143.539 142.985 143.747 145.622C143.791 146.179 144.052 146.717 144.213 147.265C144.618 147.379 145.017 147.573 145.427 147.595C146.9 147.682 148.377 147.729 149.851 147.745C150.133 147.748 150.417 147.541 150.701 147.43C150.76 147.374 150.822 147.318 150.881 147.26L150.885 147.258ZM102.566 141.256C104.167 141.188 105.766 141.119 107.367 141.051C106.179 140.937 105.006 140.921 103.834 140.944C103.416 140.952 102.997 141.049 102.578 141.107H95.4672C95.4672 141.158 95.4672 141.207 95.4672 141.258H102.566V141.256ZM107.486 84.0757C107.546 83.4819 107.631 82.888 107.656 82.2924C107.684 81.6212 107.656 80.9501 107.656 80.2771C107.656 79.6077 107.656 78.9383 107.656 78.2689C107.593 78.2724 107.53 78.2742 107.467 78.2777C107.467 80.2034 107.467 82.129 107.467 84.0564C107.44 84.0863 107.414 84.1179 107.386 84.1478C107.419 84.1232 107.451 84.0986 107.484 84.074L107.486 84.0757ZM90.5034 113.558C90.2705 114.949 90.0148 116.337 89.8133 117.734C89.696 118.555 89.6645 119.387 89.5944 120.215C89.6925 120.225 89.7906 120.236 89.8869 120.246C90.0901 118.015 90.2933 115.784 90.4964 113.552C90.5104 113.533 90.5245 113.512 90.5367 113.493C90.5245 113.516 90.514 113.537 90.5017 113.559L90.5034 113.558ZM92.4318 123.917L92.4178 123.903C92.4003 123.715 92.3811 123.527 92.3635 123.341C92.2882 123.332 92.2112 123.323 92.1358 123.312C91.9432 124.33 91.7505 125.349 91.5561 126.366C91.6209 126.384 91.6875 126.401 91.7523 126.419C91.9204 125.753 92.0868 125.087 92.2549 124.421C92.4931 125.756 93.0711 126.027 94.8069 125.405H92.9135C92.7436 124.881 92.5877 124.4 92.4301 123.917H92.4318ZM106.092 124.98C106.206 124.7 106.43 124.416 106.414 124.143C106.302 122.026 106.144 119.913 106.001 117.799C105.796 118.143 105.717 118.504 105.733 118.858C105.827 120.886 105.946 122.914 106.057 124.941C105.941 125.001 105.827 125.061 105.712 125.12C105.547 124.862 105.262 124.616 105.234 124.344C105.02 122.179 104.818 120.013 104.694 117.841C104.642 116.919 104.841 115.982 104.824 115.055C104.764 111.799 104.661 108.543 104.575 105.288C104.381 105.606 104.321 105.936 104.328 106.266C104.381 108.947 104.458 111.629 104.5 114.31C104.515 115.33 104.561 116.365 104.417 117.369C104.06 119.848 104.719 122.227 105.039 124.635C105.067 124.841 105.505 124.992 105.752 125.17C105.864 125.106 105.976 125.045 106.088 124.982L106.092 124.98ZM119.042 139.195C119.533 138.045 120.023 136.894 120.426 135.947C120.629 136.52 120.932 137.373 121.235 138.229C121.305 138.199 121.375 138.168 121.446 138.138C121.111 137.026 120.776 135.912 120.44 134.799C120.384 134.821 120.328 134.84 120.27 134.861C119.85 136.296 119.43 137.732 119.009 139.167C118.986 139.202 118.962 139.238 118.939 139.273C118.972 139.248 119.007 139.222 119.041 139.197L119.042 139.195ZM99.7742 100.131C99.7777 100.215 99.7829 100.298 99.7864 100.382C104.451 100.159 109.115 99.9359 113.779 99.7145C113.774 99.6056 113.769 99.4967 113.763 99.386C109.101 99.6337 104.438 99.8832 99.7742 100.131ZM92.4459 121.304C92.3881 117.163 91.9379 113.052 91.0464 108.99C91.5123 113.094 91.98 117.2 92.4459 121.304ZM138.589 149.697V138.12C138.491 138.12 138.393 138.12 138.293 138.12C138.33 141.97 138.157 145.817 138.589 149.697ZM109.047 122.85C108.887 119.108 108.726 115.367 108.567 111.625C108.237 115.399 108.404 119.145 109.047 122.85ZM141.281 148.093C141.281 148.123 141.281 148.152 141.281 148.182H153.503C153.503 148.152 153.503 148.123 153.502 148.093H141.28H141.281ZM157.844 138.709C157.54 142.256 158.136 145.788 158.252 149.342C158.336 149.337 158.42 149.333 158.506 149.328C158.285 145.788 158.064 142.247 157.845 138.707L157.844 138.709ZM102.613 129.079C102.617 129.13 102.622 129.179 102.626 129.23H111.55C111.55 129.179 111.55 129.13 111.55 129.079H102.612H102.613ZM99.8214 102.368L99.832 102.533H114.105V102.368H99.8197H99.8214ZM109.586 105.226C110.49 107.941 109.952 110.762 110.199 113.514C110.495 110.703 110.74 107.897 109.586 105.226ZM161.907 145.735H169.759C167.132 145.009 164.522 145.601 161.907 145.735ZM147.492 146.548C147.515 146.557 147.539 146.564 147.562 146.573C147.615 146.28 147.722 145.984 147.709 145.693C147.63 143.95 147.534 142.207 147.415 140.466C147.392 140.13 147.235 139.802 147.107 139.359C147.242 141.871 147.366 144.21 147.492 146.55V146.548ZM94.2096 137.377C94.2131 137.437 94.2166 137.496 94.2201 137.554H106.621C106.621 137.495 106.621 137.435 106.621 137.377H94.2114H94.2096ZM105.736 106.119L105.589 106.124V113.762L105.736 113.754V106.12V106.119ZM158.784 136.156C159.091 133.283 159.378 130.585 159.667 127.884C158.793 130.525 158.686 133.252 158.784 136.156ZM100.415 122.736L100.268 122.703V129.377L100.415 129.381V122.736ZM112.329 137.609C112.35 137.605 112.371 137.602 112.392 137.598V130.88C112.278 130.885 112.164 130.888 112.05 130.894C112.143 133.132 112.236 135.37 112.329 137.609ZM122.36 148.539C122.491 146.663 122.754 144.783 121.971 142.875C122.106 144.842 122.232 146.691 122.36 148.539ZM105.43 75.7354C105.78 73.8589 106.106 72.1248 106.43 70.3907C105.475 72.4358 105.288 73.4882 105.43 75.7354ZM93.7192 119.37C93.6211 119.373 93.523 119.379 93.4249 119.382C93.3041 121.174 93.1815 122.968 93.0606 124.76C93.15 124.767 93.2393 124.772 93.3286 124.779C93.4582 122.977 93.5896 121.172 93.7192 119.37ZM91.6121 127.796C91.5719 127.803 91.5316 127.81 91.4913 127.819V135.469C91.5316 135.469 91.5719 135.469 91.6121 135.471V127.796ZM116.492 139.485C116.455 139.489 116.419 139.491 116.382 139.494V144.261C116.419 144.261 116.455 144.259 116.492 144.257V139.485ZM128.805 145.027C128.8 145 128.793 144.972 128.788 144.946H123.752C123.754 144.972 123.757 145 123.759 145.027H128.805ZM161.087 134.199L161.336 134.149C161.028 132.528 160.719 130.906 160.413 129.284C160.32 129.304 160.226 129.321 160.133 129.341C160.451 130.96 160.77 132.579 161.089 134.199H161.087ZM88.9831 129.044C88.9253 129.038 88.8675 129.033 88.8115 129.028V136.156C88.8693 136.156 88.9271 136.156 88.9831 136.156V129.044ZM149.109 141.446C148.9 143.022 148.911 144.572 149.613 146.03C149.445 144.501 149.277 142.975 149.109 141.446ZM145.776 139.865C145.721 139.872 145.667 139.877 145.615 139.884V145.101C145.669 145.101 145.723 145.099 145.776 145.097V139.865ZM88.7064 123.824C88.5943 123.824 88.4822 123.827 88.3701 123.829C88.3176 124.519 88.2633 125.21 88.2107 125.9C88.2808 125.914 88.3508 125.927 88.4209 125.941C88.5032 125.786 88.5873 125.633 88.6696 125.477C88.7467 125.698 88.8202 125.909 88.8956 126.122C88.9551 126.104 89.0164 126.085 89.076 126.067C88.9534 125.319 88.8308 124.572 88.7064 123.824ZM104.57 94.9971C104.54 94.9795 104.508 94.9637 104.479 94.9461V98.9625C104.508 98.959 104.54 98.9573 104.57 98.9538V94.9971ZM161.401 144.443L161.667 144.405C161.476 143.012 161.285 141.618 161.094 140.225C161.001 140.237 160.91 140.251 160.818 140.264C161.012 141.657 161.206 143.05 161.401 144.443ZM90.8327 141.411C90.845 141.499 90.8572 141.587 90.8695 141.675C92.0535 141.516 93.2393 141.356 94.4233 141.198C94.411 141.105 94.397 141.01 94.3848 140.917C93.2008 141.081 92.0167 141.246 90.8327 141.409V141.411ZM111.989 121.489C111.963 121.489 111.937 121.489 111.91 121.489V127.714C111.937 127.714 111.963 127.714 111.989 127.714V121.489ZM142.204 137.651C142.199 137.625 142.194 137.598 142.187 137.572H138.764C138.768 137.598 138.773 137.625 138.777 137.651H142.204ZM91.8819 122.2C90.7241 121.346 89.4911 121.22 88.9201 121.759C89.8396 121.896 90.8975 122.054 91.8819 122.2ZM114.977 138.642C114.968 138.614 114.961 138.586 114.953 138.558H111.497C111.502 138.653 111.507 138.747 111.511 138.842C112.667 138.776 113.821 138.709 114.977 138.642ZM108.068 86.6356C107.985 86.655 107.901 86.676 107.819 86.6954C108.069 87.7583 108.318 88.8213 108.568 89.8843C108.654 89.8632 108.738 89.8439 108.824 89.8228C108.572 88.7598 108.32 87.6986 108.068 86.6356ZM105.072 89.9071C105.148 89.9212 105.225 89.9352 105.3 89.951C105.493 88.9162 105.684 87.8813 105.876 86.8465C105.792 86.8307 105.708 86.8148 105.624 86.799C105.44 87.8356 105.256 88.8723 105.072 89.9089V89.9071ZM104.417 84.6889C104.433 84.7662 104.449 84.8453 104.465 84.9226C105.304 84.7592 106.143 84.5958 106.982 84.4306C106.966 84.3603 106.952 84.2901 106.936 84.2198C106.095 84.3762 105.256 84.5308 104.416 84.6871L104.417 84.6889ZM121.77 139.125C121.838 139.09 121.908 139.053 121.976 139.018C121.875 138.849 121.773 138.682 121.671 138.514C121.619 138.544 121.565 138.575 121.512 138.605C121.598 138.779 121.684 138.951 121.77 139.125ZM165.951 130.261C165.956 130.289 165.96 130.316 165.965 130.344H166.958C166.958 130.316 166.958 130.289 166.958 130.261H165.955H165.951ZM164.259 141.599C164.291 141.671 164.322 141.743 164.354 141.815C164.548 141.741 164.743 141.667 164.937 141.594C164.923 141.544 164.909 141.497 164.895 141.448C164.683 141.499 164.471 141.548 164.258 141.599H164.259ZM118.64 139.805C118.689 139.784 118.762 139.775 118.78 139.738C118.795 139.703 118.753 139.642 118.738 139.591C118.689 139.612 118.617 139.622 118.598 139.659C118.58 139.691 118.624 139.754 118.641 139.805H118.64ZM144.177 134.814C144.157 134.763 144.138 134.715 144.12 134.668C144.071 134.689 144.024 134.71 143.975 134.731C144.001 134.789 144.028 134.847 144.056 134.905C144.096 134.875 144.138 134.843 144.178 134.814H144.177ZM91.0026 108.392C90.9834 108.355 90.9623 108.31 90.9396 108.264C90.9221 108.285 90.8888 108.306 90.8888 108.327C90.8888 108.382 90.9045 108.434 90.915 108.489C90.9431 108.457 90.9728 108.426 91.0026 108.392ZM159.947 127.408C159.933 127.387 159.919 127.366 159.903 127.345C159.886 127.362 159.851 127.392 159.852 127.397C159.87 127.427 159.898 127.452 159.923 127.476L159.947 127.408ZM150.296 137.006C150.275 137.012 150.244 137.01 150.235 137.022C150.221 137.043 150.224 137.073 150.219 137.099C150.254 137.092 150.289 137.085 150.323 137.078C150.314 137.054 150.303 137.029 150.295 137.006H150.296ZM109.29 123.335C109.281 123.36 109.274 123.384 109.266 123.409C109.299 123.413 109.334 123.414 109.367 123.418C109.362 123.391 109.362 123.363 109.348 123.342C109.341 123.332 109.309 123.337 109.288 123.335H109.29ZM109.174 104.848C109.18 104.868 109.178 104.898 109.19 104.906C109.21 104.92 109.238 104.919 109.262 104.924C109.255 104.891 109.248 104.855 109.241 104.822C109.218 104.831 109.197 104.84 109.174 104.848ZM150.769 136.107L150.806 136.135L150.813 136.089L150.769 136.105V136.107ZM143.479 135.938L143.441 135.908L143.434 135.957L143.479 135.938ZM150.62 135.794L150.648 135.748L150.606 135.743L150.62 135.794ZM143.593 135.578L143.63 135.606L143.637 135.56L143.593 135.576V135.578ZM150.421 135.404L150.457 135.432L150.464 135.386L150.421 135.402V135.404ZM143.802 135.198L143.775 135.24L143.816 135.246L143.802 135.197V135.198ZM143.241 136.286L143.282 136.316L143.287 136.268L143.241 136.286ZM150.978 136.426L150.95 136.47L150.992 136.476L150.978 136.425V136.426Z" fill="white"/>
<path d="M160.215 84.1038C163.858 87.3472 167.016 91.0175 169.755 95.0497C175.113 102.935 178.523 111.592 179.956 121.032C180.863 127.018 180.931 133.007 180.134 139.009C180.096 139.297 180.089 139.591 180.068 139.882C179.499 139.819 178.928 139.758 178.357 139.694C178.194 136.841 178.171 133.97 177.84 131.136C176.719 121.54 173.594 112.611 168.349 104.508C166.264 101.289 163.739 98.3564 161.414 95.294C161.507 95.1025 161.703 94.8951 161.677 94.723C161.32 92.3563 160.908 89.9985 160.561 87.6301C160.39 86.4634 160.325 85.281 160.213 84.1056L160.215 84.1038Z" fill="white"/>
<path d="M66.4898 107.234C63.9028 112.129 61.8536 117.232 60.5435 122.624C57.7218 134.244 58.0406 145.784 61.3807 157.252C61.491 157.63 61.5873 158.013 61.6889 158.394L61.4735 158.478C61.2248 157.972 60.9621 157.471 60.7274 156.958C57.4555 149.793 55.5814 142.277 55.1173 134.402C54.3536 121.457 57.3242 109.429 63.8766 98.2721C64.0237 98.0226 64.2006 97.7924 64.3652 97.5517C64.4948 97.8029 64.7015 98.0419 64.7418 98.3072C65.1201 100.767 65.4407 103.235 65.8505 105.688C65.9398 106.217 65.6894 106.971 66.4898 107.234Z" fill="white"/>
<path d="M176.699 184.295C176.699 180.252 176.727 176.308 176.678 172.365C176.666 171.448 177.058 171.185 177.846 171.128C180.547 170.933 180.608 170.984 180.608 173.699C180.608 178.495 180.608 183.292 180.608 188.087C180.608 189.345 180.139 189.83 178.89 189.879C178.86 189.879 178.831 189.875 178.802 189.879C176.392 190.244 174.86 189.28 173.681 187.09C171.658 183.331 169.351 179.727 167.123 175.992C167.102 176.159 167.067 176.299 167.069 176.438C167.088 180.59 167.101 184.741 167.146 188.893C167.153 189.485 166.926 189.758 166.386 189.847C166.3 189.861 166.213 189.875 166.127 189.886C163.501 190.211 163.225 189.97 163.225 187.361C163.225 182.652 163.225 177.944 163.225 173.235C163.225 171.51 163.585 171.153 165.342 171.156C166.129 171.158 166.917 171.156 167.701 171.195C168.731 171.248 169.402 171.85 169.903 172.706C172.091 176.456 174.287 180.203 176.48 183.949C176.534 184.042 176.597 184.132 176.701 184.292L176.699 184.295ZM167.071 175.834C167.088 175.818 167.122 175.8 167.123 175.783C167.125 175.763 167.097 175.742 167.081 175.723C167.064 175.74 167.034 175.758 167.032 175.777C167.032 175.797 167.059 175.818 167.071 175.834Z" fill="white"/>
<path d="M139.747 179.723C140.111 179.857 140.349 179.945 140.589 180.033C142.152 180.597 143.234 181.632 143.534 183.304C143.866 185.158 143.399 186.792 141.898 188.013C140.181 189.41 138.118 189.759 135.997 189.81C133.928 189.859 131.858 189.831 129.788 189.817C128.697 189.808 128.397 189.489 128.397 188.389C128.394 183.127 128.394 177.865 128.397 172.602C128.397 171.64 128.704 171.162 129.536 171.178C132.443 171.232 135.358 171.258 138.251 171.508C139.887 171.648 141.313 172.471 142.034 174.108C143.005 176.306 142.178 178.399 139.747 179.723ZM132.643 186.781C134.084 186.781 135.487 186.895 136.862 186.75C138.312 186.597 139.12 185.65 139.16 184.43C139.204 183.107 138.423 182.074 136.934 181.849C135.536 181.639 134.104 181.663 132.643 181.581V186.779V186.781ZM132.592 174.022V178.824C133.683 178.824 134.643 178.833 135.603 178.817C135.831 178.813 136.063 178.745 136.286 178.683C137.393 178.372 138.076 177.496 138.083 176.387C138.09 175.273 137.521 174.449 136.303 174.243C135.116 174.043 133.886 174.089 132.592 174.022Z" fill="white"/>
<path d="M92.426 81.9515C89.4659 83.7981 86.4271 85.5323 83.5721 87.5317C81.5141 88.9724 79.682 90.7434 77.7904 92.4161C76.8323 93.2629 75.9689 94.217 75.0633 95.1236C74.8426 94.3522 74.5536 93.595 74.4153 92.8096C74.0247 90.5941 73.6936 88.368 73.3398 86.1454C76.0897 83.2271 79.1443 80.6531 82.509 78.5026C85.3184 76.7087 88.2994 75.1854 91.2034 73.5409C91.2858 74.2297 91.3541 74.9219 91.4556 75.6071C91.7709 77.7225 92.1002 79.8362 92.4242 81.9515H92.426Z" fill="white"/>
<path d="M67.4295 183.385C67.4295 185.291 67.4033 187.073 67.4436 188.851C67.4576 189.482 67.2264 189.812 66.6291 189.828C65.7008 189.854 64.7708 189.854 63.8425 189.814C63.3363 189.793 63.0998 189.499 63.1016 188.942C63.1173 183.503 63.1051 178.063 63.1191 172.624C63.1208 171.677 63.5202 171.165 64.3994 171.179C67.1633 171.227 69.9429 171.202 72.6823 171.508C75.5215 171.826 77.3028 173.746 77.5322 176.225C77.8054 179.174 76.4655 181.605 73.7805 182.55C72.4073 183.035 70.8975 183.151 69.4385 183.367C68.815 183.461 68.1652 183.383 67.4295 183.383V183.385ZM67.4628 180.458C68.5663 180.393 69.6189 180.424 70.6348 180.247C72.2111 179.971 73.0816 178.696 73.0308 176.976C72.9853 175.431 72.1428 174.44 70.5174 174.243C69.5243 174.122 68.505 174.221 67.4611 174.221V180.458H67.4628Z" fill="white"/>
<path d="M136.715 70.526C139.531 71.6276 142.411 72.5939 145.146 73.8712C147.499 74.9693 149.688 76.4206 151.949 77.7155C151.904 77.8508 151.802 77.9966 151.82 78.1231C152.172 80.5179 152.562 82.9056 152.883 85.3038C152.984 86.0611 152.904 86.8429 152.906 87.6125C148.262 84.2567 143.293 81.5018 137.934 79.4707C137.927 79.0912 137.96 78.7064 137.906 78.3339C137.519 75.7301 137.114 73.128 136.713 70.5242L136.715 70.526Z" fill="white"/>
<path d="M85.7801 155.86C82.8883 156.625 79.9476 157.247 77.1119 158.185C70.8012 160.276 64.9985 163.319 60.1135 167.939C60.0137 168.034 59.8911 168.105 59.6406 168.105C59.8123 167.753 59.9699 167.393 60.1608 167.052C62.7566 162.386 66.4295 158.726 70.7574 155.686C75.1887 152.575 80.0649 150.4 85.2441 148.882C85.4385 148.825 85.6435 148.804 85.8449 148.767C85.9395 149.08 86.1269 149.398 86.1146 149.707C86.027 151.76 85.8974 153.81 85.7818 155.86H85.7801Z" fill="white"/>
<path d="M117.57 179.049C118.56 177.044 119.68 175.027 120.556 172.908C121.161 171.443 122.049 170.881 123.558 171.088C124.103 171.164 124.667 171.093 125.217 171.149C125.714 171.2 125.961 171.473 125.699 171.993C125.502 172.383 125.305 172.771 125.089 173.151C123.437 176.067 121.761 178.97 120.146 181.906C119.854 182.438 119.693 183.1 119.67 183.71C119.607 185.404 119.619 187.103 119.663 188.798C119.68 189.464 119.444 189.819 118.803 189.842C117.931 189.873 117.057 189.879 116.184 189.849C115.573 189.828 115.288 189.54 115.31 188.839C115.368 187.115 115.36 185.388 115.31 183.663C115.295 183.137 115.158 182.563 114.906 182.108C113.144 178.921 111.335 175.76 109.545 172.587C108.867 171.385 108.998 171.158 110.378 171.102C112.459 171.02 113.962 171.889 114.888 173.709C115.796 175.498 116.687 177.292 117.57 179.049Z" fill="white"/>
<path d="M147.746 155.641C150.167 156.257 152.585 156.879 155.008 157.489C156.498 157.863 157.992 158.222 159.485 158.587C159.535 160.469 159.532 162.356 159.663 164.231C159.723 165.076 159.877 166.024 160.816 166.436C161.756 166.85 162.562 166.383 163.34 165.901C163.413 165.856 163.464 165.778 163.536 165.727C165.384 164.433 167.356 163.417 169.612 163.053C169.004 163.385 168.409 163.742 167.787 164.044C166.093 164.865 164.349 165.61 163.478 167.469C157.928 167.154 152.524 166.045 147.203 164.476C147.384 161.532 147.566 158.585 147.746 155.641Z" fill="white"/>
<path d="M92.4259 81.9516C92.1018 79.8379 91.7726 77.7225 91.4573 75.6071C91.3557 74.9219 91.2874 74.2297 91.2051 73.5409C95.2353 71.5415 99.4827 70.1623 103.854 69.152C104.559 68.9886 105.28 68.9008 105.993 68.7795C105.953 69.6422 105.566 70.3028 104.956 70.9143C103.888 71.9878 103.525 73.3494 103.644 74.8393C103.66 75.0291 103.853 75.2048 103.982 75.4156C103.539 75.7073 103.126 76.0815 103.555 76.7966C103.709 77.0514 103.697 77.4063 103.762 77.7155C99.8558 78.7855 96.083 80.2104 92.4259 81.9498V81.9516Z" fill="white"/>
<path d="M73.3417 86.1454C73.6955 88.368 74.0248 90.5941 74.4171 92.8096C74.5555 93.595 74.8445 94.3522 75.0652 95.1236C73.2979 97.4006 71.4641 99.6284 69.7844 101.969C68.5794 103.647 67.581 105.474 66.4898 107.234C65.6894 106.971 65.9398 106.219 65.8505 105.688C65.4407 103.235 65.1201 100.767 64.7418 98.3072C64.7015 98.0419 64.4948 97.8029 64.3652 97.5517C66.8664 93.3613 69.8562 89.5557 73.3417 86.1437V86.1454Z" fill="white"/>
<path d="M85.1665 186.66C87.2981 186.66 89.2808 186.693 91.2617 186.644C92.0744 186.623 92.374 186.978 92.3985 187.711C92.4072 187.944 92.402 188.178 92.3985 188.413C92.3845 189.685 92.2478 189.823 91.0025 189.823C88.1441 189.823 85.2856 189.824 82.4289 189.823C81.103 189.823 80.8473 189.563 80.8473 188.243C80.8473 182.919 80.8666 177.596 80.8263 172.272C80.8193 171.448 81.1346 171.202 81.8614 171.127C84.9949 170.802 85.1665 170.942 85.1665 174.043V185.625C85.1665 185.938 85.1665 186.252 85.1665 186.662V186.66Z" fill="white"/>
<path d="M106.78 146.817C109.217 147.049 111.655 147.267 114.089 147.522C115.265 147.645 116.433 147.836 117.603 147.996C117.668 148.028 117.732 148.059 117.799 148.091C118.093 148.163 118.388 148.237 118.682 148.309C118.564 150.999 118.449 153.689 118.331 156.379C116.147 156.064 113.968 155.725 111.781 155.442C109.94 155.205 108.092 155.033 106.246 154.832C106.307 153.478 106.348 152.123 106.437 150.77C106.525 149.451 106.663 148.135 106.779 146.819L106.78 146.817Z" fill="white"/>
<path d="M147.745 155.641C147.565 158.585 147.382 161.532 147.202 164.476C144.492 163.638 141.781 162.807 139.075 161.959C138.385 161.743 137.711 161.474 137.029 161.23C137.213 158.397 137.397 155.565 137.579 152.731C140.967 153.701 144.356 154.671 147.743 155.641H147.745Z" fill="white"/>
<path d="M106.781 146.817C106.665 148.135 106.527 149.449 106.439 150.769C106.35 152.121 106.309 153.476 106.248 154.831C102.815 154.796 99.3822 154.762 95.9492 154.727C96.0596 152.127 96.1699 149.526 96.2803 146.926C99.7763 146.534 103.278 146.589 106.781 146.815V146.817Z" fill="white"/>
<path d="M117.633 67.5953C120.912 67.8396 124.189 68.0838 127.468 68.328C127.545 68.9552 127.613 69.5842 127.7 70.2097C128.016 72.4323 128.338 74.6548 128.659 76.8774C125.392 76.5594 122.125 76.2432 118.859 75.9251C118.768 75.2364 118.687 74.5477 118.584 73.8607C118.272 71.7717 117.952 69.6844 117.633 67.5953Z" fill="white"/>
<path d="M117.633 67.5953C117.95 69.6826 118.27 71.7717 118.584 73.8607C118.687 74.5477 118.768 75.2364 118.859 75.9251C118.02 75.9427 117.179 75.9287 116.344 75.9866C114.152 76.136 111.963 76.3152 109.774 76.4821C109.774 76.3802 109.77 76.28 109.768 76.1781C109.756 76.1184 109.742 76.0587 109.73 76.0007C109.614 75.2997 109.451 74.6004 109.395 73.8941C109.28 72.4815 108.457 71.4536 107.672 70.3731C107.281 69.8372 107.089 69.1573 106.807 68.5423C110.416 68.2278 114.025 67.9133 117.634 67.5971L117.633 67.5953Z" fill="white"/>
<path d="M152.907 87.6125C152.903 86.8412 152.984 86.0611 152.884 85.3038C152.563 82.9056 152.171 80.5161 151.821 78.1231C151.801 77.9966 151.903 77.8525 151.95 77.7155C154.924 79.5585 157.681 81.6862 160.216 84.1038C160.328 85.2792 160.394 86.4617 160.564 87.6283C160.911 89.9967 161.323 92.3546 161.68 94.7212C161.706 94.8951 161.51 95.1007 161.417 95.2922C158.582 92.7323 155.746 90.1724 152.908 87.6107L152.907 87.6125Z" fill="white"/>
<path d="M118.33 156.377C118.447 153.687 118.563 150.997 118.68 148.307C118.92 148.304 119.16 148.302 119.398 148.298C119.504 148.314 119.607 148.328 119.712 148.344C122.022 148.859 124.336 149.368 126.644 149.895C127.263 150.036 127.871 150.231 128.484 150.4C128.307 153.105 128.128 155.811 127.951 158.517C124.744 157.803 121.537 157.09 118.33 156.379V156.377Z" fill="white"/>
<path d="M128.658 76.8757C128.337 74.6531 128.015 72.4323 127.7 70.2079C127.61 69.5825 127.544 68.9535 127.467 68.3262C130.549 69.0589 133.632 69.7915 136.715 70.5242C137.114 73.1263 137.52 75.7284 137.908 78.3339C137.964 78.7064 137.929 79.0912 137.936 79.4707C134.842 78.6063 131.749 77.7401 128.658 76.8757Z" fill="white"/>
<path d="M127.951 158.515C128.128 155.809 128.307 153.104 128.484 150.398C130.736 150.951 132.988 151.496 135.237 152.062C136.026 152.26 136.8 152.506 137.581 152.729C137.397 155.562 137.215 158.394 137.031 161.228C134.004 160.323 130.978 159.42 127.951 158.515Z" fill="white"/>
<path d="M96.2798 146.928C96.1694 149.528 96.0591 152.128 95.9487 154.729C92.5596 155.107 89.1704 155.484 85.7812 155.862C85.8968 153.812 86.0282 151.761 86.114 149.709C86.1263 149.4 85.9389 149.084 85.8443 148.769C85.8636 148.716 85.8951 148.674 85.9406 148.641C89.039 148.08 92.1375 147.513 95.2394 146.963C95.5774 146.903 95.933 146.935 96.2798 146.926V146.928Z" fill="white"/>
<path d="M199.733 150.431C199.498 150.988 199.316 151.577 199.02 152.099C195.382 158.482 189.961 162.716 183.158 165.267C182.976 165.336 182.762 165.318 182.564 165.341C182.862 164.589 183.16 163.839 183.458 163.087C183.619 162.82 183.834 162.572 183.934 162.284C184.37 161.031 184.775 159.766 185.19 158.505C190.751 157.289 195.846 155.228 199.509 150.565C199.559 150.5 199.64 150.458 199.708 150.405L199.734 150.431H199.733Z" fill="white"/>
<path d="M163.478 167.469C164.349 165.61 166.093 164.865 167.787 164.044C168.409 163.742 169.004 163.385 169.612 163.053C169.729 163.053 169.845 163.053 169.962 163.053C170.411 163.278 170.856 163.475 171.187 162.878C171.595 162.82 172.003 162.76 172.413 162.702C172.53 162.644 172.647 162.586 172.763 162.528C172.879 162.528 172.996 162.528 173.112 162.528C173.229 162.47 173.345 162.412 173.462 162.354C173.998 162.171 174.536 161.99 175.072 161.808C176.83 162.813 177.986 164.383 179.049 166.044C179.109 166.183 179.168 166.323 179.228 166.462C175.275 167.416 171.257 167.776 167.2 167.73C165.958 167.716 164.718 167.56 163.477 167.469H163.478Z" fill="white"/>
<path d="M178.358 139.694C178.929 139.758 179.498 139.819 180.069 139.882C181.88 140.529 183.162 141.792 184.155 143.396C182.464 143.807 180.77 144.219 179.078 144.63C178.425 144.503 177.773 144.377 177.12 144.25C176.631 144.19 176.141 144.129 175.652 144.069C175.536 144.043 175.421 144.017 175.303 143.988C176.282 145.519 175.176 145.457 174.499 145.786C173.911 146.07 173.384 146.48 172.829 146.833C172.853 146.91 172.879 146.988 172.904 147.065C172.445 146.833 171.986 146.601 171.525 146.371C171.566 144.324 172.788 142.952 174.181 141.675C175.422 140.698 176.715 139.826 178.356 139.694H178.358Z" fill="white"/>
<path d="M101.055 182.157C99.4524 182.157 97.8497 182.166 96.2471 182.153C95.1437 182.146 94.5657 181.6 94.5587 180.593C94.5517 179.578 95.1209 179.028 96.2226 179.026C99.4278 179.019 102.633 179.019 105.838 179.026C106.959 179.029 107.462 179.539 107.453 180.616C107.446 181.626 106.93 182.141 105.861 182.152C104.258 182.167 102.656 182.155 101.053 182.155L101.055 182.157Z" fill="white"/>
<path d="M101.092 189.909C99.4313 189.909 97.7726 189.916 96.1122 189.907C95.0753 189.902 94.5446 189.352 94.5568 188.338C94.5691 187.38 95.0998 186.834 96.0929 186.83C99.384 186.818 102.673 186.818 105.964 186.83C106.991 186.834 107.478 187.394 107.451 188.449C107.429 189.418 106.922 189.902 105.896 189.907C104.295 189.914 102.693 189.909 101.092 189.909Z" fill="white"/>
<path d="M101.048 171.099C102.649 171.099 104.251 171.091 105.852 171.1C106.95 171.107 107.444 171.58 107.453 172.599C107.462 173.629 106.98 174.189 105.922 174.198C102.631 174.224 99.3419 174.224 96.0508 174.196C95.0734 174.187 94.548 173.572 94.5567 172.629C94.5673 171.636 95.1085 171.107 96.1541 171.1C97.7848 171.091 99.4154 171.099 101.046 171.099H101.048Z" fill="white"/>
<path d="M153.322 178.998C154.923 178.998 156.524 178.989 158.125 179.001C159.228 179.01 159.661 179.456 159.664 180.537C159.666 181.616 159.233 182.097 158.142 182.102C154.883 182.12 151.621 182.12 148.362 182.102C147.327 182.097 146.817 181.533 146.834 180.509C146.85 179.511 147.33 179.012 148.346 179.001C150.005 178.986 151.663 178.998 153.324 178.996L153.322 178.998Z" fill="white"/>
<path d="M153.232 174.287C151.66 174.287 150.088 174.294 148.516 174.286C147.323 174.279 146.817 173.785 146.832 172.671C146.846 171.64 147.375 171.158 148.53 171.156C151.703 171.151 154.877 171.149 158.051 171.156C159.198 171.16 159.664 171.627 159.664 172.725C159.664 173.811 159.189 174.277 158.037 174.284C156.436 174.294 154.835 174.287 153.232 174.287Z" fill="white"/>
<path d="M153.248 186.85C154.852 186.85 156.457 186.844 158.061 186.85C159.264 186.855 159.672 187.254 159.664 188.398C159.657 189.457 159.2 189.905 158.093 189.907C154.884 189.912 151.675 189.91 148.466 189.907C147.314 189.907 146.822 189.425 146.832 188.343C146.843 187.294 147.303 186.857 148.433 186.852C150.037 186.844 151.642 186.85 153.246 186.85H153.248Z" fill="white"/>
<path d="M177.121 144.25C177.774 144.377 178.426 144.503 179.079 144.63C179.675 144.957 180.319 145.619 180.859 145.543C182.214 145.352 183.523 144.827 184.85 144.435C185.372 145.492 185.894 146.55 186.416 147.608C185.856 147.745 185.271 147.822 184.74 148.035C183.989 148.337 183.428 148.214 182.945 147.56C182.722 147.26 182.451 146.97 182.141 146.768C181.824 146.562 181.431 146.473 181.072 146.33C181.279 146.661 181.449 147.024 181.701 147.316C181.962 147.618 182.3 147.85 182.762 148.249C182.191 148.442 181.876 148.569 181.55 148.655C180.659 148.894 179.745 149.064 178.879 149.375C178.589 149.481 178.42 149.927 178.196 150.219C177.613 150.224 177.032 150.229 176.448 150.233C176.147 149.764 175.848 149.296 175.546 148.827C175.524 148.655 175.52 148.477 175.473 148.314C175.091 147.023 175.175 146.879 176.522 146.54C176.972 146.427 177.426 146.323 177.869 146.188C178.033 146.137 178.175 146.009 178.503 145.809C177.489 145.605 176.937 145.195 177.121 144.25Z" fill="white"/>
<path d="M176.445 150.233C177.029 150.227 177.61 150.222 178.193 150.219C179.3 150.405 180.407 150.591 181.516 150.777C181.521 151.039 181.495 151.306 181.533 151.563C181.873 153.819 182.206 156.076 182.577 158.325C182.84 159.917 183.161 161.5 183.457 163.088C183.159 163.84 182.861 164.591 182.563 165.343L182.569 165.334C182.511 165.39 182.455 165.445 182.397 165.501C182.218 165.738 182.04 165.975 181.861 166.212C181.686 165.631 181.554 165.032 181.325 164.473C181.108 163.941 181.518 163.127 180.642 162.883C181.611 159.647 181.385 156.54 179.426 153.727C178.556 152.476 177.445 151.394 176.445 150.234V150.233Z" fill="white"/>
<path d="M181.514 150.776C180.407 150.589 179.3 150.403 178.191 150.217C178.416 149.925 178.584 149.479 178.874 149.374C179.74 149.063 180.654 148.892 181.546 148.653C181.871 148.565 182.187 148.441 182.758 148.247C182.297 147.848 181.957 147.617 181.696 147.314C181.444 147.023 181.274 146.661 181.067 146.329C181.426 146.469 181.819 146.561 182.136 146.766C182.446 146.966 182.717 147.258 182.94 147.559C183.425 148.212 183.985 148.335 184.735 148.033C185.266 147.82 185.851 147.743 186.411 147.606C187.301 149.41 187.762 151.341 188.166 153.316C186.818 153.039 185.562 152.779 184.304 152.519C183.374 151.937 182.444 151.355 181.512 150.774L181.514 150.776Z" fill="white"/>
<path d="M181.514 150.776C182.445 151.357 183.375 151.939 184.306 152.52C185.408 154.077 185.503 155.827 185.291 157.638C185.257 157.928 185.222 158.216 185.189 158.506C184.774 159.768 184.369 161.033 183.933 162.286C183.833 162.574 183.618 162.821 183.457 163.088C183.163 161.502 182.84 159.919 182.578 158.327C182.206 156.076 181.874 153.819 181.534 151.565C181.495 151.308 181.52 151.041 181.516 150.779L181.514 150.776Z" fill="white"/>
<path d="M180.643 162.881C181.519 163.125 181.109 163.937 181.326 164.471C181.554 165.03 181.687 165.629 181.862 166.211C181.373 166.982 180.885 167.753 180.321 168.644C179.904 167.811 179.567 167.137 179.229 166.462C179.17 166.321 179.11 166.182 179.051 166.044C179.13 165.835 179.299 165.613 179.275 165.416C179.105 163.956 178.905 162.5 178.697 161.045C178.485 159.573 178.2 159.437 176.849 160.119C176.723 160.182 176.576 160.204 176.438 160.244C176.469 160.133 176.464 159.984 176.537 159.921C177.795 158.817 178.487 157.364 179.07 155.843C179.301 156.231 179.587 156.598 179.755 157.013C180.436 158.678 180.541 160.43 180.469 162.205C180.459 162.484 180.497 162.765 180.515 163.045C180.552 163.02 180.594 162.999 180.624 162.967C180.641 162.95 180.638 162.913 180.643 162.885V162.881Z" fill="white"/>
<path d="M184.847 144.435C183.52 144.827 182.211 145.352 180.856 145.543C180.316 145.619 179.673 144.957 179.076 144.63C180.768 144.219 182.462 143.807 184.154 143.396C184.385 143.742 184.616 144.089 184.846 144.435H184.847Z" fill="white"/>
<path d="M92.7776 96.1356C92.8389 100.398 92.8914 104.66 92.965 108.923C92.9913 110.437 93.0718 111.952 93.1191 113.466C93.1261 113.695 93.0789 113.927 92.9703 114.139C92.7969 110.021 92.6024 105.903 92.4588 101.782C92.3975 100.031 92.4361 98.2738 92.4588 96.5203C92.4606 96.3446 92.6655 96.1725 92.7776 96.0003C92.7829 96.046 92.7829 96.0899 92.7776 96.1356Z" fill="white"/>
<path d="M91.0431 102.308C91.2147 101.742 91.4144 101.183 91.5475 100.609C91.6876 100.006 91.7629 99.3895 91.8663 98.7798C91.9434 98.7939 92.0204 98.8062 92.0975 98.8202C91.7665 101.275 91.4372 103.729 91.1114 106.149C91.0291 105.426 90.9432 104.667 90.8574 103.91C90.9187 103.376 90.98 102.844 91.0431 102.31V102.308Z" fill="white"/>
<path d="M101.547 87.8831C101.286 88.7756 101.026 89.6664 100.751 90.6064C100.722 90.3323 100.624 90.0248 100.671 89.7385C100.823 88.7985 101.019 87.8655 101.223 86.9361C101.244 86.8395 101.435 86.7797 101.547 86.7042C101.547 87.0977 101.547 87.4895 101.547 87.8831Z" fill="white"/>
<path d="M199.974 150.025L199.957 149.962L200.003 149.968L199.974 150.025Z" fill="white"/>
<path d="M199.705 150.405C199.733 150.359 199.761 150.314 199.787 150.268C199.768 150.322 199.749 150.375 199.729 150.429L199.703 150.405H199.705Z" fill="white"/>
<path d="M59.6087 168.445C59.5929 168.425 59.5664 168.406 59.5664 168.388C59.5664 168.37 59.5964 168.353 59.614 168.335C59.6299 168.354 59.6564 168.374 59.6564 168.391C59.6564 168.409 59.6264 168.427 59.6087 168.445Z" fill="white"/>
<path d="M104.16 77.5767C104.157 77.6347 104.151 77.6944 104.148 77.7524C104.09 77.7489 104.032 77.7454 103.973 77.7418C104.032 77.6839 104.092 77.6259 104.151 77.5679L104.16 77.5767Z" fill="white"/>
<path d="M161.537 151.25C161.985 149.82 162.621 148.502 163.776 147.497C163.854 147.773 163.961 148.044 164.008 148.325C164.369 150.487 164.718 152.652 165.07 154.815C164.466 156.307 163.63 157.721 163.474 159.416C164.024 158.534 164.537 157.709 165.051 156.883C165.229 157.756 165.389 158.635 165.595 159.501C165.804 160.372 166.059 161.233 166.294 162.099C165.487 162.481 164.679 162.86 163.872 163.241C163.744 163.004 163.536 162.778 163.504 162.53C163.374 161.539 163.345 160.532 163.191 159.546C162.982 158.213 162.704 156.888 162.437 155.563C162.148 154.124 161.84 152.689 161.541 151.252L161.537 151.25Z" fill="white"/>
<path d="M161.537 151.25C161.837 152.687 162.145 154.123 162.434 155.562C162.7 156.886 162.979 158.209 163.187 159.545C163.341 160.532 163.371 161.537 163.5 162.528C163.534 162.777 163.742 163.004 163.868 163.24C163.098 163.819 162.325 164.401 161.555 164.982C161.329 165.17 161.103 165.358 160.878 165.546C160.754 165.276 160.539 165.012 160.519 164.735C160.378 162.707 160.276 160.676 160.162 158.647C160.336 157.178 160.446 155.699 160.7 154.246C160.878 153.228 161.252 152.246 161.537 151.25Z" fill="white"/>
<path d="M177.12 144.25C176.937 145.197 177.488 145.605 178.502 145.809C178.175 146.009 178.033 146.137 177.868 146.188C177.425 146.323 176.972 146.425 176.521 146.54C175.173 146.879 175.09 147.021 175.472 148.314C175.521 148.478 175.523 148.655 175.546 148.827C175.159 148.574 174.77 148.321 174.383 148.066C174.385 148.182 174.388 148.3 174.39 148.416C173.176 149.277 171.607 149.374 170.312 150.061C170.137 148.708 169.962 147.355 169.785 146.002C170.367 146.125 170.948 146.248 171.53 146.369C171.989 146.601 172.447 146.833 172.906 147.063C172.882 146.986 172.856 146.909 172.831 146.831C173.386 146.476 173.913 146.069 174.502 145.784C175.178 145.456 176.285 145.519 175.306 143.987C175.421 144.013 175.537 144.039 175.654 144.068C176.143 144.127 176.634 144.189 177.122 144.248L177.12 144.25Z" fill="white"/>
<path d="M165.068 154.815C164.716 152.652 164.367 150.487 164.006 148.325C163.959 148.044 163.852 147.773 163.773 147.497C164.5 146.694 165.381 146.169 166.457 145.991C166.599 147.1 166.725 148.212 166.886 149.317C167.017 150.213 167.189 151.102 167.343 151.995C166.585 152.935 165.824 153.875 165.066 154.813L165.068 154.815Z" fill="white"/>
<path d="M167.345 151.995C167.191 151.102 167.019 150.213 166.888 149.317C166.727 148.21 166.599 147.1 166.459 145.991C167.568 145.995 168.676 146 169.785 146.004C169.96 147.357 170.135 148.709 170.312 150.061C169.324 150.705 168.337 151.35 167.347 151.995H167.345Z" fill="white"/>
<path d="M160.161 158.649C160.275 160.678 160.378 162.709 160.518 164.737C160.537 165.014 160.753 165.278 160.877 165.548C161.425 166.01 161.998 165.952 162.569 165.606C163.089 165.29 163.588 164.937 164.112 164.626C166.407 163.264 168.82 162.31 171.535 162.138C172.477 162.078 173.395 161.611 174.323 161.33C174.406 161.34 174.49 161.349 174.572 161.36C174.738 161.509 174.907 161.657 175.073 161.806C174.537 161.989 173.999 162.17 173.463 162.352C173.346 162.41 173.23 162.468 173.113 162.526C172.997 162.526 172.88 162.526 172.764 162.526C172.647 162.584 172.53 162.642 172.414 162.7C172.006 162.758 171.598 162.818 171.188 162.876C170.78 162.934 170.372 162.994 169.964 163.052C169.846 163.052 169.731 163.052 169.614 163.052C167.358 163.415 165.387 164.431 163.538 165.726C163.467 165.775 163.415 165.854 163.341 165.9C162.564 166.381 161.758 166.847 160.817 166.434C159.88 166.021 159.725 165.074 159.665 164.229C159.534 162.352 159.537 160.467 159.486 158.585C159.712 158.606 159.936 158.628 160.162 158.649H160.161Z" fill="white"/>
<path d="M105.758 125.171C105.509 124.994 105.072 124.843 105.043 124.637C104.723 122.227 104.064 119.849 104.422 117.37C104.567 116.367 104.52 115.332 104.504 114.311C104.462 111.63 104.385 108.949 104.332 106.268C104.325 105.939 104.385 105.609 104.579 105.289C104.665 108.545 104.768 111.801 104.828 115.056C104.846 115.984 104.646 116.919 104.698 117.843C104.823 120.015 105.024 122.181 105.238 124.346C105.264 124.618 105.55 124.864 105.716 125.122L105.758 125.171Z" fill="white"/>
<path d="M99.7773 100.133C104.44 99.8849 109.102 99.6355 113.767 99.3877C113.772 99.4967 113.777 99.6056 113.782 99.7163C109.118 99.9394 104.454 100.163 99.7896 100.384C99.7861 100.3 99.7808 100.217 99.7773 100.133Z" fill="white"/>
<path d="M92.4463 121.306C91.9804 117.202 91.5128 113.096 91.0469 108.991C91.9384 113.053 92.3885 117.165 92.4463 121.306Z" fill="white"/>
<path d="M138.59 149.699C138.157 145.819 138.33 141.971 138.294 138.122C138.392 138.122 138.49 138.122 138.59 138.122V149.699Z" fill="white"/>
<path d="M109.047 122.85C108.404 119.145 108.238 115.399 108.567 111.625C108.727 115.367 108.888 119.108 109.047 122.85Z" fill="white"/>
<path d="M109.727 75.9989C109.739 76.0586 109.753 76.1184 109.765 76.1764C107.849 76.2256 105.933 76.273 104.019 76.3222C104.01 76.3468 104.003 76.3714 103.994 76.396C104.546 76.2554 105.094 76.0938 105.653 75.9831C106.215 75.8706 106.788 75.8092 107.464 75.709C107.28 73.9801 107.094 72.2478 106.895 70.3661C107.786 72.0703 107.41 73.8501 107.739 75.5562C108.389 75.7002 109.058 75.8496 109.729 75.9989H109.727Z" fill="white"/>
<path d="M141.283 148.093H153.505C153.505 148.123 153.505 148.152 153.507 148.182H141.285C141.285 148.152 141.285 148.123 141.285 148.093H141.283Z" fill="white"/>
<path d="M144.217 147.263C144.055 146.717 143.794 146.178 143.751 145.621C143.542 142.982 143.274 140.336 143.905 137.714C144.01 137.279 144.208 136.864 144.448 136.462C143.458 140.046 143.829 143.639 144.243 147.234L144.217 147.262V147.263Z" fill="white"/>
<path d="M157.845 138.709C158.065 142.249 158.286 145.789 158.505 149.33C158.421 149.335 158.337 149.338 158.251 149.344C158.135 145.788 157.54 142.256 157.843 138.71L157.845 138.709Z" fill="white"/>
<path d="M102.615 129.079H111.553C111.553 129.13 111.553 129.179 111.553 129.23H102.629C102.626 129.179 102.62 129.13 102.617 129.079H102.615Z" fill="white"/>
<path d="M99.8223 102.368H114.108V102.533H99.8345L99.824 102.368H99.8223Z" fill="white"/>
<path d="M109.588 105.226C110.742 107.897 110.497 110.703 110.201 113.514C109.954 110.762 110.492 107.941 109.588 105.226Z" fill="white"/>
<path d="M161.906 145.733C164.521 145.6 167.133 145.007 169.758 145.733H161.906Z" fill="white"/>
<path d="M147.493 146.547C147.367 144.208 147.242 141.868 147.107 139.355C147.235 139.8 147.393 140.127 147.416 140.462C147.537 142.203 147.631 143.946 147.71 145.689C147.724 145.979 147.615 146.276 147.563 146.569C147.54 146.561 147.516 146.554 147.493 146.545V146.547Z" fill="white"/>
<path d="M94.2107 137.375H106.62C106.62 137.435 106.62 137.495 106.62 137.553H94.2195C94.216 137.493 94.2125 137.433 94.209 137.375H94.2107Z" fill="white"/>
<path d="M119.014 139.166C119.434 137.73 119.854 136.295 120.275 134.861C120.331 134.84 120.387 134.821 120.445 134.799C120.779 135.912 121.114 137.026 121.45 138.138C121.38 138.168 121.31 138.199 121.24 138.229C120.937 137.375 120.634 136.52 120.431 135.947C120.028 136.894 119.537 138.045 119.047 139.195L119.015 139.164L119.014 139.166Z" fill="white"/>
<path d="M105.735 106.117V113.751L105.588 113.758V106.12L105.735 106.115V106.117Z" fill="white"/>
<path d="M106.061 124.941C105.95 122.914 105.833 120.886 105.737 118.858C105.719 118.504 105.8 118.145 106.005 117.799C106.148 119.914 106.306 122.028 106.418 124.143C106.432 124.416 106.208 124.7 106.096 124.98L106.061 124.939V124.941Z" fill="white"/>
<path d="M158.784 136.154C158.686 133.25 158.793 130.523 159.667 127.882C159.378 130.583 159.09 133.283 158.784 136.154Z" fill="white"/>
<path d="M100.417 122.734V129.379L100.27 129.376V122.701L100.417 122.734Z" fill="white"/>
<path d="M92.4345 123.919C92.5904 124.402 92.7481 124.885 92.918 125.407H94.8113C93.0756 126.029 92.4994 125.758 92.2594 124.423C92.0913 125.089 91.9249 125.755 91.7567 126.42C91.6919 126.403 91.6254 126.385 91.5605 126.368C91.7532 125.35 91.9459 124.331 92.1403 123.314C92.2156 123.323 92.2927 123.332 92.368 123.342C92.3855 123.53 92.4048 123.718 92.4223 123.904C92.3995 123.934 92.3767 123.962 92.354 123.992C92.382 123.968 92.41 123.943 92.4363 123.919H92.4345Z" fill="white"/>
<path d="M90.5016 113.552C90.2985 115.784 90.0953 118.015 89.8921 120.246C89.794 120.236 89.6959 120.225 89.5996 120.215C89.6697 119.387 89.7012 118.555 89.8185 117.734C90.02 116.337 90.2757 114.949 90.5086 113.558L90.5034 113.552H90.5016Z" fill="white"/>
<path d="M112.329 137.607C112.236 135.369 112.144 133.13 112.051 130.892C112.165 130.887 112.278 130.883 112.392 130.878V137.597C112.371 137.6 112.35 137.604 112.329 137.607Z" fill="white"/>
<path d="M119.713 148.342C119.608 148.326 119.505 148.312 119.4 148.297C119.323 144.948 119.638 143.258 120.663 142.419C119.559 144.412 119.766 146.394 119.713 148.342Z" fill="white"/>
<path d="M122.36 148.537C122.233 146.689 122.106 144.841 121.971 142.873C122.752 144.781 122.491 146.661 122.36 148.537Z" fill="white"/>
<path d="M105.43 75.7354C105.286 73.4882 105.475 72.4358 106.43 70.3907C106.106 72.1248 105.782 73.8589 105.43 75.7354Z" fill="white"/>
<path d="M93.7191 119.37C93.5895 121.172 93.4581 122.977 93.3285 124.779C93.2392 124.772 93.1499 124.767 93.0605 124.76C93.1814 122.968 93.304 121.174 93.4249 119.382C93.5229 119.379 93.621 119.373 93.7191 119.37Z" fill="white"/>
<path d="M91.613 127.796V135.471C91.5728 135.471 91.5325 135.471 91.4922 135.469V127.819C91.5325 127.812 91.5728 127.805 91.613 127.796Z" fill="white"/>
<path d="M116.491 139.485V144.257C116.454 144.257 116.418 144.259 116.381 144.261V139.494C116.418 139.491 116.454 139.489 116.491 139.485Z" fill="white"/>
<path d="M107.471 84.0564V78.2777C107.534 78.2742 107.597 78.2724 107.66 78.2689C107.66 78.9383 107.66 79.6077 107.66 80.2771C107.66 80.9483 107.688 81.6212 107.66 82.2924C107.635 82.888 107.548 83.4819 107.49 84.0757L107.471 84.0564Z" fill="white"/>
<path d="M128.805 145.027H123.759C123.757 145 123.754 144.972 123.752 144.946H128.788C128.793 144.972 128.8 145 128.805 145.027Z" fill="white"/>
<path d="M102.57 141.256H95.4707C95.4707 141.205 95.4707 141.156 95.4707 141.105C97.8405 141.105 100.21 141.105 102.582 141.105C102.578 141.156 102.575 141.205 102.57 141.256Z" fill="white"/>
<path d="M161.087 134.199C160.768 132.579 160.45 130.96 160.131 129.341C160.224 129.321 160.318 129.304 160.411 129.284C160.719 130.906 161.028 132.528 161.334 134.149L161.085 134.199H161.087Z" fill="white"/>
<path d="M117.798 148.089C117.733 148.058 117.668 148.026 117.602 147.994C117.67 146.002 117.738 144.01 117.798 142.274V148.089Z" fill="white"/>
<path d="M88.9822 129.044V136.156C88.9244 136.156 88.8666 136.156 88.8105 136.156V129.028C88.8683 129.033 88.9261 129.038 88.9822 129.044Z" fill="white"/>
<path d="M149.108 141.448C149.277 142.976 149.445 144.503 149.613 146.032C148.91 144.574 148.9 143.024 149.108 141.448Z" fill="white"/>
<path d="M145.774 139.865V145.097C145.72 145.097 145.666 145.099 145.613 145.101V139.884C145.668 139.877 145.722 139.872 145.774 139.865Z" fill="white"/>
<path d="M150.706 147.429C150.423 147.539 150.139 147.747 149.857 147.743C148.382 147.727 146.906 147.68 145.433 147.594C145.023 147.569 144.623 147.378 144.219 147.263L144.243 147.235C146.399 147.302 148.557 147.369 150.713 147.436L150.706 147.429Z" fill="white"/>
<path d="M88.7086 123.824C88.8312 124.572 88.9538 125.319 89.0781 126.067C89.0186 126.085 88.9573 126.104 88.8977 126.122C88.8242 125.911 88.7489 125.698 88.6718 125.477C88.5877 125.632 88.5054 125.786 88.4231 125.941C88.353 125.927 88.283 125.914 88.2129 125.9C88.2654 125.21 88.3197 124.519 88.3723 123.829C88.4844 123.829 88.5965 123.825 88.7086 123.824Z" fill="white"/>
<path d="M102.568 141.256C102.572 141.207 102.577 141.156 102.581 141.105C102.999 141.049 103.416 140.951 103.836 140.942C105.008 140.919 106.182 140.935 107.369 141.049C105.768 141.118 104.169 141.186 102.568 141.255V141.256Z" fill="white"/>
<path d="M104.572 94.9988V98.9555C104.542 98.959 104.51 98.9608 104.48 98.9643V94.9478C104.51 94.9654 104.542 94.9812 104.572 94.9988Z" fill="white"/>
<path d="M161.402 144.443C161.207 143.05 161.013 141.657 160.818 140.264C160.911 140.251 161.002 140.237 161.095 140.225C161.286 141.618 161.477 143.012 161.668 144.405L161.402 144.443Z" fill="white"/>
<path d="M104.842 77.0338C105.982 76.3398 108.035 76.4768 108.835 77.1093C107.684 77.0935 106.273 77.0742 104.861 77.0548L104.842 77.0338Z" fill="white"/>
<path d="M151.074 141.462C150.895 140.45 150.718 139.438 150.538 138.426C150.489 138.148 150.431 137.872 150.466 137.577C150.991 138.818 151.172 140.13 151.208 141.472C151.165 141.469 151.119 141.465 151.074 141.462Z" fill="white"/>
<path d="M90.832 141.413C92.016 141.249 93.2001 141.084 94.3841 140.921C94.3963 141.014 94.4104 141.109 94.4226 141.202C93.2386 141.36 92.0528 141.52 90.8688 141.678C90.8566 141.59 90.8443 141.502 90.832 141.414V141.413Z" fill="white"/>
<path d="M111.991 121.489V127.714C111.965 127.714 111.938 127.714 111.912 127.714V121.489C111.938 121.489 111.965 121.489 111.991 121.489Z" fill="white"/>
<path d="M142.204 137.651H138.776C138.772 137.625 138.767 137.598 138.764 137.572H142.186C142.191 137.598 142.197 137.625 142.204 137.651Z" fill="white"/>
<path d="M151.074 141.462C151.119 141.465 151.163 141.469 151.209 141.472C151.216 143.098 151.24 144.723 151.216 146.348C151.211 146.654 151.002 146.956 150.888 147.258L150.885 147.255C150.948 145.324 151.013 143.393 151.076 141.462H151.074Z" fill="white"/>
<path d="M91.8837 122.202C90.8976 122.054 89.8414 121.898 88.9219 121.761C89.4929 121.222 90.7259 121.348 91.8837 122.202Z" fill="white"/>
<path d="M114.978 138.642C113.822 138.709 112.668 138.776 111.512 138.842C111.507 138.747 111.502 138.653 111.498 138.558H114.954C114.963 138.586 114.97 138.614 114.978 138.642Z" fill="white"/>
<path d="M108.069 86.6374C108.321 87.7004 108.573 88.7616 108.826 89.8245C108.74 89.8456 108.656 89.8649 108.57 89.886C108.319 88.8231 108.071 87.7601 107.82 86.6971C107.903 86.6778 107.987 86.6567 108.069 86.6374Z" fill="white"/>
<path d="M105.074 89.9089C105.258 88.8722 105.442 87.8356 105.626 86.799C105.71 86.8148 105.794 86.8306 105.878 86.8465C105.685 87.8813 105.495 88.9162 105.302 89.951C105.227 89.937 105.15 89.9229 105.074 89.9071V89.9089Z" fill="white"/>
<path d="M104.418 84.6907C105.259 84.5343 106.098 84.3797 106.938 84.2233C106.954 84.2936 106.968 84.3639 106.984 84.4341C106.145 84.5975 105.306 84.7609 104.467 84.9261C104.451 84.8488 104.435 84.7697 104.42 84.6924L104.418 84.6907Z" fill="white"/>
<path d="M121.771 139.127C121.685 138.953 121.599 138.781 121.514 138.607C121.566 138.577 121.621 138.545 121.673 138.515C121.775 138.684 121.876 138.851 121.978 139.02C121.91 139.055 121.839 139.092 121.771 139.127Z" fill="white"/>
<path d="M165.953 130.263H166.956C166.956 130.291 166.956 130.317 166.956 130.346H165.963C165.958 130.317 165.954 130.291 165.949 130.263H165.953Z" fill="white"/>
<path d="M164.26 141.602C164.472 141.551 164.684 141.502 164.897 141.451C164.911 141.501 164.925 141.548 164.939 141.597C164.745 141.671 164.551 141.745 164.356 141.819C164.325 141.747 164.293 141.674 164.262 141.602H164.26Z" fill="white"/>
<path d="M150.165 134.993C150.065 134.854 149.965 134.713 149.865 134.575C149.923 134.543 149.981 134.511 150.039 134.481C150.098 134.634 150.158 134.787 150.217 134.942L150.165 134.993Z" fill="white"/>
<path d="M162.799 143.229C162.68 143.403 162.561 143.579 162.442 143.753L162.426 143.737C162.54 143.558 162.653 143.381 162.767 143.201L162.799 143.229Z" fill="white"/>
<path d="M142.86 137.098C142.776 137.185 142.69 137.273 142.603 137.358C142.603 137.358 142.564 137.324 142.543 137.305C142.627 137.217 142.711 137.129 142.795 137.041L142.86 137.096V137.098Z" fill="white"/>
<path d="M163.643 142.149C163.725 142.059 163.805 141.971 163.888 141.882C163.909 141.901 163.928 141.92 163.949 141.94C163.858 142.021 163.767 142.101 163.676 142.182L163.644 142.151L163.643 142.149Z" fill="white"/>
<path d="M118.641 139.809C118.623 139.759 118.581 139.696 118.597 139.663C118.616 139.626 118.688 139.615 118.737 139.594C118.753 139.645 118.797 139.707 118.779 139.742C118.762 139.777 118.688 139.788 118.639 139.809H118.641Z" fill="white"/>
<path d="M144.178 134.817C144.137 134.847 144.095 134.877 144.055 134.908C144.029 134.85 144.003 134.792 143.975 134.734C144.024 134.713 144.071 134.692 144.12 134.671C144.139 134.719 144.157 134.768 144.176 134.817H144.178Z" fill="white"/>
<path d="M151.742 137.447C151.628 137.326 151.512 137.207 151.398 137.085L151.419 137.064C151.539 137.18 151.658 137.296 151.777 137.412L151.743 137.445L151.742 137.447Z" fill="white"/>
<path d="M91.0025 108.392C90.9727 108.426 90.943 108.457 90.9149 108.489C90.9044 108.434 90.8904 108.382 90.8887 108.327C90.8887 108.306 90.922 108.285 90.9395 108.264C90.9622 108.31 90.985 108.354 91.0025 108.392Z" fill="white"/>
<path d="M106.095 124.982C105.983 125.045 105.871 125.106 105.759 125.17L105.717 125.12C105.831 125.061 105.946 125.001 106.06 124.941L106.095 124.982Z" fill="white"/>
<path d="M162.768 143.201C162.829 143.087 162.89 142.973 162.951 142.857L162.971 142.876C162.913 142.994 162.855 143.11 162.799 143.228L162.768 143.201Z" fill="white"/>
<path d="M104.498 77.2148C104.614 77.155 104.729 77.0935 104.843 77.0338L104.862 77.0549C104.745 77.1128 104.629 77.1708 104.512 77.2288L104.498 77.2148Z" fill="white"/>
<path d="M159.946 127.408C159.938 127.431 159.931 127.454 159.922 127.476C159.897 127.45 159.871 127.425 159.852 127.397C159.848 127.392 159.885 127.364 159.903 127.345C159.917 127.366 159.931 127.387 159.946 127.408Z" fill="white"/>
<path d="M148.596 133.406C148.524 133.387 148.453 133.368 148.381 133.348C148.388 133.324 148.397 133.301 148.404 133.276C148.479 133.306 148.556 133.336 148.631 133.364L148.595 133.406H148.596Z" fill="white"/>
<path d="M148.632 133.364C148.752 133.422 148.871 133.48 148.99 133.538L148.935 133.592C148.822 133.531 148.71 133.469 148.596 133.408L148.632 133.366V133.364Z" fill="white"/>
<path d="M150.297 137.006C150.305 137.031 150.316 137.056 150.325 137.079C150.289 137.086 150.254 137.093 150.221 137.1C150.224 137.074 150.222 137.043 150.237 137.022C150.245 137.01 150.277 137.01 150.298 137.006H150.297Z" fill="white"/>
<path d="M143.046 136.759C142.984 136.871 142.921 136.985 142.86 137.098L142.797 137.043C142.858 136.927 142.919 136.811 142.981 136.695C143.002 136.718 143.023 136.739 143.046 136.76V136.759Z" fill="white"/>
<path d="M146.687 139.004C146.612 138.983 146.536 138.962 146.461 138.941C146.535 138.964 146.608 138.986 146.683 139.009L146.687 139.006V139.004Z" fill="white"/>
<path d="M149.505 133.895C149.555 133.967 149.608 134.037 149.659 134.109L149.555 134.169C149.524 134.093 149.491 134.018 149.459 133.942L149.505 133.896V133.895Z" fill="white"/>
<path d="M109.291 123.335C109.312 123.335 109.343 123.332 109.35 123.342C109.365 123.362 109.365 123.392 109.37 123.418C109.336 123.415 109.301 123.413 109.268 123.41C109.276 123.385 109.283 123.36 109.292 123.335H109.291Z" fill="white"/>
<path d="M161.56 134.794C161.511 134.731 161.462 134.668 161.563 134.799C161.53 134.634 161.546 134.713 161.563 134.792H161.562L161.56 134.794Z" fill="white"/>
<path d="M161.562 134.792C161.606 134.852 161.652 134.914 161.694 134.975C161.694 134.975 161.653 135.007 161.632 135.023C161.608 134.947 161.585 134.87 161.561 134.794L161.562 134.792Z" fill="white"/>
<path d="M109.174 104.847C109.197 104.838 109.218 104.829 109.241 104.82C109.248 104.854 109.255 104.889 109.262 104.923C109.237 104.918 109.209 104.918 109.19 104.905C109.177 104.896 109.179 104.866 109.174 104.847Z" fill="white"/>
<path d="M150.77 136.106L150.814 136.089L150.808 136.135L150.77 136.106Z" fill="white"/>
<path d="M143.48 135.938L143.432 135.958L143.439 135.908L143.48 135.938Z" fill="white"/>
<path d="M150.618 135.797L150.604 135.743L150.648 135.749L150.618 135.797Z" fill="white"/>
<path d="M149.489 135.492C149.514 135.522 149.539 135.554 149.563 135.584C149.535 135.555 149.509 135.529 149.48 135.501L149.489 135.492Z" fill="white"/>
<path d="M143.592 135.579L143.638 135.562L143.631 135.608L143.592 135.579Z" fill="white"/>
<path d="M150.418 135.405L150.464 135.386L150.457 135.434L150.418 135.405Z" fill="white"/>
<path d="M149.48 135.501C149.453 135.471 149.425 135.443 149.398 135.413C149.428 135.439 149.458 135.466 149.488 135.491L149.48 135.499V135.501Z" fill="white"/>
<path d="M143.803 135.198L143.816 135.248L143.773 135.243L143.803 135.198Z" fill="white"/>
<path d="M150.215 134.942L150.28 135.066C150.242 135.041 150.203 135.018 150.164 134.993L150.215 134.942Z" fill="white"/>
<path d="M150.887 147.258C150.828 147.314 150.767 147.371 150.707 147.429L150.714 147.436C150.77 147.376 150.828 147.314 150.884 147.255L150.887 147.258Z" fill="white"/>
<path d="M143.238 136.285L143.289 136.267L143.281 136.317L143.238 136.285Z" fill="white"/>
<path d="M150.979 136.426L150.994 136.478L150.949 136.473L150.979 136.426Z" fill="white"/>
<path d="M144.614 134.118C144.576 134.143 144.537 134.168 144.498 134.193C144.521 134.152 144.544 134.113 144.567 134.072L144.613 134.118H144.614Z" fill="white"/>
<path d="M142.982 136.693C143.023 136.671 143.063 136.65 143.105 136.627C143.086 136.671 143.066 136.713 143.047 136.757C143.024 136.737 143.003 136.715 142.982 136.693Z" fill="white"/>
<path d="M144.568 134.073L144.683 134.005C144.66 134.043 144.637 134.08 144.616 134.119L144.57 134.073H144.568Z" fill="white"/>
<path d="M149.459 133.941C149.436 133.904 149.414 133.867 149.391 133.83C149.429 133.851 149.466 133.874 149.505 133.895L149.459 133.941Z" fill="white"/>
<path d="M145.122 133.753C145.088 133.777 145.053 133.8 145.02 133.825C145.046 133.793 145.071 133.76 145.097 133.728L145.124 133.754L145.122 133.753Z" fill="white"/>
<path d="M148.99 133.536C149.013 133.575 149.035 133.614 149.057 133.655C149.017 133.634 148.976 133.612 148.938 133.591L148.99 133.536Z" fill="white"/>
<path d="M145.098 133.727C145.133 133.702 145.166 133.679 145.202 133.654C145.175 133.688 145.149 133.719 145.124 133.753L145.098 133.727Z" fill="white"/>
<path d="M151.224 136.914C151.2 136.879 151.173 136.845 151.148 136.809C151.182 136.836 151.215 136.863 151.247 136.891L151.224 136.914Z" fill="white"/>
<path d="M161.915 144.277C161.889 144.303 161.86 144.332 161.834 144.358C161.859 144.328 161.883 144.298 161.906 144.268L161.913 144.275L161.915 144.277Z" fill="white"/>
<path d="M151.398 137.085C151.34 137.027 151.282 136.969 151.225 136.911L151.247 136.889C151.305 136.946 151.361 137.006 151.419 137.066L151.4 137.085H151.398Z" fill="white"/>
<path d="M161.908 144.268C161.966 144.208 162.022 144.148 162.08 144.089L162.097 144.106C162.038 144.162 161.977 144.22 161.917 144.277L161.91 144.27L161.908 144.268Z" fill="white"/>
<path d="M162.08 144.089C162.138 144.029 162.196 143.969 162.253 143.911L162.273 143.93C162.215 143.988 162.155 144.048 162.098 144.106L162.08 144.089Z" fill="white"/>
<path d="M162.443 143.753C162.385 143.811 162.329 143.871 162.271 143.929C162.271 143.929 162.252 143.911 162.252 143.909C162.31 143.851 162.369 143.793 162.427 143.735L162.443 143.751V143.753Z" fill="white"/>
<path d="M162.953 142.857C163.007 142.794 163.062 142.732 163.118 142.671L163.154 142.708C163.093 142.764 163.032 142.82 162.97 142.876L162.951 142.857H162.953Z" fill="white"/>
<path d="M107.487 84.0758C107.454 84.1006 107.422 84.1254 107.389 84.1502C107.415 84.1201 107.442 84.0882 107.47 84.0581L107.489 84.0776L107.487 84.0758Z" fill="white"/>
<path d="M163.335 142.537C163.275 142.595 163.215 142.651 163.156 142.709L163.119 142.672C163.175 142.611 163.231 142.551 163.287 142.49L163.336 142.537H163.335Z" fill="white"/>
<path d="M104.334 77.3992C104.277 77.4572 104.219 77.517 104.159 77.5749L104.15 77.5662C104.208 77.5082 104.268 77.4502 104.326 77.3922L104.333 77.3992H104.334Z" fill="white"/>
<path d="M104.512 77.2288C104.452 77.285 104.393 77.343 104.333 77.3992L104.326 77.3922C104.384 77.3325 104.44 77.2745 104.498 77.2148L104.512 77.2288Z" fill="white"/>
<path d="M151.774 137.414C151.798 137.449 151.823 137.483 151.848 137.518C151.813 137.495 151.777 137.471 151.74 137.448L151.774 137.414Z" fill="white"/>
<path d="M163.285 142.488C163.346 142.434 163.408 142.377 163.469 142.323L163.499 142.353C163.443 142.414 163.388 142.476 163.332 142.535L163.285 142.488Z" fill="white"/>
<path d="M163.471 142.323C163.529 142.265 163.586 142.207 163.644 142.149L163.676 142.18C163.618 142.238 163.558 142.295 163.5 142.353L163.471 142.323Z" fill="white"/>
<path d="M146.682 139.007C146.708 139.034 146.735 139.062 146.759 139.089C146.742 139.084 146.719 139.084 146.71 139.073C146.696 139.053 146.692 139.027 146.685 139.004L146.682 139.007Z" fill="white"/>
<path d="M119.046 139.197C119.012 139.222 118.977 139.249 118.943 139.274C118.966 139.238 118.991 139.203 119.014 139.166L119.046 139.197Z" fill="white"/>
<path d="M90.5072 113.558C90.5195 113.535 90.53 113.514 90.5422 113.491C90.5282 113.51 90.5142 113.531 90.502 113.551L90.5072 113.556V113.558Z" fill="white"/>
<path d="M167.07 175.834C167.058 175.819 167.03 175.797 167.031 175.778C167.031 175.758 167.063 175.741 167.081 175.723C167.097 175.742 167.125 175.765 167.123 175.783C167.121 175.803 167.09 175.819 167.07 175.834Z" fill="white"/>
<path d="M175.073 161.806C174.907 161.657 174.739 161.509 174.572 161.36C175.194 160.987 175.816 160.615 176.438 160.242C176.576 160.202 176.723 160.182 176.849 160.117C178.2 159.436 178.485 159.571 178.697 161.043C178.907 162.498 179.105 163.955 179.275 165.415C179.298 165.611 179.13 165.833 179.051 166.042C177.988 164.382 176.832 162.809 175.073 161.806Z" fill="white"/>
<path d="M169.961 163.053C170.369 162.995 170.777 162.936 171.185 162.878C170.854 163.475 170.409 163.278 169.961 163.053Z" fill="white"/>
<path d="M167.345 151.995C168.333 151.35 169.321 150.705 170.31 150.061C171.605 149.374 173.174 149.277 174.388 148.416C174.386 148.3 174.383 148.182 174.381 148.066C174.768 148.319 175.157 148.572 175.544 148.827C175.845 149.296 176.145 149.764 176.446 150.233C177.448 151.392 178.556 152.475 179.427 153.726C181.385 156.538 181.611 159.645 180.642 162.881C180.637 162.909 180.641 162.946 180.623 162.964C180.593 162.995 180.551 163.016 180.515 163.041C180.499 162.762 180.459 162.481 180.469 162.201C180.539 160.427 180.434 158.675 179.754 157.009C179.585 156.595 179.301 156.228 179.07 155.839C178.835 155.432 178.6 155.026 178.367 154.618C178.147 154.233 177.924 153.849 177.703 153.464C177.63 153.501 177.556 153.536 177.483 153.573C177.523 154.724 177.474 155.853 176.696 157.067C176.57 156.553 176.486 156.285 176.441 156.01C176.148 154.239 175.847 152.469 175.588 150.693C175.498 150.078 175.143 149.98 174.663 150.104C174.195 150.227 173.745 150.424 173.288 150.588C172.647 150.823 172.006 151.057 171.363 151.292C170.72 151.642 170.079 151.991 169.436 152.341C168.674 152.979 167.913 153.615 167.151 154.253C166.45 155.129 165.749 156.004 165.047 156.881C164.534 157.707 164.019 158.533 163.471 159.415C163.628 157.719 164.464 156.305 165.066 154.813C165.825 153.873 166.585 152.935 167.343 151.995H167.345Z" fill="white"/>
<path d="M178.368 154.62C178.603 155.027 178.837 155.433 179.07 155.841C178.487 157.363 177.795 158.816 176.538 159.919C176.466 159.982 176.469 160.133 176.438 160.242C175.816 160.615 175.194 160.987 174.573 161.36C174.488 161.349 174.406 161.34 174.324 161.33C174.206 161.261 174.087 161.193 173.97 161.126C173.968 161.07 173.961 161.015 173.947 160.961C176.527 159.622 178.014 157.519 178.368 154.62Z" fill="white"/>
<path d="M165.049 156.883C165.749 156.006 166.45 155.131 167.152 154.254C167.212 154.418 167.298 154.576 167.324 154.743C167.683 156.988 168.033 159.234 168.385 161.479C167.686 161.686 166.989 161.892 166.29 162.099C166.056 161.233 165.8 160.372 165.592 159.501C165.385 158.635 165.227 157.756 165.047 156.883H165.049Z" fill="white"/>
<path d="M166.293 162.099C166.992 161.892 167.689 161.686 168.388 161.479C169.205 161.365 170.022 161.251 170.84 161.138C171.54 161.026 172.241 160.913 172.941 160.799C173.162 160.762 173.381 160.724 173.602 160.687C173.717 160.778 173.833 160.871 173.949 160.963C173.961 161.017 173.968 161.071 173.971 161.128C172.16 161.453 170.34 161.743 168.538 162.112C166.492 162.53 164.729 163.593 162.97 164.67C162.58 164.909 162.031 164.886 161.557 164.984C162.327 164.403 163.1 163.823 163.87 163.241C164.678 162.86 165.485 162.481 166.293 162.099Z" fill="white"/>
<path d="M161.555 164.982C162.029 164.884 162.579 164.907 162.968 164.668C164.727 163.591 166.491 162.528 168.536 162.11C170.339 161.741 172.157 161.451 173.969 161.126C174.087 161.194 174.206 161.263 174.323 161.33C173.395 161.611 172.477 162.078 171.535 162.138C168.822 162.31 166.408 163.264 164.112 164.626C163.588 164.937 163.089 165.29 162.569 165.606C161.998 165.952 161.425 166.01 160.877 165.548C161.103 165.36 161.329 165.172 161.553 164.984L161.555 164.982Z" fill="white"/>
<path d="M92.4364 123.919C92.4082 123.943 92.38 123.968 92.3535 123.993C92.3764 123.963 92.3994 123.935 92.4223 123.905L92.4364 123.919Z" fill="white"/>
<path d="M173.945 160.961C173.83 160.869 173.714 160.776 173.599 160.685C173.723 160.571 173.83 160.414 173.975 160.349C174.709 160.019 174.923 159.589 174.734 158.715C174.369 157.032 174.25 155.296 173.968 153.592C173.802 152.582 173.516 151.591 173.285 150.591C173.742 150.428 174.192 150.231 174.66 150.108C175.14 149.981 175.494 150.082 175.585 150.697C175.844 152.473 176.145 154.242 176.438 156.013C176.483 156.289 176.567 156.558 176.694 157.071C177.471 155.857 177.52 154.729 177.48 153.576C177.554 153.539 177.627 153.504 177.701 153.467C177.921 153.852 178.144 154.237 178.365 154.622C178.011 157.521 176.524 159.624 173.944 160.963L173.945 160.961Z" fill="white"/>
<path d="M170.838 161.136C170.02 161.251 169.203 161.365 168.385 161.477C168.033 159.232 167.683 156.986 167.324 154.741C167.298 154.574 167.21 154.416 167.152 154.253C167.914 153.615 168.676 152.979 169.436 152.341C169.904 155.272 170.37 158.204 170.838 161.135V161.136Z" fill="white"/>
<path d="M173.286 150.589C173.518 151.589 173.801 152.58 173.97 153.59C174.252 155.295 174.369 157.03 174.735 158.714C174.924 159.587 174.709 160.017 173.977 160.348C173.831 160.414 173.724 160.569 173.6 160.683C173.379 160.722 173.16 160.759 172.94 160.797C172.703 159.193 172.488 157.586 172.223 155.985C171.964 154.416 171.652 152.856 171.363 151.292C172.004 151.057 172.645 150.823 173.288 150.588L173.286 150.589Z" fill="white"/>
<path d="M171.362 151.294C171.651 152.858 171.961 154.418 172.222 155.987C172.487 157.586 172.702 159.195 172.939 160.799C172.238 160.912 171.537 161.026 170.837 161.138C170.369 158.208 169.903 155.275 169.436 152.345C170.078 151.995 170.719 151.645 171.362 151.296V151.294Z" fill="white"/>
</g>
<defs>
<clipPath id="clip0_762_434">
<rect width="145" height="124" fill="white" transform="translate(55 66)"/>
</clipPath>
</defs>
</svg>
