<?xml version="1.0" encoding="UTF-8" standalone="no"?>
<svg
   xmlns:dc="http://purl.org/dc/elements/1.1/"
   xmlns:cc="http://creativecommons.org/ns#"
   xmlns:rdf="http://www.w3.org/1999/02/22-rdf-syntax-ns#"
   xmlns:svg="http://www.w3.org/2000/svg"
   xmlns="http://www.w3.org/2000/svg"
   id="svg5782"
   version="1.1"
   viewBox="0 0 25.399999 25.400001"
   height="96"
   width="96">
  <defs
     id="defs5776">
    <clipPath
       id="clipPath20-8"
       clipPathUnits="userSpaceOnUse">
      <path
         id="path18-0-9"
         d="m 541.781,371.848 v 0 h 0.043 z" />
    </clipPath>
  </defs>
  <metadata
     id="metadata5779">
    <rdf:RDF>
      <cc:Work
         rdf:about="">
        <dc:format>image/svg+xml</dc:format>
        <dc:type
           rdf:resource="http://purl.org/dc/dcmitype/StillImage" />
        <dc:title></dc:title>
      </cc:Work>
    </rdf:RDF>
  </metadata>
  <g
     transform="translate(0,-271.59998)"
     id="layer1">
    <rect
       y="271.59998"
       x="0"
       height="25.4"
       width="25.4"
       id="rect6729"
       style="opacity:1;vector-effect:none;fill:none;fill-opacity:1;stroke:none;stroke-width:0.52916676;stroke-linecap:butt;stroke-linejoin:miter;stroke-miterlimit:4;stroke-dasharray:1.05833345, 2.11666688;stroke-dashoffset:0;stroke-opacity:1;paint-order:stroke markers fill" />
    <g
       style="fill:#707374;fill-opacity:1;stroke:none"
       transform="matrix(0.01382982,0,0,-0.01382982,3.8973194,291.686)"
       id="g12">
      <g
         style="fill:#707374;fill-opacity:1;stroke:none"
         id="g14">
        <g
           style="fill:#707374;fill-opacity:1;stroke:none"
           clip-path="url(#clipPath20-8)"
           id="g16">
          <path
             id="path48"
             style="fill:#707374;fill-opacity:1;fill-rule:nonzero;stroke:none"
             d="m 541.781,371.848 v 0 h 0.043 z" />
        </g>
      </g>
      <path
         id="path50"
         style="fill:#707374;fill-opacity:1;fill-rule:nonzero;stroke:none"
         d="M 714.668,691.164 C 676.813,609.77 574.48,420.898 553.25,384.754 c -1.359,-2.281 -2.469,-4.106 -3.309,-5.434 -3.148,-4.812 -5.875,-7.597 -8.168,-7.488 0,0 37.825,69.254 67.383,143.383 -33.234,61.273 -61.828,117.969 -89.281,176.301 -4.914,10.379 -7.27,15.523 -7.23,20.644 h -0.004 c 0,0.004 0,0.008 0,0.016 0,0.004 0,0.008 0,0.015 h 0.004 c 0.007,5.071 2.457,10.188 7.308,20.629 39.727,85.453 137.004,268.72 165.188,312.35 3.277,5.08 5.035,6.99 7.375,6.99 0.082,0 0.144,0 0.222,0 0,0 -39.281,-73.515 -67.304,-143.402 33.234,-61.258 61.937,-118.098 89.406,-176.41 4.859,-10.356 7.238,-15.344 7.238,-20.41 0,-5.083 -2.551,-10.309 -7.41,-20.774 z m 182.602,40.027 c -10.34,21.579 -42.532,84.926 -69.809,134.387 -37.398,67.797 -104.18,179.422 -111.766,189.602 -7.488,10.05 -11.683,10.5 -18.621,11.23 l -1.011,0.11 c -10.102,1.1 -52.899,1.61 -78.641,1.61 -22.059,0 -68.906,-0.57 -79.813,-1.66 -10.277,-1.02 -13.062,-4.17 -18.921,-11.83 -8.059,-10.51 -75.95,-125.3 -111.305,-189.062 -25.586,-46.101 -66.07,-125.805 -69.84,-134.387 -3.391,-7.742 -4.973,-13.839 -4.973,-19.175 0,-5.684 1.582,-11.762 4.989,-19.157 8.488,-18.414 34.089,-69.394 69.824,-134.39 37.269,-67.797 104.605,-179.844 111.746,-189.598 7.555,-10.308 12.476,-10.734 19.301,-11.351 10.355,-0.918 55.066,-1.618 78.992,-1.618 25.824,0 72.547,1.032 78.988,1.618 6.383,0.585 11.891,1.074 19.285,11.351 6.793,9.402 79.227,130.129 111.766,189.598 31.191,56.984 65.816,125.445 69.809,134.39 4.398,9.817 5,15.008 5,19.172 0,3.262 -0.649,10.102 -5,19.16" />
      <path
         id="path52"
         style="fill:#707374;fill-opacity:1;fill-rule:nonzero;stroke:none"
         d="m 1273,159.004 v -29 h -60.41 V 2.41016 h -40.74 V 130.004 h -60.39 v 29 H 1273" />
      <path
         id="path54"
         style="fill:#707374;fill-opacity:1;fill-rule:nonzero;stroke:none"
         d="M 1128.85,31.4414 V 2.41016 H 999.406 V 159.004 h 40.714 V 31.4414 h 88.73" />
      <path
         id="path56"
         style="fill:#707374;fill-opacity:1;fill-rule:nonzero;stroke:none"
         d="M 344.742,31.4414 V 2.41016 h -136 V 159.004 H 342.18 V 129.988 H 249.492 V 95.5859 h 84.696 V 67.5117 H 249.492 V 31.4414 h 95.25" />
      <path
         id="path58"
         style="fill:#707374;fill-opacity:1;fill-rule:nonzero;stroke:none"
         d="m 115.184,85.9922 c -3.125,-3.0586 -6.84,-4.5313 -12.625,-4.5313 H 47 v 47.7231 h 43.8906 c 13.0624,0 20.0394,-1.473 24.7464,-5.297 4.601,-3.692 6.828,-9.309 6.828,-17.602 0,-8.5819 -2.277,-15.4647 -7.281,-20.2928 z m 20.601,-25.4219 c 17.438,9.461 28.207,28.0899 28.207,47.6207 0,16.286 -4.746,28.922 -14.699,37.239 -11.574,9.59 -27.445,13.574 -54.2305,13.574 H 1.66406 L 0,149.559 c 0,0 1.66406,-2.817 3.59375,-6.211 C 6.49219,138.371 6.25,136.898 6.25,133.57 V 2.41016 H 47 V 52.5508 H 97.625 L 124.773,2.41016 h 44.856 L 135.785,60.5703" />
      <path
         id="path60"
         style="fill:#707374;fill-opacity:1;fill-rule:nonzero;stroke:none"
         d="M 515.281,159.031 V 55.1484 c -9.496,11.9727 -19.476,23.5079 -36.32,42.0313 -13.723,15.0623 -42.32,45.9533 -57.012,61.8243 h -39.312 l -1.653,-9.445 c 0,0 1.692,-2.817 3.598,-6.211 2.184,-3.715 2.629,-5.485 2.695,-7.496 L 387.25,2.41016 423.855,2.53125 V 106.262 c 7.297,-9.7542 20.309,-24.7073 28.989,-34.1136 17.273,-18.6875 43.363,-47.8164 63.687,-69.73824 h 35.168 V 159.004 l -36.418,0.027" />
      <path
         id="path62"
         style="fill:#707374;fill-opacity:1;fill-rule:nonzero;stroke:none"
         d="M 914.098,159.004 V 63.2383 c 0,-10.668 -2.137,-17.0274 -7.34,-21.8985 -6.598,-6.1289 -17.492,-9.0703 -33.211,-9.0703 -15.961,0 -27.137,2.9414 -33.695,9.0703 -5.192,4.8711 -7.336,11.25 -7.336,21.8985 v 95.7657 h -45.34 l -1.649,-9.445 c 0,0 1.688,-2.817 3.578,-6.211 2.067,-3.578 2.551,-5.336 2.645,-7.282 l 0.039,-74.2965 C 791.789,20.8281 819.516,0 872.996,0 h 1.141 c 53.535,0 79.797,20.2695 79.797,61.7695 v 97.2345 h -39.836" />
      <path
         id="path64"
         style="fill:#707374;fill-opacity:1;fill-rule:nonzero;stroke:none"
         d="m 645.57,59.0508 c 10.715,26.6758 21.446,51.9062 30.098,71.4762 8.652,-19.57 19.426,-44.8004 30.129,-71.4762 z m 55.559,99.9532 H 650.238 C 634.797,127.117 607.945,68.3008 582.805,2.39844 h 40.886 c 3.247,8.92186 6.707,18.01176 10.196,27.12106 h 83.578 c 3.527,-9.1093 6.961,-18.1992 10.207,-27.12106 H 768.57 C 743.406,68.3008 716.555,127.117 701.129,159.004" />
    </g>
  </g>
</svg>
