<?xml version="1.0" encoding="UTF-8" standalone="no"?>
<svg
   xmlns:dc="http://purl.org/dc/elements/1.1/"
   xmlns:cc="http://creativecommons.org/ns#"
   xmlns:rdf="http://www.w3.org/1999/02/22-rdf-syntax-ns#"
   xmlns:svg="http://www.w3.org/2000/svg"
   xmlns="http://www.w3.org/2000/svg"
   id="svg5782"
   version="1.1"
   viewBox="0 0 25.399999 25.400001"
   height="96"
   width="96">
  <defs
     id="defs5776" />
  <metadata
     id="metadata5779">
    <rdf:RDF>
      <cc:Work
         rdf:about="">
        <dc:format>image/svg+xml</dc:format>
        <dc:type
           rdf:resource="http://purl.org/dc/dcmitype/StillImage" />
        <dc:title></dc:title>
      </cc:Work>
    </rdf:RDF>
  </metadata>
  <g
     transform="translate(0,-271.59998)"
     id="layer1">
    <rect
       y="271.59998"
       x="0"
       height="25.4"
       width="25.4"
       id="rect6729"
       style="opacity:1;vector-effect:none;fill:none;fill-opacity:1;stroke:none;stroke-width:0.52916676;stroke-linecap:butt;stroke-linejoin:miter;stroke-miterlimit:4;stroke-dasharray:1.05833345, 2.11666688;stroke-dashoffset:0;stroke-opacity:1;paint-order:stroke markers fill" />
    <g
       style="fill:#707374;fill-opacity:1;stroke:none"
       id="g5255"
       transform="matrix(0.01073702,0,0,-0.01073702,24.061901,293.45638)">
      <path
         style="fill:#707374;fill-opacity:1;stroke:none;stroke-width:7.49999952"
         id="path6-04"
         d="m -1934.2738,690.76966 h 323.9999 v 238.425 c -83.625,-40.275 -225.7499,-120.45 -323.9999,-238.125 m 297.2249,322.20004 h -295.3499 V 717.39466 c 69.375,131.175 206.9249,239.325 295.2749,295.87504 m 270.15,-144.45004 h 8.1 c 27.375,0 58.2001,5.175 58.2001,40.2 0,35.025 -30.8251,40.125 -58.2001,40.125 h -8.1 z m 184.1251,-178.05 h -104.25 l -78.9001,124.2 h -0.825 v -124.2 h -83.925 v 322.50004 h 125.25 c 63.6751,0 111.9751,-30.00004 111.9751,-99.15004 0,-44.4 -24.825,-82.5 -70.5,-90.975 z"
         class="cls-1" />
      <path
         style="fill:#707374;fill-opacity:1;stroke:none;stroke-width:7.49999952"
         id="path8-8"
         d="m -1160.1238,1013.1947 h 83.7 V 690.99466 h -83.7 z m 166.49997,0 h 82.5 l 65.475,-172.20004 69.15,172.20004 h 83.325 l 48.675,-322.20004 h -83.7 l -23.475,185.475 h -0.9 l -77.325,-185.475 h -33.3 l -73.95,185.475 h -0.825 l -27,-185.475 h -83.24997 z m 461.1,-70.95004 v -53.775 h 94.5 v -70.95 h -94.5 v -55.575 h 99.675 v -70.95 h -183.375 v 322.20004 h 183.375 v -70.95004 z"
         class="cls-1" />
      <path
         style="fill:#707374;fill-opacity:1;stroke:none;stroke-width:7.49999952"
         id="path10-7"
         d="m -226.52383,927.31966 a 84.299995,84.299995 0 0 1 -53.1,20.4 c -15,0 -34.275,-8.55 -34.275,-25.725 0,-17.175 21.6,-24.9 35.475,-29.4 l 20.4,-6.075 c 42.9,-12.675 75.9,-34.275 75.9,-84.075 0,-30.6 -7.5,-62.025 -31.8,-82.5 a 134.99999,134.99999 0 0 0 -87.075,-29.175 189.97499,189.97499 0 0 0 -108.15,35.1 l 34.275,64.5 c 20.025,-17.55 43.65,-31.875 71.025,-31.875 18.825,0 38.775,9.375 38.775,31.05 0,21.675 -31.425,30 -48.525,35.1 -50.175,14.25 -83.325,27.375 -83.325,86.925 0,62.475 44.55,103.27504 106.125,103.27504 a 209.99999,209.99999 0 0 0 96.3,-25.27504 z"
         class="cls-1" />
    </g>
  </g>
</svg>
