<?xml version="1.0" encoding="UTF-8" standalone="no"?>
<svg
   xmlns:dc="http://purl.org/dc/elements/1.1/"
   xmlns:cc="http://creativecommons.org/ns#"
   xmlns:rdf="http://www.w3.org/1999/02/22-rdf-syntax-ns#"
   xmlns:svg="http://www.w3.org/2000/svg"
   xmlns="http://www.w3.org/2000/svg"
   id="svg5782"
   version="1.1"
   viewBox="0 0 25.399999 25.400001"
   height="96"
   width="96">
  <defs
     id="defs5776">
    <clipPath
       id="clipPath20-8"
       clipPathUnits="userSpaceOnUse">
      <path
         id="path18-0-9"
         d="m 541.781,371.848 v 0 h 0.043 z" />
    </clipPath>
  </defs>
  <metadata
     id="metadata5779">
    <rdf:RDF>
      <cc:Work
         rdf:about="">
        <dc:format>image/svg+xml</dc:format>
        <dc:type
           rdf:resource="http://purl.org/dc/dcmitype/StillImage" />
        <dc:title></dc:title>
      </cc:Work>
    </rdf:RDF>
  </metadata>
  <g
     transform="translate(0,-271.59998)"
     id="layer1">
    <rect
       y="271.59998"
       x="0"
       height="25.4"
       width="25.4"
       id="rect6729"
       style="opacity:1;vector-effect:none;fill:none;fill-opacity:1;stroke:none;stroke-width:0.52916676;stroke-linecap:butt;stroke-linejoin:miter;stroke-miterlimit:4;stroke-dasharray:1.05833345, 2.11666688;stroke-dashoffset:0;stroke-opacity:1;paint-order:stroke markers fill" />
    <path
       style="fill:#707374;fill-opacity:1;stroke:none;stroke-width:0.10531577px;stroke-linecap:butt;stroke-linejoin:miter;stroke-opacity:1"
       d="m 2.6097404,279.02061 v 10.55873 H 20.83986 l 1.950399,-6.22103 c 0,0 -5.789175,-4.32214 -20.1805186,-4.3377 z m 4.6678338,4.33111 c 0.4898171,-0.002 0.6862731,0.0168 1.1072571,0.0872 1.9129687,0.32172 2.6490097,1.71562 3.1999927,3.17738 l 0.669949,-3.21974 h 0.876673 l -0.339808,1.63239 c 0.0151,-0.0273 0.03098,-0.0531 0.04772,-0.0796 0.640389,-1.03653 1.925518,-1.53071 3.747143,-1.59105 0.106975,-0.003 0.169804,0.003 0.174017,0.003 0,0 -0.178948,0.58006 -0.40275,0.59323 -1.274757,0.0995 -2.321804,0.63357 -2.608416,1.51494 -0.383406,1.1797 0.955734,1.84522 1.89918,1.92284 0.25891,0.0215 0.51918,0.0222 0.777526,-8.2e-4 l 0.918634,-3.99586 h 4.114925 c -0.223408,0.65108 -0.355289,0.64752 -0.446563,0.64752 h -2.892688 l -0.303191,1.32098 h 2.499808 c -0.217232,0.63425 -0.333086,0.7187 -0.467749,0.7187 h -2.197439 c 0,0 -0.259257,1.12583 -0.314303,1.3658 -0.07021,0.30882 -0.201979,0.4192 -0.421879,0.51404 -0.2199,0.0962 -0.635387,0.12632 -1.20311,0.1119 -1.669971,-0.0429 -2.983737,-0.77585 -3.165849,-1.74656 -0.0044,-0.0208 -0.0085,-0.0419 -0.01152,-0.0644 l -0.367782,1.76609 h -0.876465 c 0,0 -0.726511,-2.09743 -2.2075177,-3.80268 -0.120663,0.57898 -0.243674,1.16933 -0.363257,1.7517 -0.03867,0.18749 -0.216671,-0.006 -0.408922,-0.20734 -0.285503,-0.29675 -0.29427,-0.4033 -0.244364,-0.64383 0.07132,-0.34365 0.309158,-1.4884 0.309158,-1.4884 0,-0.0296 -0.02804,-0.0199 -0.03353,-0.007 -0.105035,0.23845 -0.21193,0.35179 -0.318621,0.32068 -0.198568,-0.0377 -0.415988,-0.0581 -0.669125,-0.0592 -0.584729,-0.004 -1.5981879,0.0903 -1.734215,0.61935 -0.239164,0.84443 2.961389,0.71552 2.781201,2.0623 -0.100921,0.73628 -0.990491,1.51954 -3.273428,1.49787 -0.54906,-0.006 -1.064476,-0.10089 -1.551556,-0.20385 l 0.2836531,-0.60391 c 0.355167,0.0947 0.990495,0.23247 1.563693,0.23922 0.7701239,0.006 1.7293439,-0.30279 1.7644489,-0.85652 0.05814,-0.91126 -3.1362299,-0.71319 -2.7774959,-2.08245 0.213369,-0.81027 1.4702999,-1.20481 2.8665629,-1.21566 z"
       id="path5200" />
  </g>
</svg>
