<?xml version="1.0" encoding="UTF-8" standalone="no"?>
<svg
   xmlns:dc="http://purl.org/dc/elements/1.1/"
   xmlns:cc="http://creativecommons.org/ns#"
   xmlns:rdf="http://www.w3.org/1999/02/22-rdf-syntax-ns#"
   xmlns:svg="http://www.w3.org/2000/svg"
   xmlns="http://www.w3.org/2000/svg"
   id="svg5782"
   version="1.1"
   viewBox="0 0 25.399999 25.400001"
   height="96"
   width="96">
  <defs
     id="defs5776" />
  <metadata
     id="metadata5779">
    <rdf:RDF>
      <cc:Work
         rdf:about="">
        <dc:format>image/svg+xml</dc:format>
        <dc:type
           rdf:resource="http://purl.org/dc/dcmitype/StillImage" />
        <dc:title></dc:title>
      </cc:Work>
    </rdf:RDF>
  </metadata>
  <g
     transform="translate(0,-271.59998)"
     id="layer1">
    <rect
       y="271.59998"
       x="0.00023219053"
       height="25.4"
       width="25.4"
       id="rect6729"
       style="opacity:1;vector-effect:none;fill:none;fill-opacity:1;stroke:none;stroke-width:0.52916676;stroke-linecap:butt;stroke-linejoin:miter;stroke-miterlimit:4;stroke-dasharray:1.05833345, 2.11666688;stroke-dashoffset:0;stroke-opacity:1;paint-order:stroke markers fill" />
    <g
       style="fill:#707374;fill-opacity:1;stroke:none"
       id="g6207"
       transform="matrix(0.00352706,0,0,-0.00352706,-12.70951,304.21175)">
      <path
         style="fill:#707374;fill-opacity:1;stroke:none;stroke-width:9.99999905"
         d="m 4892.105,4398.9877 c 0,269.0502 -2.7892,496.4506 -6.1982,505.3343 -10.0464,26.1804 1332.5327,18.8971 1391.198,-7.547 164.1389,-73.9876 167.8164,-304.5997 6.2037,-389.0272 l -53.4875,-27.9422 h -588.858 -588.858 v -285 -285 h -80 -80 z m 1278.0572,246.9294 c 61.1072,12.2214 83.1589,47.8191 52.829,85.2806 l -19.1136,23.6078 H 5630.4913 5057.105 l -3.1309,-43.644 c -5.5537,-77.4174 -51.9833,-71.3559 546.567,-71.3559 296.4851,0 552.8145,2.7502 569.6211,6.1115 z m 276.4311,-725.2839 c -7.5307,12.1849 -11.0971,985.897 -3.6384,993.3558 10.8957,10.8956 1315.8742,8.3304 1355.1394,-2.6639 187.5355,-52.51 219.4519,-309.1765 49.0104,-394.1336 -59.5359,-29.6759 -137.037,-37.3869 -377.9922,-37.6083 l -242.0078,-0.222 25,-20.4773 c 33.7293,-27.6275 130.5979,-91.33 485,-318.9447 389.4171,-250.1031 371.675,-230.1733 204.7222,-229.9662 l -134.7222,0.167 -80.6511,43.3076 c -118.5314,63.6483 -247.398,146.3715 -540.5851,347.0171 l -262.0566,179.3409 h -155.6978 -155.6978 l -2.6558,-282.5 -2.6557,-282.5 -76.6592,-2.9055 c -50.3926,-1.91 -79.1239,1.0823 -83.8523,8.7331 z m 1324.4694,743.2223 c 11.5731,10.4774 21.042,29.832 21.042,43.0102 0,51.3382 -18.8987,52.9398 -624.6787,52.9398 h -555.3212 v -60.3893 -60.3895 l 568.9579,2.8895 c 543.2493,2.7588 569.9089,3.7502 590,21.9393 z m 881.0419,-742.4443 c -442.3485,27.8283 -703.8415,272.683 -630.0161,589.9291 97.7909,420.2317 919.1675,559.3031 1341.455,227.1284 48.7228,-38.3256 48.5621,-38.4541 48.5531,38.8368 -0.02,213.5207 -223.5875,369.8234 -557.0443,389.4547 -222.2809,13.0861 -486.4032,-58.2469 -579.0258,-156.3807 -36.574,-38.7503 -64.558,-39.1257 -86.9808,-1.1669 -31.5079,53.3386 53.8617,120.5877 235.5589,185.5593 l 77.5,27.7126 v 988.6604 c 0,889.5635 -1.5656,988.6604 -15.6193,988.6604 -33.8641,0 -128.2874,-54.6724 -184.8249,-107.0162 -74.5993,-69.0658 -115.5995,-150.6808 -131.9085,-262.5771 l -11.7194,-80.4067 h -58.9023 -58.9023 l 6.6243,52.5 c 11.596,91.9022 34.428,167.9784 72.4061,241.2565 257.8704,497.5568 1261.6506,440.604 1401.7083,-79.5305 15.0872,-56.0299 16.1711,-2562.1448 1.137,-2629.2297 -63.262,-282.2877 -401.2366,-442.8804 -869.999,-413.3904 z m 357.387,174.0195 c 462.9182,116.0742 477.1887,507.7333 23.0847,633.5719 -338.8,93.8863 -749.0527,-9.7692 -841.1077,-212.5164 -132.0778,-290.8953 349.1868,-538.6134 818.023,-421.0555 z m 404.2926,1856.8747 c 3.9687,952.6665 2.8417,983.1127 -39.2517,1060.4522 -42.9856,78.9787 -198.2197,197.0477 -259.0734,197.0477 -11.1951,0 -13.0237,-167.0533 -10.9028,-996.0529 l 2.5483,-996.0529 60,-24.1463 c 33,-13.2805 98.25,-50.776 144.9999,-83.3233 46.75,-32.5474 87.907,-59.4577 91.46,-59.8007 3.5529,-0.343 8.1518,405.5013 10.2197,901.8762 z m -384.1313,284.5606 -2.5483,997.0605 -45,14.3103 c -50.5002,16.0594 -300.303,19.098 -360,4.3789 l -35,-8.6296 -2.5483,-997.1321 -2.5483,-997.132 127.5483,5.7396 c 70.1516,3.1567 161.2983,1.5093 202.5483,-3.6609 41.25,-5.1703 85.1467,-9.9843 97.5483,-10.6978 l 22.5483,-1.2974 z M 4922.1923,5186.5225 c -44.1361,6.2072 -49.7773,15.6417 -49.7977,83.283 -0.032,107.2084 -14.3888,99.9814 193.3301,97.3221 l 181.3802,-2.3221 59.6152,29.2703 c 77.7784,38.1884 175.0538,136.9033 245.3848,249.0161 297.7962,474.7097 358.0619,516.7135 741.3648,516.7135 h 178.6351 v -84.2209 -84.2208 l -187.5,-3.2792 c -275.7811,-4.823 -337.6446,-46.0448 -526.4108,-350.7657 -190.8912,-308.1511 -266.021,-377.6233 -462.8034,-427.9518 -75.0656,-19.1985 -300.8506,-33.0195 -373.1983,-22.8445 z m 2074.9125,18.7421 c -365.1403,67.6798 -547.0411,249.4789 -521.6524,521.3608 35.7313,382.637 727.1019,556.9352 1210.4664,305.1648 327.2915,-170.4765 307.6034,-580.9211 -35.7785,-745.8895 -174.6849,-83.9226 -451.1369,-118.0585 -653.0355,-80.6361 z m 419.9999,174.1711 c 437.4845,113.8971 441.3545,464.2066 6.4353,582.5269 -244.668,66.5622 -600.0516,-1.6315 -720.2743,-138.2117 -236.0177,-268.1302 243.6917,-566.716 713.839,-444.3152 z"
         id="path6215" />
      <path
         style="fill:#707374;fill-opacity:1;stroke:none;stroke-width:9.99999905"
         d="m 7862.1047,3909.2966 c -108.8872,9.4665 -216.6677,73.0327 -766.6783,452.1673 l -171.6783,118.3417 h -155.6659 -155.6659 l -2.6558,-282.5 -2.6557,-282.5 h -85 -85 l 1.507,498.1737 c 0.829,273.9955 3.0789,499.6939 5,501.5522 13.0956,12.6668 1327.6646,7.807 1368.2529,-5.0583 157.3775,-49.8842 199.5583,-286.4089 67.2071,-376.8574 -63.613,-43.473 -132.9501,-52.7793 -396.5681,-53.2265 l -245.399,-0.416 36.768,-32.0838 c 20.2224,-17.646 210.5647,-143.9914 422.9828,-280.7675 212.4182,-136.7761 384.8726,-249.8153 383.232,-251.1981 -8.915,-7.5146 -153.3774,-11.2438 -217.9828,-5.6271 z m -136.0929,740.0118 c 50.7409,11.7709 70.4333,31.8423 62.4497,63.6515 -11.3435,45.196 -33.2765,46.8456 -622.8489,46.8456 h -553.5078 v -54.9029 -54.9031 l 477.5,-2.6962 c 262.6249,-1.483 504.4999,-3.6692 537.4999,-4.8584 33,-1.1892 77.5082,1.8994 98.9071,6.8635 z M 4892.105,4398.9877 c 0,269.0502 -2.7782,496.4218 -6.1737,505.2703 -5.6423,14.7036 52.2373,15.8499 672.5,13.3179 l 678.6735,-2.7704 55,-27.2307 c 143.8031,-71.1975 150.1877,-275.3301 11.6472,-372.3951 l -43.3528,-30.3741 -604.1471,-2.7991 -604.1471,-2.7991 v -284.7009 -284.7009 h -80 -80 z m 1317.9368,261.8503 c 14.2488,8.8985 22.063,23.7326 22.063,41.8833 0,56.6767 -9.7636,57.5343 -622.3815,54.6689 l -552.6183,-2.5847 -3.0193,-52.4035 -3.0193,-52.4037 483.0193,-3.312 c 602.0905,-4.1285 648.2317,-3.1625 675.9561,14.1517 z m 2416.3754,-740.4752 c -450.1245,43.6912 -696.0658,302.362 -595.4914,626.3132 121.623,391.7486 870.7113,508.516 1316.1787,205.1649 l 60,-40.8584 3.2285,41.9115 c 11.1018,144.1195 -72.4516,263.98 -236.1358,338.7459 -274.2193,125.2549 -702.4837,87.0989 -894.7627,-79.7185 -52.497,-45.5453 -69.7459,-45.7884 -92.748,-1.3071 -27.9453,54.0402 57.8349,120.4952 237.9181,184.318 l 77.5,27.4666 v 988.7032 c 0,828.9485 -2.2066,988.7032 -13.6564,988.7032 -7.5111,0 -45.1509,-15.7561 -83.6442,-35.0135 -128.5054,-64.2886 -210.7553,-183.0954 -233.642,-337.4865 l -11.4885,-77.5 h -60.0761 -60.076 l 6.9743,61.6447 c 41.8335,369.7592 360.5014,597.066 805.6089,574.6434 353.5671,-17.8113 633.428,-199.0804 673.5842,-436.2881 18.8454,-111.3226 7.8829,-2585.4141 -11.7308,-2647.4811 -68.9233,-218.1052 -288.0352,-348.9923 -640.1261,-382.381 -116.8421,-11.0801 -129.156,-11.0592 -247.4147,0.42 z m 359.7729,169.5701 c 413.4078,91.3935 511.83,428.2625 172.0835,588.9888 -472.3061,223.437 -1121.7072,-22.6256 -962.4319,-364.6722 86.6126,-186.0022 470.6376,-294.9962 790.3484,-224.3166 z m 427.5803,1852.3725 c 3.5686,955.2734 2.771,981.1878 -32.4531,1054.4591 -40.1463,83.5101 -203.0855,213.0408 -267.9881,213.0408 -8.3695,0 -10.6568,-259.7085 -8.7729,-996.1149 l 2.5483,-996.1149 54.1592,-20.2028 c 29.7876,-11.1116 95.0376,-48.4626 144.9999,-83.0023 49.9625,-34.5397 93.8404,-63.1967 97.5067,-63.6822 3.6662,-0.486 8.1662,400.7423 10,891.6172 z m -391.6658,296.791 v 999.2909 l -52.5,10.0037 c -120.6323,22.9861 -305.6987,20.6646 -371.7007,-4.6628 -14.2523,-5.4691 -15.7993,-103.3174 -15.7993,-999.3393 v -993.2767 l 142.5,4.8985 c 78.375,2.6942 171.75,0.721 207.5,-4.3853 35.75,-5.1061 70.625,-9.8544 77.5,-10.5519 9.9251,-1.0068 12.5,204.5806 12.5,998.0229 z M 4907.105,5186.4031 c -29.0215,8.2944 -34.6918,21.9192 -34.7104,83.4024 -0.032,107.6075 -13.4979,100.5452 188.4193,98.8204 287.7139,-2.4578 332.6363,27.7881 551.291,371.1795 239.1078,375.5125 308.7391,419.2999 667.4999,419.7555 l 192.5,0.2445 v -85 -85 l -152.5,-0.378 c -327.8832,-0.812 -357.7207,-23.4613 -647.4999,-491.5089 -94.6498,-152.8773 -218.256,-250.2538 -366.7547,-288.9282 -78.2062,-20.3677 -351.731,-35.8814 -398.2452,-22.5875 z m 2081.5525,19.3704 c -233.7899,42.2394 -411.4999,146.4337 -471.873,276.6667 -169.7918,366.264 131.523,661.7262 675.3202,662.203 455.3227,0.399 747.0685,-199.8577 727.8328,-499.5909 -20.3086,-316.4505 -460.883,-524.2667 -931.28,-439.2788 z m 422.4552,174.1838 c 261.449,63.0715 387.9148,218.898 312.3354,384.8481 -118.1484,259.419 -808.0474,299.9435 -1019.3624,59.8771 -235.1462,-267.1402 230.0941,-559.7798 707.027,-444.7252 z"
         id="path6213" />
      <path
         style="fill:#707374;fill-opacity:1;stroke:none;stroke-width:9.99999905"
         d="m 7827.1047,3908.9819 c -73.9072,12.3295 -264.5217,129.0881 -708.9139,434.2365 l -198.914,136.5872 h -147.5161 c -125.2905,0 -148.4306,-2.3832 -153.586,-15.8179 -3.3385,-8.6998 -6.0699,-136.9498 -6.0699,-285 v -269.1821 h -90 -90 v 343.4029 c 0,188.8716 2.9648,418.5764 6.5884,510.455 l 6.5883,167.0523 670.9117,-2.9552 c 732.1534,-3.2248 710.5606,-1.5255 774.2482,-60.9324 68.9613,-64.326 90.5308,-203.6343 43.293,-279.6111 -56.8676,-91.4652 -133.8495,-110.0164 -451.6297,-108.8344 l -245,0.911 34.1722,-29.3685 c 18.7948,-16.1527 158.2948,-109.2206 310,-206.8177 533.5274,-343.2359 508.8829,-326.1094 480.8278,-334.1466 -31.1831,-8.9333 -181.4059,-8.9201 -235,0.02 z m -57.5,757.1131 c 28.2042,17.7645 28.7719,44.9333 1.4555,69.6606 -20.1733,18.2613 -44.4932,19.0499 -587.5,19.0499 h -566.4554 l -3.0194,-52.4088 -3.0195,-52.4089 513.0195,-2.8673 c 564.4566,-3.1548 612.6333,-1.7387 645.5193,18.9745 z m -2885.0914,-248.7894 2.5917,507.4999 h 654.9999 c 735.6869,0 734.2039,0.129 804.5135,-70.1803 101.7472,-101.7471 66.6876,-286.9173 -66.8899,-353.2855 l -47.2292,-23.4658 -590.1971,1.3716 -590.1972,1.3715 v -285.4057 -285.4057 h -85.0917 -85.0916 z m 1325.6953,248.9321 c 16.5561,10.6201 22.2242,22.4363 20,41.694 -5.8453,50.6105 -27.1801,52.2944 -626.6507,49.4587 l -546.4529,-2.5849 -3.0195,-52.4088 -3.0194,-52.4089 513.0194,-3.082 c 567.8423,-3.4113 612.763,-2.0673 646.1231,19.3319 z m 2386.896,-745.0884 c -394.0547,49.6156 -596.7333,230.5189 -582.7855,520.1726 23.0775,479.2505 875.7295,659.8535 1366.7482,289.4953 l 33.9629,-25.6169 -4.8409,74.8025 c -9.0802,140.3076 -73.2171,227.0947 -221.4403,299.6429 -288.6345,141.2728 -726.5644,103.7971 -919.4053,-78.6776 -41.9104,-39.6575 -55.7937,-37.6804 -85.409,12.1627 l -16.83,28.3254 52.2787,48.3298 c 47.1868,43.6226 227.9071,130.0195 271.9676,130.0195 7.5991,0 10.7536,290.4136 10.7536,989.9999 0,820.8979 -2.2893,989.9999 -13.4028,989.9999 -31.7556,0 -145.7145,-68.028 -193.0031,-115.2135 -73.6969,-73.5365 -123.141,-182.2427 -123.4753,-271.4686 -0.2154,-57.4822 -6.7764,-63.3179 -71.1886,-63.3179 h -58.9301 l 0.174,32.5 c 0.335,62.7514 29.9263,173.2337 66.2891,247.5 234.7016,479.3474 1166.878,482.4398 1390.6229,4.6132 l 27.9138,-59.6132 5.2218,-1254.9999 c 5.8141,-1397.3342 6.2514,-1382.8225 -44.7855,-1486.0888 -113.2849,-229.2164 -493.2137,-362.5818 -890.4362,-312.5673 z m 425,178.275 c 279.439,81.2031 407.8097,261.5244 307.5704,432.0417 -155.8784,265.1652 -795.5637,311.279 -1062.2045,76.5725 -175.8633,-154.8011 -99.7591,-379.2776 162.2787,-478.6563 168.3994,-63.866 430.1203,-77.1024 592.3554,-29.9579 z m 388.5037,2766.2326 c -12.2028,151.875 -98.8851,261.059 -261.0037,328.7573 l -37.5,15.6595 V 6216.0498 5222.026 l 73.9777,-35.1318 c 40.6877,-19.3226 107.0626,-58.3682 147.4999,-86.7682 l 73.5223,-51.6363 5,868.1578 c 2.75,477.4869 2.0767,904.541 -1.4962,949.0094 z m -388.5037,-627.1766 v 998.6747 l -52.5,10.8073 c -58.1919,11.9789 -332.4478,10.2 -360,-2.3351 -16.4955,-7.5047 -17.5,-64.8973 -17.5,-999.9154 V 5253.758 l 147.5,3.5878 c 123.2216,2.9972 175.1339,-0.08 275,-16.3209 4.125,-0.671 7.5,448.1842 7.5,997.4554 z M 4877.121,5201.1815 c -3.3189,13.2233 -4.6802,55.4482 -3.0252,93.8332 l 3.0092,69.7908 194.9999,5 c 225.3899,5.7792 252.6049,14.7788 355.3269,117.5008 49.0918,49.0918 78.0321,90.2866 246.3118,350.6104 183.2905,283.5451 287.2993,331.5884 700.8612,323.7392 l 97.5,-1.8505 v -88.1817 -88.1816 l -182.5,0.682 c -288.7126,1.0784 -332.4709,-30.286 -563.2569,-403.7234 -195.6861,-316.6419 -313.6213,-387.0701 -666.2178,-397.8503 l -176.9749,-5.4112 z m 2219.3531,-11.0702 c -286.1121,23.5605 -508.583,139.6056 -586.3882,305.8715 -84.7576,181.1228 -32.9636,385.034 126.748,499.0018 375.2148,267.7477 1083.0812,180.7903 1247.5297,-153.252 49.2354,-100.0112 48.8483,-246.0566 -0.905,-341.4122 -111.8354,-214.3408 -429.6906,-339.6311 -786.9846,-310.2091 z m 190.6306,169.8762 c 335.5892,37.3543 526.3757,216.061 434.1209,406.6339 -135.1103,279.1006 -884.5875,291.309 -1045.3272,17.0276 -109.1459,-186.2434 79.955,-380.5157 411.2064,-422.4516 97.8124,-12.383 99.5286,-12.3934 199.9999,-1.2099 z"
         id="path6211" />
      <path
         style="fill:#707374;fill-opacity:1;stroke:none;stroke-width:9.99999905"
         d="m 6464.6048,3907.0396 -32.5,4.0332 0.05,411.8664 c 0.03,226.5265 2.967,455.8909 6.5301,509.6988 l 6.4783,97.8325 670.97,-2.8325 c 755.5725,-3.1897 721.6652,0.269 792.9243,-80.8912 77.5886,-88.3696 68.3595,-244.0019 -18.366,-309.7124 -70.9457,-53.7542 -129.0018,-62.4225 -403.5885,-60.2591 l -250,1.9697 30,-24.8635 c 16.5,-13.675 129,-88.6488 250,-166.6086 374.33,-241.1792 538.8826,-348.2407 552.0895,-359.2014 26.2669,-21.7982 -1.8693,-28.2659 -122.9631,-28.2659 -170.1281,0 -228.0929,29.9123 -744.1247,383.9999 l -284.9999,195.5596 -146.0754,0.22 -146.0755,0.22 -6.4245,-61.4669 c -3.5335,-33.8063 -6.4246,-161.4447 -6.4246,-283.6403 v -222.1738 l -46.3957,-6.3593 c -25.5177,-3.4975 -51.3927,-5.639 -57.5,-4.7588 -6.1074,0.88 -25.7293,3.4153 -43.6043,5.6336 z m 1291.8372,754.2836 c 56.3856,25.691 38.762,75.5528 -30.8581,87.3053 -21.1636,3.5725 -280.3542,4.871 -575.9791,2.8855 l -537.5,-3.6101 v -49.0491 -49.0492 h 559.5295 c 400.8706,0 566.6972,3.2659 584.8077,11.5176 z m -2871.9287,-244.0176 2.5917,507.4999 609.9999,2.8586 c 635.3882,2.9776 733.9749,-1.6244 804.392,-37.5485 131.1013,-66.8828 144.2188,-254.8268 25.0861,-359.4267 -63.3044,-55.582 -45.628,-54.2361 -676.9781,-51.5462 l -587.4999,2.5031 v -285.9201 -285.9201 h -90.0917 -90.0916 z m 1325.3664,248.067 c 27.7825,19.4596 28.3934,45.7509 1.6261,69.975 -22.1395,20.0359 -1132.5312,24.5506 -1152.9418,4.6877 -4.6976,-4.5715 -5.4271,-26.7434 -1.6211,-49.2707 l 6.92,-40.959 h 561.8959 c 492.3751,0 564.6457,1.926 584.1209,15.567 z m 2373.9876,-744.8243 c -328.3041,42.6058 -534.1553,194.1543 -572.393,421.3984 -87.5766,520.4608 776.406,788.2228 1334.905,413.7083 l 68.6247,-46.0179 -5.5729,73.6862 c -10.1627,134.3744 -88.4325,235.9525 -233.4314,302.9462 -272.4066,125.8596 -717.8666,85.4119 -903.1811,-82.0086 -46.5341,-42.0407 -62.5715,-40.6179 -90.1871,8.0015 -30.4982,53.6942 85.2083,139.1649 261.9731,193.5157 l 57.5,17.6798 v 988.8476 988.8475 l -22.5,-6.978 c -177.708,-55.1131 -306.2278,-223.2085 -307.2554,-401.8697 l -0.2445,-42.5 h -66.436 -66.436 l 6.6574,71.6305 c 32.8001,352.9162 317.5961,563.631 761.2145,563.2069 362.4881,-0.3465 621.3242,-139.3619 705.5225,-378.9211 29.9126,-85.1065 32.3677,-2634.1392 2.6161,-2716.1593 -99.0261,-272.9987 -486.9388,-426.6909 -931.3759,-369.014 z m 441.2032,183.4483 c 316.9889,93.6614 432.3382,311.4572 257.5341,486.2613 -248.2226,248.2226 -919.1972,212.1604 -1077.4688,-57.9098 -168.6527,-287.7841 360.3494,-564.1462 819.9347,-428.3515 z m 384.7334,1893.3088 c -2.6884,933.6823 -2.7864,937.6881 -24.0727,983.7239 -38.9215,84.1758 -128.0642,165.6699 -228.1445,208.5693 l -45.4821,19.4959 v -994.9583 c 0,-938.7516 0.989,-995.2789 17.5,-1000.6314 49.0749,-15.9085 144.1923,-67.6972 197.4999,-107.5329 33,-24.6602 65.7147,-45.136 72.6994,-45.5016 10.1984,-0.534 12.1677,183.9619 10,936.8351 z m -391.9153,1228.9772 c -11.4403,30.0369 -318.3956,43.7458 -403.284,18.0111 l -22.5,-6.8211 -0.01,-991.3335 -0.01,-991.3336 152.5088,2.9048 c 83.8798,1.5976 179.5087,-0.671 212.5087,-5.0425 l 60,-7.9473 2.5777,985.0424 c 1.4178,541.7733 0.611,990.2072 -1.7937,996.5197 z M 4878.7716,5186.4722 c -3.6666,3.6666 -6.6666,46.0726 -6.6666,94.2353 v 87.5688 l 192.5,3.2646 c 259.0586,4.3934 326.4824,39.6906 459.6569,240.6363 30.1185,45.4455 93.2923,141.4325 140.3863,213.3044 194.1995,296.3758 325.142,360.7056 691.2317,339.5903 l 126.9736,-7.3235 -2.8744,-86.4715 -2.8743,-86.4715 -144.1103,2.648 c -231.4097,4.2522 -294.9564,-14.6922 -399.6546,-119.1439 -50.0216,-49.9038 -86.3855,-101.9192 -249.8776,-357.4272 -127.2894,-198.9301 -240.7698,-282.2713 -431.3574,-316.7938 -76.5898,-13.8732 -361.2687,-19.6809 -373.3333,-7.6163 z m 2218.3332,0.3292 c -425.743,38.6773 -666.3309,252.6727 -624.6296,555.5887 50.2754,365.1979 700.4902,537.6997 1177.2833,312.333 301.9457,-142.7214 369.3693,-448.6447 147.8831,-670.9951 -140.0027,-140.5491 -428.479,-221.6421 -700.5368,-196.9266 z m 282.9215,188.8453 c 390.945,80.347 491.286,380.8037 177.0784,530.236 -417.6944,198.649 -1010.7604,-6.6042 -895.4462,-309.9035 64.7861,-170.4002 424.4986,-280.7286 718.3678,-220.3325 z"
         id="path6209" />
    </g>
  </g>
</svg>
