<?xml version="1.0" encoding="UTF-8" standalone="no"?>
<svg
   xmlns:dc="http://purl.org/dc/elements/1.1/"
   xmlns:cc="http://creativecommons.org/ns#"
   xmlns:rdf="http://www.w3.org/1999/02/22-rdf-syntax-ns#"
   xmlns:svg="http://www.w3.org/2000/svg"
   xmlns="http://www.w3.org/2000/svg"
   id="svg5782"
   version="1.1"
   viewBox="0 0 25.399999 25.400001"
   height="96"
   width="96">
  <defs
     id="defs5776" />
  <metadata
     id="metadata5779">
    <rdf:RDF>
      <cc:Work
         rdf:about="">
        <dc:format>image/svg+xml</dc:format>
        <dc:type
           rdf:resource="http://purl.org/dc/dcmitype/StillImage" />
        <dc:title></dc:title>
      </cc:Work>
    </rdf:RDF>
  </metadata>
  <g
     transform="translate(0,-271.59998)"
     id="layer1">
    <rect
       y="271.59998"
       x="0.081660591"
       height="25.4"
       width="25.4"
       id="rect6729"
       style="opacity:1;vector-effect:none;fill:none;fill-opacity:1;stroke:none;stroke-width:0.52916676;stroke-linecap:butt;stroke-linejoin:miter;stroke-miterlimit:4;stroke-dasharray:1.05833345, 2.11666688;stroke-dashoffset:0;stroke-opacity:1;paint-order:stroke markers fill" />
    <g
       style="fill:#707374;fill-opacity:1;stroke:none"
       id="g4915"
       transform="matrix(0.4377844,0,0,0.4377844,46.246633,226.1063)">
      <path
         id="path22-7"
         style="fill:#707374;fill-opacity:1;fill-rule:nonzero;stroke:none;stroke-width:0.0748028"
         d="m -83.890086,127.78266 c -1.374053,-1.37458 -3.201335,-2.1318 -5.145086,-2.1318 -2.310808,0 -4.507916,1.11845 -5.875162,2.98897 0,0 -3.684711,4.60792 -3.867678,4.83974 -0.182819,0.23181 -0.450613,0.35239 -0.714517,0.35239 -0.498635,0 -0.904221,-0.40543 -0.904221,-0.90406 0,-0.49827 0.405586,-0.9037 0.904221,-0.9037 0.09335,0 0.164267,0.01 0.240192,0.01 0.316865,0 0.573737,-0.27079 0.573737,-0.58339 0,-0.24393 -0.16853,-0.6083 -0.741669,-0.6083 -1.227361,0 -2.148261,0.94057 -2.148261,2.08536 0,1.1447 0.93129,2.07592 2.076001,2.0763 0.583312,0 1.137377,-0.24528 1.53069,-0.67525 l 4.247153,-5.03056 c 1.134609,-1.45948 2.839963,-2.29667 4.679514,-2.29667 1.582977,0 3.071104,0.61637 4.190453,1.73572 1.118975,1.11943 1.735275,2.6077 1.735275,4.19046 0,3.26768 -2.65894,5.92602 -5.927,5.92602 -0.926433,0 -1.23103,-0.1692 -1.457981,-0.1692 -0.384711,0 -0.690654,0.30258 -0.690654,0.6807 0,0.28224 0.167109,0.5219 0.439915,0.63239 0.233609,0.0949 1.138648,0.20675 1.709992,0.20675 4.012123,0 7.276068,-3.26424 7.276068,-7.27666 0,-1.9439 -0.756929,-3.77096 -2.130982,-5.14524 m -5.145909,8.66164 c -0.555261,0 -0.791862,-0.11617 -0.983582,-0.11617 -0.372443,0 -0.67517,0.30295 -0.67517,0.67547 0,0.28784 0.198527,0.5605 0.459439,0.63927 0.260762,0.0785 0.731047,0.15229 1.199687,0.15229 2.6837,0 4.867493,-2.18341 4.867493,-4.86726 0,-2.68363 -2.183419,-4.86742 -4.867044,-4.86757 -1.31264,0 -2.584811,0.54209 -3.4995,1.48962 l -4.899583,5.44377 c -0.551297,0.54973 -1.28227,0.85231 -2.058274,0.85231 -1.609161,0 -2.917681,-1.30913 -2.917681,-2.91813 0,-1.60886 1.30935,-2.91791 2.919028,-2.91791 0.375884,0 0.493174,0.0711 0.653552,0.0711 0.279987,0 0.569473,-0.23907 0.569473,-0.58586 0,-0.27849 -0.194038,-0.52796 -0.457419,-0.58503 -0.2087,-0.0454 -0.518907,-0.0727 -0.767402,-0.0727 -2.255152,0 -4.089622,1.83499 -4.089622,4.09037 0,2.25552 1.83492,4.09059 4.090071,4.09059 1.852342,0 2.877065,-1.18653 3.040584,-1.35595 l 4.783714,-5.06191 c 0.668737,-0.75581 1.628382,-1.18936 2.633059,-1.18936 1.938963,0 3.51633,1.57789 3.51633,3.51663 0,1.93888 -1.577816,3.5164 -3.517153,3.5164 m 8.23e-4,-4.62378 c 0.610465,0 1.107231,0.49706 1.107231,1.10738 0,0.61069 -0.496766,1.10738 -1.107231,1.10738 -0.08296,0 -0.257397,-0.0305 -0.260763,-0.0314 -0.05648,-0.0129 -0.314172,-0.0655 -0.496616,0.007 -0.246699,0.10008 -0.421065,0.34319 -0.421065,0.62624 0,0.27079 0.199275,0.54367 0.41366,0.62236 0.21431,0.0788 0.526911,0.12582 0.764784,0.12582 1.355127,0 2.457646,-1.10237 2.457646,-2.45764 0,-1.35528 -1.102519,-2.45787 -2.457646,-2.45787 -0.675619,0 -1.328722,0.28327 -1.789508,0.7751 0,0 -4.338786,4.45862 -5.362463,5.33898 -0.910873,0.78311 -2.011073,1.27613 -3.305835,1.27613 -1.317422,0 -2.555862,-0.51314 -3.487382,-1.44451 -0.93129,-0.93175 -1.44437,-2.17033 -1.44437,-3.48783 0,-2.71946 2.21275,-4.9319 4.932351,-4.9319 0.52534,0 0.881326,0.0969 1.020759,0.10427 0.339679,0.0183 0.6163,-0.26113 0.6163,-0.58436 0,-0.2823 -0.206904,-0.53244 -0.481356,-0.58204 0,0 -0.530501,-0.11033 -1.1569,-0.11033 -3.365454,0 -6.103534,2.73845 -6.103534,6.10436 0,1.63032 0.63478,3.16318 1.78786,4.31634 1.15271,1.15324 2.68572,1.78846 4.316272,1.78846 1.580584,0 3.072002,-0.60007 4.213792,-1.69279 l 5.458734,-5.18069 c 0.220743,-0.2093 0.440289,-0.3387 0.78528,-0.3387" />
      <path
         id="path26"
         style="fill:#707374;fill-opacity:1;fill-rule:nonzero;stroke:none;stroke-width:0.0748028"
         d="m -53.364103,138.66265 9.72e-4,-0.005 c 0.04458,-0.28029 0.286121,-0.46834 0.600667,-0.46834 0.311554,0 0.533194,0.17945 0.578974,0.46834 l 8.22e-4,0.005 z m 0.617273,-0.72806 c -0.298912,0 -0.545986,0.09 -0.714068,0.26032 -0.152149,0.15394 -0.235703,0.37192 -0.235703,0.61398 0,0.24229 0.08355,0.46049 0.235703,0.61435 0.168082,0.17041 0.415156,0.26039 0.714068,0.26039 0.276022,0 0.617572,-0.12237 0.797547,-0.45562 h -0.335864 c -0.139807,0.17915 -0.373266,0.20092 -0.477317,0.20092 -0.144669,0 -0.290908,-0.0491 -0.400943,-0.13465 -0.125145,-0.0968 -0.197704,-0.23203 -0.209298,-0.39076 l -4.49e-4,-0.005 h 1.513485 v -0.0364 c 0,-0.68429 -0.458018,-0.92778 -0.887161,-0.92778 m -7.165585,0.72806 8.23e-4,-0.005 c 0.04458,-0.28029 0.286046,-0.46834 0.600592,-0.46834 0.311628,0 0.533344,0.17945 0.578973,0.46834 l 8.23e-4,0.005 z m 0.617123,-0.72806 c -0.298912,0 -0.545836,0.09 -0.713993,0.26032 -0.152223,0.15394 -0.235778,0.37192 -0.235778,0.61398 0,0.24229 0.08356,0.46049 0.235778,0.61435 0.168157,0.17041 0.415081,0.26039 0.713993,0.26039 0.276172,0 0.617497,-0.12237 0.797548,-0.45562 h -0.33594 c -0.139806,0.17915 -0.373266,0.20092 -0.477316,0.20092 -0.144594,0 -0.290834,-0.0491 -0.400943,-0.13465 -0.125145,-0.0968 -0.197704,-0.23203 -0.209299,-0.39076 l -4.48e-4,-0.005 h 1.513485 v -0.0364 c 0,-0.68429 -0.458168,-0.92778 -0.887087,-0.92778 m -19.733352,0.72806 8.22e-4,-0.005 c 0.04458,-0.28029 0.286046,-0.46834 0.601041,-0.46834 0.311404,0 0.533194,0.17945 0.5786,0.46834 l 7.48e-4,0.005 z m 0.617347,-0.72806 c -0.298912,0 -0.545836,0.09 -0.714142,0.26032 -0.15185,0.15394 -0.235854,0.37192 -0.235854,0.61398 0,0.24229 0.084,0.46049 0.235854,0.61435 0.168306,0.17041 0.41523,0.26039 0.714142,0.26039 0.276247,0 0.617348,-0.12237 0.797323,-0.45562 h -0.33564 c -0.139881,0.17915 -0.373266,0.20092 -0.477167,0.20092 -0.144818,0 -0.290833,-0.0491 -0.401168,-0.13465 -0.125145,-0.0968 -0.197479,-0.23203 -0.209298,-0.39076 l -3.74e-4,-0.005 h 1.51341 v -0.0364 c 0,-0.68429 -0.458167,-0.92778 -0.887086,-0.92778 m 31.124996,0.2969 v -0.24506 h -0.470883 v -0.50551 h -0.313723 v 0.50551 h -0.339156 v 0.24506 h 0.339156 v 1.06721 c 0,0.23869 0.125294,0.38935 0.433108,0.38935 0.128511,0 0.24483,-0.003 0.351498,-0.0221 v -0.26361 c -0.07211,0.0124 -0.144219,0.0219 -0.216554,0.0219 -0.159853,0 -0.254329,-0.0471 -0.254329,-0.17885 v -1.01395 z m -2.665373,-0.30153 c -0.235629,0 -0.495943,0.0753 -0.643603,0.30459 h -0.0064 v -0.24812 h -0.313798 v 1.64499 h 0.313798 v -0.9479 c 0,-0.32345 0.254329,-0.48981 0.540001,-0.48981 0.336089,0 0.486517,0.13824 0.486517,0.37978 v 1.05793 h 0.314023 v -1.12062 c 0,-0.41112 -0.294948,-0.58084 -0.690505,-0.58084 m -5.321097,0 c -0.313798,0 -0.514868,0.11631 -0.665296,0.30459 -0.131952,-0.21677 -0.345514,-0.30459 -0.558852,-0.30459 -0.235479,0 -0.496017,0.0753 -0.643678,0.30459 h -0.006 v -0.24812 h -0.314247 v 1.64499 h 0.314247 v -0.9479 c 0,-0.32345 0.25388,-0.48981 0.539552,-0.48981 0.204287,0 0.395707,0.0913 0.395707,0.39242 v 1.04529 h 0.313798 v -0.9951 c 0,-0.30759 0.254329,-0.44261 0.540001,-0.44261 0.204137,0 0.395557,0.0913 0.395557,0.39242 v 1.04529 h 0.313948 v -1.12062 c 0,-0.5023 -0.458167,-0.58084 -0.624753,-0.58084 m -6.598729,0 c -0.235405,0 -0.495943,0.0753 -0.643379,0.30459 h -0.0064 v -0.24812 h -0.314022 v 1.64499 h 0.314022 v -0.9479 c 0,-0.32345 0.254329,-0.48981 0.540151,-0.48981 0.33564,0 0.486368,0.13824 0.486368,0.37992 v 1.05779 h 0.313947 v -1.12062 c 0,-0.41112 -0.295097,-0.58084 -0.690654,-0.58084 m -2.706291,0 c -0.235479,0 -0.496017,0.0753 -0.643453,0.30459 h -0.0062 v -0.24812 h -0.313798 v 1.64499 h 0.313798 v -0.9479 c 0,-0.32345 0.254329,-0.48981 0.539927,-0.48981 0.335715,0 0.486367,0.13824 0.486367,0.37992 v 1.05779 h 0.314023 v -1.12062 c 0,-0.41112 -0.295172,-0.58084 -0.690655,-0.58084 m -2.856644,1.49448 c -0.455175,0 -0.621536,-0.31701 -0.621536,-0.61555 0,-0.29809 0.166361,-0.61518 0.621536,-0.61518 0.455175,0 0.621537,0.31709 0.621537,0.61518 0,0.29854 -0.166362,0.61555 -0.621537,0.61555 m 0,-1.49448 c -0.640387,0 -0.954409,0.40498 -0.954409,0.87893 0,0.47417 0.314022,0.87916 0.954409,0.87916 0.640387,0 0.954409,-0.40499 0.954409,-0.87916 0,-0.47395 -0.314022,-0.87893 -0.954409,-0.87893 m -2.331902,0.35778 h -0.006 v -0.30131 H -70.0863 v 1.64499 h 0.314022 v -0.83495 c 0,-0.358 0.21648,-0.53985 0.52751,-0.53985 0.08475,0 0.14422,0.0126 0.222762,0.0311 v -0.33893 c -0.05984,-0.0156 -0.100609,-0.0189 -0.179003,-0.0189 -0.207278,0 -0.417399,0.0975 -0.565284,0.35778 m -1.698099,-0.57112 h 0.314022 v -0.34537 h -0.314022 z m 0,1.9148 h 0.314022 v -1.64499 h -0.314022 z m -1.710964,-0.34514 -0.564911,-1.29985 h -0.360923 l 0.747055,1.64499 h 0.345365 l 0.740622,-1.64499 h -0.351498 z m -2.420245,-1.35632 c -0.235479,0 -0.496017,0.0753 -0.643453,0.30459 h -0.0062 v -0.24812 h -0.314022 v 1.64499 h 0.314022 v -0.9479 c 0,-0.32345 0.254255,-0.48981 0.539777,-0.48981 0.336089,0 0.486742,0.13824 0.486742,0.37992 v 1.05779 h 0.313947 v -1.12062 c 0,-0.41112 -0.295247,-0.58084 -0.690804,-0.58084" />
      <path
         id="path30"
         style="fill:#707374;fill-opacity:1;fill-rule:nonzero;stroke:none;stroke-width:0.0748028"
         d="m -61.351561,132.0676 c 0.295695,-1.08569 1.23462,-1.8792 2.347162,-1.8792 1.112468,0 2.051467,0.79351 2.347312,1.8792 z m 2.348359,-3.28998 c -2.262411,0 -4.051469,1.80253 -4.051469,4.02567 0,2.22261 1.789283,4.02513 4.051469,4.02513 1.400159,0 2.539181,-0.58084 3.364032,-1.56749 l -1.25953,-0.89741 c -0.573513,0.6656 -1.26701,1.04388 -2.1051,1.04388 -1.16655,0 -2.142502,-0.87191 -2.386359,-2.03875 h 6.314329 c 0.02409,-0.17676 0.04017,-0.3821 0.04017,-0.56536 0,-2.22195 -1.704756,-4.02567 -3.967541,-4.02567 m -6.940278,4.78671 c 0.0045,1.18832 -0.715564,1.8017 -1.818831,1.8017 -1.103042,0 -1.823019,-0.61338 -1.818605,-1.8017 v -4.6834 h -1.646859 v 4.79351 c 0,1.7533 1.268581,3.15398 3.465464,3.15398 2.197333,0 3.465764,-1.40068 3.465764,-3.15398 v -4.79351 h -1.646933 z m 13.673802,1.64761 c -0.284475,0 -0.514868,-0.23047 -0.514868,-0.51472 0,-0.21955 0.136216,-0.41082 0.331825,-0.48113 l 3.856234,-1.41236 c 0.762166,-0.29173 1.303589,-1.02981 1.303589,-1.8949 0,-1.11987 -0.907807,-2.0279 -2.02753,-2.0279 h -4.228677 v 1.51318 h 4.18589 c 0.28425,0 0.514867,0.23062 0.514867,0.51472 0,0.21977 -0.138235,0.40738 -0.3319,0.48136 l -3.856234,1.41235 c -0.762165,0.29165 -1.346301,1.02981 -1.346301,1.89468 0,1.1198 0.95037,2.02768 2.070318,2.02768 h 5.026224 v -1.51296 z m -21.340416,-2.4094 -3.856234,-1.41235 c -0.193665,-0.074 -0.331676,-0.26159 -0.331676,-0.48136 0,-0.2841 0.230243,-0.51472 0.514718,-0.51472 h 4.185815 v -1.51318 h -4.228602 c -1.119947,0 -2.027605,0.90803 -2.027605,2.0279 0,0.86509 0.541199,1.60317 1.303738,1.8949 l 3.856085,1.41236 c 0.195609,0.0703 0.331825,0.26158 0.331825,0.48113 0,0.28425 -0.230393,0.51472 -0.514868,0.51472 h -4.983587 v 1.51296 h 5.026599 c 1.119723,0 2.070167,-0.90788 2.070167,-2.02768 0,-0.86487 -0.58421,-1.60303 -1.346375,-1.89468" />
    </g>
  </g>
</svg>
