<?xml version="1.0" encoding="UTF-8" standalone="no"?>
<svg
   xmlns:dc="http://purl.org/dc/elements/1.1/"
   xmlns:cc="http://creativecommons.org/ns#"
   xmlns:rdf="http://www.w3.org/1999/02/22-rdf-syntax-ns#"
   xmlns:svg="http://www.w3.org/2000/svg"
   xmlns="http://www.w3.org/2000/svg"
   id="svg5782"
   version="1.1"
   viewBox="0 0 25.399999 25.400001"
   height="96"
   width="96">
  <defs
     id="defs5776" />
  <metadata
     id="metadata5779">
    <rdf:RDF>
      <cc:Work
         rdf:about="">
        <dc:format>image/svg+xml</dc:format>
        <dc:type
           rdf:resource="http://purl.org/dc/dcmitype/StillImage" />
        <dc:title></dc:title>
      </cc:Work>
    </rdf:RDF>
  </metadata>
  <g
     transform="translate(0,-271.59998)"
     id="layer1">
    <rect
       y="271.59998"
       x="0.00023219053"
       height="25.4"
       width="25.4"
       id="rect6729"
       style="opacity:1;vector-effect:none;fill:none;fill-opacity:1;stroke:none;stroke-width:0.52916676;stroke-linecap:butt;stroke-linejoin:miter;stroke-miterlimit:4;stroke-dasharray:1.05833345, 2.11666688;stroke-dashoffset:0;stroke-opacity:1;paint-order:stroke markers fill" />
    <g
       style="fill:#707374;fill-opacity:1;stroke:none"
       id="g18"
       transform="matrix(0.17468995,0,0,0.17468995,0.00773752,282.75623)">
      <path
         style="fill:#707374;fill-opacity:1;fill-rule:evenodd;stroke:none"
         id="path4-1"
         transform="translate(-5567,-7828.18)"
         d="m 5664,7842 v 3 a 42.07,42.07 0 0 1 -16.79,0 v -16 h 4 v 13 z" />
      <path
         style="fill:#707374;fill-opacity:1;fill-rule:evenodd;stroke:none"
         id="path6-7"
         transform="translate(-5567,-7828.18)"
         d="m 5567,7829 a 60.27,60.27 0 0 1 19.73,0 v 2.84 h -7.9 V 7845 h -4 v -13.14 H 5567 Z" />
      <path
         style="fill:#707374;fill-opacity:1;fill-rule:evenodd;stroke:none"
         id="path8-7"
         transform="translate(-5567,-7828.18)"
         d="m 5687.9,7842 v 3 a 46.66,46.66 0 0 1 -17.7,0 v -16 a 47.36,47.36 0 0 1 17.47,0 v 2.84 h -13.45 v 3.25 h 7.86 v 3.21 h -7.86 v 3.7 z" />
      <path
         style="fill:#707374;fill-opacity:1;fill-rule:evenodd;stroke:none"
         id="path10-1"
         transform="translate(-5567,-7828.18)"
         d="m 5633.09,7840 a 2.73,2.73 0 0 1 -0.81,2 2.91,2.91 0 0 1 -2,0.81 2.8,2.8 0 0 1 -2,-0.81 2.83,2.83 0 0 1 0,-4 2.6,2.6 0 0 1 2,-0.86 2.77,2.77 0 0 1 2,0.86 2.73,2.73 0 0 1 0.81,2 z" />
      <polygon
         style="fill:#707374;fill-opacity:1;fill-rule:evenodd;stroke:none"
         id="polygon12"
         points="42.75,10.16 42.75,17.43 46.41,16.98 46.41,0.9 42.75,0.41 42.75,6.91 31.33,6.91 31.33,0.45 27.67,0.9 27.67,16.98 31.33,17.43 31.33,10.16 " />
      <polygon
         style="fill:#707374;fill-opacity:1;fill-rule:evenodd;stroke:none"
         id="polygon14"
         points="62.21,5.82 62.26,5.78 63.29,3.88 70.61,17.29 74.58,16.79 72.73,13.59 72.68,13.54 65.28,0.81 61.62,0.81 52.41,16.79 55.98,17.25 " />
      <path
         style="fill:#707374;fill-opacity:1;fill-rule:evenodd;stroke:none"
         id="path16-1"
         transform="translate(-5567,-7828.18)"
         d="m 5697.43,7835.22 v -3.39 h 14.63 V 7829 a 44.16,44.16 0 0 0 -8.62,-0.72 27.81,27.81 0 0 0 -7.4,0.86 2.72,2.72 0 0 0 -1.67,1.13 5.19,5.19 0 0 0 -0.5,2.53 v 1.76 a 3.84,3.84 0 0 0 0.95,3 5.4,5.4 0 0 0 3.34,0.77 h 10.56 v 3.67 h -14.85 v 3 l 9.57,0.77 v 0 a 25.3,25.3 0 0 0 6.77,-0.9 2.31,2.31 0 0 0 1.63,-1.13 5.06,5.06 0 0 0 0.45,-2.48 V 7839 a 4,4 0 0 0 -0.9,-3 5.31,5.31 0 0 0 -3.34,-0.77 h -10.61 z" />
    </g>
  </g>
</svg>
