<?xml version="1.0" encoding="UTF-8" standalone="no"?>
<svg
   xmlns:dc="http://purl.org/dc/elements/1.1/"
   xmlns:cc="http://creativecommons.org/ns#"
   xmlns:rdf="http://www.w3.org/1999/02/22-rdf-syntax-ns#"
   xmlns:svg="http://www.w3.org/2000/svg"
   xmlns="http://www.w3.org/2000/svg"
   id="svg5782"
   version="1.1"
   viewBox="0 0 25.399999 25.400001"
   height="96"
   width="96">
  <defs
     id="defs5776">
    <clipPath
       id="clipPath20-8"
       clipPathUnits="userSpaceOnUse">
      <path
         id="path18-0-9"
         d="m 541.781,371.848 v 0 h 0.043 z" />
    </clipPath>
  </defs>
  <metadata
     id="metadata5779">
    <rdf:RDF>
      <cc:Work
         rdf:about="">
        <dc:format>image/svg+xml</dc:format>
        <dc:type
           rdf:resource="http://purl.org/dc/dcmitype/StillImage" />
        <dc:title></dc:title>
      </cc:Work>
    </rdf:RDF>
  </metadata>
  <g
     transform="translate(0,-271.59998)"
     id="layer1">
    <rect
       y="271.59998"
       x="0"
       height="25.4"
       width="25.4"
       id="rect6729"
       style="opacity:1;vector-effect:none;fill:none;fill-opacity:1;stroke:none;stroke-width:0.52916676;stroke-linecap:butt;stroke-linejoin:miter;stroke-miterlimit:4;stroke-dasharray:1.05833345, 2.11666688;stroke-dashoffset:0;stroke-opacity:1;paint-order:stroke markers fill" />
    <g
       style="fill:#707374;fill-opacity:1;stroke:none"
       transform="matrix(0.13866174,0,0,0.13866174,4.6878026,280.30939)"
       id="g26">
      <path
         id="path4"
         transform="translate(-7862.24,-27.5)"
         d="m 7928.55,83 h -0.91 v -0.61 a 4.27,4.27 0 0 1 -0.88,0.55 2.18,2.18 0 0 1 -0.92,0.19 1.69,1.69 0 0 1 -1.32,-0.52 2.19,2.19 0 0 1 -0.47,-1.52 v -3.48 h 0.95 v 3.06 a 5.64,5.64 0 0 0 0,0.7 1.3,1.3 0 0 0 0.17,0.5 0.77,0.77 0 0 0 0.34,0.31 1.44,1.44 0 0 0 0.6,0.09 1.9,1.9 0 0 0 0.77,-0.18 3.43,3.43 0 0 0 0.78,-0.47 v -4 h 0.91 V 83 Z"
         style="fill:#707374;fill-opacity:1;stroke:none" />
      <path
         id="path6"
         transform="translate(-7862.24,-27.5)"
         d="m 7934.32,81.42 a 1.47,1.47 0 0 1 -0.61,1.2 2.67,2.67 0 0 1 -1.66,0.47 4,4 0 0 1 -1.05,-0.09 5.14,5.14 0 0 1 -0.84,-0.31 v -1 h 0.05 a 3.63,3.63 0 0 0 0.95,0.51 2.89,2.89 0 0 0 1,0.19 1.85,1.85 0 0 0 0.93,-0.2 0.65,0.65 0 0 0 0.33,-0.61 0.62,0.62 0 0 0 -0.18,-0.48 1.63,1.63 0 0 0 -0.7,-0.28 l -0.5,-0.1 -0.56,-0.13 a 1.85,1.85 0 0 1 -1,-0.55 1.35,1.35 0 0 1 -0.29,-0.89 1.46,1.46 0 0 1 0.14,-0.63 1.53,1.53 0 0 1 0.41,-0.52 2,2 0 0 1 0.69,-0.36 3,3 0 0 1 0.93,-0.13 4.34,4.34 0 0 1 1,0.11 3.42,3.42 0 0 1 0.82,0.29 v 1 0 a 3.2,3.2 0 0 0 -0.84,-0.44 2.84,2.84 0 0 0 -1,-0.18 1.73,1.73 0 0 0 -0.83,0.19 0.62,0.62 0 0 0 -0.34,0.57 0.61,0.61 0 0 0 0.21,0.5 1.62,1.62 0 0 0 0.65,0.27 l 0.56,0.12 0.41,0.06 a 1.89,1.89 0 0 1 1,0.49 1.32,1.32 0 0 1 0.32,0.93 z"
         style="fill:#707374;fill-opacity:1;stroke:none" />
      <path
         id="path8"
         transform="translate(-7862.24,-27.5)"
         d="m 7936.34,79.69 a 1.7,1.7 0 0 1 0.48,-1.07 1.53,1.53 0 0 1 1.15,-0.43 1.34,1.34 0 0 1 1.07,0.39 1.61,1.61 0 0 1 0.36,1.11 h -3.05 m 3.94,0.2 a 2.56,2.56 0 0 0 -0.59,-1.8 2.18,2.18 0 0 0 -1.67,-0.63 2.45,2.45 0 0 0 -1.89,0.77 3,3 0 0 0 -0.72,2.09 2.72,2.72 0 0 0 0.75,2.06 2.88,2.88 0 0 0 2.09,0.73 3.82,3.82 0 0 0 1,-0.13 7.84,7.84 0 0 0 0.93,-0.32 v -1 0 a 2.77,2.77 0 0 1 -0.79,0.42 3,3 0 0 1 -1.1,0.22 2.33,2.33 0 0 1 -0.75,-0.12 1.59,1.59 0 0 1 -1,-0.95 2.33,2.33 0 0 1 -0.15,-0.86 h 3.94 v -0.48 z"
         style="fill:#707374;fill-opacity:1;stroke:none" />
      <path
         id="path10"
         transform="translate(-7862.24,-27.5)"
         d="m 7950.82,83 h -0.91 v -0.58 a 3.27,3.27 0 0 1 -0.82,0.53 2.25,2.25 0 0 1 -0.92,0.19 1.83,1.83 0 0 1 -1.53,-0.74 3.32,3.32 0 0 1 -0.56,-2.06 3.56,3.56 0 0 1 0.19,-1.22 2.82,2.82 0 0 1 0.53,-0.91 2.31,2.31 0 0 1 0.77,-0.56 2.26,2.26 0 0 1 0.9,-0.19 3,3 0 0 1 0.75,0.09 3.24,3.24 0 0 1 0.69,0.28 v -2.34 h 0.91 V 83 m -0.91,-1.32 v -3.1 a 3.41,3.41 0 0 0 -0.66,-0.23 3,3 0 0 0 -0.63,-0.06 1.43,1.43 0 0 0 -1.19,0.53 2.37,2.37 0 0 0 -0.43,1.5 2.68,2.68 0 0 0 0.33,1.46 1.16,1.16 0 0 0 1.05,0.5 1.94,1.94 0 0 0 0.78,-0.17 3.3,3.3 0 0 0 0.75,-0.45 z"
         style="fill:#707374;fill-opacity:1;stroke:none" />
      <path
         id="path12"
         transform="translate(-7862.24,-27.5)"
         d="m 7953.32,79.69 a 1.68,1.68 0 0 1 0.48,-1.07 1.52,1.52 0 0 1 1.15,-0.43 1.34,1.34 0 0 1 1.07,0.39 1.63,1.63 0 0 1 0.36,1.11 h -3.05 m 3.94,0.2 a 2.56,2.56 0 0 0 -0.59,-1.8 2.18,2.18 0 0 0 -1.68,-0.63 2.44,2.44 0 0 0 -1.89,0.77 2.93,2.93 0 0 0 -0.72,2.09 2.72,2.72 0 0 0 0.75,2.06 2.88,2.88 0 0 0 2.09,0.73 3.82,3.82 0 0 0 1,-0.13 8,8 0 0 0 0.93,-0.32 v -1 0 a 2.75,2.75 0 0 1 -0.79,0.42 3,3 0 0 1 -1.1,0.22 2.35,2.35 0 0 1 -0.75,-0.12 1.57,1.57 0 0 1 -1,-0.95 2.23,2.23 0 0 1 -0.15,-0.86 h 3.94 v -0.48 z"
         style="fill:#707374;fill-opacity:1;stroke:none" />
      <path
         id="path14"
         transform="translate(-7862.24,-27.5)"
         d="m 7962.28,80.48 a 1.88,1.88 0 0 0 -1,-0.49 l -0.51,-0.11 -0.56,-0.12 a 1.62,1.62 0 0 1 -0.65,-0.27 0.67,0.67 0 0 1 0.13,-1.07 1.71,1.71 0 0 1 0.83,-0.19 2.85,2.85 0 0 1 1,0.18 3.21,3.21 0 0 1 0.84,0.44 v 0 -1 a 3.55,3.55 0 0 0 -0.82,-0.29 4.35,4.35 0 0 0 -1,-0.11 3,3 0 0 0 -0.93,0.13 2,2 0 0 0 -0.69,0.36 1.55,1.55 0 0 0 -0.42,0.52 1.48,1.48 0 0 0 -0.14,0.63 1.34,1.34 0 0 0 0.3,0.89 1.82,1.82 0 0 0 1,0.55 l 0.56,0.13 0.5,0.1 a 1.65,1.65 0 0 1 0.7,0.28 0.61,0.61 0 0 1 0.18,0.48 0.64,0.64 0 0 1 -0.34,0.61 1.82,1.82 0 0 1 -0.93,0.2 2.94,2.94 0 0 1 -1,-0.19 3.62,3.62 0 0 1 -0.95,-0.51 v 0 1 a 4.93,4.93 0 0 0 0.83,0.31 4,4 0 0 0 1.09,0.14 2.68,2.68 0 0 0 1.66,-0.47 1.47,1.47 0 0 0 0.61,-1.2 1.3,1.3 0 0 0 -0.29,-0.93 z"
         style="fill:#707374;fill-opacity:1;stroke:none" />
      <path
         id="path16"
         transform="translate(-7862.24,-27.5)"
         d="m 7965.06,75.78 h -1 v 0.93 h 1 v -0.93 m -0.06,1.83 h -0.91 V 83 h 0.91 z"
         style="fill:#707374;fill-opacity:1;stroke:none" />
      <path
         id="path18"
         transform="translate(-7862.24,-27.5)"
         d="m 7969.68,81.92 a 2.2,2.2 0 0 1 -0.79,0.16 1.18,1.18 0 0 1 -1.06,-0.47 2.44,2.44 0 0 1 -0.32,-1.38 2.19,2.19 0 0 1 0.43,-1.46 1.47,1.47 0 0 1 1.18,-0.5 2.78,2.78 0 0 1 0.62,0.07 3.08,3.08 0 0 1 0.67,0.23 v 2.94 a 2.8,2.8 0 0 1 -0.73,0.41 m 1.64,-4.31 h -0.86 l -0.06,0.22 a 3.51,3.51 0 0 0 -0.67,-0.29 2.9,2.9 0 0 0 -0.78,-0.09 2.32,2.32 0 0 0 -0.89,0.19 2.13,2.13 0 0 0 -0.76,0.53 2.76,2.76 0 0 0 -0.53,0.87 3.31,3.31 0 0 0 -0.19,1.2 3,3 0 0 0 0.57,2 1.86,1.86 0 0 0 1.53,0.7 2.37,2.37 0 0 0 1,-0.16 3.37,3.37 0 0 0 0.79,-0.49 v 0.49 a 2.18,2.18 0 0 1 -0.07,0.59 1.05,1.05 0 0 1 -0.24,0.45 1.07,1.07 0 0 1 -0.47,0.31 2.16,2.16 0 0 1 -0.77,0.12 3.55,3.55 0 0 1 -1,-0.13 c -0.32,-0.09 -0.55,-0.16 -0.7,-0.22 v 0 0.92 a 7.35,7.35 0 0 0 0.8,0.17 5.73,5.73 0 0 0 0.84,0.06 2.58,2.58 0 0 0 1.92,-0.64 2.8,2.8 0 0 0 0.62,-2 v -4.8 z"
         style="fill:#707374;fill-opacity:1;stroke:none" />
      <path
         id="path20"
         transform="translate(-7862.24,-27.5)"
         d="m 7977.75,83 h -0.91 v -3.08 a 5.5,5.5 0 0 0 0,-0.7 1.33,1.33 0 0 0 -0.16,-0.51 0.75,0.75 0 0 0 -0.35,-0.3 1.49,1.49 0 0 0 -0.59,-0.1 1.86,1.86 0 0 0 -0.77,0.18 3.83,3.83 0 0 0 -0.77,0.46 v 4 h -0.91 v -5.34 h 0.91 v 0.59 a 3.71,3.71 0 0 1 0.88,-0.55 2.33,2.33 0 0 1 0.93,-0.19 1.66,1.66 0 0 1 1.33,0.52 2.24,2.24 0 0 1 0.46,1.51 V 83 Z"
         style="fill:#707374;fill-opacity:1;stroke:none" />
      <path
         id="path22"
         transform="translate(-7862.24,-27.5)"
         d="m 7906.56,51.8 c 0,4 -0.73,7.08 -2.16,8.28 -1.43,1.2 -5.5,3.75 -14.78,3.75 -9.28,0 -13.22,-2.43 -14.74,-3.72 -1.52,-1.29 -2.21,-4.27 -2.21,-8.31 v -5.25 h -10.43 v 5.25 c 0,7.38 1.94,12.58 5.92,15.89 4.61,3.91 11.84,5.9 21.45,5.9 9.61,0 16.85,-2 21.49,-5.93 3.95,-3.29 5.88,-8.48 5.88,-15.86 v -5.25 h -10.43 v 5.25 z"
         style="fill:#707374;fill-opacity:1;stroke:none" />
      <path
         id="path24"
         transform="translate(-7862.24,-27.5)"
         d="m 7967.33,27.5 v 22 c -4.37,-2 -10,-3.12 -16.95,-3.12 -9.62,0 -16.85,2 -21.49,5.93 -3.94,3.29 -5.88,8.48 -5.88,15.86 a 32.69,32.69 0 0 0 0.26,3.61 h 10.56 a 19.05,19.05 0 0 1 -0.4,-3.61 c 0,-4 0.73,-6.68 2.17,-7.87 1.44,-1.19 5.5,-3.49 14.78,-3.49 9.28,0 13.22,2.16 14.74,3.46 1.52,1.3 2.21,3.87 2.21,7.91 a 19.46,19.46 0 0 1 -0.39,3.61 h 10.56 a 34.76,34.76 0 0 0 0.26,-3.61 V 27.5 Z"
         style="fill:#707374;fill-opacity:1;stroke:none" />
    </g>
  </g>
</svg>
