<?xml version="1.0" encoding="UTF-8" standalone="no"?>
<svg
   xmlns:dc="http://purl.org/dc/elements/1.1/"
   xmlns:cc="http://creativecommons.org/ns#"
   xmlns:rdf="http://www.w3.org/1999/02/22-rdf-syntax-ns#"
   xmlns:svg="http://www.w3.org/2000/svg"
   xmlns="http://www.w3.org/2000/svg"
   id="svg5782"
   version="1.1"
   viewBox="0 0 25.399999 25.400001"
   height="96"
   width="96">
  <defs
     id="defs5776" />
  <metadata
     id="metadata5779">
    <rdf:RDF>
      <cc:Work
         rdf:about="">
        <dc:format>image/svg+xml</dc:format>
        <dc:type
           rdf:resource="http://purl.org/dc/dcmitype/StillImage" />
        <dc:title></dc:title>
      </cc:Work>
    </rdf:RDF>
  </metadata>
  <g
     transform="translate(0,-271.59998)"
     id="layer1">
    <rect
       y="271.59998"
       x="0"
       height="25.4"
       width="25.4"
       id="rect6729"
       style="opacity:1;vector-effect:none;fill:none;fill-opacity:1;stroke:none;stroke-width:0.52916676;stroke-linecap:butt;stroke-linejoin:miter;stroke-miterlimit:4;stroke-dasharray:1.05833345, 2.11666688;stroke-dashoffset:0;stroke-opacity:1;paint-order:stroke markers fill" />
    <path
       style="fill:#707374;fill-opacity:1;stroke:none;stroke-width:0.04887075"
       d="m 0.23421596,287.33369 -0.142854,-0.14285 1.27e-4,-0.23589 1.22e-4,-0.2359 0.09711,-0.15927 0.09711,-0.15928 0.159277,-0.0971 0.159277,-0.0971 0.163504,-2.5e-4 0.16349905,-2.5e-4 0.14267999,0.1016 c 0.1594,0.11352 0.287817,0.32964 0.287817,0.4844 0,0.0562 -0.0433,0.18699 -0.09622,0.29072 l -0.09622,0.18861 -0.166121,0.10267 -0.16611599,0.10267 h -0.23012805 -0.230128 z m 1.62190104,-0.17775 -0.1487,-0.12512 -0.03064,-0.16335 -0.03064,-0.16335 0.08458,-0.17824 0.08458,-0.17823 0.186809,-0.0953 c 0.225133,-0.11486 0.280987,-0.11706 0.522119,-0.0206 l 0.18678,0.0747 0.083,0.14051 0.083,0.1405 v 0.1447 0.1447 l -0.102058,0.12975 c -0.05613,0.0714 -0.1649961,0.16229 -0.2419281,0.20207 l -0.13987,0.0723 H 2.198989 2.004833 Z m 1.6806309,-0.0785 c -0.05375,-0.0297 -0.1472218,-0.0989 -0.2076979,-0.15364 l -0.1099608,-0.0996 0.0014,-0.19918 0.0014,-0.19918 0.09254,-0.11096 c 0.0509,-0.061 0.1747959,-0.14533 0.2753288,-0.18733 l 0.182784,-0.0764 0.2124332,0.0595 0.2124429,0.0595 0.145928,0.16621 0.1459331,0.1662 v 0.10073 c 0,0.0554 -0.03624,0.16206 -0.08053,0.23704 l -0.08053,0.13633 -0.165481,0.0789 -0.1654809,0.0789 -0.181602,-10e-4 c -0.09989,-9.5e-4 -0.2255949,-0.0258 -0.279354,-0.0555 z m 1.6498052,-0.17047 c -0.06025,-0.0129 -0.175709,-0.0897 -0.256571,-0.17057 l -0.14703,-0.14704 v -0.0972 c 0,-0.15278 0.08755,-0.27847 0.2538978,-0.36449 l 0.153257,-0.0793 0.2398991,0.0231 0.239899,0.0231 0.1307571,0.0971 c 0.07191,0.0534 0.1563589,0.1476 0.187656,0.20937 l 0.0569,0.11231 -0.03751,0.10138 c -0.020619,0.0558 -0.09022,0.14043 -0.1546411,0.18814 l -0.1171339,0.0868 -0.219923,0.0205 c -0.1209522,0.0113 -0.2692101,0.01 -0.32946,-0.003 z m 1.502361,-0.38788 c -0.09408,-0.0407 -0.2452179,-0.14428 -0.335866,-0.23022 l -0.164813,-0.15625 -0.1157131,-0.24435 -0.1157179,-0.24436 -4.763e-4,-0.96717 -4.762e-4,-0.96717 0.4031771,0.0142 0.4031861,0.0142 0.013269,0.90879 0.013269,0.9088 0.122464,0.11505 0.1224632,0.11505 H 7.2044749 7.375274 l 0.1088739,-0.10876 0.1088689,-0.10876 0.0152,-0.9273 0.0152,-0.92731 h 0.3870754 0.3870735 l 0.03135,0.12496 c 0.01723,0.0687 0.0217,0.51407 0.0099,0.98963 l -0.02151,0.86468 -0.08894,0.17105 c -0.04892,0.0941 -0.1498579,0.24859 -0.2243051,0.34337 l -0.135355,0.17233 -0.2176158,0.10868 -0.2176121,0.10868 -0.3367421,-0.002 -0.3367419,-0.002 -0.171039,-0.074 z m 17.2332379,-0.004 -0.238059,-0.0825 -0.25643,-0.23436 -0.256426,-0.23436 -0.109796,-0.25522 -0.109797,-0.25522 0.02377,-0.3933 0.02377,-0.3933 0.07763,-0.14777 c 0.04269,-0.0813 0.156062,-0.23939 0.251921,-0.35138 l 0.174269,-0.2036 0.279716,-0.13284 0.279721,-0.13284 0.344875,-3.8e-4 0.34489,-3.7e-4 0.265995,0.14384 0.265995,0.14385 -0.0054,0.0759 c -0.0028,0.0417 -0.08607,0.20202 -0.184657,0.35614 l -0.179263,0.28022 -0.163198,-0.10088 -0.163213,-0.10086 -0.189712,2.5e-4 -0.189713,2.5e-4 -0.161776,0.0986 -0.161767,0.0986 -0.0754,0.18045 -0.0754,0.18045 0.02645,0.1972 0.02645,0.1972 0.179338,0.16435 0.179338,0.16435 0.28191,-0.0204 0.281895,-0.0204 0.0833,-0.0833 0.08329,-0.0833 0.04208,0.026 c 0.05684,0.0351 0.389889,0.58652 0.389889,0.6455 0,0.0258 -0.109759,0.10666 -0.2439,0.17967 l -0.243914,0.13275 -0.330317,0.0218 -0.330331,0.0218 -0.238059,-0.0825 z M 8.7903547,285.5767 v -0.97145 l 0.07811,-0.18924 c 0.04297,-0.10407 0.132202,-0.26091 0.198313,-0.34851 l 0.120203,-0.15928 0.195992,-0.1 0.195992,-0.1 0.2363256,-0.028 0.2363227,-0.028 0.221517,0.0332 0.221514,0.0332 0.184403,0.12514 0.184403,0.12514 0.07526,-0.0556 c 0.04138,-0.0306 0.172316,-0.10164 0.290942,-0.15792 l 0.215677,-0.10234 0.370769,0.0217 0.370769,0.0216 0.207204,0.13108 0.207209,0.13107 0.118787,0.18296 c 0.06533,0.10063 0.143673,0.27093 0.17409,0.37845 l 0.0553,0.19548 -0.01478,0.90411 -0.01478,0.90411 -0.403186,0.0142 -0.403182,0.0142 v -0.89894 -0.89896 l -0.119842,-0.12931 -0.119846,-0.12931 h -0.167966 -0.167966 l -0.115374,0.0933 -0.115375,0.0933 -0.02443,0.92076 -0.02443,0.92076 h -0.390959 -0.390967 l -0.02443,-0.92075 -0.02443,-0.92075 -0.115374,-0.0933 -0.115375,-0.0933 H 10.028916 9.8610593 l -0.1199556,0.11996 -0.1199531,0.11995 v 0.90633 0.90633 h -0.415402 -0.4154 z m 4.5449793,0.0225 v -0.94893 l 0.09188,-0.21435 0.09188,-0.21435 0.163663,-0.16367 0.163669,-0.16367 0.245378,-0.11426 0.245374,-0.11427 h 0.268791 0.268791 l 0.245378,0.11427 0.245383,0.11426 0.163659,0.16367 0.163669,0.16367 0.09189,0.21435 0.09187,0.21435 v 0.94893 0.94892 h -0.390958 -0.390972 v -0.26878 -0.2688 h -0.488708 -0.488709 v 0.2688 0.26878 h -0.390961 -0.390967 z m 1.759346,-0.58974 v -0.21914 l -0.137643,-0.15405 -0.137639,-0.15405 h -0.213426 -0.213427 l -0.137639,0.15405 -0.137643,0.15405 v 0.21914 0.21915 h 0.488709 0.488708 z m 1.318938,0.57346 v -0.96519 l -0.09658,-0.39097 c -0.05313,-0.21503 -0.09686,-0.41934 -0.09717,-0.45403 v -0.0631 l 0.40264,0.0142 0.402636,0.0142 0.01563,0.0977 c 0.0086,0.0538 0.02532,0.12696 0.03714,0.16268 l 0.02151,0.065 0.19771,-0.16923 0.197706,-0.16923 0.150559,-0.0301 c 0.08279,-0.0166 0.230273,-0.0296 0.327704,-0.0291 l 0.177159,9.4e-4 0.201156,0.0914 0.20116,0.0913 0.123918,0.16415 c 0.06815,0.0903 0.15906,0.2493 0.202026,0.35338 l 0.07811,0.18924 v 0.99794 0.99793 l -0.378752,-0.0143 -0.378752,-0.0143 -0.02443,-0.88811 -0.02443,-0.88812 -0.118476,-0.12595 -0.118472,-0.12596 h -0.208682 -0.208682 l -0.137107,0.11785 -0.13713,0.11784 -0.01525,0.90844 -0.01525,0.90844 h -0.387937 -0.387954 v -0.96519 z m 3.470394,-0.0344 v -0.99962 l -0.329869,-0.0144 -0.329884,-0.0145 v -0.39096 -0.39097 l 1.111813,-0.0131 1.111809,-0.0131 v 0.16956 c 0,0.0933 -0.02382,0.28061 -0.05293,0.41632 l -0.05292,0.24676 h -0.313602 -0.313621 v 1.00185 1.00185 H 20.299416 19.88401 Z m 1.857089,-0.41764 v -1.4212 l 0.403187,0.0142 0.403186,0.0142 v 1.39281 1.39282 l -0.403186,0.0142 -0.403187,0.0142 z m -19.6704741,0.62441 c -0.210899,-0.0735 -0.273239,-0.13435 -0.376761,-0.36784 l -0.09208,-0.2077 0.09575,-0.21645 0.09575,-0.21645 0.148464,-0.0768 c 0.193723,-0.10018 0.264315,-0.0969 0.499281,0.0229 l 0.195455,0.0997 0.09564,0.15686 0.09564,0.15686 1.281e-4,0.13907 1.219e-4,0.13906 -0.1034839,0.14534 c -0.09764,0.13712 -0.179885,0.18728 -0.409659,0.24985 l -0.09774,0.0266 z m -1.66028694,-0.14904 -0.172368,-0.17237 3.77e-4,-0.23702 3.72e-4,-0.23703 0.08913,-0.13515 c 0.04901,-0.0743 0.13134,-0.16711 0.182939,-0.20615 l 0.09382,-0.071 0.179517,-10e-4 0.17951195,-0.001 0.14709999,0.12378 0.1471,0.12378 0.05799,0.17571 0.05799,0.17572 -0.05391,0.17992 -0.05391,0.17993 -0.119959,0.11269 -0.119954,0.11269 -0.22164094,0.025 -0.22164,0.025 z m 4.54182604,0.11009 -0.1484461,-0.0453 -0.1423368,-0.14856 -0.142331,-0.14856 v -0.16411 -0.16411 l 0.08258,-0.0826 0.08258,-0.0826 0.172,-0.0279 0.1719951,-0.0279 0.2121051,0.081 c 0.2440828,0.0932 0.4013599,0.2432 0.4466978,0.42598 l 0.03163,0.12751 -0.113534,0.12818 -0.113529,0.12819 -0.1954843,0.023 -0.1954829,0.023 z M 3.28751,285.55117 3.1213469,285.38501 v -0.19185 -0.19185 l 0.1249339,-0.11737 0.1249302,-0.11737 0.1805098,9.5e-4 0.1805112,9.5e-4 0.1422181,0.071 c 0.1644028,0.0821 0.3046259,0.26042 0.3476389,0.44205 l 0.02998,0.12666 -0.1298771,0.15435 -0.129876,0.15435 H 3.7229831 3.453651 L 3.2874922,285.5507 Z m 1.3689309,-1.09915 c -0.08302,-0.0506 -0.1984769,-0.15247 -0.2565709,-0.22633 l -0.105627,-0.13428 v -0.13653 -0.13653 l 0.0768,-0.0768 0.07679,-0.0768 h 0.1235179 c 0.1841162,0 0.4366911,0.1362 0.602266,0.32479 l 0.146907,0.16732 v 0.1177 0.11771 l -0.1086149,0.0761 -0.1086151,0.0761 -0.1479558,-2.5e-4 -0.1479521,-2.5e-4 -0.1509501,-0.092 z m -1.290742,-0.0887 c -0.1329169,-0.0486 -0.2794381,-0.21219 -0.370105,-0.41326 l -0.08931,-0.19805 0.09622,-0.17802 0.09622,-0.17801 0.254575,0.002 0.254576,0.002 0.1537229,0.14458 c 0.1549561,0.14575 0.2882971,0.39375 0.2882971,0.5362 0,0.0424 -0.05398,0.13108 -0.1199541,0.19706 l -0.119955,0.11995 -0.1854859,-0.004 c -0.1020201,-0.002 -0.218477,-0.0159 -0.2587971,-0.0306 z m -1.316033,-0.19652 c -0.09216,-0.0476 -0.210386,-0.14507 -0.262719,-0.21649 l -0.09514,-0.12984 -0.0051,-0.19445 -0.0051,-0.19446 0.06665,-0.12453 0.06665,-0.12453 0.138863,-0.0575 0.138858,-0.0575 0.184483,0.0952 0.184488,0.0952 0.109956,0.16181 0.109961,0.1618 v 0.18553 0.18553 l -0.109961,0.12307 -0.109956,0.12306 -0.122176,0.0274 -0.122181,0.0274 z m -1.36714194,-0.1216 c -0.06461,-0.0345 -0.163569,-0.12487 -0.219922,-0.20076 l -0.102454,-0.13798 v -0.28606 -0.28605 l 0.102736,-0.13798 0.102736,-0.13798 0.129402,-0.0461 0.12940095,-0.0461 0.129321,0.0461 0.12932099,0.0461 0.151685,0.1878 0.151689,0.18781 v 0.28757 0.28758 l -0.124807,0.1248 -0.124803,0.1248 -0.16842199,0.0246 -0.16841795,0.0246 z M 4.489732,283.33714 c -0.215959,-0.0786 -0.488709,-0.44929 -0.488709,-0.66423 v -0.11703 l 0.09649,-0.0873 0.0965,-0.0873 0.1574218,0.0652 c 0.2229681,0.0923 0.4700032,0.32218 0.5817442,0.54121 l 0.0956,0.18738 -0.06136,0.0982 -0.06136,0.0983 -0.1715109,-0.004 c -0.09433,-0.002 -0.2044969,-0.0159 -0.2448131,-0.0306 z m 17.41332,-0.0609 c -0.197706,-0.12054 -0.259693,-0.2379 -0.259693,-0.49168 v -0.20246 l 0.14036,-0.14035 0.140345,-0.14035 0.128436,-0.0322 0.128441,-0.0323 0.119856,0.0301 c 0.06592,0.0165 0.177234,0.0795 0.247374,0.13977 l 0.127518,0.10969 0.02678,0.19967 0.02678,0.19967 -0.08193,0.15842 -0.08192,0.15841 -0.166225,0.0695 c -0.220558,0.0922 -0.310255,0.0875 -0.496131,-0.0258 z M 3.090483,282.81595 2.876995,282.60246 v -0.24906 -0.24907 l 0.1006081,-0.0538 0.1006088,-0.0538 0.1363441,0.0299 0.136349,0.0299 0.148145,0.15657 c 0.195535,0.20665 0.257616,0.33548 0.257616,0.53456 v 0.16448 l -0.05864,0.0586 -0.05864,0.0587 H 3.4716832 3.303981 Z m -1.1926001,-0.26542 -0.185679,-0.18568 -0.0353,-0.18821 -0.0353,-0.18822 0.04349,-0.17429 0.04349,-0.1743 0.131101,-0.0733 0.1311,-0.0733 0.17256,0.0823 0.172565,0.0823 0.132678,0.20048 0.132673,0.20049 0.0033,0.24525 0.0033,0.24525 -0.115375,0.0935 -0.115369,0.0935 h -0.146949 -0.146949 z m -1.05153499,-0.23223 -0.14911895,-0.0736 -0.09116,-0.15432 -0.09116,-0.15432 v -0.28451 -0.28451 l 0.114405,-0.12178 0.114405,-0.12178 h 0.12721695 0.127222 l 0.10926899,0.0765 c 0.0601,0.0421 0.15296,0.16217 0.206357,0.26684 l 0.09709,0.1903 v 0.22563 0.22562 l -0.142854,0.14285 c -0.162195,0.1622 -0.212613,0.17022 -0.42167099,0.067 z"
       id="path6248" />
  </g>
</svg>
