<?xml version="1.0" encoding="UTF-8" standalone="no"?>
<svg
   xmlns:dc="http://purl.org/dc/elements/1.1/"
   xmlns:cc="http://creativecommons.org/ns#"
   xmlns:rdf="http://www.w3.org/1999/02/22-rdf-syntax-ns#"
   xmlns:svg="http://www.w3.org/2000/svg"
   xmlns="http://www.w3.org/2000/svg"
   xmlns:sodipodi="http://sodipodi.sourceforge.net/DTD/sodipodi-0.dtd"
   xmlns:inkscape="http://www.inkscape.org/namespaces/inkscape"
   id="svg5782"
   version="1.1"
   viewBox="0 0 25.399999 25.400001"
   height="96"
   width="96"
   sodipodi:docname="1_uvasc.svg"
   inkscape:version="1.0.1 (1.0.1+r73)">
  <style
     id="style835"></style>
  <sodipodi:namedview
     pagecolor="#ffffff"
     bordercolor="#666666"
     borderopacity="1"
     objecttolerance="10"
     gridtolerance="10"
     guidetolerance="10"
     inkscape:pageopacity="0"
     inkscape:pageshadow="2"
     inkscape:window-width="2560"
     inkscape:window-height="1386"
     id="namedview10"
     showgrid="false"
     inkscape:zoom="6.0062852"
     inkscape:cx="3.855381"
     inkscape:cy="60.499478"
     inkscape:window-x="1920"
     inkscape:window-y="0"
     inkscape:window-maximized="1"
     inkscape:current-layer="svg5782" />
  <defs
     id="defs5776">
    <clipPath
       id="clipPath20-8"
       clipPathUnits="userSpaceOnUse">
      <path
         id="path18-0-9"
         d="m 541.781,371.848 v 0 h 0.043 z" />
    </clipPath>
  </defs>
  <metadata
     id="metadata5779">
    <rdf:RDF>
      <cc:Work
         rdf:about="">
        <dc:format>image/svg+xml</dc:format>
        <dc:type
           rdf:resource="http://purl.org/dc/dcmitype/StillImage" />
        <dc:title />
      </cc:Work>
    </rdf:RDF>
  </metadata>
  <rect
     y="-4.4140625e-06"
     x="-2.220446e-16"
     height="25.4"
     width="25.4"
     id="rect6729"
     style="vector-effect:none;fill:none;fill-opacity:1;stroke:none;stroke-width:0.529167;stroke-linecap:butt;stroke-linejoin:miter;stroke-miterlimit:4;stroke-dasharray:1.05833, 2.11667;stroke-dashoffset:0;stroke-opacity:1;paint-order:stroke markers fill" />
  <g
     id="docs"
     stroke="none"
     stroke-width="1.28384"
     fill="none"
     fill-rule="evenodd"
     transform="matrix(0.20608801,0,0,0.20608801,1.7774376,9.7117193)">
    <g
       id="icones"
       transform="translate(-417,-776)"
       fill="#ffffff"
       fill-rule="nonzero"
       style="stroke-width:1.64824">
      <g
         id="uvasc-logo-small"
         transform="translate(417,776)"
         style="stroke-width:1.28384">
        <g
           id="uvasc-form"
           style="stroke-width:1.28384">
          <path
             d="M 1.7837418,0 0.14534884,0.01351938 0.16687091,2.6073536 1.8003491,2.5932368 1.7892734,2.5938656 c 1.7031166,0 3.0612852,0.4891531 3.9853657,1.3251632 0.9240772,0.83601 1.4958155,2.0386468 1.4958155,3.8256602 v 7.645793 l 6.293e-4,-0.02578 c 0,0 -0.046628,1.330646 0.5408051,2.729544 0.5874361,1.398897 2.1136501,2.996664 4.542762,2.996664 2.429115,0 3.955329,-1.597767 4.542762,-2.996664 0.587436,-1.398901 0.540805,-2.729544 0.540805,-2.729544 l 6.3e-4,0.02578 V 7.744689 c 0,-1.7870134 0.571738,-2.9896502 1.495815,-3.8256602 0.924081,-0.8360101 2.282249,-1.3251632 3.985366,-1.3251632 l -0.01108,-6.288e-4 1.633478,0.014117 0.02152,-2.59383422 L 22.92556,0 h -0.0055 C 20.712194,0 18.680136,0.65042986 17.192441,1.9963437 15.70475,3.3422544 14.843014,5.3632222 14.843014,7.7446575 v 7.6586865 0.01289 c 0,0 -0.0019,0.870896 -0.339233,1.673957 -0.337227,0.80306 -0.704455,1.406836 -2.149086,1.406836 -1.444626,0 -1.811857,-0.603776 -2.149083,-1.406836 -0.3372637,-0.80306 -0.3392712,-1.673956 -0.3392712,-1.673956 v -0.01289 -7.6586865 c 0,-2.3814353 -0.8617357,-4.4024031 -2.3494301,-5.7483138 C 6.0292194,0.65042986 3.9971612,0 1.7892954,0 Z"
             id="path4988"
             style="stroke-width:1.28384" />
          <path
             d="M 0.15109072,8.4949495 V 15.519923 C 0.14102829,15.754019 0.03386815,18.895656 1.4276152,22.130024 2.8758473,25.490814 6.2418646,29 12.499999,29 c 6.25813,0 9.624152,-3.509186 11.072384,-6.869976 1.393747,-3.234368 1.286592,-6.376005 1.276525,-6.610101 V 8.4949495 c -0.02511,0.00375 -0.04955,0.00929 -0.07591,0.00929 -1.38935,0 -2.516984,1.1078092 -2.546997,2.4850525 v 4.575652 l 0.0014,0.0297 c 0,0 0.106328,2.785349 -1.065089,5.503779 -1.171422,2.71842 -3.324127,5.287986 -8.662307,5.287986 -5.338183,0 -7.4908832,-2.569566 -8.6623077,-5.287986 -1.1714174,-2.71843 -1.0646245,-5.503779 -1.0646245,-5.503779 l 9.538e-4,-0.0297 V 11.026417 C 2.7639206,9.631848 1.6271161,8.5042397 0.22519267,8.5042397 c -0.02554,0 -0.0494848,-0.0057 -0.0740471,-0.00929 z"
             id="path5010"
             style="stroke-width:1.28384" />
        </g>
        <g
           id="Group"
           transform="translate(34,9)"
           style="stroke-width:1.28384">
          <path
             d="M 4.0653812,11 C 6.2492735,11 7.9844209,9.4832869 7.9844209,7.1699164 V 0 h -2.064227 v 7.0933148 c 0,1.2562674 -0.7329502,2.0069638 -1.8548127,2.0069638 -1.1218625,0 -1.8398545,-0.7506964 -1.8398545,-2.0069638 V 0 H 0.14634146 V 7.1699164 C 0.14634146,9.4832869 1.8814888,11 4.0653812,11 Z M 14.828231,11 18.435193,0.23913044 H 16.219051 L 14.033477,7.2518319 11.847902,0.23913044 H 9.6470438 L 13.238722,11 Z m 5.563078,0 0.650526,-1.9043112 h 3.827512 L 25.504745,11 h 2.193633 L 23.764966,0.23913044 H 22.115959 L 18.197676,11 Z M 24.373132,7.173913 H 21.760439 L 23.088927,3.3478261 Z M 32.537572,11 c 2.228767,0 3.948956,-1.1850829 3.948956,-3.281768 0,-0.9571823 -0.254289,-1.7472375 -0.822699,-2.2941989 -0.448745,-0.4254143 -1.06203,-0.698895 -2.034311,-0.8356353 L 32.373032,4.4060774 C 31.939245,4.3453039 31.595207,4.1781768 31.385793,3.980663 31.16142,3.7679558 31.071671,3.4792818 31.071671,3.2058011 c 0,-0.7444751 0.538494,-1.3674033 1.645399,-1.3674033 0.703034,0 1.510775,0.09116 2.183892,0.7444751 L 36.217281,1.2610497 C 35.304833,0.36464088 34.242803,0 32.776902,0 c -2.303557,0 -3.709625,1.3522099 -3.709625,3.281768 0,0.9116022 0.254289,1.6104972 0.762867,2.1270718 0.478661,0.4709944 1.151778,0.7596685 2.064227,0.8964088 l 1.286402,0.1823205 c 0.49362,0.075967 0.73295,0.1823204 0.942364,0.3798342 0.224373,0.2127072 0.32908,0.531768 0.32908,0.9116022 0,0.8660221 -0.658159,1.3370166 -1.884729,1.3370166 -0.987239,0 -1.899687,-0.2279006 -2.572805,-0.9116022 L 28.648448,9.5718232 C 29.69552,10.650553 30.92209,11 32.537572,11 Z m 10.009806,0 c 1.362618,0 2.201152,-0.486188 2.964817,-1.2458563 L 44.134603,8.3563536 c -0.464188,0.4709945 -0.838534,0.7596685 -1.587225,0.7596685 -0.569005,0 -1.01822,-0.2127072 -1.317696,-0.5621547 C 40.825389,8.0980663 40.705598,7.5814917 40.705598,5.5 c 0,-2.0814917 0.119791,-2.5980663 0.524084,-3.0538674 0.299476,-0.3494475 0.748691,-0.5621547 1.317696,-0.5621547 0.748691,0 1.123037,0.288674 1.587225,0.7596685 L 45.512195,1.2458563 C 44.74853,0.48618785 43.909996,0 42.547378,0 41.37942,0 40.421095,0.42541437 39.672404,1.1850829 38.669506,2.2026853 38.625451,3.4437922 38.624186,5.1163146 v 0.7673708 c 0.0013,1.6725224 0.04532,2.9136293 1.048218,3.9312317 C 40.421095,10.574586 41.37942,11 42.547378,11 Z"
             id="UVASC"
             style="stroke-width:1.28384" />
          <path
             d="M 53.651032,11 V 10.258427 H 48.066135 V 0 h -0.797842 v 11 z m 1.572128,0 0.922447,-2.6727528 h 4.939556 L 62.00761,11 h 0.862934 L 58.972461,0 H 58.258308 L 54.360225,11 Z M 60.979362,7.6521739 H 56.487805 L 58.733584,1.1956522 Z M 68.759266,11 c 1.865519,0 3.094392,-1.0351124 3.094392,-2.997191 0,-1.2668539 -0.666256,-2.255618 -1.806295,-2.6573034 C 71.068956,4.9901685 71.690796,4.0168539 71.690796,2.8735955 71.690796,1.0505618 70.387894,0 68.640821,0 H 64.761726 V 11 Z M 68.521764,5.0217391 H 65.470919 V 0.7173913 h 3.050845 c 1.298874,0 2.386304,0.6238185 2.386304,2.1521739 0,1.5283554 -1.08743,2.1521739 -2.386304,2.1521739 z M 68.68236,10.282609 H 65.470919 V 5.7391304 h 3.211441 c 1.48338,0 2.462105,0.8557922 2.462105,2.2717392 0,1.415947 -0.978725,2.2717394 -2.462105,2.2717394 z"
             id="LAB"
             style="stroke-width:1.28384" />
        </g>
      </g>
    </g>
  </g>
</svg>
