<?xml version="1.0" encoding="UTF-8" standalone="no"?>
<svg
   xmlns:dc="http://purl.org/dc/elements/1.1/"
   xmlns:cc="http://creativecommons.org/ns#"
   xmlns:rdf="http://www.w3.org/1999/02/22-rdf-syntax-ns#"
   xmlns:svg="http://www.w3.org/2000/svg"
   xmlns="http://www.w3.org/2000/svg"
   id="svg5782"
   version="1.1"
   viewBox="0 0 25.399999 25.400001"
   height="96"
   width="96">
  <defs
     id="defs5776">
    <clipPath
       id="clipPath20-8"
       clipPathUnits="userSpaceOnUse">
      <path
         id="path18-0-9"
         d="m 541.781,371.848 v 0 h 0.043 z" />
    </clipPath>
  </defs>
  <metadata
     id="metadata5779">
    <rdf:RDF>
      <cc:Work
         rdf:about="">
        <dc:format>image/svg+xml</dc:format>
        <dc:type
           rdf:resource="http://purl.org/dc/dcmitype/StillImage" />
        <dc:title></dc:title>
      </cc:Work>
    </rdf:RDF>
  </metadata>
  <g
     transform="translate(0,-271.59998)"
     id="layer1">
    <rect
       y="271.59998"
       x="0"
       height="25.4"
       width="25.4"
       id="rect6729"
       style="opacity:1;vector-effect:none;fill:none;fill-opacity:1;stroke:none;stroke-width:0.52916676;stroke-linecap:butt;stroke-linejoin:miter;stroke-miterlimit:4;stroke-dasharray:1.05833345, 2.11666688;stroke-dashoffset:0;stroke-opacity:1;paint-order:stroke markers fill" />
    <path
       id="path6678"
       d="m 11.719817,289.96074 c 0.02807,-0.1496 0.08097,-0.27199 0.117643,-0.27199 0.03662,0 0.05135,-0.0437 0.03271,-0.0971 -0.01863,-0.0535 0.06111,-0.4818 0.17729,-0.95195 l 0.211208,-0.85481 0.485692,-0.0231 c 0.422025,-0.0201 0.485692,-0.043 0.485692,-0.17485 v -0.15171 h -1.156589 -1.156592 l -0.04061,0.15542 -0.04061,0.15542 h 0.467301 c 0.341757,0 0.457365,0.0261 0.430325,0.0971 -0.02034,0.0535 -0.132413,0.50803 -0.249047,1.01023 -0.116634,0.5022 -0.234871,0.91318 -0.26275,0.91328 -0.02783,7e-5 -0.05444,0.105 -0.059,0.23313 l -0.0083,0.23295 h 0.257315 0.257306 z m 3.472854,0.0936 c 0.0769,-0.0886 0.160096,-0.24214 0.18494,-0.3411 0.02482,-0.099 0.07307,-0.17995 0.10717,-0.17995 0.0341,0 0.0437,-0.07 0.0214,-0.15542 -0.0236,-0.0903 -0.0024,-0.15542 0.0507,-0.15542 0.05021,0 0.07071,-0.0335 0.04541,-0.0744 -0.02531,-0.0409 0.02515,-0.3527 0.11198,-0.69291 0.189643,-0.74275 0.189692,-0.74407 0.0358,-0.89795 -0.098,-0.098 -0.314081,-0.12212 -1.093927,-0.12212 h -0.971806 l -0.212852,0.21371 c -0.146402,0.14698 -0.244896,0.36532 -0.315481,0.69939 -0.05647,0.26712 -0.134878,0.48569 -0.174304,0.48569 -0.03947,0 -0.05184,0.0321 -0.02767,0.0713 0.02425,0.0392 -0.0049,0.28147 -0.06494,0.53838 -0.09514,0.40786 -0.09433,0.48802 0.0065,0.63187 l 0.115389,0.16475 1.020974,-0.0124 1.020966,-0.0124 0.139777,-0.16116 z m -1.884927,-0.21362 c 0,-0.19226 0.257526,-1.08449 0.313015,-1.08449 0.03353,0 0.04272,-0.0699 0.02034,-0.15543 -0.02238,-0.0855 -0.01033,-0.15549 0.02669,-0.15559 0.03703,-8e-5 0.07088,-0.10117 0.07519,-0.22461 0.01611,-0.46117 0.04004,-0.4746 0.84453,-0.4746 0.613125,0 0.740679,0.0205 0.740679,0.11893 0,0.226 -0.407922,1.74611 -0.468571,1.74611 -0.03345,0 -0.04256,0.0699 -0.02018,0.15542 l 0.04061,0.15542 H 14.09388 c -0.494619,0 -0.786167,-0.0301 -0.786167,-0.0811 z m -8.7970337,-0.11311 0.02311,-0.23313 -0.547618,0.0258 c -0.30391,0.0143 -0.547619,-0.007 -0.547619,-0.0464 0,-0.0397 0.0699,-0.15284 0.155418,-0.2514 0.08548,-0.0986 0.155425,-0.21088 0.155425,-0.24961 0,-0.0387 0.0358,-0.0482 0.07967,-0.0212 0.04378,0.0271 0.07006,0.0149 0.05826,-0.027 -0.01172,-0.0419 0.109782,-0.25346 0.270066,-0.47002 0.160275,-0.21656 0.29141,-0.41215 0.29141,-0.43462 0,-0.0225 -0.472094,-0.0408 -1.049088,-0.0408 h -1.049089 v 0.19135 0.19134 l 0.521082,-0.0487 0.521074,-0.0487 -0.304089,0.42071 c -0.167257,0.23138 -0.419225,0.57435 -0.559938,0.76215 -0.416036,0.55524 -0.40929,0.55947 0.851536,0.53493 l 1.107369,-0.0216 z m 2.322559,0.18772 c 0.04638,-0.0464 0.06673,-0.15125 0.04533,-0.23313 l -0.0389,-0.14887 h -0.729181 -0.729189 v -0.19427 -0.19428 h 0.738246 0.738254 v -0.43458 c 0,-0.29819 -0.04264,-0.48719 -0.135993,-0.60225 l -0.135993,-0.16768 -0.880766,0.0389 c -1.076691,0.0475 -1.100851,0.0681 -1.100851,0.94141 0,0.53305 0.0227,0.62785 0.201191,0.83996 l 0.201182,0.23909 h 0.871212 c 0.522368,0 0.904958,-0.0338 0.955484,-0.0843 z m -1.451966,-1.35337 v -0.19429 h 0.380337 0.380328 l -0.01123,0.19423 -0.01123,0.19422 -0.369123,5e-5 -0.369123,6e-5 z m 2.493235,0.64111 -0.01562,-0.75768 h 0.431961 0.43196 v -0.22594 -0.22594 l -0.427508,-0.0266 c -0.235132,-0.0146 -0.427444,-0.009 -0.427363,0.0122 8.9e-5,0.0214 -0.173271,0.0269 -0.385243,0.0121 l -0.385398,-0.0267 0.0033,1.02134 0.0033,1.02134 0.392868,-0.0233 0.392876,-0.0233 z m 2.8344207,0.73705 c 0.249527,-0.17328 0.345191,-0.45899 0.345191,-1.03091 0,-0.86041 -0.02637,-0.88268 -1.1008417,-0.93008 l -0.880766,-0.0389 -0.135993,0.16768 c -0.10551,0.13009 -0.135993,0.31457 -0.135993,0.82307 0,0.56807 0.02327,0.68229 0.174849,0.85722 l 0.17485,0.20181 0.738246,0.003 c 0.4060347,0.002 0.7752387,-0.0221 0.8204577,-0.0536 z m -1.1572017,-0.4586 c -0.02848,-0.0285 -0.05184,-0.29076 -0.05184,-0.58282 v -0.53103 h 0.388555 0.3885467 v 0.58283 0.58283 H 9.9402763 c -0.185209,0 -0.360058,-0.0233 -0.388547,-0.0518 z m 8.4155737,0.348 c 0.134862,-0.14476 0.158445,-0.27309 0.158445,-0.86199 0,-0.54327 -0.02921,-0.72792 -0.135993,-0.85958 l -0.135994,-0.16768 -0.870707,0.0389 c -0.564341,0.0251 -0.906122,0.0744 -0.971376,0.13984 -0.06103,0.0613 -0.111296,0.35569 -0.127677,0.74817 l -0.02702,0.64719 0.22129,0.24116 0.221282,0.24116 0.754651,0.002 0.754651,0.002 0.158444,-0.17007 z m -1.318048,-0.87902 v -0.58283 h 0.388556 0.388547 v 0.58283 0.58283 h -0.388547 -0.388556 z m 2.486725,0.23313 v -0.81596 l 0.369131,-3e-5 0.369123,-3e-5 -0.0144,0.81988 -0.0144,0.81987 0.393869,-0.0233 0.393877,-0.0233 -0.01489,-0.84833 c -0.01204,-0.68532 -0.04191,-0.88267 -0.155458,-1.02703 -0.07731,-0.0983 -0.157387,-0.16187 -0.177942,-0.14131 -0.02059,0.0206 -0.46233,0.0389 -0.981694,0.0407 l -0.944311,0.003 v 1.00574 1.00573 h 0.388547 0.388555 z m 3.886579,0.75768 c 6.62e-4,-0.0321 0.02213,-0.13697 0.04793,-0.23313 l 0.04687,-0.17485 h -0.747303 -0.747311 v -0.19427 -0.19428 h 0.738246 0.738246 v -0.43458 c 0,-0.29819 -0.04264,-0.48719 -0.135993,-0.60225 l -0.135993,-0.16768 -0.880766,0.0389 c -1.105734,0.0487 -1.113187,0.0561 -1.094431,1.06701 0.0073,0.39452 0.03914,0.70133 0.0708,0.68179 0.03157,-0.0195 0.120011,0.0336 0.196463,0.11808 0.122875,0.13578 0.241186,0.15358 1.020616,0.15358 0.484894,0 0.8821,-0.0262 0.882686,-0.0583 z m -1.399846,-1.37935 v -0.19429 h 0.388547 0.388556 v 0.19429 0.19427 h -0.388556 -0.388547 z m -8.031708,-1.71605 c 0.05786,0.0222 0.105266,0.002 0.105266,-0.0432 0,-0.046 0.05021,-0.0643 0.11154,-0.0408 0.06136,0.0235 0.12255,0.0152 0.135993,-0.0186 0.03467,-0.087 1.54549,-0.55722 1.627467,-0.50656 0.03727,0.023 0.06779,8.2e-4 0.06779,-0.0495 0,-0.0545 0.06575,-0.0741 0.163107,-0.0487 0.08971,0.0234 0.140119,0.0196 0.112012,-0.008 -0.02807,-0.0281 0.06355,-0.0897 0.203705,-0.13687 0.207147,-0.0697 0.286544,-0.16457 0.42462,-0.50705 0.09341,-0.23168 0.163823,-0.42766 0.156459,-0.43549 -0.0073,-0.008 -0.257591,0.10575 -0.556073,0.25239 -1.885578,0.92642 -4.247328,0.13994 -5.195739,-1.73021 -0.183898,-0.36262 -0.356778,-1.16322 -0.358105,-1.65831 -0.0016,-0.53131 0.165345,-1.19162 0.435655,-1.72507 0.267974,-0.52879 1.05039,-1.29953 1.562862,-1.53951 0.223634,-0.10473 0.407223,-0.22039 0.407979,-0.25701 8.2e-4,-0.0366 -0.05598,-0.0446 -0.126041,-0.0177 -0.07006,0.0268 -0.708267,0.15545 -1.418211,0.28567 -0.709935,0.13024 -1.313286,0.2606 -1.340774,0.28971 -0.02751,0.029 -0.4067427,1.17065 -0.8427797,2.53681 l -0.7928,2.48391 0.159511,0.12916 c 0.08773,0.071 0.134764,0.15659 0.104533,0.19012 -0.03027,0.0335 -0.01929,0.0408 0.02441,0.016 0.104021,-0.0589 1.6051537,1.06645 1.5313877,1.14802 -0.03109,0.0344 -0.02091,0.0424 0.0227,0.0177 0.103988,-0.0588 0.983654,0.60008 0.909921,0.68159 -0.03117,0.0344 -0.021,0.0425 0.02262,0.0178 0.07438,-0.0421 0.987333,0.58314 0.948785,0.64971 -0.0098,0.0169 -0.0057,0.0246 0.009,0.0169 0.01473,-0.007 0.130663,0.0494 0.257656,0.12659 l 0.230884,0.14041 0.394756,-0.15 c 0.217115,-0.0825 0.442116,-0.13182 0.500014,-0.1096 z m 1.019265,-1.40691 c -0.07429,-0.0194 -0.214178,-0.0202 -0.310843,-0.002 -0.09666,0.0186 -0.03589,0.0345 0.13509,0.0354 0.17096,8.2e-4 0.250048,-0.0143 0.175753,-0.0338 z m 1.264707,-0.36033 c 0.233528,-0.11047 0.442067,-0.19976 0.463436,-0.19841 0.0214,0.002 0.181652,-0.13138 0.356168,-0.29496 0.259544,-0.24327 0.377676,-0.4601 0.648889,-1.19108 0.182368,-0.49151 0.450465,-1.19889 0.595784,-1.57196 0.14531,-0.37306 0.264206,-0.71043 0.264206,-0.74972 0,-0.0393 -0.314724,-0.28089 -0.699389,-0.53689 -0.384666,-0.256 -0.69939,-0.45632 -0.69939,-0.44514 0,0.0111 0.08756,0.17697 0.194575,0.36845 0.261733,0.46829 0.425238,1.03217 0.426264,1.47001 0.0016,0.52601 -0.26424,1.29176 -0.602253,1.73724 -1.163819,1.53382 -3.606886,1.5305 -4.778045,-0.007 -0.405497,-0.53216 -0.562468,-1.03058 -0.562029,-1.78453 2.2e-4,-0.54853 0.03149,-0.68862 0.253783,-1.14014 0.315863,-0.64162 0.934692,-1.22934 1.528197,-1.4514 0.530953,-0.19866 1.301578,-0.27806 1.732741,-0.17853 0.181644,0.0419 0.329965,0.0537 0.329591,0.0262 -4.23e-4,-0.0275 -0.209881,-0.18481 -0.46556,-0.34954 l -0.464877,-0.29952 -0.525248,0.0884 c -1.488649,0.25054 -2.635932,1.37127 -2.906397,2.83912 -0.155864,0.84592 0.05338,1.73733 0.584416,2.48954 0.09052,0.12821 0.164628,0.26809 0.164702,0.31083 6.5e-5,0.0427 0.04012,0.0777 0.08904,0.0777 0.04891,0 0.245532,0.13988 0.436949,0.31085 0.191409,0.17096 0.378701,0.31968 0.41619,0.33051 0.03751,0.0108 0.312959,0.10846 0.61214,0.217 l 0.543973,0.19732 0.818782,-0.0321 c 0.676638,-0.0264 0.892508,-0.0669 1.243363,-0.23288 z m -0.401364,-0.77389 c 0.144098,-0.072 0.30146,-0.10843 0.349699,-0.0809 0.04825,0.0275 0.06266,0.0223 0.03206,-0.0116 -0.0306,-0.0339 0.07983,-0.15979 0.245368,-0.27973 0.165581,-0.11995 0.363159,-0.32321 0.439057,-0.4517 0.07592,-0.12849 0.175297,-0.21243 0.220883,-0.18652 0.04557,0.0259 0.05981,0.0213 0.03157,-0.0102 -0.02824,-0.0315 0.0188,-0.21566 0.104428,-0.40927 0.199636,-0.45131 0.216074,-1.24487 0.03686,-1.77898 -0.192915,-0.57491 -0.777648,-1.19672 -1.386256,-1.47414 -0.409705,-0.18675 -0.594116,-0.22396 -1.112773,-0.22455 -0.507395,-6.4e-4 -0.701969,0.0365 -1.058414,0.2019 -0.240202,0.11142 -0.580819,0.33275 -0.756922,0.49186 -0.355957,0.32158 -0.751388,1.07104 -0.827677,1.5687 -0.06282,0.40955 0.132616,1.20329 0.393528,1.59855 0.105803,0.16028 0.169356,0.29141 0.141233,0.29141 -0.08544,0 0.613312,0.51106 0.903242,0.66062 0.454794,0.23461 0.635014,0.26822 1.321579,0.24644 0.426858,-0.0135 0.753219,-0.0673 0.922527,-0.15192 z m -1.898989,-0.51349 c -1.018687,-0.46269 -1.491311,-1.64719 -1.058959,-2.65401 0.339616,-0.7909 1.278426,-1.31385 2.170438,-1.20901 0.519755,0.0611 0.905088,0.25456 1.279395,0.64237 0.382859,0.39668 0.52869,0.7744 0.526631,1.36403 -0.0041,1.19848 -0.831647,2.00319 -2.057612,2.00106 -0.361287,-6.3e-4 -0.650069,-0.0491 -0.859893,-0.14444 z m 1.357848,-0.19836 c 0.04671,-0.0288 0.128588,-0.0273 0.182011,0.003 0.05346,0.0308 0.07063,0.0267 0.03825,-0.009 -0.03239,-0.0356 0.07112,-0.13774 0.229899,-0.22683 0.158819,-0.0891 0.393511,-0.31102 0.521546,-0.49319 0.184273,-0.26219 0.23929,-0.43341 0.264011,-0.8217 0.02441,-0.38298 -0.0033,-0.55722 -0.125292,-0.79492 -0.338217,-0.65782 -1.081785,-1.0945 -1.732472,-1.01743 -0.709464,0.084 -1.345536,0.56972 -1.547492,1.18164 -0.106454,0.32256 -0.06925,0.88918 0.08144,1.24097 0.05493,0.12822 0.09336,0.26197 0.08539,0.29718 -0.0081,0.0352 0.0214,0.0419 0.06518,0.0148 0.04378,-0.0271 0.07967,-0.0114 0.07967,0.0348 0,0.0462 0.156459,0.18323 0.347673,0.3045 0.191222,0.12127 0.323423,0.24474 0.293786,0.27439 -0.02962,0.0296 0.0024,0.0321 0.07185,0.006 0.06917,-0.0265 0.143415,-0.0197 0.164987,0.0153 0.04614,0.0748 0.855873,0.0667 0.97957,-0.01 z m -1.041928,-0.50509 c -0.251626,-0.10265 -0.568433,-0.46362 -0.665773,-0.75859 -0.113738,-0.3446 -0.05062,-0.84205 0.140086,-1.10419 0.0804,-0.11054 0.301549,-0.28197 0.49138,-0.38093 0.915805,-0.47741 1.941035,0.20812 1.842637,1.23211 -0.04061,0.42238 -0.291427,0.79641 -0.647424,0.96533 -0.267201,0.1268 -0.901532,0.15208 -1.160906,0.0463 z m 1.206639,-0.51162 c 0.74989,-0.71844 -0.108969,-1.91637 -1.052832,-1.46847 -0.391168,0.18562 -0.599755,0.53079 -0.55281,0.91476 0.03751,0.30672 0.278667,0.63633 0.554421,0.75776 0.289449,0.12746 0.81084,0.0263 1.051221,-0.20405 z m -0.91736,-0.3132 c -0.095,-0.0666 -0.172709,-0.20213 -0.172709,-0.30133 0,-0.18938 0.172188,-0.38983 0.259706,-0.30232 0.02816,0.0282 0.0511,0.0103 0.0511,-0.0395 0,-0.1406 0.272067,-0.10689 0.415368,0.0514 0.07071,0.0781 0.128604,0.21606 0.128604,0.30643 0,0.15901 -0.26013,0.40627 -0.427403,0.40627 -0.04508,0 -0.159706,-0.0544 -0.254695,-0.12097 z"
       style="fill:#707374;fill-opacity:1;stroke:none;stroke-width:0.07771021" />
  </g>
</svg>
